<svg xmlns="http://www.w3.org/2000/svg" viewBox="0 0 500 350">
  <defs>
    <linearGradient id="bg" x1="0" y1="0" x2="0" y2="1">
      <stop offset="0%" stop-color="#FFF8E1"/>
      <stop offset="100%" stop-color="#FFFDE7"/>
    </linearGradient>
    <linearGradient id="panel" x1="0" y1="0" x2="1" y2="0">
      <stop offset="0%" stop-color="#B71C1C"/>
      <stop offset="100%" stop-color="#C62828"/>
    </linearGradient>
  </defs>
  <rect width="500" height="350" fill="url(#bg)" rx="10"/>
  <rect x="3" y="3" width="494" height="344" rx="8" fill="none" stroke="#C62828" stroke-width="3"/>
  <rect x="8" y="8" width="484" height="334" rx="6" fill="none" stroke="#C62828" stroke-width="1" opacity="0.3"/>
  <!-- Bauhaus corner accents -->
  <polygon points="10,10 30,10 10,30" fill="#C62828" opacity="0.12"/>
  <polygon points="490,10 470,10 490,30" fill="#1565C0" opacity="0.12"/>
  <polygon points="10,340 30,340 10,320" fill="#F9A825" opacity="0.12"/>
  <polygon points="490,340 470,340 490,320" fill="#2E7D32" opacity="0.12"/>
  <!-- Title -->
  <text x="250" y="48" font-family="Arial,sans-serif" font-size="24" font-weight="bold" fill="#6A1B9A" text-anchor="middle">Валентность</text>
  <text x="250" y="68" font-family="Arial,sans-serif" font-size="12" fill="#777" text-anchor="middle">Химия - Урок 4</text>
  <line x1="30" y1="78" x2="470" y2="78" stroke="#6A1B9A" stroke-width="2" opacity="0.25"/>
  <rect x="30" y="75" width="60" height="5" fill="#6A1B9A" opacity="0.18" rx="1"/>
  <rect x="410" y="75" width="60" height="5" fill="#1565C0" opacity="0.12" rx="1"/>
  <!-- ILLUSTRATION AREA: x=15..485, y=85..300 -->
  <clipPath id="ill"><rect x="15" y="85" width="470" height="215" rx="6"/></clipPath>
  <g clip-path="url(#ill)">
  <rect x="15" y="85" width="470" height="215" fill="#F3E5F5"/><g transform="translate(200,180) scale(1.5)"><line x1="0" y1="0" x2="-20" y2="-12" stroke="#546E7A" stroke-width="2"/><line x1="0" y1="0" x2="20" y2="-12" stroke="#546E7A" stroke-width="2"/><line x1="0" y1="0" x2="-20" y2="12" stroke="#546E7A" stroke-width="2"/><circle cx="0" cy="0" r="10" fill="#C62828" stroke="#333" stroke-width="0.5"/><circle cx="-20" cy="-12" r="7" fill="#90A4AE" stroke="#333" stroke-width="0.5"/><circle cx="20" cy="-12" r="7" fill="#90A4AE" stroke="#333" stroke-width="0.5"/><circle cx="-20" cy="12" r="7" fill="#90A4AE" stroke="#333" stroke-width="0.5"/></g><text x="200" y="210" font-family="Arial" font-size="14" fill="#C62828" text-anchor="middle">CH4</text><g transform="translate(370,180) scale(1.3)"><line x1="0" y1="0" x2="-18" y2="-10" stroke="#546E7A" stroke-width="2"/><line x1="0" y1="0" x2="18" y2="-10" stroke="#546E7A" stroke-width="2"/><circle cx="0" cy="0" r="10" fill="#1565C0" stroke="#333" stroke-width="0.5"/><circle cx="-18" cy="-10" r="6" fill="#90A4AE" stroke="#333" stroke-width="0.5"/><circle cx="18" cy="-10" r="6" fill="#90A4AE" stroke="#333" stroke-width="0.5"/></g><text x="370" y="210" font-family="Arial" font-size="14" fill="#1565C0" text-anchor="middle">H2O</text><text x="250" y="260" font-family="Arial,sans-serif" font-size="14" fill="#6A1B9A" text-anchor="middle" font-weight="bold">Валентность и связи</text>
  </g>
  <!-- Bottom panel -->
  <rect x="12" y="305" width="476" height="32" rx="5" fill="url(#panel)"/>
  <line x1="20" y1="308" x2="20" y2="334" stroke="#F9A825" stroke-width="1.5" opacity="0.6"/>
  <line x1="480" y1="308" x2="480" y2="334" stroke="#F9A825" stroke-width="1.5" opacity="0.6"/>
  <text x="250" y="326" font-family="Arial,sans-serif" font-size="15" text-anchor="middle" fill="white" font-weight="bold">Химия</text>
</svg>