<svg xmlns="http://www.w3.org/2000/svg" viewBox="0 0 500 350">
<style>.tl{animation:l 3s ease-in-out infinite;transform-origin:120px 130px}@keyframes l{0%,100%{transform:rotate(-5deg)}50%{transform:rotate(5deg)}}</style>
<rect width="500" height="350" fill="#E8F5E9"/>
<text x="250" y="24" text-anchor="middle" font-size="16" font-family="sans-serif" fill="#1B5E20" font-weight="bold">Экологический проект</text>
<rect x="0" y="30" width="500" height="180" fill="#B3E5FC"/>
<path d="M0,180Q80,170 160,180Q240,190 320,180Q400,170 500,180L500,250L0,250Z" fill="#4FC3F7" fill-opacity=".7"/>
<path d="M0,185Q80,175 160,185Q240,195 320,185Q400,175 500,185L500,250L0,250Z" fill="#29B6F6" fill-opacity=".4"/>
<ellipse cx="200" cy="215" rx="14" ry="8" fill="#FF8A65" stroke="#E64A19" stroke-width="1"/>
<polygon points="214,215 222,208 222,222" fill="#FF8A65" stroke="#E64A19" stroke-width=".5"/>
<circle cx="194" cy="213" r="2" fill="#5D4037"/>
<rect x="0" y="245" width="500" height="105" fill="#66BB6A"/>
<g class="tl"><rect x="115" y="135" width="10" height="55" fill="#795548"/>
<circle cx="120" cy="120" r="22" fill="#4CAF50"/>
<circle cx="108" cy="125" r="16" fill="#66BB6A"/>
<circle cx="133" cy="122" r="14" fill="#388E3C"/></g>
<rect x="55" y="155" width="8" height="45" fill="#795548"/>
<circle cx="59" cy="145" r="18" fill="#4CAF50"/>
<circle cx="50" cy="148" r="12" fill="#66BB6A"/>
<circle cx="68" cy="146" r="10" fill="#388E3C"/>
<ellipse cx="300" cy="290" rx="15" ry="22" fill="#64B5F6"/>
<circle cx="300" cy="260" r="12" fill="#FFCCBC" stroke="#8D6E63" stroke-width="1"/>
<circle cx="296" cy="258" r="1.5" fill="#5D4037"/><circle cx="304" cy="258" r="1.5" fill="#5D4037"/>
<path d="M297,263Q300,266 303,263" fill="none" stroke="#5D4037" stroke-width="1"/>
<path d="M290,254Q300,246 310,254" fill="#5D4037"/>
<path d="M315,278L330,260" stroke="#FFCCBC" stroke-width="4" stroke-linecap="round"/>
<line x1="330" y1="260" x2="340" y2="290" stroke="#78909C" stroke-width="3"/>
<path d="M335,290L345,290L343,305L337,305Z" fill="#90A4AE" stroke="#78909C" stroke-width="1"/>
<rect x="265" y="270" width="5" height="20" fill="#795548"/>
<circle cx="267" cy="265" r="8" fill="#81C784"/>
<circle cx="262" cy="268" r="5" fill="#66BB6A"/>
<circle cx="273" cy="267" r="5" fill="#4CAF50"/>
<path d="M400,260L395,310L455,310L450,260Z" fill="#4CAF50" stroke="#2E7D32" stroke-width="2"/>
<rect x="393" y="252" width="64" height="10" rx="3" fill="#388E3C"/>
<path d="M412,295L420,280L416,282" fill="none" stroke="white" stroke-width="2.5" stroke-linecap="round"/>
<path d="M438,295L430,280L434,282" fill="none" stroke="white" stroke-width="2.5" stroke-linecap="round"/>
<path d="M412,295L425,300L438,295" fill="none" stroke="white" stroke-width="2.5" stroke-linecap="round"/>
<g transform="translate(60,50) scale(.8)">
<path d="M40,0L60,30L48,25L35,55L25,25L12,30Z" fill="#4CAF50" stroke="#2E7D32" stroke-width="1.5"/>
<path d="M40,0L60,30L48,25L35,55L25,25L12,30Z" fill="#4CAF50" stroke="#2E7D32" stroke-width="1.5" transform="rotate(120,40,30)"/>
<path d="M40,0L60,30L48,25L35,55L25,25L12,30Z" fill="#4CAF50" stroke="#2E7D32" stroke-width="1.5" transform="rotate(240,40,30)"/>
</g>
<ellipse cx="200" cy="55" rx="30" ry="14" fill="white"/>
<ellipse cx="220" cy="52" rx="20" ry="11" fill="white"/>
<path d="M160,70Q165,65 170,70" fill="none" stroke="#5D4037" stroke-width="1.5"/>
<path d="M180,60Q185,55 190,60" fill="none" stroke="#5D4037" stroke-width="1.5"/>
<circle cx="350" cy="280" r="4" fill="#F48FB1"/><circle cx="350" cy="280" r="1.5" fill="#FFD54F"/>
<path d="M460,60C460,50 450,45 445,50C440,45 430,50 430,60C430,72 445,82 445,82C445,82 460,72 460,60Z" fill="#66BB6A"/>
</svg>