<svg xmlns="http://www.w3.org/2000/svg" viewBox="0 0 500 350">
<style>.sp{animation:g 2s ease-in-out infinite;transform-origin:440px 295px}@keyframes g{0%,100%{transform:scaleY(1)}50%{transform:scaleY(1.05)}}</style>
<rect width="500" height="350" fill="#E8F5E9"/>
<text x="250" y="24" text-anchor="middle" font-size="16" font-family="sans-serif" fill="#33691E" font-weight="bold">Исследование растений</text>
<rect x="0" y="280" width="500" height="70" fill="#8D6E63"/>
<rect x="0" y="280" width="500" height="10" fill="#66BB6A"/>
<circle cx="300" cy="150" r="60" fill="#E8F5E9" fill-opacity=".3" stroke="#78909C" stroke-width="6"/>
<circle cx="300" cy="150" r="56" fill="none" stroke="#B0BEC5" stroke-width="2"/>
<line x1="342" y1="202" x2="390" y2="255" stroke="#78909C" stroke-width="8" stroke-linecap="round"/>
<circle cx="392" cy="258" r="8" fill="#78909C"/>
<circle cx="300" cy="145" r="12" fill="#F48FB1"/>
<circle cx="300" cy="128" r="10" fill="#F48FB1"/>
<circle cx="300" cy="162" r="10" fill="#F48FB1"/>
<circle cx="283" cy="145" r="10" fill="#F48FB1"/>
<circle cx="317" cy="145" r="10" fill="#F48FB1"/>
<circle cx="288" cy="132" r="10" fill="#CE93D8"/>
<circle cx="312" cy="132" r="10" fill="#CE93D8"/>
<circle cx="288" cy="158" r="10" fill="#CE93D8"/>
<circle cx="312" cy="158" r="10" fill="#CE93D8"/>
<circle cx="300" cy="145" r="10" fill="#FFD54F"/>
<circle cx="296" cy="142" r="2" fill="#FF8F00"/>
<circle cx="304" cy="142" r="2" fill="#FF8F00"/>
<circle cx="300" cy="148" r="2" fill="#FF8F00"/>
<line x1="300" y1="175" x2="300" y2="210" stroke="#4CAF50" stroke-width="3"/>
<ellipse cx="288" cy="195" rx="12" ry="5" fill="#66BB6A" transform="rotate(-30,288,195)"/>
<ellipse cx="312" cy="190" rx="12" ry="5" fill="#66BB6A" transform="rotate(25,312,190)"/>
<path d="M100,230L85,280L155,280L140,230Z" fill="#A1887F" stroke="#6D4C41" stroke-width="2"/>
<rect x="90" y="222" width="60" height="12" rx="3" fill="#8D6E63" stroke="#6D4C41" stroke-width="1.5"/>
<path d="M110,280Q105,300 95,310" fill="none" stroke="#BCAAA4" stroke-width="2"/>
<path d="M120,280Q118,305 115,315" fill="none" stroke="#BCAAA4" stroke-width="2"/>
<path d="M130,280Q132,305 135,312" fill="none" stroke="#BCAAA4" stroke-width="2"/>
<path d="M140,280Q145,298 155,308" fill="none" stroke="#BCAAA4" stroke-width="2"/>
<line x1="88" y1="280" x2="152" y2="280" stroke="#6D4C41" stroke-width="1.5"/>
<line x1="120" y1="222" x2="120" y2="155" stroke="#4CAF50" stroke-width="3"/>
<ellipse cx="105" cy="180" rx="15" ry="7" fill="#66BB6A" transform="rotate(-25,105,180)"/>
<ellipse cx="138" cy="170" rx="15" ry="7" fill="#66BB6A" transform="rotate(20,138,170)"/>
<circle cx="120" cy="148" r="10" fill="#FF8A65"/>
<circle cx="120" cy="135" r="7" fill="#FFAB91"/>
<circle cx="110" cy="148" r="7" fill="#FFAB91"/>
<circle cx="130" cy="148" r="7" fill="#FFAB91"/>
<circle cx="120" cy="148" r="5" fill="#FFD54F"/>
<g class="sp"><ellipse cx="440" cy="300" rx="25" ry="8" fill="#8D6E63"/>
<line x1="440" y1="295" x2="440" y2="260" stroke="#66BB6A" stroke-width="3"/>
<ellipse cx="430" cy="265" rx="12" ry="8" fill="#81C784" transform="rotate(-30,430,265)"/>
<ellipse cx="452" cy="260" rx="12" ry="8" fill="#66BB6A" transform="rotate(25,452,260)"/>
<ellipse cx="440" cy="310" rx="8" ry="5" fill="#A1887F" stroke="#795548" stroke-width="1"/></g>
<rect x="30" y="290" width="30" height="22" rx="3" fill="#64B5F6" stroke="#42A5F5" stroke-width="1.5"/>
<path d="M60,295L75,285" stroke="#42A5F5" stroke-width="3" stroke-linecap="round"/>
<path d="M75,285L72,275" stroke="#42A5F5" stroke-width="2"/>
<path d="M75,285L78,277" stroke="#42A5F5" stroke-width="2"/>
<path d="M30,295Q25,290 30,285L40,285" fill="none" stroke="#42A5F5" stroke-width="2"/>
<ellipse cx="175" cy="140" rx="8" ry="5" fill="#FFD54F" transform="rotate(-20,175,140)"/>
<ellipse cx="185" cy="140" rx="8" ry="5" fill="#FFC107" transform="rotate(20,185,140)"/>
<line x1="180" y1="140" x2="180" y2="148" stroke="#5D4037" stroke-width="1"/>
</svg>