<svg xmlns="http://www.w3.org/2000/svg" viewBox="0 0 500 350">
<style>.st{animation:sp 1.5s ease-in-out infinite}@keyframes sp{50%{opacity:.3}}</style>
<rect width="500" height="350" fill="#FCE4EC"/>
<text x="250" y="24" text-anchor="middle" font-size="16" font-family="sans-serif" fill="#880E4F" font-weight="bold">Наглядные материалы</text>
<rect x="10" y="220" width="480" height="8" rx="3" fill="#8D6E63" stroke="#6D4C41" stroke-width="1.5"/>
<rect x="30" y="228" width="8" height="100" fill="#8D6E63"/>
<rect x="462" y="228" width="8" height="100" fill="#8D6E63"/>
<!-- Easel -->
<line x1="140" y1="220" x2="120" y2="330" stroke="#795548" stroke-width="4"/>
<line x1="260" y1="220" x2="280" y2="330" stroke="#795548" stroke-width="4"/>
<rect x="130" y="50" width="140" height="170" rx="3" fill="white" stroke="#5D4037" stroke-width="2"/>
<!-- Poster content -->
<rect x="140" y="60" width="35" height="28" rx="2" fill="#B3E5FC" stroke="#78909C" stroke-width="1"/>
<circle cx="152" cy="70" r="5" fill="#FFCCBC"/>
<path d="M142,82Q152,76 162,82" fill="#66BB6A"/>
<rect x="185" y="60" width="35" height="28" rx="2" fill="#FFCCBC" stroke="#78909C" stroke-width="1"/>
<circle cx="200" cy="72" r="8" fill="#FFD54F"/>
<circle cx="155" cy="60" r="4" fill="#E53935"/><circle cx="200" cy="60" r="4" fill="#42A5F5"/>
<rect x="140" y="100" width="12" height="30" rx="1" fill="#4CAF50"/>
<rect x="157" y="110" width="12" height="20" rx="1" fill="#FFC107"/>
<rect x="174" y="95" width="12" height="35" rx="1" fill="#42A5F5"/>
<rect x="191" y="105" width="12" height="25" rx="1" fill="#E53935"/>
<line x1="140" y1="142" x2="260" y2="142" stroke="#BDBDBD" stroke-width="1.5"/>
<line x1="140" y1="150" x2="245" y2="150" stroke="#BDBDBD" stroke-width="1.5"/>
<line x1="140" y1="158" x2="255" y2="158" stroke="#BDBDBD" stroke-width="1.5"/>
<polygon class="st" points="230,170 233,178 242,178 235,183 237,192 230,187 223,192 225,183 218,178 227,178" fill="#FFD54F" stroke="#FFC107" stroke-width=".5"/>
<!-- Scissors -->
<g transform="translate(350,180) rotate(-30)">
<ellipse cx="-5" cy="15" rx="6" ry="10" fill="none" stroke="#78909C" stroke-width="3"/>
<ellipse cx="5" cy="15" rx="6" ry="10" fill="none" stroke="#78909C" stroke-width="3"/>
<line x1="-3" y1="5" x2="0" y2="-15" stroke="#78909C" stroke-width="3"/>
<line x1="3" y1="5" x2="0" y2="-15" stroke="#78909C" stroke-width="3"/>
</g>
<!-- Glue -->
<rect x="420" y="140" width="18" height="40" rx="4" fill="white" stroke="#78909C" stroke-width="1.5"/>
<rect x="424" y="130" width="10" height="14" rx="2" fill="#FF8A65" stroke="#E64A19" stroke-width="1"/>
<rect x="426" y="124" width="6" height="8" rx="1" fill="#FFC107"/>
<!-- Markers -->
<rect x="310" y="210" width="8" height="45" rx="2" fill="#E53935" transform="rotate(-10,314,232)"/>
<rect x="330" y="210" width="8" height="45" rx="2" fill="#42A5F5" transform="rotate(5,334,232)"/>
<rect x="350" y="212" width="8" height="42" rx="2" fill="#66BB6A" transform="rotate(15,354,233)"/>
<!-- Paper -->
<rect x="390" y="200" width="40" height="30" rx="1" fill="white" stroke="#BDBDBD" stroke-width="1" transform="rotate(8,410,215)"/>
<rect x="380" y="210" width="40" height="30" rx="1" fill="#FFF9C4" stroke="#BDBDBD" stroke-width="1" transform="rotate(-5,400,225)"/>
<!-- Ruler -->
<rect x="60" y="225" width="80" height="12" rx="1" fill="#FFECB3" stroke="#F9A825" stroke-width="1"/>
<line x1="80" y1="225" x2="80" y2="234" stroke="#F9A825" stroke-width=".5"/>
<line x1="100" y1="225" x2="100" y2="234" stroke="#F9A825" stroke-width=".5"/>
<line x1="120" y1="225" x2="120" y2="234" stroke="#F9A825" stroke-width=".5"/>
<!-- Paint -->
<circle cx="440" cy="240" r="10" fill="#E53935" opacity=".8"/>
<circle cx="455" cy="240" r="10" fill="#42A5F5" opacity=".8"/>
<circle cx="447" cy="250" r="10" fill="#FFD54F" opacity=".8"/>
</svg>