<svg xmlns="http://www.w3.org/2000/svg" viewBox="0 0 500 350">
<style>.h{animation:p 2s ease-in-out infinite;transform-origin:250px 60px}@keyframes p{0%,100%{transform:scale(1)}50%{transform:scale(1.15)}}</style>
<rect width="500" height="350" fill="#FFF8E7"/>
<text x="250" y="24" text-anchor="middle" font-size="16" font-family="sans-serif" fill="#5D4037" font-weight="bold">Моя семья</text>
<polygon points="250,65 185,110 315,110" fill="#E57373" stroke="#C62828" stroke-width="2"/>
<rect x="195" y="110" width="120" height="70" fill="#FFCCBC" stroke="#C62828" stroke-width="2"/>
<rect x="230" y="140" width="30" height="40" rx="2" fill="#8D6E63" stroke="#5D4037" stroke-width="1.5"/>
<circle cx="254" cy="162" r="3" fill="#FFD54F"/>
<rect x="205" y="125" width="20" height="20" rx="2" fill="#81D4FA" stroke="#5D4037" stroke-width="1"/>
<rect x="285" y="125" width="20" height="20" rx="2" fill="#81D4FA" stroke="#5D4037" stroke-width="1"/>
<path class="h" d="M250,55C250,48 240,42 234,48C228,42 218,48 218,55C218,65 250,78 250,78C250,78 282,65 282,55C282,48 272,42 266,48C260,42 250,48 250,55Z" fill="#E91E63"/>
<line x1="250" y1="180" x2="155" y2="210" stroke="#A1887F" stroke-width="1.5"/>
<line x1="250" y1="180" x2="345" y2="210" stroke="#A1887F" stroke-width="1.5"/>
<circle cx="155" cy="225" r="14" fill="#FFCCBC" stroke="#8D6E63" stroke-width="1.5"/>
<circle cx="150" cy="222" r="2" fill="#5D4037"/><circle cx="160" cy="222" r="2" fill="#5D4037"/>
<path d="M151,228Q155,232 159,228" fill="none" stroke="#5D4037" stroke-width="1"/>
<path d="M141,218Q155,205 169,218" fill="#BDBDBD"/>
<circle cx="345" cy="225" r="14" fill="#FFCCBC" stroke="#8D6E63" stroke-width="1.5"/>
<circle cx="340" cy="222" r="2" fill="#5D4037"/><circle cx="350" cy="222" r="2" fill="#5D4037"/>
<path d="M341,228Q345,232 349,228" fill="none" stroke="#5D4037" stroke-width="1"/>
<rect x="336" y="215" width="18" height="4" rx="2" fill="#78909C"/>
<line x1="155" y1="240" x2="210" y2="260" stroke="#A1887F" stroke-width="1.5"/>
<line x1="345" y1="240" x2="290" y2="260" stroke="#A1887F" stroke-width="1.5"/>
<circle cx="210" cy="275" r="14" fill="#FFCCBC" stroke="#8D6E63" stroke-width="1.5"/>
<circle cx="205" cy="272" r="2" fill="#5D4037"/><circle cx="215" cy="272" r="2" fill="#5D4037"/>
<path d="M206,278Q210,282 214,278" fill="none" stroke="#5D4037" stroke-width="1"/>
<path d="M198,268Q210,258 222,268" fill="#6D4C41"/>
<ellipse cx="210" cy="290" rx="12" ry="14" fill="#F48FB1"/>
<circle cx="290" cy="275" r="14" fill="#FFCCBC" stroke="#8D6E63" stroke-width="1.5"/>
<circle cx="285" cy="272" r="2" fill="#5D4037"/><circle cx="295" cy="272" r="2" fill="#5D4037"/>
<path d="M286,278Q290,282 294,278" fill="none" stroke="#5D4037" stroke-width="1"/>
<path d="M278,268Q290,260 302,268" fill="#5D4037"/>
<ellipse cx="290" cy="290" rx="12" ry="14" fill="#64B5F6"/>
<line x1="210" y1="305" x2="185" y2="320" stroke="#A1887F" stroke-width="1.5"/>
<line x1="290" y1="305" x2="315" y2="320" stroke="#A1887F" stroke-width="1.5"/>
<circle cx="185" cy="330" r="10" fill="#FFCCBC" stroke="#8D6E63" stroke-width="1"/>
<circle cx="182" cy="328" r="1.5" fill="#5D4037"/><circle cx="188" cy="328" r="1.5" fill="#5D4037"/>
<ellipse cx="185" cy="340" rx="8" ry="8" fill="#CE93D8"/>
<circle cx="315" cy="330" r="10" fill="#FFCCBC" stroke="#8D6E63" stroke-width="1"/>
<circle cx="312" cy="328" r="1.5" fill="#5D4037"/><circle cx="318" cy="328" r="1.5" fill="#5D4037"/>
<ellipse cx="315" cy="340" rx="8" ry="8" fill="#81C784"/>
</svg>