<svg xmlns="http://www.w3.org/2000/svg" viewBox="0 0 500 350">
<rect width="500" height="350" fill="#FFFDE7"/>
<circle cx="250" cy="60" r="45" fill="#FFF176" stroke="#FF8F00" stroke-width="3"/>
<line x1="250" y1="12" x2="250" y2="2" stroke="#FF8F00" stroke-width="2.5"/>
<line x1="285" y1="25" x2="298" y2="12" stroke="#FF8F00" stroke-width="2.5"/>
<line x1="215" y1="25" x2="202" y2="12" stroke="#FF8F00" stroke-width="2.5"/>
<line x1="295" y1="60" x2="310" y2="60" stroke="#FF8F00" stroke-width="2.5"/>
<line x1="205" y1="60" x2="190" y2="60" stroke="#FF8F00" stroke-width="2.5"/>
<line x1="285" y1="95" x2="298" y2="108" stroke="#FF8F00" stroke-width="2.5"/>
<line x1="215" y1="95" x2="202" y2="108" stroke="#FF8F00" stroke-width="2.5"/>
<path d="M140,130 Q180,115 220,120 Q260,125 300,115 Q340,105 380,120" fill="none" stroke="#FF8F00" stroke-width="2" stroke-dasharray="5,3"/>
<text x="250" y="145" font-size="8" fill="#E65100" text-anchor="middle">световые лучи</text>
<rect x="80" y="160" width="140" height="160" rx="4" fill="#FFF" stroke="#FF8F00" stroke-width="1.5"/>
<text x="150" y="180" font-size="9" fill="#E65100" text-anchor="middle" font-weight="bold">Свет</text>
<rect x="100" y="190" width="100" height="50" rx="3" fill="#FFF8E1" stroke="#FFB74D" stroke-width="1"/>
<path d="M110,225 L120,210 L130,220 L140,200 L150,215 L160,205 L170,220 L180,210 L190,225" fill="none" stroke="#FF8F00" stroke-width="1.5"/>
<text x="150" y="205" font-size="7" fill="#E65100" text-anchor="middle">фотопериодизм</text>
<path d="M130,250 Q150,240 170,255" fill="none" stroke="#4CAF50" stroke-width="2"/>
<ellipse cx="170" cy="255" rx="6" ry="3" fill="#81C784"/>
<text x="150" y="275" font-size="7" fill="#388E3C" text-anchor="middle">фототропизм</text>
<text x="150" y="295" font-size="7" fill="#FF8F00" text-anchor="middle">растения к свету</text>
<rect x="260" y="160" width="180" height="160" rx="4" fill="#FFF" stroke="#D32F2F" stroke-width="1.5"/>
<text x="350" y="180" font-size="9" fill="#C62828" text-anchor="middle" font-weight="bold">Температура</text>
<rect x="290" y="190" width="20" height="100" rx="8" fill="#FFCDD2" stroke="#D32F2F" stroke-width="2"/>
<ellipse cx="300" cy="280" rx="12" ry="6" fill="#EF5350"/>
<line x1="310" y1="220" x2="340" y2="220" stroke="#D32F2F" stroke-width="1"/>
<text x="350" y="223" font-size="7" fill="#C62828">36,6°C</text>
<line x1="310" y1="250" x2="340" y2="250" stroke="#D32F2F" stroke-width="1"/>
<text x="350" y="253" font-size="7" fill="#C62828">20°C</text>
<line x1="310" y1="270" x2="340" y2="270" stroke="#42A5F5" stroke-width="1"/>
<text x="350" y="273" font-size="7" fill="#1565C0">0°C</text>
<rect x="280" y="295" width="140" height="20" rx="3" fill="#FFF3E0" stroke="#FF8F00" stroke-width="1"/>
<text x="350" y="309" font-size="7" fill="#E65100" text-anchor="middle">пределы выносливости</text>
<text x="250" y="345" font-size="9" fill="#666" text-anchor="middle" opacity="0.5">Свет и температура как факторы</text>
</svg>