<svg xmlns="http://www.w3.org/2000/svg" viewBox="0 0 500 350">
  <defs>
    <linearGradient id="bg" x1="0" y1="0" x2="0" y2="1">
      <stop offset="0%" stop-color="#E3F2FD"/>
      <stop offset="100%" stop-color="#FFFFFF"/>
    </linearGradient>
    <linearGradient id="panel" x1="0" y1="0" x2="1" y2="0">
      <stop offset="0%" stop-color="#1565C0"/>
      <stop offset="100%" stop-color="#1976D2"/>
    </linearGradient>
  </defs>
  <rect width="500" height="350" fill="url(#bg)" rx="10"/>
  <rect x="3" y="3" width="494" height="344" rx="8" fill="none" stroke="#1565C0" stroke-width="2.5"/>
  <text x="250" y="28" font-family="Arial,sans-serif" font-size="13" font-weight="bold" fill="#1565C0" text-anchor="middle">Сила тяжести</text>
  <text x="250" y="44" font-family="Arial,sans-serif" font-size="10" fill="#888" text-anchor="middle">Физика 10 класс — Урок 14</text>
  <line x1="30" y1="52" x2="470" y2="52" stroke="#1565C0" stroke-width="1.5" opacity="0.25"/>
  <clipPath id="ill"><rect x="15" y="56" width="470" height="238" rx="6"/></clipPath>
  <g clip-path="url(#ill)">
    <rect x="15" y="56" width="470" height="238" fill="#E3F2FD" opacity="0.4"/>

    <!-- Earth with objects falling -->
    <rect x="25" y="62" width="220" height="130" rx="5" fill="white" stroke="#1565C0" stroke-width="1.2"/>
    <text x="135" y="78" font-family="Arial,sans-serif" font-size="9" fill="#1565C0" font-weight="bold" text-anchor="middle">Сила тяжести</text>

    <!-- Earth arc -->
    <path d="M 40 185 Q 135 195 230 185" fill="none" stroke="#2E7D32" stroke-width="3"/>
    <ellipse cx="135" cy="190" rx="95" ry="12" fill="#2E7D32" opacity="0.15"/>

    <!-- Object 1: ball -->
    <circle cx="80" cy="100" r="8" fill="#E53935"/>
    <!-- Weight arrow -->
    <line x1="80" y1="108" x2="80.0" y2="151.0" stroke="#E53935" stroke-width="2.5"/>
    <polygon points="80,155 76.8,147.0 83.2,147.0" fill="#E53935"/>
    <text x="92" y="130" font-family="Arial,sans-serif" font-size="9" fill="#E53935" font-weight="bold" font-style="italic">F(т)</text>
    <text x="92" y="142" font-family="Arial,sans-serif" font-size="7" fill="#555">= mg</text>

    <!-- Object 2: box -->
    <rect x="155" y="92" width="20" height="16" rx="2" fill="#1565C0"/>
    <line x1="165" y1="108" x2="165.0" y2="156.0" stroke="#1565C0" stroke-width="2.5"/>
    <polygon points="165,160 161.8,152.0 168.2,152.0" fill="#1565C0"/>
    <text x="177" y="135" font-family="Arial,sans-serif" font-size="9" fill="#1565C0" font-weight="bold" font-style="italic">F(т)</text>

    <!-- Center of Earth arrow -->
    <text x="135" y="178" font-family="Arial,sans-serif" font-size="7" fill="#2E7D32" text-anchor="middle">К центру Земли</text>

    <!-- Formula box -->
    <rect x="260" y="62" width="215" height="65" rx="5" fill="white" stroke="#E53935" stroke-width="1.2"/>
    <text x="367" y="78" font-family="Arial,sans-serif" font-size="9" fill="#E53935" font-weight="bold" text-anchor="middle">Формулы</text>
    <line x1="270" y1="83" x2="465" y2="83" stroke="#E53935" stroke-width="0.5" opacity="0.3"/>
    <text x="367" y="100" font-family="Arial,sans-serif" font-size="11" fill="#333" text-anchor="middle" font-weight="bold">F(т) = m * g</text>
    <text x="367" y="118" font-family="Arial,sans-serif" font-size="9" fill="#555" text-anchor="middle">g = 9.8 м/с/с (ускорение своб. падения)</text>

    <!-- Weight vs Mass -->
    <rect x="260" y="135" width="215" height="57" rx="5" fill="white" stroke="#F57C00" stroke-width="1.2"/>
    <text x="367" y="151" font-family="Arial,sans-serif" font-size="9" fill="#F57C00" font-weight="bold" text-anchor="middle">Вес vs Масса</text>
    <line x1="270" y1="156" x2="465" y2="156" stroke="#F57C00" stroke-width="0.5" opacity="0.3"/>
    <text x="290" y="170" font-family="Arial,sans-serif" font-size="8" fill="#E53935">P = mg (вес, Н)</text>
    <text x="290" y="184" font-family="Arial,sans-serif" font-size="8" fill="#1565C0">m (масса, кг)</text>
    <text x="400" y="177" font-family="Arial,sans-serif" font-size="7" fill="#555">P != m!</text>

    <!-- Free fall acceleration on different planets -->
    <rect x="25" y="205" width="225" height="70" rx="5" fill="white" stroke="#7B1FA2" stroke-width="1.2"/>
    <text x="137" y="221" font-family="Arial,sans-serif" font-size="9" fill="#7B1FA2" font-weight="bold" text-anchor="middle">g на разных планетах</text>
    <line x1="35" y1="226" x2="240" y2="226" stroke="#7B1FA2" stroke-width="0.5" opacity="0.3"/>
    <!-- Bar chart for g values -->
    <rect x="45" y="245" width="25" height="20" rx="2" fill="#E53935"/>
    <text x="57" y="240" font-family="Arial,sans-serif" font-size="6" fill="#555" text-anchor="middle">Земля</text>
    <text x="57" y="270" font-family="Arial,sans-serif" font-size="6" fill="#555" text-anchor="middle">9.8</text>

    <rect x="85" y="250" width="25" height="15" rx="2" fill="#F57C00"/>
    <text x="97" y="240" font-family="Arial,sans-serif" font-size="6" fill="#555" text-anchor="middle">Марс</text>
    <text x="97" y="270" font-family="Arial,sans-serif" font-size="6" fill="#555" text-anchor="middle">3.7</text>

    <rect x="125" y="255" width="25" height="10" rx="2" fill="#42A5F5"/>
    <text x="137" y="240" font-family="Arial,sans-serif" font-size="6" fill="#555" text-anchor="middle">Луна</text>
    <text x="137" y="270" font-family="Arial,sans-serif" font-size="6" fill="#555" text-anchor="middle">1.6</text>

    <rect x="165" y="237" width="25" height="28" rx="2" fill="#2E7D32"/>
    <text x="177" y="233" font-family="Arial,sans-serif" font-size="6" fill="#555" text-anchor="middle">Юпитер</text>
    <text x="177" y="270" font-family="Arial,sans-serif" font-size="6" fill="#555" text-anchor="middle">24.8</text>

    <rect x="205" y="242" width="25" height="23" rx="2" fill="#7B1FA2"/>
    <text x="217" y="238" font-family="Arial,sans-serif" font-size="6" fill="#555" text-anchor="middle">Венера</text>
    <text x="217" y="270" font-family="Arial,sans-serif" font-size="6" fill="#555" text-anchor="middle">8.9</text>

    <!-- Weightlessness -->
    <rect x="260" y="205" width="215" height="70" rx="5" fill="white" stroke="#1565C0" stroke-width="1.2"/>
    <text x="367" y="221" font-family="Arial,sans-serif" font-size="9" fill="#1565C0" font-weight="bold" text-anchor="middle">Невесомость</text>
    <line x1="270" y1="226" x2="465" y2="226" stroke="#1565C0" stroke-width="0.5" opacity="0.3"/>
    <!-- Astronaut in capsule -->
    <ellipse cx="367" cy="255" rx="30" ry="15" fill="none" stroke="#1565C0" stroke-width="1.5"/>
    <!-- Floating figure -->
    <circle cx="367" cy="245" r="5" fill="#FFCC80"/>
    <line x1="367" y1="250" x2="367" y2="260" stroke="#333" stroke-width="1.5"/>
    <line x1="357" y1="255" x2="377" y2="255" stroke="#333" stroke-width="1.5"/>
    <text x="367" y="272" font-family="Arial,sans-serif" font-size="7" fill="#555" text-anchor="middle">P = 0 при свободном падении</text>
    
  </g>
  <rect x="12" y="298" width="476" height="42" rx="5" fill="url(#panel)"/>
  <text x="250" y="316" font-family="Arial,sans-serif" font-size="14" text-anchor="middle" fill="white" font-weight="bold">Динамика</text>
  <text x="250" y="332" font-family="Arial,sans-serif" font-size="10" text-anchor="middle" fill="white" opacity="0.8">Урок 14</text>
</svg>