<svg xmlns="http://www.w3.org/2000/svg" viewBox="0 0 500 350">
  <defs><linearGradient id="bg" x1="0" y1="0" x2="0" y2="1"><stop offset="0%" stop-color="#E3F2FD"/><stop offset="100%" stop-color="#FFF"/></linearGradient>
  <linearGradient id="panel" x1="0" y1="0" x2="1" y2="0"><stop offset="0%" stop-color="#1565C0"/><stop offset="100%" stop-color="#1976D2"/></linearGradient></defs>
  <rect width="500" height="350" fill="url(#bg)" rx="10"/>
  <rect x="3" y="3" width="494" height="344" rx="8" fill="none" stroke="#1565C0" stroke-width="2.5"/>
  <text x="250" y="28" font-family="Arial,sans-serif" font-size="13" font-weight="bold" fill="#1565C0" text-anchor="middle">Диэлектрики в электрическом поле</text>
  <text x="250" y="44" font-family="Arial,sans-serif" font-size="10" fill="#888" text-anchor="middle">Физика 10 класс — Урок 48</text>
  <line x1="30" y1="52" x2="470" y2="52" stroke="#1565C0" stroke-width="1.5" opacity="0.25"/>
  <clipPath id="ill"><rect x="15" y="56" width="470" height="238" rx="6"/></clipPath>
  <g clip-path="url(#ill)"><rect x="15" y="56" width="470" height="238" fill="#E3F2FD" opacity="0.4"/>

    <!-- Polarization -->
    <rect x="25" y="62" width="225" height="150" rx="5" fill="white" stroke="#1565C0" stroke-width="1.2"/>
    <text x="137" y="78" font-family="Arial,sans-serif" font-size="9" fill="#1565C0" font-weight="bold" text-anchor="middle">Поляризация диэлектрика</text>

    <!-- External field -->
    <line x1="30" y1="140" x2="67.0" y2="140.0" stroke="#E53935" stroke-width="1.5"/>
<polygon points="70,140 64.0,142.4 64.0,137.6" fill="#E53935"/>
    <text x="50" y="133" font-family="Arial,sans-serif" font-size="8" fill="#E53935">E0</text>

    <!-- Dielectric body -->
    <rect x="75" y="100" width="125" height="80" rx="5" fill="#E8F5E9" opacity="0.5" stroke="#2E7D32" stroke-width="1.5"/>

    <!-- Polarized molecules: -+ aligned -->
    <text x="85" y="130" font-family="Arial,sans-serif" font-size="7" fill="#1565C0">-</text>
    <text x="95" y="130" font-family="Arial,sans-serif" font-size="7" fill="#E53935">+</text>
    <text x="110" y="130" font-family="Arial,sans-serif" font-size="7" fill="#1565C0">-</text>
    <text x="120" y="130" font-family="Arial,sans-serif" font-size="7" fill="#E53935">+</text>
    <text x="135" y="130" font-family="Arial,sans-serif" font-size="7" fill="#1565C0">-</text>
    <text x="145" y="130" font-family="Arial,sans-serif" font-size="7" fill="#E53935">+</text>
    <text x="160" y="130" font-family="Arial,sans-serif" font-size="7" fill="#1565C0">-</text>
    <text x="170" y="130" font-family="Arial,sans-serif" font-size="7" fill="#E53935">+</text>

    <text x="85" y="150" font-family="Arial,sans-serif" font-size="7" fill="#1565C0">-</text>
    <text x="95" y="150" font-family="Arial,sans-serif" font-size="7" fill="#E53935">+</text>
    <text x="110" y="150" font-family="Arial,sans-serif" font-size="7" fill="#1565C0">-</text>
    <text x="120" y="150" font-family="Arial,sans-serif" font-size="7" fill="#E53935">+</text>
    <text x="135" y="150" font-family="Arial,sans-serif" font-size="7" fill="#1565C0">-</text>
    <text x="145" y="150" font-family="Arial,sans-serif" font-size="7" fill="#E53935">+</text>
    <text x="160" y="150" font-family="Arial,sans-serif" font-size="7" fill="#1565C0">-</text>
    <text x="170" y="150" font-family="Arial,sans-serif" font-size="7" fill="#E53935">+</text>

    <!-- Bound charges on surfaces -->
    <text x="80" y="115" font-family="Arial,sans-serif" font-size="8" fill="#1565C0" font-weight="bold">- - -</text>
    <text x="165" y="175" font-family="Arial,sans-serif" font-size="8" fill="#E53935" font-weight="bold">+ + +</text>

    <!-- Internal field (opposing) -->
    <line x1="150" y1="140" x2="112.0" y2="140.0" stroke="#2E7D32" stroke-width="1"/>
<polygon points="110,140 114.0,138.4 114.0,141.6" fill="#2E7D32"/>
    <text x="130" y="137" font-family="Arial,sans-serif" font-size="7" fill="#2E7D32">E'</text>

    <!-- Resulting field after dielectric -->
    <line x1="205" y1="140" x2="237.0" y2="140.0" stroke="#E53935" stroke-width="1.5"/>
<polygon points="240,140 234.0,142.4 234.0,137.6" fill="#E53935"/>
    <text x="225" y="133" font-family="Arial,sans-serif" font-size="8" fill="#E53935">E</text>

    <text x="137" y="200" font-family="Arial,sans-serif" font-size="8" fill="#333" text-anchor="middle">E = E0 - E' (ослаблено)</text>

    <!-- Dielectric constant -->
    <rect x="260" y="62" width="215" height="80" rx="5" fill="white" stroke="#E53935" stroke-width="1.2"/>
    <text x="367" y="78" font-family="Arial,sans-serif" font-size="9" fill="#E53935" font-weight="bold" text-anchor="middle">Диэлектрическая проницаемость</text>
    <line x1="270" y1="83" x2="465" y2="83" stroke="#E53935" stroke-width="0.5" opacity="0.3"/>
    <text x="367" y="102" font-family="Arial,sans-serif" font-size="12" fill="#333" text-anchor="middle" font-weight="bold">eps = E0/E</text>
    <text x="367" y="118" font-family="Arial,sans-serif" font-size="8" fill="#555" text-anchor="middle">Во сколько раз поле ослабляется</text>
    <text x="367" y="132" font-family="Arial,sans-serif" font-size="8" fill="#555" text-anchor="middle">F = k*q1*q2/(eps*r*r)</text>

    <!-- Types of dielectrics -->
    <rect x="260" y="150" width="215" height="62" rx="5" fill="white" stroke="#2E7D32" stroke-width="1.2"/>
    <text x="367" y="166" font-family="Arial,sans-serif" font-size="9" fill="#2E7D32" font-weight="bold" text-anchor="middle">Виды диэлектриков</text>
    <line x1="270" y1="171" x2="465" y2="171" stroke="#2E7D32" stroke-width="0.5" opacity="0.3"/>
    <circle cx="280" cy="182" r="3" fill="#E53935"/>
    <text x="290" y="186" font-family="Arial,sans-serif" font-size="7" fill="#333">Полярные (H2O, NH3)</text>
    <circle cx="280" cy="196" r="3" fill="#2E7D32"/>
    <text x="290" y="200" font-family="Arial,sans-serif" font-size="7" fill="#333">Неполярные (O2, CO2, благородные газы)</text>

    <!-- eps values -->
    <rect x="25" y="225" width="225" height="45" rx="5" fill="white" stroke="#F57C00" stroke-width="1.2"/>
    <text x="137" y="241" font-family="Arial,sans-serif" font-size="9" fill="#F57C00" font-weight="bold" text-anchor="middle">Значения eps</text>
    <text x="137" y="258" font-family="Arial,sans-serif" font-size="7" fill="#333" text-anchor="middle">Вакуум: 1 | Воздух: 1.0006 | Вода: 81 | Стекло: 5-10</text>

    <rect x="260" y="225" width="215" height="45" rx="5" fill="white" stroke="#7B1FA2" stroke-width="1.2"/>
    <text x="367" y="241" font-family="Arial,sans-serif" font-size="9" fill="#7B1FA2" font-weight="bold" text-anchor="middle">Отличие от проводника</text>
    <text x="367" y="258" font-family="Arial,sans-serif" font-size="7" fill="#333" text-anchor="middle">В диэлектрике E != 0, но E &lt; E0 | Свободных зарядов нет</text>
    </g><rect x="12" y="298" width="476" height="42" rx="5" fill="url(#panel)"/>
  <text x="250" y="316" font-family="Arial,sans-serif" font-size="14" text-anchor="middle" fill="white" font-weight="bold">Электростатика</text>
  <text x="250" y="332" font-family="Arial,sans-serif" font-size="10" text-anchor="middle" fill="white" opacity="0.8">Урок 48</text></svg>