<?xml version="1.0" encoding="UTF-8"?>
<svg xmlns="http://www.w3.org/2000/svg" viewBox="0 0 500 350">
  <defs>
    <linearGradient id="bg" x1="0" y1="0" x2="0" y2="1">
      <stop offset="0%" stopColor="#F3E5F5" />
      <stop offset="100%" stopColor="#FFFFFF" />
    </linearGradient>
    <linearGradient id="panel" x1="0" y1="0" x2="1" y2="0">
      <stop offset="0%" stopColor="#7B1FA2" />
      <stop offset="100%" stopColor="#4A148C" />
    </linearGradient>
    <linearGradient id="headerGrad" x1="0" y1="0" x2="1" y2="0">
      <stop offset="0%" stopColor="#4A148C" />
      <stop offset="100%" stopColor="#7B1FA2" />
    </linearGradient>
    <clipPath id="ill">
      <rect x="15" y="80" width="470" height="220" rx="6" />
    </clipPath>
  </defs>
  <rect width="500" height="350" fill="url(#bg)" rx="10" />
  <rect x="3" y="3" width="494" height="344" rx="8" fill="none" stroke="#4A148C" strokeWidth="2.5" />
  <rect x="8" y="8" width="484" height="334" rx="6" fill="none" stroke="#4A148C" strokeWidth="1" opacity="0.15" />
  <polygon points="10,10 30,10 10,30" fill="#4A148C" opacity="0.10" />
  <polygon points="490,10 470,10 490,30" fill="#4A148C" opacity="0.10" />
  <polygon points="10,340 30,340 10,320" fill="#4A148C" opacity="0.10" />
  <polygon points="490,340 470,340 490,320" fill="#4A148C" opacity="0.10" />
  <text x="250" y="42" fontFamily="Arial,sans-serif" fontSize="20" fontWeight="bold" fill="#4A148C" textAnchor="middle">Рождение философии</text>
  <text x="250" y="62" fontFamily="Arial,sans-serif" fontSize="11" fill="#666666" textAnchor="middle">Философия — Урок 1</text>
  <line x1="30" y1="72" x2="470" y2="72" stroke="#4A148C" strokeWidth="2" opacity="0.20" />
  <rect x="30" y="70" width="60" height="4" fill="#4A148C" opacity="0.15" rx="1" />
  <rect x="410" y="70" width="60" height="4" fill="#7B1FA2" opacity="0.10" rx="1" />
  <g clipPath="url(#ill)">
    <rect x="15" y="80" width="470" height="220" fill="#F3E5F5" opacity="0.35" />
    <rect x="20" y="85" width="225" height="100" rx="5" fill="#FFFFFF" stroke="#CE93D8" strokeWidth="1.2" opacity="0.95" />
    <rect x="20" y="85" width="225" height="18" rx="5" fill="#4A148C" opacity="0.85" />
    <rect x="20" y="97" width="225" height="6" fill="#4A148C" opacity="0.85" />
    <text x="132" y="98" fontFamily="Arial,sans-serif" fontSize="10" fontWeight="bold" fill="#FFFFFF" textAnchor="middle">ОПРЕДЕЛЕНИЕ</text>
    <text x="28" y="115" fontFamily="Arial,sans-serif" fontSize="9" fill="#311B92" textAnchor="start">Философия (φιλοσοφία) —</text>
    <text x="28" y="128" fontFamily="Arial,sans-serif" fontSize="9" fill="#311B92" textAnchor="start">«любовь к мудрости»</text>
    <text x="28" y="141" fontFamily="Arial,sans-serif" fontSize="9" fill="#311B92" textAnchor="start">Наука о наиболее общих</text>
    <text x="28" y="154" fontFamily="Arial,sans-serif" fontSize="9" fill="#311B92" textAnchor="start">законах природы, общества</text>
    <text x="28" y="167" fontFamily="Arial,sans-serif" fontSize="9" fill="#311B92" textAnchor="start">и мышления</text>
    <rect x="255" y="85" width="225" height="100" rx="5" fill="#FFFFFF" stroke="#CE93D8" strokeWidth="1.2" opacity="0.95" />
    <rect x="255" y="85" width="225" height="18" rx="5" fill="#4A148C" opacity="0.85" />
    <rect x="255" y="97" width="225" height="6" fill="#4A148C" opacity="0.85" />
    <text x="367" y="98" fontFamily="Arial,sans-serif" fontSize="10" fontWeight="bold" fill="#FFFFFF" textAnchor="middle">КЛЮЧЕВЫЕ ПОНЯТИЯ</text>
    <text x="263" y="115" fontFamily="Arial,sans-serif" fontSize="9" fill="#311B92" textAnchor="start">• Миф → Логос (переход)</text>
    <text x="263" y="128" fontFamily="Arial,sans-serif" fontSize="9" fill="#311B92" textAnchor="start">• Космоцентризм</text>
    <text x="263" y="141" fontFamily="Arial,sans-serif" fontSize="9" fill="#311B92" textAnchor="start">• Первоначала (архе)</text>
    <text x="263" y="154" fontFamily="Arial,sans-serif" fontSize="9" fill="#311B92" textAnchor="start">• Фалес: вода — основа</text>
    <text x="263" y="167" fontFamily="Arial,sans-serif" fontSize="9" fill="#311B92" textAnchor="start">• Гераклит: всё течёт</text>
    <rect x="20" y="195" width="460" height="38" rx="4" fill="#4A148C" opacity="0.08" />
    <line x1="24" y1="199" x2="24" y2="229" stroke="#4A148C" strokeWidth="3" opacity="0.6" />
    <text x="32" y="209" fontFamily="Georgia,serif" fontSize="8.5" fontStyle="italic" fill="#311B92">“Всё есть вода — начало всего”</text>
    <text x="472" y="225" fontFamily="Arial,sans-serif" fontSize="8" fill="#7B1FA2" textAnchor="end">— Фалес Милетский</text>
    <rect x="20" y="242" width="460" height="50" rx="5" fill="#FFFFFF" stroke="#CE93D8" strokeWidth="1" />
    <text x="250" y="256" fontFamily="Arial,sans-serif" fontSize="9" fontWeight="bold" fill="#4A148C" textAnchor="middle">ХРОНОЛОГИЯ</text>
    <line x1="40" y1="272" x2="460" y2="272" stroke="#4A148C" strokeWidth="1.5" opacity="0.4" />
    <circle cx="40" cy="272" r="4" fill="#4A148C" opacity="0.6" />
    <text x="40" y="285" fontFamily="Arial,sans-serif" fontSize="7.5" fill="#311B92" textAnchor="middle">VII в.</text>
    <circle cx="145" cy="272" r="4" fill="#4A148C" opacity="0.6" />
    <text x="145" y="285" fontFamily="Arial,sans-serif" fontSize="7.5" fill="#311B92" textAnchor="middle">VI в.</text>
    <circle cx="250" cy="272" r="4" fill="#4A148C" opacity="0.6" />
    <text x="250" y="285" fontFamily="Arial,sans-serif" fontSize="7.5" fill="#311B92" textAnchor="middle">V в.</text>
    <circle cx="355" cy="272" r="4" fill="#4A148C" opacity="0.6" />
    <text x="355" y="285" fontFamily="Arial,sans-serif" fontSize="7.5" fill="#311B92" textAnchor="middle">IV в.</text>
    <circle cx="475" cy="140" r="16" fill="none" stroke="#4A148C" strokeWidth="1.5" opacity="0.5" />
    <text x="475" y="145" fontFamily="serif" fontSize="19" fill="#4A148C" textAnchor="middle">Φ</text>
  </g>
  <rect x="12" y="305" width="476" height="32" rx="5" fill="url(#panel)" />
  <line x1="20" y1="308" x2="20" y2="334" stroke="#CE93D8" strokeWidth="1.5" opacity="0.5" />
  <line x1="480" y1="308" x2="480" y2="334" stroke="#CE93D8" strokeWidth="1.5" opacity="0.5" />
  <text x="250" y="326" fontFamily="Arial,sans-serif" fontSize="14" textAnchor="middle" fill="#FFFFFF" fontWeight="bold">Философия · 10 класс</text>
</svg>