<svg xmlns="http://www.w3.org/2000/svg" viewBox="0 0 500 350">
<style>.wv{animation:s 2s ease-in-out infinite}@keyframes s{0%,100%{transform:rotate(0)}50%{transform:rotate(5deg)}}</style>
<defs><linearGradient id="s8" x1="0" y1="0" x2="0" y2="1"><stop offset="0%" stop-color="#e1f5fe"/><stop offset="100%" stop-color="#b3e5fc"/></linearGradient></defs>
<rect width="500" height="350" fill="url(#s8)"/>
<text x="250" y="22" text-anchor="middle" font-size="16" fill="#0d47a1" font-family="serif">К.И. Чуковский</text>
<rect x="0" y="280" width="500" height="70" fill="#81c784"/>
<g transform="translate(80,170)"><path d="M-15,50 Q-20,30 -12,15 L12,15 Q20,30 15,50 Q0,55 -15,50Z" fill="#fff"/><circle cy="0" r="16" fill="#ffe0b2"/><path d="M-16,-5 Q-17,-15 -10,-22 Q0,-28 10,-22 Q17,-15 16,-5Z" fill="#fff"/><rect x="-18" y="-6" width="36" height="4" rx="1" fill="#eee"/><rect x="-3" y="-20" width="6" height="2" fill="#e53935"/><circle cx="-6" cy="-2" r="5" fill="none" stroke="#795548" stroke-width="1.5"/><circle cx="6" cy="-2" r="5" fill="none" stroke="#795548" stroke-width="1.5"/><line x1="-1" y1="-2" x2="1" y2="-2" stroke="#795548" stroke-width="1"/><circle cx="-6" cy="-2" r="2" fill="#fff"/><circle cx="-6" cy="-2" r="1.2" fill="#1a1a1a"/><circle cx="6" cy="-2" r="2" fill="#fff"/><circle cx="6" cy="-2" r="1.2" fill="#1a1a1a"/><path d="M-5,6 Q0,11 5,6" stroke="#5d4037" stroke-width="1.2" fill="none"/><rect x="18" y="25" width="16" height="20" rx="3" fill="#8d6e63"/><path d="M22,25 Q26,18 30,25" stroke="#6d4c41" stroke-width="2" fill="none"/><rect x="23" y="31" width="6" height="2" fill="#e53935"/><rect x="25" y="29" width="2" height="6" fill="#e53935"/><g class="wv" style="transform-origin:12px 20px"><path d="M12,20 Q25,15 30,5" stroke="#ffe0b2" stroke-width="4" fill="none" stroke-linecap="round"/></g></g>
<g transform="translate(190,240)"><ellipse cy="10" rx="12" ry="15" fill="#f5f5f5"/><ellipse cy="-5" rx="8" ry="7" fill="#f5f5f5"/><ellipse cx="-4" cy="-20" rx="3" ry="10" fill="#f5f5f5"/><ellipse cx="4" cy="-20" rx="3" ry="10" fill="#f5f5f5"/><ellipse cx="-4" cy="-20" rx="2" ry="7" fill="#ffb6c1"/><ellipse cx="4" cy="-20" rx="2" ry="7" fill="#ffb6c1"/><circle cx="-3" cy="-6" r="1.5" fill="#e91e63"/><circle cx="3" cy="-6" r="1.5" fill="#e91e63"/></g>
<g transform="translate(260,228)"><ellipse cy="15" rx="16" ry="18" fill="#795548"/><circle cy="-2" r="12" fill="#8d6e63"/><circle cx="-8" cy="-10" r="4" fill="#795548"/><circle cx="8" cy="-10" r="4" fill="#795548"/><circle cx="-4" cy="-4" r="2" fill="#1a1a1a"/><circle cx="4" cy="-4" r="2" fill="#1a1a1a"/><ellipse cy="2" rx="4" ry="3" fill="#a1887f"/><ellipse cy="1" rx="2" ry="1.5" fill="#4e342e"/></g>
<g transform="translate(330,240)"><ellipse cy="10" rx="10" ry="12" fill="#ff8f00"/><ellipse cy="-2" rx="7" ry="6" fill="#ffa726"/><polygon points="-5,-7 -7,-14 -2,-8" fill="#ffa726"/><polygon points="5,-7 7,-14 2,-8" fill="#ffa726"/><circle cx="-3" cy="-3" r="1.5" fill="#1a1a1a"/><circle cx="3" cy="-3" r="1.5" fill="#1a1a1a"/><ellipse cy="1" rx="2" ry="1.2" fill="#1a1a1a"/><path d="M8,8 Q18,5 20,12 Q18,18 10,14" fill="#ff8f00"/></g>
<g transform="translate(390,250)"><ellipse cy="5" rx="8" ry="6" fill="#42a5f5"/><circle cx="-3" cy="-2" r="5" fill="#64b5f6"/><circle cx="-4" cy="-3" r="1.5" fill="#1a1a1a"/><path d="M-8,-1 L-13,0 L-8,1Z" fill="#ff8f00"/></g>
</svg>