<svg xmlns="http://www.w3.org/2000/svg" viewBox="0 0 500 350">
<style>.l{animation:f 5s ease-in-out infinite}@keyframes f{0%{transform:translateY(0) rotate(0)}50%{transform:translateY(15px) rotate(20deg)}100%{transform:translateY(0) rotate(0)}}</style>
<defs><linearGradient id="s" x1="0" y1="0" x2="0" y2="1"><stop offset="0%" stop-color="#4a148c"/><stop offset="100%" stop-color="#7b1fa2"/></linearGradient></defs>
<rect width="500" height="350" fill="url(#s)"/>
<text x="250" y="22" text-anchor="middle" font-size="16" fill="#ffd54f" font-family="serif">А.С. Пушкин</text>
<rect x="50" y="240" width="250" height="10" rx="2" fill="#6d4c41"/><rect x="55" y="250" width="8" height="60" fill="#5d4037"/><rect x="287" y="250" width="8" height="60" fill="#5d4037"/>
<g transform="translate(120,215)"><rect x="-18" y="5" width="36" height="15" rx="3" fill="#1a237e"/><ellipse cy="5" rx="18" ry="6" fill="#283593"/><ellipse cy="3" rx="8" ry="2.5" fill="#111"/></g>
<g transform="translate(130,160) rotate(-30)"><path d="M0,0 Q-8,-30 -3,-65 Q0,-50 2,-35 Q4,-50 7,-65 Q10,-30 0,0Z" fill="#f5f5dc"/><line x1="0" y1="0" x2="2" y2="55" stroke="#d7ccc8" stroke-width="2"/><path d="M2,55 L0,65 L4,63Z" fill="#ffa000"/></g>
<g transform="translate(220,180)"><rect x="-30" y="10" width="80" height="40" fill="#fff8e1"/><path d="M-30,50 Q-35,55 -30,60 L50,60 Q55,55 50,50Z" fill="#f5f0d0"/><path d="M-30,10 Q-35,5 -30,0 L50,0 Q55,5 50,10Z" fill="#f5f0d0"/><circle cx="-32" cy="5" r="5" fill="#efebe9"/><circle cx="52" cy="5" r="5" fill="#efebe9"/><circle cx="52" cy="55" r="5" fill="#efebe9"/><line x1="-18" y1="18" x2="38" y2="18" stroke="#ccc" stroke-width=".8"/><line x1="-18" y1="24" x2="30" y2="24" stroke="#ccc" stroke-width=".8"/><line x1="-18" y1="30" x2="35" y2="30" stroke="#ccc" stroke-width=".8"/><circle cx="30" cy="50" r="8" fill="#ffd740"/><circle cx="30" cy="50" r="5" fill="#ffab00"/></g>
<g transform="translate(400,100)"><path d="M0,0 Q-5,-15 0,-25 Q5,-30 10,-25 Q15,-20 12,-10 Q10,-5 8,0 Q12,5 10,10 Q5,15 0,12Z" fill="#1a1a1a"/><circle cx="2" cy="-27" r="5" fill="#1a1a1a"/><circle cx="-3" cy="-24" r="4" fill="#1a1a1a"/><circle cx="7" cy="-23" r="4" fill="#1a1a1a"/><circle cx="-5" cy="-19" r="3.5" fill="#1a1a1a"/><circle cx="10" cy="-17" r="3" fill="#1a1a1a"/><path d="M2,12 L4,22 L-8,25 L-20,22 Q-25,28 -15,30 L15,30 Q25,28 20,22 L8,25Z" fill="#1a1a1a"/></g>
<g class="l"><ellipse cx="80" cy="80" rx="5" ry="3" fill="#ff6f00" transform="rotate(30,80,80)"/></g>
<ellipse cx="320" cy="60" rx="4" ry="2.5" fill="#e65100" transform="rotate(-40,320,60)"/>
<ellipse cx="440" cy="100" rx="5" ry="3" fill="#ffa000" transform="rotate(20,440,100)"/>
<polygon points="160,90 162,85 164,90 169,92 164,94 162,99 160,94 155,92" fill="#ffd54f" opacity=".6"/>
</svg>