<svg xmlns="http://www.w3.org/2000/svg" viewBox="0 0 500 350">
  <defs><style>@keyframes door{0%,100%{transform:scaleX(1)}50%{transform:scaleX(0.95)}}.house{animation:door 3s ease-in-out infinite}</style></defs>
  <rect width="500" height="350" fill="#E8F5E9"/>
  <text x="250" y="32" text-anchor="middle" font-family="Arial,sans-serif" font-size="20" font-weight="bold" fill="#2E7D32">Сказка «Теремок»</text>
  <!-- Teremok house -->
  <g class="house" transform="translate(30,50)">
    <rect x="30" y="50" width="140" height="110" fill="#FFECB3" stroke="#795548" stroke-width="3" rx="3"/>
    <polygon points="100,10 10,50 190,50" fill="#C62828" stroke="#795548" stroke-width="2"/>
    <rect x="75" y="90" width="50" height="70" fill="#795548" rx="3"/>
    <circle cx="118" cy="125" r="4" fill="#FFD54F"/>
    <rect x="45" y="70" width="30" height="30" fill="#BBDEFB" stroke="#795548" stroke-width="1"/>
    <line x1="60" y1="70" x2="60" y2="100" stroke="#795548" stroke-width="1"/>
    <line x1="45" y1="85" x2="75" y2="85" stroke="#795548" stroke-width="1"/>
    <rect x="125" y="70" width="30" height="30" fill="#BBDEFB" stroke="#795548" stroke-width="1"/>
    <line x1="140" y1="70" x2="140" y2="100" stroke="#795548" stroke-width="1"/>
    <line x1="125" y1="85" x2="155" y2="85" stroke="#795548" stroke-width="1"/>
  </g>
  <!-- Animals -->
  <rect x="240" y="50" width="230" height="180" fill="white" rx="10" stroke="#A5D6A7" stroke-width="2"/>
  <text x="355" y="72" text-anchor="middle" font-family="Arial,sans-serif" font-size="13" font-weight="bold" fill="#2E7D32">Кто жил в теремке?</text>
  <g font-family="Arial,sans-serif" font-size="12" fill="#333">
    <text x="260" y="95">1. Мышка-норушка</text>
    <text x="260" y="115">2. Лягушка-квакушка</text>
    <text x="260" y="135">3. Зайчик-побегайчик</text>
    <text x="260" y="155">4. Лисичка-сестричка</text>
    <text x="260" y="175">5. Волчок-серый бочок</text>
    <text x="260" y="195">6. Медведь (сломал теремок)</text>
  </g>
  <text x="355" y="220" text-anchor="middle" font-family="Arial,sans-serif" font-size="10" fill="#2E7D32">«Терем-теремок! Кто в тереме живёт?»</text>
  <!-- Moral -->
  <rect x="30" y="250" width="440" height="85" fill="#E8F5E9" rx="10"/>
  <text x="250" y="273" text-anchor="middle" font-family="Arial,sans-serif" font-size="13" font-weight="bold" fill="#2E7D32">Чему учит сказка?</text>
  <text x="250" y="295" text-anchor="middle" font-family="Arial,sans-serif" font-size="12" fill="#555">Нужно жить дружно и приглашать гостей</text>
  <text x="250" y="315" text-anchor="middle" font-family="Arial,sans-serif" font-size="12" fill="#555">Но важно считаться с размером жилища</text>
  <text x="250" y="335" text-anchor="middle" font-family="Arial,sans-serif" font-size="11" fill="#2E7D32">В конце звери построили новый теремок — вместе!</text>
</svg>