<svg xmlns="http://www.w3.org/2000/svg" viewBox="0 0 500 350">
  <defs>
    <linearGradient id="bg" x1="0" y1="0" x2="1" y2="1">
      <stop offset="0%" stop-color="#FFF8E1"/>
      <stop offset="100%" stop-color="#FFFDE7"/>
    </linearGradient>
  </defs>
  <rect width="500" height="350" fill="url(#bg)" rx="10"/>
  <rect x="3" y="3" width="494" height="344" rx="8" fill="none" stroke="#C62828" stroke-width="3"/>
  <rect x="8" y="8" width="484" height="334" rx="6" fill="none" stroke="#C62828" stroke-width="1" opacity="0.3"/>
  <polygon points="10,10 30,10 10,30" fill="#C62828" opacity="0.08"/>
  <polygon points="490,10 470,10 490,30" fill="#1565C0" opacity="0.08"/>
  <polygon points="10,340 30,340 10,320" fill="#F9A825" opacity="0.08"/>
  <polygon points="490,340 470,340 490,320" fill="#2E7D32" opacity="0.08"/>
  <circle cx="70" cy="15" r="4" fill="#C62828" opacity="0.1"/>
  <circle cx="82" cy="15" r="4" fill="#1565C0" opacity="0.1"/>
  <circle cx="94" cy="15" r="4" fill="#F9A825" opacity="0.1"/>
  <circle cx="406" cy="15" r="4" fill="#C62828" opacity="0.1"/>
  <circle cx="418" cy="15" r="4" fill="#1565C0" opacity="0.1"/>
  <circle cx="430" cy="15" r="4" fill="#F9A825" opacity="0.1"/>
  <text x="250" y="50" font-family="Arial,sans-serif" font-size="24" font-weight="bold" fill="#C62828" text-anchor="middle">Свойства металлов</text>
  <text x="250" y="68" font-family="Arial,sans-serif" font-size="12" fill="#777" text-anchor="middle">Технология - Урок 4</text>
  <line x1="30" y1="78" x2="470" y2="78" stroke="#C62828" stroke-width="2" opacity="0.25"/>
  <rect x="30" y="75" width="60" height="6" fill="#C62828" opacity="0.15" rx="1"/>
  <rect x="410" y="75" width="60" height="6" fill="#1565C0" opacity="0.12" rx="1"/>

  <!-- Metal Card 1: Iron -->
  <rect x="25" y="88" width="110" height="100" rx="6" fill="white" stroke="#78909C" stroke-width="1.2"/>
  <rect x="25" y="88" width="110" height="22" rx="6" fill="#78909C" opacity="0.15"/>
  <text x="80" y="103" font-family="Arial,sans-serif" font-size="10" font-weight="bold" fill="#37474F" text-anchor="middle">Железо</text>
  <!-- Iron bar -->
  <rect x="40" y="118" width="80" height="16" rx="2" fill="#90A4AE" stroke="#78909C" stroke-width="1"/>
  <rect x="40" y="118" width="80" height="4" rx="1" fill="#B0BEC5" opacity="0.5"/>
  <!-- Sparkle -->
  <line x1="65" y1="125" x2="75" y2="125" stroke="white" stroke-width="1" opacity="0.6"/>
  <line x1="70" y1="120" x2="70" y2="130" stroke="white" stroke-width="1" opacity="0.6"/>
  <text x="80" y="150" font-family="Arial,sans-serif" font-size="8" fill="#777" text-anchor="middle">Чёрный металл</text>
  <text x="80" y="161" font-family="Arial,sans-serif" font-size="8" fill="#777" text-anchor="middle">Магнитное свойство</text>
  <text x="80" y="172" font-family="Arial,sans-serif" font-size="8" fill="#777" text-anchor="middle">Основа чугуна и стали</text>

  <!-- Metal Card 2: Copper -->
  <rect x="145" y="88" width="110" height="100" rx="6" fill="white" stroke="#E65100" stroke-width="1.2"/>
  <rect x="145" y="88" width="110" height="22" rx="6" fill="#E65100" opacity="0.1"/>
  <text x="200" y="103" font-family="Arial,sans-serif" font-size="10" font-weight="bold" fill="#BF360C" text-anchor="middle">Медь</text>
  <!-- Copper bar -->
  <rect x="160" y="118" width="80" height="16" rx="2" fill="#E65100" stroke="#BF360C" stroke-width="1"/>
  <rect x="160" y="118" width="80" height="4" rx="1" fill="#FF8A65" opacity="0.5"/>
  <!-- Sparkle -->
  <line x1="185" y1="125" x2="195" y2="125" stroke="white" stroke-width="1" opacity="0.6"/>
  <line x1="190" y1="120" x2="190" y2="130" stroke="white" stroke-width="1" opacity="0.6"/>
  <text x="200" y="150" font-family="Arial,sans-serif" font-size="8" fill="#777" text-anchor="middle">Цветной металл</text>
  <text x="200" y="161" font-family="Arial,sans-serif" font-size="8" fill="#777" text-anchor="middle">Красно-оранжевый</text>
  <text x="200" y="172" font-family="Arial,sans-serif" font-size="8" fill="#777" text-anchor="middle">Проводит ток</text>

  <!-- Metal Card 3: Aluminum -->
  <rect x="265" y="88" width="110" height="100" rx="6" fill="white" stroke="#BDBDBD" stroke-width="1.2"/>
  <rect x="265" y="88" width="110" height="22" rx="6" fill="#BDBDBD" opacity="0.15"/>
  <text x="320" y="103" font-family="Arial,sans-serif" font-size="10" font-weight="bold" fill="#424242" text-anchor="middle">Алюминий</text>
  <!-- Aluminum bar -->
  <rect x="280" y="118" width="80" height="16" rx="2" fill="#E0E0E0" stroke="#BDBDBD" stroke-width="1"/>
  <rect x="280" y="118" width="80" height="4" rx="1" fill="#F5F5F5" opacity="0.7"/>
  <!-- Sparkle -->
  <line x1="305" y1="125" x2="315" y2="125" stroke="white" stroke-width="1" opacity="0.8"/>
  <line x1="310" y1="120" x2="310" y2="130" stroke="white" stroke-width="1" opacity="0.8"/>
  <text x="320" y="150" font-family="Arial,sans-serif" font-size="8" fill="#777" text-anchor="middle">Лёгкий, серебристый</text>
  <text x="320" y="161" font-family="Arial,sans-serif" font-size="8" fill="#777" text-anchor="middle">Не ржавеет</text>
  <text x="320" y="172" font-family="Arial,sans-serif" font-size="8" fill="#777" text-anchor="middle">Пищевая посуда</text>

  <!-- Metal Card 4: Steel -->
  <rect x="385" y="88" width="90" height="100" rx="6" fill="white" stroke="#455A64" stroke-width="1.2"/>
  <rect x="385" y="88" width="90" height="22" rx="6" fill="#455A64" opacity="0.12"/>
  <text x="430" y="103" font-family="Arial,sans-serif" font-size="10" font-weight="bold" fill="#263238" text-anchor="middle">Сталь</text>
  <!-- Steel bar -->
  <rect x="400" y="118" width="60" height="16" rx="2" fill="#607D8B" stroke="#455A64" stroke-width="1"/>
  <rect x="400" y="118" width="60" height="4" rx="1" fill="#90A4AE" opacity="0.4"/>
  <!-- Sparkle -->
  <line x1="420" y1="125" x2="430" y2="125" stroke="white" stroke-width="1" opacity="0.5"/>
  <line x1="425" y1="120" x2="425" y2="130" stroke="white" stroke-width="1" opacity="0.5"/>
  <text x="430" y="150" font-family="Arial,sans-serif" font-size="8" fill="#777" text-anchor="middle">Сплав Fe + C</text>
  <text x="430" y="161" font-family="Arial,sans-serif" font-size="8" fill="#777" text-anchor="middle">Очень прочная</text>
  <text x="430" y="172" font-family="Arial,sans-serif" font-size="8" fill="#777" text-anchor="middle">Инструменты</text>

  <!-- Properties comparison table -->
  <rect x="25" y="198" width="450" height="100" rx="6" fill="white" stroke="#C62828" stroke-width="1"/>
  <text x="250" y="216" font-family="Arial,sans-serif" font-size="11" font-weight="bold" fill="#C62828" text-anchor="middle">Сравнение свойств металлов</text>
  <line x1="40" y1="222" x2="460" y2="222" stroke="#C62828" stroke-width="0.5" opacity="0.3"/>

  <!-- Table headers -->
  <text x="95" y="237" font-family="Arial,sans-serif" font-size="9" font-weight="bold" fill="#37474F" text-anchor="middle">Металл</text>
  <text x="195" y="237" font-family="Arial,sans-serif" font-size="9" font-weight="bold" fill="#37474F" text-anchor="middle">Пластичность</text>
  <text x="295" y="237" font-family="Arial,sans-serif" font-size="9" font-weight="bold" fill="#37474F" text-anchor="middle">Теплопро-водность</text>
  <text x="400" y="237" font-family="Arial,sans-serif" font-size="9" font-weight="bold" fill="#37474F" text-anchor="middle">Прочность</text>
  <line x1="40" y1="242" x2="460" y2="242" stroke="#E0E0E0" stroke-width="0.5"/>

  <!-- Iron row -->
  <text x="95" y="256" font-family="Arial,sans-serif" font-size="9" fill="#424242" text-anchor="middle">Железо</text>
  <rect x="155" y="247" width="80" height="12" rx="2" fill="#E8F5E9"/>
  <rect x="155" y="247" width="50" height="12" rx="2" fill="#66BB6A" opacity="0.7"/>
  <rect x="255" y="247" width="80" height="12" rx="2" fill="#E8F5E9"/>
  <rect x="255" y="247" width="60" height="12" rx="2" fill="#66BB6A" opacity="0.7"/>
  <rect x="355" y="247" width="90" height="12" rx="2" fill="#E8F5E9"/>
  <rect x="355" y="247" width="65" height="12" rx="2" fill="#66BB6A" opacity="0.7"/>

  <!-- Copper row -->
  <text x="95" y="274" font-family="Arial,sans-serif" font-size="9" fill="#424242" text-anchor="middle">Медь</text>
  <rect x="155" y="265" width="80" height="12" rx="2" fill="#FFF3E0"/>
  <rect x="155" y="265" width="75" height="12" rx="2" fill="#FFA726" opacity="0.6"/>
  <rect x="255" y="265" width="80" height="12" rx="2" fill="#FFF3E0"/>
  <rect x="255" y="265" width="80" height="12" rx="2" fill="#FFA726" opacity="0.6"/>
  <rect x="355" y="265" width="90" height="12" rx="2" fill="#FFF3E0"/>
  <rect x="355" y="265" width="45" height="12" rx="2" fill="#FFA726" opacity="0.6"/>

  <!-- Aluminum row -->
  <text x="95" y="292" font-family="Arial,sans-serif" font-size="9" fill="#424242" text-anchor="middle">Алюминий</text>
  <rect x="155" y="283" width="80" height="12" rx="2" fill="#E3F2FD"/>
  <rect x="155" y="283" width="70" height="12" rx="2" fill="#42A5F5" opacity="0.5"/>
  <rect x="255" y="283" width="80" height="12" rx="2" fill="#E3F2FD"/>
  <rect x="255" y="283" width="55" height="12" rx="2" fill="#42A5F5" opacity="0.5"/>
  <rect x="355" y="283" width="90" height="12" rx="2" fill="#E3F2FD"/>
  <rect x="355" y="283" width="30" height="12" rx="2" fill="#42A5F5" opacity="0.5"/>

  <rect x="15" y="308" width="470" height="30" rx="4" fill="#C62828" opacity="0.85"/>
  <text x="250" y="329" font-family="Arial,sans-serif" font-size="15" text-anchor="middle" fill="white" font-weight="bold">Свойства металлов</text>
</svg>