<svg xmlns="http://www.w3.org/2000/svg" viewBox="0 0 500 350">
  <defs>
    <linearGradient id="bg" x1="0" y1="0" x2="0" y2="1">
      <stop offset="0%" stop-color="#FFF8E1"/>
      <stop offset="100%" stop-color="#FFFDE7"/>
    </linearGradient>
    <linearGradient id="panel" x1="0" y1="0" x2="1" y2="0">
      <stop offset="0%" stop-color="#B71C1C"/>
      <stop offset="100%" stop-color="#C62828"/>
    </linearGradient>
  </defs>
  <rect width="500" height="350" fill="url(#bg)" rx="10"/>
  <rect x="3" y="3" width="494" height="344" rx="8" fill="none" stroke="#C62828" stroke-width="3"/>
  <rect x="8" y="8" width="484" height="334" rx="6" fill="none" stroke="#C62828" stroke-width="1" opacity="0.3"/>
  <!-- Bauhaus corner accents -->
  <polygon points="10,10 30,10 10,30" fill="#C62828" opacity="0.12"/>
  <polygon points="490,10 470,10 490,30" fill="#1565C0" opacity="0.12"/>
  <polygon points="10,340 30,340 10,320" fill="#F9A825" opacity="0.12"/>
  <polygon points="490,340 470,340 490,320" fill="#2E7D32" opacity="0.12"/>
  <!-- Title -->
  <text x="250" y="48" font-family="Arial,sans-serif" font-size="24" font-weight="bold" fill="#E64A19" text-anchor="middle">Пищеварительная система</text>
  <text x="250" y="68" font-family="Arial,sans-serif" font-size="12" fill="#777" text-anchor="middle">Биология - Урок 7</text>
  <line x1="30" y1="78" x2="470" y2="78" stroke="#E64A19" stroke-width="2" opacity="0.25"/>
  <rect x="30" y="75" width="60" height="5" fill="#E64A19" opacity="0.18" rx="1"/>
  <rect x="410" y="75" width="60" height="5" fill="#1565C0" opacity="0.12" rx="1"/>
  <!-- ILLUSTRATION AREA: x=15..485, y=85..300 -->
  <clipPath id="ill"><rect x="15" y="85" width="470" height="215" rx="6"/></clipPath>
  <g clip-path="url(#ill)">
  <rect x="15" y="85" width="470" height="215" fill="#FFF3E0"/><g transform="translate(200,180) scale(1.5)">
      <path d="M-5,-25 Q-25,-20 -25,0 Q-25,20 -10,25 L15,25 Q25,20 20,5 Q15,-10 5,-20Z" fill="#FFAB91" opacity="0.6" stroke="#E64A19" stroke-width="1.5"/>
      <path d="M-10,-5 Q0,-10 15,-5" fill="none" stroke="#E64A19" stroke-width="0.8" opacity="0.4"/>
      <line x1="-5" y1="-30" x2="-5" y2="-25" stroke="#8D6E63" stroke-width="3"/>
      <line x1="15" y1="25" x2="15" y2="35" stroke="#8D6E63" stroke-width="3"/>
    </g><text x="200" y="230" font-family="Arial,sans-serif" font-size="11" fill="#E64A19" text-anchor="middle" font-weight="bold">Желудок</text><path d="M240,195 Q280,210 290,230 Q295,250 280,265" fill="none" stroke="#E64A19" stroke-width="8" opacity="0.5"/><rect x="120" y="170" width="30" height="50" rx="8" fill="#FFAB91" stroke="#E64A19" stroke-width="1"/><text x="135" y="200" font-family="Arial" font-size="7" fill="#BF360C" text-anchor="middle">Печень</text><g transform="translate(380,220) scale(0.8)">
      <path d="M-5,-25 L-5,-8 L-20,15 Q-22,20 -17,22 L17,22 Q22,20 20,15 L5,-8 L5,-25Z" fill="none" stroke="#546E7A" stroke-width="2"/>
      <path d="M-17,10 L17,10 L20,15 Q22,20 17,22 L-17,22 Q-22,20 -20,15Z" fill="#81C784" opacity="0.7"/>
      <line x1="-7" y1="-25" x2="7" y2="-25" stroke="#546E7A" stroke-width="2.5" stroke-linecap="round"/>
    </g>
  </g>
  <!-- Bottom panel -->
  <rect x="12" y="305" width="476" height="32" rx="5" fill="url(#panel)"/>
  <line x1="20" y1="308" x2="20" y2="334" stroke="#F9A825" stroke-width="1.5" opacity="0.6"/>
  <line x1="480" y1="308" x2="480" y2="334" stroke="#F9A825" stroke-width="1.5" opacity="0.6"/>
  <text x="250" y="326" font-family="Arial,sans-serif" font-size="15" text-anchor="middle" fill="white" font-weight="bold">Биология</text>
</svg>