<svg xmlns="http://www.w3.org/2000/svg" viewBox="0 0 500 350">
<defs><linearGradient id="bg" x1="0" y1="0" x2="1" y2="1"><stop offset="0%" stop-color="#E8F5E9"/><stop offset="100%" stop-color="#C8E6C9"/></linearGradient></defs>
<rect width="500" height="350" fill="url(#bg)" rx="10"/>
<rect x="3" y="3" width="494" height="344" rx="8" fill="none" stroke="#2E7D32" stroke-width="2.5"/>
<text x="250" y="30" font-family="Arial,sans-serif" font-size="14" font-weight="bold" fill="#2E7D32" text-anchor="middle">Ядро</text>
<text x="250" y="46" font-family="Arial,sans-serif" font-size="10" fill="#888" text-anchor="middle">Биология 10 класс — Урок 14</text>
<line x1="30" y1="52" x2="470" y2="52" stroke="#2E7D32" stroke-width="1.5" opacity="0.25"/>

<g transform="translate(200,185)">
<ellipse cx="0" cy="0" rx="75" ry="65" fill="white" stroke="#7B1FA2" stroke-width="2"/>
<!-- Nuclear envelope (double membrane) -->
<ellipse cx="0" cy="0" rx="75" ry="65" fill="none" stroke="#9C27B0" stroke-width="1"/>
<!-- Nucleolus -->
<circle cx="10" cy="-10" r="18" fill="#CE93D8" stroke="#7B1FA2" stroke-width="1.5"/>
<text x="10" y="-7" font-family="Arial,sans-serif" font-size="5" fill="#7B1FA2" text-anchor="middle">Ядрышко</text>
<!-- Chromatin -->
<path d="M-40,10 Q-30,0 -20,10 Q-10,20 0,10 Q10,0 20,10" stroke="#9C27B0" stroke-width="2" fill="none"/>
<path d="M-35,25 Q-25,15 -15,25 Q-5,35 5,25 Q15,15 25,25" stroke="#AB47BC" stroke-width="1.5" fill="none"/>
<!-- Nuclear pores -->
<circle cx="-55" cy="-30" r="3" fill="#E1BEE7" stroke="#7B1FA2" stroke-width="1"/>
<circle cx="55" cy="20" r="3" fill="#E1BEE7" stroke="#7B1FA2" stroke-width="1"/>
<circle cx="-45" cy="40" r="3" fill="#E1BEE7" stroke="#7B1FA2" stroke-width="1"/>
<text x="0" y="55" font-family="Arial,sans-serif" font-size="5" fill="#7B1FA2" text-anchor="middle">Хроматин</text>
</g>
<g transform="translate(400,160)">
<rect x="-60" y="-55" width="120" height="110" rx="5" fill="white" stroke="#7B1FA2" stroke-width="1.5"/>
<text x="0" y="-40" font-family="Arial,sans-serif" font-size="7" fill="#7B1FA2" text-anchor="middle" font-weight="bold">Функции ядра</text>
<line x1="-45" y1="-33" x2="45" y2="-33" stroke="#7B1FA2" stroke-width="0.5"/>
<text x="0" y="-18" font-family="Arial,sans-serif" font-size="6" fill="#555" text-anchor="middle">Хранение ДНК</text>
<text x="0" y="-5" font-family="Arial,sans-serif" font-size="6" fill="#555" text-anchor="middle">Транскрипция</text>
<text x="0" y="8" font-family="Arial,sans-serif" font-size="6" fill="#555" text-anchor="middle">Редупликация ДНК</text>
<text x="0" y="21" font-family="Arial,sans-serif" font-size="6" fill="#555" text-anchor="middle">Регуляция клетки</text>
<text x="0" y="38" font-family="Arial,sans-serif" font-size="6" fill="#555" text-anchor="middle">Ядерная оболочка:</text>
<text x="0" y="50" font-family="Arial,sans-serif" font-size="5" fill="#888" text-anchor="middle">2 мембраны + поры</text>
</g>

<rect x="10" y="325" width="480" height="20" rx="4" fill="#2E7D32" opacity="0.85"/>
<text x="250" y="339" font-family="Arial,sans-serif" font-size="11" text-anchor="middle" fill="white" font-weight="bold">Биология 10 класс</text>
</svg>