<svg xmlns="http://www.w3.org/2000/svg" viewBox="0 0 500 350">
<defs><linearGradient id="bg" x1="0" y1="0" x2="1" y2="1"><stop offset="0%" stop-color="#E8F5E9"/><stop offset="100%" stop-color="#C8E6C9"/></linearGradient></defs>
<rect width="500" height="350" fill="url(#bg)" rx="10"/>
<rect x="3" y="3" width="494" height="344" rx="8" fill="none" stroke="#2E7D32" stroke-width="2.5"/>
<text x="250" y="30" font-family="Arial,sans-serif" font-size="14" font-weight="bold" fill="#2E7D32" text-anchor="middle">Уровни организации живой материи</text>
<text x="250" y="46" font-family="Arial,sans-serif" font-size="10" fill="#888" text-anchor="middle">Биология 10 класс — Урок 3</text>
<line x1="30" y1="52" x2="470" y2="52" stroke="#2E7D32" stroke-width="1.5" opacity="0.25"/>

<g transform="translate(250,185)">
<rect x="-70" y="-105" width="140" height="24" rx="5" fill="#1B5E20" stroke="#2E7D32" stroke-width="1.5"/>
<text x="0" y="-89" font-family="Arial,sans-serif" font-size="7" fill="white" text-anchor="middle" font-weight="bold">Биосферный</text>
<rect x="-62" y="-76" width="124" height="22" rx="5" fill="#2E7D32" stroke="#1B5E20" stroke-width="1"/>
<text x="0" y="-61" font-family="Arial,sans-serif" font-size="7" fill="white" text-anchor="middle">Биогеоценотический</text>
<rect x="-54" y="-49" width="108" height="20" rx="5" fill="#388E3C" stroke="#2E7D32" stroke-width="1"/>
<text x="0" y="-35" font-family="Arial,sans-serif" font-size="7" fill="white" text-anchor="middle">Популяционно-видовой</text>
<rect x="-46" y="-24" width="92" height="18" rx="5" fill="#4CAF50" stroke="#388E3C" stroke-width="1"/>
<text x="0" y="-12" font-family="Arial,sans-serif" font-size="7" fill="white" text-anchor="middle">Организменный</text>
<rect x="-38" y="-1" width="76" height="16" rx="5" fill="#66BB6A" stroke="#4CAF50" stroke-width="1"/>
<text x="0" y="11" font-family="Arial,sans-serif" font-size="7" fill="white" text-anchor="middle">Органно-тканевый</text>
<rect x="-30" y="20" width="60" height="14" rx="5" fill="#81C784" stroke="#66BB6A" stroke-width="1"/>
<text x="0" y="30" font-family="Arial,sans-serif" font-size="7" fill="#1B5E20" text-anchor="middle">Клеточный</text>
<rect x="-22" y="39" width="44" height="12" rx="4" fill="#A5D6A7" stroke="#81C784" stroke-width="1"/>
<text x="0" y="48" font-family="Arial,sans-serif" font-size="6" fill="#1B5E20" text-anchor="middle">Субклеточный</text>
<rect x="-14" y="56" width="28" height="10" rx="3" fill="#C8E6C9" stroke="#A5D6A7" stroke-width="1"/>
<text x="0" y="64" font-family="Arial,sans-serif" font-size="5" fill="#1B5E20" text-anchor="middle">Молекулярный</text>
</g>

<rect x="10" y="325" width="480" height="20" rx="4" fill="#2E7D32" opacity="0.85"/>
<text x="250" y="339" font-family="Arial,sans-serif" font-size="11" text-anchor="middle" fill="white" font-weight="bold">Биология 10 класс</text>
</svg>