<svg xmlns="http://www.w3.org/2000/svg" viewBox="0 0 500 350">
<defs>
    <linearGradient id="bgGrad" x1="0" y1="0" x2="1" y2="1">
      <stop offset="0%" stop-color="#E3F2FD"/>
      <stop offset="100%" stop-color="#BBDEFB"/>
    </linearGradient>
    <linearGradient id="skyGrad" x1="0" y1="0" x2="0" y2="1">
      <stop offset="0%" stop-color="#87CEEB"/>
      <stop offset="100%" stop-color="#E0F7FA"/>
    </linearGradient>
    <linearGradient id="groundGrad" x1="0" y1="0" x2="0" y2="1">
      <stop offset="0%" stop-color="#81C784"/>
      <stop offset="100%" stop-color="#4CAF50"/>
    </linearGradient>
    <linearGradient id="waterGrad" x1="0" y1="0" x2="0" y2="1">
      <stop offset="0%" stop-color="#42A5F5"/>
      <stop offset="100%" stop-color="#1565C0"/>
    </linearGradient>
    <radialGradient id="sunGrad" cx="50%" cy="50%" r="50%">
      <stop offset="0%" stop-color="#FFF9C4"/>
      <stop offset="60%" stop-color="#FDD835"/>
      <stop offset="100%" stop-color="#F9A825"/>
    </radialGradient>
    <filter id="shadow" x="-5%" y="-5%" width="115%" height="115%">
      <feDropShadow dx="2" dy="2" stdDeviation="3" flood-color="#000" flood-opacity="0.15"/>
    </filter>
    <filter id="softShadow" x="-10%" y="-10%" width="130%" height="130%">
      <feDropShadow dx="3" dy="3" stdDeviation="5" flood-color="#000" flood-opacity="0.12"/>
    </filter>
    <filter id="glow" x="-20%" y="-20%" width="140%" height="140%">
      <feGaussianBlur stdDeviation="3" result="blur"/>
      <feMerge><feMergeNode in="blur"/><feMergeNode in="SourceGraphic"/></feMerge>
    </filter>
  </defs>
  <rect width="500" height="220" fill="url(#skyGrad)"/>
  <circle cx="430" cy="50" r="35" fill="url(#sunGrad)" filter="url(#glow)"/>
  <path d="M80,40 Q90,25 100,40 Q110,25 120,40" fill="white" opacity="0.7"/>
  <path d="M200,55 Q212,38 224,55 Q236,38 248,55" fill="white" opacity="0.6"/>
  <path d="M340,30 Q348,20 356,30 Q364,20 372,30" fill="white" opacity="0.5"/><path d="M0,270 Q125,255 250,270 Q375,280 500,270 L500,350 L0,350 Z" fill="url(#groundGrad)"/>
  <path d="M0,275 Q125,260 250,275 Q375,285 500,275" fill="#66BB6A" opacity="0.3"/>
  <rect x="27" y="225" width="6" height="20" rx="2" fill="#795548"/>
  <path d="M12.5,225 Q30,185 47.5,225" fill="#2E7D32" opacity="0.8"/>
  <path d="M15.999999999999998,217.5 Q30,180 44,217.5" fill="#388E3C" opacity="0.7"/>
  <path d="M20,210 Q30,175 40,210" fill="#43A047" opacity="0.6"/><rect x="457" y="230" width="6" height="16.8" rx="2" fill="#795548"/>
  <path d="M445.3,230 Q460,196.4 474.7,230" fill="#2E7D32" opacity="0.8"/>
  <path d="M448.24,223.7 Q460,192.2 471.76,223.7" fill="#388E3C" opacity="0.7"/>
  <path d="M451.6,217.4 Q460,188 468.4,217.4" fill="#43A047" opacity="0.6"/><ellipse cx="90" cy="258" rx="15" ry="10.5" fill="#4CAF50" opacity="0.6"/>
  <ellipse cx="99" cy="260" rx="10.5" ry="7.5" fill="#388E3C" opacity="0.5"/>
  <g transform="translate(40,90)" filter="url(#shadow)">
    <rect width="200" height="170" rx="10" fill="white" opacity="0.93"/>
    <rect width="200" height="30" rx="10" fill="#1565C0" opacity="0.9"/>
    <rect y="22" width="200" height="8" fill="#1565C0" opacity="0.9"/>
    <text x="100" y="20" font-family="Arial" font-size="11" fill="white" text-anchor="middle" font-weight="bold">КЛАСС ЕДИНИЦ</text>
    <rect x="15" y="40" width="50" height="55" rx="5" fill="#1565C0" opacity="0.1" stroke="#1565C0" stroke-width="1.5"/>
    <text x="40" y="62" font-family="Arial" font-size="20" fill="#1565C0" text-anchor="middle" font-weight="bold">7</text>
    <text x="40" y="82" font-family="Arial" font-size="7" fill="#777" text-anchor="middle">Единицы</text>
    <rect x="75" y="40" width="50" height="55" rx="5" fill="#42A5F5" opacity="0.1" stroke="#1565C0" stroke-width="1.5"/>
    <text x="100" y="62" font-family="Arial" font-size="20" fill="#1565C0" text-anchor="middle" font-weight="bold">5</text>
    <text x="100" y="82" font-family="Arial" font-size="7" fill="#777" text-anchor="middle">Десятки</text>
    <rect x="135" y="40" width="50" height="55" rx="5" fill="#1565C0" opacity="0.15" stroke="#1565C0" stroke-width="1.5"/>
    <text x="160" y="62" font-family="Arial" font-size="20" fill="#1565C0" text-anchor="middle" font-weight="bold">2</text>
    <text x="160" y="82" font-family="Arial" font-size="7" fill="#777" text-anchor="middle">Сотни</text>
    <line x1="20" y1="105" x2="180" y2="105" stroke="#1565C0" stroke-width="1.5" stroke-dasharray="4,3"/>
    <text x="100" y="125" font-family="Arial" font-size="16" fill="#0D47A1" text-anchor="middle" font-weight="bold">257</text>
    <text x="100" y="145" font-family="Arial" font-size="8" fill="#555" text-anchor="middle">II класс — класс тысяч</text>
    <text x="100" y="158" font-family="Arial" font-size="8" fill="#1565C0" text-anchor="middle">I класс — класс единиц</text>
  </g>
  <g transform="translate(270,95)" filter="url(#shadow)">
    <rect width="190" height="160" rx="10" fill="white" opacity="0.93"/>
    <rect width="190" height="30" rx="10" fill="#0D47A1" opacity="0.9"/>
    <rect y="22" width="190" height="8" fill="#0D47A1" opacity="0.9"/>
    <text x="95" y="20" font-family="Arial" font-size="11" fill="white" text-anchor="middle" font-weight="bold">КЛАСС ТЫСЯЧ</text>
    <rect x="12" y="40" width="50" height="50" rx="5" fill="#0D47A1" opacity="0.1" stroke="#0D47A1" stroke-width="1.5"/>
    <text x="37" y="60" font-family="Arial" font-size="18" fill="#0D47A1" text-anchor="middle" font-weight="bold">1</text>
    <text x="37" y="78" font-family="Arial" font-size="6" fill="#777" text-anchor="middle">Ед.тыс.</text>
    <rect x="70" y="40" width="50" height="50" rx="5" fill="#1565C0" opacity="0.1" stroke="#0D47A1" stroke-width="1.5"/>
    <text x="95" y="60" font-family="Arial" font-size="18" fill="#0D47A1" text-anchor="middle" font-weight="bold">4</text>
    <text x="95" y="78" font-family="Arial" font-size="6" fill="#777" text-anchor="middle">Дес.тыс.</text>
    <rect x="128" y="40" width="50" height="50" rx="5" fill="#42A5F5" opacity="0.1" stroke="#0D47A1" stroke-width="1.5"/>
    <text x="153" y="60" font-family="Arial" font-size="18" fill="#0D47A1" text-anchor="middle" font-weight="bold">3</text>
    <text x="153" y="78" font-family="Arial" font-size="6" fill="#777" text-anchor="middle">Сот.тыс.</text>
    <line x1="15" y1="100" x2="175" y2="100" stroke="#0D47A1" stroke-width="1.5" stroke-dasharray="4,3"/>
    <text x="95" y="125" font-family="Arial" font-size="16" fill="#0D47A1" text-anchor="middle" font-weight="bold">341 257</text>
    <text x="95" y="145" font-family="Arial" font-size="8" fill="#555" text-anchor="middle">341 тыс. + 257 = 341 257</text>
  </g>
  <path d="M150,60 Q155,55 160,60 Q165,55 170,60" fill="none" stroke="#555" stroke-width="1.2"/><path d="M180,50 Q185,45 190,50 Q195,45 200,50" fill="none" stroke="#555" stroke-width="1.2"/>
  <rect x="0" y="318" width="500" height="32" rx="0" fill="#1565C0" opacity="0.9"/>
  <text x="250" y="339" font-family="Arial,sans-serif" font-size="13" text-anchor="middle" fill="white" font-weight="bold">Класс единиц и класс тысяч</text>
</svg>