<svg xmlns="http://www.w3.org/2000/svg" viewBox="0 0 500 350">
<defs>
    <linearGradient id="bgGrad" x1="0" y1="0" x2="1" y2="1">
      <stop offset="0%" stop-color="#E3F2FD"/>
      <stop offset="100%" stop-color="#BBDEFB"/>
    </linearGradient>
    <linearGradient id="skyGrad" x1="0" y1="0" x2="0" y2="1">
      <stop offset="0%" stop-color="#87CEEB"/>
      <stop offset="100%" stop-color="#E0F7FA"/>
    </linearGradient>
    <linearGradient id="groundGrad" x1="0" y1="0" x2="0" y2="1">
      <stop offset="0%" stop-color="#81C784"/>
      <stop offset="100%" stop-color="#4CAF50"/>
    </linearGradient>
    <linearGradient id="waterGrad" x1="0" y1="0" x2="0" y2="1">
      <stop offset="0%" stop-color="#42A5F5"/>
      <stop offset="100%" stop-color="#1565C0"/>
    </linearGradient>
    <radialGradient id="sunGrad" cx="50%" cy="50%" r="50%">
      <stop offset="0%" stop-color="#FFF9C4"/>
      <stop offset="60%" stop-color="#FDD835"/>
      <stop offset="100%" stop-color="#F9A825"/>
    </radialGradient>
    <filter id="shadow" x="-5%" y="-5%" width="115%" height="115%">
      <feDropShadow dx="2" dy="2" stdDeviation="3" flood-color="#000" flood-opacity="0.15"/>
    </filter>
    <filter id="softShadow" x="-10%" y="-10%" width="130%" height="130%">
      <feDropShadow dx="3" dy="3" stdDeviation="5" flood-color="#000" flood-opacity="0.12"/>
    </filter>
    <filter id="glow" x="-20%" y="-20%" width="140%" height="140%">
      <feGaussianBlur stdDeviation="3" result="blur"/>
      <feMerge><feMergeNode in="blur"/><feMergeNode in="SourceGraphic"/></feMerge>
    </filter>
  </defs>
  <rect width="500" height="220" fill="url(#skyGrad)"/>
  <circle cx="430" cy="50" r="35" fill="url(#sunGrad)" filter="url(#glow)"/>
  <path d="M80,40 Q90,25 100,40 Q110,25 120,40" fill="white" opacity="0.7"/>
  <path d="M200,55 Q212,38 224,55 Q236,38 248,55" fill="white" opacity="0.6"/>
  <path d="M340,30 Q348,20 356,30 Q364,20 372,30" fill="white" opacity="0.5"/><path d="M0,275 Q125,260 250,275 Q375,285 500,275 L500,350 L0,350 Z" fill="url(#groundGrad)"/>
  <path d="M0,280 Q125,265 250,280 Q375,290 500,280" fill="#66BB6A" opacity="0.3"/>
  <rect x="27" y="228" width="6" height="20" rx="2" fill="#795548"/>
  <path d="M12.5,228 Q30,188 47.5,228" fill="#2E7D32" opacity="0.8"/>
  <path d="M15.999999999999998,220.5 Q30,183 44,220.5" fill="#388E3C" opacity="0.7"/>
  <path d="M20,213 Q30,178 40,213" fill="#43A047" opacity="0.6"/><rect x="457" y="230" width="6" height="15.200000000000001" rx="2" fill="#795548"/>
  <path d="M446.7,230 Q460,199.6 473.3,230" fill="#2E7D32" opacity="0.8"/>
  <path d="M449.36,224.3 Q460,195.8 470.64,224.3" fill="#388E3C" opacity="0.7"/>
  <path d="M452.4,218.6 Q460,192 467.6,218.6" fill="#43A047" opacity="0.6"/>
  <g transform="translate(40,55)" filter="url(#softShadow)">
    <rect width="190" height="210" rx="10" fill="white" opacity="0.94"/>
    <rect width="190" height="28" rx="10" fill="#1565C0" opacity="0.9"/>
    <rect y="20" width="190" height="8" fill="#1565C0" opacity="0.9"/>
    <text x="95" y="19" font-family="Arial" font-size="11" fill="white" text-anchor="middle" font-weight="bold">ДОЛИ</text>
    <circle cx="95" cy="80" r="40" fill="#E3F2FD" stroke="#1565C0" stroke-width="2"/>
    <path d="M95,40 A40,40 0 0,1 135,80 L95,80 Z" fill="#1565C0" opacity="0.35"/>
    <text x="95" y="85" font-family="Arial" font-size="14" fill="#0D47A1" text-anchor="middle" font-weight="bold">1/2</text>
    <text x="95" y="140" font-family="Arial" font-size="9" fill="#555" text-anchor="middle">Половина — 1 доля из 2</text>
    <circle cx="95" cy="195" r="25" fill="#E3F2FD" stroke="#1565C0" stroke-width="1.5"/>
    <path d="M95,170 A25,25 0 0,1 120,195 L95,195 Z" fill="#1565C0" opacity="0.35"/>
    <path d="M95,170 A25,25 0 0,0 70,195 L95,195 Z" fill="#42A5F5" opacity="0.25"/>
    <text x="95" y="200" font-family="Arial" font-size="11" fill="#0D47A1" text-anchor="middle" font-weight="bold">1/2</text>
  </g>
  <g transform="translate(260,55)" filter="url(#softShadow)">
    <rect width="200" height="210" rx="10" fill="white" opacity="0.94"/>
    <rect width="200" height="28" rx="10" fill="#0D47A1" opacity="0.9"/>
    <rect y="20" width="200" height="8" fill="#0D47A1" opacity="0.9"/>
    <text x="100" y="19" font-family="Arial" font-size="11" fill="white" text-anchor="middle" font-weight="bold">ДРОБИ</text>
    <circle cx="100" cy="80" r="40" fill="#E3F2FD" stroke="#0D47A1" stroke-width="2"/>
    <path d="M100,40 A40,40 0 0,1 140,80 L100,80 Z" fill="#0D47A1" opacity="0.35"/>
    <text x="100" y="85" font-family="Arial" font-size="14" fill="#0D47A1" text-anchor="middle" font-weight="bold">1/4</text>
    <text x="100" y="140" font-family="Arial" font-size="9" fill="#555" text-anchor="middle">Числитель / Знаменатель</text>
    <text x="100" y="158" font-family="Arial" font-size="9" fill="#1565C0" text-anchor="middle">1 — сколько долей взяли</text>
    <text x="100" y="175" font-family="Arial" font-size="9" fill="#0D47A1" text-anchor="middle">4 — на сколько разделили</text>
    <circle cx="100" cy="218" r="15" fill="#E3F2FD" stroke="#0D47A1" stroke-width="1"/>
  </g>
  <line x1="220" y1="268" x2="220" y2="283" stroke="#4CAF50" stroke-width="1.5"/>
  <circle cx="220" cy="268" r="4" fill="#E91E63" opacity="0.7"/>
  <circle cx="220" cy="268" r="2" fill="#FDD835" opacity="0.8"/><line x1="240" y1="272" x2="240" y2="287" stroke="#4CAF50" stroke-width="1.5"/>
  <circle cx="240" cy="272" r="4" fill="#FF9800" opacity="0.7"/>
  <circle cx="240" cy="272" r="2" fill="#FDD835" opacity="0.8"/>
  <rect x="0" y="318" width="500" height="32" rx="0" fill="#1565C0" opacity="0.9"/>
  <text x="250" y="339" font-family="Arial,sans-serif" font-size="13" text-anchor="middle" fill="white" font-weight="bold">Доли и дроби</text>
</svg>