<svg xmlns="http://www.w3.org/2000/svg" viewBox="0 0 500 350">
<defs><linearGradient id="bg" x1="0" y1="0" x2="1" y2="1"><stop offset="0%" stop-color="#E3F2FD"/><stop offset="100%" stop-color="#BBDEFB"/></linearGradient></defs>
<rect width="500" height="350" fill="url(#bg)" rx="10"/>
<rect x="3" y="3" width="494" height="344" rx="8" fill="none" stroke="#1565C0" stroke-width="2.5"/>
<text x="250" y="30" font-family="Arial,sans-serif" font-size="13" font-weight="bold" fill="#1565C0" text-anchor="middle">Идеальный газ. Основное уравнение МКТ</text>
<text x="250" y="46" font-family="Arial,sans-serif" font-size="10" fill="#888" text-anchor="middle">Физика 10 класс — Урок 42</text>
<line x1="30" y1="52" x2="470" y2="52" stroke="#1565C0" stroke-width="1.5" opacity="0.25"/>

<g transform="translate(130,185)">
<!-- Gas container -->
<rect x="-60" y="-55" width="120" height="100" rx="3" fill="white" stroke="#1565C0" stroke-width="2"/>
<!-- Molecules bouncing -->
<circle cx="-30" cy="-30" r="5" fill="#E3F2FD" stroke="#1565C0" stroke-width="1"/>
<circle cx="20" cy="-20" r="5" fill="#E3F2FD" stroke="#1565C0" stroke-width="1"/>
<circle cx="-10" cy="10" r="5" fill="#E3F2FD" stroke="#1565C0" stroke-width="1"/>
<circle cx="35" cy="15" r="5" fill="#E3F2FD" stroke="#1565C0" stroke-width="1"/>
<circle cx="-40" cy="20" r="5" fill="#E3F2FD" stroke="#1565C0" stroke-width="1"/>
<circle cx="10" cy="-40" r="5" fill="#E3F2FD" stroke="#1565C0" stroke-width="1"/>
<circle cx="40" cy="-35" r="5" fill="#E3F2FD" stroke="#1565C0" stroke-width="1"/>
<!-- Velocity arrows -->
<line x1="-25" y1="-30" x2="-10" y2="-38" stroke="#2E7D32" stroke-width="1"/>
<polygon points="-10,-38 -15,-38 -12,-33" fill="#2E7D32"/>
<line x1="25" y1="-20" x2="35" y2="-10" stroke="#2E7D32" stroke-width="1"/>
<polygon points="35,-10 30,-12 33,-16" fill="#2E7D32"/>
<line x1="-5" y1="15" x2="-20" y2="25" stroke="#2E7D32" stroke-width="1"/>
<polygon points="-20,25 -15,22 -18,28" fill="#2E7D32"/>
<line x1="40" y1="20" x2="45" y2="30" stroke="#2E7D32" stroke-width="1"/>
<polygon points="45,30 41,26 46,27" fill="#2E7D32"/>
<!-- Pressure arrows on walls -->
<line x1="-60" y1="-20" x2="-70" y2="-20" stroke="#E53935" stroke-width="1.5"/>
<polygon points="-70,-20 -64,-23 -64,-17" fill="#E53935"/>
<line x1="60" y1="0" x2="70" y2="0" stroke="#E53935" stroke-width="1.5"/>
<polygon points="70,0 64,-3 64,3" fill="#E53935"/>
<line x1="0" y1="-55" x2="0" y2="-65" stroke="#E53935" stroke-width="1.5"/>
<polygon points="0,-65 -3,-59 3,-59" fill="#E53935"/>
<text x="0" y="58" font-family="Arial,sans-serif" font-size="6" fill="#555" text-anchor="middle">Модель идеального газа</text>
</g>
<g transform="translate(370,120)">
<rect x="-95" y="-55" width="190" height="110" rx="5" fill="white" stroke="#1565C0" stroke-width="1.5"/>
<text x="0" y="-40" font-family="Arial,sans-serif" font-size="7" fill="#1565C0" text-anchor="middle" font-weight="bold">Основное уравнение МКТ</text>
<line x1="-80" y1="-33" x2="80" y2="-33" stroke="#1565C0" stroke-width="0.5"/>
<text x="0" y="-15" font-family="Arial,sans-serif" font-size="9" fill="#E53935" text-anchor="middle" font-weight="bold">p = (1/3)*n*m0*v^2</text>
<line x1="-80" y1="-5" x2="80" y2="-5" stroke="#1565C0" stroke-width="0.5"/>
<text x="0" y="12" font-family="Arial,sans-serif" font-size="9" fill="#2E7D32" text-anchor="middle" font-weight="bold">p = (2/3)*n*Ek</text>
<text x="0" y="30" font-family="Arial,sans-serif" font-size="5" fill="#555" text-anchor="middle">n — концентрация (1/м^3)</text>
<text x="0" y="42" font-family="Arial,sans-serif" font-size="5" fill="#555" text-anchor="middle">Ek — средняя кин. энергия молекул</text>
</g>
<g transform="translate(370,248)">
<rect x="-85" y="-28" width="170" height="56" rx="5" fill="white" stroke="#7B1FA2" stroke-width="1.2"/>
<text x="0" y="-13" font-family="Arial,sans-serif" font-size="6" fill="#7B1FA2" text-anchor="middle" font-weight="bold">Допущения модели</text>
<text x="0" y="3" font-family="Arial,sans-serif" font-size="5" fill="#555" text-anchor="middle">Молекулы — материальные точки</text>
<text x="0" y="15" font-family="Arial,sans-serif" font-size="5" fill="#555" text-anchor="middle">Взаимодействие — только столкновения</text>
</g>

<rect x="10" y="325" width="480" height="20" rx="4" fill="#1565C0" opacity="0.85"/>
<text x="250" y="339" font-family="Arial,sans-serif" font-size="11" text-anchor="middle" fill="white" font-weight="bold">Физика 10 класс</text>
</svg>