<svg xmlns="http://www.w3.org/2000/svg" viewBox="0 0 500 350">
<defs><linearGradient id="bg" x1="0" y1="0" x2="1" y2="1"><stop offset="0%" stop-color="#E3F2FD"/><stop offset="100%" stop-color="#BBDEFB"/></linearGradient></defs>
<rect width="500" height="350" fill="url(#bg)" rx="10"/>
<rect x="3" y="3" width="494" height="344" rx="8" fill="none" stroke="#1565C0" stroke-width="2.5"/>
<text x="250" y="30" font-family="Arial,sans-serif" font-size="13" font-weight="bold" fill="#1565C0" text-anchor="middle">Температура. Термодинамическое определение</text>
<text x="250" y="46" font-family="Arial,sans-serif" font-size="10" fill="#888" text-anchor="middle">Физика 10 класс — Урок 43</text>
<line x1="30" y1="52" x2="470" y2="52" stroke="#1565C0" stroke-width="1.5" opacity="0.25"/>

<g transform="translate(120,185)">
<!-- Thermometer -->
<rect x="-8" y="-60" width="16" height="90" rx="8" fill="white" stroke="#333" stroke-width="1.5"/>
<!-- Mercury column -->
<rect x="-4" y="-20" width="8" height="50" rx="4" fill="#E53935"/>
<!-- Bulb -->
<circle cx="0" cy="35" r="12" fill="#E53935" stroke="#333" stroke-width="1.5"/>
<!-- Scale marks -->
<line x1="8" y1="-45" x2="15" y2="-45" stroke="#333" stroke-width="1"/>
<text x="20" y="-42" font-family="Arial,sans-serif" font-size="5" fill="#333">100</text>
<line x1="8" y1="-20" x2="15" y2="-20" stroke="#333" stroke-width="1"/>
<text x="20" y="-17" font-family="Arial,sans-serif" font-size="5" fill="#333">0</text>
<line x1="8" y1="5" x2="15" y2="5" stroke="#333" stroke-width="1"/>
<text x="20" y="8" font-family="Arial,sans-serif" font-size="5" fill="#333">-50</text>
<text x="0" y="62" font-family="Arial,sans-serif" font-size="5" fill="#555" text-anchor="middle">°C</text>
</g>
<g transform="translate(310,125)">
<rect x="-110" y="-55" width="220" height="110" rx="5" fill="white" stroke="#1565C0" stroke-width="1.5"/>
<text x="0" y="-40" font-family="Arial,sans-serif" font-size="7" fill="#1565C0" text-anchor="middle" font-weight="bold">Связь температуры и энергии</text>
<line x1="-95" y1="-33" x2="95" y2="-33" stroke="#1565C0" stroke-width="0.5"/>
<text x="0" y="-15" font-family="Arial,sans-serif" font-size="10" fill="#E53935" text-anchor="middle" font-weight="bold">Ek = (3/2)*k*T</text>
<line x1="-95" y1="-5" x2="95" y2="-5" stroke="#1565C0" stroke-width="0.5"/>
<text x="0" y="12" font-family="Arial,sans-serif" font-size="7" fill="#2E7D32" text-anchor="middle">k = 1.38*10^-23 Дж/К</text>
<text x="0" y="28" font-family="Arial,sans-serif" font-size="5" fill="#555" text-anchor="middle">Постоянная Больцмана</text>
<text x="0" y="42" font-family="Arial,sans-serif" font-size="5" fill="#888" text-anchor="middle">T — абсолютная температура (Кельвин)</text>
</g>
<g transform="translate(310,245)">
<rect x="-110" y="-35" width="220" height="70" rx="5" fill="white" stroke="#E65100" stroke-width="1.2"/>
<text x="0" y="-20" font-family="Arial,sans-serif" font-size="6" fill="#E65100" text-anchor="middle" font-weight="bold">Шкалы температуры</text>
<line x1="-95" y1="-13" x2="95" y2="-13" stroke="#E65100" stroke-width="0.5"/>
<text x="0" y="3" font-family="Arial,sans-serif" font-size="6" fill="#555" text-anchor="middle">T(K) = t(°C) + 273</text>
<text x="0" y="18" font-family="Arial,sans-serif" font-size="5" fill="#555" text-anchor="middle">0 K = -273 °C — абсолютный ноль</text>
<text x="0" y="30" font-family="Arial,sans-serif" font-size="5" fill="#C62828" text-anchor="middle">Ek = 0 при T = 0 K</text>
</g>

<rect x="10" y="325" width="480" height="20" rx="4" fill="#1565C0" opacity="0.85"/>
<text x="250" y="339" font-family="Arial,sans-serif" font-size="11" text-anchor="middle" fill="white" font-weight="bold">Физика 10 класс</text>
</svg>