<svg xmlns="http://www.w3.org/2000/svg" viewBox="0 0 500 350">
<defs>
<linearGradient id="bg" x1="0" y1="0" x2="1" y2="1"><stop offset="0%" stop-color="#E0F7FA"/><stop offset="100%" stop-color="#B2EBF2"/></linearGradient>
</defs>
<rect width="500" height="350" fill="url(#bg)" rx="10"/>
<rect x="3" y="3" width="494" height="344" rx="8" fill="none" stroke="#004D40" stroke-width="2.5"/>
<text x="250" y="28" font-family="Arial,sans-serif" font-size="14" font-weight="bold" fill="#004D40" text-anchor="middle">Вписанная и описанная окружности</text>
<text x="250" y="43" font-family="Arial,sans-serif" font-size="9" fill="#666" text-anchor="middle">Геометрия 8 класс — Урок 16</text>
<line x1="30" y1="50" x2="470" y2="50" stroke="#004D40" stroke-width="1" opacity="0.3"/><g transform="translate(150,180)">
  <polygon points="-60,45 -60,-35 60,45" fill="rgba(0,77,64,0.08)" stroke="#004D40" stroke-width="2"/>
  <circle cx="-20" cy="5" r="22" fill="rgba(0,77,64,0.08)" stroke="#C62828" stroke-width="1.5"/>
  <circle cx="-20" cy="5" r="2" fill="#C62828"/>
  <text x="-15" y="10" font-family="Arial,sans-serif" font-size="7" fill="#C62828">r</text>
  <text x="0" y="65" font-family="Arial,sans-serif" font-size="7" fill="#004D40" font-weight="bold">Вписанная</text>
  <text x="0" y="75" font-family="Arial,sans-serif" font-size="6" fill="#666">r=S/p</text>
</g>
<g transform="translate(370,180)">
  <polygon points="-60,45 -60,-35 60,45" fill="rgba(0,77,64,0.08)" stroke="#004D40" stroke-width="2"/>
  <circle cx="-5" cy="-5" r="48" fill="rgba(156,39,176,0.06)" stroke="#7B1FA2" stroke-width="1.5"/>
  <circle cx="-5" cy="-5" r="2" fill="#7B1FA2"/>
  <text x="0" y="-5" font-family="Arial,sans-serif" font-size="7" fill="#7B1FA2">R</text>
  <text x="0" y="65" font-family="Arial,sans-serif" font-size="7" fill="#004D40" font-weight="bold">Описанная</text>
  <text x="0" y="75" font-family="Arial,sans-serif" font-size="6" fill="#666">R=abc/(4S)</text>
</g><rect x="10" y="330" width="480" height="16" rx="4" fill="#004D40" opacity="0.85"/>
<text x="250" y="342" font-family="Arial,sans-serif" font-size="10" text-anchor="middle" fill="white" font-weight="bold">Геометрия 8 класс — Урок 16</text>
</svg>