<svg xmlns="http://www.w3.org/2000/svg" viewBox="0 0 500 350">
<defs>
<linearGradient id="bg" x1="0" y1="0" x2="1" y2="1"><stop offset="0%" stop-color="#E0F2F1"/><stop offset="100%" stop-color="#B2DFDB"/></linearGradient>
</defs>
<rect width="500" height="350" fill="url(#bg)" rx="10"/>
<rect x="3" y="3" width="494" height="344" rx="8" fill="none" stroke="#00695C" stroke-width="2.5"/>
<text x="250" y="28" font-family="Arial,sans-serif" font-size="14" font-weight="bold" fill="#00695C" text-anchor="middle">Площадь трапеции и ромба</text>
<text x="250" y="43" font-family="Arial,sans-serif" font-size="9" fill="#666" text-anchor="middle">Геометрия 8 класс — Урок 8</text>
<line x1="30" y1="50" x2="470" y2="50" stroke="#00695C" stroke-width="1" opacity="0.3"/>
<g transform="translate(140,175)">
  <polygon points="-70,40 -40,-35 55,-35 80,40" fill="rgba(0,105,92,0.1)" stroke="#00695C" stroke-width="2"/>
  <line x1="-20" y1="-35" x2="-20" y2="40" stroke="#F57F17" stroke-width="1.5" stroke-dasharray="4"/>
  <text x="-27" y="5" font-family="Arial,sans-serif" font-size="8" fill="#F57F17">h</text>
  <text x="5" y="52" font-family="Arial,sans-serif" font-size="8" fill="#00695C" font-weight="bold">S=(a+b)h/2</text>
</g>
<g transform="translate(370,175)">
  <polygon points="0,-45 50,0 0,45 -50,0" fill="rgba(0,105,92,0.1)" stroke="#00695C" stroke-width="2"/>
  <line x1="0" y1="-45" x2="0" y2="45" stroke="#00695C" stroke-width="1.5" stroke-dasharray="4"/>
  <line x1="-50" y1="0" x2="50" y2="0" stroke="#00695C" stroke-width="1.5" stroke-dasharray="4"/>
  <text x="55" y="5" font-family="Arial,sans-serif" font-size="8" fill="#00695C">d₂</text>
  <text x="5" y="52" font-family="Arial,sans-serif" font-size="8" fill="#00695C">d₁</text>
  <text x="0" y="68" font-family="Arial,sans-serif" font-size="8" fill="#00695C" text-anchor="middle" font-weight="bold">S=d₁·d₂/2</text>
</g><rect x="10" y="330" width="480" height="16" rx="4" fill="#00695C" opacity="0.85"/>
<text x="250" y="342" font-family="Arial,sans-serif" font-size="10" text-anchor="middle" fill="white" font-weight="bold">Геометрия 8 класс — Урок 8</text>
</svg>