<svg xmlns="http://www.w3.org/2000/svg" viewBox="0 0 500 350">
<defs>
<linearGradient id="bg" x1="0" y1="0" x2="1" y2="1"><stop offset="0%" stop-color="#F3E5F5"/><stop offset="100%" stop-color="#E1BEE7"/></linearGradient>
</defs>
<rect width="500" height="350" fill="url(#bg)" rx="10"/>
<rect x="3" y="3" width="494" height="344" rx="8" fill="none" stroke="#4A148C" stroke-width="2.5"/>
<text x="250" y="28" font-family="Arial,sans-serif" font-size="14" font-weight="bold" fill="#4A148C" text-anchor="middle">Понятие вектора</text>
<text x="250" y="43" font-family="Arial,sans-serif" font-size="9" fill="#666" text-anchor="middle">Геометрия 8 класс — Урок 17</text>
<line x1="30" y1="50" x2="470" y2="50" stroke="#4A148C" stroke-width="1" opacity="0.3"/><g transform="translate(250,170)">
  <defs><marker id="arr17" markerWidth="10" markerHeight="7" refX="10" refY="3.5" orient="auto"><polygon points="0 0,10 3.5,0 7" fill="#4A148C"/></marker></defs>
  <line x1="-80" y1="40" x2="80" y2="-30" stroke="#4A148C" stroke-width="3" marker-end="url(#arr17)"/>
  <circle cx="-80" cy="40" r="4" fill="#C62828"/>
  <circle cx="80" cy="-30" r="4" fill="#4A148C"/>
  <text x="-90" y="55" font-family="Arial,sans-serif" font-size="10" fill="#C62828" font-weight="bold">A</text>
  <text x="85" y="-25" font-family="Arial,sans-serif" font-size="10" fill="#4A148C" font-weight="bold">B</text>
  <text x="-10" y="-5" font-family="Arial,sans-serif" font-size="12" fill="#4A148C" font-weight="bold">→AB</text>
</g>
<g transform="translate(30,275)">
  <rect x="0" y="0" width="440" height="40" rx="5" fill="white" opacity="0.85" stroke="#4A148C" stroke-width="0.8"/>
  <text x="220" y="14" font-family="Arial,sans-serif" font-size="8" fill="#4A148C" text-anchor="middle" font-weight="bold">Определения</text>
  <text x="10" y="28" font-family="Arial,sans-serif" font-size="7" fill="#333">Равные: ↑↑ и |a|=|b|</text>
  <text x="200" y="28" font-family="Arial,sans-serif" font-size="7" fill="#333">Коллинеарные: на паралл. прямых</text>
  <text x="10" y="38" font-family="Arial,sans-serif" font-size="7" fill="#333">Нулевой: 0⃗, |0⃗|=0</text>
</g><rect x="10" y="330" width="480" height="16" rx="4" fill="#4A148C" opacity="0.85"/>
<text x="250" y="342" font-family="Arial,sans-serif" font-size="10" text-anchor="middle" fill="white" font-weight="bold">Геометрия 8 класс — Урок 17</text>
</svg>