<svg xmlns="http://www.w3.org/2000/svg" viewBox="0 0 500 350">
  <!-- Background -->
  <rect width="500" height="350" fill="#F5E6C8"/>
  <!-- Top red accent bar -->
  <rect width="500" height="8" fill="#C41E3A"/>
  <rect y="8" width="500" height="2" fill="#D4A843" opacity="0.6"/>
  <!-- Title -->
  <text x="250" y="45" font-family="Arial, Helvetica, sans-serif" font-size="24" font-weight="bold" fill="#1a1a1a" text-anchor="middle">Добрыня Никитич</text>
  <!-- Subtitle -->
  <text x="250" y="70" font-family="Arial, Helvetica, sans-serif" font-size="12" fill="#1a1a1a" text-anchor="middle" opacity="0.7">Учёный богатырь и победитель Змея Горыныча</text>
  <!-- Gold decorative line under subtitle -->
  <line x1="120" y1="78" x2="380" y2="78" stroke="#D4A843" stroke-width="1.5" opacity="0.5"/>
  <!-- Bottom bar -->
  <rect y="320" width="500" height="30" fill="#1a1a1a"/>
  <rect y="318" width="500" height="2" fill="#D4A843" opacity="0.4"/>
  <text x="250" y="340" font-family="Arial, Helvetica, sans-serif" font-size="13" fill="#F5E6C8" text-anchor="middle" letter-spacing="1">Литературное чтение — 4 класс</text>
  <!-- Bauhaus background -->
  <circle cx="400" cy="200" r="100" fill="#6A1B9A" opacity="0.06"/>
  <rect x="30" y="90" width="60" height="200" fill="#C41E3A" opacity="0.06"/>
  <!-- Zmey Gorynych - 3-headed dragon (right side) -->
  <path d="M350,220 Q380,250 420,240 Q450,235 460,200" fill="#4A7A4A" stroke="#1a1a1a" stroke-width="1.5"/>
  <path d="M460,200 Q470,180 480,190 Q485,200 475,205" fill="#4A7A4A" stroke="#1a1a1a" stroke-width="1"/>
  <path d="M380,210 Q400,160 420,170 Q410,185 395,210Z" fill="#5A8A5A" stroke="#1a1a1a" stroke-width="0.8" opacity="0.8"/>
  <ellipse cx="440" cy="140" rx="14" ry="11" fill="#4A7A4A" stroke="#1a1a1a" stroke-width="1"/>
  <ellipse cx="452" cy="138" rx="8" ry="5" fill="#5A9A5A"/>
  <circle cx="458" cy="136" r="2" fill="#C41E3A"/>
  <circle cx="436" cy="136" r="2" fill="#1a1a1a"/>
  <path d="M432,132 L428,120 L438,130Z" fill="#3A6A3A"/>
  <path d="M448,130 L450,118 L454,128Z" fill="#3A6A3A"/>
  <path d="M458,142 Q465,148 472,145 Q478,142 485,148" fill="none" stroke="#D4A843" stroke-width="2" opacity="0.6"/>
  <path d="M435,148 Q420,170 390,210" fill="none" stroke="#4A7A4A" stroke-width="8"/>
  <ellipse cx="465" cy="195" rx="12" ry="10" fill="#4A7A4A" stroke="#1a1a1a" stroke-width="1"/>
  <ellipse cx="475" cy="193" rx="7" ry="4.5" fill="#5A9A5A"/>
  <circle cx="480" cy="191.5" r="1.8" fill="#C41E3A"/>
  <circle cx="462" cy="191" r="1.8" fill="#1a1a1a"/>
  <path d="M458,188 L455,178 L463,186Z" fill="#3A6A3A"/>
  <ellipse cx="450" cy="240" rx="12" ry="10" fill="#4A7A4A" stroke="#1a1a1a" stroke-width="1"/>
  <ellipse cx="460" cy="243" rx="7" ry="4.5" fill="#5A9A5A"/>
  <circle cx="465" cy="242" r="1.8" fill="#C41E3A"/>
  <path d="M443,234 L440,224 L448,232Z" fill="#3A6A3A"/>
  <line x1="445" y1="235" x2="449" y2="239" stroke="#1a1a1a" stroke-width="1.2"/>
  <line x1="449" y1="235" x2="445" y2="239" stroke="#1a1a1a" stroke-width="1.2"/>
  <!-- Bogatyr - Dobrynya (left) -->
  <path d="M155,155 L140,165 L135,280 L240,280 L235,165 L220,155Z" fill="#666" stroke="#1a1a1a" stroke-width="1.5"/>
  <path d="M145,155 Q120,200 125,280 L140,280 L140,165Z" fill="#C41E3A" opacity="0.7"/>
  <path d="M230,155 Q255,200 250,280 L235,280 L235,165Z" fill="#C41E3A" opacity="0.7"/>
  <rect x="133" y="230" width="109" height="10" fill="#D4A843" stroke="#1a1a1a" stroke-width="1"/>
  <rect x="150" y="280" width="22" height="30" fill="#555"/>
  <rect x="198" y="280" width="22" height="30" fill="#555"/>
  <path d="M145,306 L145,314 Q145,318 150,318 L175,318 Q175,314 173,306Z" fill="#654321"/>
  <path d="M195,306 L195,314 Q195,318 200,318 L222,318 Q222,314 220,306Z" fill="#654321"/>
  <path d="M140,165 Q135,170 125,175 L125,200 Q140,195 150,190Z" fill="#888" stroke="#1a1a1a" stroke-width="1"/>
  <path d="M235,165 Q240,170 250,175 L250,200 Q235,195 225,190Z" fill="#888" stroke="#1a1a1a" stroke-width="1"/>
  <circle cx="188" cy="135" r="22" fill="#F5D5B8"/>
  <path d="M164,130 Q188,105 212,130 L212,142 Q188,145 164,142Z" fill="#AAA" stroke="#1a1a1a" stroke-width="1"/>
  <path d="M188,108 Q178,95 172,85 Q185,90 188,108Z" fill="#C41E3A"/>
  <path d="M188,108 Q195,92 202,82 Q195,88 188,108Z" fill="#C41E3A" opacity="0.8"/>
  <ellipse cx="180" cy="134" rx="3" ry="2.5" fill="#1a1a1a"/>
  <ellipse cx="196" cy="134" rx="3" ry="2.5" fill="#1a1a1a"/>
  <circle cx="181" cy="133.5" r="1" fill="#FFF"/>
  <circle cx="197" cy="133.5" r="1" fill="#FFF"/>
  <path d="M178,142 Q173,145 168,143" fill="none" stroke="#8B6F55" stroke-width="2"/>
  <path d="M198,142 Q203,145 208,143" fill="none" stroke="#8B6F55" stroke-width="2"/>
  <line x1="250" y1="175" x2="320" y2="120" stroke="#F5D5B8" stroke-width="10" stroke-linecap="round"/>
  <line x1="315" y1="125" x2="360" y2="90" stroke="#CCC" stroke-width="4"/>
  <line x1="315" y1="125" x2="360" y2="90" stroke="#DDD" stroke-width="2"/>
  <line x1="308" y1="130" x2="325" y2="118" stroke="#D4A843" stroke-width="4" stroke-linecap="round"/>
  <line x1="308" y1="130" x2="295" y2="140" stroke="#8B4513" stroke-width="4"/>
  <line x1="335" y1="110" x2="350" y2="98" stroke="#FFF" stroke-width="1.5" opacity="0.7"/>
  <line x1="125" y1="175" x2="95" y2="205" stroke="#F5D5B8" stroke-width="10" stroke-linecap="round"/>
  <!-- Gusli (bottom left) -->
  <path d="M50,270 Q45,255 60,250 L90,248 Q105,250 100,270Z" fill="#D4A843" stroke="#1a1a1a" stroke-width="1.5"/>
  <line x1="55" y1="260" x2="95" y2="258" stroke="#1a1a1a" stroke-width="0.5"/>
  <line x1="58" y1="263" x2="92" y2="261" stroke="#1a1a1a" stroke-width="0.5"/>
  <line x1="65" y1="255" x2="65" y2="272" stroke="#1a1a1a" stroke-width="0.5" opacity="0.6"/>
  <line x1="75" y1="254" x2="75" y2="271" stroke="#1a1a1a" stroke-width="0.5" opacity="0.6"/>
  <line x1="85" y1="254" x2="85" y2="271" stroke="#1a1a1a" stroke-width="0.5" opacity="0.6"/>
</svg>