<svg xmlns="http://www.w3.org/2000/svg" viewBox="0 0 500 350">
  <defs>
    <linearGradient id="bgcfcd7429" x1="0%" y1="0%" x2="100%" y2="100%">
      <stop offset="0%" style="stop-color:#FFF3E0;stop-opacity:0.6"/>
      <stop offset="100%" style="stop-color:#FFE0B2;stop-opacity:0.3"/>
    </linearGradient>
  </defs>
  <rect width="500" height="350" fill="url(#bgcfcd7429)"/>
  <rect width="500" height="350" fill="#FFF8E1" opacity="0.25"/>
  
  <circle cx="440" cy="55" r="18" fill="#FFD54F" opacity="0.8">
<animate attributeName="r" values="16;20;16" dur="4s" repeatCount="indefinite"/>
</circle>
<line x1="462.0" y1="55.0" x2="470.0" y2="55.0" stroke="#FFD54F" stroke-width="2" opacity="0.5"/>
<line x1="459.1" y1="66.0" x2="466.0" y2="70.0" stroke="#FFD54F" stroke-width="2" opacity="0.5"/>
<line x1="451.0" y1="74.1" x2="455.0" y2="81.0" stroke="#FFD54F" stroke-width="2" opacity="0.5"/>
<line x1="440.0" y1="77.0" x2="440.0" y2="85.0" stroke="#FFD54F" stroke-width="2" opacity="0.5"/>
<line x1="429.0" y1="74.1" x2="425.0" y2="81.0" stroke="#FFD54F" stroke-width="2" opacity="0.5"/>
<line x1="420.9" y1="66.0" x2="414.0" y2="70.0" stroke="#FFD54F" stroke-width="2" opacity="0.5"/>
<line x1="418.0" y1="55.0" x2="410.0" y2="55.0" stroke="#FFD54F" stroke-width="2" opacity="0.5"/>
<line x1="420.9" y1="44.0" x2="414.0" y2="40.0" stroke="#FFD54F" stroke-width="2" opacity="0.5"/>
<line x1="429.0" y1="35.9" x2="425.0" y2="29.0" stroke="#FFD54F" stroke-width="2" opacity="0.5"/>
<line x1="440.0" y1="33.0" x2="440.0" y2="25.0" stroke="#FFD54F" stroke-width="2" opacity="0.5"/>
<line x1="451.0" y1="35.9" x2="455.0" y2="29.0" stroke="#FFD54F" stroke-width="2" opacity="0.5"/>
<line x1="459.1" y1="44.0" x2="466.0" y2="40.0" stroke="#FFD54F" stroke-width="2" opacity="0.5"/>
  <ellipse cx="80" cy="50" rx="19.5" ry="7.800000000000001" fill="#FFF" opacity="0.4"/><ellipse cx="67.0" cy="52.925" rx="13.0" ry="5.85" fill="#FFF" opacity="0.4"/><ellipse cx="93.0" cy="52.925" rx="14.3" ry="6.3375" fill="#FFF" opacity="0.4"/><ellipse cx="57.25" cy="50.975" rx="9.75" ry="4.875" fill="#FFF" opacity="0.4"/><ellipse cx="102.75" cy="50.975" rx="9.75" ry="4.875" fill="#FFF" opacity="0.4"/>
  
  <text x="250" y="36" font-family="Georgia, serif" font-size="22" font-weight="bold" fill="#E65100" text-anchor="middle">Колобок</text>
  <rect x="80" y="44" width="340" height="2.5" rx="1" fill="#E65100" opacity="0.4"/>
  
  <path d="M315.0,210.0 Q250.0,200.0 255.0,215.0 L255.0,295.0 Q250.0,300.0 315.0,290.0 Z" fill="#FFF8E1" stroke="#1565C0" stroke-width="1.5"/>
<path d="M325.0,210.0 Q390.0,200.0 385.0,215.0 L385.0,295.0 Q390.0,300.0 325.0,290.0 Z" fill="#FFFDE7" stroke="#1565C0" stroke-width="1.5"/>
<line x1="320.0" y1="208.0" x2="320.0" y2="292.0" stroke="#1565C0" stroke-width="2"/>
<line x1="265.0" y1="225.0" x2="305.0" y2="225.0" stroke="#BDBDBD" stroke-width="1"/>
<line x1="265.0" y1="239.0" x2="305.0" y2="239.0" stroke="#BDBDBD" stroke-width="1"/>
<line x1="265.0" y1="253.0" x2="305.0" y2="253.0" stroke="#BDBDBD" stroke-width="1"/>
<line x1="265.0" y1="267.0" x2="305.0" y2="267.0" stroke="#BDBDBD" stroke-width="1"/>
<line x1="335.0" y1="225.0" x2="375.0" y2="225.0" stroke="#BDBDBD" stroke-width="1"/>
<line x1="335.0" y1="239.0" x2="375.0" y2="239.0" stroke="#BDBDBD" stroke-width="1"/>
<line x1="335.0" y1="253.0" x2="375.0" y2="253.0" stroke="#BDBDBD" stroke-width="1"/>
<line x1="335.0" y1="267.0" x2="375.0" y2="267.0" stroke="#BDBDBD" stroke-width="1"/>

  
  <text x="250" y="335" font-family="Arial, sans-serif" font-size="14" fill="#BF360C" text-anchor="middle" font-style="italic">Литературное чтение</text>
  <ellipse cx="250" cy="310" rx="220" ry="15" fill="#E65100" opacity="0.06"/>
</svg>