<svg xmlns="http://www.w3.org/2000/svg" viewBox="0 0 500 350">
<rect width="500" height="350" fill="#0a1628"/>
<rect x="30" y="80" width="130" height="180" fill="#1a2a3a" rx="3" stroke="#4a7aaa" stroke-width="1"/>
<rect x="45" y="100" width="100" height="130" fill="#2a3a4a" rx="2"/>
<line x1="60" y1="100" x2="60" y2="230" stroke="#6a8aaa" stroke-width="0.8"/>
<line x1="80" y1="100" x2="80" y2="230" stroke="#6a8aaa" stroke-width="0.8"/>
<line x1="100" y1="100" x2="100" y2="230" stroke="#6a8aaa" stroke-width="0.8"/>
<line x1="120" y1="100" x2="120" y2="230" stroke="#6a8aaa" stroke-width="0.8"/>
<rect x="50" y="110" width="10" height="5" fill="#222" rx="1"/>
<rect x="50" y="130" width="10" height="5" fill="#222" rx="1"/>
<rect x="50" y="150" width="10" height="5" fill="#222" rx="1"/>
<rect x="50" y="170" width="10" height="5" fill="#222" rx="1"/>
<rect x="50" y="190" width="10" height="5" fill="#222" rx="1"/>
<rect x="50" y="210" width="10" height="5" fill="#222" rx="1"/>
<rect x="72" y="120" width="10" height="5" fill="#222" rx="1"/>
<rect x="72" y="140" width="10" height="5" fill="#222" rx="1"/>
<rect x="72" y="160" width="10" height="5" fill="#222" rx="1"/>
<rect x="72" y="180" width="10" height="5" fill="#222" rx="1"/>
<rect x="72" y="200" width="10" height="5" fill="#222" rx="1"/>
<rect x="72" y="220" width="10" height="5" fill="#222" rx="1"/>
<rect x="95" y="115" width="10" height="5" fill="#222" rx="1"/>
<rect x="95" y="135" width="10" height="5" fill="#222" rx="1"/>
<rect x="95" y="155" width="10" height="5" fill="#222" rx="1"/>
<rect x="95" y="175" width="10" height="5" fill="#222" rx="1"/>
<rect x="95" y="195" width="10" height="5" fill="#222" rx="1"/>
<rect x="95" y="215" width="10" height="5" fill="#222" rx="1"/>
<rect x="118" y="125" width="10" height="5" fill="#222" rx="1"/>
<rect x="118" y="145" width="10" height="5" fill="#222" rx="1"/>
<rect x="118" y="165" width="10" height="5" fill="#222" rx="1"/>
<rect x="118" y="185" width="10" height="5" fill="#222" rx="1"/>
<rect x="118" y="205" width="10" height="5" fill="#222" rx="1"/>
<text x="95" y="280" font-family="Arial" font-size="8" fill="#88CCEE" text-anchor="middle">Фортепиано</text>
<path d="M240,60 Q245,50 250,55 Q255,45 260,55 Q265,50 270,60" fill="#D4A060" stroke="#8B6914" stroke-width="1"/>
<rect x="244" y="60" width="22" height="140" fill="#D4A060" rx="2" stroke="#8B6914" stroke-width="0.8"/>
<path d="M248,75 Q253,80 258,75" fill="none" stroke="#8B6914" stroke-width="0.5"/>
<path d="M248,85 Q253,90 258,85" fill="none" stroke="#8B6914" stroke-width="0.5"/>
<path d="M248,95 Q253,100 258,95" fill="none" stroke="#8B6914" stroke-width="0.5"/>
<path d="M248,105 Q253,110 258,105" fill="none" stroke="#8B6914" stroke-width="0.5"/>
<line x1="266" y1="65" x2="290" y2="90" stroke="#8B6914" stroke-width="1.5"/>
<line x1="266" y1="85" x2="285" y2="105" stroke="#8B6914" stroke-width="1"/>
<line x1="266" y1="105" x2="280" y2="120" stroke="#8B6914" stroke-width="1"/>
<rect x="288" y="85" width="15" height="8" fill="#333" rx="2"/>
<text x="255" y="220" font-family="Arial" font-size="8" fill="#88CCEE" text-anchor="middle">Скрипка</text>
<rect x="350" y="60" width="120" height="180" fill="#1a2a3a" rx="4" stroke="#4a7aaa" stroke-width="1"/>
<circle cx="410" cy="90" r="20" fill="#D4A060" stroke="#8B6914" stroke-width="1"/>
<path d="M395,105 Q410,115 425,105" stroke="#8B6914" stroke-width="1.5" fill="none"/>
<rect x="405" y="115" width="10" height="50" fill="#8B6914" rx="2"/>
<path d="M395,165 Q410,175 425,165" stroke="#8B6914" stroke-width="2" fill="#D4A060"/>
<circle cx="395" cy="155" r="3" fill="#333"/>
<circle cx="410" cy="150" r="3" fill="#333"/>
<circle cx="425" cy="155" r="3" fill="#333"/>
<circle cx="380" cy="135" r="3" fill="#333"/>
<circle cx="440" cy="135" r="3" fill="#333"/>
<line x1="375" y1="130" x2="445" y2="130" stroke="#8B6914" stroke-width="1"/>
<text x="410" y="260" font-family="Arial" font-size="8" fill="#88CCEE" text-anchor="middle">Саксофон</text>
<text x="250" y="310" font-family="Arial" font-size="9" fill="#88CCEE" text-anchor="middle">Соната • Концерт • Симфония • Сюита</text>
<text x="250" y="342" font-family="Arial" font-size="9" fill="#88CCEE" text-anchor="middle" opacity="0.5">Инструментальные жанры</text>
</svg>