<svg xmlns="http://www.w3.org/2000/svg" viewBox="0 0 500 350"><defs><linearGradient id="bg" x1="0" y1="0" x2="1" y2="1"><stop offset="0%" stop-color="#FFF8E1"/><stop offset="100%" stop-color="#FFFDE7"/></linearGradient></defs><rect width="500" height="350" fill="url(#bg)" rx="10"/><rect x="3" y="3" width="494" height="344" rx="8" fill="none" stroke="#C62828" stroke-width="3"/><rect x="8" y="8" width="484" height="334" rx="6" fill="none" stroke="#C62828" stroke-width="1" opacity="0.3"/><polygon points="10,10 30,10 10,30" fill="#C62828" opacity="0.08"/><polygon points="490,10 470,10 490,30" fill="#1565C0" opacity="0.08"/><polygon points="10,340 30,340 10,320" fill="#F9A825" opacity="0.08"/><polygon points="490,340 470,340 490,320" fill="#2E7D32" opacity="0.08"/><circle cx="70" cy="15" r="4" fill="#C62828" opacity="0.1"/><circle cx="82" cy="15" r="4" fill="#1565C0" opacity="0.1"/><circle cx="94" cy="15" r="4" fill="#F9A825" opacity="0.1"/><circle cx="406" cy="15" r="4" fill="#C62828" opacity="0.1"/><circle cx="418" cy="15" r="4" fill="#1565C0" opacity="0.1"/><circle cx="430" cy="15" r="4" fill="#F9A825" opacity="0.1"/><text x="250" y="50" font-family="Arial,sans-serif" font-size="24" font-weight="bold" fill="#C62828" text-anchor="middle">Волейбол</text><text x="250" y="68" font-family="Arial,sans-serif" font-size="12" fill="#777" text-anchor="middle">Физическая культура - Урок 7</text><line x1="30" y1="78" x2="470" y2="78" stroke="#C62828" stroke-width="2" opacity="0.25"/><rect x="30" y="75" width="60" height="6" fill="#C62828" opacity="0.15" rx="1"/><rect x="410" y="75" width="60" height="6" fill="#1565C0" opacity="0.12" rx="1"/><!-- Main illustration: Volleyball net and court --><rect x="60" y="92" width="380" height="130" rx="8" fill="#E8F5E9" opacity="0.3"/><!-- Court floor --><rect x="70" y="200" width="360" height="8" rx="2" fill="#A5D6A7" opacity="0.3"/><!-- Court boundary lines --><rect x="80" y="105" width="170" height="98" rx="0" fill="none" stroke="#2E7D32" stroke-width="1" opacity="0.2"/><rect x="250" y="105" width="170" height="98" rx="0" fill="none" stroke="#1565C0" stroke-width="1" opacity="0.2"/><!-- Net posts --><rect x="247" y="95" width="6" height="110" rx="2" fill="#78909C" opacity="0.7"/><rect x="247" y="95" width="6" height="5" rx="1" fill="#546E7A"/><!-- Volleyball net --><rect x="70" y="108" width="178" height="80" fill="none" stroke="#333" stroke-width="0.5" opacity="0.15"/><rect x="252" y="108" width="178" height="80" fill="none" stroke="#333" stroke-width="0.5" opacity="0.15"/><line x1="70" y1="108" x2="430" y2="108" stroke="#333" stroke-width="2.5" opacity="0.5"/><line x1="70" y1="115" x2="430" y2="115" stroke="#333" stroke-width="0.8" opacity="0.2"/><line x1="70" y1="128" x2="430" y2="128" stroke="#333" stroke-width="0.8" opacity="0.2"/><line x1="70" y1="141" x2="430" y2="141" stroke="#333" stroke-width="0.8" opacity="0.2"/><line x1="70" y1="154" x2="430" y2="154" stroke="#333" stroke-width="0.8" opacity="0.2"/><line x1="70" y1="167" x2="430" y2="167" stroke="#333" stroke-width="0.8" opacity="0.2"/><line x1="70" y1="180" x2="430" y2="180" stroke="#333" stroke-width="0.8" opacity="0.2"/><!-- Net vertical lines --><line x1="100" y1="108" x2="100" y2="188" stroke="#333" stroke-width="0.5" opacity="0.15"/><line x1="130" y1="108" x2="130" y2="188" stroke="#333" stroke-width="0.5" opacity="0.15"/><line x1="160" y1="108" x2="160" y2="188" stroke="#333" stroke-width="0.5" opacity="0.15"/><line x1="190" y1="108" x2="190" y2="188" stroke="#333" stroke-width="0.5" opacity="0.15"/><line x1="220" y1="108" x2="220" y2="188" stroke="#333" stroke-width="0.5" opacity="0.15"/><line x1="280" y1="108" x2="280" y2="188" stroke="#333" stroke-width="0.5" opacity="0.15"/><line x1="310" y1="108" x2="310" y2="188" stroke="#333" stroke-width="0.5" opacity="0.15"/><line x1="340" y1="108" x2="340" y2="188" stroke="#333" stroke-width="0.5" opacity="0.15"/><line x1="370" y1="108" x2="370" y2="188" stroke="#333" stroke-width="0.5" opacity="0.15"/><line x1="400" y1="108" x2="400" y2="188" stroke="#333" stroke-width="0.5" opacity="0.15"/><!-- Bottom net line --><line x1="70" y1="188" x2="430" y2="188" stroke="#333" stroke-width="2.5" opacity="0.5"/><!-- Volleyball --><circle cx="250" cy="120" r="13" fill="#FFEB3B" stroke="#F9A825" stroke-width="1.5"/><path d="M237 120 Q250 110 263 120" fill="none" stroke="#F57F17" stroke-width="1" opacity="0.6"/><path d="M237 120 Q250 130 263 120" fill="none" stroke="#F57F17" stroke-width="1" opacity="0.6"/><path d="M250 107 Q243 120 250 133" fill="none" stroke="#F57F17" stroke-width="1" opacity="0.6"/><path d="M250 107 Q257 120 250 133" fill="none" stroke="#F57F17" stroke-width="1" opacity="0.6"/><!-- Player setting (left, red) - arms up over head --><circle cx="130" cy="145" r="10" fill="#C62828" opacity="0.75"/><rect x="123" y="155" width="14" height="24" rx="3" fill="#C62828" opacity="0.7"/><rect x="117" y="140" width="8" height="20" rx="2" fill="#C62828" opacity="0.65" transform="rotate(15 121 150)"/><rect x="135" y="140" width="8" height="20" rx="2" fill="#C62828" opacity="0.65" transform="rotate(-15 139 150)"/><rect x="124" y="178" width="6" height="16" rx="2" fill="#C62828" opacity="0.65"/><rect x="132" y="178" width="6" height="16" rx="2" fill="#C62828" opacity="0.65"/><!-- Player spiking (right, blue) - jumping with arm back --><circle cx="360" cy="120" r="10" fill="#1565C0" opacity="0.75"/><rect x="353" y="130" width="14" height="22" rx="3" fill="#1565C0" opacity="0.7"/><!-- Spiking arm --><rect x="358" y="115" width="8" height="22" rx="2" fill="#1565C0" opacity="0.65" transform="rotate(-30 362 126)"/><!-- Other arm --><rect x="348" y="132" width="12" height="6" rx="2" fill="#1565C0" opacity="0.6" transform="rotate(20 354 135)"/><!-- Legs spread jump --><rect x="353" y="151" width="6" height="18" rx="2" fill="#1565C0" opacity="0.65" transform="rotate(12 356 160)"/><rect x="361" y="151" width="6" height="18" rx="2" fill="#1565C0" opacity="0.65" transform="rotate(-12 364 160)"/><!-- Player receiving (back left, green) --><circle cx="90" cy="170" r="8" fill="#2E7D32" opacity="0.6"/><rect x="84" y="178" width="12" height="18" rx="2" fill="#2E7D32" opacity="0.55"/><rect x="78" y="168" width="16" height="6" rx="2" fill="#2E7D32" opacity="0.5" transform="rotate(20 86 171)"/><rect x="88" y="195" width="5" height="10" rx="1" fill="#2E7D32" opacity="0.5"/><rect x="95" y="195" width="5" height="10" rx="1" fill="#2E7D32" opacity="0.5"/><!-- Player blocking (back right, gold) --><circle cx="410" cy="140" r="9" fill="#F9A825" opacity="0.65"/><rect x="403" y="149" width="12" height="22" rx="2" fill="#F9A825" opacity="0.6"/><rect x="397" y="140" width="14" height="6" rx="2" fill="#F9A825" opacity="0.55" transform="rotate(10 404 143)"/><rect x="407" y="140" width="14" height="6" rx="2" fill="#F9A825" opacity="0.55" transform="rotate(-10 414 143)"/><rect x="402" y="170" width="5" height="14" rx="1" fill="#F9A825" opacity="0.55"/><rect x="410" y="170" width="5" height="14" rx="1" fill="#F9A825" opacity="0.55"/><!-- Info cards --><rect x="30" y="228" width="105" height="68" rx="5" fill="#FFEBEE" stroke="#C62828" stroke-width="1" opacity="0.8"/><text x="82" y="250" font-family="Arial,sans-serif" font-size="9" font-weight="bold" fill="#C62828">Нижний приём</text><text x="82" y="264" font-family="Arial,sans-serif" font-size="8" fill="#666">Пружинящие руки,</text><text x="82" y="275" font-family="Arial,sans-serif" font-size="8" fill="#666">перекат на ногах</text><rect x="148" y="228" width="105" height="68" rx="5" fill="#E3F2FD" stroke="#1565C0" stroke-width="1" opacity="0.8"/><text x="200" y="250" font-family="Arial,sans-serif" font-size="9" font-weight="bold" fill="#1565C0">Верхняя передача</text><text x="200" y="264" font-family="Arial,sans-serif" font-size="8" fill="#666">Выше головы,</text><text x="200" y="275" font-family="Arial,sans-serif" font-size="8" fill="#666">пальцы расправлены</text><rect x="266" y="228" width="105" height="68" rx="5" fill="#FFF8E1" stroke="#F9A825" stroke-width="1" opacity="0.8"/><text x="318" y="250" font-family="Arial,sans-serif" font-size="9" font-weight="bold" fill="#F57F17">Подача</text><text x="318" y="264" font-family="Arial,sans-serif" font-size="8" fill="#666">Нижняя и верхняя</text><text x="318" y="275" font-family="Arial,sans-serif" font-size="8" fill="#666">подача мяча</text><rect x="384" y="228" width="105" height="68" rx="5" fill="#E8F5E9" stroke="#2E7D32" stroke-width="1" opacity="0.8"/><text x="436" y="250" font-family="Arial,sans-serif" font-size="9" font-weight="bold" fill="#2E7D32">Нападающий</text><text x="436" y="264" font-family="Arial,sans-serif" font-size="8" fill="#666">Удар, блок,</text><text x="436" y="275" font-family="Arial,sans-serif" font-size="8" fill="#666">позиции на площадке</text><rect x="15" y="308" width="470" height="30" rx="4" fill="#C62828" opacity="0.85"/><text x="250" y="329" font-family="Arial,sans-serif" font-size="15" text-anchor="middle" fill="white" font-weight="bold">Волейбол</text></svg>