<svg xmlns="http://www.w3.org/2000/svg" viewBox="0 0 500 350">
  <defs>
    <linearGradient id="bg" x1="0" y1="0" x2="1" y2="1">
      <stop offset="0%" stop-color="#E3F2FD"/>
      <stop offset="100%" stop-color="#BBDEFB"/>
    </linearGradient>
    <linearGradient id="panel" x1="0" y1="0" x2="1" y2="0">
      <stop offset="0%" stop-color="#0D47A1"/>
      <stop offset="100%" stop-color="#1565C0"/>
    </linearGradient>
  </defs>
  <rect width="500" height="350" fill="url(#bg)" rx="10"/>
  <rect x="3" y="3" width="494" height="344" rx="8" fill="none" stroke="#0D47A1" stroke-width="2.5"/>
  <text x="250" y="42" font-family="Arial,sans-serif" font-size="16" font-weight="bold" fill="#0D47A1" text-anchor="middle">Урок 6: Замыкания и декораторы</text>
  <text x="250" y="62" font-family="Arial,sans-serif" font-size="11" fill="#888" text-anchor="middle">Программирование — Урок 6</text>
  <line x1="30" y1="72" x2="470" y2="72" stroke="#0D47A1" stroke-width="2" opacity="0.25"/>
  <clipPath id="ill"><rect x="15" y="78" width="470" height="220" rx="6"/></clipPath>
  <g clip-path="url(#ill)">
    <rect x="15" y="78" width="470" height="220" fill="#E3F2FD" opacity="0.5"/>
    <rect x="70" y="90" width="226" height="14" rx="3" fill="#2196F3" opacity="0.31"/>
<text x="75" y="101" font-family="monospace" font-size="9" fill="#2196F3">> code_line_1</text>
<rect x="70" y="108" width="117" height="14" rx="3" fill="#1565C0" opacity="0.44"/>
<text x="75" y="119" font-family="monospace" font-size="9" fill="#1565C0">== code_line_2</text>
<rect x="70" y="126" width="171" height="14" rx="3" fill="#64B5F6" opacity="0.60"/>
<text x="75" y="137" font-family="monospace" font-size="9" fill="#64B5F6">/ code_line_3</text>
<rect x="70" y="144" width="336" height="14" rx="3" fill="#1976D2" opacity="0.53"/>
<text x="75" y="155" font-family="monospace" font-size="9" fill="#1976D2">&& code_line_4</text>
<rect x="30" y="162" width="268" height="14" rx="3" fill="#1976D2" opacity="0.67"/>
<text x="35" y="173" font-family="monospace" font-size="9" fill="#1976D2">|| code_line_5</text>
<rect x="50" y="180" width="96" height="14" rx="3" fill="#0D47A1" opacity="0.55"/>
<text x="55" y="191" font-family="monospace" font-size="9" fill="#0D47A1">/ code_line_6</text>
<rect x="30" y="198" width="220" height="14" rx="3" fill="#2196F3" opacity="0.54"/>
<text x="35" y="209" font-family="monospace" font-size="9" fill="#2196F3">> code_line_7</text>
<circle cx="90" cy="279" r="8" fill="#FF6F00" opacity="0.6"/>
<circle cx="130" cy="259" r="6" fill="#0D47A1" opacity="0.5"/>
<circle cx="60" cy="294" r="5" fill="#1976D2" opacity="0.5"/>
<line x1="90" y1="279" x2="130" y2="259" stroke="#0D47A1" stroke-width="1" opacity="0.4"/>
<line x1="90" y1="279" x2="60" y2="294" stroke="#0D47A1" stroke-width="1" opacity="0.4"/>
  </g>
  <rect x="12" y="305" width="476" height="35" rx="5" fill="url(#panel)"/>
  <text x="250" y="328" font-family="Arial,sans-serif" font-size="14" text-anchor="middle" fill="white" font-weight="bold">Программирование · 10 класс</text>
</svg>