<svg xmlns="http://www.w3.org/2000/svg" viewBox="0 0 500 350">
  <defs>
    <linearGradient id="bg" x1="0" y1="0" x2="0" y2="1">
      <stop offset="0%" stop-color="#E3F2FD"/>
      <stop offset="100%" stop-color="#FFFFFF"/>
    </linearGradient>
    <linearGradient id="panel" x1="0" y1="0" x2="1" y2="0">
      <stop offset="0%" stop-color="#1565C0"/>
      <stop offset="100%" stop-color="#0D47A1"/>
    </linearGradient>
    <marker id="arrowBlue" markerWidth="6" markerHeight="4" refX="6" refY="2" orient="auto">
      <polygon points="0,0 6,2 0,4" fill="#1565C0"/>
    </marker>
    <marker id="arrowRed" markerWidth="6" markerHeight="4" refX="6" refY="2" orient="auto">
      <polygon points="0,0 6,2 0,4" fill="#E53935"/>
    </marker>
    <marker id="arrowGreen" markerWidth="6" markerHeight="4" refX="6" refY="2" orient="auto">
      <polygon points="0,0 6,2 0,4" fill="#4CAF50"/>
    </marker>
    <marker id="arrowDark" markerWidth="6" markerHeight="4" refX="6" refY="2" orient="auto">
      <polygon points="0,0 6,2 0,4" fill="#333"/>
    </marker>
  </defs>
  <rect width="500" height="350" fill="url(#bg)" rx="10"/>
  <rect x="3" y="3" width="494" height="344" rx="8" fill="none" stroke="#1565C0" stroke-width="2.5"/>
  <text x="250" y="48" font-family="Arial,sans-serif" font-size="20" font-weight="bold" fill="#1565C0" text-anchor="middle">Строение атома</text>
  <text x="250" y="68" font-family="Arial,sans-serif" font-size="12" fill="#777" text-anchor="middle">Физика — Урок 8</text>
  <line x1="30" y1="78" x2="470" y2="78" stroke="#1565C0" stroke-width="2" opacity="0.25"/>
  <clipPath id="ill"><rect x="15" y="85" width="470" height="215" rx="6"/></clipPath>
  <g clip-path="url(#ill)">
    <rect x="15" y="85" width="470" height="215" fill="#E3F2FD" opacity="0.5"/>
    <!-- Bohr atom model -->
    <rect x="25" y="95" width="200" height="145" rx="5" fill="white" opacity="0.7" stroke="#1565C0" stroke-width="1"/>
    <text x="125" y="110" font-family="Arial,sans-serif" font-size="10" fill="#0D47A1" text-anchor="middle" font-weight="bold">Модель Бора</text>
    <!-- Nucleus -->
    <circle cx="125" cy="165" r="10" fill="#E53935" opacity="0.8"/>
    <text x="125" y="168" font-family="Arial,sans-serif" font-size="7" fill="white" text-anchor="middle">Z+</text>
    <!-- Orbits -->
    <ellipse cx="125" cy="165" rx="35" ry="30" fill="none" stroke="#1565C0" stroke-width="1" stroke-dasharray="3,2"/>
    <ellipse cx="125" cy="165" rx="60" ry="50" fill="none" stroke="#4CAF50" stroke-width="1" stroke-dasharray="3,2"/>
    <ellipse cx="125" cy="165" rx="85" ry="65" fill="none" stroke="#FF9800" stroke-width="1" stroke-dasharray="3,2"/>
    <!-- Electrons on orbits -->
    <circle cx="160" cy="155" r="4" fill="#1565C0"/>
    <circle cx="65" cy="180" r="4" fill="#4CAF50"/>
    <circle cx="180" cy="140" r="4" fill="#FF9800"/>
    <!-- Energy levels -->
    <text x="60" y="135" font-family="Arial,sans-serif" font-size="8" fill="#FF9800">n=3</text>
    <text x="60" y="150" font-family="Arial,sans-serif" font-size="8" fill="#4CAF50">n=2</text>
    <text x="85" y="160" font-family="Arial,sans-serif" font-size="8" fill="#1565C0">n=1</text>
    <!-- Transition arrows -->
    <line x1="155" y1="152" x2="125" y2="162" stroke="#E53935" stroke-width="1.5" marker-end="url(#arrowRed)"/>
    <text x="148" y="148" font-family="Arial,sans-serif" font-size="7" fill="#E53935">hν</text>
    <!-- Energy level diagram -->
    <rect x="240" y="95" width="240" height="145" rx="3" fill="white" opacity="0.7" stroke="#1565C0" stroke-width="1"/>
    <text x="360" y="110" font-family="Arial,sans-serif" font-size="10" fill="#0D47A1" text-anchor="middle" font-weight="bold">Энергетические уровни</text>
    <!-- Energy levels -->
    <line x1="280" y1="220" x2="380" y2="220" stroke="#1565C0" stroke-width="2"/>
    <text x="385" y="223" font-family="Arial,sans-serif" font-size="9" fill="#1565C0">n=1  E₁</text>
    <line x1="280" y1="185" x2="380" y2="185" stroke="#4CAF50" stroke-width="2"/>
    <text x="385" y="188" font-family="Arial,sans-serif" font-size="9" fill="#4CAF50">n=2  E₂</text>
    <line x1="280" y1="150" x2="380" y2="150" stroke="#FF9800" stroke-width="2"/>
    <text x="385" y="153" font-family="Arial,sans-serif" font-size="9" fill="#FF9800">n=3  E₃</text>
    <line x1="280" y1="120" x2="380" y2="120" stroke="#E53935" stroke-width="2"/>
    <text x="385" y="123" font-family="Arial,sans-serif" font-size="9" fill="#E53935">n=∞  E=0</text>
    <!-- Transition arrow -->
    <line x1="330" y1="185" x2="330" y2="220" stroke="#E53935" stroke-width="2" marker-end="url(#arrowRed)"/>
    <text x="335" y="205" font-family="Arial,sans-serif" font-size="8" fill="#E53935">hν₁₂</text>
    <line x1="340" y1="150" x2="340" y2="220" stroke="#4CAF50" stroke-width="1.5" marker-end="url(#arrowGreen)"/>
    <text x="345" y="195" font-family="Arial,sans-serif" font-size="8" fill="#4CAF50">hν₁₃</text>
    <!-- Formulas -->
    <rect x="20" y="246" width="460" height="50" rx="5" fill="white" opacity="0.9" stroke="#1565C0" stroke-width="1"/>
    <text x="30" y="264" font-family="Arial,sans-serif" font-size="11" fill="#0D47A1" font-weight="bold">Постулаты Бора:</text>
    <text x="30" y="282" font-family="Arial,sans-serif" font-size="10" fill="#444">1) Стационарные орбиты: mvr = nħ;   2) Излучение при переходе: hν = E_n − E_k</text>
    <text x="30" y="293" font-family="Arial,sans-serif" font-size="10" fill="#1565C0">E_n = −13.6/n² эВ (водород)</text>
    
  </g>
  <rect x="12" y="305" width="476" height="32" rx="5" fill="url(#panel)"/>
  <text x="250" y="326" font-family="Arial,sans-serif" font-size="15" text-anchor="middle" fill="white" font-weight="bold">Физика · 11 класс</text>
</svg>