<svg xmlns="http://www.w3.org/2000/svg" viewBox="0 0 500 350" font-family="Arial,sans-serif">
<defs>
  <filter id="shadow1" x="-5%" y="-5%" width="110%" height="110%">
    <feDropShadow dx="1" dy="1" stdDeviation="2" flood-opacity="0.15"/>
  </filter>
  <linearGradient id="bg" x1="0" y1="0" x2="0" y2="1">
    <stop offset="0%" stop-color="#E3F2FD"/>
    <stop offset="100%" stop-color="#BBDEFB"/>
  </linearGradient>
</defs>
<rect width="500" height="350" fill="url(#bg)"/>
<rect x="0" y="0" width="500" height="42" fill="#0D47A1" rx="8"/><rect x="0" y="20" width="500" height="22" fill="#0D47A1"/><text x="250" y="28" text-anchor="middle" fill="white" font-size="14" font-weight="bold" font-family="Arial,sans-serif">Обратные тригонометрические функции</text><rect x="10" y="50" width="235" height="140" rx="10" fill="white" stroke="#1565C0" stroke-width="1.5" filter="url(#shadow1)"/><defs><clipPath id="c1"><rect x="11" y="51" width="233" height="138" rx="9"/></clipPath></defs><text x="22" y="65" text-anchor="start" fill="#0D47A1" font-size="10" font-weight="bold" font-family="Arial,sans-serif">y = arcsin x</text><line x1="20" y1="130" x2="235" y2="130" stroke="#1565C0" stroke-width="1" opacity="0.6"/><line x1="130" y1="72" x2="130" y2="182" stroke="#1565C0" stroke-width="1" opacity="0.6"/><line x1="76.0" y1="184.0" x2="184.0" y2="76.0" stroke="#90CAF9" stroke-width="1" stroke-dasharray="4,3"/><text x="184.75" y="78.25" text-anchor="start" fill="#90CAF9" font-size="7" font-family="Arial,sans-serif">y=x</text><polyline points="59.3,175.0 61.1,175.0 62.9,174.9 64.7,174.7 66.5,174.4 68.3,174.1 70.1,173.7 71.9,173.2 73.7,172.7 75.5,172.1 77.3,171.4 79.1,170.7 80.9,169.9 82.7,169.1 84.5,168.1 86.3,167.1 88.1,166.1 89.9,165.0 91.7,163.8 93.5,162.6 95.3,161.4 97.1,160.0 98.9,158.7 100.7,157.3 102.5,155.8 104.3,154.3 106.1,152.8 107.9,151.2 109.7,149.6 111.5,148.0 113.3,146.3 115.1,144.6 116.9,142.9 118.7,141.2 120.5,139.4 122.3,137.6 124.1,135.9 125.9,134.1 127.7,132.3 129.5,130.5 131.3,128.7 133.1,126.9 134.9,125.1 136.7,123.3 138.5,121.5 140.3,119.8 142.1,118.0 143.9,116.3 145.7,114.6 147.5,112.9 149.3,111.3 151.1,109.7 152.9,108.1 154.7,106.5 156.5,105.0 158.3,103.5 160.1,102.1 161.9,100.7 163.7,99.4 165.5,98.1 167.3,96.8 169.1,95.6 170.9,94.5 172.7,93.4 174.5,92.4 176.3,91.4 178.1,90.5 179.9,89.7 181.7,88.9 183.5,88.2 185.3,87.6 187.1,87.0 188.9,86.5 190.7,86.1 192.5,85.7 194.3,85.5 196.1,85.2 197.9,85.1 199.7,85.0 201.5,85.0" fill="none" stroke="#42A5F5" stroke-width="1.5" stroke-dasharray="4,2"/><polyline points="89.5,180.4 90.4,178.4 91.3,176.6 92.2,174.9 93.1,173.3 94.0,171.7 94.9,170.3 95.8,168.8 96.7,167.5 97.6,166.2 98.5,164.9 99.4,163.6 100.3,162.4 101.2,161.3 102.1,160.1 103.0,159.0 103.9,157.8 104.8,156.7 105.7,155.7 106.6,154.6 107.5,153.6 108.4,152.5 109.3,151.5 110.2,150.5 111.1,149.5 112.0,148.5 112.9,147.5 113.8,146.6 114.7,145.6 115.6,144.7 116.5,143.7 117.4,142.8 118.3,141.8 119.2,140.9 120.1,140.0 121.0,139.1 121.9,138.1 122.8,137.2 123.7,136.3 124.6,135.4 125.5,134.5 126.4,133.6 127.3,132.7 128.2,131.8 129.1,130.9 130.0,130.0 130.9,129.1 131.8,128.2 132.7,127.3 133.6,126.4 134.5,125.5 135.4,124.6 136.3,123.7 137.2,122.8 138.1,121.9 139.0,120.9 139.9,120.0 140.8,119.1 141.7,118.2 142.6,117.2 143.5,116.3 144.4,115.3 145.3,114.4 146.2,113.4 147.1,112.5 148.0,111.5 148.9,110.5 149.8,109.5 150.7,108.5 151.6,107.5 152.5,106.4 153.4,105.4 154.3,104.3 155.2,103.3 156.1,102.2 157.0,101.0 157.9,99.9 158.8,98.7 159.7,97.6 160.6,96.4 161.5,95.1 162.4,93.8 163.3,92.5 164.2,91.2 165.1,89.7 166.0,88.3 166.9,86.7 167.8,85.1 168.7,83.4 169.6,81.6 170.5,79.6 171.4,77.4 172.3,75.0 173.2,72.1" fill="none" stroke="#0D47A1" stroke-width="2"/><text x="215" y="175" text-anchor="start" fill="#42A5F5" font-size="7" font-style="italic" font-family="Arial,sans-serif">sin x</text><text x="35" y="78" text-anchor="start" fill="#0D47A1" font-size="8" font-weight="bold" font-family="Arial,sans-serif">arcsin x</text><rect x="255" y="50" width="235" height="140" rx="10" fill="white" stroke="#1565C0" stroke-width="1.5" filter="url(#shadow1)"/><defs><clipPath id="c2"><rect x="256" y="51" width="233" height="138" rx="9"/></clipPath></defs><text x="267" y="65" text-anchor="start" fill="#0D47A1" font-size="10" font-weight="bold" font-family="Arial,sans-serif">y = arccos x</text><line x1="265" y1="130" x2="480" y2="130" stroke="#1565C0" stroke-width="1" opacity="0.6"/><line x1="375" y1="72" x2="375" y2="182" stroke="#1565C0" stroke-width="1" opacity="0.6"/><line x1="321.0" y1="184.0" x2="429.0" y2="76.0" stroke="#90CAF9" stroke-width="1" stroke-dasharray="4,3"/><text x="429.75" y="78.25" text-anchor="start" fill="#90CAF9" font-size="7" font-family="Arial,sans-serif">y=x</text><polyline points="375.0,85.0 376.8,85.0 378.6,85.1 380.4,85.3 382.2,85.6 384.0,85.9 385.8,86.3 387.6,86.8 389.4,87.3 391.2,87.9 393.0,88.6 394.8,89.3 396.6,90.1 398.4,90.9 400.2,91.9 402.0,92.9 403.8,93.9 405.6,95.0 407.4,96.2 409.2,97.4 411.0,98.6 412.8,100.0 414.6,101.3 416.4,102.7 418.2,104.2 420.0,105.7 421.8,107.2 423.6,108.8 425.4,110.4 427.2,112.0 429.0,113.7 430.8,115.4 432.6,117.1 434.4,118.8 436.2,120.6 438.0,122.4 439.8,124.1 441.6,125.9 443.4,127.7 445.2,129.5 447.0,131.3 448.8,133.1 450.6,134.9 452.4,136.7 454.2,138.5 456.0,140.2 457.8,142.0 459.6,143.7 461.4,145.4 463.2,147.1 465.0,148.7 466.8,150.3 468.6,151.9 470.4,153.5 472.2,155.0 474.0,156.5 475.8,157.9 477.6,159.3 479.4,160.6 481.2,161.9" fill="none" stroke="#42A5F5" stroke-width="1.5" stroke-dasharray="4,2"/><polyline points="385.8,70.2 386.7,71.2 387.6,72.1 388.5,73.0 389.4,74.0 390.3,74.9 391.2,75.9 392.1,76.9 393.0,77.8 393.9,78.8 394.8,79.8 395.7,80.8 396.6,81.8 397.5,82.9 398.4,83.9 399.3,85.0 400.2,86.1 401.1,87.2 402.0,88.3 402.9,89.4 403.8,90.6 404.7,91.8 405.6,93.0 406.5,94.2 407.4,95.5 408.3,96.8 409.2,98.2 410.1,99.6 411.0,101.0 411.9,102.6 412.8,104.2 413.7,105.9 414.6,107.7 415.5,109.7 416.4,111.9 417.3,114.3 418.2,117.2 419.1,121.0" fill="none" stroke="#0D47A1" stroke-width="2"/><text x="460" y="175" text-anchor="start" fill="#42A5F5" font-size="7" font-style="italic" font-family="Arial,sans-serif">cos x</text><text x="280" y="78" text-anchor="start" fill="#0D47A1" font-size="8" font-weight="bold" font-family="Arial,sans-serif">arccos x</text><rect x="10" y="200" width="235" height="120" rx="10" fill="white" stroke="#1565C0" stroke-width="1.5" filter="url(#shadow1)"/><text x="22" y="215" text-anchor="start" fill="#0D47A1" font-size="10" font-weight="bold" font-family="Arial,sans-serif">Свойства arcsin x</text><rect x="38.0" y="225.0" width="180" height="20" rx="10" fill="#0D47A1"/><text x="128" y="238.5" text-anchor="middle" fill="white" font-size="8" font-weight="bold" font-family="Arial,sans-serif">D(arcsin) = [-1; 1]</text><rect x="28.0" y="248.0" width="200" height="20" rx="10" fill="#1565C0"/><text x="128" y="261.5" text-anchor="middle" fill="white" font-size="8" font-weight="bold" font-family="Arial,sans-serif">E(arcsin) = [-π/2; π/2]</text><rect x="28.0" y="271.0" width="200" height="20" rx="10" fill="#1976D2"/><text x="128" y="284.5" text-anchor="middle" fill="white" font-size="8" font-weight="bold" font-family="Arial,sans-serif">arcsin(-x) = -arcsin x</text><rect x="38.0" y="294.0" width="180" height="20" rx="10" fill="#42A5F5"/><text x="128" y="307.5" text-anchor="middle" fill="white" font-size="8" font-weight="bold" font-family="Arial,sans-serif">sin(arcsin x) = x</text><rect x="255" y="200" width="235" height="120" rx="10" fill="white" stroke="#1565C0" stroke-width="1.5" filter="url(#shadow1)"/><text x="267" y="215" text-anchor="start" fill="#0D47A1" font-size="10" font-weight="bold" font-family="Arial,sans-serif">Свойства arccos x</text><rect x="283.0" y="225.0" width="180" height="20" rx="10" fill="#0D47A1"/><text x="373" y="238.5" text-anchor="middle" fill="white" font-size="8" font-weight="bold" font-family="Arial,sans-serif">D(arccos) = [-1; 1]</text><rect x="278.0" y="248.0" width="190" height="20" rx="10" fill="#1565C0"/><text x="373" y="261.5" text-anchor="middle" fill="white" font-size="8" font-weight="bold" font-family="Arial,sans-serif">E(arccos) = [0; π]</text><rect x="268.0" y="271.0" width="210" height="20" rx="10" fill="#1976D2"/><text x="373" y="284.5" text-anchor="middle" fill="white" font-size="8" font-weight="bold" font-family="Arial,sans-serif">arccos(-x) = π - arccos x</text><rect x="283.0" y="294.0" width="180" height="20" rx="10" fill="#42A5F5"/><text x="373" y="307.5" text-anchor="middle" fill="white" font-size="8" font-weight="bold" font-family="Arial,sans-serif">cos(arccos x) = x</text><line x1="245" y1="120" x2="255" y2="120" stroke="#42A5F5" stroke-width="1.2" stroke-dasharray="5,3"/><line x1="127" y1="190" x2="127" y2="200" stroke="#42A5F5" stroke-width="1.2" stroke-dasharray="5,3"/><line x1="372" y1="190" x2="372" y2="200" stroke="#42A5F5" stroke-width="1.2" stroke-dasharray="5,3"/><rect x="0" y="330" width="500" height="20" fill="#0D47A1"/><text x="250" y="344" text-anchor="middle" fill="#90CAF9" font-size="10" font-weight="bold" font-family="Arial,sans-serif">Обратные функции существуют только на промежутках монотонности</text></svg>