<svg xmlns="http://www.w3.org/2000/svg" viewBox="0 0 500 350">
<defs>
<linearGradient id="bg" x1="0" y1="0" x2="1" y2="1"><stop offset="0%" stop-color="#E8EAF6"/><stop offset="100%" stop-color="#C5CAE9"/></linearGradient>
<linearGradient id="bar" x1="0" y1="0" x2="1" y2="0"><stop offset="0%" stop-color="#1A237E"/><stop offset="100%" stop-color="#283593"/></linearGradient>
</defs>
<rect width="500" height="350" fill="url(#bg)" rx="10"/>
<rect x="3" y="3" width="494" height="344" rx="8" fill="none" stroke="#1A237E" stroke-width="2.5"/>
<rect x="10" y="8" width="480" height="28" rx="5" fill="url(#bar)" opacity="0.9"/>
<text x="250" y="27" font-family="Arial,sans-serif" font-size="12" font-weight="bold" fill="white" text-anchor="middle">Доказательства эволюции · Биология 10 — Урок 49</text>

<!-- 1. Paleontological -->
<rect x="10" y="42" width="155" height="100" rx="5" fill="white" fill-opacity="0.85" stroke="#1A237E" stroke-width="1"/>
<text x="87" y="55" font-family="Arial,sans-serif" font-size="8" font-weight="bold" fill="#1A237E" text-anchor="middle">1. ПАЛЕОНТОЛОГИЧЕСКИЕ</text>

<!-- Fossil layers -->
<rect x="20" y="62" width="135" height="42" rx="2" fill="#FFF8E1" stroke="#8D6E63" stroke-width="0.5"/>
<rect x="20" y="62" width="135" height="10" rx="1" fill="#D7CCC8"/>
<rect x="20" y="72" width="135" height="10" fill="#BCAAA4"/>
<rect x="20" y="82" width="135" height="10" fill="#A1887F"/>
<rect x="20" y="92" width="135" height="12" rx="1" fill="#8D6E63"/>
<!-- Fossil icons -->
<ellipse cx="40" cy="67" rx="5" ry="3" fill="#795548" opacity="0.6"/>
<ellipse cx="70" cy="77" rx="7" ry="4" fill="#6D4C41" opacity="0.7"/>
<ellipse cx="100" cy="87" rx="8" ry="5" fill="#5D4037" opacity="0.8"/>
<text x="120" y="100" font-family="Arial,sans-serif" font-size="5" fill="#5D4037" text-anchor="middle">древнее</text>

<!-- Archaeopteryx -->
<text x="87" y="116" font-family="Arial,sans-serif" font-size="7" fill="#1A237E" text-anchor="middle">Археоптерикс —</text>
<text x="87" y="125" font-family="Arial,sans-serif" font-size="7" fill="#1A237E" text-anchor="middle">переходная форма</text>
<text x="87" y="136" font-family="Arial,sans-serif" font-size="6" fill="#555" text-anchor="middle">(рептилия + птица)</text>

<!-- 2. Comparative Anatomy -->
<rect x="172" y="42" width="155" height="100" rx="5" fill="white" fill-opacity="0.85" stroke="#1A237E" stroke-width="1"/>
<text x="249" y="55" font-family="Arial,sans-serif" font-size="8" font-weight="bold" fill="#1A237E" text-anchor="middle">2. СРАВНИТЕЛЬНАЯ АНАТОМИЯ</text>

<!-- Homologous organs - pentadactyl limb -->
<text x="249" y="68" font-family="Arial,sans-serif" font-size="7" fill="#333" text-anchor="middle">Гомологичные органы (пятипалая конечность)</text>

<!-- Human arm -->
<rect x="182" y="74" width="8" height="20" rx="2" fill="#E91E63" transform="rotate(-15 186 84)"/>
<rect x="192" y="76" width="7" height="16" rx="2" fill="#E91E63" transform="rotate(-10 195 84)"/>
<rect x="200" y="78" width="6" height="12" rx="1" fill="#E91E63"/>
<text x="195" y="105" font-family="Arial,sans-serif" font-size="5.5" fill="#E91E63" text-anchor="middle">Рука</text>
<text x="195" y="112" font-family="Arial,sans-serif" font-size="5.5" fill="#E91E63" text-anchor="middle">человека</text>

<!-- Bat wing -->
<rect x="218" y="74" width="6" height="20" rx="2" fill="#9C27B0" transform="rotate(-5 221 84)"/>
<rect x="227" y="75" width="5" height="18" rx="2" fill="#9C27B0" transform="rotate(0 229 84)"/>
<rect x="235" y="76" width="4" height="14" rx="1" fill="#9C27B0"/>
<line x1="224" y1="90" x2="244" y2="86" stroke="#CE93D8" stroke-width="0.5"/>
<text x="230" y="105" font-family="Arial,sans-serif" font-size="5.5" fill="#9C27B0" text-anchor="middle">Крыло</text>
<text x="230" y="112" font-family="Arial,sans-serif" font-size="5.5" fill="#9C27B0" text-anchor="middle">летучей мыши</text>

<!-- Horse leg -->
<rect x="252" y="74" width="6" height="22" rx="2" fill="#FF9800" transform="rotate(0 255 85)"/>
<rect x="262" y="78" width="5" height="14" rx="2" fill="#FF9800"/>
<ellipse cx="264" cy="94" rx="3" ry="4" fill="#FF9800"/>
<text x="258" y="105" font-family="Arial,sans-serif" font-size="5.5" fill="#E65100" text-anchor="middle">Нога</text>
<text x="258" y="112" font-family="Arial,sans-serif" font-size="5.5" fill="#E65100" text-anchor="middle">лошади</text>

<!-- Whale flipper -->
<rect x="282" y="74" width="20" height="10" rx="3" fill="#2196F3"/>
<rect x="286" y="70" width="3" height="18" rx="1" fill="#2196F3"/>
<rect x="291" y="68" width="3" height="20" rx="1" fill="#2196F3"/>
<rect x="296" y="70" width="3" height="18" rx="1" fill="#2196F3"/>
<text x="290" y="105" font-family="Arial,sans-serif" font-size="5.5" fill="#1565C0" text-anchor="middle">Ласт</text>
<text x="290" y="112" font-family="Arial,sans-serif" font-size="5.5" fill="#1565C0" text-anchor="middle">кита</text>

<text x="249" y="125" font-family="Arial,sans-serif" font-size="6.5" fill="#1A237E" text-anchor="middle">Единый план строения → общее происхождение</text>
<text x="249" y="136" font-family="Arial,sans-serif" font-size="6" fill="#555" text-anchor="middle">Аналогичные — сходные функции, разное происх.</text>

<!-- 3. Embryological -->
<rect x="334" y="42" width="158" height="100" rx="5" fill="white" fill-opacity="0.85" stroke="#1A237E" stroke-width="1"/>
<text x="413" y="55" font-family="Arial,sans-serif" font-size="8" font-weight="bold" fill="#1A237E" text-anchor="middle">3. ЭМБРИОЛОГИЧЕСКИЕ</text>

<!-- Embryo comparison -->
<text x="413" y="68" font-family="Arial,sans-serif" font-size="7" fill="#333" text-anchor="middle">Сходство зародышей (закон Геккеля)</text>

<!-- Fish embryo -->
<ellipse cx="362" cy="88" rx="12" ry="8" fill="#E8EAF6" stroke="#3F51B5" stroke-width="1"/>
<circle cx="356" cy="86" r="2" fill="#3F51B5"/>
<path d="M370,85 Q376,85 376,90 Q376,92 370,91" fill="#3F51B5" opacity="0.5"/>
<text x="362" y="105" font-family="Arial,sans-serif" font-size="6" fill="#3F51B5" text-anchor="middle">Рыба</text>

<!-- Salamander embryo -->
<ellipse cx="395" cy="88" rx="12" ry="8" fill="#E8EAF6" stroke="#3F51B5" stroke-width="1"/>
<circle cx="389" cy="86" r="2" fill="#3F51B5"/>
<line x1="392" y1="96" x2="388" y2="104" stroke="#3F51B5" stroke-width="0.5"/>
<line x1="398" y1="96" x2="402" y2="104" stroke="#3F51B5" stroke-width="0.5"/>
<text x="395" y="105" font-family="Arial,sans-serif" font-size="6" fill="#3F51B5" text-anchor="middle">Тритон</text>

<!-- Chick embryo -->
<ellipse cx="428" cy="88" rx="12" ry="8" fill="#E8EAF6" stroke="#3F51B5" stroke-width="1"/>
<circle cx="422" cy="86" r="2" fill="#3F51B5"/>
<text x="428" y="105" font-family="Arial,sans-serif" font-size="6" fill="#3F51B5" text-anchor="middle">Цыплёнок</text>

<!-- Human embryo -->
<ellipse cx="462" cy="88" rx="12" ry="8" fill="#E8EAF6" stroke="#3F51B5" stroke-width="1"/>
<circle cx="456" cy="86" r="2" fill="#3F51B5"/>
<text x="462" y="105" font-family="Arial,sans-serif" font-size="6" fill="#3F51B5" text-anchor="middle">Человек</text>

<!-- Gill slits annotation -->
<rect x="352" y="108" width="110" height="14" rx="2" fill="#C5CAE9" stroke="#3F51B5" stroke-width="0.5"/>
<text x="407" y="118" font-family="Arial,sans-serif" font-size="6" fill="#1A237E" text-anchor="middle">Жаберные щели на ранних стадиях!</text>
<text x="413" y="136" font-family="Arial,sans-serif" font-size="6" fill="#555" text-anchor="middle">Биогенетический закон Геккеля-Мюллера</text>

<!-- 4. Molecular -->
<rect x="10" y="148" width="235" height="62" rx="5" fill="white" fill-opacity="0.85" stroke="#1A237E" stroke-width="1"/>
<text x="127" y="162" font-family="Arial,sans-serif" font-size="8" font-weight="bold" fill="#1A237E" text-anchor="middle">4. МОЛЕКУЛЯРНО-ГЕНЕТИЧЕСКИЕ</text>

<!-- DNA similarity bar chart -->
<text x="20" y="175" font-family="Arial,sans-serif" font-size="6" fill="#555" text-anchor="start">Сходство ДНК с человеком:</text>
<rect x="20" y="180" width="150" height="8" rx="2" fill="#4CAF50"/>
<text x="175" y="188" font-family="Arial,sans-serif" font-size="6" fill="#333">Шимпанзе ~98%</text>
<rect x="20" y="190" width="120" height="8" rx="2" fill="#8BC34A"/>
<text x="145" y="198" font-family="Arial,sans-serif" font-size="6" fill="#333">Собака ~84%</text>
<rect x="20" y="200" width="75" height="8" rx="2" fill="#CDDC39"/>
<text x="100" y="208" font-family="Arial,sans-serif" font-size="6" fill="#333">Мышь ~75%</text>

<!-- 5. Biogeographical -->
<rect x="252" y="148" width="240" height="62" rx="5" fill="white" fill-opacity="0.85" stroke="#1A237E" stroke-width="1"/>
<text x="372" y="162" font-family="Arial,sans-serif" font-size="8" font-weight="bold" fill="#1A237E" text-anchor="middle">5. БИОГЕОГРАФИЧЕСКИЕ</text>

<!-- Simplified world map with regions -->
<ellipse cx="372" cy="190" rx="55" ry="25" fill="#C8E6C9" stroke="#2E7D32" stroke-width="0.8"/>
<!-- Continents simplified -->
<ellipse cx="350" cy="182" rx="15" ry="10" fill="#66BB6A" stroke="#2E7D32" stroke-width="0.5"/>
<ellipse cx="365" cy="185" rx="12" ry="15" fill="#81C784" stroke="#2E7D32" stroke-width="0.5"/>
<ellipse cx="388" cy="180" rx="10" ry="8" fill="#A5D6A7" stroke="#2E7D32" stroke-width="0.5"/>
<ellipse cx="395" cy="196" rx="8" ry="6" fill="#C8E6C9" stroke="#2E7D32" stroke-width="0.5"/>
<text x="372" y="206" font-family="Arial,sans-serif" font-size="6" fill="#333" text-anchor="middle">Сумчатые — только Австралия</text>

<!-- Homologous limb bones diagram (larger) -->
<line x1="10" y1="215" x2="490" y2="215" stroke="#1A237E" stroke-width="0.8" stroke-dasharray="4,3"/>
<rect x="10" y="220" width="480" height="125" rx="5" fill="white" fill-opacity="0.7" stroke="#1A237E" stroke-width="1"/>
<text x="250" y="235" font-family="Arial,sans-serif" font-size="9" font-weight="bold" fill="#1A237E" text-anchor="middle">Гомологичные органы — пятипалая конечность позвоночных</text>

<!-- Color-coded bone labels -->
<rect x="15" y="240" width="10" height="6" rx="1" fill="#E91E63"/>
<text x="28" y="246" font-family="Arial,sans-serif" font-size="6" fill="#333">Плечо (гумерус)</text>
<rect x="95" y="240" width="10" height="6" rx="1" fill="#9C27B0"/>
<text x="108" y="246" font-family="Arial,sans-serif" font-size="6" fill="#333">Предплечье (радиус+ульна)</text>
<rect x="205" y="240" width="10" height="6" rx="1" fill="#2196F3"/>
<text x="218" y="246" font-family="Arial,sans-serif" font-size="6" fill="#333">Запястье</text>
<rect x="270" y="240" width="10" height="6" rx="1" fill="#FF9800"/>
<text x="283" y="246" font-family="Arial,sans-serif" font-size="6" fill="#333">Пальцы (фаланги)</text>

<!-- Human arm skeleton -->
<text x="60" y="262" font-family="Arial,sans-serif" font-size="7" fill="#333" text-anchor="middle">Человек</text>
<rect x="50" y="268" width="8" height="30" rx="2" fill="#E91E63" opacity="0.8"/>
<rect x="50" y="298" width="5" height="22" rx="1" fill="#9C27B0" opacity="0.8"/>
<rect x="58" y="298" width="5" height="22" rx="1" fill="#9C27B0" opacity="0.8"/>
<rect x="49" y="320" width="4" height="4" rx="1" fill="#2196F3" opacity="0.8"/>
<rect x="54" y="320" width="4" height="4" rx="1" fill="#2196F3" opacity="0.8"/>
<rect x="59" y="320" width="4" height="4" rx="1" fill="#2196F3" opacity="0.8"/>
<rect x="49" y="326" width="3" height="8" rx="1" fill="#FF9800" opacity="0.8"/>
<rect x="54" y="326" width="3" height="8" rx="1" fill="#FF9800" opacity="0.8"/>
<rect x="59" y="326" width="3" height="8" rx="1" fill="#FF9800" opacity="0.8"/>

<!-- Bat wing skeleton -->
<text x="160" y="262" font-family="Arial,sans-serif" font-size="7" fill="#333" text-anchor="middle">Летучая мышь</text>
<rect x="150" y="268" width="8" height="28" rx="2" fill="#E91E63" opacity="0.8" transform="rotate(-20 154 282)"/>
<rect x="150" y="294" width="4" height="28" rx="1" fill="#9C27B0" opacity="0.8" transform="rotate(-15 152 308)"/>
<rect x="156" y="294" width="4" height="26" rx="1" fill="#9C27B0" opacity="0.8"/>
<rect x="163" y="296" width="3" height="18" rx="1" fill="#FF9800" opacity="0.8" transform="rotate(10 164 305)"/>
<line x1="150" y1="320" x2="168" y2="320" stroke="#CE93D8" stroke-width="0.5"/>

<!-- Cat leg -->
<text x="250" y="262" font-family="Arial,sans-serif" font-size="7" fill="#333" text-anchor="middle">Кошка</text>
<rect x="245" y="268" width="8" height="25" rx="2" fill="#E91E63" opacity="0.8" transform="rotate(10 249 280)"/>
<rect x="243" y="293" width="5" height="18" rx="1" fill="#9C27B0" opacity="0.8" transform="rotate(5 245 302)"/>
<rect x="251" y="293" width="5" height="18" rx="1" fill="#9C27B0" opacity="0.8" transform="rotate(-5 253 302)"/>
<rect x="247" y="311" width="4" height="4" rx="1" fill="#2196F3" opacity="0.8"/>
<rect x="247" y="317" width="5" height="10" rx="1" fill="#FF9800" opacity="0.8"/>

<!-- Whale flipper -->
<text x="350" y="262" font-family="Arial,sans-serif" font-size="7" fill="#333" text-anchor="middle">Кит</text>
<rect x="340" y="268" width="8" height="22" rx="2" fill="#E91E63" opacity="0.8"/>
<rect x="338" y="290" width="5" height="18" rx="1" fill="#9C27B0" opacity="0.8"/>
<rect x="346" y="290" width="5" height="18" rx="1" fill="#9C27B0" opacity="0.8"/>
<rect x="354" y="290" width="5" height="14" rx="1" fill="#9C27B0" opacity="0.8"/>
<rect x="338" y="308" width="3" height="8" rx="1" fill="#FF9800" opacity="0.8"/>
<rect x="344" y="308" width="3" height="10" rx="1" fill="#FF9800" opacity="0.8"/>
<rect x="350" y="308" width="3" height="10" rx="1" fill="#FF9800" opacity="0.8"/>
<rect x="356" y="308" width="3" height="8" rx="1" fill="#FF9800" opacity="0.8"/>
<!-- Flipper outline -->
<ellipse cx="348" cy="298" rx="18" ry="28" fill="none" stroke="#1565C0" stroke-width="0.8" stroke-dasharray="2,2"/>

<!-- Horse leg -->
<text x="445" y="262" font-family="Arial,sans-serif" font-size="7" fill="#333" text-anchor="middle">Лошадь</text>
<rect x="441" y="268" width="8" height="28" rx="2" fill="#E91E63" opacity="0.8" transform="rotate(5 445 282)"/>
<rect x="441" y="296" width="5" height="20" rx="1" fill="#9C27B0" opacity="0.8" transform="rotate(3 443 306)"/>
<rect x="441" y="316" width="5" height="16" rx="1" fill="#FF9800" opacity="0.8" transform="rotate(2 443 324)"/>

<!-- Conclusion -->
<rect x="380" y="268" width="100" height="60" rx="4" fill="#E8EAF6" stroke="#1A237E" stroke-width="1"/>
<text x="430" y="282" font-family="Arial,sans-serif" font-size="7" font-weight="bold" fill="#1A237E" text-anchor="middle">Вывод:</text>
<text x="430" y="294" font-family="Arial,sans-serif" font-size="6.5" fill="#333" text-anchor="middle">Разные функции,</text>
<text x="430" y="304" font-family="Arial,sans-serif" font-size="6.5" fill="#333" text-anchor="middle">один план строения</text>
<text x="430" y="316" font-family="Arial,sans-serif" font-size="6.5" fill="#1A237E" text-anchor="middle">→ общее</text>
<text x="430" y="326" font-family="Arial,sans-serif" font-size="6.5" fill="#1A237E" text-anchor="middle">происхождение!</text>
</svg>