<svg xmlns="http://www.w3.org/2000/svg" viewBox="0 0 500 350"><defs><linearGradient id="bg" x1="0" y1="0" x2="1" y2="1"><stop offset="0%" stop-color="#FFF8E1"/><stop offset="100%" stop-color="#FFFDE7"/></linearGradient></defs><rect width="500" height="350" fill="url(#bg)" rx="10"/><rect x="3" y="3" width="494" height="344" rx="8" fill="none" stroke="#C62828" stroke-width="3"/><rect x="8" y="8" width="484" height="334" rx="6" fill="none" stroke="#C62828" stroke-width="1" opacity="0.3"/><polygon points="10,10 30,10 10,30" fill="#C62828" opacity="0.08"/><polygon points="490,10 470,10 490,30" fill="#1565C0" opacity="0.08"/><polygon points="10,340 30,340 10,320" fill="#F9A825" opacity="0.08"/><polygon points="490,340 470,340 490,320" fill="#2E7D32" opacity="0.08"/><circle cx="70" cy="15" r="4" fill="#C62828" opacity="0.1"/><circle cx="82" cy="15" r="4" fill="#1565C0" opacity="0.1"/><circle cx="94" cy="15" r="4" fill="#F9A825" opacity="0.1"/><circle cx="406" cy="15" r="4" fill="#C62828" opacity="0.1"/><circle cx="418" cy="15" r="4" fill="#1565C0" opacity="0.1"/><circle cx="430" cy="15" r="4" fill="#F9A825" opacity="0.1"/><text x="250" y="50" font-family="Arial,sans-serif" font-size="24" font-weight="bold" fill="#C62828" text-anchor="middle">Автономный робот</text><text x="250" y="68" font-family="Arial,sans-serif" font-size="12" fill="#777" text-anchor="middle">Робототехника - Урок 12</text><line x1="30" y1="78" x2="470" y2="78" stroke="#C62828" stroke-width="2" opacity="0.25"/><rect x="30" y="75" width="60" height="6" fill="#C62828" opacity="0.15" rx="1"/><rect x="410" y="75" width="60" height="6" fill="#1565C0" opacity="0.12" rx="1"/><rect x="35" y="88" width="250" height="210" rx="6" fill="white" stroke="#C62828" stroke-width="1.5" opacity="0.9"/><text x="160" y="106" font-family="Arial,sans-serif" font-size="10" fill="#C62828" text-anchor="middle" font-weight="bold">Лабиринт - навигация</text><rect x="45" y="115" width="230" height="170" rx="3" fill="#E8EAF6" stroke="#333" stroke-width="2"/><rect x="45" y="115" width="230" height="170" fill="none" stroke="#1565C0" stroke-width="0.5" stroke-dasharray="8,4" opacity="0.3"/><rect x="45" y="115" width="80" height="10" fill="#2E7D32" opacity="0.3"/><text x="85" y="123" font-family="Arial,sans-serif" font-size="7" fill="#2E7D32" text-anchor="middle" font-weight="bold">СТАРТ</text><rect x="195" y="275" width="80" height="10" fill="#C62828" opacity="0.3"/><text x="235" y="283" font-family="Arial,sans-serif" font-size="7" fill="#C62828" text-anchor="middle" font-weight="bold">ФИНИШ</text><line x1="125" y1="115" x2="125" y2="195" stroke="#333" stroke-width="4"/><line x1="125" y1="195" x2="195" y2="195" stroke="#333" stroke-width="4"/><line x1="195" y1="125" x2="195" y2="195" stroke="#333" stroke-width="4"/><line x1="195" y1="125" x2="275" y2="125" stroke="#333" stroke-width="4"/><line x1="45" y1="170" x2="85" y2="170" stroke="#333" stroke-width="4"/><line x1="85" y1="170" x2="85" y2="240" stroke="#333" stroke-width="4"/><line x1="85" y1="240" x2="195" y2="240" stroke="#333" stroke-width="4"/><line x1="195" y1="240" x2="195" y2="275" stroke="#333" stroke-width="4"/><line x1="195" y1="240" x2="195" y2="215" stroke="#333" stroke-width="4"/><line x1="155" y1="215" x2="195" y2="215" stroke="#333" stroke-width="4"/><line x1="155" y1="215" x2="155" y2="260" stroke="#333" stroke-width="4"/><line x1="155" y1="260" x2="275" y2="260" stroke="#333" stroke-width="4"/><line x1="275" y1="260" x2="275" y2="240" stroke="#333" stroke-width="4"/><line x1="230" y1="240" x2="275" y2="240" stroke="#333" stroke-width="4"/><line x1="230" y1="240" x2="230" y2="200" stroke="#333" stroke-width="4"/><line x1="230" y1="200" x2="275" y2="200" stroke="#333" stroke-width="4"/><rect x="60" y="140" width="25" height="18" rx="3" fill="#1565C0" opacity="0.7" stroke="#0D47A1" stroke-width="1"/><circle cx="64" cy="148" r="3" fill="#C62828" opacity="0.5"/><circle cx="64" cy="143" r="2" fill="#F9A825" opacity="0.5"/><circle cx="81" cy="148" r="3" fill="#C62828" opacity="0.5"/><circle cx="81" cy="143" r="2" fill="#F9A825" opacity="0.5"/><line x1="60" y1="155" x2="48" y2="162" stroke="#F9A825" stroke-width="1" stroke-dasharray="2,1"/><line x1="85" y1="155" x2="97" y2="162" stroke="#F9A825" stroke-width="1" stroke-dasharray="2,1"/><line x1="73" y1="140" x2="73" y2="132" stroke="#F9A825" stroke-width="1" stroke-dasharray="2,1"/><text x="72" y="175" font-family="Arial,sans-serif" font-size="6" fill="#1565C0" text-anchor="middle">РОБОТ</text><path d="M 85 148 L 110 148 L 110 155 L 60 155 L 60 200" fill="none" stroke="#2E7D32" stroke-width="1.5" stroke-dasharray="4,3" opacity="0.6"/><polygon points="56,198 60,205 64,198" fill="#2E7D32" opacity="0.6"/><rect x="300" y="88" width="165" height="130" rx="6" fill="white" stroke="#1565C0" stroke-width="1.5" opacity="0.9"/><text x="382" y="106" font-family="Arial,sans-serif" font-size="10" fill="#1565C0" text-anchor="middle" font-weight="bold">Алгоритм обхода</text><rect x="315" y="118" width="135" height="18" rx="9" fill="#F9A825" opacity="0.2" stroke="#F9A825" stroke-width="1"/><text x="382" y="131" font-family="Arial,sans-serif" font-size="8" fill="#E65100" text-anchor="middle" font-weight="bold">ВПЕРЁД</text><line x1="382" y1="136" x2="382" y2="142" stroke="#333" stroke-width="1"/><polygon points="379,142 385,142 382,147" fill="#333"/><rect x="315" y="147" width="135" height="18" rx="3" fill="#E8EAF6" stroke="#C62828" stroke-width="1"/><text x="382" y="160" font-family="Arial,sans-serif" font-size="8" fill="#C62828" text-anchor="middle">Датчик = препятствие?</text><line x1="382" y1="165" x2="382" y2="171" stroke="#333" stroke-width="1"/><polygon points="379,171 385,171 382,176" fill="#333"/><rect x="315" y="176" width="60" height="18" rx="9" fill="#C62828" opacity="0.12" stroke="#C62828" stroke-width="0.8"/><text x="345" y="189" font-family="Arial,sans-serif" font-size="7" fill="#C62828" text-anchor="middle">ДА: СТОП</text><rect x="380" y="176" width="70" height="18" rx="9" fill="#2E7D32" opacity="0.12" stroke="#2E7D32" stroke-width="0.8"/><text x="415" y="189" font-family="Arial,sans-serif" font-size="7" fill="#2E7D32" text-anchor="middle">НЕТ: далее</text><line x1="382" y1="194" x2="382" y2="200" stroke="#333" stroke-width="1"/><polygon points="379,200 385,200 382,205" fill="#333"/><rect x="315" y="205" width="135" height="18" rx="9" fill="#1565C0" opacity="0.15" stroke="#1565C0" stroke-width="1"/><text x="382" y="218" font-family="Arial,sans-serif" font-size="8" fill="#1565C0" text-anchor="middle">ПОВОРОТ + ПОВТОР</text><rect x="300" y="225" width="165" height="73" rx="6" fill="white" stroke="#2E7D32" stroke-width="1.5" opacity="0.9"/><text x="382" y="243" font-family="Arial,sans-serif" font-size="10" fill="#2E7D32" text-anchor="middle" font-weight="bold">Цикл работы</text><rect x="312" y="252" width="140" height="38" rx="3" fill="#FFF8E1" stroke="#F9A825" stroke-width="0.8"/><text x="382" y="266" font-family="Arial,sans-serif" font-size="8" fill="#555" text-anchor="middle">1. Ехать вперёд</text><text x="382" y="278" font-family="Arial,sans-serif" font-size="8" fill="#555" text-anchor="middle">2. Стена? Повернуть</text><text x="382" y="290" font-family="Arial,sans-serif" font-size="8" fill="#555" text-anchor="middle">3. Финиш? Стоп</text><rect x="15" y="308" width="470" height="30" rx="4" fill="#C62828" opacity="0.85"/><text x="250" y="329" font-family="Arial,sans-serif" font-size="15" text-anchor="middle" fill="white" font-weight="bold">Автономный робот</text></svg>