<svg xmlns="http://www.w3.org/2000/svg" viewBox="0 0 500 350"><defs><linearGradient id="bg" x1="0" y1="0" x2="1" y2="1"><stop offset="0%" stop-color="#FFF8E1"/><stop offset="100%" stop-color="#FFFDE7"/></linearGradient></defs><rect width="500" height="350" fill="url(#bg)" rx="10"/><rect x="3" y="3" width="494" height="344" rx="8" fill="none" stroke="#C62828" stroke-width="3"/><rect x="8" y="8" width="484" height="334" rx="6" fill="none" stroke="#C62828" stroke-width="1" opacity="0.3"/><polygon points="10,10 30,10 10,30" fill="#C62828" opacity="0.08"/><polygon points="490,10 470,10 490,30" fill="#1565C0" opacity="0.08"/><polygon points="10,340 30,340 10,320" fill="#F9A825" opacity="0.08"/><polygon points="490,340 470,340 490,320" fill="#2E7D32" opacity="0.08"/><circle cx="70" cy="15" r="4" fill="#C62828" opacity="0.1"/><circle cx="82" cy="15" r="4" fill="#1565C0" opacity="0.1"/><circle cx="94" cy="15" r="4" fill="#F9A825" opacity="0.1"/><circle cx="406" cy="15" r="4" fill="#C62828" opacity="0.1"/><circle cx="418" cy="15" r="4" fill="#1565C0" opacity="0.1"/><circle cx="430" cy="15" r="4" fill="#F9A825" opacity="0.1"/><text x="250" y="50" font-family="Arial,sans-serif" font-size="24" font-weight="bold" fill="#C62828" text-anchor="middle">Мобильные роботы</text><text x="250" y="68" font-family="Arial,sans-serif" font-size="12" fill="#777" text-anchor="middle">Робототехника - Урок 3</text><line x1="30" y1="78" x2="470" y2="78" stroke="#C62828" stroke-width="2" opacity="0.25"/><rect x="30" y="75" width="60" height="6" fill="#C62828" opacity="0.15" rx="1"/><rect x="410" y="75" width="60" height="6" fill="#1565C0" opacity="0.12" rx="1"/><rect x="35" y="88" width="210" height="210" rx="6" fill="white" stroke="#C62828" stroke-width="1.5" opacity="0.9"/><text x="140" y="106" font-family="Arial,sans-serif" font-size="10" fill="#C62828" text-anchor="middle" font-weight="bold">Колёсный робот</text><rect x="70" y="140" width="140" height="80" rx="8" fill="#E8EAF6" stroke="#333" stroke-width="2"/><rect x="85" y="155" width="30" height="22" rx="3" fill="#C62828" opacity="0.2" stroke="#C62828" stroke-width="1"/><rect x="125" y="155" width="30" height="22" rx="3" fill="#C62828" opacity="0.2" stroke="#C62828" stroke-width="1"/><circle cx="100" cy="166" r="4" fill="#C62828" opacity="0.5"/><circle cx="140" cy="166" r="4" fill="#1565C0" opacity="0.5"/><circle cx="80" cy="230" r="18" fill="#555" stroke="#333" stroke-width="2"/><circle cx="80" cy="230" r="8" fill="#888"/><circle cx="80" cy="230" r="3" fill="#555"/><circle cx="200" cy="230" r="18" fill="#555" stroke="#333" stroke-width="2"/><circle cx="200" cy="230" r="8" fill="#888"/><circle cx="200" cy="230" r="3" fill="#555"/><line x1="80" y1="212" x2="80" y2="195" stroke="#333" stroke-width="2"/><line x1="200" y1="212" x2="200" y2="195" stroke="#333" stroke-width="2"/><circle cx="140" cy="245" r="8" fill="#333" stroke="#555" stroke-width="1"/><circle cx="140" cy="245" r="3" fill="#888"/><line x1="50" y1="260" x2="220" y2="260" stroke="#C62828" stroke-width="1" stroke-dasharray="3,3"/><text x="140" y="275" font-family="Arial,sans-serif" font-size="8" fill="#555" text-anchor="middle">Платформа с двумя</text><text x="140" y="286" font-family="Arial,sans-serif" font-size="8" fill="#555" text-anchor="middle">ведущими колёсами</text><rect x="255" y="88" width="210" height="100" rx="6" fill="white" stroke="#1565C0" stroke-width="1.5" opacity="0.9"/><text x="360" y="106" font-family="Arial,sans-serif" font-size="10" fill="#1565C0" text-anchor="middle" font-weight="bold">Типы мобильных роботов</text><rect x="268" y="115" width="90" height="60" rx="4" fill="#C62828" opacity="0.06" stroke="#C62828" stroke-width="0.8"/><circle cx="300" cy="140" r="10" fill="#C62828" opacity="0.2" stroke="#C62828" stroke-width="1"/><circle cx="300" cy="140" r="4" fill="#C62828" opacity="0.4"/><circle cx="280" cy="165" r="6" fill="#C62828" opacity="0.3"/><circle cx="320" cy="165" r="6" fill="#C62828" opacity="0.3"/><text x="313" y="150" font-family="Arial,sans-serif" font-size="8" fill="#C62828">Колёсные</text><rect x="362" y="115" width="90" height="60" rx="4" fill="#1565C0" opacity="0.06" stroke="#1565C0" stroke-width="0.8"/><rect x="390" y="130" width="30" height="20" rx="3" fill="#1565C0" opacity="0.15" stroke="#1565C0" stroke-width="1"/><ellipse cx="388" cy="155" rx="8" ry="4" fill="#1565C0" opacity="0.3"/><ellipse cx="422" cy="155" rx="8" ry="4" fill="#1565C0" opacity="0.3"/><text x="407" y="150" font-family="Arial,sans-serif" font-size="8" fill="#1565C0">Гусеничные</text><rect x="255" y="198" width="210" height="100" rx="6" fill="white" stroke="#2E7D32" stroke-width="1.5" opacity="0.9"/><text x="360" y="216" font-family="Arial,sans-serif" font-size="10" fill="#2E7D32" text-anchor="middle" font-weight="bold">Компоненты</text><rect x="268" y="225" width="60" height="28" rx="4" fill="#F9A825" opacity="0.15"/><rect x="278" y="233" width="40" height="12" rx="2" fill="none" stroke="#F9A825" stroke-width="1"/><text x="298" y="262" font-family="Arial,sans-serif" font-size="8" fill="#555" text-anchor="middle">Контроллер</text><rect x="338" y="225" width="60" height="28" rx="4" fill="#C62828" opacity="0.1"/><circle cx="355" cy="239" r="7" fill="none" stroke="#C62828" stroke-width="1"/><text x="355" y="242" font-family="Arial,sans-serif" font-size="6" fill="#C62828" text-anchor="middle">M</text><text x="368" y="262" font-family="Arial,sans-serif" font-size="8" fill="#555" text-anchor="middle">Мотор</text><rect x="408" y="225" width="50" height="28" rx="4" fill="#1565C0" opacity="0.1"/><rect x="418" y="231" width="30" height="8" rx="1" fill="none" stroke="#1565C0" stroke-width="0.8"/><rect x="420" y="243" width="26" height="6" rx="1" fill="none" stroke="#1565C0" stroke-width="0.8"/><text x="433" y="262" font-family="Arial,sans-serif" font-size="8" fill="#555" text-anchor="middle">Датчик</text><line x1="328" y1="239" x2="338" y2="239" stroke="#555" stroke-width="1" stroke-dasharray="2,2"/><line x1="398" y1="239" x2="408" y2="239" stroke="#555" stroke-width="1" stroke-dasharray="2,2"/><rect x="268" y="270" width="185" height="18" rx="3" fill="#FFF8E1" stroke="#F9A825" stroke-width="0.8"/><text x="360" y="283" font-family="Arial,sans-serif" font-size="8" fill="#555" text-anchor="middle">Аккумулятор питает все компоненты</text><rect x="15" y="308" width="470" height="30" rx="4" fill="#C62828" opacity="0.85"/><text x="250" y="329" font-family="Arial,sans-serif" font-size="15" text-anchor="middle" fill="white" font-weight="bold">Мобильные роботы</text></svg>