<svg xmlns="http://www.w3.org/2000/svg" viewBox="0 0 500 350">
  <style>@keyframes w{0%{opacity:0}100%{opacity:1}}.c{animation:w 2s ease-in forwards}</style>
  <rect width="500" height="350" fill="#E8EAF6"/>
  <text x="250" y="24" text-anchor="middle" font-size="17" font-family="Arial" font-weight="bold" fill="#2C3E50">Numbers 1-20</text>
  <rect x="45" y="42" width="410" height="170" rx="4" fill="#5D4037"/>
  <rect x="52" y="48" width="396" height="158" rx="2" fill="#2E7D32"/>
  <rect x="45" y="212" width="410" height="8" rx="2" fill="#5D4037"/>
  <rect x="58" y="210" width="12" height="4" rx="1" fill="#fff"/>
  <rect x="75" y="210" width="9" height="4" rx="1" fill="#FFD93D"/>
  <g font-family="monospace" fill="#FAFAFA" font-size="14" class="c">
    <text x="66" y="73">1</text><text x="102" y="73">2</text><text x="138" y="73">3</text>
    <text x="174" y="73">4</text><text x="210" y="73">5</text><text x="246" y="73">6</text>
    <text x="282" y="73">7</text><text x="318" y="73">8</text><text x="354" y="73">9</text>
    <text x="386" y="73">10</text>
  </g>
  <g font-family="monospace" fill="#FAFAFA" font-size="14" class="c" style="animation-delay:.5s">
    <text x="62" y="100">11</text><text x="98" y="100">12</text><text x="134" y="100">13</text>
    <text x="170" y="100">14</text><text x="206" y="100">15</text><text x="242" y="100">16</text>
    <text x="278" y="100">17</text><text x="314" y="100">18</text><text x="350" y="100">19</text>
    <text x="382" y="100">20</text>
  </g>
  <line x1="58" y1="110" x2="442" y2="110" stroke="#81C784" stroke-width="1" stroke-dasharray="4,3"/>
  <text x="250" y="180" text-anchor="middle" font-size="13" font-family="Arial" fill="#A5D6A7" font-style="italic">Count to 20!</text>
  <rect x="0" y="276" width="500" height="74" fill="#D7CCC8"/>
  <rect x="0" y="272" width="500" height="6" fill="#8D6E63"/>
  <rect x="55" y="235" width="24" height="30" rx="3" fill="#E74C3C" stroke="#C62828" stroke-width="1"/>
  <text x="67" y="256" text-anchor="middle" font-size="13" font-family="Arial" fill="#fff" font-weight="bold">1</text>
  <rect x="86" y="238" width="24" height="27" rx="3" fill="#2196F3" stroke="#1565C0" stroke-width="1"/>
  <text x="98" y="257" text-anchor="middle" font-size="13" font-family="Arial" fill="#fff" font-weight="bold">2</text>
  <rect x="117" y="236" width="24" height="29" rx="3" fill="#4CAF50" stroke="#2E7D32" stroke-width="1"/>
  <text x="129" y="257" text-anchor="middle" font-size="13" font-family="Arial" fill="#fff" font-weight="bold">3</text>
  <rect x="180" y="235" width="26" height="30" rx="3" fill="#FF9800" stroke="#E65100" stroke-width="1"/>
  <text x="193" y="256" text-anchor="middle" font-size="13" font-family="Arial" fill="#fff" font-weight="bold">5</text>
  <rect x="256" y="239" width="26" height="26" rx="3" fill="#9C27B0" stroke="#6A1B9A" stroke-width="1"/>
  <text x="269" y="258" text-anchor="middle" font-size="13" font-family="Arial" fill="#fff" font-weight="bold">8</text>
  <rect x="318" y="237" width="30" height="28" rx="3" fill="#E91E63" stroke="#AD1457" stroke-width="1"/>
  <text x="333" y="257" text-anchor="middle" font-size="12" font-family="Arial" fill="#fff" font-weight="bold">10</text>
  <rect x="375" y="242" width="30" height="23" rx="3" fill="#00BCD4" stroke="#00838F" stroke-width="1"/>
  <text x="390" y="259" text-anchor="middle" font-size="11" font-family="Arial" fill="#fff" font-weight="bold">15</text>
  <rect x="425" y="239" width="30" height="26" rx="3" fill="#FFD93D" stroke="#F57F17" stroke-width="1"/>
  <text x="440" y="258" text-anchor="middle" font-size="11" font-family="Arial" fill="#5D4037" font-weight="bold">20</text>
  <rect x="415" y="210" width="16" height="5" rx="1" fill="#90A4AE"/>
</svg>