<svg xmlns="http://www.w3.org/2000/svg" viewBox="0 0 500 350">
  <defs><style>@keyframes move{0%,100%{transform:translateX(0)}50%{transform:translateX(3px)}}.animal{animation:move 2s ease-in-out infinite}</style></defs>
  <rect width="500" height="350" fill="#FFF3E0"/>
  <text x="250" y="32" text-anchor="middle" font-family="Arial,sans-serif" font-size="20" font-weight="bold" fill="#BF360C">Животные и их группы</text>
  <!-- Animal groups -->
  <rect x="30" y="50" width="440" height="160" fill="white" rx="10" stroke="#FFAB91" stroke-width="2"/>
  <text x="250" y="72" text-anchor="middle" font-family="Arial,sans-serif" font-size="14" font-weight="bold" fill="#BF360C">Группы животных</text>
  <g class="animal" font-family="Arial,sans-serif" font-size="11">
    <rect x="50" y="82" width="120" height="35" fill="#FFCCBC" rx="5"/><text x="110" y="97" text-anchor="middle" fill="#BF360C" font-weight="bold">Млекопитающие</text><text x="110" y="112" text-anchor="middle" fill="#555">кормят молоком</text>
    <rect x="185" y="82" width="120" height="35" fill="#FFE0B2" rx="5"/><text x="245" y="97" text-anchor="middle" fill="#E65100" font-weight="bold">Птицы</text><text x="245" y="112" text-anchor="middle" fill="#555">имеют перья</text>
    <rect x="320" y="82" width="120" height="35" fill="#FFF9C4" rx="5"/><text x="380" y="97" text-anchor="middle" fill="#F57F17" font-weight="bold">Рыбы</text><text x="380" y="112" text-anchor="middle" fill="#555">живут в воде</text>
    <rect x="50" y="128" width="120" height="35" fill="#C8E6C9" rx="5"/><text x="110" y="143" text-anchor="middle" fill="#2E7D32" font-weight="bold">Земноводные</text><text x="110" y="158" text-anchor="middle" fill="#555">лягушки, тритоны</text>
    <rect x="185" y="128" width="120" height="35" fill="#BBDEFB" rx="5"/><text x="245" y="143" text-anchor="middle" fill="#1565C0" font-weight="bold">Пресмыкающиеся</text><text x="245" y="158" text-anchor="middle" fill="#555">ящерицы, змеи</text>
    <rect x="320" y="128" width="120" height="35" fill="#E1BEE7" rx="5"/><text x="380" y="143" text-anchor="middle" fill="#6A1B9A" font-weight="bold">Насекомые</text><text x="380" y="158" text-anchor="middle" fill="#555">6 ног, жуки, бабочки</text>
  </g>
  <!-- Features -->
  <rect x="30" y="225" width="440" height="110" fill="#FFF3E0" rx="10"/>
  <text x="250" y="248" text-anchor="middle" font-family="Arial,sans-serif" font-size="13" font-weight="bold" fill="#BF360C">Чем различаются группы</text>
  <g font-family="Arial,sans-serif" font-size="12" fill="#333">
    <text x="50" y="270">Покров тела: шерсть, перья, чешуя, кожа</text>
    <text x="50" y="290">Количество ног: 0, 4, 6, 8</text>
    <text x="50" y="310">Где живут: вода, земля, воздух</text>
    <text x="50" y="330">Чем питаются: растения, другие животные</text>
  </g>
</svg>