<svg xmlns="http://www.w3.org/2000/svg" viewBox="0 0 500 350">
<defs>
<linearGradient id="bg" x1="0" y1="0" x2="1" y2="1"><stop offset="0%" stop-color="#E8F5E9"/><stop offset="100%" stop-color="#C8E6C9"/></linearGradient>
<linearGradient id="carrotG" x1="0" y1="0" x2="0" y2="1"><stop offset="0%" stop-color="#FF8A65"/><stop offset="100%" stop-color="#E64A19"/></linearGradient>
<linearGradient id="dahliaG" x1="0" y1="0" x2="0" y2="1"><stop offset="0%" stop-color="#A1887F"/><stop offset="100%" stop-color="#795548"/></linearGradient>
<linearGradient id="airG" x1="0" y1="0" x2="0" y2="1"><stop offset="0%" stop-color="#81C784"/><stop offset="100%" stop-color="#4CAF50"/></linearGradient>
<linearGradient id="stemG" x1="0" y1="0" x2="0" y2="1"><stop offset="0%" stop-color="#A5D6A7"/><stop offset="100%" stop-color="#66BB6A"/></linearGradient>
<linearGradient id="noduleG" x1="0" y1="0" x2="1" y2="1"><stop offset="0%" stop-color="#CE93D8"/><stop offset="100%" stop-color="#8E24AA"/></linearGradient>
<linearGradient id="mycoG" x1="0" y1="0" x2="1" y2="1"><stop offset="0%" stop-color="#FFCC80"/><stop offset="100%" stop-color="#FF9800"/></linearGradient>
</defs>
<rect width="500" height="350" fill="url(#bg)" rx="10"/>
<rect x="3" y="3" width="494" height="344" rx="8" fill="none" stroke="#2E7D32" stroke-width="2.5"/>
<text x="250" y="28" font-family="Arial,sans-serif" font-size="14" font-weight="bold" fill="#1B5E20" text-anchor="middle">Значение корня. Видоизменения корней</text>
<text x="250" y="43" font-family="Arial,sans-serif" font-size="9" fill="#666" text-anchor="middle">Биология 6 класс — Урок 33</text>
<line x1="30" y1="50" x2="470" y2="50" stroke="#2E7D32" stroke-width="1" opacity="0.3"/>

<!-- ROW 1: Root modifications (top) -->
<text x="250" y="66" font-family="Arial,sans-serif" font-size="9" font-weight="bold" fill="#1B5E20" text-anchor="middle">Видоизменения корней</text>

<!-- 1: Корнеплод (морковь) -->
<rect x="15" y="72" width="90" height="95" rx="3" fill="#FFF3E0" opacity="0.3" stroke="#E65100" stroke-width="0.5"/>
<text x="60" y="83" font-family="Arial,sans-serif" font-size="7" font-weight="bold" fill="#E65100" text-anchor="middle">Корнеплод</text>
<!-- Carrot shape -->
<path d="M52,90 Q48,92 46,100 L48,140 Q50,155 60,158 Q70,155 72,140 L74,100 Q72,92 68,90 Z" fill="url(#carrotG)" stroke="#BF360C" stroke-width="1"/>
<!-- Carrot top leaves -->
<path d="M60,90 Q55,78 50,72" fill="none" stroke="#4CAF50" stroke-width="1.5"/>
<path d="M60,90 Q60,76 62,70" fill="none" stroke="#4CAF50" stroke-width="1.5"/>
<path d="M60,90 Q65,78 70,72" fill="none" stroke="#4CAF50" stroke-width="1.5"/>
<!-- Internal rings -->
<ellipse cx="60" cy="110" rx="8" ry="6" fill="none" stroke="#FF5722" stroke-width="0.5" opacity="0.5"/>
<ellipse cx="60" cy="110" rx="4" ry="3" fill="#FFAB91" opacity="0.5"/>
<text x="60" y="128" font-family="Arial,sans-serif" font-size="5" fill="#BF360C" text-anchor="middle">кора</text>
<text x="60" y="145" font-family="Arial,sans-serif" font-size="5" fill="#BF360C" text-anchor="middle">сердцевина</text>
<text x="60" y="165" font-family="Arial,sans-serif" font-size="5.5" fill="#666" text-anchor="middle">морковь</text>

<!-- 2: Корневые шишки (георгин) -->
<rect x="115" y="72" width="90" height="95" rx="3" fill="#EFEBE9" opacity="0.3" stroke="#795548" stroke-width="0.5"/>
<text x="160" y="83" font-family="Arial,sans-serif" font-size="7" font-weight="bold" fill="#5D4037" text-anchor="middle">Корневые шишки</text>
<!-- Stem -->
<rect x="157" y="88" width="6" height="15" rx="1" fill="url(#stemG)" stroke="#388E3C" stroke-width="0.5"/>
<!-- Root tubers -->
<ellipse cx="145" cy="130" rx="10" ry="16" fill="url(#dahliaG)" stroke="#5D4037" stroke-width="1" transform="rotate(-10,145,130)"/>
<ellipse cx="160" cy="128" rx="9" ry="14" fill="url(#dahliaG)" stroke="#5D4037" stroke-width="1" transform="rotate(5,160,128)"/>
<ellipse cx="175" cy="132" rx="10" ry="15" fill="url(#dahliaG)" stroke="#5D4037" stroke-width="1" transform="rotate(12,175,132)"/>
<!-- Thin roots connecting -->
<line x1="150" y1="118" x2="155" y2="103" stroke="#8D6E63" stroke-width="0.8"/>
<line x1="160" y1="114" x2="160" y2="103" stroke="#8D6E63" stroke-width="0.8"/>
<line x1="170" y1="117" x2="165" y2="103" stroke="#8D6E63" stroke-width="0.8"/>
<!-- Spots on tubers -->
<circle cx="143" cy="125" r="1.5" fill="#6D4C41" opacity="0.4"/>
<circle cx="147" cy="135" r="1" fill="#6D4C41" opacity="0.4"/>
<circle cx="162" cy="125" r="1.2" fill="#6D4C41" opacity="0.4"/>
<circle cx="173" cy="128" r="1.5" fill="#6D4C41" opacity="0.4"/>
<text x="160" y="155" font-family="Arial,sans-serif" font-size="5" fill="#5D4037" text-anchor="middle">запасающие</text>
<text x="160" y="162" font-family="Arial,sans-serif" font-size="5" fill="#5D4037" text-anchor="middle">вещества</text>
<text x="160" y="165" font-family="Arial,sans-serif" font-size="5.5" fill="#666" text-anchor="middle">георгин</text>

<!-- 3: Воздушные корни -->
<rect x="215" y="72" width="85" height="95" rx="3" fill="#E8F5E9" opacity="0.3" stroke="#2E7D32" stroke-width="0.5"/>
<text x="257" y="83" font-family="Arial,sans-serif" font-size="7" font-weight="bold" fill="#1B5E20" text-anchor="middle">Воздушные</text>
<text x="257" y="91" font-family="Arial,sans-serif" font-size="7" font-weight="bold" fill="#1B5E20" text-anchor="middle">корни</text>
<!-- Tree trunk -->
<rect x="253" y="95" width="8" height="55" rx="2" fill="#8D6E63" stroke="#5D4037" stroke-width="0.8"/>
<!-- Aerial roots hanging down -->
<path d="M253,110 Q245,125 242,150" fill="none" stroke="url(#airG)" stroke-width="2" stroke-linecap="round"/>
<path d="M253,118 Q240,135 235,155" fill="none" stroke="url(#airG)" stroke-width="1.8" stroke-linecap="round"/>
<path d="M261,108 Q268,128 272,148" fill="none" stroke="url(#airG)" stroke-width="2" stroke-linecap="round"/>
<path d="M261,115 Q272,135 278,152" fill="none" stroke="url(#airG)" stroke-width="1.5" stroke-linecap="round"/>
<!-- Velamen coating indicated -->
<path d="M243,138 Q245,140 248,138" fill="none" stroke="#388E3C" stroke-width="0.8"/>
<text x="243" y="155" font-family="Arial,sans-serif" font-size="5" fill="#2E7D32">веламен</text>
<text x="257" y="165" font-family="Arial,sans-serif" font-size="5.5" fill="#666" text-anchor="middle">орхидея</text>

<!-- 4: Дыхательные корни (пневматофоры) -->
<rect x="310" y="72" width="85" height="95" rx="3" fill="#E3F2FD" opacity="0.3" stroke="#1565C0" stroke-width="0.5"/>
<text x="352" y="83" font-family="Arial,sans-serif" font-size="7" font-weight="bold" fill="#1565C0" text-anchor="middle">Дыхательные</text>
<text x="352" y="91" font-family="Arial,sans-serif" font-size="7" font-weight="bold" fill="#1565C0" text-anchor="middle">корни</text>
<!-- Water line -->
<path d="M315,140 Q335,137 355,140 Q375,143 390,138" fill="none" stroke="#42A5F5" stroke-width="1.5"/>
<rect x="315" y="140" width="75" height="25" fill="#42A5F5" opacity="0.15" rx="2"/>
<!-- Pneumatophores sticking up -->
<rect x="328" y="115" width="6" height="30" rx="2" fill="#8D6E63" stroke="#5D4037" stroke-width="0.8"/>
<rect x="342" y="110" width="7" height="35" rx="2" fill="#8D6E63" stroke="#5D4037" stroke-width="0.8"/>
<rect x="358" y="118" width="6" height="27" rx="2" fill="#8D6E63" stroke="#5D4037" stroke-width="0.8"/>
<rect x="372" y="112" width="7" height="33" rx="2" fill="#8D6E63" stroke="#5D4037" stroke-width="0.8"/>
<!-- Pores (lenticels) -->
<ellipse cx="331" cy="122" rx="2" ry="0.8" fill="#A1887F"/>
<ellipse cx="345" cy="118" rx="2" ry="0.8" fill="#A1887F"/>
<ellipse cx="361" cy="125" rx="2" ry="0.8" fill="#A1887F"/>
<!-- Air arrows going down into roots -->
<path d="M331,112 L331,115" fill="none" stroke="#1565C0" stroke-width="0.8"/>
<polygon points="331,115 329,112 333,112" fill="#1565C0"/>
<path d="M345,107 L345,110" fill="none" stroke="#1565C0" stroke-width="0.8"/>
<polygon points="345,110 343,107 347,107" fill="#1565C0"/>
<text x="352" y="165" font-family="Arial,sans-serif" font-size="5.5" fill="#666" text-anchor="middle">болотный кипарис</text>

<!-- 5: Корни-присоски (повилика) -->
<rect x="405" y="72" width="80" height="95" rx="3" fill="#FCE4EC" opacity="0.3" stroke="#C62828" stroke-width="0.5"/>
<text x="445" y="83" font-family="Arial,sans-serif" font-size="7" font-weight="bold" fill="#C62828" text-anchor="middle">Корни-</text>
<text x="445" y="91" font-family="Arial,sans-serif" font-size="7" font-weight="bold" fill="#C62828" text-anchor="middle">присоски</text>
<!-- Host stem -->
<rect x="440" y="95" width="8" height="60" rx="2" fill="#66BB6A" stroke="#388E3C" stroke-width="1"/>
<!-- Dodder twining around -->
<path d="M435,95 Q425,105 435,115 Q445,125 435,135 Q425,145 435,155" fill="none" stroke="#FFB74D" stroke-width="2"/>
<!-- Haustoria penetrating host -->
<line x1="435" y1="105" x2="440" y2="105" stroke="#E65100" stroke-width="1.5"/>
<circle cx="443" cy="105" r="2" fill="#FF9800" stroke="#E65100" stroke-width="0.5"/>
<line x1="435" y1="125" x2="440" y2="125" stroke="#E65100" stroke-width="1.5"/>
<circle cx="443" cy="125" r="2" fill="#FF9800" stroke="#E65100" stroke-width="0.5"/>
<line x1="435" y1="145" x2="440" y2="145" stroke="#E65100" stroke-width="1.5"/>
<circle cx="443" cy="145" r="2" fill="#FF9800" stroke="#E65100" stroke-width="0.5"/>
<text x="460" y="107" font-family="Arial,sans-serif" font-size="5" fill="#E65100">гаустории</text>
<text x="445" y="165" font-family="Arial,sans-serif" font-size="5.5" fill="#666" text-anchor="middle">повилика</text>

<!-- SECTION 2: Symbiosis (bottom half) -->
<text x="250" y="185" font-family="Arial,sans-serif" font-size="9" font-weight="bold" fill="#1B5E20" text-anchor="middle">Симбиоз корня</text>

<!-- Left: Клубеньки с бактериями -->
<rect x="15" y="192" width="230" height="142" rx="4" fill="#F3E5F5" opacity="0.2" stroke="#8E24AA" stroke-width="0.8"/>
<text x="130" y="206" font-family="Arial,sans-serif" font-size="8" font-weight="bold" fill="#6A1B9A" text-anchor="middle">Клубеньки с бактериями</text>

<!-- Legume root system -->
<rect x="125" y="210" width="8" height="12" rx="2" fill="url(#stemG)" stroke="#388E3C" stroke-width="0.8"/>
<!-- Main root -->
<path d="M129,222 L129,290" stroke="#81C784" stroke-width="3" stroke-linecap="round"/>
<!-- Lateral roots -->
<path d="M129,240 L108,260" stroke="#81C784" stroke-width="1.5" stroke-linecap="round"/>
<path d="M129,240 L150,260" stroke="#81C784" stroke-width="1.5" stroke-linecap="round"/>
<path d="M129,260 L112,278" stroke="#81C784" stroke-width="1.2" stroke-linecap="round"/>
<path d="M129,260 L146,278" stroke="#81C784" stroke-width="1.2" stroke-linecap="round"/>

<!-- Root nodules -->
<ellipse cx="108" cy="252" rx="7" ry="5" fill="url(#noduleG)" stroke="#6A1B9A" stroke-width="0.8"/>
<ellipse cx="150" cy="255" rx="6" ry="5" fill="url(#noduleG)" stroke="#6A1B9A" stroke-width="0.8"/>
<ellipse cx="112" cy="272" rx="5" ry="4" fill="url(#noduleG)" stroke="#6A1B9A" stroke-width="0.8"/>
<ellipse cx="146" cy="270" rx="6" ry="4.5" fill="url(#noduleG)" stroke="#6A1B9A" stroke-width="0.8"/>

<!-- Bacteria inside nodule (enlarged view) -->
<rect x="30" y="235" width="55" height="55" rx="3" fill="white" stroke="#8E24AA" stroke-width="0.5"/>
<text x="57" y="244" font-family="Arial,sans-serif" font-size="5" fill="#6A1B9A" text-anchor="middle">клубенёк (увел.)</text>
<!-- Bacteroids -->
<ellipse cx="42" cy="255" rx="4" ry="2" fill="#CE93D8" stroke="#8E24AA" stroke-width="0.5" transform="rotate(30,42,255)"/>
<ellipse cx="55" cy="258" rx="4" ry="2" fill="#CE93D8" stroke="#8E24AA" stroke-width="0.5" transform="rotate(-20,55,258)"/>
<ellipse cx="68" cy="254" rx="3.5" ry="2" fill="#CE93D8" stroke="#8E24AA" stroke-width="0.5" transform="rotate(45,68,254)"/>
<ellipse cx="45" cy="268" rx="4" ry="2" fill="#CE93D8" stroke="#8E24AA" stroke-width="0.5" transform="rotate(-10,45,268)"/>
<ellipse cx="60" cy="272" rx="3.5" ry="2" fill="#CE93D8" stroke="#8E24AA" stroke-width="0.5" transform="rotate(25,60,272)"/>
<ellipse cx="72" cy="268" rx="4" ry="2" fill="#CE93D8" stroke="#8E24AA" stroke-width="0.5" transform="rotate(-35,72,268)"/>
<text x="57" y="283" font-family="Arial,sans-serif" font-size="5" fill="#6A1B9A" text-anchor="middle">бактероиды</text>

<!-- Exchange arrows -->
<path d="M108,245 L90,235" fill="none" stroke="#6A1B9A" stroke-width="0.8" stroke-dasharray="2,1"/>
<!-- N2 fixation arrow -->
<text x="25" y="218" font-family="Arial,sans-serif" font-size="6" fill="#6A1B9A">N₂ (воздух)</text>
<path d="M55,220 L70,228" fill="none" stroke="#6A1B9A" stroke-width="0.8"/>
<polygon points="70,228 66,225 68,230" fill="#6A1B9A"/>
<!-- Organic matter arrow back -->
<path d="M129,230 L129,222" fill="none" stroke="#388E3C" stroke-width="0.8"/>
<polygon points="129,222 127,226 131,226" fill="#388E3C"/>
<text x="135" y="228" font-family="Arial,sans-serif" font-size="5" fill="#388E3C">органика</text>
<text x="82" y="305" font-family="Arial,sans-serif" font-size="5.5" fill="#6A1B9A">Клубеньковые бактерии фиксируют</text>
<text x="82" y="313" font-family="Arial,sans-serif" font-size="5.5" fill="#6A1B9A">атмосферный азот → соединения N</text>
<text x="82" y="321" font-family="Arial,sans-serif" font-size="5.5" fill="#388E3C">Растение даёт органические вещества</text>
<text x="170" y="328" font-family="Arial,sans-serif" font-size="5.5" fill="#666">(горох, клевер, фасоль)</text>

<!-- Right: Микориза -->
<rect x="255" y="192" width="230" height="142" rx="4" fill="#FFF3E0" opacity="0.2" stroke="#E65100" stroke-width="0.8"/>
<text x="370" y="206" font-family="Arial,sans-serif" font-size="8" font-weight="bold" fill="#E65100" text-anchor="middle">Микориза (грибокорень)</text>

<!-- Tree root -->
<path d="M370,215 L370,280" stroke="#81C784" stroke-width="4" stroke-linecap="round"/>
<path d="M370,240 L345,270" stroke="#81C784" stroke-width="2" stroke-linecap="round"/>
<path d="M370,240 L395,270" stroke="#81C784" stroke-width="2" stroke-linecap="round"/>

<!-- Fungal mycelium around root (ectomycorrhiza) -->
<!-- Fungal mantle -->
<path d="M360,220 Q355,225 358,235 Q355,245 358,255 Q355,265 360,275" fill="none" stroke="#FF9800" stroke-width="2.5" stroke-linecap="round"/>
<path d="M380,220 Q385,225 382,235 Q385,245 382,255 Q385,265 380,275" fill="none" stroke="#FF9800" stroke-width="2.5" stroke-linecap="round"/>
<!-- Hartig net indication -->
<line x1="358" y1="230" x2="363" y2="230" stroke="#FF9800" stroke-width="0.6"/>
<line x1="358" y1="240" x2="363" y2="240" stroke="#FF9800" stroke-width="0.6"/>
<line x1="358" y1="250" x2="363" y2="250" stroke="#FF9800" stroke-width="0.6"/>
<line x1="382" y1="230" x2="377" y2="230" stroke="#FF9800" stroke-width="0.6"/>
<line x1="382" y1="240" x2="377" y2="240" stroke="#FF9800" stroke-width="0.6"/>
<line x1="382" y1="250" x2="377" y2="250" stroke="#FF9800" stroke-width="0.6"/>

<!-- Hyphae extending into soil -->
<path d="M345,270 Q330,275 320,285" fill="none" stroke="#FFB74D" stroke-width="1" stroke-linecap="round"/>
<path d="M345,270 Q335,282 325,295" fill="none" stroke="#FFB74D" stroke-width="0.8" stroke-linecap="round"/>
<path d="M345,270 Q340,280 330,290" fill="none" stroke="#FFB74D" stroke-width="0.7" stroke-linecap="round"/>
<path d="M395,270 Q410,275 420,285" fill="none" stroke="#FFB74D" stroke-width="1" stroke-linecap="round"/>
<path d="M395,270 Q405,282 415,295" fill="none" stroke="#FFB74D" stroke-width="0.8" stroke-linecap="round"/>
<path d="M395,270 Q400,280 410,290" fill="none" stroke="#FFB74D" stroke-width="0.7" stroke-linecap="round"/>
<!-- Hyphal branches -->
<path d="M320,285 Q315,290 312,298" fill="none" stroke="#FFB74D" stroke-width="0.5"/>
<path d="M320,285 Q325,292 323,300" fill="none" stroke="#FFB74D" stroke-width="0.5"/>
<path d="M420,285 Q425,290 428,298" fill="none" stroke="#FFB74D" stroke-width="0.5"/>
<path d="M420,285 Q415,292 417,300" fill="none" stroke="#FFB74D" stroke-width="0.5"/>

<!-- Labels -->
<line x1="355" y1="258" x2="290" y2="258" stroke="#E65100" stroke-width="0.5" stroke-dasharray="2,1"/>
<text x="288" y="255" font-family="Arial,sans-serif" font-size="6" fill="#E65100" text-anchor="end">грибная</text>
<text x="288" y="263" font-family="Arial,sans-serif" font-size="6" fill="#E65100" text-anchor="end">мантия</text>
<line x1="370" y1="268" x2="290" y2="275" stroke="#2E7D32" stroke-width="0.5" stroke-dasharray="2,1"/>
<text x="288" y="275" font-family="Arial,sans-serif" font-size="6" fill="#2E7D32" text-anchor="end">корень</text>
<text x="288" y="283" font-family="Arial,sans-serif" font-size="6" fill="#2E7D32" text-anchor="end">растения</text>

<!-- Exchange labels -->
<text x="270" y="225" font-family="Arial,sans-serif" font-size="5.5" fill="#FF9800">← минеральные вещества</text>
<text x="270" y="233" font-family="Arial,sans-serif" font-size="5.5" fill="#FF9800">   и вода из почвы</text>
<text x="270" y="248" font-family="Arial,sans-serif" font-size="5.5" fill="#388E3C">→ органические вещества</text>
<text x="270" y="256" font-family="Arial,sans-serif" font-size="5.5" fill="#388E3C">   от растения грибу</text>

<text x="370" y="305" font-family="Arial,sans-serif" font-size="5.5" fill="#E65100" text-anchor="middle">Эндотрофная: гриб внутри клеток корня</text>
<text x="370" y="313" font-family="Arial,sans-serif" font-size="5.5" fill="#E65100" text-anchor="middle">Экзотрофная: гриб образует мантию снаружи</text>
<text x="370" y="325" font-family="Arial,sans-serif" font-size="5.5" fill="#666" text-anchor="middle">(сосна, берёза, дуб — 80% растений!)</text>
</svg>
