<svg xmlns="http://www.w3.org/2000/svg" viewBox="0 0 500 350"><defs><linearGradient id="bg" x1="0" y1="0" x2="1" y2="1"><stop offset="0%" stop-color="#FFF8E1"/><stop offset="100%" stop-color="#FFFDE7"/></linearGradient></defs><rect width="500" height="350" fill="url(#bg)" rx="10"/><rect x="3" y="3" width="494" height="344" rx="8" fill="none" stroke="#C62828" stroke-width="3"/><rect x="8" y="8" width="484" height="334" rx="6" fill="none" stroke="#C62828" stroke-width="1" opacity="0.3"/><polygon points="10,10 30,10 10,30" fill="#C62828" opacity="0.08"/><polygon points="490,10 470,10 490,30" fill="#1565C0" opacity="0.08"/><polygon points="10,340 30,340 10,320" fill="#F9A825" opacity="0.08"/><polygon points="490,340 470,340 490,320" fill="#2E7D32" opacity="0.08"/><circle cx="70" cy="15" r="4" fill="#C62828" opacity="0.1"/><circle cx="82" cy="15" r="4" fill="#1565C0" opacity="0.1"/><circle cx="94" cy="15" r="4" fill="#F9A825" opacity="0.1"/><circle cx="406" cy="15" r="4" fill="#C62828" opacity="0.1"/><circle cx="418" cy="15" r="4" fill="#1565C0" opacity="0.1"/><circle cx="430" cy="15" r="4" fill="#F9A825" opacity="0.1"/><text x="250" y="50" font-family="Arial,sans-serif" font-size="24" font-weight="bold" fill="#C62828" text-anchor="middle">Итоговый проект: Игра</text><text x="250" y="68" font-family="Arial,sans-serif" font-size="12" fill="#777" text-anchor="middle">Основы программирования - Урок 8</text><line x1="30" y1="78" x2="470" y2="78" stroke="#C62828" stroke-width="2" opacity="0.25"/><rect x="30" y="75" width="60" height="6" fill="#C62828" opacity="0.15" rx="1"/><rect x="410" y="75" width="60" height="6" fill="#1565C0" opacity="0.12" rx="1"/>
<!-- Game window mockup -->
<rect x="40" y="88" width="310" height="212" rx="6" fill="#263238" stroke="#37474F" stroke-width="2"/>
<!-- Title bar -->
<rect x="40" y="88" width="310" height="20" rx="6" fill="#37474F"/>
<rect x="40" y="100" width="310" height="8" fill="#37474F"/>
<circle cx="54" cy="98" r="4" fill="#EF5350"/><circle cx="68" cy="98" r="4" fill="#FFC107"/><circle cx="82" cy="98" r="4" fill="#66BB6A"/>
<text x="195" y="102" font-family="Arial,sans-serif" font-size="8" fill="white" text-anchor="middle" opacity="0.7">Моя Игра - Scratch</text>
<!-- Game canvas -->
<rect x="48" y="112" width="294" height="138" rx="3" fill="#1565C0"/>
<!-- Stars in background -->
<circle cx="70" cy="130" r="1.5" fill="white" opacity="0.6"/><circle cx="120" cy="145" r="1" fill="white" opacity="0.4"/>
<circle cx="200" cy="125" r="1.5" fill="white" opacity="0.5"/><circle cx="280" cy="140" r="1" fill="white" opacity="0.3"/>
<circle cx="310" cy="160" r="1.5" fill="white" opacity="0.5"/><circle cx="150" cy="170" r="1" fill="white" opacity="0.4"/>
<circle cx="90" cy="200" r="1" fill="white" opacity="0.3"/><circle cx="250" cy="210" r="1.5" fill="white" opacity="0.6"/>
<!-- Ground -->
<rect x="48" y="225" width="294" height="25" rx="0" fill="#4CAF50"/>
<rect x="48" y="225" width="294" height="4" fill="#66BB6A"/>
<!-- Player cat -->
<g transform="translate(120,205)">
  <ellipse cx="0" cy="0" rx="14" ry="18" fill="#F5A623" stroke="#E8941E" stroke-width="1"/>
  <polygon points="-8,-14 -5,-26 -1,-13" fill="#F5A623" stroke="#E8941E" stroke-width="0.6"/>
  <polygon points="8,-14 5,-26 1,-13" fill="#F5A623" stroke="#E8941E" stroke-width="0.6"/>
  <circle cx="-4" cy="-4" r="3" fill="white"/><circle cx="-3.5" cy="-4" r="1.5" fill="#2E7D32"/>
  <circle cx="4" cy="-4" r="3" fill="white"/><circle cx="4.5" cy="-4" r="1.5" fill="#2E7D32"/>
  <ellipse cx="0" cy="2" rx="2" ry="1.5" fill="#E8941E"/>
</g>
<!-- Collectible coins -->
<circle cx="180" cy="190" r="8" fill="#FFD600" stroke="#F9A825" stroke-width="1"/>
<text x="180" y="194" font-family="Arial,sans-serif" font-size="10" fill="#F57F17" text-anchor="middle" font-weight="bold">$</text>
<circle cx="230" cy="170" r="8" fill="#FFD600" stroke="#F9A825" stroke-width="1"/>
<text x="230" y="174" font-family="Arial,sans-serif" font-size="10" fill="#F57F17" text-anchor="middle" font-weight="bold">$</text>
<circle cx="280" cy="195" r="8" fill="#FFD600" stroke="#F9A825" stroke-width="1"/>
<text x="280" y="199" font-family="Arial,sans-serif" font-size="10" fill="#F57F17" text-anchor="middle" font-weight="bold">$</text>
<!-- Obstacle -->
<rect x="200" y="210" width="20" height="15" rx="2" fill="#D84315" stroke="#BF360C" stroke-width="1"/>
<text x="210" y="221" font-family="Arial,sans-serif" font-size="8" fill="white" text-anchor="middle">X</text>
<!-- HUD - Score -->
<rect x="55" y="117" width="65" height="18" rx="3" fill="black" opacity="0.5"/>
<text x="62" y="130" font-family="Arial,sans-serif" font-size="10" fill="#FFD600" font-weight="bold">Счёт: 15</text>
<!-- HUD - Lives -->
<rect x="260" y="117" width="75" height="18" rx="3" fill="black" opacity="0.5"/>
<text x="270" y="130" font-family="Arial,sans-serif" font-size="9" fill="#EF5350">&#9829;&#9829;&#9829;</text>
<text x="305" y="130" font-family="Arial,sans-serif" font-size="8" fill="white">x3</text>
<!-- Game status bar -->
<rect x="48" y="255" width="294" height="38" rx="0 0 3 3" fill="#37474F"/>
<text x="195" y="272" font-family="Arial,sans-serif" font-size="9" fill="#90CAF9" text-anchor="middle">Стрелки - движение | Пробел - прыжок | Собери все монеты!</text>
<!-- Green flag and stop buttons -->
<g transform="translate(55,260)">
  <rect x="-8" y="2" width="2" height="12" fill="#999"/>
  <polygon points="-6,2 6,6 -6,10" fill="#66BB6A"/>
</g>
<g transform="translate(330,260)">
  <rect x="-6" y="4" width="12" height="8" rx="2" fill="#EF5350"/>
</g>
<!-- Project structure on right -->
<rect x="365" y="88" width="120" height="212" rx="5" fill="#FFF8E1" stroke="#FF8F00" stroke-width="1.2"/>
<text x="425" y="105" font-family="Arial,sans-serif" font-size="10" fill="#C62828" text-anchor="middle" font-weight="bold">Структура игры</text>
<line x1="375" y1="112" x2="475" y2="112" stroke="#FFCC80" stroke-width="0.6"/>
<!-- Plan items -->
<circle cx="382" cy="128" r="3" fill="#66BB6A"/><text x="392" y="132" font-family="Arial,sans-serif" font-size="8" fill="#555">Спрайт-игрок</text>
<circle cx="382" cy="148" r="3" fill="#FFD600"/><text x="392" y="152" font-family="Arial,sans-serif" font-size="8" fill="#555">Монеты</text>
<circle cx="382" cy="168" r="3" fill="#EF5350"/><text x="392" y="172" font-family="Arial,sans-serif" font-size="8" fill="#555">Препятствия</text>
<circle cx="382" cy="188" r="3" fill="#42A5F5"/><text x="392" y="192" font-family="Arial,sans-serif" font-size="8" fill="#555">Фон и сцена</text>
<line x1="375" y1="202" x2="475" y2="202" stroke="#FFCC80" stroke-width="0.6"/>
<circle cx="382" cy="218" r="3" fill="#9C27B0"/><text x="392" y="222" font-family="Arial,sans-serif" font-size="8" fill="#555">Управление</text>
<circle cx="382" cy="238" r="3" fill="#FF8F00"/><text x="392" y="242" font-family="Arial,sans-serif" font-size="8" fill="#555">Подсчёт очков</text>
<circle cx="382" cy="258" r="3" fill="#2E7D32"/><text x="392" y="262" font-family="Arial,sans-serif" font-size="8" fill="#555">Условия победы</text>
<circle cx="382" cy="278" r="3" fill="#C62828"/><text x="392" y="282" font-family="Arial,sans-serif" font-size="8" fill="#555">Звуки и эффекты</text>
<rect x="15" y="308" width="470" height="30" rx="4" fill="#C62828" opacity="0.85"/><text x="250" y="329" font-family="Arial,sans-serif" font-size="15" text-anchor="middle" fill="white" font-weight="bold">Итоговый проект: Игра</text></svg>