<svg xmlns="http://www.w3.org/2000/svg" viewBox="0 0 500 350">
<rect width="500" height="350" fill="#ECEFF1" rx="12"/>
<text x="250" y="28" text-anchor="middle" font-family="sans-serif" font-size="17" font-weight="bold" fill="#37474F">Правописание приставок</text>
<line x1="10" y1="265" x2="490" y2="265" stroke="#8D6E63" stroke-width="3"/>
<line x1="10" y1="270" x2="490" y2="270" stroke="#8D6E63" stroke-width="3"/>
<rect x="50" y="198" width="95" height="62" fill="#E53935" stroke="#B71C1C" stroke-width="2" rx="5"/>
<rect x="128" y="212" width="26" height="48" fill="#C62828" stroke="#B71C1C" stroke-width="1.5" rx="3"/>
<rect x="68" y="180" width="16" height="20" fill="#D32F2F" stroke="#B71C1C" stroke-width="1.5" rx="2"/>
<circle cx="75" cy="265" r="9" fill="#424242" stroke="#212121" stroke-width="2"/>
<circle cx="120" cy="265" r="9" fill="#424242" stroke="#212121" stroke-width="2"/>
<circle cx="155" cy="232" r="5" fill="#FFEB3B" stroke="#F9A825" stroke-width="1.5"/>
<text x="97" y="228" text-anchor="middle" font-size="11" font-weight="bold" fill="#fff" font-family="sans-serif">ПРИ-</text>
<text x="97" y="244" text-anchor="middle" font-size="8" fill="#FFCDD2" font-family="sans-serif">приставка</text>
<line x1="154" y1="242" x2="182" y2="242" stroke="#795548" stroke-width="3"/>
<rect x="182" y="208" width="125" height="52" fill="#42A5F5" stroke="#1565C0" stroke-width="2" rx="5"/>
<circle cx="206" cy="265" r="8" fill="#424242" stroke="#212121" stroke-width="2"/>
<circle cx="285" cy="265" r="8" fill="#424242" stroke="#212121" stroke-width="2"/>
<text x="244" y="240" text-anchor="middle" font-size="15" font-weight="bold" fill="#fff" font-family="sans-serif">ЛЕТЕЛ</text>
<rect x="115" y="78" width="190" height="42" fill="#fff" stroke="#FF9800" stroke-width="2" rx="10"/>
<text x="210" y="106" text-anchor="middle" font-size="22" font-weight="bold" font-family="sans-serif"><tspan fill="#E53935">при</tspan><tspan fill="#1565C0">летел</tspan></text>
<line x1="210" y1="120" x2="210" y2="185" stroke="#FF9800" stroke-width="2" stroke-dasharray="4,3"/>
<polygon points="205,183 210,193 215,183" fill="#FF9800"/>
<rect x="340" y="90" width="125" height="30" fill="#FFF3E0" stroke="#FF9800" stroke-width="1.5" rx="8"/>
<text x="402" y="110" text-anchor="middle" font-size="13" font-family="sans-serif"><tspan fill="#E53935">за</tspan><tspan fill="#1565C0">бежал</tspan></text>
<rect x="340" y="130" width="125" height="30" fill="#FFF3E0" stroke="#FF9800" stroke-width="1.5" rx="8"/>
<text x="402" y="150" text-anchor="middle" font-size="13" font-family="sans-serif"><tspan fill="#E53935">по</tspan><tspan fill="#1565C0">читал</tspan></text>
<rect x="340" y="170" width="125" height="30" fill="#FFF3E0" stroke="#FF9800" stroke-width="1.5" rx="8"/>
<text x="402" y="190" text-anchor="middle" font-size="13" font-family="sans-serif"><tspan fill="#E53935">пере</tspan><tspan fill="#1565C0">писал</tspan></text>
<text x="250" y="310" text-anchor="middle" font-size="10" fill="#546E7A" font-family="sans-serif">Приставка стоит перед корнем и пишется слитно</text>
</svg>