<svg xmlns="http://www.w3.org/2000/svg" viewBox="0 0 500 350">
<rect width="500" height="350" fill="#F3E5F5" rx="12"/>
<text x="250" y="28" text-anchor="middle" font-family="sans-serif" font-size="17" font-weight="bold" fill="#6A1B9A">Связь слов в предложении</text>
<line x1="20" y1="262" x2="480" y2="262" stroke="#8D6E63" stroke-width="3"/>
<line x1="20" y1="267" x2="480" y2="267" stroke="#8D6E63" stroke-width="3"/>
<rect x="30" y="200" width="80" height="58" fill="#E53935" stroke="#B71C1C" stroke-width="2" rx="5"/>
<rect x="130" y="210" width="28" height="48" fill="#C62828" stroke="#B71C1C" stroke-width="1.5" rx="3"/>
<circle cx="50" cy="265" r="8" fill="#424242" stroke="#212121" stroke-width="2"/>
<circle cx="90" cy="265" r="8" fill="#424242" stroke="#212121" stroke-width="2"/>
<rect x="38" y="185" width="14" height="16" fill="#FFEB3B" stroke="#F9A825" stroke-width="1.5" rx="3"/>
<text x="70" y="236" text-anchor="middle" font-size="12" font-weight="bold" fill="#fff" font-family="sans-serif">Мальчик</text>
<line x1="125" y1="240" x2="148" y2="240" stroke="#FF9800" stroke-width="3"/>
<polygon points="146,235 156,240 146,245" fill="#FF9800"/>
<rect x="156" y="208" width="72" height="48" fill="#42A5F5" stroke="#1565C0" stroke-width="2" rx="5"/>
<circle cx="174" cy="265" r="7" fill="#424242" stroke="#212121" stroke-width="2"/>
<circle cx="212" cy="265" r="7" fill="#424242" stroke="#212121" stroke-width="2"/>
<text x="192" y="238" text-anchor="middle" font-size="12" font-weight="bold" fill="#fff" font-family="sans-serif">читает</text>
<line x1="228" y1="240" x2="250" y2="240" stroke="#FF9800" stroke-width="3"/>
<polygon points="248,235 258,240 248,245" fill="#FF9800"/>
<rect x="258" y="208" width="68" height="48" fill="#66BB6A" stroke="#2E7D32" stroke-width="2" rx="5"/>
<circle cx="276" cy="265" r="7" fill="#424242" stroke="#212121" stroke-width="2"/>
<circle cx="310" cy="265" r="7" fill="#424242" stroke="#212121" stroke-width="2"/>
<text x="292" y="238" text-anchor="middle" font-size="12" font-weight="bold" fill="#fff" font-family="sans-serif">книгу</text>
<path d="M70,198 Q70,170 192,170 Q292,170 292,198" stroke="#FF9800" stroke-width="1.5" fill="none" stroke-dasharray="4,2"/>
<text x="192" y="166" text-anchor="middle" font-size="9" fill="#E65100" font-family="sans-serif">что делает?</text>
<path d="M292,198 Q292,158 70,158 Q70,198 70,198" stroke="#FF9800" stroke-width="1.5" fill="none" stroke-dasharray="4,2"/>
<text x="130" y="153" text-anchor="middle" font-size="9" fill="#E65100" font-family="sans-serif">что?</text>
<circle cx="45" cy="180" r="5" fill="#BDBDBD" opacity="0.4"/>
<circle cx="38" cy="173" r="7" fill="#BDBDBD" opacity="0.3"/>
<text x="250" y="310" text-anchor="middle" font-size="11" fill="#6A1B9A" font-family="sans-serif">Слова связаны по смыслу: кто? → что делает? → что?</text>
</svg>