<svg xmlns="http://www.w3.org/2000/svg" viewBox="0 0 500 350">
  <defs><style>@keyframes prefix{0%{transform:translateX(-3px)}100%{transform:translateX(3px)}50%{transform:translateX(0)}}.pre{animation:prefix 2s ease-in-out infinite}</style></defs>
  <rect width="500" height="350" fill="#FBE9E7"/>
  <text x="250" y="32" text-anchor="middle" font-family="Arial,sans-serif" font-size="20" font-weight="bold" fill="#BF360C">Правописание приставок</text>
  <rect x="30" y="50" width="440" height="50" fill="white" rx="10" stroke="#FFAB91" stroke-width="2"/>
  <text x="250" y="72" text-anchor="middle" font-family="Arial,sans-serif" font-size="13" fill="#BF360C">Приставка — часть слова, стоит перед корнем</text>
  <text x="250" y="90" text-anchor="middle" font-family="Arial,sans-serif" font-size="11" fill="#555">Приставки пишутся одинаково, независимо от произношения</text>
  <!-- Prefixes -->
  <g transform="translate(30,115)" font-family="Arial,sans-serif">
    <rect x="0" y="0" width="100" height="40" fill="#FFCCBC" rx="8" stroke="#BF360C" stroke-width="1"/>
    <text x="50" y="18" text-anchor="middle" font-size="16" font-weight="bold" fill="#BF360C">на-</text>
    <text x="50" y="33" text-anchor="middle" font-size="10" fill="#555">написал</text>
    <rect x="110" y="0" width="100" height="40" fill="#FFE0B2" rx="8" stroke="#E65100" stroke-width="1"/>
    <text x="160" y="18" text-anchor="middle" font-size="16" font-weight="bold" fill="#E65100">за-</text>
    <text x="160" y="33" text-anchor="middle" font-size="10" fill="#555">забежал</text>
    <rect x="220" y="0" width="100" height="40" fill="#FFF9C4" rx="8" stroke="#F57F17" stroke-width="1"/>
    <text x="270" y="18" text-anchor="middle" font-size="16" font-weight="bold" fill="#F57F17">по-</text>
    <text x="270" y="33" text-anchor="middle" font-size="10" fill="#555">побежал</text>
    <rect x="330" y="0" width="100" height="40" fill="#C8E6C9" rx="8" stroke="#2E7D32" stroke-width="1"/>
    <text x="380" y="18" text-anchor="middle" font-size="16" font-weight="bold" fill="#2E7D32">про-</text>
    <text x="380" y="33" text-anchor="middle" font-size="10" fill="#555">прочитал</text>
  </g>
  <!-- Word structure -->
  <g class="pre" transform="translate(30,175)">
    <rect x="0" y="0" width="440" height="55" fill="white" rx="10" stroke="#FFAB91" stroke-width="2"/>
    <text x="20" y="25" font-family="Arial,sans-serif" font-size="13" fill="#BF360C">приставка</text>
    <rect x="15" y="30" width="60" height="20" fill="#FFCCBC" rx="3"/><text x="45" y="44" text-anchor="middle" font-family="Arial,sans-serif" font-size="11" fill="#BF360C">за</text>
    <text x="85" y="44" font-family="Arial,sans-serif" font-size="13" fill="#555">|</text>
    <text x="120" y="25" font-family="Arial,sans-serif" font-size="13" fill="#2E7D32">корень</text>
    <rect x="100" y="30" width="90" height="20" fill="#C8E6C9" rx="3"/><text x="145" y="44" text-anchor="middle" font-family="Arial,sans-serif" font-size="11" fill="#2E7D32">беж</text>
    <text x="200" y="44" font-family="Arial,sans-serif" font-size="13" fill="#555">|</text>
    <text x="250" y="25" font-family="Arial,sans-serif" font-size="13" fill="#1565C0">суффикс</text>
    <rect x="220" y="30" width="80" height="20" fill="#BBDEFB" rx="3"/><text x="260" y="44" text-anchor="middle" font-family="Arial,sans-serif" font-size="11" fill="#1565C0">ал</text>
    <text x="310" y="44" font-family="Arial,sans-serif" font-size="13" fill="#555">|</text>
    <text x="370" y="25" font-family="Arial,sans-serif" font-size="13" fill="#6A1B9A">окончание</text>
    <rect x="330" y="30" width="80" height="20" fill="#E1BEE7" rx="3"/><text x="370" y="44" text-anchor="middle" font-family="Arial,sans-serif" font-size="11" fill="#6A1B9A">нул.</text>
  </g>
  <!-- Rule -->
  <rect x="30" y="245" width="440" height="90" fill="#FBE9E7" rx="10"/>
  <text x="250" y="268" text-anchor="middle" font-family="Arial,sans-serif" font-size="13" font-weight="bold" fill="#BF360C">Правило</text>
  <text x="250" y="290" text-anchor="middle" font-family="Arial,sans-serif" font-size="12" fill="#555">Приставки на-, за-, по-, про-, об-, от-, над-, под-</text>
  <text x="250" y="310" text-anchor="middle" font-family="Arial,sans-serif" font-size="12" fill="#555">пишутся всегда одинаково, независимо от произношения</text>
  <text x="250" y="330" text-anchor="middle" font-family="Arial,sans-serif" font-size="11" fill="#BF360C">записать, подписать, отписать — приставка сохраняется</text>
</svg>