<svg xmlns="http://www.w3.org/2000/svg" viewBox="0 0 800 500">
  <defs><linearGradient id="gКрыл" x1="0%" y1="0%" x2="100%" y2="100%">
    <stop offset="0%" style="stop-color:#F3E5F5;stop-opacity:0.5"/><stop offset="100%" style="stop-color:#E1BEE7;stop-opacity:0.25"/>
  </linearGradient></defs>
  <rect width="800" height="500" fill="url(#gКрыл)" rx="12"/>
  <rect x="4" y="4" width="792" height="492" rx="10" fill="none" stroke="#7B1FA2" stroke-width="2.5" opacity="0.3"/>
  <text x="400" y="50" font-family="Georgia,serif" font-size="32" font-weight="bold" fill="#7B1FA2" text-anchor="middle">Крылов - Волк на псарне</text>
  <line x1="80" y1="64" x2="720" y2="64" stroke="#7B1FA2" stroke-width="2" opacity="0.35"/>
  
  <!-- Wolf big -->
  <circle cx="200" cy="170" r="70" fill="#ECEFF1" stroke="#455A64" stroke-width="3"/>
  <ellipse cx="200" cy="155" rx="35" ry="30" fill="#78909C"/>
  <polygon points="175,130 163,95 185,125" fill="#78909C"/>
  <polygon points="225,130 237,95 215,125" fill="#78909C"/>
  <circle cx="188" cy="148" r="5" fill="#FFD54F"/>
  <circle cx="212" cy="148" r="5" fill="#FFD54F"/>
  <circle cx="188" cy="148" r="2.5" fill="#1B5E20"/>
  <circle cx="212" cy="148" r="2.5" fill="#1B5E20"/>
  <ellipse cx="200" cy="168" rx="6" ry="4" fill="#37474F"/>
  <path d="M190,178 Q200,186 210,178" fill="none" stroke="#37474F" stroke-width="2"/>
  <!-- Kennel big -->
  <rect x="500" y="120" width="150" height="110" fill="#FFCC80" stroke="#E65100" stroke-width="2.5"/>
  <polygon points="500,120 575,75 650,120" fill="#FFB74D" stroke="#E65100" stroke-width="2"/>
  <rect x="545" y="175" width="55" height="55" fill="#5D4037"/>
  <!-- Quote big -->
  <rect x="100" y="290" width="600" height="55" rx="10" fill="#F3E5F5" stroke="#CE93D8" stroke-width="2"/>
  <text x="400" y="325" font-family="Georgia,serif" font-size="22" fill="#6A1B9A" text-anchor="middle" font-style="italic">"Сильнее кошки зверя нет!"</text>
  <!-- Author -->
  <text x="400" y="390" font-family="Georgia,serif" font-size="20" fill="#7B1FA2" text-anchor="middle" font-weight="bold">И.А. Крылов (1769-1844)</text>
  <text x="400" y="418" font-family="Georgia,serif" font-size="17" fill="#7B1FA2" text-anchor="middle">Великий русский баснописец</text>
  <text x="400" y="448" font-family="Georgia,serif" font-size="15" fill="#7B1FA2" text-anchor="middle" opacity="0.6">Басня - короткий рассказ с моралью</text>

</svg>