<svg xmlns="http://www.w3.org/2000/svg" viewBox="0 0 500 350">
  <defs>
    <linearGradient id="hdrege7" x1="0%" y1="0%" x2="100%" y2="0%">
      <stop offset="0%" style="stop-color:#B71C1C;stop-opacity:1"/>
      <stop offset="100%" style="stop-color:#E53935;stop-opacity:1"/>
    </linearGradient>
    <linearGradient id="bgege7" x1="0%" y1="0%" x2="0%" y2="100%">
      <stop offset="0%" style="stop-color:#FFEBEE;stop-opacity:1"/>
      <stop offset="100%" style="stop-color:#FFCDD2;stop-opacity:1"/>
    </linearGradient>
    <filter id="shadowege7" x="-2%" y="-2%" width="104%" height="104%">
      <feDropShadow dx="1" dy="1" stdDeviation="2" flood-color="#000" flood-opacity="0.1"/>
    </filter>
  </defs>
  <rect width="500" height="350" fill="url(#bgege7)"/>
  <rect x="2" y="2" width="496" height="346" rx="12" ry="12" fill="none" stroke="#B71C1C" stroke-width="2.5" opacity="0.6"/>
  <rect x="3" y="3" width="494" height="42" rx="10" ry="10" fill="url(#hdrege7)"/>
  <rect x="3" y="35" width="494" height="10" fill="url(#hdrege7)"/>
  <text x="250" y="20" font-family="Arial, sans-serif" font-size="13" font-weight="bold" fill="#FFFFFF" text-anchor="middle">Сочинение ЕГЭ</text>
  <text x="250" y="36" font-family="Arial, sans-serif" font-size="10" fill="#FFEBEE" text-anchor="middle">ЕГЭ — Урок 7</text>
  <circle cx="28" cy="24" r="14" fill="#FFFFFF" opacity="0.25"/>
  <text x="28" y="28" font-family="Arial, sans-serif" font-size="13" font-weight="bold" fill="#FFFFFF" text-anchor="middle">7</text>
  <rect x="12" y="52" width="230" height="146" rx="8" ry="8" fill="#FFFFFF" opacity="0.7" filter="url(#shadowege7)"/>
  <rect x="16" y="55" width="222" height="18" rx="4" ry="4" fill="#B71C1C" opacity="0.15"/>
  <text x="127" y="68" font-family="Arial, sans-serif" font-size="10" font-weight="bold" fill="#B71C1C" text-anchor="middle">Структура сочинения-рассуждения</text>
  <circle cx="26" cy="77" r="4" fill="#B71C1C" opacity="0.8"/>
  <text x="36" y="80" font-family="Arial, sans-serif" font-size="9" fill="#37474F">Вступление: формулировка проблемы текста</text>
  <circle cx="26" cy="99" r="4" fill="#B71C1C" opacity="0.8"/>
  <text x="36" y="102" font-family="Arial, sans-serif" font-size="9" fill="#37474F">Комментарий: 2 примера-иллюстрации из текста</text>
  <circle cx="26" cy="121" r="4" fill="#B71C1C" opacity="0.8"/>
  <text x="36" y="124" font-family="Arial, sans-serif" font-size="9" fill="#37474F">Пояснение к примерам + смысловая связь</text>
  <circle cx="26" cy="143" r="4" fill="#B71C1C" opacity="0.8"/>
  <text x="36" y="146" font-family="Arial, sans-serif" font-size="9" fill="#37474F">Позиция автора (что думает автор?)</text>
  <circle cx="26" cy="165" r="4" fill="#B71C1C" opacity="0.8"/>
  <text x="36" y="168" font-family="Arial, sans-serif" font-size="9" fill="#37474F">Ваша позиция + обоснование (читательский опыт)</text>
  <rect x="252" y="52" width="236" height="146" rx="8" ry="8" fill="#FFFFFF" opacity="0.7" filter="url(#shadowege7)"/>
  <rect x="256" y="55" width="228" height="18" rx="4" ry="4" fill="#B71C1C" opacity="0.15"/>
  <text x="370" y="68" font-family="Arial, sans-serif" font-size="10" font-weight="bold" fill="#B71C1C" text-anchor="middle">Критерии оценивания</text>
  <circle cx="266" cy="77" r="6" fill="#B71C1C" opacity="0.2"/>
  <text x="266" y="80" font-family="Arial, sans-serif" font-size="8" font-weight="bold" fill="#B71C1C" text-anchor="middle">1</text>
  <text x="278" y="80" font-family="Arial, sans-serif" font-size="9" fill="#37474F">К1: Формулировка проблемы (1 балл)</text>
  <circle cx="266" cy="99" r="6" fill="#B71C1C" opacity="0.2"/>
  <text x="266" y="102" font-family="Arial, sans-serif" font-size="8" font-weight="bold" fill="#B71C1C" text-anchor="middle">2</text>
  <text x="278" y="102" font-family="Arial, sans-serif" font-size="9" fill="#37474F">К2: Комментарий к проблеме (6 баллов)</text>
  <circle cx="266" cy="121" r="6" fill="#B71C1C" opacity="0.2"/>
  <text x="266" y="124" font-family="Arial, sans-serif" font-size="8" font-weight="bold" fill="#B71C1C" text-anchor="middle">3</text>
  <text x="278" y="124" font-family="Arial, sans-serif" font-size="9" fill="#37474F">К3: Отражение позиции автора (1 балл)</text>
  <circle cx="266" cy="143" r="6" fill="#B71C1C" opacity="0.2"/>
  <text x="266" y="146" font-family="Arial, sans-serif" font-size="8" font-weight="bold" fill="#B71C1C" text-anchor="middle">4</text>
  <text x="278" y="146" font-family="Arial, sans-serif" font-size="9" fill="#37474F">К4: Отношение к позиции автора (1 балл)</text>
  <circle cx="266" cy="165" r="6" fill="#B71C1C" opacity="0.2"/>
  <text x="266" y="168" font-family="Arial, sans-serif" font-size="8" font-weight="bold" fill="#B71C1C" text-anchor="middle">5</text>
  <text x="278" y="168" font-family="Arial, sans-serif" font-size="9" fill="#37474F">К5–К12: речевое оформление, грамотность (10 баллов)</text>
  <rect x="12" y="206" width="476" height="74" rx="8" ry="8" fill="#FFFFFF" opacity="0.7" filter="url(#shadowege7)"/>
  <rect x="12" y="206" width="5" height="74" rx="2" ry="0" fill="#B71C1C" opacity="0.7"/>
  <text x="250" y="220" font-family="Arial, sans-serif" font-size="10" font-weight="bold" fill="#7F0000" text-anchor="middle">Клише для сочинения</text>
  <rect x="24" y="228" width="452" height="15" rx="3" ry="3" fill="#B71C1C" opacity="0.06"/>
  <text x="30" y="236" font-family="Arial, sans-serif" font-size="9" fill="#37474F">«Автор поднимает проблему…» | «Обращаясь к читательскому опыту…» | «Нельзя не согласиться с автором…»</text>
  <rect x="24" y="246" width="452" height="15" rx="3" ry="3" fill="#B71C1C" opacity="0.06"/>
  <text x="30" y="254" font-family="Arial, sans-serif" font-size="9" fill="#37474F">«Эти примеры дополняют друг друга, показывая…» | «Таким образом, автор убеждает нас в том, что…»</text>
<g transform="translate(440,58)"><rect x="3" y="5" width="34" height="40" rx="2" fill="#B71C1C" opacity="0.06" stroke="#B71C1C" stroke-width="1"/><line x1="8" y1="12" x2="32" y2="12" stroke="#B71C1C" stroke-width="1" opacity="0.2"/><line x1="8" y1="18" x2="32" y2="18" stroke="#B71C1C" stroke-width="1" opacity="0.15"/><line x1="8" y1="24" x2="32" y2="24" stroke="#B71C1C" stroke-width="1" opacity="0.1"/><path d="M8,32 Q20,28 32,32" fill="none" stroke="#B71C1C" stroke-width="1" opacity="0.15"/></g>
  <line x1="15" y1="334" x2="485" y2="334" stroke="#B71C1C" stroke-width="0.5" opacity="0.3"/>
  <text x="250" y="338" font-family="Arial, sans-serif" font-size="8" fill="#9E9E9E" text-anchor="middle">Подготовка к ЕГЭ · 10 класс</text>
</svg>