<svg xmlns="http://www.w3.org/2000/svg" viewBox="0 0 500 350">
  <defs>
    <linearGradient id="hdrege12" x1="0%" y1="0%" x2="100%" y2="0%">
      <stop offset="0%" style="stop-color:#B71C1C;stop-opacity:1"/>
      <stop offset="100%" style="stop-color:#E53935;stop-opacity:1"/>
    </linearGradient>
    <linearGradient id="bgege12" x1="0%" y1="0%" x2="0%" y2="100%">
      <stop offset="0%" style="stop-color:#FFEBEE;stop-opacity:1"/>
      <stop offset="100%" style="stop-color:#FFCDD2;stop-opacity:1"/>
    </linearGradient>
    <filter id="shadowege12" x="-2%" y="-2%" width="104%" height="104%">
      <feDropShadow dx="1" dy="1" stdDeviation="2" flood-color="#000" flood-opacity="0.1"/>
    </filter>
  </defs>
  <rect width="500" height="350" fill="url(#bgege12)"/>
  <rect x="2" y="2" width="496" height="346" rx="12" ry="12" fill="none" stroke="#B71C1C" stroke-width="2.5" opacity="0.6"/>
  <rect x="3" y="3" width="494" height="42" rx="10" ry="10" fill="url(#hdrege12)"/>
  <rect x="3" y="35" width="494" height="10" fill="url(#hdrege12)"/>
  <text x="250" y="20" font-family="Arial, sans-serif" font-size="13" font-weight="bold" fill="#FFFFFF" text-anchor="middle">Итоги подготовки</text>
  <text x="250" y="36" font-family="Arial, sans-serif" font-size="10" fill="#FFEBEE" text-anchor="middle">ЕГЭ — Урок 12</text>
  <circle cx="28" cy="24" r="14" fill="#FFFFFF" opacity="0.25"/>
  <text x="28" y="28" font-family="Arial, sans-serif" font-size="13" font-weight="bold" fill="#FFFFFF" text-anchor="middle">12</text>
  <rect x="12" y="52" width="230" height="146" rx="8" ry="8" fill="#FFFFFF" opacity="0.7" filter="url(#shadowege12)"/>
  <rect x="16" y="55" width="222" height="18" rx="4" ry="4" fill="#B71C1C" opacity="0.15"/>
  <text x="127" y="68" font-family="Arial, sans-serif" font-size="10" font-weight="bold" fill="#B71C1C" text-anchor="middle">Чек-лист готовности к ЕГЭ</text>
  <circle cx="26" cy="77" r="4" fill="#2E7D32" opacity="0.8"/>
  <text x="36" y="80" font-family="Arial, sans-serif" font-size="9" fill="#37474F">Все темы повторены и закреплены</text>
  <circle cx="26" cy="99" r="4" fill="#2E7D32" opacity="0.8"/>
  <text x="36" y="102" font-family="Arial, sans-serif" font-size="9" fill="#37474F">Пробные экзамены написаны на целевой балл</text>
  <circle cx="26" cy="121" r="4" fill="#2E7D32" opacity="0.8"/>
  <text x="36" y="124" font-family="Arial, sans-serif" font-size="9" fill="#37474F">Дневник ошибок проанализирован</text>
  <circle cx="26" cy="143" r="4" fill="#2E7D32" opacity="0.8"/>
  <text x="36" y="146" font-family="Arial, sans-serif" font-size="9" fill="#37474F">Документы для экзамена подготовлены</text>
  <circle cx="26" cy="165" r="4" fill="#2E7D32" opacity="0.8"/>
  <text x="36" y="168" font-family="Arial, sans-serif" font-size="9" fill="#37474F">Психологический настрой — спокойный и уверенный</text>
  <rect x="252" y="52" width="236" height="146" rx="8" ry="8" fill="#FFFFFF" opacity="0.7" filter="url(#shadowege12)"/>
  <rect x="256" y="55" width="228" height="18" rx="4" ry="4" fill="#B71C1C" opacity="0.15"/>
  <text x="370" y="68" font-family="Arial, sans-serif" font-size="10" font-weight="bold" fill="#B71C1C" text-anchor="middle">Последняя неделя перед экзаменом</text>
  <circle cx="266" cy="77" r="6" fill="#B71C1C" opacity="0.2"/>
  <text x="266" y="80" font-family="Arial, sans-serif" font-size="8" font-weight="bold" fill="#B71C1C" text-anchor="middle">1</text>
  <text x="278" y="80" font-family="Arial, sans-serif" font-size="9" fill="#37474F">Только лёгкое повторение — никаких новых тем!</text>
  <circle cx="266" cy="99" r="6" fill="#B71C1C" opacity="0.2"/>
  <text x="266" y="102" font-family="Arial, sans-serif" font-size="8" font-weight="bold" fill="#B71C1C" text-anchor="middle">2</text>
  <text x="278" y="102" font-family="Arial, sans-serif" font-size="9" fill="#37474F">Просмотр формул, дат, определений</text>
  <circle cx="266" cy="121" r="6" fill="#B71C1C" opacity="0.2"/>
  <text x="266" y="124" font-family="Arial, sans-serif" font-size="8" font-weight="bold" fill="#B71C1C" text-anchor="middle">3</text>
  <text x="278" y="124" font-family="Arial, sans-serif" font-size="9" fill="#37474F">Рано ложитесь спать</text>
  <circle cx="266" cy="143" r="6" fill="#B71C1C" opacity="0.2"/>
  <text x="266" y="146" font-family="Arial, sans-serif" font-size="8" font-weight="bold" fill="#B71C1C" text-anchor="middle">4</text>
  <text x="278" y="146" font-family="Arial, sans-serif" font-size="9" fill="#37474F">Подготовьте всё необходимое с вечера</text>
  <circle cx="266" cy="165" r="6" fill="#B71C1C" opacity="0.2"/>
  <text x="266" y="168" font-family="Arial, sans-serif" font-size="8" font-weight="bold" fill="#B71C1C" text-anchor="middle">5</text>
  <text x="278" y="168" font-family="Arial, sans-serif" font-size="9" fill="#37474F">Положительный настрой — вы готовы!</text>
  <rect x="12" y="206" width="476" height="74" rx="8" ry="8" fill="#FFFFFF" opacity="0.7" filter="url(#shadowege12)"/>
  <rect x="12" y="206" width="5" height="74" rx="2" ry="0" fill="#B71C1C" opacity="0.7"/>
  <text x="250" y="220" font-family="Arial, sans-serif" font-size="10" font-weight="bold" fill="#7F0000" text-anchor="middle">Что взять с собой на экзамен</text>
  <rect x="24" y="228" width="452" height="15" rx="3" ry="3" fill="#B71C1C" opacity="0.06"/>
  <text x="30" y="236" font-family="Arial, sans-serif" font-size="9" fill="#37474F">Паспорт  |  Пропуск  |  Гелевую чёрную ручку  |  Воду  |  Шоколад (для мозга)</text>
  <rect x="24" y="246" width="452" height="15" rx="3" ry="3" fill="#B71C1C" opacity="0.06"/>
  <text x="30" y="254" font-family="Arial, sans-serif" font-size="9" fill="#37474F">Дополнительные принадлежности — по предмету (линейка, калькулятор — если разрешён)</text>
<g transform="translate(443,58)"><circle cx="20" cy="22" r="16" fill="#B71C1C" opacity="0.08" stroke="#B71C1C" stroke-width="1.5"/><path d="M12,22 L18,28 L30,14" fill="none" stroke="#B71C1C" stroke-width="3" opacity="0.2" stroke-linecap="round" stroke-linejoin="round"/></g>
  <line x1="15" y1="334" x2="485" y2="334" stroke="#B71C1C" stroke-width="0.5" opacity="0.3"/>
  <text x="250" y="338" font-family="Arial, sans-serif" font-size="8" fill="#9E9E9E" text-anchor="middle">Подготовка к ЕГЭ · 10 класс</text>
</svg>