<svg xmlns="http://www.w3.org/2000/svg" viewBox="0 0 500 350">
<defs>
  <linearGradient id="bg" x1="0%" y1="0%" x2="100%" y2="100%">
    <stop offset="0%" style="stop-color:#2E7D32"/>
    <stop offset="100%" style="stop-color:#81C784"/>
  </linearGradient>
  <linearGradient id="card" x1="0%" y1="0%" x2="0%" y2="100%">
    <stop offset="0%" style="stop-color:rgba(255,255,255,0.95)"/>
    <stop offset="100%" style="stop-color:rgba(255,255,255,0.85)"/>
  </linearGradient>
</defs>
<rect width="500" height="350" fill="url(#bg)"/>
<ellipse cx="60" cy="50" rx="15" ry="8" fill="white" opacity="0.08" transform="rotate(-30 60 50)"/>
<ellipse cx="180" cy="30" rx="15" ry="8" fill="white" opacity="0.08" transform="rotate(-30 180 30)"/>
<ellipse cx="350" cy="70" rx="15" ry="8" fill="white" opacity="0.08" transform="rotate(-30 350 70)"/>
<ellipse cx="440" cy="40" rx="15" ry="8" fill="white" opacity="0.08" transform="rotate(-30 440 40)"/>
<ellipse cx="100" cy="180" rx="15" ry="8" fill="white" opacity="0.08" transform="rotate(-30 100 180)"/>
<ellipse cx="300" cy="160" rx="15" ry="8" fill="white" opacity="0.08" transform="rotate(-30 300 160)"/>
<ellipse cx="60" cy="280" rx="15" ry="8" fill="white" opacity="0.08" transform="rotate(-30 60 280)"/>
<ellipse cx="420" cy="250" rx="15" ry="8" fill="white" opacity="0.08" transform="rotate(-30 420 250)"/>
<rect x="20" y="50" width="460" height="270" rx="16" fill="url(#card)" opacity="0.92"/>
<rect x="30" y="60" width="auto" height="24" rx="12" fill="#2E7D32" opacity="0.9"/>
<rect x="30" y="60" width="132" height="24" rx="12" fill="#2E7D32" opacity="0.9"/>
<text x="96" y="77" text-anchor="middle" font-family="Arial,sans-serif" font-size="11" fill="white" font-weight="bold">Природоведение</text>
<text x="470" y="77" text-anchor="end" font-family="Arial,sans-serif" font-size="11" fill="#2E7D32" font-weight="bold">Урок 4</text>
<text x="40" y="105" font-family="Arial,sans-serif" font-size="18" fill="#1a1a1a" font-weight="bold">Климат и жизнь</text>
<line x1="40" y1="115" x2="460" y2="115" stroke="#C8E6C9" stroke-width="2"/>
<text x="40" y="135" font-family="Arial,sans-serif" font-size="13" fill="#444">Климат влияет на растения, животных и образ жизни людей.</text>
<circle cx="50" cy="160" r="4" fill="#2E7D32"/>
<text x="62" y="165" font-family="Arial,sans-serif" font-size="12" fill="#333">Объяснять адаптацию организмов</text>
<circle cx="50" cy="185" r="4" fill="#2E7D32"/>
<text x="62" y="190" font-family="Arial,sans-serif" font-size="12" fill="#333">Сравнивать жителей разных зон</text>
<circle cx="50" cy="210" r="4" fill="#2E7D32"/>
<text x="62" y="215" font-family="Arial,sans-serif" font-size="12" fill="#333">Понимать значение климата</text>
<circle cx="50" cy="235" r="4" fill="#2E7D32"/>
<text x="62" y="240" font-family="Arial,sans-serif" font-size="12" fill="#333">Беречь природу</text>
<rect x="40" y="260" width="70" height="18" rx="9" fill="#2E7D32" opacity="0.15"/>
<text x="75" y="273" text-anchor="middle" font-family="Arial,sans-serif" font-size="10" fill="#2E7D32" font-weight="bold">4 заданий</text>
<circle cx="460" cy="310" r="25" fill="#2E7D32" opacity="0.15"/>
<circle cx="460" cy="310" r="15" fill="#2E7D32" opacity="0.1"/>
</svg>