<svg xmlns="http://www.w3.org/2000/svg" viewBox="0 0 500 350">
  <defs>
    <linearGradient id="bg" x1="0" y1="0" x2="0" y2="1">
      <stop offset="0%" stop-color="#FFEBEE"/>
      <stop offset="100%" stop-color="#FFFFFF"/>
    </linearGradient>
    <linearGradient id="panel" x1="0" y1="0" x2="1" y2="0">
      <stop offset="0%" stop-color="#D32F2F"/>
      <stop offset="100%" stop-color="#B71C1C"/>
    </linearGradient>
  </defs>
  <rect width="500" height="350" fill="url(#bg)" rx="10"/>
  <rect x="3" y="3" width="494" height="344" rx="8" fill="none" stroke="#D32F2F" stroke-width="3"/>
  <rect x="8" y="8" width="484" height="334" rx="6" fill="none" stroke="#D32F2F" stroke-width="1" opacity="0.3"/>
  <polygon points="10,10 30,10 10,30" fill="#D32F2F" opacity="0.12"/>
  <polygon points="490,10 470,10 490,30" fill="#B71C1C" opacity="0.12"/>
  <polygon points="10,340 30,340 10,320" fill="#D32F2F" opacity="0.12"/>
  <polygon points="490,340 470,340 490,320" fill="#B71C1C" opacity="0.12"/>
  <text x="250" y="48" font-family="Arial,sans-serif" font-size="22" font-weight="bold" fill="#D32F2F" text-anchor="middle">Урок 9: Изобразительно-выразительные средства</text>
  <text x="250" y="68" font-family="Arial,sans-serif" font-size="12" fill="#777" text-anchor="middle">Русский язык - Урок 9</text>
  <line x1="30" y1="78" x2="470" y2="78" stroke="#D32F2F" stroke-width="2" opacity="0.25"/>
  <rect x="30" y="75" width="60" height="5" fill="#D32F2F" opacity="0.18" rx="1"/>
  <rect x="410" y="75" width="60" height="5" fill="#B71C1C" opacity="0.12" rx="1"/>
  <clipPath id="ill"><rect x="15" y="85" width="470" height="215" rx="6"/></clipPath>
  <g clip-path="url(#ill)">
  <rect x="15" y="85" width="470" height="215" fill="#FFEBEE" opacity="0.5"/>
  <text x="250" y="175" font-family="serif" font-size="36" fill="#D32F2F" text-anchor="middle" opacity="0.5">Аа</text><line x1="180" y1="195" x2="320" y2="195" stroke="#D32F2F" stroke-width="1" opacity="0.3"/><text x="250" y="220" font-family="serif" font-size="14" fill="#B71C1C" text-anchor="middle" opacity="0.4">Бб Вв</text>
  </g>
  <rect x="10" y="305" width="480" height="35" fill="url(#panel)" opacity="0.08" rx="5"/>
  <text x="250" y="327" font-family="Arial,sans-serif" font-size="11" fill="#D32F2F" text-anchor="middle" opacity="0.6">11 класс • Русский язык</text>
</svg>