<svg xmlns="http://www.w3.org/2000/svg" viewBox="0 0 500 350">
  <defs><linearGradient id="bg" x1="0" y1="0" x2="1" y2="1"><stop offset="0%" stop-color="#FFF8E1"/><stop offset="100%" stop-color="#FFFDE7"/></linearGradient></defs>
  <rect width="500" height="350" fill="url(#bg)" rx="10"/>
  <rect x="3" y="3" width="494" height="344" rx="8" fill="none" stroke="#C62828" stroke-width="3"/>
  <rect x="8" y="8" width="484" height="334" rx="6" fill="none" stroke="#C62828" stroke-width="1" opacity="0.3"/>
  <polygon points="10,10 30,10 10,30" fill="#C62828" opacity="0.08"/>
  <polygon points="490,10 470,10 490,30" fill="#1565C0" opacity="0.08"/>
  <polygon points="10,340 30,340 10,320" fill="#F9A825" opacity="0.08"/>
  <polygon points="490,340 470,340 490,320" fill="#2E7D32" opacity="0.08"/>
  <circle cx="70" cy="15" r="4" fill="#C62828" opacity="0.1"/>
  <circle cx="82" cy="15" r="4" fill="#1565C0" opacity="0.1"/>
  <circle cx="94" cy="15" r="4" fill="#F9A825" opacity="0.1"/>
  <circle cx="406" cy="15" r="4" fill="#C62828" opacity="0.1"/>
  <circle cx="418" cy="15" r="4" fill="#1565C0" opacity="0.1"/>
  <circle cx="430" cy="15" r="4" fill="#F9A825" opacity="0.1"/>
  <text x="250" y="50" font-family="Arial,sans-serif" font-size="24" font-weight="bold" fill="#C62828" text-anchor="middle">Силы в природе</text>
  <text x="250" y="68" font-family="Arial,sans-serif" font-size="12" fill="#777" text-anchor="middle">Физика - Урок 26</text>
  <line x1="30" y1="78" x2="470" y2="78" stroke="#C62828" stroke-width="2" opacity="0.25"/>
  <rect x="30" y="75" width="60" height="6" fill="#C62828" opacity="0.15" rx="1"/>
  <rect x="410" y="75" width="60" height="6" fill="#1565C0" opacity="0.12" rx="1"/>

  <rect x="25" y="90" width="220" height="200" rx="6" fill="white" stroke="#F9A825" stroke-width="1.5"/>
  <text x="135" y="115" font-family="Arial,sans-serif" font-size="13" fill="#F9A825" text-anchor="middle" font-weight="bold">Силы в природе</text>
  <!-- Block on surface -->
  <rect x="75" y="150" width="60" height="35" rx="3" fill="#FFCC80" stroke="#E65100" stroke-width="1.5"/>
  <text x="105" y="172" font-family="Arial,sans-serif" font-size="9" fill="#E65100" text-anchor="middle">F</text>
  <line x1="55" y1="185" x2="160" y2="185" stroke="#888" stroke-width="2"/>
  <!-- Pressure arrows -->
  <line x1="90" y1="138" x2="90" y2="150" stroke="#C62828" stroke-width="2"/>
  <line x1="120" y1="138" x2="120" y2="150" stroke="#C62828" stroke-width="2"/>
  <text x="135" y="140" font-family="Arial,sans-serif" font-size="8" fill="#C62828">F</text>
  <!-- Area markers -->
  <line x1="75" y1="190" x2="135" y2="190" stroke="#1565C0" stroke-width="1"/>
  <line x1="75" y1="188" x2="75" y2="195" stroke="#1565C0" stroke-width="1"/>
  <line x1="135" y1="188" x2="135" y2="195" stroke="#1565C0" stroke-width="1"/>
  <text x="105" y="203" font-family="Arial,sans-serif" font-size="7" fill="#1565C0" text-anchor="middle">S</text>
  <text x="135" y="235" font-family="Arial,sans-serif" font-size="12" fill="#C62828" text-anchor="middle" font-weight="bold">p = F / S</text>
  <text x="135" y="255" font-family="Arial,sans-serif" font-size="8" fill="#888" text-anchor="middle">1 Па = 1 Н/м2</text>
  <!-- Man on snow -->
  <rect x="55" y="260" width="25" height="18" rx="8" fill="#E3F2FD" stroke="#1565C0" stroke-width="1"/>
  <circle cx="55" cy="258" r="5" fill="#FFCC80"/>
  <rect x="130" y="263" width="45" height="12" rx="4" fill="#E3F2FD" stroke="#1565C0" stroke-width="1"/>
  <circle cx="130" cy="261" r="5" fill="#FFCC80"/>
  <text x="105" y="285" font-family="Arial,sans-serif" font-size="7" fill="#1565C0" text-anchor="middle">меньше S = больше p</text>

  <rect x="260" y="90" width="215" height="200" rx="6" fill="white" stroke="#C62828" stroke-width="1.5"/>
  <text x="367" y="115" font-family="Arial,sans-serif" font-size="12" fill="#C62828" text-anchor="middle" font-weight="bold">Физические величины</text>
  <!-- Table of quantities -->
  <line x1="280" y1="130" x2="455" y2="130" stroke="#E0E0E0" stroke-width="1"/>
  <text x="310" y="145" font-family="Arial,sans-serif" font-size="8" fill="#1565C0" text-anchor="middle">Сила</text>
  <text x="390" y="145" font-family="Arial,sans-serif" font-size="8" fill="#C62828" text-anchor="middle">Н</text>
  <line x1="280" y1="155" x2="455" y2="155" stroke="#E0E0E0" stroke-width="1"/>
  <text x="310" y="170" font-family="Arial,sans-serif" font-size="8" fill="#1565C0" text-anchor="middle">Давление</text>
  <text x="390" y="170" font-family="Arial,sans-serif" font-size="8" fill="#C62828" text-anchor="middle">Па</text>
  <line x1="280" y1="180" x2="455" y2="180" stroke="#E0E0E0" stroke-width="1"/>
  <text x="310" y="195" font-family="Arial,sans-serif" font-size="8" fill="#1565C0" text-anchor="middle">Работа</text>
  <text x="390" y="195" font-family="Arial,sans-serif" font-size="8" fill="#C62828" text-anchor="middle">Дж</text>
  <line x1="280" y1="205" x2="455" y2="205" stroke="#E0E0E0" stroke-width="1"/>
  <text x="310" y="220" font-family="Arial,sans-serif" font-size="8" fill="#1565C0" text-anchor="middle">Мощность</text>
  <text x="390" y="220" font-family="Arial,sans-serif" font-size="8" fill="#C62828" text-anchor="middle">Вт</text>
  <line x1="280" y1="230" x2="455" y2="230" stroke="#E0E0E0" stroke-width="1"/>
  <text x="310" y="245" font-family="Arial,sans-serif" font-size="8" fill="#1565C0" text-anchor="middle">Скорость</text>
  <text x="390" y="245" font-family="Arial,sans-serif" font-size="8" fill="#C62828" text-anchor="middle">м/с</text>
  <!-- Experiment apparatus -->
  <rect x="290" y="255" width="70" height="25" rx="3" fill="#E8EAF6" stroke="#7986CB" stroke-width="1"/>
  <circle cx="320" cy="268" r="8" fill="white" stroke="#7986CB" stroke-width="1"/>
  <line x1="320" y1="262" x2="320" y2="268" stroke="#333" stroke-width="1"/>
  <line x1="320" y1="268" x2="325" y2="265" stroke="#333" stroke-width="1"/>
  <text x="390" y="270" font-family="Arial,sans-serif" font-size="7" fill="#555" text-anchor="middle">лаборатория</text>
  <rect x="15" y="310" width="470" height="30" rx="4" fill="#C62828" opacity="0.85"/>
  <text x="250" y="330" font-family="Arial,sans-serif" font-size="15" text-anchor="middle" fill="white" font-weight="bold">Физика</text>
</svg>