<svg xmlns="http://www.w3.org/2000/svg" viewBox="0 0 500 350">
  <defs>
    <linearGradient id="bg" x1="0" y1="0" x2="0" y2="1">
      <stop offset="0%" stop-color="#F3E5F5"/>
      <stop offset="100%" stop-color="#FFFFFF"/>
    </linearGradient>
    <linearGradient id="panel" x1="0" y1="0" x2="1" y2="0">
      <stop offset="0%" stop-color="#6A1B9A"/>
      <stop offset="100%" stop-color="#4A148C"/>
    </linearGradient>
    <marker id="arrowBlue" markerWidth="6" markerHeight="4" refX="6" refY="2" orient="auto">
      <polygon points="0,0 6,2 0,4" fill="#6A1B9A"/>
    </marker>
    <marker id="arrowRed" markerWidth="6" markerHeight="4" refX="6" refY="2" orient="auto">
      <polygon points="0,0 6,2 0,4" fill="#E53935"/>
    </marker>
    <marker id="arrowGreen" markerWidth="6" markerHeight="4" refX="6" refY="2" orient="auto">
      <polygon points="0,0 6,2 0,4" fill="#4CAF50"/>
    </marker>
    <marker id="arrowDark" markerWidth="6" markerHeight="4" refX="6" refY="2" orient="auto">
      <polygon points="0,0 6,2 0,4" fill="#333"/>
    </marker>
  </defs>
  <rect width="500" height="350" fill="url(#bg)" rx="10"/>
  <rect x="3" y="3" width="494" height="344" rx="8" fill="none" stroke="#6A1B9A" stroke-width="2.5"/>
  <text x="250" y="48" font-family="Arial,sans-serif" font-size="20" font-weight="bold" fill="#6A1B9A" text-anchor="middle">Системы уравнений</text>
  <text x="250" y="68" font-family="Arial,sans-serif" font-size="12" fill="#777" text-anchor="middle">Алгебра — Урок 6</text>
  <line x1="30" y1="78" x2="470" y2="78" stroke="#6A1B9A" stroke-width="2" opacity="0.25"/>
  <clipPath id="ill"><rect x="15" y="85" width="470" height="215" rx="6"/></clipPath>
  <g clip-path="url(#ill)">
    <rect x="15" y="85" width="470" height="215" fill="#F3E5F5" opacity="0.5"/>
    <!-- Graphical method -->
    <rect x="25" y="95" width="220" height="130" rx="5" fill="white" opacity="0.7" stroke="#6A1B9A" stroke-width="1"/>
    <text x="135" y="110" font-family="Arial,sans-serif" font-size="10" fill="#4A148C" text-anchor="middle" font-weight="bold">Графический метод</text>
    <line x1="40" y1="200" x2="235" y2="200" stroke="#888" stroke-width="0.5"/>
    <line x1="40" y1="200" x2="40" y2="115" stroke="#888" stroke-width="0.5"/>
    <!-- Two curves -->
    <path d="M45,185 Q80,150 110,155 Q140,160 170,130 Q200,100 230,115" fill="none" stroke="#6A1B9A" stroke-width="2"/>
    <path d="M45,170 Q80,180 110,165 Q140,150 170,155 Q200,165 230,135" fill="none" stroke="#E53935" stroke-width="2"/>
    <!-- Intersection points -->
    <circle cx="80" cy="173" r="4" fill="#4CAF50" stroke="#4CAF50" stroke-width="1"/>
    <circle cx="155" cy="152" r="4" fill="#4CAF50" stroke="#4CAF50" stroke-width="1"/>
    <text x="82" y="168" font-family="Arial,sans-serif" font-size="8" fill="#4A148C">f(x)</text>
    <text x="82" y="185" font-family="Arial,sans-serif" font-size="8" fill="#E53935">g(x)</text>
    <text x="120" y="148" font-family="Arial,sans-serif" font-size="8" fill="#4CAF50">решения</text>
    <!-- Methods -->
    <rect x="260" y="95" width="215" height="130" rx="3" fill="white" opacity="0.9" stroke="#6A1B9A" stroke-width="1"/>
    <text x="367" y="110" font-family="Arial,sans-serif" font-size="10" fill="#4A148C" text-anchor="middle" font-weight="bold">Методы решения</text>
    <text x="270" y="130" font-family="Arial,sans-serif" font-size="10" fill="#4A148C" font-weight="bold">1. Подстановка:</text>
    <text x="270" y="145" font-family="Arial,sans-serif" font-size="9" fill="#444">y = f(x) → подставить в другое</text>
    <text x="270" y="162" font-family="Arial,sans-serif" font-size="10" fill="#4A148C" font-weight="bold">2. Сложение:</text>
    <text x="270" y="177" font-family="Arial,sans-serif" font-size="9" fill="#444">Умножить и сложить уравнения</text>
    <text x="270" y="194" font-family="Arial,sans-serif" font-size="10" fill="#4A148C" font-weight="bold">3. Замена:</text>
    <text x="270" y="209" font-family="Arial,sans-serif" font-size="9" fill="#444">Ввести новые переменные</text>
    <text x="270" y="226" font-family="Arial,sans-serif" font-size="10" fill="#4A148C" font-weight="bold">4. Графический</text>
    <!-- Example -->
    <rect x="20" y="230" width="460" height="66" rx="5" fill="white" opacity="0.9" stroke="#6A1B9A" stroke-width="1"/>
    <text x="30" y="248" font-family="Arial,sans-serif" font-size="11" fill="#4A148C" font-weight="bold">Пример (замена):</text>
    <text x="30" y="265" font-family="Arial,sans-serif" font-size="10" fill="#444">{ x+y = 5;  x²+y² = 13 }</text>
    <text x="30" y="280" font-family="Arial,sans-serif" font-size="10" fill="#444">y = 5−x → x²+(5−x)² = 13 → 2x²−10x+12 = 0 → x = 2 или x = 3</text>
    <text x="30" y="293" font-family="Arial,sans-serif" font-size="10" fill="#6A1B9A">Ответ: (2;3), (3;2)</text>
    
  </g>
  <rect x="12" y="305" width="476" height="32" rx="5" fill="url(#panel)"/>
  <text x="250" y="326" font-family="Arial,sans-serif" font-size="15" text-anchor="middle" fill="white" font-weight="bold">Алгебра · 11 класс</text>
</svg>