<svg xmlns="http://www.w3.org/2000/svg" viewBox="0 0 500 350">
<defs>
<linearGradient id="bg" x1="0" y1="0" x2="1" y2="1"><stop offset="0%" stop-color="#E8F5E9"/><stop offset="100%" stop-color="#C8E6C9"/></linearGradient>
</defs>
<rect width="500" height="350" fill="url(#bg)" rx="10"/>
<rect x="3" y="3" width="494" height="344" rx="8" fill="none" stroke="#2E7D32" stroke-width="2.5"/>
<text x="250" y="28" font-family="Arial,sans-serif" font-size="14" font-weight="bold" fill="#2E7D32" text-anchor="middle">Класс Однодольные (Monocotyledones)</text>
<text x="250" y="44" font-family="Arial,sans-serif" font-size="10" fill="#888" text-anchor="middle">Биология 7 класс — Урок 25</text>
<line x1="30" y1="50" x2="470" y2="50" stroke="#2E7D32" stroke-width="1.5" opacity="0.25"/>

<!-- Section: 5 Features of Monocots -->
<text x="250" y="66" font-family="Arial,sans-serif" font-size="9" font-weight="bold" fill="#1B5E20" text-anchor="middle">Признаки однодольных</text>

<!-- Feature 1: 1 cotyledon -->
<g transform="translate(55,95)">
  <rect x="-42" y="-18" width="84" height="38" fill="white" fill-opacity="0.5" rx="4" stroke="#A5D6A7" stroke-width="0.6"/>
  <ellipse cx="0" cy="0" rx="10" ry="7" fill="#A1887F" stroke="#6D4C41" stroke-width="0.6"/>
  <ellipse cx="0" cy="0" rx="6" ry="5" fill="#C8E6C9" stroke="#81C784" stroke-width="0.4"/>
  <text x="0" y="3" font-family="Arial,sans-serif" font-size="5" fill="#2E7D32" text-anchor="middle">1</text>
  <text x="0" y="-22" font-family="Arial,sans-serif" font-size="6" font-weight="bold" fill="#2E7D32" text-anchor="middle">1 семядоля</text>
  <text x="0" y="14" font-family="Arial,sans-serif" font-size="4" fill="#555" text-anchor="middle">зародыш с 1 семядолей</text>
</g>

<!-- Feature 2: Parallel venation -->
<g transform="translate(155,95)">
  <rect x="-42" y="-18" width="84" height="38" fill="white" fill-opacity="0.5" rx="4" stroke="#A5D6A7" stroke-width="0.6"/>
  <path d="M0,-12 Q-10,-4 -8,6 Q-6,12 0,14 Q6,12 8,6 Q10,-4 0,-12Z" fill="#A5D6A7" stroke="#2E7D32" stroke-width="0.5"/>
  <line x1="-3" y1="-10" x2="-3" y2="12" stroke="#2E7D32" stroke-width="0.3"/>
  <line x1="0" y1="-12" x2="0" y2="14" stroke="#2E7D32" stroke-width="0.4"/>
  <line x1="3" y1="-10" x2="3" y2="12" stroke="#2E7D32" stroke-width="0.3"/>
  <line x1="-6" y1="-4" x2="-6" y2="8" stroke="#2E7D32" stroke-width="0.2"/>
  <line x1="6" y1="-4" x2="6" y2="8" stroke="#2E7D32" stroke-width="0.2"/>
  <text x="0" y="-22" font-family="Arial,sans-serif" font-size="6" font-weight="bold" fill="#2E7D32" text-anchor="middle">Параллельное жилков.</text>
  <text x="0" y="14" font-family="Arial,sans-serif" font-size="4" fill="#555" text-anchor="middle">или дуговидное</text>
</g>

<!-- Feature 3: Fibrous roots -->
<g transform="translate(255,95)">
  <rect x="-42" y="-18" width="84" height="38" fill="white" fill-opacity="0.5" rx="4" stroke="#A5D6A7" stroke-width="0.6"/>
  <!-- Fibrous root system -->
  <line x1="0" y1="-6" x2="-8" y2="10" stroke="#795548" stroke-width="1"/>
  <line x1="0" y1="-6" x2="-4" y2="12" stroke="#795548" stroke-width="1"/>
  <line x1="0" y1="-6" x2="0" y2="12" stroke="#795548" stroke-width="1"/>
  <line x1="0" y1="-6" x2="4" y2="12" stroke="#795548" stroke-width="1"/>
  <line x1="0" y1="-6" x2="8" y2="10" stroke="#795548" stroke-width="1"/>
  <!-- Stem base -->
  <rect x="-3" y="-10" width="6" height="6" fill="#66BB6A" stroke="#4CAF50" stroke-width="0.4" rx="1"/>
  <text x="0" y="-22" font-family="Arial,sans-serif" font-size="6" font-weight="bold" fill="#2E7D32" text-anchor="middle">Мочковатая корн.</text>
  <text x="0" y="14" font-family="Arial,sans-serif" font-size="4" fill="#555" text-anchor="middle">нет главного корня</text>
</g>

<!-- Feature 4: 3-merous flowers -->
<g transform="translate(355,95)">
  <rect x="-42" y="-18" width="84" height="38" fill="white" fill-opacity="0.5" rx="4" stroke="#A5D6A7" stroke-width="0.6"/>
  <!-- 3-petal flower -->
  <ellipse cx="0" cy="-6" rx="4" ry="7" fill="#81D4FA" stroke="#0288D1" stroke-width="0.4"/>
  <ellipse cx="6" cy="4" rx="4" ry="7" fill="#81D4FA" stroke="#0288D1" stroke-width="0.4" transform="rotate(120 0 0)"/>
  <ellipse cx="-6" cy="4" rx="4" ry="7" fill="#81D4FA" stroke="#0288D1" stroke-width="0.4" transform="rotate(-120 0 0)"/>
  <circle cx="0" cy="0" r="2.5" fill="#FFD54F" stroke="#F9A825" stroke-width="0.3"/>
  <text x="0" y="-22" font-family="Arial,sans-serif" font-size="6" font-weight="bold" fill="#2E7D32" text-anchor="middle">3-членные цветки</text>
  <text x="0" y="14" font-family="Arial,sans-serif" font-size="4" fill="#555" text-anchor="middle">кратность 3</text>
</g>

<!-- Feature 5: No cambium -->
<g transform="translate(450,95)">
  <rect x="-35" y="-18" width="70" height="38" fill="white" fill-opacity="0.5" rx="4" stroke="#A5D6A7" stroke-width="0.6"/>
  <!-- Stem cross section - scattered bundles -->
  <circle cx="0" cy="0" r="12" fill="#A1887F" stroke="#6D4C41" stroke-width="0.5"/>
  <circle cx="0" cy="0" r="2" fill="#795548"/>
  <!-- Scattered vascular bundles -->
  <circle cx="-5" cy="-4" r="2" fill="#4CAF50" stroke="#2E7D32" stroke-width="0.3"/>
  <circle cx="5" cy="-4" r="2" fill="#4CAF50" stroke="#2E7D32" stroke-width="0.3"/>
  <circle cx="-6" cy="4" r="2" fill="#4CAF50" stroke="#2E7D32" stroke-width="0.3"/>
  <circle cx="6" cy="4" r="2" fill="#4CAF50" stroke="#2E7D32" stroke-width="0.3"/>
  <circle cx="0" cy="7" r="2" fill="#4CAF50" stroke="#2E7D32" stroke-width="0.3"/>
  <circle cx="0" cy="-7" r="2" fill="#4CAF50" stroke="#2E7D32" stroke-width="0.3"/>
  <!-- X marks no cambium ring -->
  <line x1="-3" y1="-3" x2="3" y2="3" stroke="#D32F2F" stroke-width="0.6"/>
  <line x1="3" y1="-3" x2="-3" y2="3" stroke="#D32F2F" stroke-width="0.6"/>
  <text x="0" y="-22" font-family="Arial,sans-serif" font-size="6" font-weight="bold" fill="#2E7D32" text-anchor="middle">Нет камбия</text>
  <text x="0" y="14" font-family="Arial,sans-serif" font-size="4" fill="#555" text-anchor="middle">рассеянные пучки</text>
</g>

<!-- Divider -->
<line x1="30" y1="128" x2="470" y2="128" stroke="#2E7D32" stroke-width="1" opacity="0.2"/>

<!-- Section: Семейство Злаки / Poaceae -->
<text x="165" y="142" font-family="Arial,sans-serif" font-size="9" font-weight="bold" fill="#1B5E20" text-anchor="middle">Семейство Злаки (Poaceae)</text>
<rect x="10" y="148" width="310" height="90" fill="white" fill-opacity="0.4" rx="5" stroke="#A5D6A7" stroke-width="0.8"/>

<!-- Culm (соломина) diagram -->
<g transform="translate(40,195)">
  <text x="0" y="-38" font-family="Arial,sans-serif" font-size="6" font-weight="bold" fill="#2E7D32" text-anchor="middle">Соломина</text>
  <!-- Hollow stem -->
  <rect x="-3" y="-32" width="6" height="40" fill="#81C784" stroke="#2E7D32" stroke-width="0.6" rx="1"/>
  <rect x="-1.5" y="-32" width="3" height="40" fill="#E8F5E9" rx="0.5"/>
  <!-- Nodes -->
  <line x1="-5" y1="-25" x2="5" y2="-25" stroke="#2E7D32" stroke-width="1.2"/>
  <line x1="-5" y1="-10" x2="5" y2="-10" stroke="#2E7D32" stroke-width="1.2"/>
  <line x1="-5" y1="5" x2="5" y2="5" stroke="#2E7D32" stroke-width="1.2"/>
  <!-- Leaves from nodes -->
  <path d="M3,-25 Q15,-28 20,-22 Q10,-22 3,-23" fill="#66BB6A" stroke="#4CAF50" stroke-width="0.4"/>
  <path d="M3,-10 Q15,-13 20,-7 Q10,-7 3,-8" fill="#66BB6A" stroke="#4CAF50" stroke-width="0.4"/>
  <text x="22" y="-22" font-family="Arial,sans-serif" font-size="4" fill="#555">Узел</text>
  <text x="22" y="-7" font-family="Arial,sans-serif" font-size="4" fill="#555">Междоузлие</text>
  <text x="0" y="16" font-family="Arial,sans-serif" font-size="4" fill="#555" text-anchor="middle">Полый стебель</text>
</g>

<!-- Spikelet structure -->
<g transform="translate(120,195)">
  <text x="0" y="-38" font-family="Arial,sans-serif" font-size="6" font-weight="bold" fill="#2E7D32" text-anchor="middle">Колосок</text>
  <!-- Spikelet axis -->
  <line x1="0" y1="-30" x2="0" y2="8" stroke="#795548" stroke-width="0.8"/>
  <!-- Glumes -->
  <path d="M0,-28 Q-10,-22 -8,-14 Q-6,-18 0,-20Z" fill="#C8E6C9" stroke="#4CAF50" stroke-width="0.4"/>
  <path d="M0,-28 Q10,-22 8,-14 Q6,-18 0,-20Z" fill="#C8E6C9" stroke="#4CAF50" stroke-width="0.4"/>
  <!-- Lemma & palea (flower) -->
  <path d="M0,-16 Q-8,-10 -6,-2 Q-4,-6 0,-8Z" fill="#A5D6A7" stroke="#66BB6A" stroke-width="0.4"/>
  <path d="M0,-16 Q8,-10 6,-2 Q4,-6 0,-8Z" fill="#A5D6A7" stroke="#66BB6A" stroke-width="0.4"/>
  <!-- Stamens -->
  <circle cx="-2" cy="-4" r="1" fill="#FFD54F"/>
  <circle cx="2" cy="-4" r="1" fill="#FFD54F"/>
  <circle cx="0" cy="-6" r="1" fill="#FFD54F"/>
  <!-- Pistil -->
  <ellipse cx="0" cy="-2" rx="1" ry="1.5" fill="#CE93D8"/>
  <!-- Labels -->
  <text x="14" y="-26" font-family="Arial,sans-serif" font-size="3.5" fill="#555">Колосковые</text>
  <text x="14" y="-22" font-family="Arial,sans-serif" font-size="3.5" fill="#555">чешуи</text>
  <text x="12" y="-12" font-family="Arial,sans-serif" font-size="3.5" fill="#555">Цветковые</text>
  <text x="12" y="-8" font-family="Arial,sans-serif" font-size="3.5" fill="#555">чешуи</text>
  <text x="0" y="16" font-family="Arial,sans-serif" font-size="4" fill="#555" text-anchor="middle">Т3 П1</text>
</g>

<!-- Caryopsis (зерновка) -->
<g transform="translate(200,195)">
  <text x="0" y="-38" font-family="Arial,sans-serif" font-size="6" font-weight="bold" fill="#2E7D32" text-anchor="middle">Зерновка</text>
  <!-- Caryopsis cross section -->
  <ellipse cx="0" cy="0" rx="10" ry="14" fill="#FFD54F" stroke="#F9A825" stroke-width="0.6"/>
  <!-- Pericarp fused with seed coat -->
  <ellipse cx="0" cy="0" rx="8" ry="12" fill="#FFF9C4" stroke="#FDD835" stroke-width="0.3"/>
  <!-- Endosperm -->
  <ellipse cx="0" cy="2" rx="6" ry="8" fill="#FFF8E1" stroke="#FFE082" stroke-width="0.3"/>
  <!-- Embryo -->
  <ellipse cx="-3" cy="-6" rx="3" ry="4" fill="#A5D6A7" stroke="#66BB6A" stroke-width="0.4"/>
  <text x="0" y="20" font-family="Arial,sans-serif" font-size="4" fill="#555" text-anchor="middle">Околоплодник сраст.</text>
  <text x="0" y="25" font-family="Arial,sans-serif" font-size="4" fill="#555" text-anchor="middle">с семенной кожурой</text>
</g>

<!-- Cereals with production data -->
<g transform="translate(275,195)">
  <text x="0" y="-38" font-family="Arial,sans-serif" font-size="6" font-weight="bold" fill="#2E7D32" text-anchor="middle">Крупнейшие злаки</text>
  <!-- Wheat -->
  <rect x="-30" y="-30" width="25" height="50" fill="#FFF8E1" stroke="#F9A825" stroke-width="0.4" rx="2"/>
  <text x="-17" y="-20" font-family="Arial,sans-serif" font-size="5" font-weight="bold" fill="#F57F17" text-anchor="middle">Пшеница</text>
  <!-- Wheat ear -->
  <line x1="-17" y1="-10" x2="-17" y2="10" stroke="#8D6E63" stroke-width="1"/>
  <ellipse cx="-17" cy="-8" rx="3" ry="2" fill="#FFD54F" stroke="#F9A825" stroke-width="0.3"/>
  <ellipse cx="-17" cy="-4" rx="3" ry="2" fill="#FFD54F" stroke="#F9A825" stroke-width="0.3"/>
  <ellipse cx="-17" cy="0" rx="3" ry="2" fill="#FFD54F" stroke="#F9A825" stroke-width="0.3"/>
  <ellipse cx="-17" cy="4" rx="3" ry="2" fill="#FFD54F" stroke="#F9A825" stroke-width="0.3"/>
  <ellipse cx="-17" cy="8" rx="3" ry="2" fill="#FFD54F" stroke="#F9A825" stroke-width="0.3"/>
  <text x="-17" y="16" font-family="Arial,sans-serif" font-size="3.5" fill="#555" text-anchor="middle">~770 млн т/год</text>

  <!-- Rice -->
  <rect x="-2" y="-30" width="25" height="50" fill="#E8F5E9" stroke="#4CAF50" stroke-width="0.4" rx="2"/>
  <text x="10" y="-20" font-family="Arial,sans-serif" font-size="5" font-weight="bold" fill="#2E7D32" text-anchor="middle">Рис</text>
  <!-- Rice panicle -->
  <line x1="10" y1="-10" x2="10" y2="5" stroke="#6D4C41" stroke-width="0.8"/>
  <path d="M10,-10 Q5,-14 3,-12" stroke="#6D4C41" stroke-width="0.5" fill="none"/>
  <ellipse cx="2" cy="-12" rx="2" ry="1.2" fill="#E8F5E9" stroke="#81C784" stroke-width="0.3"/>
  <path d="M10,-6 Q15,-10 17,-8" stroke="#6D4C41" stroke-width="0.5" fill="none"/>
  <ellipse cx="18" cy="-8" rx="2" ry="1.2" fill="#E8F5E9" stroke="#81C784" stroke-width="0.3"/>
  <path d="M10,0 Q5,-4 3,-2" stroke="#6D4C41" stroke-width="0.5" fill="none"/>
  <ellipse cx="2" cy="-2" rx="2" ry="1.2" fill="#E8F5E9" stroke="#81C784" stroke-width="0.3"/>
  <path d="M10,3 Q15,-1 17,1" stroke="#6D4C41" stroke-width="0.5" fill="none"/>
  <ellipse cx="18" cy="1" rx="2" ry="1.2" fill="#E8F5E9" stroke="#81C784" stroke-width="0.3"/>
  <text x="10" y="16" font-family="Arial,sans-serif" font-size="3.5" fill="#555" text-anchor="middle">~760 млн т/год</text>

  <!-- Corn/Maize -->
  <rect x="26" y="-30" width="25" height="50" fill="#FFF3E0" stroke="#FF9800" stroke-width="0.4" rx="2"/>
  <text x="38" y="-20" font-family="Arial,sans-serif" font-size="5" font-weight="bold" fill="#E65100" text-anchor="middle">Кукуруза</text>
  <!-- Corn ear -->
  <ellipse cx="38" cy="-2" rx="5" ry="10" fill="#FFD54F" stroke="#F9A825" stroke-width="0.5"/>
  <!-- Kernels pattern -->
  <circle cx="36" cy="-6" r="1.5" fill="#FFC107" stroke="#FF8F00" stroke-width="0.2"/>
  <circle cx="40" cy="-6" r="1.5" fill="#FFC107" stroke="#FF8F00" stroke-width="0.2"/>
  <circle cx="36" cy="-2" r="1.5" fill="#FFC107" stroke="#FF8F00" stroke-width="0.2"/>
  <circle cx="40" cy="-2" r="1.5" fill="#FFC107" stroke="#FF8F00" stroke-width="0.2"/>
  <circle cx="36" cy="2" r="1.5" fill="#FFC107" stroke="#FF8F00" stroke-width="0.2"/>
  <circle cx="40" cy="2" r="1.5" fill="#FFC107" stroke="#FF8F00" stroke-width="0.2"/>
  <!-- Husk -->
  <path d="M33,-8 Q30,-2 33,8" stroke="#66BB6A" stroke-width="0.5" fill="none"/>
  <path d="M43,-8 Q46,-2 43,8" stroke="#66BB6A" stroke-width="0.5" fill="none"/>
  <text x="38" y="16" font-family="Arial,sans-serif" font-size="3.5" fill="#555" text-anchor="middle">~1 200 млн т/год</text>
</g>

<!-- Section: Семейство Лилейные / Liliaceae -->
<text x="405" y="142" font-family="Arial,sans-serif" font-size="9" font-weight="bold" fill="#1B5E20" text-anchor="middle">Лилейные (Liliaceae)</text>
<rect x="330" y="148" width="160" height="90" fill="white" fill-opacity="0.4" rx="5" stroke="#A5D6A7" stroke-width="0.8"/>

<!-- Lily flower -->
<g transform="translate(370,190)">
  <text x="0" y="-28" font-family="Arial,sans-serif" font-size="6" font-weight="bold" fill="#2E7D32" text-anchor="middle">Лилия</text>
  <!-- 6 petals in 2 whorls of 3 -->
  <path d="M0,-20 Q-5,-14 0,-8 Q5,-14 0,-20Z" fill="#F48FB1" stroke="#E91E63" stroke-width="0.5"/>
  <path d="M0,-20 Q5,-14 0,-8 Q-5,-14 0,-20Z" fill="#F06292" stroke="#C2185B" stroke-width="0.4" transform="rotate(60 0 -14)"/>
  <path d="M0,-20 Q5,-14 0,-8 Q-5,-14 0,-20Z" fill="#F48FB1" stroke="#E91E63" stroke-width="0.4" transform="rotate(120 0 -14)"/>
  <path d="M0,-20 Q5,-14 0,-8 Q-5,-14 0,-20Z" fill="#EC407A" stroke="#AD1457" stroke-width="0.4" transform="rotate(180 0 -14)"/>
  <path d="M0,-20 Q5,-14 0,-8 Q-5,-14 0,-20Z" fill="#F06292" stroke="#C2185B" stroke-width="0.4" transform="rotate(240 0 -14)"/>
  <path d="M0,-20 Q5,-14 0,-8 Q-5,-14 0,-20Z" fill="#F48FB1" stroke="#E91E63" stroke-width="0.4" transform="rotate(300 0 -14)"/>
  <!-- Stamens 6 -->
  <line x1="-2" y1="-14" x2="-3" y2="-20" stroke="#F9A825" stroke-width="0.5"/>
  <circle cx="-3" cy="-21" r="1" fill="#FFD54F"/>
  <line x1="2" y1="-14" x2="3" y2="-20" stroke="#F9A825" stroke-width="0.5"/>
  <circle cx="3" cy="-21" r="1" fill="#FFD54F"/>
  <text x="0" y="0" font-family="Arial,sans-serif" font-size="4" fill="#555" text-anchor="middle">Ч3+3 Л3+3</text>
  <text x="0" y="5" font-family="Arial,sans-serif" font-size="4" fill="#555" text-anchor="middle">Т6 П1</text>
</g>

<!-- Tulip -->
<g transform="translate(420,190)">
  <text x="0" y="-28" font-family="Arial,sans-serif" font-size="6" font-weight="bold" fill="#2E7D32" text-anchor="middle">Тюльпан</text>
  <!-- Cup-shaped flower -->
  <path d="M-8,-8 Q-10,-16 -4,-22 Q0,-24 4,-22 Q10,-16 8,-8 Q4,-4 0,-4 Q-4,-4 -8,-8Z" fill="#FF5252" stroke="#D32F2F" stroke-width="0.5"/>
  <!-- Inner petals -->
  <path d="M-5,-8 Q-6,-14 -2,-18 Q0,-20 2,-18 Q6,-14 5,-8 Q3,-5 0,-5 Q-3,-5 -5,-8Z" fill="#FF8A80" stroke="#FF5252" stroke-width="0.3"/>
  <!-- Stem -->
  <line x1="0" y1="-4" x2="0" y2="8" stroke="#4CAF50" stroke-width="1.2"/>
  <!-- Leaf -->
  <path d="M0,2 Q-8,0 -12,4 Q-6,4 0,3" fill="#66BB6A" stroke="#4CAF50" stroke-width="0.3"/>
  <text x="0" y="16" font-family="Arial,sans-serif" font-size="4" fill="#555" text-anchor="middle">Простые околоцветники</text>
</g>

<!-- Onion bulb -->
<g transform="translate(465,190)">
  <text x="0" y="-28" font-family="Arial,sans-serif" font-size="6" font-weight="bold" fill="#2E7D32" text-anchor="middle">Лук</text>
  <!-- Bulb -->
  <ellipse cx="0" cy="-4" rx="8" ry="10" fill="#FFF9C4" stroke="#F9A825" stroke-width="0.5"/>
  <!-- Layers -->
  <ellipse cx="0" cy="-4" rx="6" ry="8" fill="#FFFDE7" stroke="#FFE082" stroke-width="0.3"/>
  <ellipse cx="0" cy="-4" rx="4" ry="6" fill="#E8F5E9" stroke="#A5D6A7" stroke-width="0.3"/>
  <!-- Roots -->
  <line x1="-3" y1="6" x2="-5" y2="12" stroke="#795548" stroke-width="0.5"/>
  <line x1="0" y1="6" x2="0" y2="12" stroke="#795548" stroke-width="0.5"/>
  <line x1="3" y1="6" x2="5" y2="12" stroke="#795548" stroke-width="0.5"/>
  <!-- Leaves -->
  <path d="M-3,-14 Q-6,-22 -4,-28" stroke="#4CAF50" stroke-width="0.8" fill="none"/>
  <path d="M3,-14 Q6,-22 4,-28" stroke="#4CAF50" stroke-width="0.8" fill="none"/>
  <text x="0" y="16" font-family="Arial,sans-serif" font-size="4" fill="#555" text-anchor="middle">Луковица</text>
</g>

<!-- Bottom section: Summary comparison & importance -->
<line x1="30" y1="244" x2="470" y2="244" stroke="#2E7D32" stroke-width="1" opacity="0.2"/>
<rect x="10" y="248" width="480" height="90" fill="white" fill-opacity="0.35" rx="5" stroke="#A5D6A7" stroke-width="0.6"/>
<text x="250" y="262" font-family="Arial,sans-serif" font-size="9" font-weight="bold" fill="#1B5E20" text-anchor="middle">Значение однодольных в жизни человека</text>

<!-- Food crops -->
<g transform="translate(70,290)">
  <rect x="-50" y="-18" width="100" height="40" fill="#FFF8E1" fill-opacity="0.5" rx="3" stroke="#F9A825" stroke-width="0.5"/>
  <text x="0" y="-8" font-family="Arial,sans-serif" font-size="6" font-weight="bold" fill="#F57F17" text-anchor="middle">Продовольственные</text>
  <text x="0" y="2" font-family="Arial,sans-serif" font-size="5" fill="#555" text-anchor="middle">Злаки — основа питания</text>
  <text x="0" y="10" font-family="Arial,sans-serif" font-size="5" fill="#555" text-anchor="middle">~60% калорий в мире</text>
  <text x="0" y="18" font-family="Arial,sans-serif" font-size="5" fill="#E65100" text-anchor="middle">пшеница, рис, кукуруза</text>
</g>

<!-- Ornamentals -->
<g transform="translate(190,290)">
  <rect x="-50" y="-18" width="100" height="40" fill="#FCE4EC" fill-opacity="0.5" rx="3" stroke="#E91E63" stroke-width="0.5"/>
  <text x="0" y="-8" font-family="Arial,sans-serif" font-size="6" font-weight="bold" fill="#C2185B" text-anchor="middle">Декоративные</text>
  <text x="0" y="2" font-family="Arial,sans-serif" font-size="5" fill="#555" text-anchor="middle">Лилии, тюльпаны</text>
  <text x="0" y="10" font-family="Arial,sans-serif" font-size="5" fill="#555" text-anchor="middle">Орхидеи, ирисы</text>
  <text x="0" y="18" font-family="Arial,sans-serif" font-size="5" fill="#C2185B" text-anchor="middle">цветоводство</text>
</g>

<!-- Industrial -->
<g transform="translate(310,290)">
  <rect x="-50" y="-18" width="100" height="40" fill="#E8F5E9" fill-opacity="0.5" rx="3" stroke="#4CAF50" stroke-width="0.5"/>
  <text x="0" y="-8" font-family="Arial,sans-serif" font-size="6" font-weight="bold" fill="#2E7D32" text-anchor="middle">Технические</text>
  <text x="0" y="2" font-family="Arial,sans-serif" font-size="5" fill="#555" text-anchor="middle">Бамбук — строительство</text>
  <text x="0" y="10" font-family="Arial,sans-serif" font-size="5" fill="#555" text-anchor="middle">Сахарный тростник</text>
  <text x="0" y="18" font-family="Arial,sans-serif" font-size="5" fill="#2E7D32" text-anchor="middle">~80% сахара в мире</text>
</g>

<!-- Ecological -->
<g transform="translate(430,290)">
  <rect x="-50" y="-18" width="100" height="40" fill="#E3F2FD" fill-opacity="0.5" rx="3" stroke="#1565C0" stroke-width="0.5"/>
  <text x="0" y="-8" font-family="Arial,sans-serif" font-size="6" font-weight="bold" fill="#0D47A1" text-anchor="middle">Экологические</text>
  <text x="0" y="2" font-family="Arial,sans-serif" font-size="5" fill="#555" text-anchor="middle">Злаки — пастбища</text>
  <text x="0" y="10" font-family="Arial,sans-serif" font-size="5" fill="#555" text-anchor="middle">Защита почвы</text>
  <text x="0" y="18" font-family="Arial,sans-serif" font-size="5" fill="#0D47A1" text-anchor="middle">степи, саванны</text>
</g>

<!-- Bottom note -->
<text x="250" y="344" font-family="Arial,sans-serif" font-size="5" fill="#888" text-anchor="middle">Однодольные — ~60 000 видов | Злаки (Poaceae) ~12 000 видов | Лилейные (Liliaceae) ~1 600 видов</text>
</svg>