<svg xmlns="http://www.w3.org/2000/svg" viewBox="0 0 500 350">
<defs>
<linearGradient id="bg" x1="0" y1="0" x2="1" y2="1"><stop offset="0%" stop-color="#E0F7FA"/><stop offset="100%" stop-color="#B2EBF2"/></linearGradient>
<linearGradient id="waterGrad" x1="0" y1="0" x2="0" y2="1"><stop offset="0%" stop-color="#4DD0E1" stop-opacity="0.3"/><stop offset="100%" stop-color="#00838F" stop-opacity="0.5"/></linearGradient>
</defs>
<rect width="500" height="350" fill="url(#bg)" rx="10"/>
<rect x="3" y="3" width="494" height="344" rx="8" fill="none" stroke="#00695C" stroke-width="2.5"/>
<text x="250" y="28" font-family="Arial,sans-serif" font-size="14" font-weight="bold" fill="#004D40" text-anchor="middle">Водоросли</text>
<text x="250" y="43" font-family="Arial,sans-serif" font-size="9" fill="#666" text-anchor="middle">Биология 5 класс — Урок 18</text>
<line x1="30" y1="50" x2="470" y2="50" stroke="#00695C" stroke-width="1" opacity="0.3"/>

<!-- Water background -->
<rect x="30" y="55" width="440" height="255" rx="6" fill="url(#waterGrad)"/>

<!-- Зелёные водоросли -->
<g transform="translate(100,160)">
  <rect x="-55" y="-70" width="110" height="135" rx="6" fill="white" opacity="0.9" stroke="#2E7D32" stroke-width="1.5"/>
  <text x="0" y="-53" font-family="Arial,sans-serif" font-size="7" fill="#1B5E20" text-anchor="middle" font-weight="bold">ЗЕЛЁНЫЕ</text>
  <line x1="-45" y1="-47" x2="45" y2="-47" stroke="#2E7D32" stroke-width="0.5"/>
  
  <!-- Spirogyra - spiral chloroplast -->
  <rect x="-5" y="-35" width="12" height="55" rx="6" fill="#C8E6C9" stroke="#4CAF50" stroke-width="1" opacity="0.7"/>
  <path d="M1,-30 Q6,-25 1,-20 Q-4,-15 1,-10 Q6,-5 1,0 Q-4,5 1,10 Q6,15 1,20" fill="none" stroke="#2E7D32" stroke-width="1.5"/>
  <!-- Another cell -->
  <rect x="10" y="-25" width="12" height="45" rx="6" fill="#C8E6C9" stroke="#4CAF50" stroke-width="1" opacity="0.7"/>
  <path d="M16,-20 Q21,-15 16,-10 Q11,-5 16,0 Q21,5 16,10" fill="none" stroke="#2E7D32" stroke-width="1.5"/>
  <!-- Nuclei -->
  <circle cx="1" cy="-5" r="3" fill="#81C784" stroke="#2E7D32" stroke-width="0.5"/>
  <circle cx="16" cy="0" r="3" fill="#81C784" stroke="#2E7D32" stroke-width="0.5"/>
  
  <!-- Chlamydomonas -->
  <circle cx="-30" cy="25" r="10" fill="#81C784" stroke="#2E7D32" stroke-width="1"/>
  <ellipse cx="-30" cy="25" rx="5" ry="3" fill="#4CAF50" stroke="#2E7D32" stroke-width="0.5"/>
  <circle cx="-33" cy="22" r="2" fill="#F44336" stroke="#C62828" stroke-width="0.5"/>
  <path d="M-25,20 Q-20,18 -18,15" fill="none" stroke="#2E7D32" stroke-width="1"/>
  <path d="M-25,22 Q-20,22 -18,22" fill="none" stroke="#2E7D32" stroke-width="1"/>
  
  <text x="0" y="48" font-family="Arial,sans-serif" font-size="5" fill="#1B5E20" text-anchor="middle">Спирогира, хламидомонада</text>
  <text x="0" y="56" font-family="Arial,sans-serif" font-size="5" fill="#1B5E20" text-anchor="middle">Пресные воды</text>
</g>

<!-- Бурые водоросли -->
<g transform="translate(250,160)">
  <rect x="-55" y="-70" width="110" height="135" rx="6" fill="white" opacity="0.9" stroke="#795548" stroke-width="1.5"/>
  <text x="0" y="-53" font-family="Arial,sans-serif" font-size="7" fill="#4E342E" text-anchor="middle" font-weight="bold">БУРЫЕ</text>
  <line x1="-45" y1="-47" x2="45" y2="-47" stroke="#795548" stroke-width="0.5"/>
  
  <!-- Laminaria (морская капуста) -->
  <path d="M-5,-40 L-5,35" stroke="#8D6E63" stroke-width="3"/>
  <!-- Holdfast -->
  <path d="M-15,35 Q-10,40 -5,35 Q0,40 5,35 Q10,40 15,35" fill="none" stroke="#6D4C41" stroke-width="1.5"/>
  <!-- Blade -->
  <path d="M-5,-40 Q-25,-35 -20,-15 Q-15,5 -20,25" fill="none" stroke="#A1887F" stroke-width="8" stroke-linecap="round" opacity="0.7"/>
  <path d="M-5,-40 Q15,-35 10,-15 Q5,5 10,25" fill="none" stroke="#BCAAA4" stroke-width="6" stroke-linecap="round" opacity="0.6"/>
  <!-- Midrib -->
  <path d="M-5,-40 L-5,30" stroke="#6D4C41" stroke-width="1.5"/>
  
  <!-- Fucus -->
  <path d="M25,-35 Q20,-25 25,-15 Q30,-5 25,5 Q20,15 25,25" fill="none" stroke="#8D6E63" stroke-width="3" stroke-linecap="round"/>
  <path d="M25,-20 Q30,-18 32,-15" fill="none" stroke="#8D6E63" stroke-width="2" stroke-linecap="round"/>
  <!-- Air bladders -->
  <circle cx="28" cy="-10" r="3" fill="#D7CCC8" stroke="#8D6E63" stroke-width="0.5"/>
  
  <text x="0" y="48" font-family="Arial,sans-serif" font-size="5" fill="#4E342E" text-anchor="middle">Ламинария, фукус</text>
  <text x="0" y="56" font-family="Arial,sans-serif" font-size="5" fill="#4E342E" text-anchor="middle">Моря и океаны</text>
</g>

<!-- Красные водоросли -->
<g transform="translate(400,160)">
  <rect x="-55" y="-70" width="110" height="135" rx="6" fill="white" opacity="0.9" stroke="#C62828" stroke-width="1.5"/>
  <text x="0" y="-53" font-family="Arial,sans-serif" font-size="7" fill="#B71C1C" text-anchor="middle" font-weight="bold">КРАСНЫЕ</text>
  <line x1="-45" y1="-47" x2="45" y2="-47" stroke="#C62828" stroke-width="0.5"/>
  
  <!-- Branching red algae -->
  <path d="M0,-40 L0,-20" stroke="#E57373" stroke-width="2"/>
  <path d="M0,-20 Q-15,-15 -25,-10" stroke="#EF5350" stroke-width="1.5" fill="none"/>
  <path d="M0,-20 Q15,-15 25,-10" stroke="#EF5350" stroke-width="1.5" fill="none"/>
  <path d="M0,-20 Q0,-10 0,0" stroke="#E57373" stroke-width="1.5" fill="none"/>
  <path d="M-25,-10 Q-30,-5 -35,-5" stroke="#EF9A9A" stroke-width="1" fill="none"/>
  <path d="M-25,-10 Q-20,-5 -25,0" stroke="#EF9A9A" stroke-width="1" fill="none"/>
  <path d="M25,-10 Q30,-5 35,-5" stroke="#EF9A9A" stroke-width="1" fill="none"/>
  <path d="M25,-10 Q20,-5 25,0" stroke="#EF9A9A" stroke-width="1" fill="none"/>
  <path d="M0,0 Q-10,5 -15,15" stroke="#E57373" stroke-width="1" fill="none"/>
  <path d="M0,0 Q10,5 15,15" stroke="#E57373" stroke-width="1" fill="none"/>
  
  <!-- Porphyra (лавр) -->
  <path d="M-35,20 Q-25,10 -20,20 Q-15,30 -10,20 Q-5,10 0,20 Q5,30 10,20" fill="none" stroke="#C62828" stroke-width="1.5"/>
  
  <text x="0" y="48" font-family="Arial,sans-serif" font-size="5" fill="#B71C1C" text-anchor="middle">Порфира, родимения</text>
  <text x="0" y="56" font-family="Arial,sans-serif" font-size="5" fill="#B71C1C" text-anchor="middle">Глубокие моря</text>
</g>

<!-- Bottom characteristics -->
<rect x="30" y="310" width="440" height="25" rx="6" fill="white" opacity="0.9" stroke="#00695C" stroke-width="1"/>
<text x="250" y="322" font-family="Arial,sans-serif" font-size="6.5" fill="#004D40" text-anchor="middle" font-weight="bold">Водоросли: нет корней, стеблей, листьев · автотрофы (фотосинтез) · обитатели воды</text>
<text x="250" y="332" font-family="Arial,sans-serif" font-size="5.5" fill="#666" text-anchor="middle">Одноклеточные и многоклеточные · Размножение: вегетативное, бесполое (споры), половое</text>
</svg>