<svg xmlns="http://www.w3.org/2000/svg" viewBox="0 0 500 350">
<defs>
  <linearGradient id="bg" x1="0%" y1="0%" x2="100%" y2="100%">
    <stop offset="0%" style="stop-color:#E65100"/>
    <stop offset="100%" style="stop-color:#FFB74D"/>
  </linearGradient>
  <linearGradient id="card" x1="0%" y1="0%" x2="0%" y2="100%">
    <stop offset="0%" style="stop-color:rgba(255,255,255,0.95)"/>
    <stop offset="100%" style="stop-color:rgba(255,255,255,0.85)"/>
  </linearGradient>
</defs>
<rect width="500" height="350" fill="url(#bg)"/>
<line x1="-50" y1="0" x2="150" y2="350" stroke="white" stroke-width="1.5" opacity="0.08"/>
<line x1="30" y1="0" x2="230" y2="350" stroke="white" stroke-width="1.5" opacity="0.08"/>
<line x1="110" y1="0" x2="310" y2="350" stroke="white" stroke-width="1.5" opacity="0.08"/>
<line x1="190" y1="0" x2="390" y2="350" stroke="white" stroke-width="1.5" opacity="0.08"/>
<line x1="270" y1="0" x2="470" y2="350" stroke="white" stroke-width="1.5" opacity="0.08"/>
<line x1="350" y1="0" x2="550" y2="350" stroke="white" stroke-width="1.5" opacity="0.08"/>
<line x1="430" y1="0" x2="630" y2="350" stroke="white" stroke-width="1.5" opacity="0.08"/>
<line x1="510" y1="0" x2="710" y2="350" stroke="white" stroke-width="1.5" opacity="0.08"/>
<rect x="20" y="50" width="460" height="270" rx="16" fill="url(#card)" opacity="0.92"/>
<rect x="30" y="60" width="auto" height="24" rx="12" fill="#E65100" opacity="0.9"/>
<rect x="30" y="60" width="132" height="24" rx="12" fill="#E65100" opacity="0.9"/>
<text x="96" y="77" text-anchor="middle" font-family="Arial,sans-serif" font-size="11" fill="white" font-weight="bold">История России</text>
<text x="470" y="77" text-anchor="end" font-family="Arial,sans-serif" font-size="11" fill="#E65100" font-weight="bold">Урок 5</text>
<text x="40" y="105" font-family="Arial,sans-serif" font-size="18" fill="#1a1a1a" font-weight="bold">✝ Князь Владимир</text>
<line x1="40" y1="115" x2="460" y2="115" stroke="#FFE0B2" stroke-width="2"/>
<text x="40" y="135" font-family="Arial,sans-serif" font-size="13" fill="#444">Креститель Руси: выбор веры и крещение.</text>
<rect x="40" y="155" width="420" height="30" rx="6" fill="#E65100" opacity="0.08"/>
<text x="50" y="175" font-family="Arial,sans-serif" font-size="11" fill="#444">✝️ Владимира прозвали «Красное Солнышко»</text>
<rect x="40" y="191" width="420" height="30" rx="6" fill="#E65100" opacity="0.08"/>
<text x="50" y="211" font-family="Arial,sans-serif" font-size="11" fill="#444">✝️ После крещения Владимир стал примерным христиан...</text>
<rect x="40" y="227" width="420" height="30" rx="6" fill="#E65100" opacity="0.08"/>
<text x="50" y="247" font-family="Arial,sans-serif" font-size="11" fill="#444">✝️ Владимир — святой покровитель России</text>
<circle cx="460" cy="310" r="25" fill="#E65100" opacity="0.15"/>
<circle cx="460" cy="310" r="15" fill="#E65100" opacity="0.1"/>
</svg>