<svg xmlns="http://www.w3.org/2000/svg" viewBox="0 0 500 350">
<defs>
  <linearGradient id="bg" x1="0%" y1="0%" x2="100%" y2="100%">
    <stop offset="0%" style="stop-color:#E65100"/>
    <stop offset="100%" style="stop-color:#FFB74D"/>
  </linearGradient>
  <linearGradient id="card" x1="0%" y1="0%" x2="0%" y2="100%">
    <stop offset="0%" style="stop-color:rgba(255,255,255,0.95)"/>
    <stop offset="100%" style="stop-color:rgba(255,255,255,0.85)"/>
  </linearGradient>
</defs>
<rect width="500" height="350" fill="url(#bg)"/>
<line x1="-50" y1="0" x2="150" y2="350" stroke="white" stroke-width="1.5" opacity="0.08"/>
<line x1="30" y1="0" x2="230" y2="350" stroke="white" stroke-width="1.5" opacity="0.08"/>
<line x1="110" y1="0" x2="310" y2="350" stroke="white" stroke-width="1.5" opacity="0.08"/>
<line x1="190" y1="0" x2="390" y2="350" stroke="white" stroke-width="1.5" opacity="0.08"/>
<line x1="270" y1="0" x2="470" y2="350" stroke="white" stroke-width="1.5" opacity="0.08"/>
<line x1="350" y1="0" x2="550" y2="350" stroke="white" stroke-width="1.5" opacity="0.08"/>
<line x1="430" y1="0" x2="630" y2="350" stroke="white" stroke-width="1.5" opacity="0.08"/>
<line x1="510" y1="0" x2="710" y2="350" stroke="white" stroke-width="1.5" opacity="0.08"/>
<rect x="20" y="50" width="460" height="270" rx="16" fill="url(#card)" opacity="0.92"/>
<rect x="30" y="60" width="auto" height="24" rx="12" fill="#E65100" opacity="0.9"/>
<rect x="30" y="60" width="132" height="24" rx="12" fill="#E65100" opacity="0.9"/>
<text x="96" y="77" text-anchor="middle" font-family="Arial,sans-serif" font-size="11" fill="white" font-weight="bold">История России</text>
<text x="470" y="77" text-anchor="end" font-family="Arial,sans-serif" font-size="11" fill="#E65100" font-weight="bold">Урок 2</text>
<text x="40" y="105" font-family="Arial,sans-serif" font-size="18" fill="#1a1a1a" font-weight="bold">Первые князья</text>
<line x1="40" y1="115" x2="460" y2="115" stroke="#FFE0B2" stroke-width="2"/>
<text x="40" y="135" font-family="Arial,sans-serif" font-size="13" fill="#444">Рюрик и его наследники: начало русской государственности.</text>
<text x="40" y="155" font-family="Arial,sans-serif" font-size="11" fill="#E65100" font-weight="bold">Задания:</text>
<circle cx="48" cy="177" r="3" fill="#E65100"/>
<text x="58" y="181" font-family="Arial,sans-serif" font-size="11" fill="#444">Узнать о Рюрике</text>
<circle cx="48" cy="197" r="3" fill="#E65100"/>
<text x="58" y="201" font-family="Arial,sans-serif" font-size="11" fill="#444">Изучить княжение Олега</text>
<line x1="40" y1="218" x2="460" y2="218" stroke="#FFE0B2" stroke-width="1"/>
<text x="40" y="230" font-family="Arial,sans-serif" font-size="11" fill="#E65100" font-weight="bold">Факты:</text>
<text x="50" y="246" font-family="Arial,sans-serif" font-size="10" fill="#555">💡 Олег прибил свой щит к воротам Царьграда</text>
<text x="50" y="264" font-family="Arial,sans-serif" font-size="10" fill="#555">💡 Легенда: Олег погиб от укуса змеи</text>
<circle cx="460" cy="310" r="25" fill="#E65100" opacity="0.15"/>
<circle cx="460" cy="310" r="15" fill="#E65100" opacity="0.1"/>
</svg>