<?xml version='1.0' encoding='utf-8'?>
<svg xmlns="http://www.w3.org/2000/svg" width="800" height="600" viewBox="0 0 800 600">
  <rect x="0" y="0" width="800" height="72" rx="0" fill="#059669" />
  <rect x="0" y="72" width="800" height="4" rx="0" fill="#047857" />
  <text x="400" y="36" text-anchor="middle" fill="#FFFFFF" font-size="22" font-weight="bold" font-family="sans-serif">Природа Африки</text>
  <text x="400" y="58" text-anchor="middle" fill="#FFFFFF" font-size="12" font-weight="normal" font-family="sans-serif">Климатические пояса, реки, природные зоны</text>
  <rect x="0" y="570" width="800" height="30" rx="0" fill="#ECFDF5" />
  <line x1="0" y1="570" x2="800" y2="570" stroke="#6EE7B7" stroke-width="1" />
  <text x="400" y="590" text-anchor="middle" fill="#9CA3AF" font-size="10" font-weight="normal" font-family="sans-serif">7 класс — География — Урок 8</text>
  <rect x="0" y="76" width="800" height="494" rx="0" fill="#ECFDF5" opacity="0.4" />
  <text x="180" y="98" text-anchor="middle" fill="#047857" font-size="13" font-weight="bold" font-family="sans-serif">Климатические пояса Африки</text>
  <rect x="150" y="195" width="120" height="30" rx="0" fill="#22C55E" opacity="0.6" />
  <rect x="148" y="165" width="125" height="28" rx="0" fill="#86EFAC" opacity="0.5" />
  <rect x="155" y="228" width="110" height="28" rx="0" fill="#86EFAC" opacity="0.5" />
  <rect x="155" y="135" width="115" height="28" rx="0" fill="#FDE68A" opacity="0.5" />
  <rect x="165" y="258" width="100" height="28" rx="0" fill="#FDE68A" opacity="0.5" />
  <rect x="160" y="115" width="110" height="20" rx="0" fill="#FDBA74" opacity="0.5" />
  <rect x="195" y="305" width="60" height="25" rx="0" fill="#FDBA74" opacity="0.5" />
  <polygon points="160,115 200,108 240,112 260,125 270,150 265,178 255,205 250,230 255,255 250,280 242,305 230,325 218,335 200,330 188,315 178,293 170,265 165,240 160,215 158,188 155,160 158,135" fill="none" stroke="#059669" stroke-width="2" />
  <text x="210" y="128" text-anchor="middle" fill="#92400E" font-size="7" font-weight="normal" font-family="sans-serif">Субтроп.</text>
  <text x="210" y="150" text-anchor="middle" fill="#92400E" font-size="7" font-weight="normal" font-family="sans-serif">Тропический</text>
  <text x="210" y="180" text-anchor="middle" fill="#065F46" font-size="7" font-weight="normal" font-family="sans-serif">Субэкв.</text>
  <text x="210" y="213" text-anchor="middle" fill="#065F46" font-size="7" font-weight="bold" font-family="sans-serif">Экваториальный</text>
  <text x="210" y="244" text-anchor="middle" fill="#065F46" font-size="7" font-weight="normal" font-family="sans-serif">Субэкв.</text>
  <text x="210" y="273" text-anchor="middle" fill="#92400E" font-size="7" font-weight="normal" font-family="sans-serif">Тропический</text>
  <text x="225" y="320" text-anchor="middle" fill="#92400E" font-size="6" font-weight="normal" font-family="sans-serif">Субтроп.</text>
  <rect x="40" y="350" width="14" height="14" rx="2" fill="#22C55E" stroke="#059669" stroke-width="0.5" />
  <text x="60" y="361" text-anchor="start" fill="#1F2937" font-size="9" font-weight="normal" font-family="sans-serif">Экваториальный</text>
  <rect x="40" y="368" width="14" height="14" rx="2" fill="#86EFAC" stroke="#059669" stroke-width="0.5" />
  <text x="60" y="379" text-anchor="start" fill="#1F2937" font-size="9" font-weight="normal" font-family="sans-serif">Субэкваториальный</text>
  <rect x="40" y="386" width="14" height="14" rx="2" fill="#FDE68A" stroke="#059669" stroke-width="0.5" />
  <text x="60" y="397" text-anchor="start" fill="#1F2937" font-size="9" font-weight="normal" font-family="sans-serif">Тропический</text>
  <rect x="40" y="404" width="14" height="14" rx="2" fill="#FDBA74" stroke="#059669" stroke-width="0.5" />
  <text x="60" y="415" text-anchor="start" fill="#1F2937" font-size="9" font-weight="normal" font-family="sans-serif">Субтропический</text>
  <text x="580" y="98" text-anchor="middle" fill="#047857" font-size="13" font-weight="bold" font-family="sans-serif">Крупнейшие реки</text>
  <rect x="420" y="112" width="340" height="48" rx="4" fill="#FFFFFF" stroke="#0284C7" stroke-width="1" />
  <rect x="420" y="112" width="4" height="48" rx="2" fill="#0284C7" />
  <text x="436" y="128" text-anchor="start" fill="#0284C7" font-size="12" font-weight="bold" font-family="sans-serif">Нил</text>
  <text x="530" y="128" text-anchor="start" fill="#047857" font-size="11" font-weight="bold" font-family="sans-serif">6 671 км</text>
  <text x="436" y="142" text-anchor="start" fill="#4B5563" font-size="8" font-weight="normal" font-family="sans-serif">Самая длинная река</text>
  <text x="436" y="154" text-anchor="start" fill="#4B5563" font-size="8" font-weight="normal" font-family="sans-serif">мира. Исток — оз. Виктория</text>
  <rect x="420" y="164" width="340" height="48" rx="4" fill="#FFFFFF" stroke="#0E7490" stroke-width="1" />
  <rect x="420" y="164" width="4" height="48" rx="2" fill="#0E7490" />
  <text x="436" y="180" text-anchor="start" fill="#0E7490" font-size="12" font-weight="bold" font-family="sans-serif">Конго</text>
  <text x="530" y="180" text-anchor="start" fill="#047857" font-size="11" font-weight="bold" font-family="sans-serif">4 700 км</text>
  <text x="436" y="194" text-anchor="start" fill="#4B5563" font-size="8" font-weight="normal" font-family="sans-serif">Самая полноводная</text>
  <text x="436" y="206" text-anchor="start" fill="#4B5563" font-size="8" font-weight="normal" font-family="sans-serif">река Африки</text>
  <rect x="420" y="216" width="340" height="48" rx="4" fill="#FFFFFF" stroke="#075985" stroke-width="1" />
  <rect x="420" y="216" width="4" height="48" rx="2" fill="#075985" />
  <text x="436" y="232" text-anchor="start" fill="#075985" font-size="12" font-weight="bold" font-family="sans-serif">Нигер</text>
  <text x="530" y="232" text-anchor="start" fill="#047857" font-size="11" font-weight="bold" font-family="sans-serif">4 180 км</text>
  <text x="436" y="246" text-anchor="start" fill="#4B5563" font-size="8" font-weight="normal" font-family="sans-serif">Западная Африка,</text>
  <text x="436" y="258" text-anchor="start" fill="#4B5563" font-size="8" font-weight="normal" font-family="sans-serif">важнейшая транспортная</text>
  <rect x="420" y="268" width="340" height="48" rx="4" fill="#FFFFFF" stroke="#059669" stroke-width="1" />
  <rect x="420" y="268" width="4" height="48" rx="2" fill="#059669" />
  <text x="436" y="284" text-anchor="start" fill="#059669" font-size="12" font-weight="bold" font-family="sans-serif">Замбези</text>
  <text x="530" y="284" text-anchor="start" fill="#047857" font-size="11" font-weight="bold" font-family="sans-serif">2 660 км</text>
  <text x="436" y="298" text-anchor="start" fill="#4B5563" font-size="8" font-weight="normal" font-family="sans-serif">Водопад Виктория —</text>
  <text x="436" y="310" text-anchor="start" fill="#4B5563" font-size="8" font-weight="normal" font-family="sans-serif">один из крупнейших</text>
  <text x="400" y="330" text-anchor="middle" fill="#047857" font-size="14" font-weight="bold" font-family="sans-serif">Природные зоны Африки</text>
  <line x1="80" y1="334" x2="720" y2="334" stroke="#6EE7B7" stroke-width="1" />
  <rect x="25" y="345" width="183" height="140" rx="5" fill="#FFFFFF" stroke="#22C55E" stroke-width="2" />
  <rect x="25" y="345" width="183" height="24" rx="5" fill="#22C55E" />
  <rect x="25" y="365" width="183" height="4" rx="0" fill="#22C55E" />
  <text x="116" y="360" text-anchor="middle" fill="#FFFFFF" font-size="9" font-weight="bold" font-family="sans-serif">Влажные экваториальные леса</text>
  <text x="37" y="383" text-anchor="start" fill="#4B5563" font-size="9" font-weight="normal" font-family="sans-serif">Осадки: 2000+ мм/год</text>
  <text x="37" y="399" text-anchor="start" fill="#4B5563" font-size="9" font-weight="normal" font-family="sans-serif">Темп.: +24...+28 °C</text>
  <text x="37" y="415" text-anchor="start" fill="#4B5563" font-size="9" font-weight="normal" font-family="sans-serif">Обезьяны, окапи, шимпанзе</text>
  <rect x="218" y="345" width="183" height="140" rx="5" fill="#FFFFFF" stroke="#FDE68A" stroke-width="2" />
  <rect x="218" y="345" width="183" height="24" rx="5" fill="#FDE68A" />
  <rect x="218" y="365" width="183" height="4" rx="0" fill="#FDE68A" />
  <text x="309" y="360" text-anchor="middle" fill="#1F2937" font-size="9" font-weight="bold" font-family="sans-serif">Саванны</text>
  <text x="230" y="383" text-anchor="start" fill="#4B5563" font-size="9" font-weight="normal" font-family="sans-serif">Осадки: 500-1500 мм/год</text>
  <text x="230" y="399" text-anchor="start" fill="#4B5563" font-size="9" font-weight="normal" font-family="sans-serif">Темп.: +20...+30 °C</text>
  <text x="230" y="415" text-anchor="start" fill="#4B5563" font-size="9" font-weight="normal" font-family="sans-serif">Львы, жирафы, слоны</text>
  <rect x="411" y="345" width="183" height="140" rx="5" fill="#FFFFFF" stroke="#FDBA74" stroke-width="2" />
  <rect x="411" y="345" width="183" height="24" rx="5" fill="#FDBA74" />
  <rect x="411" y="365" width="183" height="4" rx="0" fill="#FDBA74" />
  <text x="502" y="360" text-anchor="middle" fill="#1F2937" font-size="9" font-weight="bold" font-family="sans-serif">Пустыни</text>
  <text x="423" y="383" text-anchor="start" fill="#4B5563" font-size="9" font-weight="normal" font-family="sans-serif">Осадки: менее 250 мм/год</text>
  <text x="423" y="399" text-anchor="start" fill="#4B5563" font-size="9" font-weight="normal" font-family="sans-serif">Темп.: до +50 °C днём</text>
  <text x="423" y="415" text-anchor="start" fill="#4B5563" font-size="9" font-weight="normal" font-family="sans-serif">Верблюды, скорпионы</text>
  <rect x="604" y="345" width="183" height="140" rx="5" fill="#FFFFFF" stroke="#86EFAC" stroke-width="2" />
  <rect x="604" y="345" width="183" height="24" rx="5" fill="#86EFAC" />
  <rect x="604" y="365" width="183" height="4" rx="0" fill="#86EFAC" />
  <text x="695" y="360" text-anchor="middle" fill="#1F2937" font-size="9" font-weight="bold" font-family="sans-serif">Жёстколистные леса</text>
  <text x="616" y="383" text-anchor="start" fill="#4B5563" font-size="9" font-weight="normal" font-family="sans-serif">Осадки: 400-700 мм/год</text>
  <text x="616" y="399" text-anchor="start" fill="#4B5563" font-size="9" font-weight="normal" font-family="sans-serif">Темп.: +12...+25 °C</text>
  <text x="616" y="415" text-anchor="start" fill="#4B5563" font-size="9" font-weight="normal" font-family="sans-serif">Кустарники, дуб, сосна</text>
  <text x="400" y="508" text-anchor="middle" fill="#047857" font-size="12" font-weight="bold" font-family="sans-serif">Животный мир Африки</text>
  <text x="400" y="528" text-anchor="middle" fill="#4B5563" font-size="9" font-weight="normal" font-family="sans-serif">Саванны: львы, жирафы, зебры, слоны, носороги, антилопы</text>
  <text x="400" y="544" text-anchor="middle" fill="#4B5563" font-size="9" font-weight="normal" font-family="sans-serif">Леса: гориллы, шимпанзе, окапи, попугаи, леопарды</text>
  <text x="400" y="560" text-anchor="middle" fill="#4B5563" font-size="9" font-weight="normal" font-family="sans-serif">Пустыни: верблюды, фенеки, вараны, скорпионы, змеи</text>
  <rect x="60" y="570" width="680" height="22" rx="3" fill="#FFFFFF" stroke="#0284C7" stroke-width="1" />
  <rect x="60" y="570" width="4" height="22" rx="2" fill="#0284C7" />
  <text x="74" y="585" text-anchor="start" fill="#4B5563" font-size="9" font-weight="normal" font-family="sans-serif">Крупнейшие озёра: Виктория (68 тыс. км²), Танганьика, Ньяса — древние тектонические озёра</text>
</svg>