<svg xmlns="http://www.w3.org/2000/svg" viewBox="0 0 500 350">
  <defs>
    <style>
      @keyframes split2 { 0%,100%{opacity:1} 50%{opacity:0.7} }
      .blink { animation: split2 1.5s ease-in-out infinite; }
    </style>
  </defs>
  <rect width="500" height="350" fill="#F1F8E9"/>
  <text x="250" y="32" text-anchor="middle" font-family="Arial,sans-serif" font-size="20" font-weight="bold" fill="#33691E">Деление на 2 и на 3</text>
  <!-- Divide by 2 -->
  <rect x="30" y="50" width="210" height="130" fill="white" rx="10" stroke="#8BC34A" stroke-width="2"/>
  <text x="135" y="72" text-anchor="middle" font-family="Arial,sans-serif" font-size="14" font-weight="bold" fill="#33691E">Деление на 2</text>
  <g font-family="Arial,sans-serif" font-size="13" fill="#33691E">
    <text x="55" y="95">2 : 2 = 1</text>
    <text x="55" y="112">4 : 2 = 2</text>
    <text x="55" y="129">6 : 2 = 3</text>
    <text x="55" y="146">8 : 2 = 4</text>
    <text x="55" y="163">10 : 2 = 5</text>
    <text x="150" y="95">12 : 2 = 6</text>
    <text x="150" y="112">14 : 2 = 7</text>
    <text x="150" y="129">16 : 2 = 8</text>
    <text x="150" y="146">18 : 2 = 9</text>
    <text x="150" y="163">20 : 2 = 10</text>
  </g>
  <!-- Divide by 3 -->
  <rect x="260" y="50" width="210" height="130" fill="white" rx="10" stroke="#FF9800" stroke-width="2"/>
  <text x="365" y="72" text-anchor="middle" font-family="Arial,sans-serif" font-size="14" font-weight="bold" fill="#E65100">Деление на 3</text>
  <g font-family="Arial,sans-serif" font-size="13" fill="#E65100">
    <text x="280" y="95">3 : 3 = 1</text>
    <text x="280" y="112">6 : 3 = 2</text>
    <text x="280" y="129">9 : 3 = 3</text>
    <text x="280" y="146">12 : 3 = 4</text>
    <text x="280" y="163">15 : 3 = 5</text>
    <text x="375" y="95">18 : 3 = 6</text>
    <text x="375" y="112">21 : 3 = 7</text>
    <text x="375" y="129">24 : 3 = 8</text>
    <text x="375" y="146">27 : 3 = 9</text>
    <text x="375" y="163">30 : 3 = 10</text>
  </g>
  <!-- Connection -->
  <rect x="30" y="195" width="440" height="65" fill="#F1F8E9" rx="10"/>
  <text x="250" y="218" text-anchor="middle" font-family="Arial,sans-serif" font-size="14" font-weight="bold" fill="#33691E">Связь умножения и деления</text>
  <text x="250" y="240" text-anchor="middle" font-family="Arial,sans-serif" font-size="13" fill="#555">Если 2 x 5 = 10, то 10 : 2 = 5 и 10 : 5 = 2</text>
  <!-- Visual -->
  <g class="blink" transform="translate(60,275)">
    <rect x="0" y="0" width="180" height="55" fill="white" rx="8" stroke="#8BC34A" stroke-width="1"/>
    <circle cx="25" cy="28" r="12" fill="#8BC34A"/><circle cx="55" cy="28" r="12" fill="#8BC34A"/>
    <circle cx="85" cy="28" r="12" fill="#8BC34A"/><circle cx="115" cy="28" r="12" fill="#8BC34A"/>
    <circle cx="145" cy="28" r="12" fill="#8BC34A"/>
    <text x="95" y="50" text-anchor="middle" font-family="Arial,sans-serif" font-size="10" fill="#33691E">10 : 2 = 5 пар</text>
  </g>
  <g transform="translate(270,275)">
    <rect x="0" y="0" width="200" height="55" fill="white" rx="8" stroke="#FF9800" stroke-width="1"/>
    <circle cx="20" cy="28" r="10" fill="#FF9800"/><circle cx="45" cy="28" r="10" fill="#FF9800"/><circle cx="70" cy="28" r="10" fill="#FF9800"/>
    <circle cx="95" cy="28" r="10" fill="#FF9800"/><circle cx="120" cy="28" r="10" fill="#FF9800"/><circle cx="145" cy="28" r="10" fill="#FF9800"/>
    <circle cx="170" cy="28" r="10" fill="#FF9800"/>
    <text x="95" y="50" text-anchor="middle" font-family="Arial,sans-serif" font-size="10" fill="#E65100">21 : 3 = 7 троек</text>
  </g>
</svg>