<svg xmlns="http://www.w3.org/2000/svg" viewBox="0 0 500 350">
  <defs><style>.t{font:bold 17px sans-serif;fill:#fff}</style></defs>
  <rect width="500" height="350" rx="12" fill="#2d1b69"/>
  <rect x="4" y="4" width="492" height="342" rx="10" fill="none" stroke="#ffd700" stroke-width="1.5"/>
  <text x="250" y="26" text-anchor="middle" class="t">Песня, танец, марш</text>
  <!-- Singer -->
  <circle cx="90" cy="120" r="22" fill="#ffb6c1"/>
  <path d="M90,142 L90,210 M90,160 L65,185 M90,160 L115,185 M90,210 L70,250 M90,210 L110,250" stroke="#ffb6c1" stroke-width="4" fill="none" stroke-linecap="round"/>
  <ellipse cx="78" cy="115" rx="3" ry="3" fill="#333"/>
  <ellipse cx="100" cy="115" rx="3" ry="3" fill="#333"/>
  <path d="M82,127 Q90,134 98,127" stroke="#c0392b" stroke-width="2" fill="none"/>
  <path d="M105,120 Q115,100 110,85 Q108,75 115,65" stroke="#ffd700" stroke-width="2" fill="none"/>
  <circle cx="115" cy="63" r="4" fill="#ffd700"/>
  <path d="M112,95 Q122,80 118,68" stroke="#ffd700" stroke-width="2" fill="none"/>
  <circle cx="118" cy="66" r="3" fill="#ffd700"/>
  <text x="90" y="275" text-anchor="middle" font-size="13" fill="#ffd700">Песня</text>
  <!-- Dancer -->
  <circle cx="250" cy="110" r="22" fill="#87ceeb"/>
  <path d="M250,132 L250,195 M250,150 L215,140 M250,150 L280,175 M250,195 L225,250 M250,195 L280,240" stroke="#87ceeb" stroke-width="4" fill="none" stroke-linecap="round"/>
  <path d="M250,195 Q260,250 280,240" stroke="#87ceeb" stroke-width="3" fill="none"/>
  <ellipse cx="238" cy="105" rx="3" ry="3" fill="#333"/>
  <ellipse cx="260" cy="105" rx="3" ry="3" fill="#333"/>
  <path d="M228,132 Q220,130 215,140" stroke="#87ceeb" stroke-width="4" fill="none" stroke-linecap="round"/>
  <path d="M272,132 Q278,155 280,175" stroke="#87ceeb" stroke-width="4" fill="none" stroke-linecap="round"/>
  <path d="M235,90 Q250,70 265,90" stroke="#5dade2" stroke-width="2" fill="#5dade2"/>
  <path d="M270,160 Q285,145 290,130 Q295,120 300,125" stroke="#ffd700" stroke-width="2" fill="none"/>
  <circle cx="300" cy="123" r="4" fill="#ffd700"/>
  <text x="250" y="275" text-anchor="middle" font-size="13" fill="#ffd700">Танец</text>
  <!-- Drummer marching -->
  <circle cx="410" cy="115" r="22" fill="#98fb98"/>
  <path d="M410,137 L410,200 M410,155 L385,170 M410,155 L435,170 M410,200 L390,250 M410,200 L430,250" stroke="#98fb98" stroke-width="4" fill="none" stroke-linecap="round"/>
  <ellipse cx="398" cy="110" rx="3" ry="3" fill="#333"/>
  <ellipse cx="420" cy="110" rx="3" ry="3" fill="#333"/>
  <path d="M403,122 Q410,127 417,122" stroke="#27ae60" stroke-width="2" fill="none"/>
  <ellipse cx="410" cy="178" rx="22" ry="12" fill="#e74c3c" stroke="#c0392b" stroke-width="2"/>
  <line x1="385" y1="170" x2="392" y2="176" stroke="#8B4513" stroke-width="3"/>
  <line x1="435" y1="170" x2="428" y2="176" stroke="#8B4513" stroke-width="3"/>
  <line x1="400" y1="168" x2="395" y2="155" stroke="#8B4513" stroke-width="2"/>
  <line x1="420" y1="168" x2="425" y2="155" stroke="#8B4513" stroke-width="2"/>
  <circle cx="395" cy="153" r="3" fill="#ffd700"/>
  <circle cx="425" cy="153" r="3" fill="#ffd700"/>
  <text x="410" y="275" text-anchor="middle" font-size="13" fill="#ffd700">Марш</text>
  <!-- Decorative stars -->
  <polygon points="45,300 48,308 56,308 50,313 52,321 45,316 38,321 40,313 34,308 42,308" fill="#ffd700" opacity="0.6"/>
  <polygon points="455,300 458,308 466,308 460,313 462,321 455,316 448,321 450,313 444,308 452,308" fill="#ffd700" opacity="0.6"/>
</svg>