<svg xmlns="http://www.w3.org/2000/svg" viewBox="0 0 500 350">
  <rect width="500" height="350" rx="12" fill="#2c1810"/>
  <rect x="4" y="4" width="492" height="342" rx="10" fill="none" stroke="#ff9800" stroke-width="1.5"/>
  <text x="250" y="26" text-anchor="middle" font-size="17" font-weight="bold" fill="#fff">Темп и динамика</text>
  <!-- Snail -->
  <ellipse cx="120" cy="230" rx="45" ry="30" fill="#8d6e63"/>
  <path d="M165,225 Q180,215 175,200 Q170,185 155,190" stroke="#6d4c41" stroke-width="3" fill="none" stroke-linecap="round"/>
  <circle cx="160" cy="195" r="4" fill="#fff"/><circle cx="160" cy="195" r="2" fill="#333"/>
  <path d="M120,200 Q130,185 140,195 Q150,205 135,210 Q120,215 120,200Z" fill="#a1887f" stroke="#6d4c41" stroke-width="1"/>
  <ellipse cx="110" cy="230" rx="35" ry="25" fill="#a1887f" stroke="#6d4c41" stroke-width="1.5"/>
  <path d="M90,215 Q100,210 110,218 Q120,210 130,218" stroke="#6d4c41" stroke-width="1" fill="none"/>
  <!-- Small sound waves -->
  <path d="M60,210 Q55,215 60,220" stroke="#ffcc80" stroke-width="1.5" fill="none"/>
  <path d="M50,205 Q42,215 50,225" stroke="#ffcc80" stroke-width="1.5" fill="none"/>
  <path d="M40,200 Q28,215 40,230" stroke="#ffcc80" stroke-width="1.5" fill="none"/>
  <text x="120" y="275" text-anchor="middle" font-size="11" fill="#ffcc80">Медленно</text>
  <!-- Cheetah -->
  <ellipse cx="360" cy="220" rx="55" ry="28" fill="#ffb74d"/>
  <ellipse cx="360" cy="220" rx="50" ry="24" fill="#ffc107"/>
  <circle cx="345" cy="215" r="4" fill="#5d4037"/><circle cx="370" cy="212" r="3.5" fill="#5d4037"/>
  <circle cx="385" cy="225" r="3" fill="#5d4037"/><circle cx="352" cy="228" r="3" fill="#5d4037"/>
  <circle cx="415" cy="205" r="18" fill="#ffc107"/>
  <circle cx="425" cy="200" r="2.5" fill="#333"/>
  <path d="M410,190 Q408,180 414,185" stroke="#5d4037" stroke-width="2" fill="#ffc107"/>
  <path d="M420,188 Q422,178 425,184" stroke="#5d4037" stroke-width="2" fill="#ffc107"/>
  <!-- Legs -->
  <line x1="340" y1="245" x2="325" y2="275" stroke="#ffb74d" stroke-width="5" stroke-linecap="round"/>
  <line x1="355" y1="245" x2="365" y2="278" stroke="#ffb74d" stroke-width="5" stroke-linecap="round"/>
  <line x1="380" y1="245" x2="370" y2="275" stroke="#ffb74d" stroke-width="5" stroke-linecap="round"/>
  <line x1="395" y1="240" x2="410" y2="270" stroke="#ffb74d" stroke-width="5" stroke-linecap="round"/>
  <!-- Tail -->
  <path d="M305,215 Q290,200 295,185 Q300,175 308,180" stroke="#ffc107" stroke-width="3" fill="none"/>
  <!-- Speed lines -->
  <line x1="280" y1="200" x2="255" y2="200" stroke="#ff9800" stroke-width="1.5" opacity="0.6"/>
  <line x1="285" y1="215" x2="250" y2="215" stroke="#ff9800" stroke-width="1.5" opacity="0.6"/>
  <line x1="280" y1="230" x2="250" y2="230" stroke="#ff9800" stroke-width="1.5" opacity="0.6"/>
  <!-- Large sound waves -->
  <path d="M450,195 Q455,205 450,215" stroke="#ff5722" stroke-width="2.5" fill="none"/>
  <path d="M460,185 Q470,205 460,225" stroke="#ff5722" stroke-width="2.5" fill="none"/>
  <path d="M470,175 Q485,205 470,235" stroke="#ff5722" stroke-width="2.5" fill="none"/>
  <text x="370" y="300" text-anchor="middle" font-size="11" fill="#ff5722">Быстро</text>
  <!-- Tempo arrow -->
  <defs><marker id="a1" markerWidth="8" markerHeight="6" refX="8" refY="3" orient="auto"><path d="M0,0 L8,3 L0,6Z" fill="#fff"/></marker></defs>
  <line x1="190" y1="170" x2="280" y2="170" stroke="#fff" stroke-width="2" marker-end="url(#a1)"/>
  <text x="235" y="163" text-anchor="middle" font-size="10" fill="#fff">Темп</text>
</svg>