<svg xmlns="http://www.w3.org/2000/svg" viewBox="0 0 500 350">
<defs>
  <linearGradient id="bg" x1="0%" y1="0%" x2="100%" y2="100%">
    <stop offset="0%" style="stop-color:#AD1457"/>
    <stop offset="100%" style="stop-color:#F48FB1"/>
  </linearGradient>
  <linearGradient id="card" x1="0%" y1="0%" x2="0%" y2="100%">
    <stop offset="0%" style="stop-color:rgba(255,255,255,0.95)"/>
    <stop offset="100%" style="stop-color:rgba(255,255,255,0.85)"/>
  </linearGradient>
</defs>
<rect width="500" height="350" fill="url(#bg)"/>
<circle cx="80" cy="40" r="8" fill="white" opacity="0.08"/>
<line x1="88" y1="40" x2="88" y2="10" stroke="white" stroke-width="1.5" opacity="0.08"/>
<circle cx="200" cy="80" r="8" fill="white" opacity="0.08"/>
<line x1="208" y1="80" x2="208" y2="50" stroke="white" stroke-width="1.5" opacity="0.08"/>
<circle cx="350" cy="50" r="8" fill="white" opacity="0.08"/>
<line x1="358" y1="50" x2="358" y2="20" stroke="white" stroke-width="1.5" opacity="0.08"/>
<circle cx="420" cy="120" r="8" fill="white" opacity="0.08"/>
<line x1="428" y1="120" x2="428" y2="90" stroke="white" stroke-width="1.5" opacity="0.08"/>
<circle cx="150" cy="180" r="8" fill="white" opacity="0.08"/>
<line x1="158" y1="180" x2="158" y2="150" stroke="white" stroke-width="1.5" opacity="0.08"/>
<circle cx="300" cy="200" r="8" fill="white" opacity="0.08"/>
<line x1="308" y1="200" x2="308" y2="170" stroke="white" stroke-width="1.5" opacity="0.08"/>
<circle cx="80" cy="260" r="8" fill="white" opacity="0.08"/>
<line x1="88" y1="260" x2="88" y2="230" stroke="white" stroke-width="1.5" opacity="0.08"/>
<circle cx="450" cy="280" r="8" fill="white" opacity="0.08"/>
<line x1="458" y1="280" x2="458" y2="250" stroke="white" stroke-width="1.5" opacity="0.08"/>
<rect x="20" y="50" width="460" height="270" rx="16" fill="url(#card)" opacity="0.92"/>
<rect x="30" y="60" width="auto" height="24" rx="12" fill="#AD1457" opacity="0.9"/>
<rect x="30" y="60" width="68" height="24" rx="12" fill="#AD1457" opacity="0.9"/>
<text x="64" y="77" text-anchor="middle" font-family="Arial,sans-serif" font-size="11" fill="white" font-weight="bold">Музыка</text>
<text x="470" y="77" text-anchor="end" font-family="Arial,sans-serif" font-size="11" fill="#AD1457" font-weight="bold">Урок 8</text>
<text x="40" y="105" font-family="Arial,sans-serif" font-size="18" fill="#1a1a1a" font-weight="bold">Опера и балет</text>
<line x1="40" y1="115" x2="460" y2="115" stroke="#F8BBD0" stroke-width="2"/>
<text x="40" y="135" font-family="Arial,sans-serif" font-size="13" fill="#444">Знакомимся с музыкальным театром.</text>
<circle cx="50" cy="160" r="4" fill="#AD1457"/>
<text x="62" y="165" font-family="Arial,sans-serif" font-size="12" fill="#333">Понять, что такое опера</text>
<circle cx="50" cy="185" r="4" fill="#AD1457"/>
<text x="62" y="190" font-family="Arial,sans-serif" font-size="12" fill="#333">Узнать о балете</text>
<circle cx="50" cy="210" r="4" fill="#AD1457"/>
<text x="62" y="215" font-family="Arial,sans-serif" font-size="12" fill="#333">Послушать отрывки</text>
<circle cx="50" cy="235" r="4" fill="#AD1457"/>
<text x="62" y="240" font-family="Arial,sans-serif" font-size="12" fill="#333">Посетить театр</text>
<rect x="40" y="260" width="70" height="18" rx="9" fill="#AD1457" opacity="0.15"/>
<text x="75" y="273" text-anchor="middle" font-family="Arial,sans-serif" font-size="10" fill="#AD1457" font-weight="bold">4 заданий</text>
<circle cx="460" cy="310" r="25" fill="#AD1457" opacity="0.15"/>
<circle cx="460" cy="310" r="15" fill="#AD1457" opacity="0.1"/>
</svg>