<?xml version="1.0" encoding="UTF-8"?>
<svg xmlns="http://www.w3.org/2000/svg" width="800" height="600" viewBox="0 0 800 600">
  <defs>
    <linearGradient id="bgGrad" x1="0" y1="0" x2="0" y2="1">
      <stop offset="0%" stop-color="#F0FDFA" />
      <stop offset="100%" stop-color="#ECFEFF" />
    </linearGradient>
    <linearGradient id="headerGrad" x1="0" y1="0" x2="1" y2="0">
      <stop offset="0%" stop-color="#0891B2" />
      <stop offset="100%" stop-color="#06B6D4" />
    </linearGradient>
    <linearGradient id="accentGrad" x1="0" y1="0" x2="1" y2="0">
      <stop offset="0%" stop-color="#D97706" />
      <stop offset="100%" />
    </linearGradient>
    <linearGradient id="panelGrad" x1="0" y1="0" x2="1" y2="0">
      <stop offset="0%" stop-color="#06B6D4" />
      <stop offset="100%" stop-color="#0891B2" />
    </linearGradient>
    <clipPath id="ill1">
      <rect x="410" y="235" width="370" height="130" rx="8" />
    </clipPath>
  </defs>
  <rect width="800" height="600" fill="url(#bgGrad)" rx="12" />
  <rect x="3" y="3" width="794" height="594" rx="10" fill="none" stroke="#06B6D4" stroke-width="2.5" />
  <rect x="8" y="8" width="784" height="584" rx="8" fill="none" stroke="#06B6D4" stroke-width="1" opacity="0.2" />
  <polygon points="12,12 42,12 12,42" fill="#06B6D4" opacity="0.08" />
  <polygon points="788,12 758,12 788,42" fill="#06B6D4" opacity="0.08" />
  <polygon points="12,588 42,588 12,558" fill="#06B6D4" opacity="0.08" />
  <polygon points="788,588 758,588 788,558" fill="#06B6D4" opacity="0.08" />
  <circle cx="740" cy="100" r="25" fill="none" stroke="#06B6D4" stroke-width="1" opacity="0.1" />
  <polygon points="60,540 80,510 100,540" fill="none" stroke="#06B6D4" stroke-width="1" opacity="0.1" />
  <rect x="70" y="80" width="18" height="18" fill="none" stroke="#06B6D4" stroke-width="1" opacity="0.08" transform="rotate(45, 79, 89)" />
  <rect x="15" y="15" width="770" height="55" fill="url(#headerGrad)" rx="8" opacity="0.92" />
  <rect x="25" y="22" width="50" height="38" fill="#FFFFFF" rx="6" opacity="0.25" />
  <text x="50" y="49" font-family="Arial,sans-serif" font-size="22" font-weight="bold" fill="#FFFFFF" text-anchor="middle">1</text>
  <text x="410" y="48" font-family="Arial,sans-serif" font-size="24" font-weight="bold" fill="#FFFFFF" text-anchor="middle">Многоугольники</text>
  <text x="760" y="35" font-family="Arial,sans-serif" font-size="10" fill="#FFFFFF" text-anchor="end" opacity="0.7">8 класс</text>
  <text x="760" y="50" font-family="Arial,sans-serif" font-size="10" fill="#FFFFFF" text-anchor="end" opacity="0.7">Геометрия</text>
  <line x1="20" y1="80" x2="780" y2="80" stroke="#06B6D4" stroke-width="2" opacity="0.25" />
  <rect x="23" y="93" width="370" height="130" fill="#000000" rx="8" opacity="0.05" />
  <rect x="20" y="90" width="370" height="130" fill="#FFFFFF" rx="8" stroke="#06B6D4" stroke-width="1.5" opacity="0.95" />
  <rect x="20" y="90" width="370" height="24" fill="#06B6D4" rx="8" opacity="0.15" />
  <rect x="20" y="106" width="370" height="8" fill="#06B6D4" opacity="0.15" />
  <text x="205" y="107" font-family="Arial,sans-serif" font-size="12" font-weight="bold" fill="#0E7490" text-anchor="middle">Определение</text>
  <text x="32" y="130" font-family="Arial,sans-serif" font-size="12" fill="#37474F">Многоугольник — фигура, состоящая</text>
  <text x="32" y="147" font-family="Arial,sans-serif" font-size="12" fill="#37474F">из n точек (вершин) и n отрезков</text>
  <text x="32" y="164" font-family="Arial,sans-serif" font-size="12" fill="#37474F">(сторон), последовательно их</text>
  <text x="32" y="181" font-family="Arial,sans-serif" font-size="12" fill="#37474F">соединяющих.</text>
  <text x="32" y="198" font-family="Arial,sans-serif" font-size="12" fill="#37474F" />
  <text x="32" y="215" font-family="Arial,sans-serif" font-size="12" fill="#37474F">Выпуклый многоугольник лежит по</text>
  <text x="32" y="232" font-family="Arial,sans-serif" font-size="12" fill="#37474F">одну сторону от каждой прямой,</text>
  <text x="32" y="249" font-family="Arial,sans-serif" font-size="12" fill="#37474F">проходящей через его сторону.</text>
  <rect x="413" y="93" width="370" height="130" fill="#000000" rx="8" opacity="0.05" />
  <rect x="410" y="90" width="370" height="130" fill="#FFF7ED" rx="8" stroke="#F59E0B" stroke-width="2" opacity="0.95" />
  <rect x="410" y="90" width="370" height="24" fill="#F59E0B" rx="8" opacity="0.2" />
  <rect x="410" y="106" width="370" height="8" fill="#F59E0B" opacity="0.2" />
  <text x="595" y="107" font-family="Arial,sans-serif" font-size="12" font-weight="bold" fill="#92400E" text-anchor="middle">Формулы</text>
  <text x="422" y="130" font-family="Arial,sans-serif" font-size="12" fill="#92400E" font-weight="bold">Сумма углов: S = (n − 2) · 180°</text>
  <text x="422" y="148" font-family="Arial,sans-serif" font-size="12" fill="#92400E" font-weight="bold" />
  <text x="422" y="166" font-family="Arial,sans-serif" font-size="12" fill="#92400E" font-weight="bold">Число диагоналей из одной вершины:</text>
  <text x="422" y="184" font-family="Arial,sans-serif" font-size="12" fill="#92400E" font-weight="bold">  d = n − 3</text>
  <text x="422" y="202" font-family="Arial,sans-serif" font-size="12" fill="#92400E" font-weight="bold" />
  <text x="422" y="220" font-family="Arial,sans-serif" font-size="12" fill="#92400E" font-weight="bold">Все диагонали: D = n(n − 3) / 2</text>
  <text x="422" y="238" font-family="Arial,sans-serif" font-size="12" fill="#92400E" font-weight="bold" />
  <text x="422" y="256" font-family="Arial,sans-serif" font-size="12" fill="#92400E" font-weight="bold">Внешний угол: β = 180° − α</text>
  <rect x="23" y="238" width="370" height="130" fill="#000000" rx="8" opacity="0.05" />
  <rect x="20" y="235" width="370" height="130" fill="#FFFFFF" rx="8" stroke="#06B6D4" stroke-width="1.5" opacity="0.95" />
  <rect x="20" y="235" width="370" height="24" fill="#06B6D4" rx="8" opacity="0.15" />
  <rect x="20" y="251" width="370" height="8" fill="#06B6D4" opacity="0.15" />
  <text x="205" y="252" font-family="Arial,sans-serif" font-size="12" font-weight="bold" fill="#0E7490" text-anchor="middle">Свойства</text>
  <text x="32" y="275" font-family="Arial,sans-serif" font-size="12" fill="#37474F">• Сумма внешних углов = 360°</text>
  <text x="32" y="292" font-family="Arial,sans-serif" font-size="12" fill="#37474F">• Правильный: все стороны и углы равны</text>
  <text x="32" y="309" font-family="Arial,sans-serif" font-size="12" fill="#37474F">• Внутренний угол прав. мн-ка:</text>
  <text x="32" y="326" font-family="Arial,sans-serif" font-size="12" fill="#37474F">  α = (n − 2) · 180° / n</text>
  <text x="32" y="343" font-family="Arial,sans-serif" font-size="12" fill="#37474F">• Внешний угол прав. мн-ка:</text>
  <text x="32" y="360" font-family="Arial,sans-serif" font-size="12" fill="#37474F">  β = 360° / n</text>
  <text x="32" y="377" font-family="Arial,sans-serif" font-size="12" fill="#37474F">• Число треугольников при разбиении:</text>
  <text x="32" y="394" font-family="Arial,sans-serif" font-size="12" fill="#37474F">  T = n − 2</text>
  <g clip-path="url(#ill1)">
    <rect x="410" y="235" width="370" height="130" fill="#F0FDFA" opacity="0.6" />
    <rect x="410" y="235" width="370" height="130" fill="none" rx="8" stroke="#06B6D4" stroke-width="1.5" opacity="0.4" />
    <polygon points="595,245 642,279 624,335 565,335 547,279" fill="#06B6D4" opacity="0.1" stroke="#06B6D4" stroke-width="2" />
    <line x1="595" y1="245" x2="624" y2="335" stroke="#F59E0B" stroke-width="1" stroke-dasharray="4,3" />
    <line x1="595" y1="245" x2="565" y2="335" stroke="#F59E0B" stroke-width="1" stroke-dasharray="4,3" />
    <line x1="642" y1="279" x2="565" y2="335" stroke="#F59E0B" stroke-width="1" stroke-dasharray="4,3" />
    <line x1="642" y1="279" x2="547" y2="279" stroke="#F59E0B" stroke-width="1" stroke-dasharray="4,3" />
    <line x1="624" y1="335" x2="547" y2="279" stroke="#F59E0B" stroke-width="1" stroke-dasharray="4,3" />
    <text x="595" y="235" font-family="Arial,sans-serif" font-size="13" font-weight="bold" fill="#0E7490" text-anchor="middle">A</text>
    <text x="655" y="278" font-family="Arial,sans-serif" font-size="13" font-weight="bold" fill="#0E7490" text-anchor="middle">B</text>
    <text x="632" y="350" font-family="Arial,sans-serif" font-size="13" font-weight="bold" fill="#0E7490" text-anchor="middle">C</text>
    <text x="556" y="350" font-family="Arial,sans-serif" font-size="13" font-weight="bold" fill="#0E7490" text-anchor="middle">D</text>
    <text x="533" y="278" font-family="Arial,sans-serif" font-size="13" font-weight="bold" fill="#0E7490" text-anchor="middle">E</text>
    <text x="595" y="360" font-family="Arial,sans-serif" font-size="11" fill="#06B6D4" text-anchor="middle" opacity="0.8">Пятиугольник и его диагонали</text>
  </g>
  <rect x="23" y="383" width="760" height="60" fill="#000000" rx="8" opacity="0.05" />
  <rect x="20" y="380" width="760" height="60" fill="#FFFFFF" rx="8" stroke="#06B6D4" stroke-width="1.5" opacity="0.95" />
  <rect x="20" y="380" width="760" height="24" fill="#06B6D4" rx="8" opacity="0.15" />
  <rect x="20" y="396" width="760" height="8" fill="#06B6D4" opacity="0.15" />
  <text x="400" y="397" font-family="Arial,sans-serif" font-size="12" font-weight="bold" fill="#0E7490" text-anchor="middle">Таблица: сумма углов многоугольников</text>
  <text x="32" y="420" font-family="Arial,sans-serif" font-size="12" fill="#37474F">n=3: S=180°    n=4: S=360°    n=5: S=540°    n=6: S=720°    n=8: S=1080°    n=10: S=1440°    n=12: S=1800°</text>
  <rect x="23" y="458" width="760" height="80" fill="#000000" rx="8" opacity="0.05" />
  <rect x="20" y="455" width="760" height="80" fill="#FFF7ED" rx="8" stroke="#F59E0B" stroke-width="2" opacity="0.95" />
  <rect x="20" y="455" width="760" height="24" fill="#F59E0B" rx="8" opacity="0.2" />
  <rect x="20" y="471" width="760" height="8" fill="#F59E0B" opacity="0.2" />
  <text x="400" y="472" font-family="Arial,sans-serif" font-size="12" font-weight="bold" fill="#92400E" text-anchor="middle">Пример</text>
  <text x="32" y="495" font-family="Arial,sans-serif" font-size="12" fill="#92400E" font-weight="bold">Сколько диагоналей у выпуклого шестиугольника?</text>
  <text x="32" y="513" font-family="Arial,sans-serif" font-size="12" fill="#92400E" font-weight="bold">D = n(n − 3) / 2 = 6(6 − 3) / 2 = 6 · 3 / 2 = 9 диагоналей</text>
  <text x="32" y="531" font-family="Arial,sans-serif" font-size="12" fill="#92400E" font-weight="bold">Сумма углов: S = (6 − 2) · 180° = 4 · 180° = 720°</text>
  <rect x="15" y="560" width="770" height="28" fill="url(#panelGrad)" opacity="0.08" rx="6" />
  <text x="400" y="578" font-family="Arial,sans-serif" font-size="11" fill="#06B6D4" text-anchor="middle" opacity="0.6">Геометрия · 8 класс</text>
  <circle cx="35" cy="574" r="8" fill="none" stroke="#06B6D4" stroke-width="1" opacity="0.3" />
  <circle cx="765" cy="574" r="8" fill="none" stroke="#06B6D4" stroke-width="1" opacity="0.3" />
</svg>