<?xml version="1.0" encoding="UTF-8"?>
<svg xmlns="http://www.w3.org/2000/svg" width="800" height="600" viewBox="0 0 800 600">
  <defs>
    <linearGradient id="bgGrad" x1="0" y1="0" x2="0" y2="1">
      <stop offset="0%" stop-color="#F0FDFA" />
      <stop offset="100%" stop-color="#ECFEFF" />
    </linearGradient>
    <linearGradient id="headerGrad" x1="0" y1="0" x2="1" y2="0">
      <stop offset="0%" stop-color="#0891B2" />
      <stop offset="100%" stop-color="#06B6D4" />
    </linearGradient>
    <linearGradient id="accentGrad" x1="0" y1="0" x2="1" y2="0">
      <stop offset="0%" stop-color="#D97706" />
      <stop offset="100%" />
    </linearGradient>
    <linearGradient id="panelGrad" x1="0" y1="0" x2="1" y2="0">
      <stop offset="0%" stop-color="#06B6D4" />
      <stop offset="100%" stop-color="#0891B2" />
    </linearGradient>
    <clipPath id="ill6a">
      <rect x="20" y="205" width="380" height="160" rx="8" />
    </clipPath>
    <clipPath id="ill6b">
      <rect x="410" y="205" width="380" height="160" rx="8" />
    </clipPath>
  </defs>
  <rect width="800" height="600" fill="url(#bgGrad)" rx="12" />
  <rect x="3" y="3" width="794" height="594" rx="10" fill="none" stroke="#06B6D4" stroke-width="2.5" />
  <rect x="8" y="8" width="784" height="584" rx="8" fill="none" stroke="#06B6D4" stroke-width="1" opacity="0.2" />
  <polygon points="12,12 42,12 12,42" fill="#06B6D4" opacity="0.08" />
  <polygon points="788,12 758,12 788,42" fill="#06B6D4" opacity="0.08" />
  <polygon points="12,588 42,588 12,558" fill="#06B6D4" opacity="0.08" />
  <polygon points="788,588 758,588 788,558" fill="#06B6D4" opacity="0.08" />
  <circle cx="740" cy="100" r="25" fill="none" stroke="#06B6D4" stroke-width="1" opacity="0.1" />
  <polygon points="60,540 80,510 100,540" fill="none" stroke="#06B6D4" stroke-width="1" opacity="0.1" />
  <rect x="70" y="80" width="18" height="18" fill="none" stroke="#06B6D4" stroke-width="1" opacity="0.08" transform="rotate(45, 79, 89)" />
  <rect x="15" y="15" width="770" height="55" fill="url(#headerGrad)" rx="8" opacity="0.92" />
  <rect x="25" y="22" width="50" height="38" fill="#FFFFFF" rx="6" opacity="0.25" />
  <text x="50" y="49" font-family="Arial,sans-serif" font-size="22" font-weight="bold" fill="#FFFFFF" text-anchor="middle">6</text>
  <text x="410" y="48" font-family="Arial,sans-serif" font-size="24" font-weight="bold" fill="#FFFFFF" text-anchor="middle">Площадь параллелограмма и треугольника</text>
  <text x="760" y="35" font-family="Arial,sans-serif" font-size="10" fill="#FFFFFF" text-anchor="end" opacity="0.7">8 класс</text>
  <text x="760" y="50" font-family="Arial,sans-serif" font-size="10" fill="#FFFFFF" text-anchor="end" opacity="0.7">Геометрия</text>
  <line x1="20" y1="80" x2="780" y2="80" stroke="#06B6D4" stroke-width="2" opacity="0.25" />
  <rect x="23" y="93" width="370" height="100" fill="#000000" rx="8" opacity="0.05" />
  <rect x="20" y="90" width="370" height="100" fill="#FFFFFF" rx="8" stroke="#06B6D4" stroke-width="1.5" opacity="0.95" />
  <rect x="20" y="90" width="370" height="24" fill="#06B6D4" rx="8" opacity="0.15" />
  <rect x="20" y="106" width="370" height="8" fill="#06B6D4" opacity="0.15" />
  <text x="205" y="107" font-family="Arial,sans-serif" font-size="12" font-weight="bold" fill="#0E7490" text-anchor="middle">Площадь параллелограмма</text>
  <text x="32" y="130" font-family="Arial,sans-serif" font-size="12" fill="#37474F">Площадь параллелограмма равна</text>
  <text x="32" y="147" font-family="Arial,sans-serif" font-size="12" fill="#37474F">произведению основания на высоту.</text>
  <text x="32" y="164" font-family="Arial,sans-serif" font-size="12" fill="#37474F" />
  <text x="32" y="181" font-family="Arial,sans-serif" font-size="12" fill="#37474F">S = a · h</text>
  <text x="32" y="198" font-family="Arial,sans-serif" font-size="12" fill="#37474F">S = a · b · sin(α)</text>
  <rect x="413" y="93" width="370" height="100" fill="#000000" rx="8" opacity="0.05" />
  <rect x="410" y="90" width="370" height="100" fill="#FFF7ED" rx="8" stroke="#F59E0B" stroke-width="2" opacity="0.95" />
  <rect x="410" y="90" width="370" height="24" fill="#F59E0B" rx="8" opacity="0.2" />
  <rect x="410" y="106" width="370" height="8" fill="#F59E0B" opacity="0.2" />
  <text x="595" y="107" font-family="Arial,sans-serif" font-size="12" font-weight="bold" fill="#92400E" text-anchor="middle">Площадь треугольника</text>
  <text x="422" y="130" font-family="Arial,sans-serif" font-size="12" fill="#92400E" font-weight="bold">S = ½ · a · h   (основная)</text>
  <text x="422" y="148" font-family="Arial,sans-serif" font-size="12" fill="#92400E" font-weight="bold" />
  <text x="422" y="166" font-family="Arial,sans-serif" font-size="12" fill="#92400E" font-weight="bold">S = ½ · a · b · sin(γ)</text>
  <text x="422" y="184" font-family="Arial,sans-serif" font-size="12" fill="#92400E" font-weight="bold" />
  <text x="422" y="202" font-family="Arial,sans-serif" font-size="12" fill="#92400E" font-weight="bold">S = √(p(p−a)(p−b)(p−c))  (Герон)</text>
  <g clip-path="url(#ill6a)">
    <rect x="20" y="205" width="380" height="160" fill="#F0FDFA" opacity="0.6" />
    <rect x="20" y="205" width="380" height="160" fill="none" rx="8" stroke="#06B6D4" stroke-width="1.5" opacity="0.4" />
    <polygon points="100,320 280,320 330,260 150,260" fill="#06B6D4" opacity="0.08" stroke="#06B6D4" stroke-width="2.5" />
    <line x1="150" y1="260" x2="150" y2="320" stroke="#F59E0B" stroke-width="2" stroke-dasharray="3,2" />
    <text x="150" y="284" font-family="Arial,sans-serif" font-size="12" font-weight="bold" fill="#F59E0B" text-anchor="middle" font-style="italic">h</text>
    <text x="190" y="336" font-family="Arial,sans-serif" font-size="14" fill="#EF4444" text-anchor="middle" font-style="italic" font-weight="bold">a</text>
    <text x="200" y="295" font-family="Arial,sans-serif" font-size="16" fill="#0E7490" text-anchor="middle" font-weight="bold">S = a · h</text>
    <line x1="153" y1="257" x2="149" y2="260" stroke="#F59E0B" stroke-width="1" opacity="0.6" />
    <line x1="157" y1="257" x2="153" y2="260" stroke="#F59E0B" stroke-width="1" opacity="0.6" />
    <line x1="161" y1="257" x2="157" y2="260" stroke="#F59E0B" stroke-width="1" opacity="0.6" />
  </g>
  <g clip-path="url(#ill6b)">
    <rect x="410" y="205" width="380" height="160" fill="#F0FDFA" opacity="0.6" />
    <rect x="410" y="205" width="380" height="160" fill="none" rx="8" stroke="#06B6D4" stroke-width="1.5" opacity="0.4" />
    <polygon points="580,320 700,320 620,240" fill="#06B6D4" opacity="0.08" stroke="#06B6D4" stroke-width="2.5" />
    <line x1="620" y1="240" x2="620" y2="320" stroke="#F59E0B" stroke-width="2" stroke-dasharray="3,2" />
    <text x="620" y="274" font-family="Arial,sans-serif" font-size="12" font-weight="bold" fill="#F59E0B" text-anchor="middle" font-style="italic">h</text>
    <text x="640" y="336" font-family="Arial,sans-serif" font-size="14" fill="#EF4444" text-anchor="middle" font-style="italic" font-weight="bold">a</text>
    <text x="568" y="334" font-family="Arial,sans-serif" font-size="13" font-weight="bold" fill="#0E7490">A</text>
    <text x="708" y="334" font-family="Arial,sans-serif" font-size="13" font-weight="bold" fill="#0E7490">B</text>
    <text x="618" y="232" font-family="Arial,sans-serif" font-size="13" font-weight="bold" fill="#0E7490">C</text>
    <rect x="620" y="312" width="8" height="8" fill="none" stroke="#F59E0B" stroke-width="1" />
    <text x="600" y="290" font-family="Arial,sans-serif" font-size="15" fill="#0E7490" text-anchor="middle" font-weight="bold">S = ½ · a · h</text>
  </g>
  <rect x="23" y="383" width="760" height="90" fill="#000000" rx="8" opacity="0.05" />
  <rect x="20" y="380" width="760" height="90" fill="#FFF7ED" rx="8" stroke="#F59E0B" stroke-width="2" opacity="0.95" />
  <rect x="20" y="380" width="760" height="24" fill="#F59E0B" rx="8" opacity="0.2" />
  <rect x="20" y="396" width="760" height="8" fill="#F59E0B" opacity="0.2" />
  <text x="400" y="397" font-family="Arial,sans-serif" font-size="12" font-weight="bold" fill="#92400E" text-anchor="middle">Формула Герона</text>
  <text x="32" y="420" font-family="Arial,sans-serif" font-size="12" fill="#92400E" font-weight="bold">S = √(p · (p−a) · (p−b) · (p−c))</text>
  <text x="32" y="438" font-family="Arial,sans-serif" font-size="12" fill="#92400E" font-weight="bold">где p = (a + b + c) / 2 — полупериметр</text>
  <text x="32" y="456" font-family="Arial,sans-serif" font-size="12" fill="#92400E" font-weight="bold">Пример: a=3, b=4, c=5;  p = 6;  S = √(6·3·2·1) = √36 = 6</text>
  <rect x="23" y="488" width="760" height="55" fill="#000000" rx="8" opacity="0.05" />
  <rect x="20" y="485" width="760" height="55" fill="#FFFFFF" rx="8" stroke="#06B6D4" stroke-width="1.5" opacity="0.95" />
  <rect x="20" y="485" width="760" height="24" fill="#06B6D4" rx="8" opacity="0.15" />
  <rect x="20" y="501" width="760" height="8" fill="#06B6D4" opacity="0.15" />
  <text x="400" y="502" font-family="Arial,sans-serif" font-size="12" font-weight="bold" fill="#0E7490" text-anchor="middle">Прямоугольный треугольник</text>
  <text x="32" y="525" font-family="Arial,sans-serif" font-size="12" fill="#37474F">S = ½ · a · b  (a, b — катеты)     |     S = ½ · c · h_c  (c — гипотенуза, h_c — высота к гипотенузе)     |     Равносторонний: S = a²√3 / 4</text>
  <rect x="15" y="560" width="770" height="28" fill="url(#panelGrad)" opacity="0.08" rx="6" />
  <text x="400" y="578" font-family="Arial,sans-serif" font-size="11" fill="#06B6D4" text-anchor="middle" opacity="0.6">Геометрия · 8 класс</text>
  <circle cx="35" cy="574" r="8" fill="none" stroke="#06B6D4" stroke-width="1" opacity="0.3" />
  <circle cx="765" cy="574" r="8" fill="none" stroke="#06B6D4" stroke-width="1" opacity="0.3" />
</svg>