<svg xmlns="http://www.w3.org/2000/svg" viewBox="0 0 500 350">
  <defs><linearGradient id="bg" x1="0%" y1="0%" x2="100%" y2="100%">
    <stop offset="0%" style="stop-color:#FFF3E0;stop-opacity:0.6"/><stop offset="100%" style="stop-color:#FFE0B2;stop-opacity:0.3"/>
  </linearGradient></defs>
  <rect width="500" height="350" fill="url(#bg)" rx="14"/>
  <rect x="4" y="4" width="492" height="342" rx="12" fill="none" stroke="#D84315" stroke-width="2.5" opacity="0.35"/>
  <text x="250" y="48" font-family="Arial,sans-serif" font-size="24" font-weight="bold" fill="#D84315" text-anchor="middle">Лазание</text>
  <line x1="40" y1="62" x2="460" y2="62" stroke="#D84315" stroke-width="2" opacity="0.3"/>
  <rect x="40" y="74" width="100" height="5" rx="2.5" fill="#D84315" opacity="0.2"/>
  
    <circle cx="425" cy="38" r="8" fill="none" stroke="#D84315" stroke-width="2" opacity="0.25"/>
    <line x1="425" y1="46" x2="425" y2="70" stroke="#D84315" stroke-width="2.5" opacity="0.25"/>
    <line x1="425" y1="55" x2="408" y2="65" stroke="#D84315" stroke-width="2" opacity="0.2"/>
    <line x1="425" y1="55" x2="442" y2="45" stroke="#D84315" stroke-width="2" opacity="0.2"/>
    <line x1="425" y1="70" x2="412" y2="88" stroke="#D84315" stroke-width="2" opacity="0.2"/>
    <line x1="425" y1="70" x2="438" y2="88" stroke="#D84315" stroke-width="2" opacity="0.2"/>
  
    <rect x="30" y="100" width="210" height="90" rx="12" fill="white" stroke="#D84315" stroke-width="2.5" opacity="0.95"/>
    <text x="135" y="142" font-family="Arial,sans-serif" font-size="26" text-anchor="middle" fill="#D84315" font-weight="bold">🪢</text>
    <text x="135" y="172" font-family="Arial,sans-serif" font-size="17" text-anchor="middle" fill="#333" font-weight="bold">Канат</text>
    <text x="135" y="186" font-family="Arial,sans-serif" font-size="12" text-anchor="middle" fill="#666">в три приёма</text>
    <rect x="260" y="100" width="210" height="90" rx="12" fill="white" stroke="#D84315" stroke-width="2.5" opacity="0.95"/>
    <text x="365" y="142" font-family="Arial,sans-serif" font-size="26" text-anchor="middle" fill="#D84315" font-weight="bold">🧱</text>
    <text x="365" y="172" font-family="Arial,sans-serif" font-size="17" text-anchor="middle" fill="#333" font-weight="bold">Стенка</text>
    <text x="365" y="186" font-family="Arial,sans-serif" font-size="12" text-anchor="middle" fill="#666">руки+ноги</text>
    <rect x="30" y="210" width="210" height="90" rx="12" fill="white" stroke="#D84315" stroke-width="2.5" opacity="0.95"/>
    <text x="135" y="252" font-family="Arial,sans-serif" font-size="26" text-anchor="middle" fill="#D84315" font-weight="bold">🚧</text>
    <text x="135" y="282" font-family="Arial,sans-serif" font-size="17" text-anchor="middle" fill="#333" font-weight="bold">Перелезание</text>
    <text x="135" y="296" font-family="Arial,sans-serif" font-size="12" text-anchor="middle" fill="#666">через барьер</text>
    <rect x="260" y="210" width="210" height="90" rx="12" fill="white" stroke="#D84315" stroke-width="2.5" opacity="0.95"/>
    <text x="365" y="252" font-family="Arial,sans-serif" font-size="26" text-anchor="middle" fill="#D84315" font-weight="bold">⬇️</text>
    <text x="365" y="282" font-family="Arial,sans-serif" font-size="17" text-anchor="middle" fill="#333" font-weight="bold">Спуск</text>
    <text x="365" y="296" font-family="Arial,sans-serif" font-size="12" text-anchor="middle" fill="#666">осторожно</text>
  <rect x="30" y="315" width="440" height="26" rx="8" fill="#D84315" opacity="0.08"/>
  <text x="250" y="333" font-family="Arial,sans-serif" font-size="15" fill="#D84315" text-anchor="middle" font-weight="bold">Лазание развивает силу рук</text>
</svg>