<svg xmlns="http://www.w3.org/2000/svg" viewBox="0 0 500 350">
<defs><linearGradient id="bg" x1="0" y1="0" x2="1" y2="1"><stop offset="0%" stop-color="#E8F5E9"/><stop offset="100%" stop-color="#C8E6C9"/></linearGradient></defs>
<rect width="500" height="350" fill="url(#bg)" rx="10"/>
<rect x="3" y="3" width="494" height="344" rx="8" fill="none" stroke="#2E7D32" stroke-width="2.5"/>
<text x="250" y="30" font-family="Arial,sans-serif" font-size="14" font-weight="bold" fill="#2E7D32" text-anchor="middle">Клетка: строение и жизнедеятельность</text>
<text x="250" y="46" font-family="Arial,sans-serif" font-size="10" fill="#888" text-anchor="middle">Биология 8 класс — Урок 7</text>
<line x1="30" y1="52" x2="470" y2="52" stroke="#2E7D32" stroke-width="1.5" opacity="0.25"/>

<g transform="translate(200,180)">
<ellipse cx="0" cy="0" rx="80" ry="55" fill="#E8F5E9" stroke="#2E7D32" stroke-width="2"/>
<ellipse cx="-15" cy="-5" rx="20" ry="15" fill="#C8E6C9" stroke="#388E3C" stroke-width="2"/>
<circle cx="-15" cy="-5" r="5" fill="#81C784" stroke="#1B5E20" stroke-width="1"/>
<ellipse cx="25" cy="-15" rx="12" ry="6" fill="#FFCC80" stroke="#E65100" stroke-width="1"/>
<ellipse cx="30" cy="15" rx="10" ry="5" fill="#FFAB91" stroke="#BF360C" stroke-width="1"/>
<circle cx="-35" cy="10" r="6" fill="#BBDEFB" stroke="#1565C0" stroke-width="1"/>
<circle cx="10" cy="20" r="5" fill="#E1BEE7" stroke="#7B1FA2" stroke-width="1"/>
<rect x="-50" y="-25" width="8" height="50" rx="2" fill="#CE93D8" stroke="#7B1FA2" stroke-width="1"/>
<text x="-15" y="-28" font-family="Arial,sans-serif" font-size="6" fill="#388E3C" text-anchor="middle">Ядро</text>
<text x="25" y="-25" font-family="Arial,sans-serif" font-size="5" fill="#E65100" text-anchor="middle">Комплекс Гольджи</text>
<text x="30" y="25" font-family="Arial,sans-serif" font-size="5" fill="#BF360C" text-anchor="middle">Митохондрия</text>
<text x="-35" y="22" font-family="Arial,sans-serif" font-size="5" fill="#1565C0" text-anchor="middle">Вакуоль</text>
<text x="-50" y="-30" font-family="Arial,sans-serif" font-size="5" fill="#7B1FA2" text-anchor="middle">ЭПС</text>
</g>
<g transform="translate(400,170)">
<rect x="-55" y="-50" width="110" height="100" rx="5" fill="white" stroke="#2E7D32" stroke-width="1.5"/>
<text x="0" y="-35" font-family="Arial,sans-serif" font-size="7" fill="#2E7D32" text-anchor="middle" font-weight="bold">Органоиды клетки</text>
<text x="0" y="-20" font-family="Arial,sans-serif" font-size="6" fill="#555" text-anchor="middle">Ядро — управление</text>
<text x="0" y="-8" font-family="Arial,sans-serif" font-size="6" fill="#555" text-anchor="middle">Митохондрии — энергия</text>
<text x="0" y="4" font-family="Arial,sans-serif" font-size="6" fill="#555" text-anchor="middle">Рибосомы — белки</text>
<text x="0" y="16" font-family="Arial,sans-serif" font-size="6" fill="#555" text-anchor="middle">ЭПС — транспорт</text>
<text x="0" y="28" font-family="Arial,sans-serif" font-size="6" fill="#555" text-anchor="middle">Гольджи — упаковка</text>
<text x="0" y="40" font-family="Arial,sans-serif" font-size="6" fill="#555" text-anchor="middle">Лизосомы — переваривание</text>
</g>

<rect x="10" y="325" width="480" height="20" rx="4" fill="#2E7D32" opacity="0.85"/>
<text x="250" y="339" font-family="Arial,sans-serif" font-size="11" text-anchor="middle" fill="white" font-weight="bold">Биология 8 класс</text>
</svg>