<svg xmlns="http://www.w3.org/2000/svg" viewBox="0 0 500 350">
  <defs>
    <linearGradient id="bg" x1="0" y1="0" x2="0" y2="1">
      <stop offset="0%" stop-color="#FCE4EC"/>
      <stop offset="100%" stop-color="#FFFFFF"/>
    </linearGradient>
    <linearGradient id="panel" x1="0" y1="0" x2="1" y2="0">
      <stop offset="0%" stop-color="#E91E63"/>
      <stop offset="100%" stop-color="#C2185B"/>
    </linearGradient>
  </defs>
  <rect width="500" height="350" fill="url(#bg)" rx="10"/>
  <rect x="3" y="3" width="494" height="344" rx="8" fill="none" stroke="#E91E63" stroke-width="3"/>
  <rect x="8" y="8" width="484" height="334" rx="6" fill="none" stroke="#E91E63" stroke-width="1" opacity="0.3"/>
  <polygon points="10,10 30,10 10,30" fill="#E91E63" opacity="0.12"/>
  <polygon points="490,10 470,10 490,30" fill="#C2185B" opacity="0.12"/>
  <polygon points="10,340 30,340 10,320" fill="#E91E63" opacity="0.12"/>
  <polygon points="490,340 470,340 490,320" fill="#C2185B" opacity="0.12"/>
  <text x="250" y="48" font-family="Arial,sans-serif" font-size="22" font-weight="bold" fill="#E91E63" text-anchor="middle">Урок 6: Essay Writing</text>
  <text x="250" y="68" font-family="Arial,sans-serif" font-size="12" fill="#777" text-anchor="middle">Английский язык - Урок 6</text>
  <line x1="30" y1="78" x2="470" y2="78" stroke="#E91E63" stroke-width="2" opacity="0.25"/>
  <rect x="30" y="75" width="60" height="5" fill="#E91E63" opacity="0.18" rx="1"/>
  <rect x="410" y="75" width="60" height="5" fill="#C2185B" opacity="0.12" rx="1"/>
  <clipPath id="ill"><rect x="15" y="85" width="470" height="215" rx="6"/></clipPath>
  <g clip-path="url(#ill)">
  <rect x="15" y="85" width="470" height="215" fill="#FCE4EC" opacity="0.5"/>
  <rect x="170" y="130" width="160" height="100" fill="none" stroke="#E91E63" stroke-width="2" rx="8"/><text x="250" y="165" font-family="Georgia,serif" font-size="16" fill="#E91E63" text-anchor="middle" opacity="0.6">Essay</text><line x1="190" y1="175" x2="310" y2="175" stroke="#E91E63" stroke-width="1" opacity="0.3"/><line x1="190" y1="190" x2="290" y2="190" stroke="#E91E63" stroke-width="1" opacity="0.2"/><line x1="190" y1="205" x2="300" y2="205" stroke="#E91E63" stroke-width="1" opacity="0.15"/>
  </g>
  <rect x="10" y="305" width="480" height="35" fill="url(#panel)" opacity="0.08" rx="5"/>
  <text x="250" y="327" font-family="Arial,sans-serif" font-size="11" fill="#E91E63" text-anchor="middle" opacity="0.6">11 класс • Английский язык</text>
</svg>