<svg xmlns="http://www.w3.org/2000/svg" viewBox="0 0 500 350">
  <defs>
    <linearGradient id="bg" x1="0" y1="0" x2="0" y2="1">
      <stop offset="0%" stop-color="#FFF3E0"/>
      <stop offset="100%" stop-color="#FFFFFF"/>
    </linearGradient>
  </defs>
  <rect width="500" height="350" fill="url(#bg)" rx="10"/>
  <rect x="3" y="3" width="494" height="344" rx="8" fill="none" stroke="#E65100" stroke-width="2.5"/>
  <text x="250" y="38" font-family="Arial,sans-serif" font-size="19" font-weight="bold" fill="#E65100" text-anchor="middle">М.А. Булгаков</text>
  <text x="250" y="56" font-family="Arial,sans-serif" font-size="11" fill="#888888" text-anchor="middle">Литература — Урок 6</text>
  <line x1="30" y1="64" x2="470" y2="64" stroke="#E65100" stroke-width="2" opacity="0.25"/>
  <rect x="20" y="72" width="160" height="170" rx="5" fill="#E65100" opacity="0.08"/>
  <circle cx="100" cy="108.6" r="17.6" fill="#E65100" opacity="0.6"/>
  <path d="M73.6,139.4 Q100,121.8 126.4,139.4" fill="#E65100" opacity="0.4"/>  <text x="100" y="175" font-family="Arial,sans-serif" font-size="10" fill="#E65100" text-anchor="middle" font-weight="bold" font-style="">Михаил Афанасьевич</text>
  <text x="100" y="188" font-family="Arial,sans-serif" font-size="12" fill="#BF360C" text-anchor="middle" font-weight="bold" font-style="">Булгаков</text>
  <text x="100" y="205" font-family="Arial,sans-serif" font-size="10" fill="#555555" text-anchor="middle" font-weight="normal" font-style="">1891 — 1940</text>
  <path d="M130,225 Q132,215 138,218 Q140,212 144,218 Q148,212 150,218 Q156,215 158,225 L158,235 Q155,238 150,238 L138,238 Q133,238 130,235 Z" fill="#E65100" opacity="0.25"/>
  <path d="M134,218 L136,210 L140,218" fill="#E65100" opacity="0.25"/>
  <path d="M148,218 L150,210 L154,218" fill="#E65100" opacity="0.25"/>
  <rect x="195" y="72" width="285" height="80" rx="5" fill="#E65100" opacity="0.08"/>
  <text x="205" y="90" font-family="Arial,sans-serif" font-size="13" fill="#E65100" text-anchor="start" font-weight="bold" font-style="">Произведения</text>
  <text x="205" y="110" font-family="Arial,sans-serif" font-size="10" fill="#333333" text-anchor="start" font-weight="normal" font-style="">«Мастер и Маргарита» — роман</text>
  <text x="205" y="126" font-family="Arial,sans-serif" font-size="10" fill="#333333" text-anchor="start" font-weight="normal" font-style="">«Собачье сердце» — повесть</text>
  <text x="205" y="142" font-family="Arial,sans-serif" font-size="10" fill="#333333" text-anchor="start" font-weight="normal" font-style="">«Белая гвардия» — роман</text>
  <text x="205" y="158" font-family="Arial,sans-serif" font-size="10" fill="#333333" text-anchor="start" font-weight="normal" font-style="">«Дни Турбиных» — пьеса</text>
  <rect x="195" y="160" width="285" height="82" rx="5" fill="#E65100" opacity="0.08"/>
  <text x="205" y="178" font-family="Arial,sans-serif" font-size="12" fill="#E65100" text-anchor="start" font-weight="bold" font-style="">«Мастер и Маргарита»</text>
  <circle cx="210" cy="195" r="3" fill="#E65100" opacity="0.6"/>
  <text x="220" y="199" font-family="Arial,sans-serif" font-size="9" fill="#333333" text-anchor="start" font-weight="normal" font-style="">Добро и зло, творчество и власть</text>
  <circle cx="210" cy="212" r="3" fill="#E65100" opacity="0.6"/>
  <text x="220" y="216" font-family="Arial,sans-serif" font-size="9" fill="#333333" text-anchor="start" font-weight="normal" font-style="">Два временных пласта: Москва и Ершалаим</text>
  <circle cx="210" cy="229" r="3" fill="#E65100" opacity="0.6"/>
  <text x="220" y="233" font-family="Arial,sans-serif" font-size="9" fill="#333333" text-anchor="start" font-weight="normal" font-style="">Милосердие и справедливость</text>
  <circle cx="210" cy="246" r="3" fill="#E65100" opacity="0.6"/>
  <text x="220" y="250" font-family="Arial,sans-serif" font-size="9" fill="#333333" text-anchor="start" font-weight="normal" font-style="">Трагедия художника в обществе</text>
  <rect x="20" y="250" width="460" height="45" rx="5" fill="#E65100" opacity="0.08"/>
  <text x="30" y="268" font-family="Arial,sans-serif" font-size="11" fill="#E65100" text-anchor="start" font-weight="bold" font-style="">Особенности:</text>
  <text x="30" y="285" font-family="Arial,sans-serif" font-size="9" fill="#333333" text-anchor="start" font-weight="normal" font-style="">Мистический реализм, сатира, гротеск, переплетение эпох, философская глубина</text>
  <ellipse cx="250" cy="330" rx="200" ry="10" fill="#E65100" opacity="0.06"/>
  <text x="250" y="340" font-family="Arial,sans-serif" font-size="11" fill="#E65100" text-anchor="middle" font-style="italic">Литература · 10 класс</text>
</svg>