<svg xmlns="http://www.w3.org/2000/svg" viewBox="0 0 500 350">
<defs><linearGradient id="bg" x1="0" y1="0" x2="1" y2="1"><stop offset="0%" stop-color="#E8F5E9"/><stop offset="100%" stop-color="#C8E6C9"/></linearGradient></defs>
<rect width="500" height="350" fill="url(#bg)" rx="10"/>
<rect x="3" y="3" width="494" height="344" rx="8" fill="none" stroke="#2E7D32" stroke-width="2.5"/>
<text x="250" y="30" font-family="Arial,sans-serif" font-size="14" font-weight="bold" fill="#2E7D32" text-anchor="middle">Основные понятия генетики</text>
<text x="250" y="46" font-family="Arial,sans-serif" font-size="10" fill="#888" text-anchor="middle">Биология 9 класс — Урок 12</text>
<line x1="30" y1="52" x2="470" y2="52" stroke="#2E7D32" stroke-width="1.5" opacity="0.25"/>

<g transform="translate(250,175)">
<circle cx="0" cy="0" r="65" fill="#2E7D32" opacity="0.06" stroke="#2E7D32" stroke-width="2"/>
</g>
<g transform="translate(120,110)">
<rect x="-55" y="-25" width="110" height="50" rx="5" fill="white" stroke="#C62828" stroke-width="1.2"/>
<text x="0" y="-12" font-family="Arial,sans-serif" font-size="7" fill="#C62828" text-anchor="middle" font-weight="bold">Ген</text>
<line x1="-40" y1="-5" x2="40" y2="-5" stroke="#C62828" stroke-width="0.5"/>
<text x="0" y="7" font-family="Arial,sans-serif" font-size="5" fill="#555" text-anchor="middle">Участок ДНК,</text>
<text x="0" y="17" font-family="Arial,sans-serif" font-size="5" fill="#555" text-anchor="middle">кодирующий белок</text>
</g>
<g transform="translate(380,110)">
<rect x="-55" y="-25" width="110" height="50" rx="5" fill="white" stroke="#1565C0" stroke-width="1.2"/>
<text x="0" y="-12" font-family="Arial,sans-serif" font-size="7" fill="#1565C0" text-anchor="middle" font-weight="bold">Аллель</text>
<line x1="-40" y1="-5" x2="40" y2="-5" stroke="#1565C0" stroke-width="0.5"/>
<text x="0" y="7" font-family="Arial,sans-serif" font-size="5" fill="#555" text-anchor="middle">Разные формы</text>
<text x="0" y="17" font-family="Arial,sans-serif" font-size="5" fill="#555" text-anchor="middle">одного гена (A, a)</text>
</g>
<g transform="translate(120,230)">
<rect x="-55" y="-25" width="110" height="50" rx="5" fill="white" stroke="#9C27B0" stroke-width="1.2"/>
<text x="0" y="-12" font-family="Arial,sans-serif" font-size="7" fill="#9C27B0" text-anchor="middle" font-weight="bold">Генотип</text>
<line x1="-40" y1="-5" x2="40" y2="-5" stroke="#9C27B0" stroke-width="0.5"/>
<text x="0" y="7" font-family="Arial,sans-serif" font-size="5" fill="#555" text-anchor="middle">Совокупность</text>
<text x="0" y="17" font-family="Arial,sans-serif" font-size="5" fill="#555" text-anchor="middle">всех генов (AaBb)</text>
</g>
<g transform="translate(380,230)">
<rect x="-55" y="-25" width="110" height="50" rx="5" fill="white" stroke="#E65100" stroke-width="1.2"/>
<text x="0" y="-12" font-family="Arial,sans-serif" font-size="7" fill="#E65100" text-anchor="middle" font-weight="bold">Фенотип</text>
<line x1="-40" y1="-5" x2="40" y2="-5" stroke="#E65100" stroke-width="0.5"/>
<text x="0" y="7" font-family="Arial,sans-serif" font-size="5" fill="#555" text-anchor="middle">Внешние признаки</text>
<text x="0" y="17" font-family="Arial,sans-serif" font-size="5" fill="#555" text-anchor="middle">цвет, форма, размер</text>
</g>
<rect x="30" y="290" width="440" height="22" rx="5" fill="white" stroke="#2E7D32" stroke-width="1" opacity="0.9"/>
<text x="250" y="304" font-family="Arial,sans-serif" font-size="7" fill="#555" text-anchor="middle">Гомозигота: AA или aa | Гетерозигота: Aa | Доминантный: A | Рецессивный: a</text>
<text x="250" y="315" font-family="Arial,sans-serif" font-size="7" fill="#555" text-anchor="middle">Генотип + Среда = Фенотип | Аллельные гены в одной хромосомной паре</text>

<rect x="10" y="325" width="480" height="20" rx="4" fill="#2E7D32" opacity="0.85"/>
<text x="250" y="339" font-family="Arial,sans-serif" font-size="11" text-anchor="middle" fill="white" font-weight="bold">Биология 9 класс</text>
</svg>