<svg xmlns="http://www.w3.org/2000/svg" viewBox="0 0 500 350">
<defs><linearGradient id="bg" x1="0" y1="0" x2="1" y2="1"><stop offset="0%" stop-color="#E8F5E9"/><stop offset="100%" stop-color="#C8E6C9"/></linearGradient></defs>
<rect width="500" height="350" fill="url(#bg)" rx="10"/>
<rect x="3" y="3" width="494" height="344" rx="8" fill="none" stroke="#2E7D32" stroke-width="2.5"/>
<text x="250" y="30" font-family="Arial,sans-serif" font-size="14" font-weight="bold" fill="#2E7D32" text-anchor="middle">Законы Менделя</text>
<text x="250" y="46" font-family="Arial,sans-serif" font-size="10" fill="#888" text-anchor="middle">Биология 9 класс — Урок 13</text>
<line x1="30" y1="52" x2="470" y2="52" stroke="#2E7D32" stroke-width="1.5" opacity="0.25"/>

<!-- Punnett square for monohybrid cross -->
<g transform="translate(150,175)">
<text x="0" y="-65" font-family="Arial,sans-serif" font-size="7" fill="#2E7D32" text-anchor="middle" font-weight="bold">Моногибридное скрещивание</text>
<text x="0" y="-52" font-family="Arial,sans-serif" font-size="6" fill="#555" text-anchor="middle">Aa x Aa</text>
<!-- Grid -->
<line x1="-40" y1="-40" x2="-40" y2="40" stroke="#2E7D32" stroke-width="1.5"/>
<line x1="-40" y1="-40" x2="40" y2="-40" stroke="#2E7D32" stroke-width="1.5"/>
<rect x="-40" y="-40" width="80" height="80" fill="none" stroke="#2E7D32" stroke-width="1"/>
<line x1="-40" y1="0" x2="40" y2="0" stroke="#2E7D32" stroke-width="0.8"/>
<line x1="0" y1="-40" x2="0" y2="40" stroke="#2E7D32" stroke-width="0.8"/>
<!-- Headers -->
<text x="-20" y="-45" font-family="Arial,sans-serif" font-size="8" fill="#2E7D32" text-anchor="middle" font-weight="bold">A</text>
<text x="20" y="-45" font-family="Arial,sans-serif" font-size="8" fill="#2E7D32" text-anchor="middle" font-weight="bold">a</text>
<text x="-50" y="-17" font-family="Arial,sans-serif" font-size="8" fill="#2E7D32" text-anchor="middle" font-weight="bold">A</text>
<text x="-50" y="23" font-family="Arial,sans-serif" font-size="8" fill="#2E7D32" text-anchor="middle" font-weight="bold">a</text>
<!-- Cells -->
<rect x="-40" y="-40" width="40" height="40" fill="#C8E6C9" opacity="0.5"/>
<rect x="0" y="-40" width="40" height="40" fill="#C8E6C9" opacity="0.3"/>
<rect x="-40" y="0" width="40" height="40" fill="#C8E6C9" opacity="0.3"/>
<rect x="0" y="0" width="40" height="40" fill="white" opacity="0.5"/>
<text x="-20" y="-15" font-family="Arial,sans-serif" font-size="9" fill="#1B5E20" text-anchor="middle" font-weight="bold">AA</text>
<text x="20" y="-15" font-family="Arial,sans-serif" font-size="9" fill="#2E7D32" text-anchor="middle" font-weight="bold">Aa</text>
<text x="-20" y="25" font-family="Arial,sans-serif" font-size="9" fill="#2E7D32" text-anchor="middle" font-weight="bold">Aa</text>
<text x="20" y="25" font-family="Arial,sans-serif" font-size="9" fill="#888" text-anchor="middle" font-weight="bold">aa</text>
</g>
<!-- Ratios and laws -->
<g transform="translate(380,140)">
<rect x="-70" y="-55" width="140" height="110" rx="5" fill="white" stroke="#2E7D32" stroke-width="1.5"/>
<text x="0" y="-40" font-family="Arial,sans-serif" font-size="7" fill="#2E7D32" text-anchor="middle" font-weight="bold">Законы Менделя</text>
<line x1="-55" y1="-33" x2="55" y2="-33" stroke="#2E7D32" stroke-width="0.5"/>
<text x="0" y="-20" font-family="Arial,sans-serif" font-size="6" fill="#555" text-anchor="middle">I: Единообразие F1</text>
<text x="0" y="-8" font-family="Arial,sans-serif" font-size="5" fill="#888" text-anchor="middle">(доминирование)</text>
<text x="0" y="8" font-family="Arial,sans-serif" font-size="6" fill="#555" text-anchor="middle">II: Расщепление 3:1</text>
<text x="0" y="20" font-family="Arial,sans-serif" font-size="5" fill="#888" text-anchor="middle">в F2</text>
<text x="0" y="38" font-family="Arial,sans-serif" font-size="6" fill="#555" text-anchor="middle">III: Независимое</text>
<text x="0" y="48" font-family="Arial,sans-serif" font-size="5" fill="#888" text-anchor="middle">наследование (9:3:3:1)</text>
</g>

<rect x="10" y="325" width="480" height="20" rx="4" fill="#2E7D32" opacity="0.85"/>
<text x="250" y="339" font-family="Arial,sans-serif" font-size="11" text-anchor="middle" fill="white" font-weight="bold">Биология 9 класс</text>
</svg>