<svg xmlns="http://www.w3.org/2000/svg" viewBox="0 0 500 350">
  <defs>
    <linearGradient id="bg" x1="0" y1="0" x2="1" y2="1">
      <stop offset="0%" stop-color="#E8F5E9"/>
      <stop offset="100%" stop-color="#C8E6C9"/>
    </linearGradient>
  </defs>
  <rect width="500" height="350" fill="url(#bg)" rx="10"/>
  <rect x="3" y="3" width="494" height="344" rx="8" fill="none" stroke="#2E7D32" stroke-width="2.5"/>
  <text x="250" y="30" font-family="Arial,sans-serif" font-size="16" font-weight="bold" fill="#2E7D32" text-anchor="middle">Признаки живого и уровни организации</text>
  <text x="250" y="46" font-family="Arial,sans-serif" font-size="10" fill="#888" text-anchor="middle">Биология 6 класс - Урок 2</text>
  <line x1="30" y1="52" x2="470" y2="52" stroke="#2E7D32" stroke-width="1.5" opacity="0.25"/>
  
  <!-- Levels of organization pyramid -->
  <g transform="translate(150,190)">
    <!-- Bottom: Молекулярный -->
    <path d="M-120 80 L120 80 L90 55 L-90 55 Z" fill="#E3F2FD" stroke="#1565C0" stroke-width="1.5"/>
    <text x="0" y="72" font-family="Arial,sans-serif" font-size="8" fill="#1565C0" text-anchor="middle">Молекулярный</text>
    <!-- Клеточный -->
    <path d="M-90 55 L90 55 L60 30 L-60 30 Z" fill="#E8F5E9" stroke="#2E7D32" stroke-width="1.5"/>
    <text x="0" y="47" font-family="Arial,sans-serif" font-size="8" fill="#2E7D32" text-anchor="middle">Клеточный</text>
    <!-- Тканевый -->
    <path d="M-60 30 L60 30 L35 5 L-35 5 Z" fill="#FFF3E0" stroke="#E65100" stroke-width="1.5"/>
    <text x="0" y="22" font-family="Arial,sans-serif" font-size="8" fill="#E65100" text-anchor="middle">Тканевый</text>
    <!-- Органный -->
    <path d="M-35 5 L35 5 L20 -18 L-20 -18 Z" fill="#FCE4EC" stroke="#C62828" stroke-width="1.5"/>
    <text x="0" y="-2" font-family="Arial,sans-serif" font-size="8" fill="#C62828" text-anchor="middle">Органный</text>
    <!-- Организменный -->
    <path d="M-20 -18 L20 -18 L8 -38 L-8 -38 Z" fill="#E8EAF6" stroke="#283593" stroke-width="1.5"/>
    <text x="0" y="-24" font-family="Arial,sans-serif" font-size="7" fill="#283593" text-anchor="middle">Организменный</text>
  </g>
  <!-- Signs of living on right -->
  <rect x="290" y="65" width="190" height="230" rx="8" fill="white" stroke="#2E7D32" stroke-width="1" opacity="0.9"/>
  <text x="385" y="82" font-family="Arial,sans-serif" font-size="10" fill="#2E7D32" text-anchor="middle" font-weight="bold">Признаки живого</text>
  <circle cx="310" cy="100" r="6" fill="#4CAF50" opacity="0.7"/><text x="325" y="104" font-family="Arial,sans-serif" font-size="8" fill="#333">Питание</text>
  <circle cx="310" cy="125" r="6" fill="#42A5F5" opacity="0.7"/><text x="325" y="129" font-family="Arial,sans-serif" font-size="8" fill="#333">Дыхание</text>
  <circle cx="310" cy="150" r="6" fill="#FF9800" opacity="0.7"/><text x="325" y="154" font-family="Arial,sans-serif" font-size="8" fill="#333">Выделение</text>
  <circle cx="310" cy="175" r="6" fill="#9C27B0" opacity="0.7"/><text x="325" y="179" font-family="Arial,sans-serif" font-size="8" fill="#333">Размножение</text>
  <circle cx="310" cy="200" r="6" fill="#E53935" opacity="0.7"/><text x="325" y="204" font-family="Arial,sans-serif" font-size="8" fill="#333">Рост и развитие</text>
  <circle cx="310" cy="225" r="6" fill="#009688" opacity="0.7"/><text x="325" y="229" font-family="Arial,sans-serif" font-size="8" fill="#333">Движение</text>
  <circle cx="310" cy="250" r="6" fill="#795548" opacity="0.7"/><text x="325" y="254" font-family="Arial,sans-serif" font-size="8" fill="#333">Раздражимость</text>
  <circle cx="310" cy="275" r="6" fill="#607D8B" opacity="0.7"/><text x="325" y="279" font-family="Arial,sans-serif" font-size="8" fill="#333">Обмен веществ</text>

  <rect x="10" y="325" width="480" height="20" rx="4" fill="#2E7D32" opacity="0.85"/>
  <text x="250" y="339" font-family="Arial,sans-serif" font-size="11" text-anchor="middle" fill="white" font-weight="bold">Биология 6 класс</text>
</svg>