<?xml version="1.0" encoding="UTF-8"?>
<svg xmlns="http://www.w3.org/2000/svg" viewBox="0 0 500 350">
  <defs>
    <linearGradient id="headerGrad" x1="0%" y1="0%" x2="100%" y2="0%">
      <stop offset="0%" style="stop-color:#1B5E20;stop-opacity:1" />
      <stop offset="100%" style="stop-color:#2E7D32;stop-opacity:1" />
    </linearGradient>
    <linearGradient id="footerGrad" x1="0%" y1="0%" x2="100%" y2="0%">
      <stop offset="0%" style="stop-color:#2E7D32;stop-opacity:1" />
      <stop offset="100%" style="stop-color:#1B5E20;stop-opacity:1" />
    </linearGradient>
  </defs>
  <rect x="0" y="0" width="500" height="350" rx="12" ry="12" fill="#E8F5E9" stroke="#2E7D32" stroke-width="2.5"/>
  <rect x="0" y="0" width="500" height="52" rx="12" ry="12" fill="url(#headerGrad)"/>
  <rect x="0" y="30" width="500" height="22" fill="url(#headerGrad)"/>
  <rect x="14" y="10" width="32" height="32" rx="6" ry="6" fill="#FFFFFF" opacity="0.2"/>
  <text x="30" y="33" text-anchor="middle" font-family="Arial, sans-serif" font-size="16" font-weight="bold" fill="#FFFFFF">2</text>
  <text x="56" y="24" font-family="Arial, sans-serif" font-size="13" font-weight="bold" fill="#FFFFFF">Двигательная активность и здоровье</text>
  <text x="56" y="42" font-family="Arial, sans-serif" font-size="10" fill="#C8E6C9">Физкультура — Урок 2</text>
  <line x1="15" y1="54" x2="485" y2="54" stroke="#66BB6A" stroke-width="1" opacity="0.5"/>
  <rect x="20" y="68" width="220" height="120" rx="6" ry="6" fill="#F1F8E9" stroke="#A5D6A7" stroke-width="1"/>
  <rect x="20" y="68" width="220" height="22" rx="6" ry="6" fill="#2E7D32" opacity="0.85"/>
  <rect x="20" y="80" width="220" height="10" fill="#2E7D32" opacity="0.85"/>
  <text x="130" y="83" text-anchor="middle" font-family="Arial, sans-serif" font-size="10" font-weight="bold" fill="#FFFFFF">Влияние на организм</text>
  <text x="28" y="104" font-family="Arial, sans-serif" font-size="9" fill="#2E7D32">• Укрепление сердечно-сосудистой</text>
  <text x="28" y="118" font-family="Arial, sans-serif" font-size="9" fill="#2E7D32">• Улучшение дыхания</text>
  <text x="28" y="132" font-family="Arial, sans-serif" font-size="9" fill="#2E7D32">• Развитие мышц и костей</text>
  <text x="28" y="146" font-family="Arial, sans-serif" font-size="9" fill="#2E7D32">• Повышение иммунитета</text>
  <rect x="260" y="68" width="220" height="120" rx="6" ry="6" fill="#F1F8E9" stroke="#A5D6A7" stroke-width="1"/>
  <rect x="260" y="68" width="220" height="22" rx="6" ry="6" fill="#2E7D32" opacity="0.85"/>
  <rect x="260" y="80" width="220" height="10" fill="#2E7D32" opacity="0.85"/>
  <text x="370" y="83" text-anchor="middle" font-family="Arial, sans-serif" font-size="10" font-weight="bold" fill="#FFFFFF">Нормы активности</text>
  <text x="268" y="104" font-family="Arial, sans-serif" font-size="9" fill="#2E7D32">• Подростки: 60 мин/день</text>
  <text x="268" y="118" font-family="Arial, sans-serif" font-size="9" fill="#2E7D32">• Аэробная: 3-5 раз/нед.</text>
  <text x="268" y="132" font-family="Arial, sans-serif" font-size="9" fill="#2E7D32">• Силовая: 2-3 раз/нед.</text>
  <text x="268" y="146" font-family="Arial, sans-serif" font-size="9" fill="#2E7D32">• Растяжка: ежедневно</text>
  <rect x="20" y="198" width="220" height="110" rx="6" ry="6" fill="#F1F8E9" stroke="#A5D6A7" stroke-width="1"/>
  <rect x="20" y="198" width="220" height="22" rx="6" ry="6" fill="#2E7D32" opacity="0.85"/>
  <rect x="20" y="210" width="220" height="10" fill="#2E7D32" opacity="0.85"/>
  <text x="130" y="213" text-anchor="middle" font-family="Arial, sans-serif" font-size="10" font-weight="bold" fill="#FFFFFF">Гиподинамия</text>
  <text x="28" y="234" font-family="Arial, sans-serif" font-size="9" fill="#2E7D32">• Слабость мышц и связок</text>
  <text x="28" y="248" font-family="Arial, sans-serif" font-size="9" fill="#2E7D32">• Нарушение осанки</text>
  <text x="28" y="262" font-family="Arial, sans-serif" font-size="9" fill="#2E7D32">• Избыточный вес</text>
  <text x="28" y="276" font-family="Arial, sans-serif" font-size="9" fill="#2E7D32">• Снижение работоспособности</text>
  <rect x="260" y="198" width="220" height="110" rx="6" ry="6" fill="#F1F8E9" stroke="#A5D6A7" stroke-width="1"/>
  <rect x="260" y="198" width="220" height="22" rx="6" ry="6" fill="#2E7D32" opacity="0.85"/>
  <rect x="260" y="210" width="220" height="10" fill="#2E7D32" opacity="0.85"/>
  <text x="370" y="213" text-anchor="middle" font-family="Arial, sans-serif" font-size="10" font-weight="bold" fill="#FFFFFF">Пульс и нагрузка</text>
  <text x="268" y="234" font-family="Arial, sans-serif" font-size="9" fill="#2E7D32">• Макс. ЧСС = 220 - возраст</text>
  <text x="268" y="248" font-family="Arial, sans-serif" font-size="9" fill="#2E7D32">• Зона здоровья: 50-60%</text>
  <text x="268" y="262" font-family="Arial, sans-serif" font-size="9" fill="#2E7D32">• Аэробная зона: 60-75%</text>
  <text x="268" y="276" font-family="Arial, sans-serif" font-size="9" fill="#2E7D32">• Контроль самочувствия</text>
  <rect x="0" y="330" width="500" height="20" rx="0" ry="0" fill="url(#footerGrad)"/>
  <rect x="0" y="338" width="500" height="12" rx="12" ry="12" fill="url(#footerGrad)"/>
  <rect x="0" y="330" width="500" height="8" fill="url(#footerGrad)"/>
  <text x="250" y="344" text-anchor="middle" font-family="Arial, sans-serif" font-size="9" fill="#FFFFFF">Физкультура · 10 класс</text>
</svg>