<?xml version="1.0" encoding="UTF-8"?>
<svg xmlns="http://www.w3.org/2000/svg" viewBox="0 0 500 350">
  <defs>
    <linearGradient id="headerGrad" x1="0%" y1="0%" x2="100%" y2="0%">
      <stop offset="0%" style="stop-color:#1B5E20;stop-opacity:1" />
      <stop offset="100%" style="stop-color:#2E7D32;stop-opacity:1" />
    </linearGradient>
    <linearGradient id="footerGrad" x1="0%" y1="0%" x2="100%" y2="0%">
      <stop offset="0%" style="stop-color:#2E7D32;stop-opacity:1" />
      <stop offset="100%" style="stop-color:#1B5E20;stop-opacity:1" />
    </linearGradient>
  </defs>
  <rect x="0" y="0" width="500" height="350" rx="12" ry="12" fill="#E8F5E9" stroke="#2E7D32" stroke-width="2.5"/>
  <rect x="0" y="0" width="500" height="52" rx="12" ry="12" fill="url(#headerGrad)"/>
  <rect x="0" y="30" width="500" height="22" fill="url(#headerGrad)"/>
  <rect x="14" y="10" width="32" height="32" rx="6" ry="6" fill="#FFFFFF" opacity="0.2"/>
  <text x="30" y="33" text-anchor="middle" font-family="Arial, sans-serif" font-size="16" font-weight="bold" fill="#FFFFFF">7</text>
  <text x="56" y="24" font-family="Arial, sans-serif" font-size="13" font-weight="bold" fill="#FFFFFF">Волейбол: техника и тактика</text>
  <text x="56" y="42" font-family="Arial, sans-serif" font-size="10" fill="#C8E6C9">Физкультура — Урок 7</text>
  <line x1="15" y1="54" x2="485" y2="54" stroke="#66BB6A" stroke-width="1" opacity="0.5"/>
  <rect x="20" y="68" width="220" height="115" rx="6" ry="6" fill="#F1F8E9" stroke="#A5D6A7" stroke-width="1"/>
  <rect x="20" y="68" width="220" height="22" rx="6" ry="6" fill="#2E7D32" opacity="0.85"/>
  <rect x="20" y="80" width="220" height="10" fill="#2E7D32" opacity="0.85"/>
  <text x="130" y="83" text-anchor="middle" font-family="Arial, sans-serif" font-size="10" font-weight="bold" fill="#FFFFFF">Основные приёмы</text>
  <text x="28" y="104" font-family="Arial, sans-serif" font-size="9" fill="#2E7D32">• Нижняя передача (приём)</text>
  <text x="28" y="118" font-family="Arial, sans-serif" font-size="9" fill="#2E7D32">• Верхняя передача (связка)</text>
  <text x="28" y="132" font-family="Arial, sans-serif" font-size="9" fill="#2E7D32">• Нападающий удар</text>
  <text x="28" y="146" font-family="Arial, sans-serif" font-size="9" fill="#2E7D32">• Блокирование</text>
  <rect x="260" y="68" width="220" height="115" rx="6" ry="6" fill="#F1F8E9" stroke="#A5D6A7" stroke-width="1"/>
  <rect x="260" y="68" width="220" height="22" rx="6" ry="6" fill="#2E7D32" opacity="0.85"/>
  <rect x="260" y="80" width="220" height="10" fill="#2E7D32" opacity="0.85"/>
  <text x="370" y="83" text-anchor="middle" font-family="Arial, sans-serif" font-size="10" font-weight="bold" fill="#FFFFFF">Правила игры</text>
  <text x="268" y="104" font-family="Arial, sans-serif" font-size="9" fill="#2E7D32">• 6 игроков на площадке</text>
  <text x="268" y="118" font-family="Arial, sans-serif" font-size="9" fill="#2E7D32">• 5 партий до 25 очков</text>
  <text x="268" y="132" font-family="Arial, sans-serif" font-size="9" fill="#2E7D32">• 3 касания на сторону</text>
  <text x="268" y="146" font-family="Arial, sans-serif" font-size="9" fill="#2E7D32">• Пятая партия до 15 очков</text>
  <rect x="20" y="193" width="220" height="115" rx="6" ry="6" fill="#F1F8E9" stroke="#A5D6A7" stroke-width="1"/>
  <rect x="20" y="193" width="220" height="22" rx="6" ry="6" fill="#2E7D32" opacity="0.85"/>
  <rect x="20" y="205" width="220" height="10" fill="#2E7D32" opacity="0.85"/>
  <text x="130" y="208" text-anchor="middle" font-family="Arial, sans-serif" font-size="10" font-weight="bold" fill="#FFFFFF">Подача мяча</text>
  <text x="28" y="229" font-family="Arial, sans-serif" font-size="9" fill="#2E7D32">• Нижняя прямая подача</text>
  <text x="28" y="243" font-family="Arial, sans-serif" font-size="9" fill="#2E7D32">• Верхняя прямая подача</text>
  <text x="28" y="257" font-family="Arial, sans-serif" font-size="9" fill="#2E7D32">• Подача в прыжке (силовая)</text>
  <text x="28" y="271" font-family="Arial, sans-serif" font-size="9" fill="#2E7D32">• Цель: слабый игрок</text>
  <rect x="260" y="193" width="220" height="115" rx="6" ry="6" fill="#F1F8E9" stroke="#A5D6A7" stroke-width="1"/>
  <rect x="260" y="193" width="220" height="22" rx="6" ry="6" fill="#2E7D32" opacity="0.85"/>
  <rect x="260" y="205" width="220" height="10" fill="#2E7D32" opacity="0.85"/>
  <text x="370" y="208" text-anchor="middle" font-family="Arial, sans-serif" font-size="10" font-weight="bold" fill="#FFFFFF">Расстановки</text>
  <text x="268" y="229" font-family="Arial, sans-serif" font-size="9" fill="#2E7D32">• 4-2: 2 связующих</text>
  <text x="268" y="243" font-family="Arial, sans-serif" font-size="9" fill="#2E7D32">• 5-1: 1 связующий</text>
  <text x="268" y="257" font-family="Arial, sans-serif" font-size="9" fill="#2E7D32">• Переход: по часовой стрелке</text>
  <text x="268" y="271" font-family="Arial, sans-serif" font-size="9" fill="#2E7D32">• Либеро — защита</text>
  <circle cx="246" cy="320" r="8" fill="none" stroke="#2E7D32" stroke-width="1.5" opacity="0.3"/>
  <path d="M246,312 Q242,320 246,328" fill="none" stroke="#2E7D32" stroke-width="1" opacity="0.3"/>
  <rect x="0" y="330" width="500" height="20" rx="0" ry="0" fill="url(#footerGrad)"/>
  <rect x="0" y="338" width="500" height="12" rx="12" ry="12" fill="url(#footerGrad)"/>
  <rect x="0" y="330" width="500" height="8" fill="url(#footerGrad)"/>
  <text x="250" y="344" text-anchor="middle" font-family="Arial, sans-serif" font-size="9" fill="#FFFFFF">Физкультура · 10 класс</text>
</svg>