<svg xmlns="http://www.w3.org/2000/svg" viewBox="0 0 500 350">
  <defs>
    <linearGradient id="bg" x1="0" y1="0" x2="1" y2="1">
      <stop offset="0%" stop-color="#E8EAF6"/>
      <stop offset="100%" stop-color="#C5CAE9"/>
    </linearGradient>
  </defs>
  <rect width="500" height="350" fill="url(#bg)" rx="10"/>
  <rect x="3" y="3" width="494" height="344" rx="8" fill="none" stroke="#283593" stroke-width="3"/>
  <rect x="8" y="8" width="484" height="334" rx="6" fill="none" stroke="#283593" stroke-width="1" opacity="0.3"/>
  <polygon points="10,10 30,10 10,30" fill="#1A237E" opacity="0.08"/>
  <polygon points="490,10 470,10 490,30" fill="#1A237E" opacity="0.08"/>
  <polygon points="10,340 30,340 10,320" fill="#5C6BC0" opacity="0.08"/>
  <polygon points="490,340 470,340 490,320" fill="#7986CB" opacity="0.08"/>
  <circle cx="70" cy="15" r="4" fill="#1A237E" opacity="0.1"/>
  <circle cx="82" cy="15" r="4" fill="#283593" opacity="0.1"/>
  <circle cx="94" cy="15" r="4" fill="#3F51B5" opacity="0.1"/>
  <circle cx="406" cy="15" r="4" fill="#1A237E" opacity="0.1"/>
  <circle cx="418" cy="15" r="4" fill="#283593" opacity="0.1"/>
  <circle cx="430" cy="15" r="4" fill="#3F51B5" opacity="0.1"/>
  <text x="250" y="50" font-family="Arial,sans-serif" font-size="20" font-weight="bold" fill="#283593" text-anchor="middle">Личная информация</text>
  <text x="250" y="68" font-family="Arial,sans-serif" font-size="12" fill="#777" text-anchor="middle">English - Урок 2</text>
  <line x1="30" y1="78" x2="470" y2="78" stroke="#283593" stroke-width="2" opacity="0.25"/>
  <rect x="30" y="75" width="60" height="6" fill="#283593" opacity="0.15" rx="1"/>
  <rect x="410" y="75" width="60" height="6" fill="#5C6BC0" opacity="0.12" rx="1"/>
  <rect x="20" y="88" width="165" height="200" rx="6" fill="white" stroke="#283593" stroke-width="1.5" opacity="0.95"/>
  <rect x="20" y="88" width="165" height="24" rx="6" fill="#283593" opacity="0.9"/>
  <rect x="20" y="104" width="165" height="8" fill="#283593" opacity="0.9"/>
  <text x="102" y="105" font-family="Arial,sans-serif" font-size="10" font-weight="bold" fill="white" text-anchor="middle">Vocabulary</text>
  <rect x="28" y="120" width="148" height="22" rx="3" fill="#E8EAF6" opacity="0.5"/>
  <text x="40" y="135" font-family="Arial,sans-serif" font-size="8" fill="#283593" text-anchor="middle">name — имя</text>
  <rect x="28" y="148" width="148" height="22" rx="3" fill="#E8EAF6" opacity="0.5"/>
  <text x="40" y="163" font-family="Arial,sans-serif" font-size="8" fill="#283593" text-anchor="middle">age — возраст</text>
  <rect x="28" y="176" width="148" height="22" rx="3" fill="#E8EAF6" opacity="0.5"/>
  <text x="40" y="191" font-family="Arial,sans-serif" font-size="8" fill="#283593" text-anchor="middle">from — из</text>
  <rect x="28" y="204" width="148" height="22" rx="3" fill="#E8EAF6" opacity="0.5"/>
  <text x="40" y="219" font-family="Arial,sans-serif" font-size="8" fill="#283593" text-anchor="middle">live — жить</text>
  <rect x="195" y="88" width="125" height="200" rx="6" fill="white" stroke="#3F51B5" stroke-width="1.5" opacity="0.95"/>
  <rect x="195" y="88" width="125" height="24" rx="6" fill="#3F51B5" opacity="0.9"/>
  <rect x="195" y="104" width="125" height="8" fill="#3F51B5" opacity="0.9"/>
  <text x="257" y="105" font-family="Arial,sans-serif" font-size="10" font-weight="bold" fill="white" text-anchor="middle">Grammar</text>
  <rect x="203" y="122" width="110" height="24" rx="3" fill="#3F51B5" opacity="0.1"/>
  <text x="258" y="139" font-family="Arial,sans-serif" font-size="9" fill="#3F51B5" text-anchor="middle" font-weight="bold">I am / He is</text>
  <text x="258" y="170" font-family="Arial,sans-serif" font-size="8" fill="#888" text-anchor="middle">Структура фразы</text>
  <circle cx="258" cy="200" r="8" fill="#283593" opacity="0.3"/>
  <rect x="253" y="208" width="10" height="20" rx="3" fill="#283593" opacity="0.3"/>
  <line x1="253" y1="218" x2="245" y2="230" stroke="#283593" stroke-width="2" opacity="0.3"/>
  <line x1="263" y1="218" x2="271" y2="230" stroke="#283593" stroke-width="2" opacity="0.3"/>
  <rect x="330" y="88" width="150" height="200" rx="6" fill="white" stroke="#5C6BC0" stroke-width="1.5" opacity="0.95"/>
  <rect x="330" y="88" width="150" height="24" rx="6" fill="#5C6BC0" opacity="0.9"/>
  <rect x="330" y="104" width="150" height="8" fill="#5C6BC0" opacity="0.9"/>
  <text x="405" y="105" font-family="Arial,sans-serif" font-size="10" font-weight="bold" fill="white" text-anchor="middle">Phrases</text>
  <rect x="340" y="120" width="130" height="70" rx="12" fill="white" stroke="#5C6BC0" stroke-width="1.5"/>
  <polygon points="370,190 380,200 390,190" fill="white" stroke="#5C6BC0" stroke-width="1"/>
  <text x="405" y="140" font-family="Arial,sans-serif" font-size="8" fill="#283593" text-anchor="middle">My name is...</text>
  <text x="405" y="156" font-family="Arial,sans-serif" font-size="8" fill="#283593" text-anchor="middle">I am from...</text>
  <text x="405" y="172" font-family="Arial,sans-serif" font-size="8" fill="#283593" text-anchor="middle">I live in...</text>
  <circle cx="470" cy="95" r="8" fill="#283593" opacity="0.08"/>
  <circle cx="478" cy="105" r="5" fill="#283593" opacity="0.06"/>
  <rect x="15" y="308" width="470" height="30" rx="4" fill="#283593" opacity="0.85"/>
  <text x="250" y="329" font-family="Arial,sans-serif" font-size="14" text-anchor="middle" fill="white" font-weight="bold">Личная информация</text>
</svg>