<?xml version='1.0' encoding='utf-8'?>
<svg xmlns="http://www.w3.org/2000/svg" width="800" height="600" viewBox="0 0 800 600">
  <defs>
    <linearGradient id="bgGrad" x1="0%" y1="0%" x2="0%" y2="100%">
      <stop offset="0%" stop-color="#FFFBEB" />
      <stop offset="100%" stop-color="#FFF7ED" />
    </linearGradient>
    <marker id="arrowhead" markerWidth="10" markerHeight="7" refX="10" refY="3.5" orient="auto">
      <polygon points="0 0, 10 3.5, 0 7" fill="#F59E0B" />
    </marker>
  </defs>
  <rect width="800" height="600" fill="url(#bgGrad)" />
  <rect width="800" height="6" fill="#F59E0B" />
  <rect x="0" y="6" width="800" height="70" fill="#F59E0B" />
  <rect x="20" y="16" width="44" height="44" rx="10" fill="#92400E" />
  <text x="42" y="47" text-anchor="middle" fill="#FFFFFF" font-size="22" font-weight="bold" font-family="Arial, sans-serif">9</text>
  <text x="78" y="38" fill="#FFFFFF" font-size="20" font-weight="bold" font-family="Arial, sans-serif">Законы распространения и отражения света</text>
  <text x="78" y="58" fill="#FEF3C7" font-size="13" font-family="Arial, sans-serif">Прямолинейное распространение, закон отражения, зеркала</text>
  <rect x="17" y="92" width="385" height="210" rx="8" fill="#E5E7EB" opacity="0.5" />
  <rect x="15" y="90" width="385" height="210" rx="8" fill="#FFFFFF" stroke="#F59E0B" stroke-width="1.5" />
  <rect x="15" y="90" width="385" height="26" rx="8" fill="#F59E0B" />
  <rect x="15" y="108" width="385" height="8" fill="#F59E0B" />
  <text x="207" y="108" text-anchor="middle" fill="#FFFFFF" font-size="13" font-weight="bold" font-family="Arial, sans-serif">Закон отражения</text>
  <line x1="60" y1="260" x2="260" y2="260" stroke="#1C1917" stroke-width="3" />
  <line x1="70" y1="260" x2="62" y2="270" stroke="#78716C" stroke-width="1" />
  <line x1="85" y1="260" x2="77" y2="270" stroke="#78716C" stroke-width="1" />
  <line x1="100" y1="260" x2="92" y2="270" stroke="#78716C" stroke-width="1" />
  <line x1="115" y1="260" x2="107" y2="270" stroke="#78716C" stroke-width="1" />
  <line x1="130" y1="260" x2="122" y2="270" stroke="#78716C" stroke-width="1" />
  <line x1="145" y1="260" x2="137" y2="270" stroke="#78716C" stroke-width="1" />
  <line x1="160" y1="260" x2="152" y2="270" stroke="#78716C" stroke-width="1" />
  <line x1="175" y1="260" x2="167" y2="270" stroke="#78716C" stroke-width="1" />
  <line x1="190" y1="260" x2="182" y2="270" stroke="#78716C" stroke-width="1" />
  <line x1="205" y1="260" x2="197" y2="270" stroke="#78716C" stroke-width="1" />
  <line x1="220" y1="260" x2="212" y2="270" stroke="#78716C" stroke-width="1" />
  <line x1="235" y1="260" x2="227" y2="270" stroke="#78716C" stroke-width="1" />
  <line x1="250" y1="260" x2="242" y2="270" stroke="#78716C" stroke-width="1" />
  <line x1="160" y1="170" x2="160" y2="260" stroke="#78716C" stroke-width="1" stroke-dasharray="5,5" />
  <text x="165" y="175" text-anchor="start" fill="#78716C" font-size="11" font-weight="normal" font-family="Arial, sans-serif">N</text>
  <line x1="60" y1="160" x2="160" y2="260" stroke="#3B82F6" stroke-width="2.5" />
  <text x="80" y="200" text-anchor="start" fill="#3B82F6" font-size="16" font-weight="bold" font-family="Arial, sans-serif">α</text>
  <text x="75" y="180" text-anchor="start" fill="#3B82F6" font-size="11" font-weight="normal" font-family="Arial, sans-serif">Падающий</text>
  <line x1="160" y1="260" x2="260" y2="160" stroke="#EF4444" stroke-width="2.5" />
  <text x="220" y="200" text-anchor="start" fill="#EF4444" font-size="16" font-weight="bold" font-family="Arial, sans-serif">β</text>
  <text x="215" y="180" text-anchor="start" fill="#EF4444" font-size="11" font-weight="normal" font-family="Arial, sans-serif">Отражённый</text>
  <text x="160" y="290" text-anchor="middle" fill="#92400E" font-size="20" font-weight="bold" font-family="Arial, sans-serif">α = β</text>
  <line x1="135" y1="296" x2="185" y2="296" stroke="#F59E0B" stroke-width="2" opacity="0.4" />
  <text x="270" y="130" text-anchor="start" fill="#1C1917" font-size="13" font-weight="normal" font-family="Arial, sans-serif">Угол падения =</text>
  <text x="270" y="148" text-anchor="start" fill="#92400E" font-size="13" font-weight="bold" font-family="Arial, sans-serif">углу отражения</text>
  <text x="270" y="175" text-anchor="start" fill="#1C1917" font-size="12" font-weight="normal" font-family="Arial, sans-serif">Лучи и нормаль —</text>
  <text x="270" y="193" text-anchor="start" fill="#92400E" font-size="12" font-weight="bold" font-family="Arial, sans-serif">в одной плоскости</text>
  <rect x="417" y="92" width="370" height="110" rx="8" fill="#E5E7EB" opacity="0.5" />
  <rect x="415" y="90" width="370" height="110" rx="8" fill="#FFFFFF" stroke="#F59E0B" stroke-width="1.5" />
  <rect x="415" y="90" width="370" height="26" rx="8" fill="#D97706" />
  <rect x="415" y="108" width="370" height="8" fill="#D97706" />
  <text x="600" y="108" text-anchor="middle" fill="#FFFFFF" font-size="13" font-weight="bold" font-family="Arial, sans-serif">Распространение света</text>
  <text x="430" y="128" text-anchor="start" fill="#1C1917" font-size="14" font-weight="bold" font-family="Arial, sans-serif">Свет распространяется</text>
  <text x="430" y="148" text-anchor="start" fill="#92400E" font-size="14" font-weight="bold" font-family="Arial, sans-serif">прямолинейно!</text>
  <text x="430" y="175" text-anchor="start" fill="#1C1917" font-size="13" font-weight="normal" font-family="Arial, sans-serif">Скорость света:</text>
  <text x="600" y="192" text-anchor="middle" fill="#92400E" font-size="18" font-weight="bold" font-family="Arial, sans-serif">c = 3×10⁸ м/с</text>
  <line x1="542" y1="198" x2="658" y2="198" stroke="#F59E0B" stroke-width="2" opacity="0.4" />
  <text x="430" y="192" text-anchor="start" fill="#78716C" font-size="12" font-weight="normal" font-family="Arial, sans-serif">в вакууме</text>
  <rect x="417" y="212" width="370" height="165" rx="8" fill="#E5E7EB" opacity="0.5" />
  <rect x="415" y="210" width="370" height="165" rx="8" fill="#FFFFFF" stroke="#F59E0B" stroke-width="1.5" />
  <rect x="415" y="210" width="370" height="26" rx="8" fill="#F59E0B" />
  <rect x="415" y="228" width="370" height="8" fill="#F59E0B" />
  <text x="600" y="228" text-anchor="middle" fill="#FFFFFF" font-size="13" font-weight="bold" font-family="Arial, sans-serif">Изображение в зеркале</text>
  <line x1="540" y1="225" x2="540" y2="355" stroke="#1C1917" stroke-width="2.5" />
  <line x1="540" y1="230" x2="548" y2="238" stroke="#78716C" stroke-width="1" />
  <line x1="540" y1="242" x2="548" y2="250" stroke="#78716C" stroke-width="1" />
  <line x1="540" y1="254" x2="548" y2="262" stroke="#78716C" stroke-width="1" />
  <line x1="540" y1="266" x2="548" y2="274" stroke="#78716C" stroke-width="1" />
  <line x1="540" y1="278" x2="548" y2="286" stroke="#78716C" stroke-width="1" />
  <line x1="540" y1="290" x2="548" y2="298" stroke="#78716C" stroke-width="1" />
  <line x1="540" y1="302" x2="548" y2="310" stroke="#78716C" stroke-width="1" />
  <line x1="540" y1="314" x2="548" y2="322" stroke="#78716C" stroke-width="1" />
  <line x1="540" y1="326" x2="548" y2="334" stroke="#78716C" stroke-width="1" />
  <line x1="540" y1="338" x2="548" y2="346" stroke="#78716C" stroke-width="1" />
  <line x1="540" y1="350" x2="548" y2="358" stroke="#78716C" stroke-width="1" />
  <line x1="500" y1="345" x2="500" y2="265" stroke="#3B82F6" stroke-width="2.5" />
  <path d="M495,270 L500,255 L505,270" stroke="#3B82F6" stroke-width="2" fill="none" />
  <text x="490" y="260" text-anchor="start" fill="#3B82F6" font-size="12" font-weight="bold" font-family="Arial, sans-serif">A</text>
  <line x1="580" y1="345" x2="580" y2="265" stroke="#EF4444" stroke-width="1.5" stroke-dasharray="4,4" />
  <path d="M575,270 L580,255 L585,270" stroke="#EF4444" stroke-width="1.5" fill="none" />
  <text x="590" y="260" text-anchor="start" fill="#EF4444" font-size="12" font-weight="bold" font-family="Arial, sans-serif">A'</text>
  <text x="555" y="280" text-anchor="start" fill="#EF4444" font-size="11" font-weight="normal" font-family="Arial, sans-serif">Мнимое</text>
  <text x="555" y="295" text-anchor="start" fill="#1C1917" font-size="11" font-weight="normal" font-family="Arial, sans-serif">Равное</text>
  <text x="555" y="310" text-anchor="start" fill="#1C1917" font-size="11" font-weight="normal" font-family="Arial, sans-serif">Прямое</text>
  <text x="555" y="325" text-anchor="start" fill="#92400E" font-size="11" font-weight="normal" font-family="Arial, sans-serif">Симметричное</text>
  <rect x="17" y="312" width="385" height="120" rx="8" fill="#E5E7EB" opacity="0.5" />
  <rect x="15" y="310" width="385" height="120" rx="8" fill="#FFFFFF" stroke="#F59E0B" stroke-width="1.5" />
  <rect x="15" y="310" width="385" height="26" rx="8" fill="#D97706" />
  <rect x="15" y="328" width="385" height="8" fill="#D97706" />
  <text x="207" y="328" text-anchor="middle" fill="#FFFFFF" font-size="13" font-weight="bold" font-family="Arial, sans-serif">Тень и полутень</text>
  <circle cx="60" cy="360" r="5" fill="#F59E0B" />
  <text x="45" y="350" text-anchor="start" fill="#92400E" font-size="10" font-weight="bold" font-family="Arial, sans-serif">S</text>
  <rect x="130" y="340" width="10" height="40" fill="#1C1917" />
  <line x1="60" y1="360" x2="130" y2="340" stroke="#F59E0B" stroke-width="1" stroke-dasharray="3,3" />
  <line x1="60" y1="360" x2="130" y2="380" stroke="#F59E0B" stroke-width="1" stroke-dasharray="3,3" />
  <rect x="250" y="335" width="60" height="50" fill="#1C1917" rx="2" />
  <text x="280" y="365" text-anchor="middle" fill="#FFFFFF" font-size="10" font-weight="normal" font-family="Arial, sans-serif">тень</text>
  <text x="200" y="375" text-anchor="start" fill="#F59E0B" font-size="14" font-weight="normal" font-family="Arial, sans-serif">→</text>
  <circle cx="60" cy="405" r="8" fill="#FBBF24" />
  <text x="80" y="408" text-anchor="start" fill="#92400E" font-size="11" font-weight="normal" font-family="Arial, sans-serif">→ полутень</text>
  <rect x="17" y="442" width="770" height="75" rx="8" fill="#E5E7EB" opacity="0.5" />
  <rect x="15" y="440" width="770" height="75" rx="8" fill="#FFFFFF" stroke="#F59E0B" stroke-width="1.5" />
  <rect x="15" y="440" width="770" height="26" rx="8" fill="#92400E" />
  <rect x="15" y="458" width="770" height="8" fill="#92400E" />
  <text x="400" y="458" text-anchor="middle" fill="#FFFFFF" font-size="13" font-weight="bold" font-family="Arial, sans-serif">Важные выводы</text>
  <text x="30" y="468" text-anchor="start" fill="#1C1917" font-size="13" font-weight="normal" font-family="Arial, sans-serif">• Зеркало — мнимое, прямое, равное изображение</text>
  <text x="30" y="488" text-anchor="start" fill="#92400E" font-size="13" font-weight="bold" font-family="Arial, sans-serif">• Угол падения = угол отражения (всегда!)</text>
  <text x="500" y="468" text-anchor="start" fill="#1C1917" font-size="13" font-weight="normal" font-family="Arial, sans-serif">• Точечный источник → резкая тень</text>
  <text x="500" y="488" text-anchor="start" fill="#1C1917" font-size="13" font-weight="normal" font-family="Arial, sans-serif">• Протяжённый → тень + полутень</text>
  <rect x="0" y="570" width="800" height="30" fill="#92400E" />
  <text x="400" y="590" text-anchor="middle" fill="#FEF3C7" font-size="11" font-family="Arial, sans-serif">Физика • 8 класс • Интернет-Школа</text>
</svg>