<svg xmlns="http://www.w3.org/2000/svg" viewBox="0 0 500 350">
  <defs>
    <linearGradient id="bg" x1="0" y1="0" x2="0" y2="1">
      <stop offset="0%" stop-color="#E3F2FD"/>
      <stop offset="100%" stop-color="#FFFFFF"/>
    </linearGradient>
    <linearGradient id="panel" x1="0" y1="0" x2="1" y2="0">
      <stop offset="0%" stop-color="#1565C0"/>
      <stop offset="100%" stop-color="#1976D2"/>
    </linearGradient>
  </defs>
  <rect width="500" height="350" fill="url(#bg)" rx="10"/>
  <rect x="3" y="3" width="494" height="344" rx="8" fill="none" stroke="#1565C0" stroke-width="2.5"/>
  <text x="250" y="28" font-family="Arial,sans-serif" font-size="13" font-weight="bold" fill="#1565C0" text-anchor="middle">Положение тела в пространстве</text>
  <text x="250" y="44" font-family="Arial,sans-serif" font-size="10" fill="#888" text-anchor="middle">Системы отсчёта — Урок 2</text>
  <line x1="30" y1="52" x2="470" y2="52" stroke="#1565C0" stroke-width="1.5" opacity="0.25"/>
  <clipPath id="ill"><rect x="15" y="56" width="470" height="238" rx="6"/></clipPath>
  <g clip-path="url(#ill)">
    <rect x="15" y="56" width="470" height="238" fill="#E3F2FD" opacity="0.4"/>

    <!-- 3D coordinate system -->
    <line x1="200" y1="200" x2="346.5" y2="200.0" stroke="#333" stroke-width="1.5"/>
    <polygon points="350,200 343.0,202.8 343.0,197.2" fill="#333"/>
    <line x1="200" y1="200" x2="200.0" y2="83.5" stroke="#333" stroke-width="1.5"/>
    <polygon points="200,80 202.8,87.0 197.2,87.0" fill="#333"/>
    <text x="345" y="216" font-family="Arial,sans-serif" font-size="11" fill="#333" font-style="italic" text-anchor="end">x</text>
    <text x="192" y="85" font-family="Arial,sans-serif" font-size="11" fill="#333" font-style="italic" text-anchor="end">y</text>
    <!-- Z axis (perspective) -->
    <line x1="200" y1="200" x2="155" y2="230" stroke="#333" stroke-width="1.5"/>
    <polygon points="155,230 160,222 150,225" fill="#333"/>
    <text x="148" y="242" font-family="Arial,sans-serif" font-size="11" fill="#333" font-style="italic" text-anchor="end">z</text>

    <!-- Reference point O -->
    <circle cx="200" cy="200" r="4" fill="#E53935"/>
    <text x="208" y="210" font-family="Arial,sans-serif" font-size="10" fill="#E53935" font-weight="bold">O</text>

    <!-- Body position -->
    <circle cx="310" cy="130" r="7" fill="#1565C0"/>
    <text x="320" y="128" font-family="Arial,sans-serif" font-size="9" fill="#1565C0" font-weight="bold">M</text>

    <!-- Position vector r -->
    <line x1="200" y1="200" x2="306" y2="134" stroke="#E53935" stroke-width="2" stroke-dasharray="5,3"/>
    <polygon points="306,134 296,137 299,128" fill="#E53935"/>
    <text x="245" y="158" font-family="Arial,sans-serif" font-size="12" fill="#E53935" font-weight="bold" font-style="italic">r</text>

    <!-- Projections on axes -->
    <line x1="310" y1="130" x2="310" y2="200" stroke="#42A5F5" stroke-width="1" stroke-dasharray="3,2"/>
    <line x1="310" y1="200" x2="200" y2="200" stroke="#42A5F5" stroke-width="1" stroke-dasharray="3,2"/>
    <text x="310" y="212" font-family="Arial,sans-serif" font-size="9" fill="#42A5F5">x</text>
    <text x="185" y="130" font-family="Arial,sans-serif" font-size="9" fill="#42A5F5">y</text>

    <!-- Reference body -->
    <rect x="25" y="70" width="115" height="80" rx="6" fill="white" stroke="#1565C0" stroke-width="1.2"/>
    <text x="82" y="86" font-family="Arial,sans-serif" font-size="9" fill="#1565C0" font-weight="bold" text-anchor="middle">Система отсчёта</text>
    <line x1="35" y1="92" x2="130" y2="92" stroke="#1565C0" stroke-width="0.5" opacity="0.3"/>
    <rect x="35" y="97" width="95" height="18" rx="3" fill="#E3F2FD" stroke="#1565C0" stroke-width="0.8"/>
    <text x="82" y="110" font-family="Arial,sans-serif" font-size="8" fill="#333" text-anchor="middle">Тело отсчёта</text>
    <rect x="35" y="120" width="95" height="18" rx="3" fill="#E3F2FD" stroke="#1565C0" stroke-width="0.8"/>
    <text x="82" y="133" font-family="Arial,sans-serif" font-size="8" fill="#333" text-anchor="middle">Система координат</text>

    <!-- Clock icon for time -->
    <circle cx="82" cy="168" r="14" fill="white" stroke="#1565C0" stroke-width="1.2"/>
    <line x1="82" y1="168" x2="82" y2="158" stroke="#1565C0" stroke-width="1.5"/>
    <line x1="82" y1="168" x2="90" y2="168" stroke="#1565C0" stroke-width="1"/>
    <text x="82" y="192" font-family="Arial,sans-serif" font-size="8" fill="#333" text-anchor="middle">Часы (время)</text>

    <!-- Info boxes on the right -->
    <rect x="370" y="70" width="100" height="50" rx="5" fill="white" stroke="#2E7D32" stroke-width="1"/>
    <text x="420" y="88" font-family="Arial,sans-serif" font-size="8" fill="#2E7D32" font-weight="bold" text-anchor="middle">Материальная</text>
    <text x="420" y="100" font-family="Arial,sans-serif" font-size="8" fill="#2E7D32" font-weight="bold" text-anchor="middle">точка</text>
    <text x="420" y="114" font-family="Arial,sans-serif" font-size="7" fill="#555" text-anchor="middle">Модель: размер ~ 0</text>

    <rect x="370" y="130" width="100" height="50" rx="5" fill="white" stroke="#F57C00" stroke-width="1"/>
    <text x="420" y="148" font-family="Arial,sans-serif" font-size="8" fill="#F57C00" font-weight="bold" text-anchor="middle">Радиус-вектор</text>
    <text x="420" y="160" font-family="Arial,sans-serif" font-size="7" fill="#555" text-anchor="middle">r = x*i + y*j + z*k</text>
    <text x="420" y="174" font-family="Arial,sans-serif" font-size="7" fill="#555" text-anchor="middle">|r| = sqrt(x+y+z)</text>

    <!-- Bottom -->
    <rect x="25" y="240" width="450" height="22" rx="4" fill="white" stroke="#1565C0" stroke-width="1" opacity="0.9"/>
    <text x="250" y="255" font-family="Arial,sans-serif" font-size="8" fill="#333" text-anchor="middle">Система отсчёта = тело отсчёта + система координат + часы | Положение задаётся радиус-вектором</text>
    
  </g>
  <rect x="12" y="298" width="476" height="42" rx="5" fill="url(#panel)"/>
  <text x="250" y="316" font-family="Arial,sans-serif" font-size="14" text-anchor="middle" fill="white" font-weight="bold">Кинематика</text>
  <text x="250" y="332" font-family="Arial,sans-serif" font-size="10" text-anchor="middle" fill="white" opacity="0.8">Урок 2</text>
</svg>