<svg xmlns="http://www.w3.org/2000/svg" viewBox="0 0 500 350">
<defs><linearGradient id="bg" x1="0" y1="0" x2="1" y2="1"><stop offset="0%" stop-color="#E3F2FD"/><stop offset="100%" stop-color="#BBDEFB"/></linearGradient></defs>
<rect width="500" height="350" fill="url(#bg)" rx="10"/>
<rect x="3" y="3" width="494" height="344" rx="8" fill="none" stroke="#1565C0" stroke-width="2.5"/>
<text x="250" y="30" font-family="Arial,sans-serif" font-size="13" font-weight="bold" fill="#1565C0" text-anchor="middle">Обгон</text>
<text x="250" y="46" font-family="Arial,sans-serif" font-size="10" fill="#888" text-anchor="middle">Физика 10 класс — Урок 13</text>
<line x1="30" y1="52" x2="470" y2="52" stroke="#1565C0" stroke-width="1.5" opacity="0.25"/>

<g transform="translate(250,180)">
<!-- Two objects on parallel tracks -->
<line x1="-120" y1="30" x2="120" y2="30" stroke="#CCC" stroke-width="1"/>
<line x1="-120" y1="-30" x2="120" y2="-30" stroke="#CCC" stroke-width="1"/>
<!-- Slow object -->
<rect x="-40" y="-42" width="30" height="24" rx="3" fill="#E3F2FD" stroke="#1565C0" stroke-width="1.5"/>
<text x="-25" y="-27" font-family="Arial,sans-serif" font-size="6" fill="#1565C0" text-anchor="middle">1</text>
<line x1="-10" y1="-30" x2="20" y2="-30" stroke="#1565C0" stroke-width="1.5"/>
<polygon points="20,-30 14,-33 14,-27" fill="#1565C0"/>
<text x="5" y="-36" font-family="Arial,sans-serif" font-size="5" fill="#1565C0">v1</text>
<!-- Fast object -->
<rect x="-70" y="18" width="30" height="24" rx="3" fill="#FFF3E0" stroke="#E65100" stroke-width="1.5"/>
<text x="-55" y="33" font-family="Arial,sans-serif" font-size="6" fill="#E65100" text-anchor="middle">2</text>
<line x1="-40" y1="30" x2="20" y2="30" stroke="#E65100" stroke-width="1.5"/>
<polygon points="20,30 14,27 14,33" fill="#E65100"/>
<text x="-10" y="24" font-family="Arial,sans-serif" font-size="5" fill="#E65100">v2 &gt; v1</text>
</g>
<g transform="translate(370,130)">
<rect x="-80" y="-45" width="160" height="90" rx="5" fill="white" stroke="#1565C0" stroke-width="1.5"/>
<text x="0" y="-30" font-family="Arial,sans-serif" font-size="7" fill="#1565C0" text-anchor="middle" font-weight="bold">Условие обгона</text>
<line x1="-65" y1="-22" x2="65" y2="-22" stroke="#1565C0" stroke-width="0.5"/>
<text x="0" y="-7" font-family="Arial,sans-serif" font-size="6" fill="#555" text-anchor="middle">v2 &gt; v1</text>
<text x="0" y="8" font-family="Arial,sans-serif" font-size="5" fill="#888" text-anchor="middle">x2(t) = x1(t)</text>
<text x="0" y="22" font-family="Arial,sans-serif" font-size="5" fill="#E65100" text-anchor="middle">tобг = L / (v2 - v1)</text>
<text x="0" y="36" font-family="Arial,sans-serif" font-size="5" fill="#1565C0" text-anchor="middle">L — расстояние между телами</text>
</g>
<g transform="translate(370,250)">
<rect x="-70" y="-25" width="140" height="50" rx="5" fill="white" stroke="#2E7D32" stroke-width="1.2"/>
<text x="0" y="-10" font-family="Arial,sans-serif" font-size="6" fill="#2E7D32" text-anchor="middle" font-weight="bold">Относительная скорость</text>
<text x="0" y="8" font-family="Arial,sans-serif" font-size="5" fill="#555" text-anchor="middle">vотн = v2 - v1</text>
<text x="0" y="20" font-family="Arial,sans-serif" font-size="5" fill="#888" text-anchor="middle">при движении в одном направлении</text>
</g>

<rect x="10" y="325" width="480" height="20" rx="4" fill="#1565C0" opacity="0.85"/>
<text x="250" y="339" font-family="Arial,sans-serif" font-size="11" text-anchor="middle" fill="white" font-weight="bold">Физика 10 класс</text>
</svg>