<?xml version="1.0" encoding="UTF-8"?>
<svg xmlns="http://www.w3.org/2000/svg" width="800" height="600" viewBox="0 0 800 600">
  <defs>
    <linearGradient id="bg5" x1="0%" y1="0%" x2="0%" y2="100%">
      <stop offset="0%" stop-color="#FFFBFB" />
      <stop offset="100%" stop-color="#FFF0F0" />
    </linearGradient>
  </defs>
  <defs>
    <filter id="shadow5" x="-5%" y="-5%" width="110%" height="110%">
      <feDropShadow dx="2" dy="2" stdDeviation="3" flood-color="#00000030" />
    </filter>
  </defs>
  <defs>
    <linearGradient id="bg5" x1="0%" y1="0%" x2="0%" y2="100%">
      <stop offset="0%" stop-color="#FFFBFB" />
      <stop offset="100%" stop-color="#FFF5F5" />
    </linearGradient>
  </defs>
  <rect x="0" y="0" width="800" height="600" fill="url(#bg5)" />
  <defs>
    <linearGradient id="headerGrad" x1="0%" y1="0%" x2="0%" y2="100%">
      <stop offset="0%" stop-color="#B91C1C" />
      <stop offset="100%" stop-color="#EF4444" />
    </linearGradient>
  </defs>
  <rect x="0" y="0" width="800" height="70" fill="url(#headerGrad)" />
  <rect x="0" y="70" width="800" height="3" fill="#D4A017" />
  <text x="400" y="32" font-size="22" fill="#FFFFFF" text-anchor="middle" font-family="sans-serif" font-weight="bold">Отечественная война 1812 года</text>
  <text x="400" y="55" font-size="13" fill="#FEE2E2" text-anchor="middle" font-family="sans-serif">Нашествие Наполеона, Бородино, пожар Москвы, изгнание</text>
  <polygon points="21.799999999999997,43.8 21.799999999999997,30.6 28.4,37.2 35,24.0 41.6,37.2 48.2,30.6 48.2,43.8" fill="#D4A017" stroke="#8B6914" />
  <circle cx="35" cy="28.4" r="2.2" fill="#EF4444" />
  <circle cx="26.2" cy="33.9" r="1.6500000000000001" fill="#3B82F6" />
  <circle cx="43.8" cy="33.9" r="1.6500000000000001" fill="#3B82F6" />
  <rect x="20" y="90" width="760" height="52" fill="#FFFFFF" stroke="#FCA5A5" rx="8" ry="8" />
  <line x1="40" y1="116" x2="760" y2="116" stroke="#EF4444" stroke-width="3" />
  <circle cx="80" cy="116" r="6" fill="#EF4444" stroke="#FFFFFF" stroke-width="2" />
  <text x="80" y="84" font-size="10" fill="#EF4444" text-anchor="middle" font-family="sans-serif" font-weight="bold">12 июня</text>
  <text x="80" y="118" font-size="9" fill="#1F2937" text-anchor="middle" font-family="sans-serif" />
  <text x="80" y="133" font-size="8" fill="#1F2937" text-anchor="middle" font-family="sans-serif">Втор-</text>
  <text x="80" y="143" font-size="8" fill="#1F2937" text-anchor="middle" font-family="sans-serif">жение</text>
  <circle cx="200" cy="116" r="6" fill="#EF4444" stroke="#FFFFFF" stroke-width="2" />
  <text x="200" y="84" font-size="10" fill="#EF4444" text-anchor="middle" font-family="sans-serif" font-weight="bold">авг.</text>
  <text x="200" y="118" font-size="9" fill="#1F2937" text-anchor="middle" font-family="sans-serif" />
  <text x="200" y="133" font-size="8" fill="#1F2937" text-anchor="middle" font-family="sans-serif">Смоленск</text>
  <circle cx="320" cy="116" r="6" fill="#EF4444" stroke="#FFFFFF" stroke-width="2" />
  <text x="320" y="84" font-size="10" fill="#EF4444" text-anchor="middle" font-family="sans-serif" font-weight="bold">26 авг.</text>
  <text x="320" y="118" font-size="9" fill="#1F2937" text-anchor="middle" font-family="sans-serif" />
  <text x="320" y="133" font-size="8" fill="#1F2937" text-anchor="middle" font-family="sans-serif">Боро-</text>
  <text x="320" y="143" font-size="8" fill="#1F2937" text-anchor="middle" font-family="sans-serif">дино</text>
  <circle cx="440" cy="116" r="6" fill="#EF4444" stroke="#FFFFFF" stroke-width="2" />
  <text x="440" y="84" font-size="10" fill="#EF4444" text-anchor="middle" font-family="sans-serif" font-weight="bold">сент.</text>
  <text x="440" y="118" font-size="9" fill="#1F2937" text-anchor="middle" font-family="sans-serif" />
  <text x="440" y="133" font-size="8" fill="#1F2937" text-anchor="middle" font-family="sans-serif">Москва</text>
  <circle cx="560" cy="116" r="6" fill="#EF4444" stroke="#FFFFFF" stroke-width="2" />
  <text x="560" y="84" font-size="10" fill="#EF4444" text-anchor="middle" font-family="sans-serif" font-weight="bold">окт.</text>
  <text x="560" y="118" font-size="9" fill="#1F2937" text-anchor="middle" font-family="sans-serif" />
  <text x="560" y="133" font-size="8" fill="#1F2937" text-anchor="middle" font-family="sans-serif">Отступ-</text>
  <text x="560" y="143" font-size="8" fill="#1F2937" text-anchor="middle" font-family="sans-serif">ление</text>
  <circle cx="680" cy="116" r="6" fill="#EF4444" stroke="#FFFFFF" stroke-width="2" />
  <text x="680" y="84" font-size="10" fill="#EF4444" text-anchor="middle" font-family="sans-serif" font-weight="bold">нояб.</text>
  <text x="680" y="118" font-size="9" fill="#1F2937" text-anchor="middle" font-family="sans-serif" />
  <text x="680" y="133" font-size="8" fill="#1F2937" text-anchor="middle" font-family="sans-serif">Березина</text>
  <circle cx="760" cy="116" r="6" fill="#EF4444" stroke="#FFFFFF" stroke-width="2" />
  <text x="760" y="84" font-size="10" fill="#EF4444" text-anchor="middle" font-family="sans-serif" font-weight="bold">дек.</text>
  <text x="760" y="118" font-size="9" fill="#1F2937" text-anchor="middle" font-family="sans-serif" />
  <text x="760" y="133" font-size="8" fill="#1F2937" text-anchor="middle" font-family="sans-serif">Конец</text>
  <rect x="25" y="155" width="240" height="140" fill="#FFFFFF" stroke="#1E40AF" stroke-width="1.5" rx="8" ry="8" filter="url(#shadow5)" />
  <rect x="25" y="155" width="240" height="24" fill="#1E40AF" rx="8" ry="8" />
  <rect x="25" y="169" width="240" height="10" fill="#1E40AF" />
  <text x="145" y="172" font-size="11" fill="#FFFFFF" text-anchor="middle" font-family="sans-serif" font-weight="bold">Вторжение Наполеона</text>
  <text x="145" y="195" font-size="10" fill="#1E40AF" text-anchor="middle" font-family="sans-serif" font-weight="bold">Великая армия: ~600 000 чел.</text>
  <text x="35" y="211" font-size="9" fill="#1F2937" text-anchor="start" font-family="sans-serif">Армия Наполеона — крупнейшая</text>
  <text x="35" y="225" font-size="9" fill="#1F2937" text-anchor="start" font-family="sans-serif">в истории Европы. Многонацио-</text>
  <text x="35" y="239" font-size="9" fill="#1F2937" text-anchor="start" font-family="sans-serif">нальное войско: французы,</text>
  <text x="35" y="253" font-size="9" fill="#1F2937" text-anchor="start" font-family="sans-serif">немцы, поляки, итальянцы...</text>
  <text x="35" y="273" font-size="9" fill="#EF4444" text-anchor="start" font-family="sans-serif" font-weight="bold">12 июня 1812 — переход реки</text>
  <text x="35" y="287" font-size="9" fill="#EF4444" text-anchor="start" font-family="sans-serif" font-weight="bold">Неман — начало войны</text>
  <rect x="280" y="155" width="255" height="140" fill="#FFFFFF" stroke="#EF4444" stroke-width="2" rx="8" ry="8" filter="url(#shadow5)" />
  <rect x="280" y="155" width="255" height="24" fill="#EF4444" rx="8" ry="8" />
  <rect x="280" y="169" width="255" height="10" fill="#EF4444" />
  <polygon points="295.0,159.0 293.1,164.4 287.4,164.5 292.0,168.0 290.3,173.5 295.0,170.2 299.7,173.5 298.0,168.0 302.6,164.5 296.9,164.4" fill="#D4A017" stroke="#8B6914" stroke-width="0.5" />
  <text x="420" y="172" font-size="11" fill="#FFFFFF" text-anchor="middle" font-family="sans-serif" font-weight="bold">Бородинское сражение</text>
  <text x="407" y="195" font-size="10" fill="#B91C1C" text-anchor="middle" font-family="sans-serif" font-weight="bold">26 августа (7 сент.) 1812 г.</text>
  <rect x="290" y="207" width="112" height="80" fill="#EFF6FF" stroke="#1E40AF" rx="4" ry="4" />
  <text x="346" y="221" font-size="9" fill="#1E40AF" text-anchor="middle" font-family="sans-serif" font-weight="bold">Французы</text>
  <text x="346" y="235" font-size="9" fill="#1F2937" text-anchor="middle" font-family="sans-serif">~135 000 чел.</text>
  <text x="346" y="249" font-size="9" fill="#1F2937" text-anchor="middle" font-family="sans-serif">~587 орудий</text>
  <text x="346" y="265" font-size="9" fill="#1E40AF" text-anchor="middle" font-family="sans-serif" font-weight="bold">Потери: ~35 000</text>
  <rect x="412" y="207" width="112" height="80" fill="#FEE2E2" stroke="#EF4444" rx="4" ry="4" />
  <text x="468" y="221" font-size="9" fill="#EF4444" text-anchor="middle" font-family="sans-serif" font-weight="bold">Русские</text>
  <text x="468" y="235" font-size="9" fill="#1F2937" text-anchor="middle" font-family="sans-serif">~126 000 чел.</text>
  <text x="468" y="249" font-size="9" fill="#1F2937" text-anchor="middle" font-family="sans-serif">~624 орудия</text>
  <text x="468" y="265" font-size="9" fill="#EF4444" text-anchor="middle" font-family="sans-serif" font-weight="bold">Потери: ~44 000</text>
  <circle cx="407" cy="247" r="14" fill="#D4A017" stroke="#FFFFFF" stroke-width="2" />
  <text x="407" y="251" font-size="9" fill="#FFFFFF" text-anchor="middle" font-family="sans-serif" font-weight="bold">VS</text>
  <rect x="550" y="155" width="235" height="140" fill="#FFFFFF" stroke="#F59E0B" stroke-width="1.5" rx="8" ry="8" filter="url(#shadow5)" />
  <rect x="550" y="155" width="235" height="24" fill="#F59E0B" rx="8" ry="8" />
  <rect x="550" y="169" width="235" height="10" fill="#F59E0B" />
  <text x="667" y="172" font-size="11" fill="#FFFFFF" text-anchor="middle" font-family="sans-serif" font-weight="bold">Пожар Москвы и отступление</text>
  <text x="560" y="193" font-size="8.5" fill="#1F2937" text-anchor="start" font-family="sans-serif">Наполеон вошёл в Москву 14 сент.</text>
  <text x="560" y="206" font-size="8.5" fill="#1F2937" text-anchor="start" font-family="sans-serif">Москва горела 5 дней</text>
  <text x="560" y="219" font-size="8.5" fill="#1F2937" text-anchor="start" font-family="sans-serif">Уничтожено 3/4 зданий</text>
  <text x="560" y="232" font-size="8.5" fill="#1F2937" text-anchor="start" font-family="sans-serif">Отсутствие провизии</text>
  <text x="560" y="245" font-size="8.5" fill="#1F2937" text-anchor="start" font-family="sans-serif">19 октября — уход из Москвы</text>
  <text x="560" y="258" font-size="8.5" fill="#1F2937" text-anchor="start" font-family="sans-serif">Кутузов: тактика заманивания</text>
  <text x="560" y="271" font-size="8.5" fill="#1F2937" text-anchor="start" font-family="sans-serif">Переправа через Березину —</text>
  <text x="560" y="284" font-size="8.5" fill="#1F2937" text-anchor="start" font-family="sans-serif">катастрофа для французов</text>
  <rect x="25" y="310" width="345" height="210" fill="#FFFFFF" stroke="#FCA5A5" rx="8" ry="8" filter="url(#shadow5)" />
  <text x="197" y="328" font-size="11" fill="#B91C1C" text-anchor="middle" font-family="sans-serif" font-weight="bold">Схема Отечественной войны 1812 г.</text>
  <circle cx="225" cy="390" r="6" fill="#EF4444" stroke="#FFFFFF" stroke-width="2" />
  <text x="225" y="382" font-size="9" fill="#EF4444" text-anchor="middle" font-family="sans-serif" font-weight="bold">Москва</text>
  <path d="M 65 360 Q 125 370 220 388" fill="none" stroke="#1E40AF" stroke-width="3" />
  <polygon points="213,382 223,388 215,392" fill="#1E40AF" />
  <text x="105" y="352" font-size="8" fill="#1E40AF" text-anchor="middle" font-family="sans-serif" font-weight="bold">Наступление Наполеона</text>
  <path d="M 220 395 Q 155 440 85 470" fill="none" stroke="#DC2626" stroke-width="2.5" opacity="0.8" />
  <line x1="95" y1="468" x2="80" y2="472" stroke="#DC2626" stroke-width="2.5" />
  <text x="105" y="450" font-size="8" fill="#DC2626" text-anchor="middle" font-family="sans-serif" font-weight="bold">Отступление</text>
  <circle cx="125" cy="425" r="4" fill="#F59E0B" stroke="#FFFFFF" stroke-width="1.5" />
  <text x="135" y="425" font-size="7" fill="#F59E0B" text-anchor="start" font-family="sans-serif">р. Березина</text>
  <circle cx="165" cy="375" r="3" fill="#6366F1" stroke="#FFFFFF" stroke-width="1.5" />
  <text x="175" y="375" font-size="7" fill="#6366F1" text-anchor="start" font-family="sans-serif">Смоленск</text>
  <circle cx="200" cy="383" r="3" fill="#EF4444" stroke="#FFFFFF" stroke-width="1.5" />
  <text x="190" y="395" font-size="7" fill="#EF4444" text-anchor="end" font-family="sans-serif">Бородино</text>
  <text x="60" y="360" font-size="7" fill="#3B82F6" text-anchor="start" font-family="sans-serif">р. Неман</text>
  <rect x="235" y="470" width="125" height="42" fill="#F9FAFB" stroke="#E5E7EB" rx="4" ry="4" />
  <line x1="243" y1="482" x2="263" y2="482" stroke="#1E40AF" stroke-width="2" />
  <text x="267" y="485" font-size="7" fill="#1F2937" text-anchor="start" font-family="sans-serif">Наступление</text>
  <line x1="243" y1="500" x2="263" y2="500" stroke="#DC2626" stroke-width="2" />
  <text x="267" y="503" font-size="7" fill="#1F2937" text-anchor="start" font-family="sans-serif">Отступление</text>
  <rect x="385" y="310" width="395" height="100" fill="#FFFFFF" stroke="#FCA5A5" rx="8" ry="8" filter="url(#shadow5)" />
  <text x="582" y="328" font-size="11" fill="#B91C1C" text-anchor="middle" font-family="sans-serif" font-weight="bold">Полководцы Отечественной войны</text>
  <rect x="395" y="340" width="120" height="60" fill="#FEE2E2" stroke="#EF4444" rx="6" ry="6" />
  <text x="455" y="358" font-size="10" fill="#B91C1C" text-anchor="middle" font-family="sans-serif" font-weight="bold">М.И. Кутузов</text>
  <text x="455" y="372" font-size="8" fill="#374151" text-anchor="middle" font-family="sans-serif">Главнокомандующий</text>
  <text x="455" y="386" font-size="8" fill="#374151" text-anchor="middle" font-family="sans-serif">Стратегия заманивания</text>
  <rect x="525" y="340" width="120" height="60" fill="#EFF6FF" stroke="#1E40AF" rx="6" ry="6" />
  <text x="585" y="358" font-size="10" fill="#1E40AF" text-anchor="middle" font-family="sans-serif" font-weight="bold">Барклай</text>
  <text x="585" y="372" font-size="10" fill="#1E40AF" text-anchor="middle" font-family="sans-serif" font-weight="bold">де Толли</text>
  <text x="585" y="388" font-size="8" fill="#374151" text-anchor="middle" font-family="sans-serif">Стратегия отступления</text>
  <rect x="655" y="340" width="115" height="60" fill="#F0FDF4" stroke="#059669" rx="6" ry="6" />
  <text x="712" y="358" font-size="10" fill="#059669" text-anchor="middle" font-family="sans-serif" font-weight="bold">П.И. Багратион</text>
  <text x="712" y="374" font-size="8" fill="#374151" text-anchor="middle" font-family="sans-serif">Герой Бородино</text>
  <text x="712" y="388" font-size="8" fill="#374151" text-anchor="middle" font-family="sans-serif">Смертельно ранен</text>
  <rect x="385" y="420" width="395" height="100" fill="#FFFFFF" stroke="#D4A017" stroke-width="1.5" rx="8" ry="8" filter="url(#shadow5)" />
  <rect x="385" y="420" width="395" height="24" fill="#D4A017" rx="8" ry="8" />
  <rect x="385" y="434" width="395" height="10" fill="#D4A017" />
  <polygon points="400.0,424.0 398.1,429.4 392.4,429.5 397.0,433.0 395.3,438.5 400.0,435.2 404.7,438.5 403.0,433.0 407.6,429.5 401.9,429.4" fill="#FFFFFF" stroke="#8B6914" stroke-width="0.5" />
  <text x="595" y="437" font-size="11" fill="#FFFFFF" text-anchor="middle" font-family="sans-serif" font-weight="bold">Итоги войны 1812 года</text>
  <text x="405" y="460" font-size="9" fill="#1F2937" text-anchor="start" font-family="sans-serif">✦ Полное уничтожение армии Наполеона</text>
  <text x="405" y="474" font-size="9" fill="#1F2937" text-anchor="start" font-family="sans-serif">✦ Из ~600 000 вернулось ~30 000</text>
  <text x="405" y="488" font-size="9" fill="#1F2937" text-anchor="start" font-family="sans-serif">✦ Россия сохранила независимость</text>
  <text x="405" y="502" font-size="9" fill="#1F2937" text-anchor="start" font-family="sans-serif">✦ Начало заграничных походов русской армии</text>
  <text x="405" y="516" font-size="9" fill="#1F2937" text-anchor="start" font-family="sans-serif">✦ Победа стала символом единства нации</text>
  <rect x="25" y="530" width="750" height="30" fill="#FEE2E2" stroke="#FCA5A5" rx="6" ry="6" />
  <text x="400" y="549" font-size="10" fill="#B91C1C" text-anchor="middle" font-family="sans-serif" font-weight="bold" font-style="italic">«Французы показали себя достойными победы, а русские заслужили быть непобедимыми» — Кутузов</text>
  <rect x="0" y="570" width="800" height="30" fill="#B91C1C" opacity="0.15" />
  <text x="400" y="590" font-size="10" fill="#6B7280" text-anchor="middle" font-family="sans-serif">Урок 5 | История России | 8 класс</text>
</svg>
