<svg xmlns="http://www.w3.org/2000/svg" viewBox="0 0 500 350">
<rect width="500" height="350" fill="#FFF8E1"/>
<rect x="150" y="180" width="100" height="30" fill="#8D6E63" rx="4" stroke="#5D4037" stroke-width="1.5"/>
<rect x="155" y="175" width="90" height="8" fill="#A1887F" rx="2"/>
<rect x="160" y="210" width="10" height="40" fill="#6D4C41" rx="2"/>
<rect x="230" y="210" width="10" height="40" fill="#6D4C41" rx="2"/>
<text x="200" y="270" font-family="Arial" font-size="7" fill="#5D4037" text-anchor="middle">Конь</text>
<circle cx="250" cy="130" r="10" fill="#FF8A65"/>
<line x1="250" y1="140" x2="250" y2="175" stroke="#FF8A65" stroke-width="2.5"/>
<line x1="250" y1="150" x2="235" y2="140" stroke="#FF8A65" stroke-width="2"/>
<line x1="250" y1="150" x2="270" y2="140" stroke="#FF8A65" stroke-width="2"/>
<line x1="250" y1="175" x2="270" y2="165" stroke="#FF8A65" stroke-width="2.5"/>
<line x1="250" y1="175" x2="268" y2="195" stroke="#FF8A65" stroke-width="2"/>
<path d="M270,140 Q285,130 280,150" stroke="#FF9800" stroke-width="1" fill="none" stroke-dasharray="3,2" opacity="0.5"/>
<text x="300" y="140" font-family="Arial" font-size="6" fill="#E65100">Опорный прыжок</text>
<rect x="360" y="60" width="15" height="190" fill="#5D4037" rx="3"/>
<line x1="367" y1="65" x2="367" y2="245" stroke="#8D6E63" stroke-width="1"/>
<path d="M355,55 Q367,40 380,55" stroke="#5D4037" stroke-width="3" fill="none" stroke-linecap="round"/>
<path d="M358,55 Q367,45 377,55" stroke="#8D6E63" stroke-width="1.5" fill="none"/>
<circle cx="367" cy="120" r="10" fill="#FF8A65"/>
<line x1="367" y1="130" x2="367" y2="165" stroke="#FF8A65" stroke-width="2.5"/>
<line x1="367" y1="145" x2="355" y2="125" stroke="#FF8A65" stroke-width="2"/>
<line x1="367" y1="145" x2="380" y2="130" stroke="#FF8A65" stroke-width="2"/>
<line x1="367" y1="165" x2="358" y2="190" stroke="#FF8A65" stroke-width="2"/>
<line x1="367" y1="165" x2="376" y2="188" stroke="#FF8A65" stroke-width="2"/>
<path d="M355,125 Q350,110 355,100" stroke="#FF8A65" stroke-width="1.5" fill="none" opacity="0.5"/>
<text x="367" y="270" font-family="Arial" font-size="7" fill="#5D4037" text-anchor="middle">Лазание по канату</text>
<rect x="30" y="40" width="130" height="55" fill="#FFF8E1" rx="4" stroke="#FFB74D" stroke-width="0.8"/>
<text x="95" y="58" font-family="Arial" font-size="8" fill="#E65100" text-anchor="middle" font-weight="bold">Опорный прыжок</text>
<text x="95" y="72" font-family="Arial" font-size="7" fill="#FF9800" text-anchor="middle">Разбег → Толчок → Полёт</text>
<text x="95" y="84" font-family="Arial" font-size="7" fill="#FF9800" text-anchor="middle">→ Приземление</text>
<rect x="30" y="270" width="130" height="40" fill="#FFF8E1" rx="4" stroke="#FFB74D" stroke-width="0.5"/>
<text x="95" y="288" font-family="Arial" font-size="7" fill="#E65100" text-anchor="middle">Лазание развивает:</text>
<text x="95" y="302" font-family="Arial" font-size="7" fill="#FF9800" text-anchor="middle">Силу рук • Хват • Координацию</text>
<text x="250" y="342" font-family="Arial" font-size="9" fill="#E65100" text-anchor="middle" opacity="0.5">Опорный прыжок и лазание</text>
</svg>