<svg xmlns="http://www.w3.org/2000/svg" viewBox="0 0 500 350">
<rect width="500" height="350" fill="#E8EAF6"/>
<rect x="0" y="160" width="500" height="190" fill="#E0E0E8"/>
<circle cx="420" cy="45" r="22" fill="#FFF9C4" opacity="0.6"/>
<path d="M0,160 Q50,155 100,160 Q150,158 200,162 Q250,156 300,160 Q350,158 400,162 Q450,156 500,160" stroke="#B0BEC5" stroke-width="0.5" fill="none"/>
<path d="M0,180 Q50,175 100,180 Q150,178 200,182 Q250,176 300,180 Q350,178 400,182 Q450,176 500,180" stroke="#B0BEC5" stroke-width="0.3" fill="none"/>
<circle cx="150" cy="110" r="10" fill="#5C6BC0"/>
<line x1="150" y1="120" x2="150" y2="160" stroke="#5C6BC0" stroke-width="2.5"/>
<line x1="150" y1="135" x2="135" y2="150" stroke="#5C6BC0" stroke-width="2"/>
<line x1="150" y1="135" x2="168" y2="145" stroke="#5C6BC0" stroke-width="2"/>
<line x1="150" y1="160" x2="120" y2="190" stroke="#5C6BC0" stroke-width="2.5"/>
<line x1="150" y1="160" x2="180" y2="185" stroke="#5C6BC0" stroke-width="2.5"/>
<line x1="135" y1="150" x2="128" y2="168" stroke="#5D4037" stroke-width="1.5"/>
<line x1="168" y1="145" x2="175" y2="165" stroke="#5D4037" stroke-width="1.5"/>
<circle cx="128" cy="171" r="2" fill="#5D4037"/>
<circle cx="175" cy="168" r="2" fill="#5D4037"/>
<path d="M120,190 L115,205" stroke="#5C6BC0" stroke-width="1.5"/>
<path d="M180,185 L185,200" stroke="#5C6BC0" stroke-width="1.5"/>
<path d="M110,210 Q120,208 130,210 Q140,206 150,210 Q160,205 170,210 Q180,206 190,210" stroke="#7986CB" stroke-width="1" fill="none" opacity="0.5"/>
<path d="M150,210 Q170,200 190,215" stroke="#FF5722" stroke-width="1.5" fill="none" stroke-dasharray="4,3"/>
<polygon points="188,213 196,215 190,219" fill="#FF5722" opacity="0.7"/>
<text x="210" y="210" font-family="Arial" font-size="7" fill="#E64A19">Поворот</text>
<rect x="280" y="60" width="180" height="80" fill="#E8EAF6" rx="6" stroke="#7986CB" stroke-width="0.8"/>
<text x="370" y="80" font-family="Arial" font-size="8" fill="#283593" text-anchor="middle" font-weight="bold">Виды поворотов</text>
<text x="370" y="97" font-family="Arial" font-size="7" fill="#5C6BC0" text-anchor="middle">Переступанием</text>
<text x="370" y="111" font-family="Arial" font-size="7" fill="#5C6BC0" text-anchor="middle">Плугом (торможение)</text>
<text x="370" y="125" font-family="Arial" font-size="7" fill="#5C6BC0" text-anchor="middle">Параллельный</text>
<path d="M60,250 L80,240 L100,245 L120,235 L140,240 L160,230" stroke="#5C6BC0" stroke-width="2" fill="none" opacity="0.4"/>
<path d="M200,260 L220,250 L240,255 L260,245 L280,250 L300,240" stroke="#7986CB" stroke-width="1.5" fill="none" opacity="0.3"/>
<text x="370" y="260" font-family="Arial" font-size="7" fill="#5C6BC0" text-anchor="middle">Торможение «плугом»</text>
<path d="M330,270 L350,265 L370,270 L390,262 L410,268 L430,260 L450,265" stroke="#283593" stroke-width="1.5" fill="none" opacity="0.4"/>
<path d="M340,275 Q355,270 370,278 Q385,272 400,278 Q415,270 430,278" stroke="#7986CB" stroke-width="1" fill="none" opacity="0.3"/>
<text x="250" y="342" font-family="Arial" font-size="9" fill="#283593" text-anchor="middle" opacity="0.5">Повороты и торможение на лыжах</text>
</svg>