<svg xmlns="http://www.w3.org/2000/svg" viewBox="0 0 500 350">
<rect width="500" height="350" fill="#FFF3E0"/>
<rect x="60" y="140" width="12" height="60" fill="#5C3310" rx="2"/>
<rect x="50" y="130" width="32" height="12" fill="#333" rx="3"/>
<rect x="50" y="198" width="32" height="12" fill="#333" rx="3"/>
<rect x="160" y="140" width="12" height="60" fill="#5C3310" rx="2"/>
<rect x="150" y="130" width="32" height="12" fill="#333" rx="3"/>
<rect x="150" y="198" width="32" height="12" fill="#333" rx="3"/>
<circle cx="110" cy="100" r="12" fill="#FF8A65"/>
<rect x="105" y="112" width="10" height="25" fill="#E53935" rx="3"/>
<line x1="110" y1="137" x2="72" y2="140" stroke="#FF8A65" stroke-width="2.5"/>
<line x1="110" y1="137" x2="148" y2="140" stroke="#FF8A65" stroke-width="2.5"/>
<line x1="110" y1="137" x2="110" y2="180" stroke="#FF8A65" stroke-width="2.5"/>
<line x1="110" y1="180" x2="95" y2="210" stroke="#FF8A65" stroke-width="2"/>
<line x1="110" y1="180" x2="125" y2="210" stroke="#FF8A65" stroke-width="2"/>
<text x="110" y="228" font-family="Arial" font-size="8" fill="#E65100" text-anchor="middle">Сила</text>
<rect x="280" y="40" width="180" height="120" fill="#FFF8E1" rx="8" stroke="#FF9800" stroke-width="1"/>
<text x="370" y="62" font-family="Arial" font-size="10" fill="#E65100" text-anchor="middle" font-weight="bold">Секундомер</text>
<circle cx="370" cy="100" r="35" fill="#FFF8E1" stroke="#FF9800" stroke-width="2"/>
<circle cx="370" cy="100" r="30" fill="white" stroke="#FFB74D" stroke-width="1"/>
<line x1="370" y1="100" x2="370" y2="75" stroke="#E65100" stroke-width="1.5"/>
<line x1="370" y1="100" x2="385" y2="110" stroke="#FF5722" stroke-width="1"/>
<circle cx="370" cy="100" r="2" fill="#E65100"/>
<text x="370" y="145" font-family="Arial" font-size="8" fill="#E65100" text-anchor="middle">9.58 сек</text>
<text x="370" y="158" font-family="Arial" font-size="7" fill="#FF9800" text-anchor="middle">Мировой рекорд 100м</text>
<path d="M300,190 Q310,170 320,190" stroke="#FF9800" stroke-width="2" fill="none" opacity="0.5"/>
<circle cx="380" cy="210" r="12" fill="#FF8A65"/>
<line x1="380" y1="222" x2="380" y2="260" stroke="#FF8A65" stroke-width="2.5"/>
<line x1="380" y1="235" x2="365" y2="220" stroke="#FF8A65" stroke-width="2"/>
<line x1="380" y1="235" x2="400" y2="210" stroke="#FF8A65" stroke-width="2"/>
<line x1="380" y1="260" x2="360" y2="290" stroke="#FF8A65" stroke-width="2.5"/>
<line x1="380" y1="260" x2="400" y2="285" stroke="#FF8A65" stroke-width="2.5"/>
<path d="M390,288 L405,280" stroke="#FF8A65" stroke-width="1.5"/>
<text x="380" y="310" font-family="Arial" font-size="8" fill="#E65100" text-anchor="middle">Быстрота</text>
<rect x="50" y="270" width="160" height="40" fill="#FFF8E1" rx="4" stroke="#FFB74D" stroke-width="0.5"/>
<text x="130" y="288" font-family="Arial" font-size="7" fill="#E65100" text-anchor="middle">Сила = выдерживать нагрузку</text>
<text x="130" y="302" font-family="Arial" font-size="7" fill="#E65100" text-anchor="middle">Быстрота = скорость реакции</text>
<text x="250" y="342" font-family="Arial" font-size="9" fill="#E65100" text-anchor="middle" opacity="0.5">Развитие силы и быстроты</text>
</svg>