<svg xmlns="http://www.w3.org/2000/svg" viewBox="0 0 500 350"><defs><linearGradient id="bg" x1="0" y1="0" x2="1" y2="1"><stop offset="0%" stop-color="#FFF8E1"/><stop offset="100%" stop-color="#FFFDE7"/></linearGradient></defs><rect width="500" height="350" fill="url(#bg)" rx="10"/><rect x="3" y="3" width="494" height="344" rx="8" fill="none" stroke="#C62828" stroke-width="3"/><rect x="8" y="8" width="484" height="334" rx="6" fill="none" stroke="#C62828" stroke-width="1" opacity="0.3"/><polygon points="10,10 30,10 10,30" fill="#C62828" opacity="0.08"/><polygon points="490,10 470,10 490,30" fill="#1565C0" opacity="0.08"/><polygon points="10,340 30,340 10,320" fill="#F9A825" opacity="0.08"/><polygon points="490,340 470,340 490,320" fill="#2E7D32" opacity="0.08"/><circle cx="70" cy="15" r="4" fill="#C62828" opacity="0.1"/><circle cx="82" cy="15" r="4" fill="#1565C0" opacity="0.1"/><circle cx="94" cy="15" r="4" fill="#F9A825" opacity="0.1"/><circle cx="406" cy="15" r="4" fill="#C62828" opacity="0.1"/><circle cx="418" cy="15" r="4" fill="#1565C0" opacity="0.1"/><circle cx="430" cy="15" r="4" fill="#F9A825" opacity="0.1"/><text x="250" y="50" font-family="Arial,sans-serif" font-size="24" font-weight="bold" fill="#C62828" text-anchor="middle">Спрайты и сцена</text><text x="250" y="68" font-family="Arial,sans-serif" font-size="12" fill="#777" text-anchor="middle">Основы программирования - Урок 2</text><line x1="30" y1="78" x2="470" y2="78" stroke="#C62828" stroke-width="2" opacity="0.25"/><rect x="30" y="75" width="60" height="6" fill="#C62828" opacity="0.15" rx="1"/><rect x="410" y="75" width="60" height="6" fill="#1565C0" opacity="0.12" rx="1"/>
<!-- Stage window -->
<rect x="60" y="95" width="260" height="195" rx="5" fill="white" stroke="#555" stroke-width="2"/>
<rect x="62" y="97" width="256" height="191" rx="4" fill="#E8F5E9"/>
<!-- Coordinate grid -->
<line x1="190" y1="97" x2="190" y2="288" stroke="#999" stroke-width="0.5" stroke-dasharray="3,3"/>
<line x1="62" y1="192" x2="318" y2="192" stroke="#999" stroke-width="0.5" stroke-dasharray="3,3"/>
<!-- X axis labels -->
<text x="120" y="200" font-family="Arial,sans-serif" font-size="8" fill="#999" text-anchor="middle">x:-70</text>
<text x="260" y="200" font-family="Arial,sans-serif" font-size="8" fill="#999" text-anchor="middle">x:70</text>
<!-- Y axis labels -->
<text x="185" y="130" font-family="Arial,sans-serif" font-size="8" fill="#999" text-anchor="end">y:60</text>
<text x="185" y="260" font-family="Arial,sans-serif" font-size="8" fill="#999" text-anchor="end">y:-60</text>
<!-- Cat sprite on stage -->
<g transform="translate(200,160)">
  <ellipse cx="0" cy="0" rx="16" ry="14" fill="#F5A623" stroke="#E8941E" stroke-width="1"/>
  <polygon points="-10,-10 -6,-22 -2,-9" fill="#F5A623" stroke="#E8941E" stroke-width="0.8"/>
  <polygon points="10,-10 6,-22 2,-9" fill="#F5A623" stroke="#E8941E" stroke-width="0.8"/>
  <circle cx="-5" cy="-3" r="3" fill="white"/><circle cx="-4" cy="-3" r="1.5" fill="#2E7D32"/>
  <circle cx="5" cy="-3" r="3" fill="white"/><circle cx="6" cy="-3" r="1.5" fill="#2E7D32"/>
  <ellipse cx="0" cy="3" rx="2" ry="1.5" fill="#E8941E"/>
</g>
<!-- Arrow sprite on stage -->
<g transform="translate(270,220)">
  <polygon points="0,-12 10,0 5,0 5,12 -5,12 -5,0 -10,0" fill="#42A5F5" stroke="#1565C0" stroke-width="1"/>
</g>
<!-- Ball sprite on stage -->
<circle cx="130" cy="150" r="10" fill="#EF5350" stroke="#C62828" stroke-width="1"/>
<!-- Sprite palette on right -->
<rect x="340" y="95" width="145" height="195" rx="5" fill="#FFF3E0" stroke="#FF8F00" stroke-width="1.5"/>
<text x="412" y="115" font-family="Arial,sans-serif" font-size="11" fill="#C62828" text-anchor="middle" font-weight="bold">Спрайты</text>
<line x1="350" y1="122" x2="475" y2="122" stroke="#FF8F00" stroke-width="0.8"/>
<!-- Sprite thumbnails -->
<rect x="355" y="132" width="55" height="45" rx="4" fill="white" stroke="#999" stroke-width="0.8"/>
<g transform="translate(382,155)">
  <ellipse cx="0" cy="0" rx="12" ry="10" fill="#F5A623"/>
  <circle cx="-4" cy="-2" r="2" fill="#2E7D32"/>
  <circle cx="4" cy="-2" r="2" fill="#2E7D32"/>
</g>
<rect x="420" y="132" width="55" height="45" rx="4" fill="white" stroke="#999" stroke-width="0.8"/>
<polygon points="447,145 457,157 447,157 447,169 437,169 437,157 427,157" fill="#42A5F5"/>
<rect x="355" y="188" width="55" height="45" rx="4" fill="white" stroke="#999" stroke-width="0.8"/>
<circle cx="382" cy="210" r="12" fill="#EF5350"/>
<rect x="420" y="188" width="55" height="45" rx="4" fill="white" stroke="#999" stroke-width="0.8"/>
<rect x="430" y="198" width="35" height="25" rx="3" fill="#66BB6A" stroke="#388E3C" stroke-width="0.8"/>
<text x="447" y="215" font-family="Arial,sans-serif" font-size="7" fill="white" text-anchor="middle">Фон</text>
<!-- Plus button -->
<circle cx="412" cy="253" r="14" fill="#FF8F00" opacity="0.2" stroke="#FF8F00" stroke-width="1"/>
<line x1="405" y1="253" x2="419" y2="253" stroke="#FF8F00" stroke-width="2"/>
<line x1="412" y1="246" x2="412" y2="260" stroke="#FF8F00" stroke-width="2"/>
<text x="412" y="280" font-family="Arial,sans-serif" font-size="8" fill="#999" text-anchor="middle">Добавить</text>
<rect x="15" y="308" width="470" height="30" rx="4" fill="#C62828" opacity="0.85"/><text x="250" y="329" font-family="Arial,sans-serif" font-size="15" text-anchor="middle" fill="white" font-weight="bold">Спрайты и сцена</text></svg>