<svg xmlns="http://www.w3.org/2000/svg" viewBox="0 0 500 350">
  <defs><linearGradient id="bg" x1="0" y1="0" x2="0" y2="1"><stop offset="0%" stop-color="#E3F2FD"/><stop offset="100%" stop-color="#FFF"/></linearGradient>
  <linearGradient id="panel" x1="0" y1="0" x2="1" y2="0"><stop offset="0%" stop-color="#1565C0"/><stop offset="100%" stop-color="#1976D2"/></linearGradient></defs>
  <rect width="500" height="350" fill="url(#bg)" rx="10"/>
  <rect x="3" y="3" width="494" height="344" rx="8" fill="none" stroke="#1565C0" stroke-width="2.5"/>
  <text x="250" y="28" font-family="Arial,sans-serif" font-size="13" font-weight="bold" fill="#1565C0" text-anchor="middle">Электрический заряд. Закон Кулона</text>
  <text x="250" y="44" font-family="Arial,sans-serif" font-size="10" fill="#888" text-anchor="middle">Физика 10 класс — Урок 44</text>
  <line x1="30" y1="52" x2="470" y2="52" stroke="#1565C0" stroke-width="1.5" opacity="0.25"/>
  <clipPath id="ill"><rect x="15" y="56" width="470" height="238" rx="6"/></clipPath>
  <g clip-path="url(#ill)"><rect x="15" y="56" width="470" height="238" fill="#E3F2FD" opacity="0.4"/>

    <!-- Two charges -->
    <rect x="25" y="62" width="250" height="140" rx="5" fill="white" stroke="#1565C0" stroke-width="1.2"/>
    <text x="150" y="78" font-family="Arial,sans-serif" font-size="9" fill="#1565C0" font-weight="bold" text-anchor="middle">Закон Кулона</text>

    <!-- Positive charge q1 -->
    <circle cx="80" cy="135" r="20" fill="#E53935" opacity="0.3" stroke="#E53935" stroke-width="2"/>
    <text x="80" y="131" font-family="Arial,sans-serif" font-size="14" fill="#E53935" text-anchor="middle">+</text>
    <text x="80" y="148" font-family="Arial,sans-serif" font-size="8" fill="#E53935" text-anchor="middle">q1</text>

    <!-- Negative charge q2 -->
    <circle cx="220" cy="135" r="16" fill="#1565C0" opacity="0.3" stroke="#1565C0" stroke-width="2"/>
    <text x="220" y="132" font-family="Arial,sans-serif" font-size="14" fill="#1565C0" text-anchor="middle">-</text>
    <text x="220" y="148" font-family="Arial,sans-serif" font-size="8" fill="#1565C0" text-anchor="middle">q2</text>

    <!-- Attraction forces -->
    <line x1="100" y1="130" x2="136.5" y2="130.0" stroke="#F57C00" stroke-width="2"/>
<polygon points="140,130 133.0,132.8 133.0,127.2" fill="#F57C00"/>
    <line x1="204" y1="130" x2="168.5" y2="130.0" stroke="#F57C00" stroke-width="2"/>
<polygon points="165,130 172.0,127.2 172.0,132.8" fill="#F57C00"/>
    <text x="150" y="124" font-family="Arial,sans-serif" font-size="8" fill="#F57C00" text-anchor="middle">F</text>

    <!-- Distance r -->
    <line x1="80" y1="170" x2="220" y2="170" stroke="#333" stroke-width="1"/>
    <line x1="80" y1="165" x2="80" y2="175" stroke="#333" stroke-width="1"/>
    <line x1="220" y1="165" x2="220" y2="175" stroke="#333" stroke-width="1"/>
    <text x="150" y="182" font-family="Arial,sans-serif" font-size="10" fill="#333" text-anchor="middle" font-style="italic">r</text>

    <!-- Formula -->
    <rect x="40" y="188" width="220" height="25" rx="3" fill="#E3F2FD" stroke="#E53935" stroke-width="1.5"/>
    <text x="150" y="206" font-family="Arial,sans-serif" font-size="11" fill="#E53935" text-anchor="middle" font-weight="bold">F = k*q1*q2/r*r</text>

    <!-- Charge properties -->
    <rect x="285" y="62" width="190" height="95" rx="5" fill="white" stroke="#2E7D32" stroke-width="1.2"/>
    <text x="380" y="78" font-family="Arial,sans-serif" font-size="9" fill="#2E7D32" font-weight="bold" text-anchor="middle">Свойства заряда</text>
    <line x1="295" y1="83" x2="465" y2="83" stroke="#2E7D32" stroke-width="0.5" opacity="0.3"/>
    <circle cx="305" cy="94" r="3" fill="#E53935"/>
    <text x="315" y="98" font-family="Arial,sans-serif" font-size="7" fill="#333">Два знака: + и -</text>
    <circle cx="305" cy="108" r="3" fill="#2E7D32"/>
    <text x="315" y="112" font-family="Arial,sans-serif" font-size="7" fill="#333">Квантован: e = 1.6*10^(-19) Кл</text>
    <circle cx="305" cy="122" r="3" fill="#F57C00"/>
    <text x="315" y="126" font-family="Arial,sans-serif" font-size="7" fill="#333">Закон сохранения заряда</text>
    <circle cx="305" cy="136" r="3" fill="#7B1FA2"/>
    <text x="315" y="140" font-family="Arial,sans-serif" font-size="7" fill="#333">[q] = Кл (Кулон)</text>
    <circle cx="305" cy="150" r="3" fill="#1565C0"/>
    <text x="315" y="154" font-family="Arial,sans-serif" font-size="7" fill="#333">Одноимённые отталкиваются</text>

    <!-- k constant -->
    <rect x="285" y="165" width="190" height="37" rx="5" fill="white" stroke="#F57C00" stroke-width="1.2"/>
    <text x="380" y="180" font-family="Arial,sans-serif" font-size="8" fill="#F57C00" font-weight="bold" text-anchor="middle">k = 9*10^9 Н*м/Кл/Кл</text>
    <text x="380" y="196" font-family="Arial,sans-serif" font-size="7" fill="#555" text-anchor="middle">k = 1/(4*pi*eps0)</text>

    <!-- Electrization -->
    <rect x="25" y="225" width="225" height="45" rx="5" fill="white" stroke="#7B1FA2" stroke-width="1.2"/>
    <text x="137" y="241" font-family="Arial,sans-serif" font-size="9" fill="#7B1FA2" font-weight="bold" text-anchor="middle">Электризация</text>
    <text x="137" y="258" font-family="Arial,sans-serif" font-size="7" fill="#333" text-anchor="middle">Трение, контакт, влияние | Тело получает + или - заряд</text>

    <rect x="260" y="225" width="215" height="45" rx="5" fill="white" stroke="#1565C0" stroke-width="1.2"/>
    <text x="367" y="241" font-family="Arial,sans-serif" font-size="9" fill="#1565C0" font-weight="bold" text-anchor="middle">Сравнение: Кулон vs Ньютон</text>
    <text x="367" y="258" font-family="Arial,sans-serif" font-size="7" fill="#333" text-anchor="middle">F=kq1q2/r*r vs F=Gm1m2/r*r | Кулон в 10^36 раз сильнее!</text>
    </g><rect x="12" y="298" width="476" height="42" rx="5" fill="url(#panel)"/>
  <text x="250" y="316" font-family="Arial,sans-serif" font-size="14" text-anchor="middle" fill="white" font-weight="bold">Электростатика</text>
  <text x="250" y="332" font-family="Arial,sans-serif" font-size="10" text-anchor="middle" fill="white" opacity="0.8">Урок 44</text></svg>