<svg xmlns="http://www.w3.org/2000/svg" viewBox="0 0 500 350">
  <defs><linearGradient id="bg" x1="0" y1="0" x2="0" y2="1"><stop offset="0%" stop-color="#E3F2FD"/><stop offset="100%" stop-color="#FFF"/></linearGradient>
  <linearGradient id="panel" x1="0" y1="0" x2="1" y2="0"><stop offset="0%" stop-color="#1565C0"/><stop offset="100%" stop-color="#1976D2"/></linearGradient></defs>
  <rect width="500" height="350" fill="url(#bg)" rx="10"/>
  <rect x="3" y="3" width="494" height="344" rx="8" fill="none" stroke="#1565C0" stroke-width="2.5"/>
  <text x="250" y="28" font-family="Arial,sans-serif" font-size="13" font-weight="bold" fill="#1565C0" text-anchor="middle">Конденсаторы. Электроёмкость</text>
  <text x="250" y="44" font-family="Arial,sans-serif" font-size="10" fill="#888" text-anchor="middle">Физика 10 класс — Урок 49</text>
  <line x1="30" y1="52" x2="470" y2="52" stroke="#1565C0" stroke-width="1.5" opacity="0.25"/>
  <clipPath id="ill"><rect x="15" y="56" width="470" height="238" rx="6"/></clipPath>
  <g clip-path="url(#ill)"><rect x="15" y="56" width="470" height="238" fill="#E3F2FD" opacity="0.4"/>

    <!-- Parallel plate capacitor -->
    <rect x="25" y="62" width="225" height="150" rx="5" fill="white" stroke="#1565C0" stroke-width="1.2"/>
    <text x="137" y="78" font-family="Arial,sans-serif" font-size="9" fill="#1565C0" font-weight="bold" text-anchor="middle">Плоский конденсатор</text>

    <!-- Left plate (positive) -->
    <rect x="85" y="92" width="8" height="90" rx="2" fill="#E53935" opacity="0.7"/>
    <text x="60" y="105" font-family="Arial,sans-serif" font-size="8" fill="#E53935">+ + +</text>
    <text x="60" y="120" font-family="Arial,sans-serif" font-size="8" fill="#E53935">+ + +</text>
    <text x="60" y="135" font-family="Arial,sans-serif" font-size="8" fill="#E53935">+ + +</text>
    <text x="60" y="150" font-family="Arial,sans-serif" font-size="8" fill="#E53935">+ + +</text>
    <text x="60" y="165" font-family="Arial,sans-serif" font-size="8" fill="#E53935">+ + +</text>

    <!-- Right plate (negative) -->
    <rect x="180" y="92" width="8" height="90" rx="2" fill="#1565C0" opacity="0.7"/>
    <text x="195" y="105" font-family="Arial,sans-serif" font-size="8" fill="#1565C0">- - -</text>
    <text x="195" y="120" font-family="Arial,sans-serif" font-size="8" fill="#1565C0">- - -</text>
    <text x="195" y="135" font-family="Arial,sans-serif" font-size="8" fill="#1565C0">- - -</text>
    <text x="195" y="150" font-family="Arial,sans-serif" font-size="8" fill="#1565C0">- - -</text>
    <text x="195" y="165" font-family="Arial,sans-serif" font-size="8" fill="#1565C0">- - -</text>

    <!-- Field lines between plates -->
    <line x1="95" y1="120" x2="173.0" y2="120.0" stroke="#F57C00" stroke-width="1"/>
<polygon points="175,120 171.0,121.6 171.0,118.4" fill="#F57C00"/>
    <line x1="95" y1="140" x2="173.0" y2="140.0" stroke="#F57C00" stroke-width="1"/>
<polygon points="175,140 171.0,141.6 171.0,138.4" fill="#F57C00"/>
    <line x1="95" y1="160" x2="173.0" y2="160.0" stroke="#F57C00" stroke-width="1"/>
<polygon points="175,160 171.0,161.6 171.0,158.4" fill="#F57C00"/>
    <text x="137" y="152" font-family="Arial,sans-serif" font-size="8" fill="#F57C00" text-anchor="middle" font-weight="bold">E</text>

    <!-- Distance d -->
    <line x1="95" y1="190" x2="180" y2="190" stroke="#333" stroke-width="1"/>
    <line x1="95" y1="185" x2="95" y2="195" stroke="#333" stroke-width="1"/>
    <line x1="180" y1="185" x2="180" y2="195" stroke="#333" stroke-width="1"/>
    <text x="137" y="202" font-family="Arial,sans-serif" font-size="9" fill="#333" text-anchor="middle" font-style="italic">d</text>

    <!-- Area S -->
    <text x="137" y="215" font-family="Arial,sans-serif" font-size="8" fill="#555" text-anchor="middle">S — площадь пластин</text>

    <!-- Formulas -->
    <rect x="260" y="62" width="215" height="90" rx="5" fill="white" stroke="#E53935" stroke-width="1.5"/>
    <text x="367" y="78" font-family="Arial,sans-serif" font-size="9" fill="#E53935" font-weight="bold" text-anchor="middle">Формулы</text>
    <line x1="270" y1="83" x2="465" y2="83" stroke="#E53935" stroke-width="0.5" opacity="0.3"/>
    <text x="367" y="100" font-family="Arial,sans-serif" font-size="10" fill="#333" text-anchor="middle" font-weight="bold">C = q/U</text>
    <text x="367" y="118" font-family="Arial,sans-serif" font-size="9" fill="#333" text-anchor="middle">C = eps*eps0*S/d</text>
    <text x="367" y="135" font-family="Arial,sans-serif" font-size="8" fill="#555" text-anchor="middle">[C] = Ф (Фарад) | 1 Ф = Кл/В</text>
    <text x="367" y="148" font-family="Arial,sans-serif" font-size="7" fill="#555" text-anchor="middle">eps0 = 8.85*10^(-12) Ф/м</text>

    <!-- Energy -->
    <rect x="260" y="160" width="215" height="52" rx="5" fill="white" stroke="#2E7D32" stroke-width="1.2"/>
    <text x="367" y="176" font-family="Arial,sans-serif" font-size="9" fill="#2E7D32" font-weight="bold" text-anchor="middle">Энергия конденсатора</text>
    <text x="367" y="194" font-family="Arial,sans-serif" font-size="9" fill="#333" text-anchor="middle">W = q*U/2 = C*U*U/2 = q*q/(2C)</text>

    <!-- Connections -->
    <rect x="25" y="225" width="120" height="45" rx="4" fill="white" stroke="#1565C0" stroke-width="1"/>
    <text x="85" y="241" font-family="Arial,sans-serif" font-size="8" fill="#1565C0" font-weight="bold" text-anchor="middle">Параллельно</text>
    <text x="85" y="258" font-family="Arial,sans-serif" font-size="8" fill="#333" text-anchor="middle">C = C1+C2</text>

    <rect x="155" y="225" width="120" height="45" rx="4" fill="white" stroke="#E53935" stroke-width="1"/>
    <text x="215" y="241" font-family="Arial,sans-serif" font-size="8" fill="#E53935" font-weight="bold" text-anchor="middle">Последовательно</text>
    <text x="215" y="258" font-family="Arial,sans-serif" font-size="8" fill="#333" text-anchor="middle">1/C = 1/C1+1/C2</text>

    <rect x="285" y="225" width="190" height="45" rx="4" fill="white" stroke="#F57C00" stroke-width="1"/>
    <text x="380" y="241" font-family="Arial,sans-serif" font-size="8" fill="#F57C00" font-weight="bold" text-anchor="middle">Применение</text>
    <text x="380" y="258" font-family="Arial,sans-serif" font-size="7" fill="#333" text-anchor="middle">Фотовспышка, фильтры, память, сенсоры</text>
    </g><rect x="12" y="298" width="476" height="42" rx="5" fill="url(#panel)"/>
  <text x="250" y="316" font-family="Arial,sans-serif" font-size="14" text-anchor="middle" fill="white" font-weight="bold">Электростатика</text>
  <text x="250" y="332" font-family="Arial,sans-serif" font-size="10" text-anchor="middle" fill="white" opacity="0.8">Урок 49</text></svg>