<svg xmlns="http://www.w3.org/2000/svg" viewBox="0 0 500 350">
  <!-- Background -->
  <rect width="500" height="350" fill="#F5E6C8"/>
  <!-- Top red accent bar -->
  <rect width="500" height="8" fill="#C41E3A"/>
  <!-- Thin gold line under accent -->
  <rect y="8" width="500" height="2" fill="#D4A843"/>
  <!-- Title -->
  <text x="250" y="45" text-anchor="middle" font-family="Arial, Helvetica, sans-serif" font-size="24" font-weight="bold" fill="#1a1a1a">Знакомство с клавиатурой</text>
  <!-- Subtitle -->
  <text x="250" y="70" text-anchor="middle" font-family="Arial, Helvetica, sans-serif" font-size="12" fill="#D4A843">Работа с клавиатурой</text>
  <!-- Illustration area -->
  <rect x="110" y="140" width="26" height="18" rx="3" fill="#1a1a1a" stroke="#444" stroke-width="1"/><rect x="140" y="140" width="26" height="18" rx="3" fill="#1a1a1a" stroke="#444" stroke-width="1"/><rect x="170" y="140" width="26" height="18" rx="3" fill="#1a1a1a" stroke="#444" stroke-width="1"/><rect x="200" y="140" width="26" height="18" rx="3" fill="#1a1a1a" stroke="#444" stroke-width="1"/><rect x="230" y="140" width="26" height="18" rx="3" fill="#1a1a1a" stroke="#444" stroke-width="1"/><rect x="260" y="140" width="26" height="18" rx="3" fill="#1a1a1a" stroke="#444" stroke-width="1"/><rect x="290" y="140" width="26" height="18" rx="3" fill="#1a1a1a" stroke="#444" stroke-width="1"/><rect x="320" y="140" width="26" height="18" rx="3" fill="#1a1a1a" stroke="#444" stroke-width="1"/><rect x="350" y="140" width="26" height="18" rx="3" fill="#1a1a1a" stroke="#444" stroke-width="1"/><rect x="380" y="140" width="26" height="18" rx="3" fill="#1a1a1a" stroke="#444" stroke-width="1"/><rect x="118" y="162" width="26" height="18" rx="3" fill="#1a1a1a" stroke="#444" stroke-width="1"/><rect x="148" y="162" width="26" height="18" rx="3" fill="#1a1a1a" stroke="#444" stroke-width="1"/><rect x="178" y="162" width="26" height="18" rx="3" fill="#1a1a1a" stroke="#444" stroke-width="1"/><rect x="208" y="162" width="26" height="18" rx="3" fill="#1a1a1a" stroke="#444" stroke-width="1"/><rect x="238" y="162" width="26" height="18" rx="3" fill="#1a1a1a" stroke="#444" stroke-width="1"/><rect x="268" y="162" width="26" height="18" rx="3" fill="#1a1a1a" stroke="#444" stroke-width="1"/><rect x="298" y="162" width="26" height="18" rx="3" fill="#1a1a1a" stroke="#444" stroke-width="1"/><rect x="328" y="162" width="26" height="18" rx="3" fill="#1a1a1a" stroke="#444" stroke-width="1"/><rect x="358" y="162" width="26" height="18" rx="3" fill="#1a1a1a" stroke="#444" stroke-width="1"/><rect x="388" y="162" width="26" height="18" rx="3" fill="#1a1a1a" stroke="#444" stroke-width="1"/><rect x="126" y="184" width="26" height="18" rx="3" fill="#1a1a1a" stroke="#444" stroke-width="1"/><rect x="156" y="184" width="26" height="18" rx="3" fill="#1a1a1a" stroke="#444" stroke-width="1"/><rect x="186" y="184" width="26" height="18" rx="3" fill="#1a1a1a" stroke="#444" stroke-width="1"/><rect x="216" y="184" width="26" height="18" rx="3" fill="#1a1a1a" stroke="#444" stroke-width="1"/><rect x="246" y="184" width="26" height="18" rx="3" fill="#1a1a1a" stroke="#444" stroke-width="1"/><rect x="276" y="184" width="26" height="18" rx="3" fill="#1a1a1a" stroke="#444" stroke-width="1"/><rect x="306" y="184" width="26" height="18" rx="3" fill="#1a1a1a" stroke="#444" stroke-width="1"/><rect x="336" y="184" width="26" height="18" rx="3" fill="#1a1a1a" stroke="#444" stroke-width="1"/><rect x="366" y="184" width="26" height="18" rx="3" fill="#1a1a1a" stroke="#444" stroke-width="1"/><rect x="134" y="206" width="80" height="18" rx="3" fill="#1a1a1a" stroke="#444" stroke-width="1"/><rect x="164" y="206" width="26" height="18" rx="3" fill="#1a1a1a" stroke="#444" stroke-width="1"/><rect x="194" y="206" width="26" height="18" rx="3" fill="#1a1a1a" stroke="#444" stroke-width="1"/><rect x="224" y="206" width="26" height="18" rx="3" fill="#1a1a1a" stroke="#444" stroke-width="1"/><rect x="254" y="206" width="26" height="18" rx="3" fill="#1a1a1a" stroke="#444" stroke-width="1"/><rect x="284" y="206" width="26" height="18" rx="3" fill="#1a1a1a" stroke="#444" stroke-width="1"/><rect x="314" y="206" width="26" height="18" rx="3" fill="#1a1a1a" stroke="#444" stroke-width="1"/>
  <!-- Bottom dark bar -->
  <rect y="315" width="500" height="35" fill="#1a1a1a"/>
  <!-- Gold line above bottom bar -->
  <rect y="313" width="500" height="2" fill="#D4A843"/>
  <!-- Subject name -->
  <text x="250" y="337" text-anchor="middle" font-family="Arial, Helvetica, sans-serif" font-size="15" font-weight="bold" fill="#F5E6C8">Информатика</text>
</svg>