<svg xmlns="http://www.w3.org/2000/svg" viewBox="0 0 500 350"><defs><linearGradient id="bg" x1="0" y1="0" x2="1" y2="1"><stop offset="0%" stop-color="#FFF8E1"/><stop offset="100%" stop-color="#FFFDE7"/></linearGradient></defs><rect width="500" height="350" fill="url(#bg)" rx="10"/><rect x="3" y="3" width="494" height="344" rx="8" fill="none" stroke="#C62828" stroke-width="3"/><rect x="8" y="8" width="484" height="334" rx="6" fill="none" stroke="#C62828" stroke-width="1" opacity="0.3"/><polygon points="10,10 30,10 10,30" fill="#C62828" opacity="0.08"/><polygon points="490,10 470,10 490,30" fill="#1565C0" opacity="0.08"/><polygon points="10,340 30,340 10,320" fill="#F9A825" opacity="0.08"/><polygon points="490,340 470,340 490,320" fill="#2E7D32" opacity="0.08"/><circle cx="70" cy="15" r="4" fill="#C62828" opacity="0.1"/><circle cx="82" cy="15" r="4" fill="#1565C0" opacity="0.1"/><circle cx="94" cy="15" r="4" fill="#F9A825" opacity="0.1"/><circle cx="406" cy="15" r="4" fill="#C62828" opacity="0.1"/><circle cx="418" cy="15" r="4" fill="#1565C0" opacity="0.1"/><circle cx="430" cy="15" r="4" fill="#F9A825" opacity="0.1"/><text x="250" y="50" font-family="Arial,sans-serif" font-size="24" font-weight="bold" fill="#C62828" text-anchor="middle">Основы работы с текстом</text><text x="250" y="68" font-family="Arial,sans-serif" font-size="12" fill="#777" text-anchor="middle">Информатика - Урок 5</text><line x1="30" y1="78" x2="470" y2="78" stroke="#C62828" stroke-width="2" opacity="0.25"/><rect x="30" y="75" width="60" height="6" fill="#C62828" opacity="0.15" rx="1"/><rect x="410" y="75" width="60" height="6" fill="#1565C0" opacity="0.12" rx="1"/>
<!-- Text editor window -->
<rect x="60" y="90" width="300" height="210" rx="8" fill="white" stroke="#90A4AE" stroke-width="2"/>
<!-- Title bar -->
<rect x="60" y="90" width="300" height="28" rx="8" fill="#ECEFF1" stroke="#90A4AE" stroke-width="2"/>
<rect x="60" y="110" width="300" height="8" fill="#ECEFF1"/>
<circle cx="78" cy="104" r="5" fill="#EF5350"/><circle cx="94" cy="104" r="5" fill="#FFC107"/><circle cx="110" cy="104" r="5" fill="#66BB6A"/>
<text x="210" y="108" font-family="Arial,sans-serif" font-size="10" fill="#546E7A" text-anchor="middle">document.txt</text>
<!-- Menu bar -->
<rect x="60" y="118" width="300" height="20" fill="#FAFAFA" stroke="#CFD8DC" stroke-width="1"/>
<text x="80" y="132" font-family="Arial,sans-serif" font-size="9" fill="#546E7A">Файл</text>
<text x="115" y="132" font-family="Arial,sans-serif" font-size="9" fill="#546E7A">Правка</text>
<text x="155" y="132" font-family="Arial,sans-serif" font-size="9" fill="#546E7A">Вид</text>
<text x="185" y="132" font-family="Arial,sans-serif" font-size="9" fill="#546E7A">Вставка</text>
<text x="225" y="132" font-family="Arial,sans-serif" font-size="9" fill="#546E7A">Формат</text>
<!-- Toolbar -->
<rect x="60" y="138" width="300" height="22" fill="#FAFAFA" stroke="#CFD8DC" stroke-width="1"/>
<text x="75" y="153" font-family="Arial,sans-serif" font-size="12" fill="#333" font-weight="bold">B</text>
<text x="95" y="153" font-family="Arial,sans-serif" font-size="12" fill="#333" font-style="italic">I</text>
<text x="115" y="153" font-family="Arial,sans-serif" font-size="12" fill="#333" text-decoration="underline">U</text>
<line x1="135" y1="140" x2="135" y2="158" stroke="#ddd" stroke-width="1"/>
<text x="148" y="153" font-family="Arial,sans-serif" font-size="9" fill="#555">Аа</text>
<text x="170" y="153" font-family="Arial,sans-serif" font-size="9" fill="#555">14</text>
<!-- Ruler -->
<rect x="60" y="160" width="300" height="10" fill="#E8F5E9" stroke="#C8E6C9" stroke-width="1"/>
<text x="70" y="168" font-family="Arial,sans-serif" font-size="6" fill="#888">0</text>
<text x="110" y="168" font-family="Arial,sans-serif" font-size="6" fill="#888">2</text>
<text x="150" y="168" font-family="Arial,sans-serif" font-size="6" fill="#888">4</text>
<text x="190" y="168" font-family="Arial,sans-serif" font-size="6" fill="#888">6</text>
<text x="230" y="168" font-family="Arial,sans-serif" font-size="6" fill="#888">8</text>
<text x="270" y="168" font-family="Arial,sans-serif" font-size="6" fill="#888">10</text>
<!-- Text content area -->
<text x="75" y="185" font-family="Arial,sans-serif" font-size="10" fill="#333">Привет, мир!</text>
<text x="75" y="200" font-family="Arial,sans-serif" font-size="10" fill="#333">Это пример текста в</text>
<text x="75" y="215" font-family="Arial,sans-serif" font-size="10" fill="#333">текстовом редакторе.</text>
<text x="75" y="235" font-family="Arial,sans-serif" font-size="10" fill="#333">Текст состоит из символов,</text>
<text x="75" y="250" font-family="Arial,sans-serif" font-size="10" fill="#333">слов, предложений и</text>
<text x="75" y="265" font-family="Arial,sans-serif" font-size="10" fill="#333">абзацев.</text>
<!-- Cursor blink -->
<rect x="170" y="255" width="2" height="12" fill="#1565C0" opacity="0.8"/>
<!-- Keyboard hint -->
<rect x="375" y="90" width="110" height="210" rx="8" fill="white" stroke="#CFD8DC" stroke-width="1.5"/>
<text x="430" y="112" font-family="Arial,sans-serif" font-size="11" fill="#333" text-anchor="middle" font-weight="bold">Клавиши</text>
<line x1="385" y1="118" x2="475" y2="118" stroke="#eee" stroke-width="1"/>
<rect x="388" y="126" width="22" height="22" rx="4" fill="#ECEFF1" stroke="#B0BEC5" stroke-width="1.5"/>
<text x="399" y="141" font-family="Arial,sans-serif" font-size="9" fill="#555" text-anchor="middle">A</text>
<rect x="416" y="126" width="22" height="22" rx="4" fill="#ECEFF1" stroke="#B0BEC5" stroke-width="1.5"/>
<text x="427" y="141" font-family="Arial,sans-serif" font-size="9" fill="#555" text-anchor="middle">Б</text>
<rect x="444" y="126" width="22" height="22" rx="4" fill="#ECEFF1" stroke="#B0BEC5" stroke-width="1.5"/>
<text x="455" y="141" font-family="Arial,sans-serif" font-size="9" fill="#555" text-anchor="middle">В</text>
<rect x="388" y="154" width="22" height="22" rx="4" fill="#ECEFF1" stroke="#B0BEC5" stroke-width="1.5"/>
<text x="399" y="169" font-family="Arial,sans-serif" font-size="9" fill="#555" text-anchor="middle">Г</text>
<rect x="416" y="154" width="22" height="22" rx="4" fill="#ECEFF1" stroke="#B0BEC5" stroke-width="1.5"/>
<text x="427" y="169" font-family="Arial,sans-serif" font-size="9" fill="#555" text-anchor="middle">Д</text>
<rect x="444" y="154" width="22" height="22" rx="4" fill="#ECEFF1" stroke="#B0BEC5" stroke-width="1.5"/>
<text x="455" y="169" font-family="Arial,sans-serif" font-size="9" fill="#555" text-anchor="middle">Е</text>
<!-- Special keys -->
<rect x="388" y="190" width="78" height="20" rx="4" fill="#FFF3E0" stroke="#E65100" stroke-width="1"/>
<text x="427" y="204" font-family="Arial,sans-serif" font-size="8" fill="#E65100" text-anchor="middle">Пробел</text>
<rect x="388" y="216" width="34" height="18" rx="3" fill="#E8F5E9" stroke="#2E7D32" stroke-width="1"/>
<text x="405" y="228" font-family="Arial,sans-serif" font-size="7" fill="#2E7D32" text-anchor="middle">Enter</text>
<rect x="428" y="216" width="38" height="18" rx="3" fill="#FFEBEE" stroke="#C62828" stroke-width="1"/>
<text x="447" y="228" font-family="Arial,sans-serif" font-size="7" fill="#C62828" text-anchor="middle">Backsp</text>
<rect x="388" y="242" width="78" height="18" rx="3" fill="#E3F2FD" stroke="#1565C0" stroke-width="1"/>
<text x="427" y="254" font-family="Arial,sans-serif" font-size="8" fill="#1565C0" text-anchor="middle">Shift</text>
<rect x="388" y="268" width="78" height="18" rx="3" fill="#F3E5F5" stroke="#7B1FA2" stroke-width="1"/>
<text x="427" y="280" font-family="Arial,sans-serif" font-size="8" fill="#7B1FA2" text-anchor="middle">Ctrl / Alt</text>
<rect x="15" y="308" width="470" height="30" rx="4" fill="#C62828" opacity="0.85"/><text x="250" y="329" font-family="Arial,sans-serif" font-size="15" text-anchor="middle" fill="white" font-weight="bold">Основы работы с текстом</text></svg>