<?xml version='1.0' encoding='utf-8'?>
<svg xmlns="http://www.w3.org/2000/svg" width="800" height="600" viewBox="0 0 800 600">
  <rect width="800" height="600" fill="#0F172A" />
  <defs>
    <pattern id="grid" width="40" height="40" patternUnits="userSpaceOnUse">
      <path d="M 40 0 L 0 0 0 40" fill="none" stroke="#1E293B" stroke-width="0.5" />
    </pattern>
    <linearGradient id="topGrad" x1="0" y1="0" x2="0" y2="1">
      <stop offset="0%" stop-color="#0284C7" stop-opacity="0.15" />
      <stop offset="100%" stop-color="#0284C7" stop-opacity="0" />
    </linearGradient>
  </defs>
  <rect width="800" height="600" fill="url(#grid)" opacity="0.5" />
  <rect width="800" height="200" fill="url(#topGrad)" />
  <defs>
    <marker id="arrowhead" markerWidth="10" markerHeight="7" refX="10" refY="3.5" orient="auto">
      <polygon points="0 0, 10 3.5, 0 7" fill="#38BDF8" />
    </marker>
  </defs>
  <rect x="0" y="10" width="800" height="55" fill="#0369A1" opacity="0.9" />
  <rect x="0" y="65" width="800" height="3" fill="#38BDF8" />
  <text x="400" y="45" text-anchor="middle" font-family="Arial, sans-serif" font-size="22" font-weight="bold" fill="#F8FAFC">Моторы и драйверы</text>
  <text x="400" y="82" text-anchor="middle" font-family="Arial, sans-serif" font-size="12" fill="#94A3B8">Урок 6 — Приводные системы роботов</text>
  <rect x="20" y="90" width="245" height="260" rx="8" ry="8" fill="#1E293B" stroke="#334155" stroke-width="1" />
  <rect x="20" y="90" width="245" height="28" rx="8" ry="8" fill="#0369A1" />
  <rect x="20" y="110" width="245" height="8" fill="#0369A1" />
  <text x="142" y="109" text-anchor="middle" font-family="Arial, sans-serif" font-size="11" font-weight="bold" fill="#F8FAFC">DC Мотор</text>
  <text x="30" y="132" font-family="Arial, sans-serif" font-size="9" fill="#CBD5E1">• Постоянного тока</text>
  <text x="30" y="146" font-family="Arial, sans-serif" font-size="9" fill="#CBD5E1">• Простое управление</text>
  <text x="30" y="160" font-family="Arial, sans-serif" font-size="9" fill="#CBD5E1">• Высокие обороты</text>
  <text x="30" y="178" font-family="Consolas, monospace" font-size="8" fill="#38BDF8">3-12В, до 10000 об/мин</text>
  <rect x="25" y="188" width="235" height="150" rx="4" ry="4" fill="#0D1117" stroke="#334155" stroke-width="1" />
  <rect x="25" y="188" width="235" height="20" rx="4" ry="4" fill="#161B22" />
  <rect x="25" y="204" width="235" height="4" fill="#161B22" />
  <circle cx="39" cy="198" r="4" fill="#EF4444" />
  <circle cx="55" cy="198" r="4" fill="#F59E0B" />
  <circle cx="71" cy="198" r="4" fill="#22C55E" />
  <text x="37" y="222" font-family="Consolas, monospace" font-size="10" fill="#06B6D4">// Направление вращения</text>
  <text x="37" y="237" font-family="Consolas, monospace" font-size="10" fill="#06B6D4">digitalWrite(in1, HIGH);</text>
  <text x="37" y="252" font-family="Consolas, monospace" font-size="10" fill="#06B6D4">digitalWrite(in2, LOW);</text>
  <text x="37" y="267" font-family="Consolas, monospace" font-size="10" fill="#06B6D4">// Скорость (PWM)</text>
  <text x="37" y="282" font-family="Consolas, monospace" font-size="10" fill="#06B6D4">analogWrite(enA, 200);</text>
  <rect x="280" y="90" width="245" height="260" rx="8" ry="8" fill="#1E293B" stroke="#334155" stroke-width="1" />
  <rect x="280" y="90" width="245" height="28" rx="8" ry="8" fill="#0369A1" />
  <rect x="280" y="110" width="245" height="8" fill="#0369A1" />
  <text x="402" y="109" text-anchor="middle" font-family="Arial, sans-serif" font-size="11" font-weight="bold" fill="#F8FAFC">Сервопривод</text>
  <text x="290" y="132" font-family="Arial, sans-serif" font-size="9" fill="#CBD5E1">• Точный угол поворота</text>
  <text x="290" y="146" font-family="Arial, sans-serif" font-size="9" fill="#CBD5E1">• 0-180° (обычно)</text>
  <text x="290" y="160" font-family="Arial, sans-serif" font-size="9" fill="#CBD5E1">• Встроенный контроллер</text>
  <text x="290" y="178" font-family="Consolas, monospace" font-size="8" fill="#F59E0B">4.8-6В, крутящий момент 1.8 кг·см</text>
  <rect x="285" y="188" width="235" height="150" rx="4" ry="4" fill="#0D1117" stroke="#334155" stroke-width="1" />
  <rect x="285" y="188" width="235" height="20" rx="4" ry="4" fill="#161B22" />
  <rect x="285" y="204" width="235" height="4" fill="#161B22" />
  <circle cx="299" cy="198" r="4" fill="#EF4444" />
  <circle cx="315" cy="198" r="4" fill="#F59E0B" />
  <circle cx="331" cy="198" r="4" fill="#22C55E" />
  <text x="297" y="222" font-family="Consolas, monospace" font-size="10" fill="#06B6D4">#include &amp;lt;Servo.h&amp;gt;</text>
  <text x="297" y="237" font-family="Consolas, monospace" font-size="10" fill="#06B6D4">Servo myservo;</text>
  <text x="297" y="252" font-family="Consolas, monospace" font-size="10" fill="#06B6D4">myservo.attach(9);</text>
  <text x="297" y="267" font-family="Consolas, monospace" font-size="10" fill="#06B6D4">myservo.write(90); // угол</text>
  <text x="297" y="282" font-family="Consolas, monospace" font-size="10" fill="#06B6D4">delay(1000);</text>
  <rect x="540" y="90" width="245" height="260" rx="8" ry="8" fill="#1E293B" stroke="#334155" stroke-width="1" />
  <rect x="540" y="90" width="245" height="28" rx="8" ry="8" fill="#0369A1" />
  <rect x="540" y="110" width="245" height="8" fill="#0369A1" />
  <text x="662" y="109" text-anchor="middle" font-family="Arial, sans-serif" font-size="11" font-weight="bold" fill="#F8FAFC">Шаговый мотор</text>
  <text x="550" y="132" font-family="Arial, sans-serif" font-size="9" fill="#CBD5E1">• Пошаговое вращение</text>
  <text x="550" y="146" font-family="Arial, sans-serif" font-size="9" fill="#CBD5E1">• Высокая точность</text>
  <text x="550" y="160" font-family="Arial, sans-serif" font-size="9" fill="#CBD5E1">• Удержание позиции</text>
  <text x="550" y="178" font-family="Consolas, monospace" font-size="8" fill="#A78BFA">5-12В, 1.8° на шаг</text>
  <rect x="545" y="188" width="235" height="150" rx="4" ry="4" fill="#0D1117" stroke="#334155" stroke-width="1" />
  <rect x="545" y="188" width="235" height="20" rx="4" ry="4" fill="#161B22" />
  <rect x="545" y="204" width="235" height="4" fill="#161B22" />
  <circle cx="559" cy="198" r="4" fill="#EF4444" />
  <circle cx="575" cy="198" r="4" fill="#F59E0B" />
  <circle cx="591" cy="198" r="4" fill="#22C55E" />
  <text x="557" y="222" font-family="Consolas, monospace" font-size="10" fill="#06B6D4">#include &amp;lt;Stepper.h&amp;gt;</text>
  <text x="557" y="237" font-family="Consolas, monospace" font-size="10" fill="#06B6D4">Stepper s(2048,8,10,9,11);</text>
  <text x="557" y="252" font-family="Consolas, monospace" font-size="10" fill="#06B6D4">s.setSpeed(10);</text>
  <text x="557" y="267" font-family="Consolas, monospace" font-size="10" fill="#06B6D4">s.step(512);</text>
  <text x="557" y="282" font-family="Consolas, monospace" font-size="10" fill="#06B6D4">// 512 шагов = 90°</text>
  <rect x="20" y="365" width="380" height="210" rx="8" ry="8" fill="#1E293B" stroke="#334155" stroke-width="1" />
  <rect x="20" y="365" width="380" height="28" rx="8" ry="8" fill="#0369A1" />
  <rect x="20" y="385" width="380" height="8" fill="#0369A1" />
  <text x="210" y="384" text-anchor="middle" font-family="Arial, sans-serif" font-size="11" font-weight="bold" fill="#F8FAFC">H-мост (L298N)</text>
  <rect x="80" y="405" width="40" height="20" rx="3" fill="#0D1117" stroke="#38BDF8" stroke-width="1.5" />
  <text x="100" y="419" text-anchor="middle" font-family="Consolas, monospace" font-size="9" fill="#38BDF8">S1</text>
  <rect x="260" y="405" width="40" height="20" rx="3" fill="#0D1117" stroke="#38BDF8" stroke-width="1.5" />
  <text x="280" y="419" text-anchor="middle" font-family="Consolas, monospace" font-size="9" fill="#38BDF8">S2</text>
  <rect x="80" y="510" width="40" height="20" rx="3" fill="#0D1117" stroke="#06B6D4" stroke-width="1.5" />
  <text x="100" y="524" text-anchor="middle" font-family="Consolas, monospace" font-size="9" fill="#06B6D4">S3</text>
  <rect x="260" y="510" width="40" height="20" rx="3" fill="#0D1117" stroke="#06B6D4" stroke-width="1.5" />
  <text x="280" y="524" text-anchor="middle" font-family="Consolas, monospace" font-size="9" fill="#06B6D4">S4</text>
  <circle cx="190" cy="467" r="22" fill="none" stroke="#F59E0B" stroke-width="2" />
  <text x="190" y="462" text-anchor="middle" font-family="Arial, sans-serif" font-size="8" fill="#F59E0B">M</text>
  <text x="190" y="474" text-anchor="middle" font-family="Arial, sans-serif" font-size="7" fill="#94A3B8">Motor</text>
  <text x="50" y="398" font-family="Consolas, monospace" font-size="9" fill="#EF4444">VCC +</text>
  <text x="50" y="535" font-family="Consolas, monospace" font-size="9" fill="#38BDF8">GND −</text>
  <line x1="100" y1="415" x2="168" y2="445" stroke="#334155" stroke-width="1.5" />
  <line x1="280" y1="415" x2="212" y2="445" stroke="#334155" stroke-width="1.5" />
  <line x1="100" y1="510" x2="168" y2="489" stroke="#334155" stroke-width="1.5" />
  <line x1="280" y1="510" x2="212" y2="489" stroke="#334155" stroke-width="1.5" />
  <text x="340" y="400" font-family="Arial, sans-serif" font-size="8" fill="#94A3B8">S1+S4 → вперёд</text>
  <text x="340" y="415" font-family="Arial, sans-serif" font-size="8" fill="#94A3B8">S2+S3 → назад</text>
  <text x="340" y="430" font-family="Arial, sans-serif" font-size="8" fill="#EF4444">S1+S2 → КЗ! ✗</text>
  <text x="340" y="445" font-family="Arial, sans-serif" font-size="8" fill="#EF4444">S3+S4 → КЗ! ✗</text>
  <rect x="420" y="365" width="360" height="210" rx="8" ry="8" fill="#1E293B" stroke="#334155" stroke-width="1" />
  <rect x="420" y="365" width="360" height="28" rx="8" ry="8" fill="#0369A1" />
  <rect x="420" y="385" width="360" height="8" fill="#0369A1" />
  <text x="600" y="384" text-anchor="middle" font-family="Arial, sans-serif" font-size="11" font-weight="bold" fill="#F8FAFC">ШИМ (PWM) — Управление скоростью</text>
  <text x="435" y="410" font-family="Consolas, monospace" font-size="10" fill="#F59E0B">25%</text>
  <rect x="480" y="398" width="280" height="30" fill="#0D1117" rx="3" />
  <rect x="485" y="400" width="8" height="12" fill="#06B6D4" opacity="0.6" />
  <line x1="485" y1="400" x2="493" y2="400" stroke="#06B6D4" stroke-width="1.5" />
  <line x1="493" y1="400" x2="493" y2="412" stroke="#06B6D4" stroke-width="1" />
  <line x1="493" y1="412" x2="520" y2="412" stroke="#06B6D4" stroke-width="1.5" />
  <rect x="520" y="400" width="8" height="12" fill="#06B6D4" opacity="0.6" />
  <line x1="520" y1="400" x2="528" y2="400" stroke="#06B6D4" stroke-width="1.5" />
  <line x1="528" y1="400" x2="528" y2="412" stroke="#06B6D4" stroke-width="1" />
  <line x1="528" y1="412" x2="555" y2="412" stroke="#06B6D4" stroke-width="1.5" />
  <rect x="555" y="400" width="8" height="12" fill="#06B6D4" opacity="0.6" />
  <line x1="555" y1="400" x2="563" y2="400" stroke="#06B6D4" stroke-width="1.5" />
  <line x1="563" y1="400" x2="563" y2="412" stroke="#06B6D4" stroke-width="1" />
  <line x1="563" y1="412" x2="590" y2="412" stroke="#06B6D4" stroke-width="1.5" />
  <rect x="590" y="400" width="8" height="12" fill="#06B6D4" opacity="0.6" />
  <line x1="590" y1="400" x2="598" y2="400" stroke="#06B6D4" stroke-width="1.5" />
  <line x1="598" y1="400" x2="598" y2="412" stroke="#06B6D4" stroke-width="1" />
  <line x1="598" y1="412" x2="625" y2="412" stroke="#06B6D4" stroke-width="1.5" />
  <rect x="625" y="400" width="8" height="12" fill="#06B6D4" opacity="0.6" />
  <line x1="625" y1="400" x2="633" y2="400" stroke="#06B6D4" stroke-width="1.5" />
  <line x1="633" y1="400" x2="633" y2="412" stroke="#06B6D4" stroke-width="1" />
  <line x1="633" y1="412" x2="660" y2="412" stroke="#06B6D4" stroke-width="1.5" />
  <rect x="660" y="400" width="8" height="12" fill="#06B6D4" opacity="0.6" />
  <line x1="660" y1="400" x2="668" y2="400" stroke="#06B6D4" stroke-width="1.5" />
  <line x1="668" y1="400" x2="668" y2="412" stroke="#06B6D4" stroke-width="1" />
  <line x1="668" y1="412" x2="695" y2="412" stroke="#06B6D4" stroke-width="1.5" />
  <rect x="695" y="400" width="8" height="12" fill="#06B6D4" opacity="0.6" />
  <line x1="695" y1="400" x2="703" y2="400" stroke="#06B6D4" stroke-width="1.5" />
  <line x1="703" y1="400" x2="703" y2="412" stroke="#06B6D4" stroke-width="1" />
  <line x1="703" y1="412" x2="730" y2="412" stroke="#06B6D4" stroke-width="1.5" />
  <text x="770" y="410" font-family="Consolas, monospace" font-size="8" fill="#94A3B8">= 75/255</text>
  <text x="435" y="465" font-family="Consolas, monospace" font-size="10" fill="#F59E0B">50%</text>
  <rect x="480" y="453" width="280" height="30" fill="#0D1117" rx="3" />
  <rect x="485" y="455" width="17" height="12" fill="#06B6D4" opacity="0.6" />
  <line x1="485" y1="455" x2="502" y2="455" stroke="#06B6D4" stroke-width="1.5" />
  <line x1="502" y1="455" x2="502" y2="467" stroke="#06B6D4" stroke-width="1" />
  <line x1="502" y1="467" x2="520" y2="467" stroke="#06B6D4" stroke-width="1.5" />
  <rect x="520" y="455" width="17" height="12" fill="#06B6D4" opacity="0.6" />
  <line x1="520" y1="455" x2="537" y2="455" stroke="#06B6D4" stroke-width="1.5" />
  <line x1="537" y1="455" x2="537" y2="467" stroke="#06B6D4" stroke-width="1" />
  <line x1="537" y1="467" x2="555" y2="467" stroke="#06B6D4" stroke-width="1.5" />
  <rect x="555" y="455" width="17" height="12" fill="#06B6D4" opacity="0.6" />
  <line x1="555" y1="455" x2="572" y2="455" stroke="#06B6D4" stroke-width="1.5" />
  <line x1="572" y1="455" x2="572" y2="467" stroke="#06B6D4" stroke-width="1" />
  <line x1="572" y1="467" x2="590" y2="467" stroke="#06B6D4" stroke-width="1.5" />
  <rect x="590" y="455" width="17" height="12" fill="#06B6D4" opacity="0.6" />
  <line x1="590" y1="455" x2="607" y2="455" stroke="#06B6D4" stroke-width="1.5" />
  <line x1="607" y1="455" x2="607" y2="467" stroke="#06B6D4" stroke-width="1" />
  <line x1="607" y1="467" x2="625" y2="467" stroke="#06B6D4" stroke-width="1.5" />
  <rect x="625" y="455" width="17" height="12" fill="#06B6D4" opacity="0.6" />
  <line x1="625" y1="455" x2="642" y2="455" stroke="#06B6D4" stroke-width="1.5" />
  <line x1="642" y1="455" x2="642" y2="467" stroke="#06B6D4" stroke-width="1" />
  <line x1="642" y1="467" x2="660" y2="467" stroke="#06B6D4" stroke-width="1.5" />
  <rect x="660" y="455" width="17" height="12" fill="#06B6D4" opacity="0.6" />
  <line x1="660" y1="455" x2="677" y2="455" stroke="#06B6D4" stroke-width="1.5" />
  <line x1="677" y1="455" x2="677" y2="467" stroke="#06B6D4" stroke-width="1" />
  <line x1="677" y1="467" x2="695" y2="467" stroke="#06B6D4" stroke-width="1.5" />
  <rect x="695" y="455" width="17" height="12" fill="#06B6D4" opacity="0.6" />
  <line x1="695" y1="455" x2="712" y2="455" stroke="#06B6D4" stroke-width="1.5" />
  <line x1="712" y1="455" x2="712" y2="467" stroke="#06B6D4" stroke-width="1" />
  <line x1="712" y1="467" x2="730" y2="467" stroke="#06B6D4" stroke-width="1.5" />
  <text x="770" y="465" font-family="Consolas, monospace" font-size="8" fill="#94A3B8">= 150/255</text>
  <text x="435" y="520" font-family="Consolas, monospace" font-size="10" fill="#F59E0B">75%</text>
  <rect x="480" y="508" width="280" height="30" fill="#0D1117" rx="3" />
  <rect x="485" y="510" width="26" height="12" fill="#06B6D4" opacity="0.6" />
  <line x1="485" y1="510" x2="511" y2="510" stroke="#06B6D4" stroke-width="1.5" />
  <line x1="511" y1="510" x2="511" y2="522" stroke="#06B6D4" stroke-width="1" />
  <line x1="511" y1="522" x2="520" y2="522" stroke="#06B6D4" stroke-width="1.5" />
  <rect x="520" y="510" width="26" height="12" fill="#06B6D4" opacity="0.6" />
  <line x1="520" y1="510" x2="546" y2="510" stroke="#06B6D4" stroke-width="1.5" />
  <line x1="546" y1="510" x2="546" y2="522" stroke="#06B6D4" stroke-width="1" />
  <line x1="546" y1="522" x2="555" y2="522" stroke="#06B6D4" stroke-width="1.5" />
  <rect x="555" y="510" width="26" height="12" fill="#06B6D4" opacity="0.6" />
  <line x1="555" y1="510" x2="581" y2="510" stroke="#06B6D4" stroke-width="1.5" />
  <line x1="581" y1="510" x2="581" y2="522" stroke="#06B6D4" stroke-width="1" />
  <line x1="581" y1="522" x2="590" y2="522" stroke="#06B6D4" stroke-width="1.5" />
  <rect x="590" y="510" width="26" height="12" fill="#06B6D4" opacity="0.6" />
  <line x1="590" y1="510" x2="616" y2="510" stroke="#06B6D4" stroke-width="1.5" />
  <line x1="616" y1="510" x2="616" y2="522" stroke="#06B6D4" stroke-width="1" />
  <line x1="616" y1="522" x2="625" y2="522" stroke="#06B6D4" stroke-width="1.5" />
  <rect x="625" y="510" width="26" height="12" fill="#06B6D4" opacity="0.6" />
  <line x1="625" y1="510" x2="651" y2="510" stroke="#06B6D4" stroke-width="1.5" />
  <line x1="651" y1="510" x2="651" y2="522" stroke="#06B6D4" stroke-width="1" />
  <line x1="651" y1="522" x2="660" y2="522" stroke="#06B6D4" stroke-width="1.5" />
  <rect x="660" y="510" width="26" height="12" fill="#06B6D4" opacity="0.6" />
  <line x1="660" y1="510" x2="686" y2="510" stroke="#06B6D4" stroke-width="1.5" />
  <line x1="686" y1="510" x2="686" y2="522" stroke="#06B6D4" stroke-width="1" />
  <line x1="686" y1="522" x2="695" y2="522" stroke="#06B6D4" stroke-width="1.5" />
  <rect x="695" y="510" width="26" height="12" fill="#06B6D4" opacity="0.6" />
  <line x1="695" y1="510" x2="721" y2="510" stroke="#06B6D4" stroke-width="1.5" />
  <line x1="721" y1="510" x2="721" y2="522" stroke="#06B6D4" stroke-width="1" />
  <line x1="721" y1="522" x2="730" y2="522" stroke="#06B6D4" stroke-width="1.5" />
  <text x="770" y="520" font-family="Consolas, monospace" font-size="8" fill="#94A3B8">= 225/255</text>
  <text x="435" y="560" font-family="Arial, sans-serif" font-size="9" fill="#CBD5E1">Скорость = (analogWrite / 255) × 100%</text>
</svg>
