<svg xmlns="http://www.w3.org/2000/svg" viewBox="0 0 500 350">
  <defs>
    <linearGradient id="bg" x1="0" y1="0" x2="0" y2="1">
      <stop offset="0%" stop-color="#E0F2F1"/>
      <stop offset="100%" stop-color="#F5FDFC"/>
    </linearGradient>
    <linearGradient id="panel" x1="0" y1="0" x2="1" y2="0">
      <stop offset="0%" stop-color="#00695C"/>
      <stop offset="100%" stop-color="#00897B"/>
    </linearGradient>
  </defs>
  <rect width="500" height="350" fill="url(#bg)" rx="10"/>
  <rect x="3" y="3" width="494" height="344" rx="8" fill="none" stroke="#00695C" stroke-width="2.5"/>
  <rect x="8" y="8" width="484" height="334" rx="6" fill="none" stroke="#00695C" stroke-width="1" opacity="0.3"/>
  <polygon points="10,10 30,10 10,30" fill="#00695C" opacity="0.12"/>
  <polygon points="490,10 470,10 490,30" fill="#00897B" opacity="0.12"/>
  <polygon points="10,340 30,340 10,320" fill="#26A69A" opacity="0.12"/>
  <polygon points="490,340 470,340 490,320" fill="#004D40" opacity="0.12"/>
  <text x="250" y="46" font-family="Arial,sans-serif" font-size="22" font-weight="bold" fill="#00695C" text-anchor="middle">Познание</text>
  <text x="250" y="66" font-family="Arial,sans-serif" font-size="12" fill="#777" text-anchor="middle">Обществознание — Урок 2</text>
  <line x1="30" y1="76" x2="470" y2="76" stroke="#00695C" stroke-width="2" opacity="0.25"/>
  <rect x="30" y="73" width="60" height="5" fill="#00695C" opacity="0.18" rx="1"/>
  <rect x="410" y="73" width="60" height="5" fill="#00897B" opacity="0.12" rx="1"/>
  <clipPath id="ill"><rect x="15" y="83" width="470" height="217" rx="6"/></clipPath>
  <g clip-path="url(#ill)">
  <rect x="15" y="83" width="470" height="217" fill="#E0F2F1"/>
  
    <!-- Definition -->
    <rect x="25" y="90" width="450" height="35" rx="5" fill="#00695C" opacity="0.1" stroke="#00695C" stroke-width="1"/>
    <text x="250" y="107" font-family="Arial,sans-serif" font-size="10" fill="#004D40" text-anchor="middle" font-weight="bold">Познание — процесс приобретения и развития знаний об окружающем мире</text>

    <!-- Two types of cognition -->
    <rect x="25" y="132" width="145" height="150" rx="6" fill="white" stroke="#00897B" stroke-width="1.5"/>
    <rect x="25" y="132" width="145" height="22" rx="6" fill="#00897B"/>
    <text x="97" y="148" font-family="Arial,sans-serif" font-size="11" fill="white" text-anchor="middle" font-weight="bold">Чувственное</text>
    <text x="35" y="172" font-family="Arial,sans-serif" font-size="9" fill="#004D40" font-weight="bold">Ощущение</text>
    <text x="35" y="183" font-family="Arial,sans-serif" font-size="8" fill="#666">отражение отдельных свойств</text>
    <text x="35" y="198" font-family="Arial,sans-serif" font-size="9" fill="#004D40" font-weight="bold">Восприятие</text>
    <text x="35" y="209" font-family="Arial,sans-serif" font-size="8" fill="#666">целостный образ предмета</text>
    <text x="35" y="224" font-family="Arial,sans-serif" font-size="9" fill="#004D40" font-weight="bold">Представление</text>
    <text x="35" y="235" font-family="Arial,sans-serif" font-size="8" fill="#666">образ без воздействия</text>
    <text x="35" y="255" font-family="Arial,sans-serif" font-size="9" fill="#00897B" font-style="italic">Пример: запах цветка</text>
    <text x="35" y="268" font-family="Arial,sans-serif" font-size="9" fill="#00897B" font-style="italic">Пример: образ дома</text>

    <rect x="180" y="132" width="145" height="150" rx="6" fill="white" stroke="#00695C" stroke-width="1.5"/>
    <rect x="180" y="132" width="145" height="22" rx="6" fill="#00695C"/>
    <text x="252" y="148" font-family="Arial,sans-serif" font-size="11" fill="white" text-anchor="middle" font-weight="bold">Рациональное</text>
    <text x="190" y="172" font-family="Arial,sans-serif" font-size="9" fill="#004D40" font-weight="bold">Понятие</text>
    <text x="190" y="183" font-family="Arial,sans-serif" font-size="8" fill="#666">существенные признаки</text>
    <text x="190" y="198" font-family="Arial,sans-serif" font-size="9" fill="#004D40" font-weight="bold">Суждение</text>
    <text x="190" y="209" font-family="Arial,sans-serif" font-size="8" fill="#666">утверждение/отрицание</text>
    <text x="190" y="224" font-family="Arial,sans-serif" font-size="9" fill="#004D40" font-weight="bold">Умозаключение</text>
    <text x="190" y="235" font-family="Arial,sans-serif" font-size="8" fill="#666">вывод из суждений</text>
    <text x="190" y="255" font-family="Arial,sans-serif" font-size="9" fill="#00695C" font-style="italic">Пример: понятие «дерево»</text>
    <text x="190" y="268" font-family="Arial,sans-serif" font-size="9" fill="#00695C" font-style="italic">Пример: силлогизм</text>

    <rect x="335" y="132" width="140" height="150" rx="6" fill="white" stroke="#26A69A" stroke-width="1.5"/>
    <rect x="335" y="132" width="140" height="22" rx="6" fill="#26A69A"/>
    <text x="405" y="148" font-family="Arial,sans-serif" font-size="11" fill="white" text-anchor="middle" font-weight="bold">Виды истины</text>
    <circle cx="350" cy="172" r="4" fill="#00897B"/>
    <text x="358" y="176" font-family="Arial,sans-serif" font-size="9" fill="#004D40">Абсолютная истина</text>
    <circle cx="350" cy="192" r="4" fill="#00897B"/>
    <text x="358" y="196" font-family="Arial,sans-serif" font-size="9" fill="#004D40">Относительная истина</text>
    <circle cx="350" cy="212" r="4" fill="#00897B"/>
    <text x="358" y="216" font-family="Arial,sans-serif" font-size="9" fill="#004D40">Объективная истина</text>
    <line x1="345" y1="230" x2="465" y2="230" stroke="#26A69A" stroke-width="1" opacity="0.4"/>
    <text x="405" y="248" font-family="Arial,sans-serif" font-size="9" fill="#004D40" font-weight="bold">Критерии истины:</text>
    <text x="405" y="262" font-family="Arial,sans-serif" font-size="9" fill="#004D40">Практика, логика, опыт</text>
  </g>
  <rect x="12" y="305" width="476" height="32" rx="5" fill="url(#panel)"/>
  <line x1="20" y1="308" x2="20" y2="334" stroke="#26A69A" stroke-width="1.5" opacity="0.6"/>
  <line x1="480" y1="308" x2="480" y2="334" stroke="#26A69A" stroke-width="1.5" opacity="0.6"/>
  <text x="250" y="326" font-family="Arial,sans-serif" font-size="14" text-anchor="middle" fill="white" font-weight="bold">Обществознание · 11 класс</text>
</svg>