<svg xmlns="http://www.w3.org/2000/svg" viewBox="0 0 500 350">
  <defs>
    <linearGradient id="hdr14" x1="0%" y1="0%" x2="100%" y2="0%">
      <stop offset="0%" style="stop-color:#C62828;stop-opacity:1"/>
      <stop offset="100%" style="stop-color:#EF5350;stop-opacity:1"/>
    </linearGradient>
    <linearGradient id="bg14" x1="0%" y1="0%" x2="0%" y2="100%">
      <stop offset="0%" style="stop-color:#FFEBEE;stop-opacity:1"/>
      <stop offset="100%" style="stop-color:#FFCDD2;stop-opacity:1"/>
    </linearGradient>
    <linearGradient id="card14" x1="0%" y1="0%" x2="0%" y2="100%">
      <stop offset="0%" style="stop-color:#FFFFFF;stop-opacity:0.85"/>
      <stop offset="100%" style="stop-color:#FFFFFF;stop-opacity:0.65"/>
    </linearGradient>
    <filter id="sh14" x="-3%" y="-3%" width="106%" height="112%">
      <feDropShadow dx="1" dy="2" stdDeviation="3" flood-color="#000" flood-opacity="0.12"/>
    </filter>
    <filter id="glow14" x="-10%" y="-10%" width="120%" height="120%">
      <feGaussianBlur stdDeviation="2" result="blur"/>
      <feMerge><feMergeNode in="blur"/><feMergeNode in="SourceGraphic"/></feMerge>
    </filter>
  </defs>
<rect width="500" height="350" fill="url(#bg14)"/>
<circle cx="0" cy="0" r="60" fill="#EF5350" opacity="0.04"/>
<circle cx="500" cy="350" r="80" fill="#EF5350" opacity="0.04"/>
<circle cx="500" cy="0" r="40" fill="#C62828" opacity="0.03"/>
<rect x="2" y="2" width="496" height="346" rx="12" ry="12" fill="none" stroke="#EF5350" stroke-width="2.5" opacity="0.5"/>
<rect x="3" y="3" width="494" height="44" rx="10" ry="10" fill="url(#hdr14)"/>
<rect x="3" y="37" width="494" height="10" fill="url(#hdr14)"/>
<circle cx="28" cy="25" r="15" fill="#FFFFFF" opacity="0.25"/>
<circle cx="28" cy="25" r="12" fill="#FFFFFF" opacity="0.15"/>
<text x="28" y="29" font-family="Arial,sans-serif" font-size="14" font-weight="bold" fill="#FFFFFF" text-anchor="middle">14</text>
<text x="250" y="22" font-family="Arial,sans-serif" font-size="13" font-weight="bold" fill="#FFFFFF" text-anchor="middle">Переломы и транспортная иммобилизация</text>
<text x="250" y="38" font-family="Arial,sans-serif" font-size="10" fill="#FFEBEE" text-anchor="middle">ОБЖ — Урок 14</text>
<line x1="10" y1="50" x2="490" y2="50" stroke="#EF5350" stroke-width="0.5" opacity="0.3"/>
<rect x="3" y="335" width="494" height="12" rx="0" ry="0" fill="#C62828" opacity="0.08"/>
<text x="250" y="344" font-family="Arial,sans-serif" font-size="7" fill="#C62828" text-anchor="middle" opacity="0.5">9 класс — Основы безопасности жизнедеятельности</text>
<line x1="462" y1="66" x2="462" y2="90" stroke="#EF5350" stroke-width="5" stroke-linecap="round" opacity="0.4"/>
<circle cx="462" cy="66" r="4" fill="#EF5350" opacity="0.35"/>
<circle cx="462" cy="90" r="4" fill="#EF5350" opacity="0.35"/>
<rect x="12" y="55" width="230" height="120" rx="8" ry="8" fill="url(#card14)" filter="url(#sh14)"/>
<rect x="12" y="55" width="230" height="120" rx="8" ry="8" fill="none" stroke="#EF5350" stroke-width="0.5" opacity="0.2"/>
<rect x="16" y="58" width="222" height="20" rx="4" ry="4" fill="#C62828" opacity="0.12"/>
<text x="127" y="72" font-family="Arial,sans-serif" font-size="10" font-weight="bold" fill="#C62828" text-anchor="middle">Виды переломов</text>
<line x1="22" y1="80" x2="232" y2="80" stroke="#C62828" stroke-width="0.5" opacity="0.2"/>
<circle cx="26" cy="89" r="3" fill="#D32F2F" opacity="0.7"/>
<text x="36" y="92" font-family="Arial,sans-serif" font-size="9" fill="#333333">Закрытый — кожа не повреждена</text>
<circle cx="26" cy="104" r="3" fill="#D32F2F" opacity="0.7"/>
<text x="36" y="107" font-family="Arial,sans-serif" font-size="9" fill="#333333">Открытый — кость видна в ране!</text>
<circle cx="26" cy="119" r="3" fill="#D32F2F" opacity="0.7"/>
<text x="36" y="122" font-family="Arial,sans-serif" font-size="9" fill="#333333">Со смещением — фрагменты сдвинуты</text>
<circle cx="26" cy="134" r="3" fill="#D32F2F" opacity="0.7"/>
<text x="36" y="137" font-family="Arial,sans-serif" font-size="9" fill="#333333">Без смещения — ось кости сохранена</text>
<circle cx="26" cy="149" r="3" fill="#D32F2F" opacity="0.7"/>
<text x="36" y="152" font-family="Arial,sans-serif" font-size="9" fill="#333333">Оскольчатый — множество фрагментов</text>
<rect x="250" y="55" width="238" height="120" rx="8" ry="8" fill="url(#card14)" filter="url(#sh14)"/>
<rect x="250" y="55" width="238" height="120" rx="8" ry="8" fill="none" stroke="#EF5350" stroke-width="0.5" opacity="0.2"/>
<rect x="254" y="58" width="230" height="20" rx="4" ry="4" fill="#C62828" opacity="0.12"/>
<text x="369" y="72" font-family="Arial,sans-serif" font-size="10" font-weight="bold" fill="#C62828" text-anchor="middle">Признаки перелома</text>
<line x1="260" y1="80" x2="478" y2="80" stroke="#C62828" stroke-width="0.5" opacity="0.2"/>
<circle cx="264" cy="89" r="3" fill="#D32F2F" opacity="0.7"/>
<text x="274" y="92" font-family="Arial,sans-serif" font-size="9" fill="#333333">Сильная боль при малейшем движении</text>
<circle cx="264" cy="104" r="3" fill="#D32F2F" opacity="0.7"/>
<text x="274" y="107" font-family="Arial,sans-serif" font-size="9" fill="#333333">Отёк и видимая деформация конечности</text>
<circle cx="264" cy="119" r="3" fill="#D32F2F" opacity="0.7"/>
<text x="274" y="122" font-family="Arial,sans-serif" font-size="9" fill="#333333">Патологическая подвижность вне сустава</text>
<circle cx="264" cy="134" r="3" fill="#D32F2F" opacity="0.7"/>
<text x="274" y="137" font-family="Arial,sans-serif" font-size="9" fill="#333333">Крепитация (хруст костных фрагментов)</text>
<circle cx="264" cy="149" r="3" fill="#D32F2F" opacity="0.7"/>
<text x="274" y="152" font-family="Arial,sans-serif" font-size="9" fill="#333333">Укорочение или искривление конечности</text>
<line x1="15" y1="180" x2="485" y2="180" stroke="#EF5350" stroke-width="0.4" opacity="0.15" stroke-dasharray="4,3"/>
<rect x="12" y="188" width="230" height="140" rx="8" ry="8" fill="url(#card14)" filter="url(#sh14)"/>
<rect x="12" y="188" width="230" height="140" rx="8" ry="8" fill="none" stroke="#EF5350" stroke-width="0.5" opacity="0.2"/>
<rect x="16" y="191" width="222" height="20" rx="4" ry="4" fill="#C62828" opacity="0.12"/>
<text x="127" y="205" font-family="Arial,sans-serif" font-size="10" font-weight="bold" fill="#C62828" text-anchor="middle">Транспортная иммобилизация</text>
<line x1="22" y1="213" x2="232" y2="213" stroke="#C62828" stroke-width="0.5" opacity="0.2"/>
<circle cx="26" cy="222" r="3" fill="#D32F2F" opacity="0.7"/>
<text x="36" y="225" font-family="Arial,sans-serif" font-size="9" fill="#333333">Шина Крамера — проволочная лестничная</text>
<circle cx="26" cy="237" r="3" fill="#D32F2F" opacity="0.7"/>
<text x="36" y="240" font-family="Arial,sans-serif" font-size="9" fill="#333333">Шина Дитерихса — для перелома бедра</text>
<circle cx="26" cy="252" r="3" fill="#D32F2F" opacity="0.7"/>
<text x="36" y="255" font-family="Arial,sans-serif" font-size="9" fill="#333333">Подручные: доски, палки, картон, зонт</text>
<circle cx="26" cy="267" r="3" fill="#D32F2F" opacity="0.7"/>
<text x="36" y="270" font-family="Arial,sans-serif" font-size="9" fill="#333333">Зафиксировать 2 сустава: выше и ниже</text>
<circle cx="26" cy="282" r="3" fill="#D32F2F" opacity="0.7"/>
<text x="36" y="285" font-family="Arial,sans-serif" font-size="9" fill="#333333">Бедро — 3 сустава (таз, колено, голеностоп)</text>
<circle cx="26" cy="297" r="3" fill="#D32F2F" opacity="0.7"/>
<text x="36" y="300" font-family="Arial,sans-serif" font-size="9" fill="#333333">Подложить мягкий валик под шину</text>
<circle cx="26" cy="312" r="3" fill="#D32F2F" opacity="0.7"/>
<text x="36" y="315" font-family="Arial,sans-serif" font-size="9" fill="#333333">Не снимать одежду при закрытом переломе</text>
<rect x="250" y="188" width="238" height="140" rx="8" ry="8" fill="url(#card14)" filter="url(#sh14)"/>
<rect x="250" y="188" width="238" height="140" rx="8" ry="8" fill="none" stroke="#EF5350" stroke-width="0.5" opacity="0.2"/>
<rect x="254" y="191" width="230" height="20" rx="4" ry="4" fill="#C62828" opacity="0.12"/>
<text x="369" y="205" font-family="Arial,sans-serif" font-size="10" font-weight="bold" fill="#C62828" text-anchor="middle">Первая помощь при переломе</text>
<line x1="260" y1="213" x2="478" y2="213" stroke="#C62828" stroke-width="0.5" opacity="0.2"/>
<circle cx="264" cy="222" r="3" fill="#D32F2F" opacity="0.7"/>
<text x="274" y="225" font-family="Arial,sans-serif" font-size="9" fill="#333333">Обезболить (анальгетик, если возможно)</text>
<circle cx="264" cy="237" r="3" fill="#D32F2F" opacity="0.7"/>
<text x="274" y="240" font-family="Arial,sans-serif" font-size="9" fill="#333333">Остановить кровотечение (открытый перелом)</text>
<circle cx="264" cy="252" r="3" fill="#D32F2F" opacity="0.7"/>
<text x="274" y="255" font-family="Arial,sans-serif" font-size="9" fill="#333333">Наложить стерильную повязку на рану</text>
<circle cx="264" cy="267" r="3" fill="#D32F2F" opacity="0.7"/>
<text x="274" y="270" font-family="Arial,sans-serif" font-size="9" fill="#333333">Иммобилизовать конечность шиной</text>
<circle cx="264" cy="282" r="3" fill="#D32F2F" opacity="0.7"/>
<text x="274" y="285" font-family="Arial,sans-serif" font-size="9" fill="#333333">Приложить холод к месту перелома</text>
<circle cx="264" cy="297" r="3" fill="#D32F2F" opacity="0.7"/>
<text x="274" y="300" font-family="Arial,sans-serif" font-size="9" fill="#333333">Вызвать скорую помощь: 103 или 112</text>
<circle cx="264" cy="312" r="3" fill="#D32F2F" opacity="0.7"/>
<text x="274" y="315" font-family="Arial,sans-serif" font-size="9" fill="#333333">Не пытайтесь вправить кость самостоятельно!</text>
</svg>