<svg xmlns="http://www.w3.org/2000/svg" viewBox="0 0 500 350">
  <defs>
    <linearGradient id="hdr8" x1="0%" y1="0%" x2="100%" y2="0%">
      <stop offset="0%" style="stop-color:#C62828;stop-opacity:1"/>
      <stop offset="100%" style="stop-color:#EF5350;stop-opacity:1"/>
    </linearGradient>
    <linearGradient id="bg8" x1="0%" y1="0%" x2="0%" y2="100%">
      <stop offset="0%" style="stop-color:#FFEBEE;stop-opacity:1"/>
      <stop offset="100%" style="stop-color:#FFCDD2;stop-opacity:1"/>
    </linearGradient>
    <linearGradient id="card8" x1="0%" y1="0%" x2="0%" y2="100%">
      <stop offset="0%" style="stop-color:#FFFFFF;stop-opacity:0.85"/>
      <stop offset="100%" style="stop-color:#FFFFFF;stop-opacity:0.65"/>
    </linearGradient>
    <filter id="sh8" x="-3%" y="-3%" width="106%" height="112%">
      <feDropShadow dx="1" dy="2" stdDeviation="3" flood-color="#000" flood-opacity="0.12"/>
    </filter>
    <filter id="glow8" x="-10%" y="-10%" width="120%" height="120%">
      <feGaussianBlur stdDeviation="2" result="blur"/>
      <feMerge><feMergeNode in="blur"/><feMergeNode in="SourceGraphic"/></feMerge>
    </filter>
  </defs>
<rect width="500" height="350" fill="url(#bg8)"/>
<circle cx="0" cy="0" r="60" fill="#EF5350" opacity="0.04"/>
<circle cx="500" cy="350" r="80" fill="#EF5350" opacity="0.04"/>
<circle cx="500" cy="0" r="40" fill="#C62828" opacity="0.03"/>
<rect x="2" y="2" width="496" height="346" rx="12" ry="12" fill="none" stroke="#EF5350" stroke-width="2.5" opacity="0.5"/>
<rect x="3" y="3" width="494" height="44" rx="10" ry="10" fill="url(#hdr8)"/>
<rect x="3" y="37" width="494" height="10" fill="url(#hdr8)"/>
<circle cx="28" cy="25" r="15" fill="#FFFFFF" opacity="0.25"/>
<circle cx="28" cy="25" r="12" fill="#FFFFFF" opacity="0.15"/>
<text x="28" y="29" font-family="Arial,sans-serif" font-size="14" font-weight="bold" fill="#FFFFFF" text-anchor="middle">8</text>
<text x="250" y="22" font-family="Arial,sans-serif" font-size="13" font-weight="bold" fill="#FFFFFF" text-anchor="middle">Наводнения и паводки</text>
<text x="250" y="38" font-family="Arial,sans-serif" font-size="10" fill="#FFEBEE" text-anchor="middle">ОБЖ — Урок 8</text>
<line x1="10" y1="50" x2="490" y2="50" stroke="#EF5350" stroke-width="0.5" opacity="0.3"/>
<rect x="3" y="335" width="494" height="12" rx="0" ry="0" fill="#C62828" opacity="0.08"/>
<text x="250" y="344" font-family="Arial,sans-serif" font-size="7" fill="#C62828" text-anchor="middle" opacity="0.5">9 класс — Основы безопасности жизнедеятельности</text>
<path d="M447,78 Q457,70 467,78 Q477,86 487,78" fill="none" stroke="#1565C0" stroke-width="2" opacity="0.5"/>
<path d="M447,88 Q457,80 467,88 Q477,96 487,88" fill="none" stroke="#1565C0" stroke-width="2" opacity="0.35"/>
<path d="M447,98 Q457,90 467,98 Q477,106 487,98" fill="none" stroke="#1565C0" stroke-width="2" opacity="0.2"/>
<rect x="12" y="55" width="230" height="115" rx="8" ry="8" fill="url(#card8)" filter="url(#sh8)"/>
<rect x="12" y="55" width="230" height="115" rx="8" ry="8" fill="none" stroke="#EF5350" stroke-width="0.5" opacity="0.2"/>
<rect x="16" y="58" width="222" height="20" rx="4" ry="4" fill="#C62828" opacity="0.12"/>
<text x="127" y="72" font-family="Arial,sans-serif" font-size="10" font-weight="bold" fill="#C62828" text-anchor="middle">Виды наводнений</text>
<line x1="22" y1="80" x2="232" y2="80" stroke="#C62828" stroke-width="0.5" opacity="0.2"/>
<circle cx="26" cy="89" r="3" fill="#D32F2F" opacity="0.7"/>
<text x="36" y="92" font-family="Arial,sans-serif" font-size="9" fill="#333333">Половодье — сезонное (весной)</text>
<circle cx="26" cy="104" r="3" fill="#D32F2F" opacity="0.7"/>
<text x="36" y="107" font-family="Arial,sans-serif" font-size="9" fill="#333333">Паводок — от ливней, быстрый подъём</text>
<circle cx="26" cy="119" r="3" fill="#D32F2F" opacity="0.7"/>
<text x="36" y="122" font-family="Arial,sans-serif" font-size="9" fill="#333333">Затор — ледяные пробки на реке</text>
<circle cx="26" cy="134" r="3" fill="#D32F2F" opacity="0.7"/>
<text x="36" y="137" font-family="Arial,sans-serif" font-size="9" fill="#333333">Зажор — подледный затор русла</text>
<circle cx="26" cy="149" r="3" fill="#D32F2F" opacity="0.7"/>
<text x="36" y="152" font-family="Arial,sans-serif" font-size="9" fill="#333333">Ветровой нагон — у морского побережья</text>
<rect x="250" y="55" width="238" height="115" rx="8" ry="8" fill="url(#card8)" filter="url(#sh8)"/>
<rect x="250" y="55" width="238" height="115" rx="8" ry="8" fill="none" stroke="#EF5350" stroke-width="0.5" opacity="0.2"/>
<rect x="254" y="58" width="230" height="20" rx="4" ry="4" fill="#C62828" opacity="0.12"/>
<text x="369" y="72" font-family="Arial,sans-serif" font-size="10" font-weight="bold" fill="#C62828" text-anchor="middle">Предупредительные признаки</text>
<line x1="260" y1="80" x2="478" y2="80" stroke="#C62828" stroke-width="0.5" opacity="0.2"/>
<circle cx="264" cy="89" r="3" fill="#D32F2F" opacity="0.7"/>
<text x="274" y="92" font-family="Arial,sans-serif" font-size="9" fill="#333333">Резкий подъём уровня воды в реке</text>
<circle cx="264" cy="104" r="3" fill="#D32F2F" opacity="0.7"/>
<text x="274" y="107" font-family="Arial,sans-serif" font-size="9" fill="#333333">Ливневые дожди несколько дней подряд</text>
<circle cx="264" cy="119" r="3" fill="#D32F2F" opacity="0.7"/>
<text x="274" y="122" font-family="Arial,sans-serif" font-size="9" fill="#333333">Предупреждения МЧС по ТВ и радио</text>
<circle cx="264" cy="134" r="3" fill="#D32F2F" opacity="0.7"/>
<text x="274" y="137" font-family="Arial,sans-serif" font-size="9" fill="#333333">Быстрое таяние снега в горах выше</text>
<circle cx="264" cy="149" r="3" fill="#D32F2F" opacity="0.7"/>
<text x="274" y="152" font-family="Arial,sans-serif" font-size="9" fill="#333333">Таяние льда на реках весной — опасно</text>
<line x1="15" y1="175" x2="485" y2="175" stroke="#EF5350" stroke-width="0.4" opacity="0.15" stroke-dasharray="4,3"/>
<rect x="12" y="182" width="230" height="145" rx="8" ry="8" fill="url(#card8)" filter="url(#sh8)"/>
<rect x="12" y="182" width="230" height="145" rx="8" ry="8" fill="none" stroke="#EF5350" stroke-width="0.5" opacity="0.2"/>
<rect x="16" y="185" width="222" height="20" rx="4" ry="4" fill="#C62828" opacity="0.12"/>
<text x="127" y="199" font-family="Arial,sans-serif" font-size="10" font-weight="bold" fill="#C62828" text-anchor="middle">Действия при наводнении</text>
<line x1="22" y1="207" x2="232" y2="207" stroke="#C62828" stroke-width="0.5" opacity="0.2"/>
<circle cx="26" cy="216" r="3" fill="#D32F2F" opacity="0.7"/>
<text x="36" y="219" font-family="Arial,sans-serif" font-size="9" fill="#333333">1. Отключите электричество и газ</text>
<circle cx="26" cy="231" r="3" fill="#D32F2F" opacity="0.7"/>
<text x="36" y="234" font-family="Arial,sans-serif" font-size="9" fill="#333333">2. Возьмите документы и запас еды</text>
<circle cx="26" cy="246" r="3" fill="#D32F2F" opacity="0.7"/>
<text x="36" y="249" font-family="Arial,sans-serif" font-size="9" fill="#333333">3. Поднимитесь на верхние этажи/чердак</text>
<circle cx="26" cy="261" r="3" fill="#D32F2F" opacity="0.7"/>
<text x="36" y="264" font-family="Arial,sans-serif" font-size="9" fill="#333333">4. Не пытайтесь плыть самостоятельно!</text>
<circle cx="26" cy="276" r="3" fill="#D32F2F" opacity="0.7"/>
<text x="36" y="279" font-family="Arial,sans-serif" font-size="9" fill="#333333">5. Дождитесь помощи спасателей МЧС</text>
<circle cx="26" cy="291" r="3" fill="#D32F2F" opacity="0.7"/>
<text x="36" y="294" font-family="Arial,sans-serif" font-size="9" fill="#333333">6. Сигнализируйте о себе (фонарь, ткань)</text>
<circle cx="26" cy="306" r="3" fill="#D32F2F" opacity="0.7"/>
<text x="36" y="309" font-family="Arial,sans-serif" font-size="9" fill="#333333">7. Не пейте загрязнённую воду!</text>
<rect x="250" y="182" width="238" height="145" rx="8" ry="8" fill="url(#card8)" filter="url(#sh8)"/>
<rect x="250" y="182" width="238" height="145" rx="8" ry="8" fill="none" stroke="#EF5350" stroke-width="0.5" opacity="0.2"/>
<rect x="254" y="185" width="230" height="20" rx="4" ry="4" fill="#C62828" opacity="0.12"/>
<text x="369" y="199" font-family="Arial,sans-serif" font-size="10" font-weight="bold" fill="#C62828" text-anchor="middle">После наводнения</text>
<line x1="260" y1="207" x2="478" y2="207" stroke="#C62828" stroke-width="0.5" opacity="0.2"/>
<circle cx="264" cy="216" r="3" fill="#D32F2F" opacity="0.7"/>
<text x="274" y="219" font-family="Arial,sans-serif" font-size="9" fill="#333333">Не возвращайтесь домой без разрешения</text>
<circle cx="264" cy="231" r="3" fill="#D32F2F" opacity="0.7"/>
<text x="274" y="234" font-family="Arial,sans-serif" font-size="9" fill="#333333">Не включайте электричество — проверка!</text>
<circle cx="264" cy="246" r="3" fill="#D32F2F" opacity="0.7"/>
<text x="274" y="249" font-family="Arial,sans-serif" font-size="9" fill="#333333">Осторожно: ямы, провалы, обрывы дорог</text>
<circle cx="264" cy="261" r="3" fill="#D32F2F" opacity="0.7"/>
<text x="274" y="264" font-family="Arial,sans-serif" font-size="9" fill="#333333">Не ешьте продукты из затопленных мест</text>
<circle cx="264" cy="276" r="3" fill="#D32F2F" opacity="0.7"/>
<text x="274" y="279" font-family="Arial,sans-serif" font-size="9" fill="#333333">Продезинфицируйте помещение полностью</text>
<circle cx="264" cy="291" r="3" fill="#D32F2F" opacity="0.7"/>
<text x="274" y="294" font-family="Arial,sans-serif" font-size="9" fill="#333333">Проверьте фундамент и конструкции дома</text>
<circle cx="264" cy="306" r="3" fill="#D32F2F" opacity="0.7"/>
<text x="274" y="309" font-family="Arial,sans-serif" font-size="9" fill="#333333">Обратитесь в МЧС за помощью: 112</text>
</svg>