<svg xmlns="http://www.w3.org/2000/svg" viewBox="0 0 500 350">
  <defs>
    <linearGradient id="bg" x1="0" y1="0" x2="0" y2="1">
      <stop offset="0%" stop-color="#FFF8E1"/>
      <stop offset="100%" stop-color="#FFFDE7"/>
    </linearGradient>
    <linearGradient id="panel" x1="0" y1="0" x2="1" y2="0">
      <stop offset="0%" stop-color="#B71C1C"/>
      <stop offset="100%" stop-color="#C62828"/>
    </linearGradient>
  </defs>
  <rect width="500" height="350" fill="url(#bg)" rx="10"/>
  <rect x="3" y="3" width="494" height="344" rx="8" fill="none" stroke="#C62828" stroke-width="3"/>
  <rect x="8" y="8" width="484" height="334" rx="6" fill="none" stroke="#C62828" stroke-width="1" opacity="0.3"/>
  <!-- Bauhaus corner accents -->
  <polygon points="10,10 30,10 10,30" fill="#C62828" opacity="0.12"/>
  <polygon points="490,10 470,10 490,30" fill="#1565C0" opacity="0.12"/>
  <polygon points="10,340 30,340 10,320" fill="#F9A825" opacity="0.12"/>
  <polygon points="490,340 470,340 490,320" fill="#2E7D32" opacity="0.12"/>
  <!-- Title -->
  <text x="250" y="48" font-family="Arial,sans-serif" font-size="24" font-weight="bold" fill="#2E7D32" text-anchor="middle">Системы уравнений</text>
  <text x="250" y="68" font-family="Arial,sans-serif" font-size="12" fill="#777" text-anchor="middle">Алгебра - Урок 3</text>
  <line x1="30" y1="78" x2="470" y2="78" stroke="#2E7D32" stroke-width="2" opacity="0.25"/>
  <rect x="30" y="75" width="60" height="5" fill="#2E7D32" opacity="0.18" rx="1"/>
  <rect x="410" y="75" width="60" height="5" fill="#1565C0" opacity="0.12" rx="1"/>
  <!-- ILLUSTRATION AREA: x=15..485, y=85..300 -->
  <clipPath id="ill"><rect x="15" y="85" width="470" height="215" rx="6"/></clipPath>
  <g clip-path="url(#ill)">
  <rect x="15" y="85" width="470" height="215" fill="#E8F5E9"/><rect x="140" y="120" width="220" height="80" rx="5" fill="white" stroke="#2E7D32" stroke-width="2"/><text x="250" y="155" font-family="Arial" font-size="20" fill="#2E7D32" text-anchor="middle">x + y = 10</text><text x="250" y="185" font-family="Arial" font-size="20" fill="#2E7D32" text-anchor="middle">2x - y = 5</text><g transform="translate(250,240) scale(0.7)"><line x1="-35" y1="0" x2="35" y2="0" stroke="#333" stroke-width="1.5"/><polygon points="35,0 30,-3 30,3" fill="#333"/><line x1="0" y1="25" x2="0" y2="-30" stroke="#333" stroke-width="1.5"/><polygon points="0,-30 -3,-25 3,-25" fill="#333"/><text x="33" y="12" font-family="Arial" font-size="9" fill="#333">x</text><text x="5" y="-27" font-family="Arial" font-size="9" fill="#333">y</text><path d="M-25,20 Q-15,15 -8,0 Q0,-15 8,-25 Q12,-20 15,-15" fill="none" stroke="#C62828" stroke-width="2"/><circle cx="-24" cy="0" r="1" fill="#333"/><circle cx="0" cy="21" r="1" fill="#333"/><circle cx="-16" cy="0" r="1" fill="#333"/><circle cx="0" cy="14" r="1" fill="#333"/><circle cx="-8" cy="0" r="1" fill="#333"/><circle cx="0" cy="7" r="1" fill="#333"/><circle cx="0" cy="0" r="1" fill="#333"/><circle cx="0" cy="0" r="1" fill="#333"/><circle cx="8" cy="0" r="1" fill="#333"/><circle cx="0" cy="-7" r="1" fill="#333"/><circle cx="16" cy="0" r="1" fill="#333"/><circle cx="0" cy="-14" r="1" fill="#333"/><circle cx="24" cy="0" r="1" fill="#333"/><circle cx="0" cy="-21" r="1" fill="#333"/></g>
  </g>
  <!-- Bottom panel -->
  <rect x="12" y="305" width="476" height="32" rx="5" fill="url(#panel)"/>
  <line x1="20" y1="308" x2="20" y2="334" stroke="#F9A825" stroke-width="1.5" opacity="0.6"/>
  <line x1="480" y1="308" x2="480" y2="334" stroke="#F9A825" stroke-width="1.5" opacity="0.6"/>
  <text x="250" y="326" font-family="Arial,sans-serif" font-size="15" text-anchor="middle" fill="white" font-weight="bold">Алгебра</text>
</svg>