<svg xmlns="http://www.w3.org/2000/svg" viewBox="0 0 800 600" width="800" height="600">
<defs>
  <linearGradient id="bg" x1="0%" y1="0%" x2="100%" y2="100%">
    <stop offset="0%" style="stop-color:#0C4A6E"/>
    <stop offset="100%" style="stop-color:#0284C7"/>
  </linearGradient>
  <linearGradient id="accentGrad" x1="0%" y1="0%" x2="100%" y2="0%">
    <stop offset="0%" style="stop-color:#0EA5E9"/>
    <stop offset="100%" style="stop-color:#38BDF8"/>
  </linearGradient>
</defs>
<rect x="0" y="0" width="800" height="600" fill="url(#bg)"/>
<rect x="0" y="0" width="800" height="70" fill="url(#bg)" rx="8"/>
<circle cx="40" cy="35" r="22" fill="#0EA5E9" stroke="#38BDF8" stroke-width="2"/>
<text x="40" y="42" fill="#FFFFFF" font-size="18" text-anchor="middle" font-family="sans-serif" font-weight="bold">5</text>
<text x="72" y="32" fill="#FFFFFF" font-size="22" text-anchor="start" font-family="sans-serif" font-weight="bold">Основы HTML</text>
<text x="72" y="52" fill="#7DD3FC" font-size="13" text-anchor="start" font-family="sans-serif" font-weight="normal">Теги, структура документа, элементы, атрибуты</text>
<rect x="0" y="68" width="800" height="2" fill="#38BDF8" rx="8"/>
<rect x="20" y="80" width="380" height="260" fill="#0F172A" rx="8" stroke="#0EA5E9" stroke-width="1"/>
<text x="35" y="102" fill="#38BDF8" font-size="14" text-anchor="start" font-family="sans-serif" font-weight="bold">Структура HTML-документа</text>
<rect x="35" y="112" width="350" height="242" fill="#0F172A" rx="6" stroke="#1E293B" stroke-width="1"/>
<rect x="35" y="112" width="350" height="24" fill="#1E293B" rx="6"/>
<rect x="35" y="130" width="350" height="6" fill="#1E293B" rx="8"/>
<text x="45" y="128" fill="#7DD3FC" font-size="10" text-anchor="start" font-family="monospace" font-weight="normal">index.html</text>
<circle cx="345" cy="124" r="4" fill="#F87171"/>
<circle cx="359" cy="124" r="4" fill="#FACC15"/>
<circle cx="373" cy="124" r="4" fill="#4ADE80"/>
<text x="43" y="152" fill="#475569" font-size="12" text-anchor="start" font-family="monospace" font-weight="normal">1</text>
<text x="65" y="152" fill="#E0F2FE" font-size="12" text-anchor="start" font-family="monospace" font-weight="normal">&lt;!DOCTYPE html&gt;</text>
<text x="43" y="170" fill="#475569" font-size="12" text-anchor="start" font-family="monospace" font-weight="normal">2</text>
<text x="65" y="170" fill="#E0F2FE" font-size="12" text-anchor="start" font-family="monospace" font-weight="normal">&lt;html lang=&quot;ru&quot;&gt;</text>
<text x="43" y="188" fill="#475569" font-size="12" text-anchor="start" font-family="monospace" font-weight="normal">3</text>
<text x="65" y="188" fill="#E0F2FE" font-size="12" text-anchor="start" font-family="monospace" font-weight="normal">&lt;head&gt;</text>
<text x="43" y="206" fill="#475569" font-size="12" text-anchor="start" font-family="monospace" font-weight="normal">4</text>
<text x="65" y="206" fill="#E0F2FE" font-size="12" text-anchor="start" font-family="monospace" font-weight="normal">  &lt;meta charset=&quot;UTF-8&quot;&gt;</text>
<text x="43" y="224" fill="#475569" font-size="12" text-anchor="start" font-family="monospace" font-weight="normal">5</text>
<text x="65" y="224" fill="#E0F2FE" font-size="12" text-anchor="start" font-family="monospace" font-weight="normal">  &lt;title&gt;Моя страница&lt;/title&gt;</text>
<text x="43" y="242" fill="#475569" font-size="12" text-anchor="start" font-family="monospace" font-weight="normal">6</text>
<text x="65" y="242" fill="#E0F2FE" font-size="12" text-anchor="start" font-family="monospace" font-weight="normal">&lt;/head&gt;</text>
<text x="43" y="260" fill="#475569" font-size="12" text-anchor="start" font-family="monospace" font-weight="normal">7</text>
<text x="65" y="260" fill="#E0F2FE" font-size="12" text-anchor="start" font-family="monospace" font-weight="normal">&lt;body&gt;</text>
<text x="43" y="278" fill="#475569" font-size="12" text-anchor="start" font-family="monospace" font-weight="normal">8</text>
<text x="65" y="278" fill="#E0F2FE" font-size="12" text-anchor="start" font-family="monospace" font-weight="normal">  &lt;h1&gt;Привет!&lt;/h1&gt;</text>
<text x="43" y="296" fill="#475569" font-size="12" text-anchor="start" font-family="monospace" font-weight="normal">9</text>
<text x="65" y="296" fill="#E0F2FE" font-size="12" text-anchor="start" font-family="monospace" font-weight="normal">  &lt;p&gt;Текст абзаца&lt;/p&gt;</text>
<text x="43" y="314" fill="#475569" font-size="12" text-anchor="start" font-family="monospace" font-weight="normal">10</text>
<text x="65" y="314" fill="#E0F2FE" font-size="12" text-anchor="start" font-family="monospace" font-weight="normal">&lt;/body&gt;</text>
<text x="43" y="332" fill="#475569" font-size="12" text-anchor="start" font-family="monospace" font-weight="normal">11</text>
<text x="65" y="332" fill="#E0F2FE" font-size="12" text-anchor="start" font-family="monospace" font-weight="normal">&lt;/html&gt;</text>
<rect x="410" y="80" width="370" height="260" fill="#0F172A" rx="8" stroke="#0EA5E9" stroke-width="1"/>
<text x="425" y="102" fill="#38BDF8" font-size="14" text-anchor="start" font-family="sans-serif" font-weight="bold">Основные теги HTML</text>
<rect x="425" y="112" width="165" height="30" fill="#1E293B" rx="4" stroke="#4ADE80" stroke-width="1"/>
<text x="430" y="131" fill="#4ADE80" font-size="11" text-anchor="start" font-family="monospace" font-weight="normal">&amp;lt;h1&amp;gt;-&amp;lt;h6&amp;gt;</text>
<text x="600" y="131" fill="#7DD3FC" font-size="10" text-anchor="start" font-family="sans-serif" font-weight="normal">Заголовки</text>
<rect x="425" y="148" width="165" height="30" fill="#1E293B" rx="4" stroke="#38BDF8" stroke-width="1"/>
<text x="430" y="167" fill="#38BDF8" font-size="11" text-anchor="start" font-family="monospace" font-weight="normal">&amp;lt;p&amp;gt;</text>
<text x="600" y="167" fill="#7DD3FC" font-size="10" text-anchor="start" font-family="sans-serif" font-weight="normal">Абзац</text>
<rect x="425" y="184" width="165" height="30" fill="#1E293B" rx="4" stroke="#FACC15" stroke-width="1"/>
<text x="430" y="203" fill="#FACC15" font-size="11" text-anchor="start" font-family="monospace" font-weight="normal">&amp;lt;a href&amp;gt;</text>
<text x="600" y="203" fill="#7DD3FC" font-size="10" text-anchor="start" font-family="sans-serif" font-weight="normal">Ссылка</text>
<rect x="425" y="220" width="165" height="30" fill="#1E293B" rx="4" stroke="#FB923C" stroke-width="1"/>
<text x="430" y="239" fill="#FB923C" font-size="11" text-anchor="start" font-family="monospace" font-weight="normal">&amp;lt;img src&amp;gt;</text>
<text x="600" y="239" fill="#7DD3FC" font-size="10" text-anchor="start" font-family="sans-serif" font-weight="normal">Изображение</text>
<rect x="425" y="256" width="165" height="30" fill="#1E293B" rx="4" stroke="#C084FC" stroke-width="1"/>
<text x="430" y="275" fill="#C084FC" font-size="11" text-anchor="start" font-family="monospace" font-weight="normal">&amp;lt;ul&amp;gt; &amp;lt;ol&amp;gt;</text>
<text x="600" y="275" fill="#7DD3FC" font-size="10" text-anchor="start" font-family="sans-serif" font-weight="normal">Списки</text>
<rect x="425" y="292" width="165" height="30" fill="#1E293B" rx="4" stroke="#F87171" stroke-width="1"/>
<text x="430" y="311" fill="#F87171" font-size="11" text-anchor="start" font-family="monospace" font-weight="normal">&amp;lt;div&amp;gt; &amp;lt;span&amp;gt;</text>
<text x="600" y="311" fill="#7DD3FC" font-size="10" text-anchor="start" font-family="sans-serif" font-weight="normal">Контейнеры</text>
<rect x="20" y="350" width="380" height="220" fill="#0F172A" rx="8" stroke="#FACC15" stroke-width="1"/>
<text x="35" y="372" fill="#FACC15" font-size="14" text-anchor="start" font-family="sans-serif" font-weight="bold">Атрибуты тегов</text>
<rect x="35" y="382" width="350" height="206" fill="#0F172A" rx="6" stroke="#1E293B" stroke-width="1"/>
<rect x="35" y="382" width="350" height="24" fill="#1E293B" rx="6"/>
<rect x="35" y="400" width="350" height="6" fill="#1E293B" rx="8"/>
<text x="45" y="398" fill="#7DD3FC" font-size="10" text-anchor="start" font-family="monospace" font-weight="normal">attributes.html</text>
<circle cx="345" cy="394" r="4" fill="#F87171"/>
<circle cx="359" cy="394" r="4" fill="#FACC15"/>
<circle cx="373" cy="394" r="4" fill="#4ADE80"/>
<text x="43" y="422" fill="#475569" font-size="12" text-anchor="start" font-family="monospace" font-weight="normal">1</text>
<text x="65" y="422" fill="#E0F2FE" font-size="12" text-anchor="start" font-family="monospace" font-weight="normal">&lt;a href=&quot;https://site.ru&quot;&gt;Ссылка&lt;/a&gt;</text>
<text x="43" y="440" fill="#475569" font-size="12" text-anchor="start" font-family="monospace" font-weight="normal">2</text>
<text x="65" y="440" fill="#E0F2FE" font-size="12" text-anchor="start" font-family="monospace" font-weight="normal"></text>
<text x="43" y="458" fill="#475569" font-size="12" text-anchor="start" font-family="monospace" font-weight="normal">3</text>
<text x="65" y="458" fill="#E0F2FE" font-size="12" text-anchor="start" font-family="monospace" font-weight="normal">&lt;img src=&quot;photo.jpg&quot; alt=&quot;Фото&quot;&gt;</text>
<text x="43" y="476" fill="#475569" font-size="12" text-anchor="start" font-family="monospace" font-weight="normal">4</text>
<text x="65" y="476" fill="#E0F2FE" font-size="12" text-anchor="start" font-family="monospace" font-weight="normal"></text>
<text x="43" y="494" fill="#475569" font-size="12" text-anchor="start" font-family="monospace" font-weight="normal">5</text>
<text x="65" y="494" fill="#E0F2FE" font-size="12" text-anchor="start" font-family="monospace" font-weight="normal">&lt;p class=&quot;intro&quot; id=&quot;main&quot;&gt;</text>
<text x="43" y="512" fill="#475569" font-size="12" text-anchor="start" font-family="monospace" font-weight="normal">6</text>
<text x="65" y="512" fill="#E0F2FE" font-size="12" text-anchor="start" font-family="monospace" font-weight="normal">  Текст параграфа</text>
<text x="43" y="530" fill="#475569" font-size="12" text-anchor="start" font-family="monospace" font-weight="normal">7</text>
<text x="65" y="530" fill="#E0F2FE" font-size="12" text-anchor="start" font-family="monospace" font-weight="normal">&lt;/p&gt;</text>
<text x="43" y="548" fill="#475569" font-size="12" text-anchor="start" font-family="monospace" font-weight="normal">8</text>
<text x="65" y="548" fill="#E0F2FE" font-size="12" text-anchor="start" font-family="monospace" font-weight="normal"></text>
<text x="43" y="566" fill="#475569" font-size="12" text-anchor="start" font-family="monospace" font-weight="normal">9</text>
<text x="65" y="566" fill="#E0F2FE" font-size="12" text-anchor="start" font-family="monospace" font-weight="normal">&lt;input type=&quot;text&quot; placeholder=&quot;Имя&quot;&gt;</text>
<rect x="410" y="350" width="370" height="220" fill="#0F172A" rx="8" stroke="#0EA5E9" stroke-width="1"/>
<text x="425" y="372" fill="#38BDF8" font-size="14" text-anchor="start" font-family="sans-serif" font-weight="bold">DOM-дерево документа</text>
<rect x="540" y="385" width="100" height="26" fill="#C084FC" rx="6" stroke="#0EA5E9" stroke-width="1.5"/>
<text x="590.0" y="403.0" fill="#FFFFFF" font-size="12" text-anchor="middle" font-family="sans-serif" font-weight="bold">html</text>
<line x1="570" y1="411" x2="530" y2="425" stroke="#38BDF8" stroke-width="2"/>
<polygon points="530,425,536.2294651520158,418.5817631767111,538.8722685498406,426.13263002763927" fill="#38BDF8"/>
<line x1="570" y1="411" x2="640" y2="425" stroke="#38BDF8" stroke-width="2"/>
<polygon points="640,425,631.3708900539199,427.3533936216582,632.9398191350255,419.50874821613087" fill="#38BDF8"/>
<rect x="480" y="425" width="90" height="26" fill="#4ADE80" rx="6" stroke="#0EA5E9" stroke-width="1.5"/>
<text x="525.0" y="443.0" fill="#FFFFFF" font-size="12" text-anchor="middle" font-family="sans-serif" font-weight="bold">head</text>
<rect x="620" y="425" width="90" height="26" fill="#4ADE80" rx="6" stroke="#0EA5E9" stroke-width="1.5"/>
<text x="665.0" y="443.0" fill="#FFFFFF" font-size="12" text-anchor="middle" font-family="sans-serif" font-weight="bold">body</text>
<line x1="525" y1="451" x2="500" y2="462" stroke="#38BDF8" stroke-width="2"/>
<polygon points="500,462,505.7115658023181,455.1168309561808,508.9334747164462,462.43935121556297" fill="#38BDF8"/>
<line x1="525" y1="451" x2="555" y2="462" stroke="#38BDF8" stroke-width="2"/>
<polygon points="555,462,546.1119708762735,463.00146807027903,548.8660080695408,455.4904575431862" fill="#38BDF8"/>
<line x1="665" y1="451" x2="620" y2="462" stroke="#38BDF8" stroke-width="2"/>
<polygon points="620,462,626.8213796900662,456.21477925019695,628.7210044138823,463.9859713021712" fill="#38BDF8"/>
<line x1="665" y1="451" x2="690" y2="462" stroke="#38BDF8" stroke-width="2"/>
<polygon points="690,462,681.0665252835538,462.43935121556297,684.2884341976819,455.1168309561808" fill="#38BDF8"/>
<line x1="665" y1="451" x2="750" y2="462" stroke="#38BDF8" stroke-width="2"/>
<polygon points="750,462,741.5527936334634,464.94018785133596,742.5795258990092,457.00634761757226" fill="#38BDF8"/>
<rect x="455" y="462" width="80" height="24" fill="#FACC15" rx="6" stroke="#0EA5E9" stroke-width="1.5"/>
<text x="495.0" y="479.0" fill="#FFFFFF" font-size="12" text-anchor="middle" font-family="sans-serif" font-weight="bold">title</text>
<rect x="545" y="462" width="80" height="24" fill="#FACC15" rx="6" stroke="#0EA5E9" stroke-width="1.5"/>
<text x="585.0" y="479.0" fill="#FFFFFF" font-size="12" text-anchor="middle" font-family="sans-serif" font-weight="bold">meta</text>
<rect x="585" y="490" width="70" height="24" fill="#FB923C" rx="6" stroke="#0EA5E9" stroke-width="1.5"/>
<text x="620.0" y="507.0" fill="#FFFFFF" font-size="12" text-anchor="middle" font-family="sans-serif" font-weight="bold">h1</text>
<rect x="665" y="490" width="60" height="24" fill="#FB923C" rx="6" stroke="#0EA5E9" stroke-width="1.5"/>
<text x="695.0" y="507.0" fill="#FFFFFF" font-size="12" text-anchor="middle" font-family="sans-serif" font-weight="bold">p</text>
<rect x="740" y="490" width="50" height="24" fill="#FB923C" rx="6" stroke="#0EA5E9" stroke-width="1.5"/>
<text x="765.0" y="507.0" fill="#FFFFFF" font-size="12" text-anchor="middle" font-family="sans-serif" font-weight="bold">a</text>
<text x="425" y="530" fill="#7DD3FC" font-size="10" text-anchor="start" font-family="sans-serif" font-weight="normal">Каждый тег — узел дерева.</text>
<text x="425" y="545" fill="#7DD3FC" font-size="10" text-anchor="start" font-family="sans-serif" font-weight="normal">Вложенные теги — дочерние узлы.</text>
<rect x="0" y="570" width="800" height="30" fill="url(#bg)" rx="8"/>
<text x="400.0" y="590" fill="#7DD3FC" font-size="10" text-anchor="middle" font-family="sans-serif" font-weight="normal">Информатика · 7 класс</text>
</svg>