<svg xmlns="http://www.w3.org/2000/svg" viewBox="0 0 800 600" width="800" height="600">
<defs>
  <linearGradient id="bg" x1="0%" y1="0%" x2="100%" y2="100%">
    <stop offset="0%" style="stop-color:#0C4A6E"/>
    <stop offset="100%" style="stop-color:#0284C7"/>
  </linearGradient>
  <linearGradient id="accentGrad" x1="0%" y1="0%" x2="100%" y2="0%">
    <stop offset="0%" style="stop-color:#0EA5E9"/>
    <stop offset="100%" style="stop-color:#38BDF8"/>
  </linearGradient>
</defs>
<rect x="0" y="0" width="800" height="600" fill="url(#bg)"/>
<rect x="0" y="0" width="800" height="70" fill="url(#bg)" rx="8"/>
<circle cx="40" cy="35" r="22" fill="#0EA5E9" stroke="#38BDF8" stroke-width="2"/>
<text x="40" y="42" fill="#FFFFFF" font-size="18" text-anchor="middle" font-family="sans-serif" font-weight="bold">1</text>
<text x="72" y="32" fill="#FFFFFF" font-size="22" text-anchor="start" font-family="sans-serif" font-weight="bold">Введение в программирование</text>
<text x="72" y="52" fill="#7DD3FC" font-size="13" text-anchor="start" font-family="sans-serif" font-weight="normal">Что такое программа, языки программирования, IDE</text>
<rect x="0" y="68" width="800" height="2" fill="#38BDF8" rx="8"/>
<rect x="20" y="80" width="370" height="240" fill="#0F172A" rx="8" stroke="#0EA5E9" stroke-width="1"/>
<text x="35" y="102" fill="#38BDF8" font-size="14" text-anchor="start" font-family="sans-serif" font-weight="bold">Что такое программа?</text>
<text x="35" y="124" fill="#E0F2FE" font-size="11" text-anchor="start" font-family="sans-serif" font-weight="normal">Программа — это набор инструкций для компьютера,</text>
<text x="35" y="140" fill="#E0F2FE" font-size="11" text-anchor="start" font-family="sans-serif" font-weight="normal">выполненных на языке программирования.</text>
<rect x="35" y="155" width="36" height="28" fill="none" stroke="#38BDF8" stroke-width="2" rx="2"/>
<text x="80" y="172" fill="#FFFFFF" font-size="11" text-anchor="start" font-family="sans-serif" font-weight="bold">Исходный код</text>
<text x="80" y="186" fill="#7DD3FC" font-size="10" text-anchor="start" font-family="sans-serif" font-weight="normal">Текст на языке программирования</text>
<line x1="55" y1="188" x2="55" y2="200" stroke="#38BDF8" stroke-width="2"/>
<polygon points="55,200,51.0,192.0,59.0,192.0" fill="#38BDF8"/>
<text x="65" y="196" fill="#FACC15" font-size="10" text-anchor="start" font-family="sans-serif" font-weight="normal">компиляция / интерпретация</text>
<circle cx="45" cy="215" r="10" fill="none" stroke="#FB923C" stroke-width="2"/>
<circle cx="45" cy="215" r="4" fill="#FB923C"/>
<text x="80" y="220" fill="#FFFFFF" font-size="11" text-anchor="start" font-family="sans-serif" font-weight="bold">Транслятор</text>
<text x="80" y="234" fill="#7DD3FC" font-size="10" text-anchor="start" font-family="sans-serif" font-weight="normal">Компилятор или интерпретатор</text>
<line x1="55" y1="238" x2="55" y2="250" stroke="#38BDF8" stroke-width="2"/>
<polygon points="55,250,51.0,242.0,59.0,242.0" fill="#38BDF8"/>
<rect x="35" y="258" width="36" height="28" fill="none" stroke="#4ADE80" stroke-width="2" rx="2"/>
<text x="80" y="275" fill="#FFFFFF" font-size="11" text-anchor="start" font-family="sans-serif" font-weight="bold">Результат</text>
<text x="80" y="289" fill="#7DD3FC" font-size="10" text-anchor="start" font-family="sans-serif" font-weight="normal">Работающая программа</text>
<rect x="400" y="80" width="380" height="240" fill="#0F172A" rx="8" stroke="#0EA5E9" stroke-width="1"/>
<text x="415" y="102" fill="#38BDF8" font-size="14" text-anchor="start" font-family="sans-serif" font-weight="bold">Языки программирования</text>
<rect x="415" y="112" width="58" height="20" fill="#0EA5E9" rx="10"/>
<text x="444.0" y="126" fill="#FFFFFF" font-size="11" text-anchor="middle" font-family="sans-serif" font-weight="bold">Python</text>
<rect x="490" y="112" width="86" height="20" fill="#EAB308" rx="10"/>
<text x="533.0" y="126" fill="#FFFFFF" font-size="11" text-anchor="middle" font-family="sans-serif" font-weight="bold">JavaScript</text>
<rect x="585" y="112" width="44" height="20" fill="#FB923C" rx="10"/>
<text x="607.0" y="126" fill="#FFFFFF" font-size="11" text-anchor="middle" font-family="sans-serif" font-weight="bold">Java</text>
<rect x="650" y="112" width="37" height="20" fill="#C084FC" rx="10"/>
<text x="668.5" y="126" fill="#FFFFFF" font-size="11" text-anchor="middle" font-family="sans-serif" font-weight="bold">C++</text>
<rect x="415" y="140" width="30" height="20" fill="#4ADE80" rx="10"/>
<text x="430.0" y="154" fill="#FFFFFF" font-size="11" text-anchor="middle" font-family="sans-serif" font-weight="bold">C#</text>
<rect x="470" y="140" width="44" height="20" fill="#F87171" rx="10"/>
<text x="492.0" y="154" fill="#FFFFFF" font-size="11" text-anchor="middle" font-family="sans-serif" font-weight="bold">Ruby</text>
<rect x="530" y="140" width="30" height="20" fill="#06B6D4" rx="10"/>
<text x="545.0" y="154" fill="#FFFFFF" font-size="11" text-anchor="middle" font-family="sans-serif" font-weight="bold">Go</text>
<rect x="580" y="140" width="51" height="20" fill="#FB923C" rx="10"/>
<text x="605.5" y="154" fill="#FFFFFF" font-size="11" text-anchor="middle" font-family="sans-serif" font-weight="bold">Swift</text>
<text x="415" y="180" fill="#FFFFFF" font-size="12" text-anchor="start" font-family="sans-serif" font-weight="bold">Типы языков:</text>
<rect x="415" y="190" width="170" height="50" fill="#1E293B" rx="6" stroke="#4ADE80" stroke-width="1"/>
<text x="500" y="210" fill="#4ADE80" font-size="11" text-anchor="middle" font-family="sans-serif" font-weight="bold">Компилируемые</text>
<text x="500" y="228" fill="#7DD3FC" font-size="9" text-anchor="middle" font-family="sans-serif" font-weight="normal">C++, Go, Rust</text>
<rect x="595" y="190" width="170" height="50" fill="#1E293B" rx="6" stroke="#FB923C" stroke-width="1"/>
<text x="680" y="210" fill="#FB923C" font-size="11" text-anchor="middle" font-family="sans-serif" font-weight="bold">Интерпретируемые</text>
<text x="680" y="228" fill="#7DD3FC" font-size="9" text-anchor="middle" font-family="sans-serif" font-weight="normal">Python, JS, Ruby</text>
<text x="415" y="262" fill="#FFFFFF" font-size="12" text-anchor="start" font-family="sans-serif" font-weight="bold">Среды разработки (IDE):</text>
<rect x="415" y="272" width="65" height="20" fill="#0EA5E9" rx="10"/>
<text x="447.5" y="286" fill="#FFFFFF" font-size="11" text-anchor="middle" font-family="sans-serif" font-weight="bold">PyCharm</text>
<rect x="500" y="272" width="65" height="20" fill="#06B6D4" rx="10"/>
<text x="532.5" y="286" fill="#FFFFFF" font-size="11" text-anchor="middle" font-family="sans-serif" font-weight="bold">VS Code</text>
<rect x="585" y="272" width="44" height="20" fill="#4ADE80" rx="10"/>
<text x="607.0" y="286" fill="#FFFFFF" font-size="11" text-anchor="middle" font-family="sans-serif" font-weight="bold">IDLE</text>
<rect x="20" y="330" width="760" height="240" fill="#0F172A" rx="8" stroke="#0EA5E9" stroke-width="1"/>
<text x="35" y="354" fill="#38BDF8" font-size="14" text-anchor="start" font-family="sans-serif" font-weight="bold">Первая программа на Python</text>
<rect x="35" y="365" width="460" height="188" fill="#0F172A" rx="6" stroke="#1E293B" stroke-width="1"/>
<rect x="35" y="365" width="460" height="24" fill="#1E293B" rx="6"/>
<rect x="35" y="383" width="460" height="6" fill="#1E293B" rx="8"/>
<text x="45" y="381" fill="#7DD3FC" font-size="10" text-anchor="start" font-family="monospace" font-weight="normal">hello.py</text>
<circle cx="455" cy="377" r="4" fill="#F87171"/>
<circle cx="469" cy="377" r="4" fill="#FACC15"/>
<circle cx="483" cy="377" r="4" fill="#4ADE80"/>
<text x="43" y="405" fill="#475569" font-size="12" text-anchor="start" font-family="monospace" font-weight="normal">1</text>
<text x="65" y="405" fill="#E0F2FE" font-size="12" text-anchor="start" font-family="monospace" font-weight="normal">print(&quot;Привет, мир!&quot;)</text>
<text x="43" y="423" fill="#475569" font-size="12" text-anchor="start" font-family="monospace" font-weight="normal">2</text>
<text x="65" y="423" fill="#E0F2FE" font-size="12" text-anchor="start" font-family="monospace" font-weight="normal"># Вывод текста на экран</text>
<text x="43" y="441" fill="#475569" font-size="12" text-anchor="start" font-family="monospace" font-weight="normal">3</text>
<text x="65" y="441" fill="#E0F2FE" font-size="12" text-anchor="start" font-family="monospace" font-weight="normal">name = input(&quot;Как тебя зовут? &quot;)</text>
<text x="43" y="459" fill="#475569" font-size="12" text-anchor="start" font-family="monospace" font-weight="normal">4</text>
<text x="65" y="459" fill="#E0F2FE" font-size="12" text-anchor="start" font-family="monospace" font-weight="normal">print(&quot;Привет, &quot; + name + &quot;!&quot;)</text>
<text x="43" y="477" fill="#475569" font-size="12" text-anchor="start" font-family="monospace" font-weight="normal">5</text>
<text x="65" y="477" fill="#E0F2FE" font-size="12" text-anchor="start" font-family="monospace" font-weight="normal"></text>
<text x="43" y="495" fill="#475569" font-size="12" text-anchor="start" font-family="monospace" font-weight="normal">6</text>
<text x="65" y="495" fill="#E0F2FE" font-size="12" text-anchor="start" font-family="monospace" font-weight="normal"># Переменные</text>
<text x="43" y="513" fill="#475569" font-size="12" text-anchor="start" font-family="monospace" font-weight="normal">7</text>
<text x="65" y="513" fill="#E0F2FE" font-size="12" text-anchor="start" font-family="monospace" font-weight="normal">age = 13</text>
<text x="43" y="531" fill="#475569" font-size="12" text-anchor="start" font-family="monospace" font-weight="normal">8</text>
<text x="65" y="531" fill="#E0F2FE" font-size="12" text-anchor="start" font-family="monospace" font-weight="normal">print(f&quot;Мне {age} лет&quot;)</text>
<rect x="510" y="370" width="255" height="35" fill="#1E293B" rx="6"/>
<text x="520" y="385" fill="#4ADE80" font-size="11" text-anchor="start" font-family="monospace" font-weight="normal">print()</text>
<text x="520" y="398" fill="#7DD3FC" font-size="10" text-anchor="start" font-family="sans-serif" font-weight="normal">Вывод текста на экран</text>
<rect x="510" y="415" width="255" height="35" fill="#1E293B" rx="6"/>
<text x="520" y="430" fill="#4ADE80" font-size="11" text-anchor="start" font-family="monospace" font-weight="normal">input()</text>
<text x="520" y="443" fill="#7DD3FC" font-size="10" text-anchor="start" font-family="sans-serif" font-weight="normal">Ввод данных от пользователя</text>
<rect x="510" y="460" width="255" height="35" fill="#1E293B" rx="6"/>
<text x="520" y="475" fill="#FACC15" font-size="11" text-anchor="start" font-family="monospace" font-weight="normal"># комментарий</text>
<text x="520" y="488" fill="#7DD3FC" font-size="10" text-anchor="start" font-family="sans-serif" font-weight="normal">Комментарий — не выполняется</text>
<rect x="510" y="505" width="255" height="50" fill="#1E293B" rx="6"/>
<text x="520" y="520" fill="#FFFFFF" font-size="11" text-anchor="start" font-family="sans-serif" font-weight="bold">Результат:</text>
<text x="520" y="538" fill="#4ADE80" font-size="12" text-anchor="start" font-family="monospace" font-weight="normal">&gt;&gt;&gt; Привет, мир!</text>
<text x="520" y="552" fill="#4ADE80" font-size="12" text-anchor="start" font-family="monospace" font-weight="normal">&gt;&gt;&gt; Привет, Анна!</text>
<rect x="0" y="570" width="800" height="30" fill="url(#bg)" rx="8"/>
<text x="400.0" y="590" fill="#7DD3FC" font-size="10" text-anchor="middle" font-family="sans-serif" font-weight="normal">Информатика · 7 класс</text>
</svg>