<svg xmlns="http://www.w3.org/2000/svg" viewBox="0 0 800 600" width="800" height="600">
<defs>
  <linearGradient id="bg" x1="0%" y1="0%" x2="100%" y2="100%">
    <stop offset="0%" style="stop-color:#0C4A6E"/>
    <stop offset="100%" style="stop-color:#0284C7"/>
  </linearGradient>
  <linearGradient id="accentGrad" x1="0%" y1="0%" x2="100%" y2="0%">
    <stop offset="0%" style="stop-color:#0EA5E9"/>
    <stop offset="100%" style="stop-color:#38BDF8"/>
  </linearGradient>
</defs>
<rect x="0" y="0" width="800" height="600" fill="url(#bg)"/>
<rect x="0" y="0" width="800" height="70" fill="url(#bg)" rx="8"/>
<circle cx="40" cy="35" r="22" fill="#0EA5E9" stroke="#38BDF8" stroke-width="2"/>
<text x="40" y="42" fill="#FFFFFF" font-size="18" text-anchor="middle" font-family="sans-serif" font-weight="bold">11</text>
<text x="72" y="32" fill="#FFFFFF" font-size="22" text-anchor="start" font-family="sans-serif" font-weight="bold">Исполнители алгоритмов</text>
<text x="72" y="52" fill="#7DD3FC" font-size="13" text-anchor="start" font-family="sans-serif" font-weight="normal">Робот, Черепашка, СКИ, команды</text>
<rect x="0" y="68" width="800" height="2" fill="#38BDF8" rx="8"/>
<rect x="20" y="80" width="380" height="170" fill="#0F172A" rx="8" stroke="#0EA5E9" stroke-width="1"/>
<text x="35" y="102" fill="#38BDF8" font-size="14" text-anchor="start" font-family="sans-serif" font-weight="bold">Что такое исполнитель?</text>
<text x="35" y="124" fill="#E0F2FE" font-size="11" text-anchor="start" font-family="sans-serif" font-weight="normal">Исполнитель — объект, выполняющий</text>
<text x="35" y="140" fill="#E0F2FE" font-size="11" text-anchor="start" font-family="sans-serif" font-weight="normal">команды алгоритма.</text>
<text x="35" y="164" fill="#FACC15" font-size="11" text-anchor="start" font-family="sans-serif" font-weight="bold">СКИ — система команд исполнителя</text>
<text x="35" y="182" fill="#7DD3FC" font-size="10" text-anchor="start" font-family="sans-serif" font-weight="normal">(набор команд, которые он понимает).</text>
<rect x="410" y="80" width="370" height="170" fill="#0F172A" rx="8" stroke="#0EA5E9" stroke-width="1"/>
<text x="425" y="102" fill="#38BDF8" font-size="14" text-anchor="start" font-family="sans-serif" font-weight="bold">Исполнители в информатике</text>
<rect x="425" y="118" width="350" height="24" fill="#1E293B" rx="4"/>
<text x="435" y="134" fill="#4ADE80" font-size="11" text-anchor="start" font-family="sans-serif" font-weight="bold">Робот</text>
<text x="530" y="134" fill="#7DD3FC" font-size="10" text-anchor="start" font-family="sans-serif" font-weight="normal">Двигается по клеткам</text>
<rect x="425" y="146" width="350" height="24" fill="#1E293B" rx="4"/>
<text x="435" y="162" fill="#38BDF8" font-size="11" text-anchor="start" font-family="sans-serif" font-weight="bold">Черепашка</text>
<text x="530" y="162" fill="#7DD3FC" font-size="10" text-anchor="start" font-family="sans-serif" font-weight="normal">Рисует на холсте</text>
<rect x="425" y="174" width="350" height="24" fill="#1E293B" rx="4"/>
<text x="435" y="190" fill="#FB923C" font-size="11" text-anchor="start" font-family="sans-serif" font-weight="bold">Калькулятор</text>
<text x="530" y="190" fill="#7DD3FC" font-size="10" text-anchor="start" font-family="sans-serif" font-weight="normal">Вычисляет выражения</text>
<rect x="425" y="202" width="350" height="24" fill="#1E293B" rx="4"/>
<text x="435" y="218" fill="#C084FC" font-size="11" text-anchor="start" font-family="sans-serif" font-weight="bold">Компьютер</text>
<text x="530" y="218" fill="#7DD3FC" font-size="10" text-anchor="start" font-family="sans-serif" font-weight="normal">Выполняет программы</text>
<rect x="20" y="260" width="380" height="190" fill="#0F172A" rx="8" stroke="#4ADE80" stroke-width="1"/>
<text x="35" y="282" fill="#4ADE80" font-size="14" text-anchor="start" font-family="sans-serif" font-weight="bold">Исполнитель Робот</text>
<rect x="35" y="295" width="29" height="29" fill="#1E293B" rx="2" stroke="#334155" stroke-width="1"/>
<rect x="65" y="295" width="29" height="29" fill="#1E293B" rx="2" stroke="#334155" stroke-width="1"/>
<rect x="95" y="295" width="29" height="29" fill="#1E293B" rx="2" stroke="#334155" stroke-width="1"/>
<rect x="125" y="295" width="29" height="29" fill="#1E293B" rx="2" stroke="#334155" stroke-width="1"/>
<rect x="155" y="295" width="29" height="29" fill="#1E293B" rx="2" stroke="#334155" stroke-width="1"/>
<rect x="35" y="325" width="29" height="29" fill="#1E293B" rx="2" stroke="#334155" stroke-width="1"/>
<rect x="65" y="325" width="29" height="29" fill="#1E293B" rx="2" stroke="#334155" stroke-width="1"/>
<rect x="95" y="325" width="29" height="29" fill="#1E293B" rx="2" stroke="#334155" stroke-width="1"/>
<rect x="125" y="325" width="29" height="29" fill="#F87171" rx="2" stroke="#334155" stroke-width="1"/>
<rect x="155" y="325" width="29" height="29" fill="#1E293B" rx="2" stroke="#334155" stroke-width="1"/>
<rect x="35" y="355" width="29" height="29" fill="#1E293B" rx="2" stroke="#334155" stroke-width="1"/>
<rect x="65" y="355" width="29" height="29" fill="#FACC15" rx="2" stroke="#334155" stroke-width="1"/>
<rect x="95" y="355" width="29" height="29" fill="#1E293B" rx="2" stroke="#334155" stroke-width="1"/>
<rect x="125" y="355" width="29" height="29" fill="#1E293B" rx="2" stroke="#334155" stroke-width="1"/>
<rect x="155" y="355" width="29" height="29" fill="#1E293B" rx="2" stroke="#334155" stroke-width="1"/>
<rect x="35" y="385" width="29" height="29" fill="#1E293B" rx="2" stroke="#334155" stroke-width="1"/>
<rect x="65" y="385" width="29" height="29" fill="#1E293B" rx="2" stroke="#334155" stroke-width="1"/>
<rect x="95" y="385" width="29" height="29" fill="#1E293B" rx="2" stroke="#334155" stroke-width="1"/>
<rect x="125" y="385" width="29" height="29" fill="#1E293B" rx="2" stroke="#334155" stroke-width="1"/>
<rect x="155" y="385" width="29" height="29" fill="#1E293B" rx="2" stroke="#334155" stroke-width="1"/>
<rect x="98" y="298" width="23" height="23" fill="#4ADE80" rx="4"/>
<text x="110.0" y="313.0" fill="#FFFFFF" font-size="12" text-anchor="middle" font-family="sans-serif" font-weight="bold">R</text>
<text x="195" y="300" fill="#4ADE80" font-size="11" text-anchor="start" font-family="sans-serif" font-weight="bold">СКИ Робота:</text>
<text x="195" y="316" fill="#38BDF8" font-size="10" text-anchor="start" font-family="monospace" font-weight="normal">вверх</text>
<text x="195" y="332" fill="#38BDF8" font-size="10" text-anchor="start" font-family="monospace" font-weight="normal">вниз</text>
<text x="195" y="348" fill="#38BDF8" font-size="10" text-anchor="start" font-family="monospace" font-weight="normal">влево</text>
<text x="195" y="364" fill="#38BDF8" font-size="10" text-anchor="start" font-family="monospace" font-weight="normal">вправо</text>
<text x="195" y="380" fill="#FACC15" font-size="10" text-anchor="start" font-family="monospace" font-weight="normal">закрасить</text>
<rect x="410" y="260" width="370" height="190" fill="#0F172A" rx="8" stroke="#38BDF8" stroke-width="1"/>
<text x="425" y="282" fill="#38BDF8" font-size="14" text-anchor="start" font-family="sans-serif" font-weight="bold">Исполнитель Черепашка</text>
<rect x="425" y="295" width="340" height="80" fill="#1E293B" rx="4"/>
<polyline points="450,350 550,350 550,310 450,310" fill="none" stroke="#38BDF8" stroke-width="2"/>
<circle cx="450" cy="350" r="4" fill="#4ADE80"/>
<circle cx="450" cy="350" r="8" fill="#4ADE80" stroke="#FFFFFF" stroke-width="2"/>
<text x="455" y="353" fill="#FFFFFF" font-size="8" text-anchor="middle" font-family="sans-serif" font-weight="bold">T</text>
<text x="425" y="395" fill="#38BDF8" font-size="11" text-anchor="start" font-family="sans-serif" font-weight="bold">СКИ Черепашки:</text>
<rect x="425" y="405" width="340" height="108" fill="#0F172A" rx="6" stroke="#1E293B" stroke-width="1"/>
<rect x="425" y="405" width="340" height="24" fill="#1E293B" rx="6"/>
<rect x="425" y="423" width="340" height="6" fill="#1E293B" rx="8"/>
<text x="435" y="421" fill="#7DD3FC" font-size="10" text-anchor="start" font-family="monospace" font-weight="normal">turtle.py</text>
<circle cx="725" cy="417" r="4" fill="#F87171"/>
<circle cx="739" cy="417" r="4" fill="#FACC15"/>
<circle cx="753" cy="417" r="4" fill="#4ADE80"/>
<text x="433" y="445" fill="#475569" font-size="12" text-anchor="start" font-family="monospace" font-weight="normal">1</text>
<text x="455" y="445" fill="#E0F2FE" font-size="12" text-anchor="start" font-family="monospace" font-weight="normal">forward(100)   # вперёд 100</text>
<text x="433" y="461" fill="#475569" font-size="12" text-anchor="start" font-family="monospace" font-weight="normal">2</text>
<text x="455" y="461" fill="#E0F2FE" font-size="12" text-anchor="start" font-family="monospace" font-weight="normal">right(90)      # направо 90°</text>
<text x="433" y="477" fill="#475569" font-size="12" text-anchor="start" font-family="monospace" font-weight="normal">3</text>
<text x="455" y="477" fill="#E0F2FE" font-size="12" text-anchor="start" font-family="monospace" font-weight="normal">penup()        # поднять перо</text>
<text x="433" y="493" fill="#475569" font-size="12" text-anchor="start" font-family="monospace" font-weight="normal">4</text>
<text x="455" y="493" fill="#E0F2FE" font-size="12" text-anchor="start" font-family="monospace" font-weight="normal">pendown()      # опустить перо</text>
<rect x="20" y="460" width="760" height="110" fill="#0F172A" rx="8" stroke="#4ADE80" stroke-width="1"/>
<text x="35" y="482" fill="#4ADE80" font-size="14" text-anchor="start" font-family="sans-serif" font-weight="bold">Рисуем квадрат черепашкой</text>
<rect x="35" y="492" width="450" height="156" fill="#0F172A" rx="6" stroke="#1E293B" stroke-width="1"/>
<rect x="35" y="492" width="450" height="24" fill="#1E293B" rx="6"/>
<rect x="35" y="510" width="450" height="6" fill="#1E293B" rx="8"/>
<text x="45" y="508" fill="#7DD3FC" font-size="10" text-anchor="start" font-family="monospace" font-weight="normal">square.py</text>
<circle cx="445" cy="504" r="4" fill="#F87171"/>
<circle cx="459" cy="504" r="4" fill="#FACC15"/>
<circle cx="473" cy="504" r="4" fill="#4ADE80"/>
<text x="43" y="532" fill="#475569" font-size="12" text-anchor="start" font-family="monospace" font-weight="normal">1</text>
<text x="65" y="532" fill="#E0F2FE" font-size="12" text-anchor="start" font-family="monospace" font-weight="normal">import turtle</text>
<text x="43" y="548" fill="#475569" font-size="12" text-anchor="start" font-family="monospace" font-weight="normal">2</text>
<text x="65" y="548" fill="#E0F2FE" font-size="12" text-anchor="start" font-family="monospace" font-weight="normal"></text>
<text x="43" y="564" fill="#475569" font-size="12" text-anchor="start" font-family="monospace" font-weight="normal">3</text>
<text x="65" y="564" fill="#E0F2FE" font-size="12" text-anchor="start" font-family="monospace" font-weight="normal">for i in range(4):</text>
<text x="43" y="580" fill="#475569" font-size="12" text-anchor="start" font-family="monospace" font-weight="normal">4</text>
<text x="65" y="580" fill="#E0F2FE" font-size="12" text-anchor="start" font-family="monospace" font-weight="normal">    turtle.forward(100)</text>
<text x="43" y="596" fill="#475569" font-size="12" text-anchor="start" font-family="monospace" font-weight="normal">5</text>
<text x="65" y="596" fill="#E0F2FE" font-size="12" text-anchor="start" font-family="monospace" font-weight="normal">    turtle.right(90)</text>
<text x="43" y="612" fill="#475569" font-size="12" text-anchor="start" font-family="monospace" font-weight="normal">6</text>
<text x="65" y="612" fill="#E0F2FE" font-size="12" text-anchor="start" font-family="monospace" font-weight="normal"></text>
<text x="43" y="628" fill="#475569" font-size="12" text-anchor="start" font-family="monospace" font-weight="normal">7</text>
<text x="65" y="628" fill="#E0F2FE" font-size="12" text-anchor="start" font-family="monospace" font-weight="normal">turtle.done()</text>
<rect x="500" y="497" width="270" height="65" fill="#1E293B" rx="6"/>
<text x="510" y="515" fill="#4ADE80" font-size="11" text-anchor="start" font-family="sans-serif" font-weight="normal">Результат: квадрат 100x100</text>
<text x="510" y="533" fill="#38BDF8" font-size="10" text-anchor="start" font-family="sans-serif" font-weight="normal">Цикл for повторяет 4 раза</text>
<text x="510" y="551" fill="#7DD3FC" font-size="10" text-anchor="start" font-family="sans-serif" font-weight="normal">forward + right = сторона + поворот</text>
<rect x="0" y="570" width="800" height="30" fill="url(#bg)" rx="8"/>
<text x="400.0" y="590" fill="#7DD3FC" font-size="10" text-anchor="middle" font-family="sans-serif" font-weight="normal">Информатика · 7 класс</text>
</svg>