<?xml version='1.0' encoding='utf-8'?>
<svg xmlns="http://www.w3.org/2000/svg" width="800" height="600" viewBox="0 0 800 600">
  <defs>
    <linearGradient id="bgGrad" x1="0%" y1="0%" x2="0%" y2="100%">
      <stop offset="0%" style="stop-color:#FFF7ED;stop-opacity:1" />
      <stop offset="100%" style="stop-color:#FFEDD5;stop-opacity:1" />
    </linearGradient>
    <linearGradient id="headerGrad" x1="0%" y1="0%" x2="100%" y2="0%">
      <stop offset="0%" style="stop-color:#EA580C;stop-opacity:1" />
      <stop offset="100%" style="stop-color:#C2410C;stop-opacity:1" />
    </linearGradient>
    <filter id="shadow" x="-5%" y="-5%" width="110%" height="110%">
      <feDropShadow dx="2" dy="2" stdDeviation="3" flood-color="#00000033" />
    </filter>
  </defs>
  <rect width="800" height="600" fill="url(#bgGrad)" rx="0" />
  <rect x="0" y="0" width="800" height="80" fill="url(#headerGrad)" />
  <g transform="translate(20, 15)">
    <polygon points="25,5 5,45 45,45" fill="#FBBF24" stroke="#1C1917" stroke-width="2" />
    <text x="25" y="38" text-anchor="middle" font-size="22" font-weight="bold" fill="#1C1917">!</text>
  </g>
  <rect x="70" y="18" width="36" height="36" rx="6" fill="#FFFFFF" opacity="0.9" />
  <text x="88" y="44" text-anchor="middle" font-size="18" font-weight="bold" fill="#EA580C">4</text>
  <text x="120" y="42" font-size="22" font-weight="bold" fill="#FFFFFF">Природные чрезвычайные ситуации</text>
  <text x="120" y="64" font-size="13" fill="#FED7AA">Землетрясения, наводнения, ураганы, торнадо</text>
  <rect x="710" y="22" width="70" height="30" rx="15" fill="rgba(255,255,255,0.2)" stroke="rgba(255,255,255,0.5)" stroke-width="1" />
  <text x="745" y="43" text-anchor="middle" font-size="14" font-weight="bold" fill="#FFFFFF">ОБЖ</text>
  <rect x="710" y="52" width="70" height="22" rx="11" fill="rgba(255,255,255,0.15)" />
  <text x="745" y="67" text-anchor="middle" font-size="11" fill="#FED7AA">7 класс</text>
  <line x1="0" y1="80" x2="800" y2="80" stroke="#EA580C" stroke-width="3" />
  <rect x="20" y="100" width="370" height="180" rx="10" fill="#FFFFFF" stroke="#DC2626" stroke-width="2" filter="url(#shadow)" />
  <rect x="20" y="100" width="370" height="6" rx="3" fill="#DC2626" />
  <circle cx="44" cy="124" r="14" fill="#DC2626" />
  <text x="44" y="130" text-anchor="middle" font-size="14" font-weight="bold" fill="#FFFFFF">📉</text>
  <text x="66" y="128" font-size="14" font-weight="bold" fill="#1C1917">Землетрясение</text>
  <circle cx="40" cy="146" r="3" fill="#DC2626" />
  <text x="50" y="150" font-size="12" fill="#1C1917">Держитесь подальше от зданий</text>
  <circle cx="40" cy="166" r="3" fill="#DC2626" />
  <text x="50" y="170" font-size="12" fill="#1C1917">В здании — под столом, в дверном проёме</text>
  <circle cx="40" cy="186" r="3" fill="#DC2626" />
  <text x="50" y="190" font-size="12" fill="#1C1917">На улице — на открытом месте</text>
  <circle cx="40" cy="206" r="3" fill="#DC2626" />
  <text x="50" y="210" font-size="12" fill="#1C1917">Не пользуйтесь лифтом</text>
  <rect x="415" y="100" width="370" height="180" rx="10" fill="#FFFFFF" stroke="#2563EB" stroke-width="2" filter="url(#shadow)" />
  <rect x="415" y="100" width="370" height="6" rx="3" fill="#2563EB" />
  <circle cx="439" cy="124" r="14" fill="#2563EB" />
  <text x="439" y="130" text-anchor="middle" font-size="14" font-weight="bold" fill="#FFFFFF">🌊</text>
  <text x="461" y="128" font-size="14" font-weight="bold" fill="#1C1917">Наводнение</text>
  <circle cx="435" cy="146" r="3" fill="#2563EB" />
  <text x="445" y="150" font-size="12" fill="#1C1917">Слушайте предупреждения МЧС</text>
  <circle cx="435" cy="166" r="3" fill="#2563EB" />
  <text x="445" y="170" font-size="12" fill="#1C1917">Соберите документы и ценности</text>
  <circle cx="435" cy="186" r="3" fill="#2563EB" />
  <text x="445" y="190" font-size="12" fill="#1C1917">Поднимитесь на верхние этажи</text>
  <circle cx="435" cy="206" r="3" fill="#2563EB" />
  <text x="445" y="210" font-size="12" fill="#1C1917">Не пытайтесь переплыть поток</text>
  <rect x="20" y="320" width="370" height="180" rx="10" fill="#FFFFFF" stroke="#EA580C" stroke-width="2" filter="url(#shadow)" />
  <rect x="20" y="320" width="370" height="6" rx="3" fill="#EA580C" />
  <circle cx="44" cy="344" r="14" fill="#EA580C" />
  <text x="44" y="350" text-anchor="middle" font-size="14" font-weight="bold" fill="#FFFFFF">🌀</text>
  <text x="66" y="348" font-size="14" font-weight="bold" fill="#1C1917">Ураган</text>
  <circle cx="40" cy="366" r="3" fill="#EA580C" />
  <text x="50" y="370" font-size="12" fill="#1C1917">Закройте окна и двери</text>
  <circle cx="40" cy="386" r="3" fill="#EA580C" />
  <text x="50" y="390" font-size="12" fill="#1C1917">Находитесь в укрытии</text>
  <circle cx="40" cy="406" r="3" fill="#EA580C" />
  <text x="50" y="410" font-size="12" fill="#1C1917">Держитесь подальше от окон</text>
  <circle cx="40" cy="426" r="3" fill="#EA580C" />
  <text x="50" y="430" font-size="12" fill="#1C1917">Запасите воду и продукты</text>
  <rect x="415" y="320" width="370" height="180" rx="10" fill="#FFFFFF" stroke="#C2410C" stroke-width="2" filter="url(#shadow)" />
  <rect x="415" y="320" width="370" height="6" rx="3" fill="#C2410C" />
  <circle cx="439" cy="344" r="14" fill="#C2410C" />
  <text x="439" y="350" text-anchor="middle" font-size="14" font-weight="bold" fill="#FFFFFF">🌪</text>
  <text x="461" y="348" font-size="14" font-weight="bold" fill="#1C1917">Торнадо (смерч)</text>
  <circle cx="435" cy="366" r="3" fill="#C2410C" />
  <text x="445" y="370" font-size="12" fill="#1C1917">Укройтесь в подвале</text>
  <circle cx="435" cy="386" r="3" fill="#C2410C" />
  <text x="445" y="390" font-size="12" fill="#1C1917">В поле — лягте в яму</text>
  <circle cx="435" cy="406" r="3" fill="#C2410C" />
  <text x="445" y="410" font-size="12" fill="#1C1917">Не укрывайтесь под мостом</text>
  <circle cx="435" cy="426" r="3" fill="#C2410C" />
  <text x="445" y="430" font-size="12" fill="#1C1917">Держитесь подальше от деревьев</text>
  <rect x="20" y="530" width="760" height="28" rx="8" fill="#DC2626" />
  <text x="400" y="549" text-anchor="middle" font-size="12" font-weight="bold" fill="#FFFFFF">Единый номер вызова экстренных служб: 112</text>
  <rect x="0" y="570" width="800" height="30" fill="#1C1917" />
  <text x="400" y="590" text-anchor="middle" font-size="11" fill="#D6D3D1">Основы безопасности жизнедеятельности | 7 класс</text>
</svg>