<?xml version="1.0" encoding="UTF-8"?>
<svg xmlns="http://www.w3.org/2000/svg" viewBox="0 0 500 350" width="500" height="350">
  <defs>
    <linearGradient id="hdr" x1="0" y1="0" x2="1" y2="0">
      <stop offset="0%" stop-color="#1B5E20"/>
      <stop offset="100%" stop-color="#2E7D32"/>
    </linearGradient>
    <linearGradient id="cardBg" x1="0" y1="0" x2="0" y2="1">
      <stop offset="0%" stop-color="#FFFFFF"/>
      <stop offset="100%" stop-color="#F1F8E9"/>
    </linearGradient>
    <filter id="shadow" x="-2%" y="-2%" width="104%" height="104%">
      <feDropShadow dx="0" dy="1" stdDeviation="2" flood-color="#1B5E20" flood-opacity="0.12"/>
    </filter>
  </defs>
  <rect x="0" y="0" width="500" height="350" rx="12" ry="12" fill="#E8F5E9"/>
  <rect x="1.5" y="1.5" width="497" height="347" rx="11" ry="11" fill="none" stroke="#1B5E20" stroke-width="2.5"/>
  <rect x="3" y="3" width="494" height="52" rx="9" ry="9" fill="url(#hdr)"/>
  <rect x="3" y="35" width="494" height="20" fill="url(#hdr)"/>
  <text x="250" y="26" text-anchor="middle" font-family="Arial, sans-serif" font-size="13" fill="#FFFFFF" opacity="0.85">Экономика — Урок 11</text>
  <text x="250" y="46" text-anchor="middle" font-family="Arial, sans-serif" font-size="17" font-weight="bold" fill="#FFFFFF">Валютный рынок</text>
  <line x1="40" y1="58" x2="460" y2="58" stroke="#C8E6C9" stroke-width="0.5" opacity="0.6"/>
  <rect x="16" y="66" width="468" height="58" rx="6" ry="6" fill="url(#cardBg)" filter="url(#shadow)"/>
  <rect x="16" y="66" width="5" height="58" rx="3" ry="0" fill="#1B5E20"/>
  <rect x="18" y="66" width="3" height="58" fill="#1B5E20"/>
  <circle cx="44" cy="82" r="11" fill="#1B5E20" opacity="0.12"/>
  <circle cx="44" cy="82" r="11" fill="none" stroke="#1B5E20" stroke-width="1" opacity="0.4"/>
  <text x="44" y="86" text-anchor="middle" font-family="Arial, sans-serif" font-size="12" font-weight="bold" fill="#1B5E20">1</text>
  <text x="62" y="86" font-family="Arial, sans-serif" font-size="13" font-weight="bold" fill="#0D3B0F">Спот-рынок</text>
  <text x="62" y="104" font-family="Arial, sans-serif" font-size="11" fill="#4E6E4E">Немедленная поставка валюты (T+2)</text>
  <rect x="16" y="129" width="468" height="58" rx="6" ry="6" fill="url(#cardBg)" filter="url(#shadow)"/>
  <rect x="16" y="129" width="5" height="58" rx="3" ry="0" fill="#1B5E20"/>
  <rect x="18" y="129" width="3" height="58" fill="#1B5E20"/>
  <circle cx="44" cy="145" r="11" fill="#1B5E20" opacity="0.12"/>
  <circle cx="44" cy="145" r="11" fill="none" stroke="#1B5E20" stroke-width="1" opacity="0.4"/>
  <text x="44" y="149" text-anchor="middle" font-family="Arial, sans-serif" font-size="12" font-weight="bold" fill="#1B5E20">2</text>
  <text x="62" y="149" font-family="Arial, sans-serif" font-size="13" font-weight="bold" fill="#0D3B0F">Форвардный рынок</text>
  <text x="62" y="167" font-family="Arial, sans-serif" font-size="11" fill="#4E6E4E">Поставка в будущем по согласованному курсу</text>
  <rect x="16" y="192" width="468" height="58" rx="6" ry="6" fill="url(#cardBg)" filter="url(#shadow)"/>
  <rect x="16" y="192" width="5" height="58" rx="3" ry="0" fill="#1B5E20"/>
  <rect x="18" y="192" width="3" height="58" fill="#1B5E20"/>
  <circle cx="44" cy="208" r="11" fill="#1B5E20" opacity="0.12"/>
  <circle cx="44" cy="208" r="11" fill="none" stroke="#1B5E20" stroke-width="1" opacity="0.4"/>
  <text x="44" y="212" text-anchor="middle" font-family="Arial, sans-serif" font-size="12" font-weight="bold" fill="#1B5E20">3</text>
  <text x="62" y="212" font-family="Arial, sans-serif" font-size="13" font-weight="bold" fill="#0D3B0F">Участники</text>
  <text x="62" y="230" font-family="Arial, sans-serif" font-size="11" fill="#4E6E4E">Банки, корпорации, ЦБ, инвесторы</text>
  <rect x="16" y="255" width="468" height="58" rx="6" ry="6" fill="url(#cardBg)" filter="url(#shadow)"/>
  <rect x="16" y="255" width="5" height="58" rx="3" ry="0" fill="#1B5E20"/>
  <rect x="18" y="255" width="3" height="58" fill="#1B5E20"/>
  <circle cx="44" cy="271" r="11" fill="#1B5E20" opacity="0.12"/>
  <circle cx="44" cy="271" r="11" fill="none" stroke="#1B5E20" stroke-width="1" opacity="0.4"/>
  <text x="44" y="275" text-anchor="middle" font-family="Arial, sans-serif" font-size="12" font-weight="bold" fill="#1B5E20">4</text>
  <text x="62" y="275" font-family="Arial, sans-serif" font-size="13" font-weight="bold" fill="#0D3B0F">Объём</text>
  <text x="62" y="293" font-family="Arial, sans-serif" font-size="11" fill="#4E6E4E">~7,5 трлн $ в день (2022)</text>
  <line x1="20" y1="330" x2="480" y2="330" stroke="#1B5E20" stroke-width="0.5" opacity="0.25"/>
  <text x="250" y="344" text-anchor="middle" font-family="Arial, sans-serif" font-size="10" fill="#1B5E20" opacity="0.6">Экономика · 11 класс</text>
</svg>