<svg xmlns="http://www.w3.org/2000/svg" viewBox="0 0 500 350">
  <defs>
    <linearGradient id="bg" x1="0" y1="0" x2="0" y2="1">
      <stop offset="0%" stop-color="#FFF8E1"/>
      <stop offset="100%" stop-color="#FFFDE7"/>
    </linearGradient>
    <linearGradient id="panel" x1="0" y1="0" x2="1" y2="0">
      <stop offset="0%" stop-color="#E65100"/>
      <stop offset="100%" stop-color="#F57C00"/>
    </linearGradient>
  </defs>
  <rect width="500" height="350" fill="url(#bg)" rx="10"/>
  <rect x="3" y="3" width="494" height="344" rx="8" fill="none" stroke="#E65100" stroke-width="3"/>
  <rect x="8" y="8" width="484" height="334" rx="6" fill="none" stroke="#E65100" stroke-width="1" opacity="0.3"/>
  <polygon points="10,10 30,10 10,30" fill="#E65100" opacity="0.12"/>
  <polygon points="490,10 470,10 490,30" fill="#1565C0" opacity="0.12"/>
  <polygon points="10,340 30,340 10,320" fill="#F9A825" opacity="0.12"/>
  <polygon points="490,340 470,340 490,320" fill="#2E7D32" opacity="0.12"/>
  <text x="250" y="48" font-family="Arial,sans-serif" font-size="20" font-weight="bold" fill="#E65100" text-anchor="middle">Налоговое администрирование</text>
  <text x="250" y="68" font-family="Arial,sans-serif" font-size="12" fill="#777" text-anchor="middle">Экономика - Урок 23</text>
  <line x1="30" y1="78" x2="470" y2="78" stroke="#E65100" stroke-width="2" opacity="0.25"/>
  <rect x="30" y="75" width="60" height="5" fill="#E65100" opacity="0.18" rx="1"/>
  <rect x="410" y="75" width="60" height="5" fill="#1565C0" opacity="0.12" rx="1"/>
  <clipPath id="ill"><rect x="15" y="85" width="470" height="215" rx="6"/></clipPath>
  <g clip-path="url(#ill)">
  <rect x="15" y="85" width="470" height="215" fill="#FFF3E0"/>
  <rect x="150" y="120" width="80" height="110" rx="5" fill="none" stroke="#E65100" stroke-width="2"/>
    <rect x="160" y="135" width="60" height="25" fill="#FFF8E1" stroke="#E65100" stroke-width="1"/>
    <rect x="160" y="168" width="15" height="12" fill="#E65100" opacity="0.3" rx="1"/>
    <rect x="180" y="168" width="15" height="12" fill="#E65100" opacity="0.3" rx="1"/>
    <rect x="200" y="168" width="15" height="12" fill="#E65100" opacity="0.3" rx="1"/>
    <rect x="160" y="185" width="15" height="12" fill="#E65100" opacity="0.3" rx="1"/>
    <rect x="180" y="185" width="15" height="12" fill="#E65100" opacity="0.3" rx="1"/>
    <rect x="200" y="185" width="15" height="12" fill="#E65100" opacity="0.3" rx="1"/>
    <rect x="160" y="202" width="15" height="12" fill="#E65100" opacity="0.3" rx="1"/>
    <rect x="180" y="202" width="15" height="12" fill="#E65100" opacity="0.3" rx="1"/>
    <rect x="200" y="202" width="15" height="12" fill="#E65100" opacity="0.3" rx="1"/>
    <rect x="280" y="130" width="100" height="120" rx="3" fill="white" stroke="#1565C0" stroke-width="1.5"/>
    <line x1="295" y1="150" x2="365" y2="150" stroke="#1565C0" stroke-width="0.8" opacity="0.4"/>
    <line x1="295" y1="165" x2="365" y2="165" stroke="#1565C0" stroke-width="0.8" opacity="0.4"/>
    <line x1="295" y1="180" x2="365" y2="180" stroke="#1565C0" stroke-width="0.8" opacity="0.4"/>
    <line x1="295" y1="195" x2="365" y2="195" stroke="#1565C0" stroke-width="0.8" opacity="0.4"/>
    <line x1="295" y1="210" x2="365" y2="210" stroke="#1565C0" stroke-width="0.8" opacity="0.4"/>
    <line x1="295" y1="225" x2="365" y2="225" stroke="#1565C0" stroke-width="0.8" opacity="0.4"/>
    <text x="250" y="280" font-family="Arial,sans-serif" font-size="11" fill="#E65100" text-anchor="middle" font-weight="bold">Налоговое администрирование</text>
  </g>
  <rect x="12" y="305" width="476" height="32" rx="5" fill="url(#panel)"/>
  <line x1="20" y1="308" x2="20" y2="334" stroke="#F9A825" stroke-width="1.5" opacity="0.6"/>
  <line x1="480" y1="308" x2="480" y2="334" stroke="#F9A825" stroke-width="1.5" opacity="0.6"/>
  <text x="250" y="326" font-family="Arial,sans-serif" font-size="15" text-anchor="middle" fill="white" font-weight="bold">Экономика</text>
</svg>