<svg xmlns="http://www.w3.org/2000/svg" viewBox="0 0 500 350">
  <defs>
    <linearGradient id="bg" x1="0" y1="0" x2="0" y2="1">
      <stop offset="0%" stop-color="#FCE4EC"/>
      <stop offset="100%" stop-color="#FFFFFF"/>
    </linearGradient>
    <linearGradient id="panel" x1="0" y1="0" x2="1" y2="0">
      <stop offset="0%" stop-color="#EC407A"/>
      <stop offset="100%" stop-color="#C2185B"/>
    </linearGradient>
  </defs>
  <!-- Background -->
  <rect width="500" height="350" fill="url(#bg)" rx="10"/>
  <!-- Border -->
  <rect x="3" y="3" width="494" height="344" rx="8" fill="none" stroke="#880E4F" stroke-width="2.5"/>
  <!-- Inner decorative border -->
  <rect x="8" y="8" width="484" height="334" rx="6" fill="none" stroke="#880E4F" stroke-width="1" opacity="0.3"/>
  <!-- Corner decorations -->
  <polygon points="10,10 30,10 10,30" fill="#880E4F" opacity="0.12"/>
  <polygon points="490,10 470,10 490,30" fill="#C2185B" opacity="0.12"/>
  <polygon points="10,340 30,340 10,320" fill="#880E4F" opacity="0.12"/>
  <polygon points="490,340 470,340 490,320" fill="#C2185B" opacity="0.12"/>
  <!-- Title -->
  <text x="250" y="42" font-family="Arial,sans-serif" font-size="20" font-weight="bold" fill="#880E4F" text-anchor="middle">Анализ произведения</text>
  <!-- Subtitle -->
  <text x="250" y="62" font-family="Arial,sans-serif" font-size="11" fill="#888" text-anchor="middle">Искусство — Урок 9</text>
  <!-- Divider line -->
  <line x1="30" y1="72" x2="470" y2="72" stroke="#880E4F" stroke-width="2" opacity="0.25"/>
  <rect x="30" y="69" width="60" height="5" fill="#880E4F" opacity="0.18" rx="1"/>
  <rect x="410" y="69" width="60" height="5" fill="#C2185B" opacity="0.12" rx="1"/>
  <!-- Clip path for content area -->
  <clipPath id="ill"><rect x="15" y="80" width="470" height="220" rx="6"/></clipPath>
  <g clip-path="url(#ill)">
  <rect x="15" y="80" width="470" height="220" fill="#FCE4EC" opacity="0.4"/>
    <!-- Composition analysis -->
    <rect x="25" y="95" width="145" height="85" rx="6" fill="#FCE4EC" stroke="#880E4F" stroke-width="1.5"/>
    <text x="97" y="112" font-family="Arial,sans-serif" font-size="10" font-weight="bold" fill="#880E4F" text-anchor="middle">Композиция</text>
    <!-- Rule of thirds grid -->
    <rect x="40" y="120" width="60" height="45" fill="#880E4F" opacity="0.05" stroke="#880E4F" stroke-width="1"/>
    <line x1="60" y1="120" x2="60" y2="165" stroke="#880E4F" stroke-width="0.5" stroke-dasharray="3,2" opacity="0.5"/>
    <line x1="80" y1="120" x2="80" y2="165" stroke="#880E4F" stroke-width="0.5" stroke-dasharray="3,2" opacity="0.5"/>
    <line x1="40" y1="135" x2="100" y2="135" stroke="#880E4F" stroke-width="0.5" stroke-dasharray="3,2" opacity="0.5"/>
    <line x1="40" y1="150" x2="100" y2="150" stroke="#880E4F" stroke-width="0.5" stroke-dasharray="3,2" opacity="0.5"/>
    <!-- Focus point -->
    <circle cx="60" cy="135" r="4" fill="#C2185B" opacity="0.5"/>
    <circle cx="80" cy="150" r="4" fill="#C2185B" opacity="0.5"/>
    <text x="97" y="175" font-family="Arial,sans-serif" font-size="7" fill="#555" text-anchor="middle">Правило третей · Золотое сечение</text>

    <!-- Color analysis -->
    <rect x="180" y="95" width="145" height="85" rx="6" fill="#FCE4EC" stroke="#880E4F" stroke-width="1.5"/>
    <text x="252" y="112" font-family="Arial,sans-serif" font-size="10" font-weight="bold" fill="#880E4F" text-anchor="middle">Цвет</text>
    <!-- Color wheel simplified -->
    <circle cx="240" cy="145" r="20" fill="none" stroke="#880E4F" stroke-width="1"/>
    <circle cx="240" cy="128" r="6" fill="#E53935" opacity="0.7"/>
    <circle cx="257" cy="138" r="6" fill="#FFB300" opacity="0.7"/>
    <circle cx="257" cy="155" r="6" fill="#43A047" opacity="0.7"/>
    <circle cx="240" cy="162" r="6" fill="#1E88E5" opacity="0.7"/>
    <circle cx="223" cy="155" r="6" fill="#8E24AA" opacity="0.7"/>
    <circle cx="223" cy="138" r="6" fill="#E53935" opacity="0.5"/>
    <!-- Temperature arrow -->
    <line x1="275" y1="132" x2="290" y2="132" stroke="#C2185B" stroke-width="1"/>
    <text x="282" y="128" font-family="Arial,sans-serif" font-size="6" fill="#555">тёпл.</text>
    <line x1="275" y1="155" x2="290" y2="155" stroke="#1E88E5" stroke-width="1"/>
    <text x="282" y="163" font-family="Arial,sans-serif" font-size="6" fill="#555">холод.</text>
    <text x="252" y="175" font-family="Arial,sans-serif" font-size="7" fill="#555" text-anchor="middle">Контраст · Гармония · Нюанс</text>

    <!-- Form & Content -->
    <rect x="335" y="95" width="140" height="85" rx="6" fill="#FCE4EC" stroke="#880E4F" stroke-width="1.5"/>
    <text x="405" y="112" font-family="Arial,sans-serif" font-size="10" font-weight="bold" fill="#880E4F" text-anchor="middle">Форма и содержание</text>
    <!-- Form box -->
    <rect x="350" y="120" width="45" height="45" rx="2" fill="none" stroke="#880E4F" stroke-width="1.5"/>
    <text x="372" y="138" font-family="Arial,sans-serif" font-size="8" fill="#880E4F" text-anchor="middle">Ф</text>
    <text x="372" y="150" font-family="Arial,sans-serif" font-size="7" fill="#555" text-anchor="middle">форма</text>
    <!-- Arrow -->
    <line x1="398" y1="142" x2="410" y2="142" stroke="#C2185B" stroke-width="1.5"/>
    <polygon points="410,139 416,142 410,145" fill="#C2185B"/>
    <!-- Content box -->
    <rect x="418" y="120" width="45" height="45" rx="2" fill="#880E4F" opacity="0.1" stroke="#880E4F" stroke-width="1.5"/>
    <text x="440" y="138" font-family="Arial,sans-serif" font-size="8" fill="#880E4F" text-anchor="middle">С</text>
    <text x="440" y="150" font-family="Arial,sans-serif" font-size="7" fill="#555" text-anchor="middle">смысл</text>
    <text x="405" y="175" font-family="Arial,sans-serif" font-size="7" fill="#555" text-anchor="middle">Единство формы и идеи</text>

    <!-- Analysis steps -->
    <rect x="25" y="190" width="450" height="50" rx="6" fill="white" stroke="#880E4F" stroke-width="1" opacity="0.9"/>
    <text x="250" y="207" font-family="Arial,sans-serif" font-size="9" font-weight="bold" fill="#880E4F" text-anchor="middle">Этапы анализа произведения:</text>
    <rect x="35" y="215" width="80" height="18" rx="9" fill="#880E4F" opacity="0.15"/>
    <text x="75" y="228" font-family="Arial,sans-serif" font-size="7" fill="#880E4F" text-anchor="middle">1. Описание</text>
    <rect x="125" y="215" width="80" height="18" rx="9" fill="#880E4F" opacity="0.2"/>
    <text x="165" y="228" font-family="Arial,sans-serif" font-size="7" fill="#880E4F" text-anchor="middle">2. Анализ формы</text>
    <rect x="215" y="215" width="80" height="18" rx="9" fill="#880E4F" opacity="0.25"/>
    <text x="255" y="228" font-family="Arial,sans-serif" font-size="7" fill="#880E4F" text-anchor="middle">3. Интерпретация</text>
    <rect x="305" y="215" width="80" height="18" rx="9" fill="#880E4F" opacity="0.3"/>
    <text x="345" y="228" font-family="Arial,sans-serif" font-size="7" fill="#880E4F" text-anchor="middle">4. Оценка</text>
    <rect x="395" y="215" width="70" height="18" rx="9" fill="#880E4F" opacity="0.35"/>
    <text x="430" y="228" font-family="Arial,sans-serif" font-size="7" fill="#880E4F" text-anchor="middle">5. Контекст</text>

    <!-- Key terms -->
    <rect x="25" y="250" width="450" height="40" rx="6" fill="white" stroke="#880E4F" stroke-width="1" opacity="0.9"/>
    <text x="250" y="266" font-family="Arial,sans-serif" font-size="9" font-weight="bold" fill="#880E4F" text-anchor="middle">Инструменты анализа:</text>
    <text x="250" y="280" font-family="Arial,sans-serif" font-size="8" fill="#555" text-anchor="middle">Линия · Пятно · Фактура · Ритм · Светотень · Колорит · Силуэт · Пропорции</text>
  </g>
  <!-- Footer panel -->
  <rect x="12" y="305" width="476" height="35" rx="5" fill="url(#panel)"/>
  <line x1="20" y1="308" x2="20" y2="337" stroke="#880E4F" stroke-width="1.5" opacity="0.6"/>
  <line x1="480" y1="308" x2="480" y2="337" stroke="#880E4F" stroke-width="1.5" opacity="0.6"/>
  <text x="250" y="328" font-family="Arial,sans-serif" font-size="14" text-anchor="middle" fill="white" font-weight="bold">Искусство · 10 класс</text>
</svg>