<svg xmlns="http://www.w3.org/2000/svg" viewBox="0 0 500 350">
  <defs>
    <linearGradient id="bg" x1="0" y1="0" x2="0" y2="1">
      <stop offset="0%" stop-color="#FCE4EC"/>
      <stop offset="100%" stop-color="#FFFFFF"/>
    </linearGradient>
    <linearGradient id="panel" x1="0" y1="0" x2="1" y2="0">
      <stop offset="0%" stop-color="#EC407A"/>
      <stop offset="100%" stop-color="#C2185B"/>
    </linearGradient>
  </defs>
  <!-- Background -->
  <rect width="500" height="350" fill="url(#bg)" rx="10"/>
  <!-- Border -->
  <rect x="3" y="3" width="494" height="344" rx="8" fill="none" stroke="#880E4F" stroke-width="2.5"/>
  <!-- Inner decorative border -->
  <rect x="8" y="8" width="484" height="334" rx="6" fill="none" stroke="#880E4F" stroke-width="1" opacity="0.3"/>
  <!-- Corner decorations -->
  <polygon points="10,10 30,10 10,30" fill="#880E4F" opacity="0.12"/>
  <polygon points="490,10 470,10 490,30" fill="#C2185B" opacity="0.12"/>
  <polygon points="10,340 30,340 10,320" fill="#880E4F" opacity="0.12"/>
  <polygon points="490,340 470,340 490,320" fill="#C2185B" opacity="0.12"/>
  <!-- Title -->
  <text x="250" y="42" font-family="Arial,sans-serif" font-size="20" font-weight="bold" fill="#880E4F" text-anchor="middle">Итоговая работа</text>
  <!-- Subtitle -->
  <text x="250" y="62" font-family="Arial,sans-serif" font-size="11" fill="#888" text-anchor="middle">Искусство — Урок 12</text>
  <!-- Divider line -->
  <line x1="30" y1="72" x2="470" y2="72" stroke="#880E4F" stroke-width="2" opacity="0.25"/>
  <rect x="30" y="69" width="60" height="5" fill="#880E4F" opacity="0.18" rx="1"/>
  <rect x="410" y="69" width="60" height="5" fill="#C2185B" opacity="0.12" rx="1"/>
  <!-- Clip path for content area -->
  <clipPath id="ill"><rect x="15" y="80" width="470" height="220" rx="6"/></clipPath>
  <g clip-path="url(#ill)">
  <rect x="15" y="80" width="470" height="220" fill="#FCE4EC" opacity="0.4"/>
    <!-- Summary of course -->
    <rect x="25" y="95" width="450" height="40" rx="6" fill="#FCE4EC" stroke="#880E4F" stroke-width="1.5"/>
    <text x="250" y="112" font-family="Arial,sans-serif" font-size="10" font-weight="bold" fill="#880E4F" text-anchor="middle">Путь через историю искусства</text>
    <!-- Timeline arrow -->
    <line x1="40" y1="125" x2="460" y2="125" stroke="#880E4F" stroke-width="2" opacity="0.5"/>
    <polygon points="460,121 468,125 460,129" fill="#880E4F" opacity="0.5"/>
    <!-- Period markers -->
    <circle cx="60" cy="125" r="4" fill="#880E4F"/>
    <text x="60" y="118" font-family="Arial,sans-serif" font-size="6" fill="#555" text-anchor="middle">Древность</text>
    <circle cx="120" cy="125" r="4" fill="#880E4F"/>
    <text x="120" y="118" font-family="Arial,sans-serif" font-size="6" fill="#555" text-anchor="middle">Ср. века</text>
    <circle cx="180" cy="125" r="4" fill="#880E4F"/>
    <text x="180" y="118" font-family="Arial,sans-serif" font-size="6" fill="#555" text-anchor="middle">Возрожд.</text>
    <circle cx="240" cy="125" r="4" fill="#880E4F"/>
    <text x="240" y="118" font-family="Arial,sans-serif" font-size="6" fill="#555" text-anchor="middle">Русское</text>
    <circle cx="300" cy="125" r="4" fill="#880E4F"/>
    <text x="300" y="118" font-family="Arial,sans-serif" font-size="6" fill="#555" text-anchor="middle">Модерн.</text>
    <circle cx="360" cy="125" r="4" fill="#880E4F"/>
    <text x="360" y="118" font-family="Arial,sans-serif" font-size="6" fill="#555" text-anchor="middle">Современ.</text>
    <circle cx="420" cy="125" r="4" fill="#C2185B"/>
    <text x="420" y="118" font-family="Arial,sans-serif" font-size="6" fill="#555" text-anchor="middle">Технол.</text>

    <!-- Portfolio components -->
    <rect x="25" y="145" width="220" height="75" rx="6" fill="white" stroke="#880E4F" stroke-width="1" opacity="0.9"/>
    <text x="135" y="162" font-family="Arial,sans-serif" font-size="10" font-weight="bold" fill="#880E4F" text-anchor="middle">Портфолио</text>
    <!-- Checklist -->
    <rect x="40" y="170" width="8" height="8" rx="1" fill="none" stroke="#880E4F" stroke-width="1"/>
    <line x1="42" y1="174" x2="45" y2="177" stroke="#880E4F" stroke-width="1"/>
    <line x1="45" y1="177" x2="48" y2="172" stroke="#880E4F" stroke-width="1"/>
    <text x="55" y="178" font-family="Arial,sans-serif" font-size="8" fill="#555">Выбор произведения</text>
    <rect x="40" y="182" width="8" height="8" rx="1" fill="none" stroke="#880E4F" stroke-width="1"/>
    <line x1="42" y1="186" x2="45" y2="189" stroke="#880E4F" stroke-width="1"/>
    <line x1="45" y1="189" x2="48" y2="184" stroke="#880E4F" stroke-width="1"/>
    <text x="55" y="190" font-family="Arial,sans-serif" font-size="8" fill="#555">Анализ и критика</text>
    <rect x="40" y="194" width="8" height="8" rx="1" fill="none" stroke="#880E4F" stroke-width="1"/>
    <text x="55" y="202" font-family="Arial,sans-serif" font-size="8" fill="#555">Собственная работа</text>
    <rect x="40" y="206" width="8" height="8" rx="1" fill="none" stroke="#880E4F" stroke-width="1"/>
    <text x="55" y="214" font-family="Arial,sans-serif" font-size="8" fill="#555">Рефлексия и выводы</text>

    <!-- Assessment criteria -->
    <rect x="260" y="145" width="215" height="75" rx="6" fill="white" stroke="#880E4F" stroke-width="1" opacity="0.9"/>
    <text x="367" y="162" font-family="Arial,sans-serif" font-size="10" font-weight="bold" fill="#880E4F" text-anchor="middle">Критерии оценки</text>
    <!-- Progress bars -->
    <text x="275" y="178" font-family="Arial,sans-serif" font-size="7" fill="#555">Знание теории</text>
    <rect x="350" y="172" width="100" height="6" rx="3" fill="#FCE4EC"/>
    <rect x="350" y="172" width="85" height="6" rx="3" fill="#880E4F" opacity="0.4"/>
    <text x="275" y="192" font-family="Arial,sans-serif" font-size="7" fill="#555">Анализ произведений</text>
    <rect x="350" y="186" width="100" height="6" rx="3" fill="#FCE4EC"/>
    <rect x="350" y="186" width="75" height="6" rx="3" fill="#880E4F" opacity="0.5"/>
    <text x="275" y="206" font-family="Arial,sans-serif" font-size="7" fill="#555">Творческая работа</text>
    <rect x="350" y="200" width="100" height="6" rx="3" fill="#FCE4EC"/>
    <rect x="350" y="200" width="90" height="6" rx="3" fill="#880E4F" opacity="0.6"/>
    <text x="275" y="214" font-family="Arial,sans-serif" font-size="7" fill="#555">Обоснование позиции</text>
    <rect x="350" y="208" width="100" height="6" rx="3" fill="#FCE4EC"/>
    <rect x="350" y="208" width="65" height="6" rx="3" fill="#880E4F" opacity="0.7"/>

    <!-- Final message -->
    <rect x="25" y="230" width="450" height="60" rx="6" fill="white" stroke="#880E4F" stroke-width="1" opacity="0.9"/>
    <text x="250" y="250" font-family="Arial,sans-serif" font-size="10" font-weight="bold" fill="#880E4F" text-anchor="middle">Что мы изучили:</text>
    <text x="250" y="265" font-family="Arial,sans-serif" font-size="8" fill="#555" text-anchor="middle">От наскальных рисунков до цифрового искусства — история человечества</text>
    <text x="250" y="278" font-family="Arial,sans-serif" font-size="8" fill="#555" text-anchor="middle">через призму творчества. Анализ, критика, создание собственных произведений.</text>
  </g>
  <!-- Footer panel -->
  <rect x="12" y="305" width="476" height="35" rx="5" fill="url(#panel)"/>
  <line x1="20" y1="308" x2="20" y2="337" stroke="#880E4F" stroke-width="1.5" opacity="0.6"/>
  <line x1="480" y1="308" x2="480" y2="337" stroke="#880E4F" stroke-width="1.5" opacity="0.6"/>
  <text x="250" y="328" font-family="Arial,sans-serif" font-size="14" text-anchor="middle" fill="white" font-weight="bold">Искусство · 10 класс</text>
</svg>