<svg xmlns="http://www.w3.org/2000/svg" viewBox="0 0 500 350">
  <defs><linearGradient id="bg" x1="0%" y1="0%" x2="100%" y2="100%">
    <stop offset="0%" style="stop-color:#ECEFF1;stop-opacity:0.7"/><stop offset="100%" style="stop-color:#CFD8DC;stop-opacity:0.4"/>
  </linearGradient></defs>
  <rect width="500" height="350" fill="url(#bg)" rx="14"/>
  <rect x="3" y="3" width="494" height="344" rx="8" fill="none" stroke="#37474F" stroke-width="2.5" opacity="0.35"/>
  <rect x="8" y="8" width="484" height="334" rx="6" fill="none" stroke="#37474F" stroke-width="1" opacity="0.15"/>
<text x="250" y="52" font-family="Arial,sans-serif" font-size="22" font-weight="bold" fill="#37474F" text-anchor="middle">Что такое робототехника</text>
  <text x="250" y="72" font-family="Arial,sans-serif" font-size="11" fill="#555" text-anchor="middle">Робототехника - Урок 1</text>
  <line x1="30" y1="82" x2="470" y2="82" stroke="#37474F" stroke-width="2" opacity="0.3"/>
  <rect x="40" y="74" width="100" height="5" rx="2.5" fill="#37474F" opacity="0.15"/>

  <rect x="25" y="95" width="215" height="90" rx="8" fill="white" stroke="#37474F" stroke-width="2.5"/>
  <text x="133" y="135" font-family="Arial,sans-serif" font-size="24" text-anchor="middle">🤖</text>
  <text x="133" y="163" font-family="Arial,sans-serif" font-size="16" text-anchor="middle" fill="#212121" font-weight="bold">Робот</text>
  <text x="133" y="178" font-family="Arial,sans-serif" font-size="11" text-anchor="middle" fill="#555">машина</text>
  <rect x="260" y="95" width="215" height="90" rx="8" fill="white" stroke="#37474F" stroke-width="2.5"/>
  <text x="368" y="135" font-family="Arial,sans-serif" font-size="24" text-anchor="middle">⚙️</text>
  <text x="368" y="163" font-family="Arial,sans-serif" font-size="16" text-anchor="middle" fill="#212121" font-weight="bold">Автомат</text>
  <text x="368" y="178" font-family="Arial,sans-serif" font-size="11" text-anchor="middle" fill="#555">программа</text>
  <rect x="25" y="200" width="215" height="90" rx="8" fill="white" stroke="#37474F" stroke-width="2.5"/>
  <text x="133" y="240" font-family="Arial,sans-serif" font-size="24" text-anchor="middle">📡</text>
  <text x="133" y="268" font-family="Arial,sans-serif" font-size="16" text-anchor="middle" fill="#212121" font-weight="bold">Сенсор</text>
  <text x="133" y="283" font-family="Arial,sans-serif" font-size="11" text-anchor="middle" fill="#555">датчик</text>
  <rect x="260" y="200" width="215" height="90" rx="8" fill="white" stroke="#37474F" stroke-width="2.5"/>
  <text x="368" y="240" font-family="Arial,sans-serif" font-size="24" text-anchor="middle">🔲</text>
  <text x="368" y="268" font-family="Arial,sans-serif" font-size="16" text-anchor="middle" fill="#212121" font-weight="bold">Микро-контр.</text>
  <text x="368" y="283" font-family="Arial,sans-serif" font-size="11" text-anchor="middle" fill="#555">плата</text>
  <rect x="15" y="308" width="470" height="30" rx="4" fill="#37474F" opacity="0.85"/>
  <text x="250" y="329" font-family="Arial,sans-serif" font-size="14" text-anchor="middle" fill="white" font-weight="bold">Что такое робототехника</text>
    <!-- Robotics: gears -->
    <circle cx="450" cy="118" r="14" fill="none" stroke="#37474F" stroke-width="1.5" opacity="0.12"/>
    <circle cx="450" cy="118" r="5" fill="none" stroke="#607D8B" stroke-width="1" opacity="0.1"/>
    <circle cx="472" cy="138" r="10" fill="none" stroke="#78909C" stroke-width="1" opacity="0.1"/>
    <circle cx="472" cy="138" r="3.5" fill="none" stroke="#78909C" stroke-width="0.8" opacity="0.08"/>
  <text x="20" y="335" font-size="22" opacity="0.06">🤖</text>
</svg>