<svg xmlns="http://www.w3.org/2000/svg" viewBox="0 0 500 350">
  <defs>
    <linearGradient id="bg" x1="0" y1="0" x2="1" y2="1">
      <stop offset="0%" stop-color="#E8EAF6"/>
      <stop offset="100%" stop-color="#C5CAE9"/>
    </linearGradient>
    <linearGradient id="panel" x1="0" y1="0" x2="1" y2="0">
      <stop offset="0%" stop-color="#283593"/>
      <stop offset="100%" stop-color="#3949AB"/>
    </linearGradient>
  </defs>
  <rect width="500" height="350" fill="url(#bg)" rx="10"/>
  <rect x="3" y="3" width="494" height="344" rx="8" fill="none" stroke="#283593" stroke-width="2.5"/>
  <text x="250" y="42" font-family="Arial,sans-serif" font-size="16" font-weight="bold" fill="#283593" text-anchor="middle">Урок 2: Passive Voice</text>
  <text x="250" y="62" font-family="Arial,sans-serif" font-size="11" fill="#888" text-anchor="middle">Английский язык — Урок 2</text>
  <line x1="30" y1="72" x2="470" y2="72" stroke="#283593" stroke-width="2" opacity="0.25"/>
  <clipPath id="ill"><rect x="15" y="78" width="470" height="220" rx="6"/></clipPath>
  <g clip-path="url(#ill)">
    <rect x="15" y="78" width="470" height="220" fill="#E8EAF6" opacity="0.5"/>
    <line x1="30" y1="90" x2="180" y2="260" stroke="#C62828" stroke-width="3" opacity="0.3"/>
<line x1="180" y1="90" x2="30" y2="260" stroke="#C62828" stroke-width="3" opacity="0.3"/>
<line x1="105" y1="90" x2="105" y2="260" stroke="#283593" stroke-width="5" opacity="0.2"/>
<line x1="30" y1="175" x2="180" y2="175" stroke="#283593" stroke-width="5" opacity="0.2"/>
<rect x="370" y="203" width="135" height="41" rx="10" fill="white" stroke="#5C6BC0" stroke-width="1.5"/>
<polygon points="385,244 395,254 405,244" fill="white" stroke="#5C6BC0" stroke-width="1"/>
<text x="437" y="227" font-family="Arial" font-size="10" fill="#5C6BC0" text-anchor="middle">Thank you!</text>
<rect x="402" y="227" width="99" height="51" rx="10" fill="white" stroke="#3949AB" stroke-width="1.5"/>
<polygon points="417,278 427,288 437,278" fill="white" stroke="#3949AB" stroke-width="1"/>
<text x="451" y="256" font-family="Arial" font-size="10" fill="#3949AB" text-anchor="middle">Thank you!</text>
<rect x="215" y="121" width="105" height="51" rx="10" fill="white" stroke="#5C6BC0" stroke-width="1.5"/>
<polygon points="230,172 240,182 250,172" fill="white" stroke="#5C6BC0" stroke-width="1"/>
<text x="267" y="150" font-family="Arial" font-size="10" fill="#5C6BC0" text-anchor="middle">Please</text>
<rect x="202" y="229" width="121" height="43" rx="10" fill="white" stroke="#283593" stroke-width="1.5"/>
<polygon points="217,272 227,282 237,272" fill="white" stroke="#283593" stroke-width="1"/>
<text x="262" y="254" font-family="Arial" font-size="10" fill="#283593" text-anchor="middle">Welcome!</text>
<rect x="39" y="253" width="55" height="20" rx="3" fill="#FF8F00" opacity="0.3"/>
<text x="66" y="267" font-family="Arial" font-size="8" fill="#E65100" text-anchor="middle">idiom</text>
  </g>
  <rect x="12" y="305" width="476" height="35" rx="5" fill="url(#panel)"/>
  <text x="250" y="328" font-family="Arial,sans-serif" font-size="14" text-anchor="middle" fill="white" font-weight="bold">Английский язык · 10 класс</text>
</svg>