<svg xmlns="http://www.w3.org/2000/svg" viewBox="0 0 500 350">
<defs>
<linearGradient id="bg" x1="0" y1="0" x2="1" y2="1"><stop offset="0%" stop-color="#F1F8E9"/><stop offset="100%" stop-color="#DCEDC8"/></linearGradient>
</defs>
<rect width="500" height="350" fill="url(#bg)" rx="10"/>
<rect x="3" y="3" width="494" height="344" rx="8" fill="none" stroke="#33691E" stroke-width="2.5"/>
<text x="250" y="28" font-family="Arial,sans-serif" font-size="14" font-weight="bold" fill="#1B5E20" text-anchor="middle">Шляпочные грибы</text>
<text x="250" y="43" font-family="Arial,sans-serif" font-size="9" fill="#666" text-anchor="middle">Биология 5 класс — Урок 14</text>
<line x1="30" y1="50" x2="470" y2="50" stroke="#33691E" stroke-width="1" opacity="0.3"/>

<!-- White mushroom (Боровик/Белый) -->
<g transform="translate(80,160)">
  <rect x="-55" y="-80" width="110" height="155" rx="8" fill="white" opacity="0.9" stroke="#33691E" stroke-width="1"/>
  <text x="0" y="-63" font-family="Arial,sans-serif" font-size="7" fill="#1B5E20" text-anchor="middle" font-weight="bold">БЕЛЫЙ ГРИБ</text>
  <line x1="-45" y1="-57" x2="45" y2="-57" stroke="#33691E" stroke-width="0.5"/>
  <!-- Cap - brown -->
  <path d="M-35,-45 Q-30,-60 -15,-55 Q0,-52 15,-55 Q30,-60 35,-45 Q25,-38 0,-36 Q-25,-38 -35,-45" fill="#795548" stroke="#4E342E" stroke-width="1.5"/>
  <!-- Stem - thick, light -->
  <rect x="-8" y="-36" width="16" height="45" rx="5" fill="#EFEBE9" stroke="#8D6E63" stroke-width="1"/>
  <!-- Stem texture -->
  <path d="M-5,-20 Q0,-18 5,-20" fill="none" stroke="#BCAAA4" stroke-width="0.5"/>
  <path d="M-5,-10 Q0,-8 5,-10" fill="none" stroke="#BCAAA4" stroke-width="0.5"/>
  <!-- Tubes under cap (not gills) -->
  <rect x="-20" y="-40" width="40" height="5" rx="1" fill="#FFE0B2" stroke="#BCAAA4" stroke-width="0.5"/>
  <text x="0" y="20" font-family="Arial,sans-serif" font-size="5" fill="#1B5E20" text-anchor="middle">Трубчатый гриб</text>
  <text x="0" y="30" font-family="Arial,sans-serif" font-size="5" fill="#1B5E20" text-anchor="middle">Съедобный</text>
</g>

<!-- Fly agaric (Мухомор) -->
<g transform="translate(220,160)">
  <rect x="-55" y="-80" width="110" height="155" rx="8" fill="white" opacity="0.9" stroke="#C62828" stroke-width="1"/>
  <text x="0" y="-63" font-family="Arial,sans-serif" font-size="7" fill="#C62828" text-anchor="middle" font-weight="bold">МУХОМОР</text>
  <line x1="-45" y1="-57" x2="45" y2="-57" stroke="#C62828" stroke-width="0.5"/>
  <!-- Cap - red with white spots -->
  <path d="M-35,-45 Q-30,-60 -15,-55 Q0,-52 15,-55 Q30,-60 35,-45 Q25,-38 0,-36 Q-25,-38 -35,-45" fill="#F44336" stroke="#C62828" stroke-width="1.5"/>
  <!-- White spots -->
  <circle cx="-20" cy="-52" r="4" fill="white" opacity="0.9"/>
  <circle cx="-8" cy="-48" r="3" fill="white" opacity="0.9"/>
  <circle cx="5" cy="-52" r="4" fill="white" opacity="0.9"/>
  <circle cx="18" cy="-48" r="3" fill="white" opacity="0.9"/>
  <circle cx="-12" cy="-43" r="2.5" fill="white" opacity="0.9"/>
  <circle cx="12" cy="-43" r="2.5" fill="white" opacity="0.9"/>
  <!-- Stem - thin, white -->
  <rect x="-6" y="-36" width="12" height="45" rx="4" fill="white" stroke="#BDBDBD" stroke-width="1"/>
  <!-- Ring -->
  <rect x="-10" y="-20" width="20" height="4" rx="2" fill="#E0E0E0" stroke="#9E9E9E" stroke-width="0.5"/>
  <!-- Volva (воронка) at base -->
  <path d="M-12,9 Q-15,15 -8,12 Q0,10 8,12 Q15,15 12,9" fill="#E0E0E0" stroke="#9E9E9E" stroke-width="0.8"/>
  <!-- Gills under cap -->
  <line x1="-20" y1="-38" x2="-10" y2="-32" stroke="#FFCDD2" stroke-width="0.5"/>
  <line x1="-10" y1="-39" x2="0" y2="-32" stroke="#FFCDD2" stroke-width="0.5"/>
  <line x1="0" y1="-40" x2="10" y2="-32" stroke="#FFCDD2" stroke-width="0.5"/>
  <line x1="10" y1="-39" x2="20" y2="-32" stroke="#FFCDD2" stroke-width="0.5"/>
  <text x="0" y="20" font-family="Arial,sans-serif" font-size="5" fill="#C62828" text-anchor="middle">Пластинчатый гриб</text>
  <rect x="-25" y="25" width="50" height="15" rx="3" fill="#FFEBEE" stroke="#C62828" stroke-width="0.8"/>
  <text x="0" y="35" font-family="Arial,sans-serif" font-size="6" fill="#C62828" text-anchor="middle" font-weight="bold">ЯДОВИТ!</text>
</g>

<!-- Mycorrhiza illustration -->
<g transform="translate(380,140)">
  <rect x="-75" y="-65" width="150" height="120" rx="8" fill="white" opacity="0.9" stroke="#FF9800" stroke-width="1.5"/>
  <text x="0" y="-48" font-family="Arial,sans-serif" font-size="8" fill="#E65100" text-anchor="middle" font-weight="bold">МИКОРИЗА</text>
  <text x="0" y="-38" font-family="Arial,sans-serif" font-size="5.5" fill="#E65100" text-anchor="middle">(грибокорень)</text>
  <line x1="-65" y1="-32" x2="65" y2="-32" stroke="#FF9800" stroke-width="0.5"/>
  
  <!-- Tree root -->
  <path d="M-50,-15 Q-25,-20 0,-15 Q25,-10 50,-15" fill="none" stroke="#795548" stroke-width="5" stroke-linecap="round"/>
  <!-- Fungal hyphae wrapping around root -->
  <path d="M-40,-18 Q-35,-25 -25,-18 Q-20,-12 -10,-18 Q-5,-25 5,-18 Q10,-12 20,-18 Q25,-25 35,-18" fill="none" stroke="#FF9800" stroke-width="1.5"/>
  <path d="M-35,-12 Q-30,-18 -20,-12 Q-15,-5 -5,-12 Q0,-18 10,-12 Q15,-5 25,-12 Q30,-18 40,-12" fill="none" stroke="#FF9800" stroke-width="1.5"/>
  <!-- Hyphae going into soil -->
  <path d="M-30,-15 Q-35,5 -40,15" fill="none" stroke="#FF9800" stroke-width="1"/>
  <path d="M-10,-15 Q-15,5 -20,15" fill="none" stroke="#FF9800" stroke-width="1"/>
  <path d="M10,-15 Q5,5 0,15" fill="none" stroke="#FF9800" stroke-width="1"/>
  <path d="M30,-15 Q25,5 20,15" fill="none" stroke="#FF9800" stroke-width="1"/>
  <!-- Root label -->
  <text x="0" y="25" font-family="Arial,sans-serif" font-size="5" fill="#795548" text-anchor="middle">Корень дерева</text>
  <text x="0" y="35" font-family="Arial,sans-serif" font-size="5" fill="#E65100" text-anchor="middle">Гифы гриба обвивают корень</text>
  <text x="0" y="45" font-family="Arial,sans-serif" font-size="5" fill="#666" text-anchor="middle">Взаимовыгодный симбиоз!</text>
</g>

<!-- Bottom classification -->
<rect x="30" y="265" width="210" height="70" rx="6" fill="white" opacity="0.9" stroke="#33691E" stroke-width="1"/>
<text x="135" y="282" font-family="Arial,sans-serif" font-size="7" fill="#1B5E20" text-anchor="middle" font-weight="bold">Трубчатые грибы</text>
<text x="135" y="293" font-family="Arial,sans-serif" font-size="5.5" fill="#666" text-anchor="middle">Белый, подберёзовик, подосиновик,</text>
<text x="135" y="303" font-family="Arial,sans-serif" font-size="5.5" fill="#666" text-anchor="middle">маслёнок — трубочки под шляпкой</text>
<rect x="260" y="265" width="210" height="70" rx="6" fill="white" opacity="0.9" stroke="#33691E" stroke-width="1"/>
<text x="365" y="282" font-family="Arial,sans-serif" font-size="7" fill="#1B5E20" text-anchor="middle" font-weight="bold">Пластинчатые грибы</text>
<text x="365" y="293" font-family="Arial,sans-serif" font-size="5.5" fill="#666" text-anchor="middle">Сыроежка, рыжик, шампиньон,</text>
<text x="365" y="303" font-family="Arial,sans-serif" font-size="5.5" fill="#666" text-anchor="middle">волнушка — пластинки под шляпкой</text>
</svg>