<svg xmlns="http://www.w3.org/2000/svg" viewBox="0 0 500 350">
<defs>
<linearGradient id="bg" x1="0" y1="0" x2="1" y2="1"><stop offset="0%" stop-color="#FCE4EC"/><stop offset="100%" stop-color="#F8BBD0"/></linearGradient>
</defs>
<rect width="500" height="350" fill="url(#bg)" rx="10"/>
<rect x="3" y="3" width="494" height="344" rx="8" fill="none" stroke="#C2185B" stroke-width="2.5"/>
<text x="250" y="28" font-family="Arial,sans-serif" font-size="13" font-weight="bold" fill="#880E4F" text-anchor="middle">Покрытосеменные (Цветковые)</text>
<text x="250" y="43" font-family="Arial,sans-serif" font-size="9" fill="#666" text-anchor="middle">Биология 5 класс — Урок 23</text>
<line x1="30" y1="50" x2="470" y2="50" stroke="#C2185B" stroke-width="1" opacity="0.3"/>

<!-- Flower structure -->
<g transform="translate(155,175)">
  <rect x="-110" y="-95" width="220" height="185" rx="8" fill="white" opacity="0.9" stroke="#C2185B" stroke-width="1.5"/>
  <text x="0" y="-78" font-family="Arial,sans-serif" font-size="9" fill="#880E4F" text-anchor="middle" font-weight="bold">СТРОЕНИЕ ЦВЕТКА</text>
  <line x1="-100" y1="-72" x2="100" y2="-72" stroke="#C2185B" stroke-width="0.5"/>
  
  <!-- Pedicel -->
  <line x1="0" y1="60" x2="0" y2="80" stroke="#4CAF50" stroke-width="3"/>
  <text x="15" y="75" font-family="Arial,sans-serif" font-size="5" fill="#2E7D32">Цветоножка</text>
  
  <!-- Receptacle -->
  <ellipse cx="0" cy="55" rx="15" ry="5" fill="#81C784" stroke="#4CAF50" stroke-width="1"/>
  <text x="25" y="58" font-family="Arial,sans-serif" font-size="5" fill="#2E7D32">Цветоложе</text>
  
  <!-- Sepals (чашелистики) -->
  <path d="M-30,40 Q-35,30 -25,25 Q-15,35 -20,45" fill="#66BB6A" stroke="#2E7D32" stroke-width="1"/>
  <path d="M30,40 Q35,30 25,25 Q15,35 20,45" fill="#66BB6A" stroke="#2E7D32" stroke-width="1"/>
  <path d="M-10,20 Q-15,10 -5,5 Q0,15 -5,25" fill="#81C784" stroke="#2E7D32" stroke-width="0.8"/>
  <path d="M10,20 Q15,10 5,5 Q0,15 5,25" fill="#81C784" stroke="#2E7D32" stroke-width="0.8"/>
  <text x="-55" y="35" font-family="Arial,sans-serif" font-size="5" fill="#2E7D32">Чашелистики</text>
  <text x="-55" y="42" font-family="Arial,sans-serif" font-size="5" fill="#2E7D32">(чашечка)</text>
  
  <!-- Petals (лепестки) -->
  <path d="M-40,15 Q-50,-10 -30,-20 Q-10,-15 -20,5" fill="#F48FB1" stroke="#C2185B" stroke-width="1"/>
  <path d="M40,15 Q50,-10 30,-20 Q10,-15 20,5" fill="#F48FB1" stroke="#C2185B" stroke-width="1"/>
  <path d="M-25,-15 Q-30,-45 0,-50 Q30,-45 25,-15" fill="#EC407A" stroke="#C2185B" stroke-width="1"/>
  <text x="55" y="-10" font-family="Arial,sans-serif" font-size="5" fill="#C2185B">Лепестки</text>
  <text x="55" y="-3" font-family="Arial,sans-serif" font-size="5" fill="#C2185B">(венчик)</text>
  
  <!-- Stamens (тычинки) -->
  <line x1="-12" y1="-10" x2="-18" y2="-35" stroke="#FFD54F" stroke-width="1.5"/>
  <ellipse cx="-18" cy="-38" rx="4" ry="6" fill="#FFD54F" stroke="#F9A825" stroke-width="1"/>
  <line x1="12" y1="-10" x2="18" y2="-35" stroke="#FFD54F" stroke-width="1.5"/>
  <ellipse cx="18" cy="-38" rx="4" ry="6" fill="#FFD54F" stroke="#F9A825" stroke-width="1"/>
  <line x1="0" y1="-5" x2="0" y2="-30" stroke="#FFD54F" stroke-width="1.5"/>
  <ellipse cx="0" cy="-33" rx="4" ry="6" fill="#FFD54F" stroke="#F9A825" stroke-width="1"/>
  <!-- Pollen dots -->
  <circle cx="-18" cy="-40" r="1" fill="#F9A825"/>
  <circle cx="18" cy="-40" r="1" fill="#F9A825"/>
  <circle cx="0" cy="-35" r="1" fill="#F9A825"/>
  <text x="-45" y="-35" font-family="Arial,sans-serif" font-size="5" fill="#F9A825">Тычинки</text>
  <text x="-45" y="-28" font-family="Arial,sans-serif" font-size="4" fill="#F9A825">(пыльца)</text>
  
  <!-- Pistil (пестик) -->
  <ellipse cx="0" cy="-20" rx="5" ry="6" fill="#81C784" stroke="#2E7D32" stroke-width="1"/>
  <line x1="0" y1="-14" x2="0" y2="10" stroke="#66BB6A" stroke-width="2"/>
  <!-- Stigma -->
  <path d="M-3,-25 Q0,-30 3,-25" fill="#4CAF50" stroke="#2E7D32" stroke-width="1"/>
  <text x="30" y="-20" font-family="Arial,sans-serif" font-size="5" fill="#2E7D32">Пестик</text>
  <text x="30" y="-13" font-family="Arial,sans-serif" font-size="4" fill="#2E7D32">рыльце</text>
  <text x="30" y="-6" font-family="Arial,sans-serif" font-size="4" fill="#2E7D32">столбик</text>
  <text x="30" y="1" font-family="Arial,sans-serif" font-size="4" fill="#2E7D32">завязь</text>
  
  <!-- Ovules inside -->
  <circle cx="-2" cy="0" r="2" fill="#FFEB3B" stroke="#F9A825" stroke-width="0.5"/>
  <circle cx="3" cy="3" r="2" fill="#FFEB3B" stroke="#F9A825" stroke-width="0.5"/>
  <text x="30" y="8" font-family="Arial,sans-serif" font-size="4" fill="#F9A825">семязачатки</text>
</g>

<!-- Classification -->
<g transform="translate(400,120)">
  <rect x="-70" y="-45" width="140" height="85" rx="6" fill="white" opacity="0.9" stroke="#C2185B" stroke-width="1"/>
  <text x="0" y="-28" font-family="Arial,sans-serif" font-size="7" fill="#880E4F" text-anchor="middle" font-weight="bold">КЛАССЫ</text>
  <line x1="-60" y1="-22" x2="60" y2="-22" stroke="#C2185B" stroke-width="0.5"/>
  
  <!-- Двудольные -->
  <rect x="-55" y="-15" width="55" height="45" rx="4" fill="#FCE4EC" stroke="#C2185B" stroke-width="0.8"/>
  <text x="-28" y="0" font-family="Arial,sans-serif" font-size="5.5" fill="#880E4F" text-anchor="middle" font-weight="bold">Двудольные</text>
  <!-- Two cotyledons -->
  <ellipse cx="-35" cy="12" rx="5" ry="8" fill="#F48FB1" stroke="#C2185B" stroke-width="0.5"/>
  <ellipse cx="-20" cy="12" rx="5" ry="8" fill="#F48FB1" stroke="#C2185B" stroke-width="0.5"/>
  <text x="-28" y="26" font-family="Arial,sans-serif" font-size="4" fill="#880E4F" text-anchor="middle">2 семядоли</text>
  
  <!-- Однодольные -->
  <rect x="5" y="-15" width="55" height="45" rx="4" fill="#E8F5E9" stroke="#2E7D32" stroke-width="0.8"/>
  <text x="32" y="0" font-family="Arial,sans-serif" font-size="5.5" fill="#1B5E20" text-anchor="middle" font-weight="bold">Однодольные</text>
  <!-- One cotyledon -->
  <ellipse cx="32" cy="12" rx="8" ry="6" fill="#81C784" stroke="#2E7D32" stroke-width="0.5"/>
  <text x="32" y="26" font-family="Arial,sans-serif" font-size="4" fill="#1B5E20" text-anchor="middle">1 семядоля</text>
</g>

<!-- Features -->
<g transform="translate(400,240)">
  <rect x="-70" y="-50" width="140" height="95" rx="6" fill="white" opacity="0.9" stroke="#C2185B" stroke-width="1"/>
  <text x="0" y="-33" font-family="Arial,sans-serif" font-size="7" fill="#880E4F" text-anchor="middle" font-weight="bold">ОСОБЕННОСТИ</text>
  <line x1="-60" y1="-27" x2="60" y2="-27" stroke="#C2185B" stroke-width="0.5"/>
  <text x="-55" y="-15" font-family="Arial,sans-serif" font-size="5.5" fill="#880E4F">● Цветок — орган размножения</text>
  <text x="-55" y="-5" font-family="Arial,sans-serif" font-size="5.5" fill="#880E4F">● Семя внутри плода</text>
  <text x="-55" y="5" font-family="Arial,sans-serif" font-size="5.5" fill="#880E4F">● Двойное оплодотворение</text>
  <text x="-55" y="15" font-family="Arial,sans-serif" font-size="5.5" fill="#880E4F">● Разнообразие форм</text>
  <text x="-55" y="25" font-family="Arial,sans-serif" font-size="5.5" fill="#880E4F">● Опыление: насекомые, ветер</text>
  <text x="-55" y="35" font-family="Arial,sans-serif" font-size="5.5" fill="#880E4F">● 300 000+ видов</text>
</g>

<!-- Bottom -->
<rect x="30" y="310" width="440" height="25" rx="6" fill="white" opacity="0.9" stroke="#C2185B" stroke-width="1"/>
<text x="250" y="322" font-family="Arial,sans-serif" font-size="6.5" fill="#880E4F" text-anchor="middle" font-weight="bold">Покрытосеменные — самое молодое и многочисленное отделение растений</text>
<text x="250" y="332" font-family="Arial,sans-serif" font-size="5.5" fill="#666" text-anchor="middle">Семя защищено плодом · цветок → плод с семенами · господствуют на Земле</text>
</svg>