<svg xmlns="http://www.w3.org/2000/svg" viewBox="0 0 500 350">
  <defs>
    <linearGradient id="bg" x1="0" y1="0" x2="1" y2="1">
      <stop offset="0%" stop-color="#E8F5E9"/>
      <stop offset="100%" stop-color="#C8E6C9"/>
    </linearGradient>
  </defs>
  <rect width="500" height="350" fill="url(#bg)" rx="10"/>
  <rect x="3" y="3" width="494" height="344" rx="8" fill="none" stroke="#2E7D32" stroke-width="2.5"/>
  <text x="250" y="30" font-family="Arial,sans-serif" font-size="16" font-weight="bold" fill="#2E7D32" text-anchor="middle">Среды жизни организмов</text>
  <text x="250" y="46" font-family="Arial,sans-serif" font-size="10" fill="#888" text-anchor="middle">Биология 5 класс - Урок 21</text>
  <line x1="30" y1="52" x2="470" y2="52" stroke="#2E7D32" stroke-width="1.5" opacity="0.25"/>
  
  <!-- Four environments -->
  <!-- Водная среда (Water) -->
  <g transform="translate(75,130)">
    <!-- Water background -->
    <rect x="-55" y="-40" width="110" height="95" fill="#E3F2FD" stroke="#42A5F5" stroke-width="1.5" rx="5"/>
    <!-- Waves on top -->
    <path d="M-55 -40 Q-40 -45 -25 -40 Q-10 -35 0 -40 Q10 -45 25 -40 Q40 -35 55 -40" stroke="#42A5F5" stroke-width="1.5" fill="none"/>
    <!-- Fish -->
    <ellipse cx="0" cy="-5" rx="20" ry="10" fill="#64B5F6" stroke="#1565C0" stroke-width="1"/>
    <path d="M20 -5 L30 -14 L30 4 Z" fill="#64B5F6" stroke="#1565C0" stroke-width="0.8"/>
    <circle cx="-10" cy="-7" r="2" fill="#1565C0"/>
    <!-- Seaweed -->
    <path d="M-25 50 Q-28 30 -22 15" stroke="#4CAF50" stroke-width="2" fill="none"/>
    <path d="M-20 50 Q-15 25 -18 10" stroke="#66BB6A" stroke-width="2" fill="none"/>
    <path d="M25 50 Q28 30 22 18" stroke="#4CAF50" stroke-width="2" fill="none"/>
    <!-- Bubbles -->
    <circle cx="10" cy="-20" r="3" fill="none" stroke="#90CAF9" stroke-width="0.8"/>
    <circle cx="15" cy="-30" r="2" fill="none" stroke="#90CAF9" stroke-width="0.8"/>
    <!-- Sand bottom -->
    <path d="M-55 45 Q-30 50 0 48 Q30 50 55 45" fill="#FFE0B2" stroke="#FFCC80" stroke-width="1"/>
    <text x="0" y="70" font-family="Arial,sans-serif" font-size="9" fill="#1565C0" text-anchor="middle" font-weight="bold">Водная</text>
    <text x="0" y="82" font-family="Arial,sans-serif" font-size="7" fill="#666" text-anchor="middle">Обитатели воды</text>
  </g>
  <!-- Наземно-воздушная (Land-Air) -->
  <g transform="translate(210,130)">
    <!-- Sky -->
    <rect x="-55" y="-40" width="110" height="50" fill="#E1F5FE" rx="5"/>
    <!-- Sun -->
    <circle cx="35" cy="-25" r="10" fill="#FFF176" stroke="#FDD835" stroke-width="1"/>
    <!-- Ground -->
    <rect x="-55" y="10" width="110" height="45" fill="#C8E6C9" rx="0 0 5 5"/>
    <!-- Tree -->
    <rect x="-5" y="-5" width="6" height="20" fill="#795548" rx="1"/>
    <circle cx="-2" cy="-15" r="15" fill="#4CAF50" opacity="0.8"/>
    <circle cx="8" cy="-10" r="12" fill="#66BB6A" opacity="0.7"/>
    <!-- Bird -->
    <path d="M-25 -20 Q-20 -28 -15 -22 Q-10 -28 -5 -20" stroke="#333" stroke-width="1.5" fill="none"/>
    <!-- Flower -->
    <line x1="30" y1="15" x2="30" y2="5" stroke="#4CAF50" stroke-width="1.5"/>
    <circle cx="30" cy="2" r="4" fill="#E53935" opacity="0.7"/>
    <!-- Grass -->
    <path d="M-40 12 Q-38 5 -35 10" stroke="#4CAF50" stroke-width="1" fill="none"/>
    <path d="M-35 12 Q-32 3 -30 10" stroke="#66BB6A" stroke-width="1" fill="none"/>
    <text x="0" y="70" font-family="Arial,sans-serif" font-size="9" fill="#2E7D32" text-anchor="middle" font-weight="bold">Наземно-воздушная</text>
    <text x="0" y="82" font-family="Arial,sans-serif" font-size="7" fill="#666" text-anchor="middle">Растения, животные, грибы</text>
  </g>
  <!-- Почвенная (Soil) -->
  <g transform="translate(340,130)">
    <!-- Soil cross-section -->
    <rect x="-55" y="-40" width="110" height="95" fill="#8D6E63" rx="5"/>
    <!-- Surface with grass -->
    <path d="M-55 -40 Q-30 -45 0 -40 Q30 -35 55 -40" fill="#81C784" stroke="#4CAF50" stroke-width="1.5"/>
    <!-- Grass blades -->
    <line x1="-30" y1="-40" x2="-32" y2="-48" stroke="#4CAF50" stroke-width="1.5"/>
    <line x1="-15" y1="-40" x2="-13" y2="-50" stroke="#4CAF50" stroke-width="1.5"/>
    <line x1="10" y1="-38" x2="12" y2="-48" stroke="#4CAF50" stroke-width="1.5"/>
    <line x1="30" y1="-38" x2="32" y2="-46" stroke="#4CAF50" stroke-width="1.5"/>
    <!-- Roots -->
    <path d="M0 -40 L0 -10 L-10 10 L-15 25" stroke="#795548" stroke-width="2" fill="none"/>
    <path d="M0 -10 L10 10 L15 25" stroke="#795548" stroke-width="2" fill="none"/>
    <path d="M0 5 L-5 20" stroke="#795548" stroke-width="1.5" fill="none"/>
    <!-- Earthworm -->
    <path d="M-30 15 Q-25 10 -20 15 Q-15 20 -10 15 Q-5 10 0 15" stroke="#FFAB91" stroke-width="3" fill="none" stroke-linecap="round"/>
    <!-- Mole -->
    <ellipse cx="30" cy="10" rx="10" ry="7" fill="#8D6E63" stroke="#5D4037" stroke-width="1"/>
    <circle cx="25" cy="7" r="2" fill="#333"/>
    <path d="M22 10 L18 10" stroke="#5D4037" stroke-width="1"/>
    <!-- Soil layers -->
    <line x1="-50" y1="10" x2="50" y2="10" stroke="#6D4C41" stroke-width="0.5" stroke-dasharray="3,3" opacity="0.5"/>
    <line x1="-45" y1="30" x2="45" y2="30" stroke="#5D4037" stroke-width="0.5" stroke-dasharray="3,3" opacity="0.5"/>
    <!-- Stones -->
    <ellipse cx="-35" cy="25" rx="6" ry="4" fill="#9E9E9E" stroke="#757575" stroke-width="0.5"/>
    <ellipse cx="40" cy="35" rx="5" ry="3" fill="#BDBDBD" stroke="#9E9E9E" stroke-width="0.5"/>
    <text x="0" y="70" font-family="Arial,sans-serif" font-size="9" fill="#5D4037" text-anchor="middle" font-weight="bold">Почвенная</text>
    <text x="0" y="82" font-family="Arial,sans-serif" font-size="7" fill="#666" text-anchor="middle">Бактерии, черви, кроты</text>
  </g>
  <!-- Организменная (Inside organisms) -->
  <g transform="translate(450,130)">
    <!-- Host organism outline -->
    <ellipse cx="0" cy="0" rx="35" ry="40" fill="#FFCDD2" stroke="#E53935" stroke-width="1.5" opacity="0.5"/>
    <!-- Parasites inside -->
    <circle cx="-10" cy="-10" r="8" fill="#FF8A65" stroke="#E64A19" stroke-width="1"/>
    <circle cx="10" cy="5" r="6" fill="#FFAB91" stroke="#E64A19" stroke-width="1"/>
    <!-- Tapeworm fragment -->
    <rect x="-5" y="15" width="30" height="8" fill="#FFF9C4" stroke="#F9A825" stroke-width="1" rx="3"/>
    <!-- Bacteria -->
    <ellipse cx="5" cy="-20" rx="5" ry="3" fill="#FFCC80" stroke="#E65100" stroke-width="0.8"/>
    <text x="0" y="58" font-family="Arial,sans-serif" font-size="9" fill="#C62828" text-anchor="middle" font-weight="bold">Организменная</text>
    <text x="0" y="70" font-family="Arial,sans-serif" font-size="7" fill="#666" text-anchor="middle">Паразиты, симбионты</text>
  </g>
  <!-- Bottom summary -->
  <rect x="40" y="250" width="420" height="55" rx="5" fill="white" stroke="#2E7D32" stroke-width="1" opacity="0.9"/>
  <text x="250" y="268" font-family="Arial,sans-serif" font-size="9" fill="#2E7D32" text-anchor="middle" font-weight="bold">4 среды жизни на Земле</text>
  <text x="250" y="283" font-family="Arial,sans-serif" font-size="8" fill="#555" text-anchor="middle">Каждая среда имеет свои условия: свет, температура, влажность, кислород</text>
  <text x="250" y="297" font-family="Arial,sans-serif" font-size="8" fill="#555" text-anchor="middle">Организмы приспособлены к жизни в определённой среде</text>

  <rect x="10" y="325" width="480" height="20" rx="4" fill="#2E7D32" opacity="0.85"/>
  <text x="250" y="339" font-family="Arial,sans-serif" font-size="11" text-anchor="middle" fill="white" font-weight="bold">Биология 5 класс</text>
</svg>