<svg xmlns="http://www.w3.org/2000/svg" viewBox="0 0 500 350">
<rect width="500" height="350" fill="#FAFAFA"/>
<text x="80" y="25" font-size="11" fill="#333" font-weight="bold">I закон</text>
<rect x="20" y="35" width="145" height="95" rx="6" fill="#E8F5E9" stroke="#4CAF50" stroke-width="1.5"/>
<rect x="40" y="70" width="50" height="30" rx="3" fill="#81C784" stroke="#388E3C" stroke-width="1"/>
<line x1="40" y1="105" x2="155" y2="105" stroke="#666" stroke-width="1.5"/>
<line x1="90" y1="70" x2="145" y2="70" stroke="#4CAF50" stroke-width="1.5" stroke-dasharray="4,2"/>
<text x="80" y="125" font-size="8" fill="#2E7D32" text-anchor="middle">v = const или v = 0</text>
<text x="90" y="55" font-size="7" fill="#388E3C">покой / равномерно</text>
<text x="275" y="25" font-size="11" fill="#333" font-weight="bold">II закон</text>
<rect x="175" y="35" width="150" height="95" rx="6" fill="#E3F2FD" stroke="#2196F3" stroke-width="1.5"/>
<rect x="195" y="65" width="40" height="30" rx="3" fill="#64B5F6" stroke="#1976D2" stroke-width="1"/>
<line x1="235" y1="80" x2="290" y2="80" stroke="#D32F2F" stroke-width="2.5"/>
<polygon points="290,77 300,80 290,83" fill="#D32F2F"/>
<text x="260" y="72" font-size="9" fill="#C62828">F</text>
<text x="250" y="120" font-size="14" fill="#0D47A1" text-anchor="middle" font-style="italic" font-weight="bold">F = ma</text>
<text x="460" y="25" font-size="11" fill="#333" font-weight="bold">III закон</text>
<rect x="340" y="35" width="145" height="95" rx="6" fill="#FFF3E0" stroke="#FF9800" stroke-width="1.5"/>
<rect x="390" y="55" width="30" height="30" rx="3" fill="#FFB74D" stroke="#E65100" stroke-width="1"/>
<rect x="440" y="55" width="30" height="30" rx="3" fill="#FF8A65" stroke="#D84315" stroke-width="1"/>
<line x1="420" y1="70" x2="440" y2="70" stroke="#D32F2F" stroke-width="2"/>
<polygon points="440,67 447,70 440,73" fill="#D32F2F"/>
<line x1="440" y1="75" x2="420" y2="75" stroke="#1565C0" stroke-width="2"/>
<polygon points="420,72 413,75 420,78" fill="#1565C0"/>
<text x="413" y="60" font-size="8" fill="#C62828">F₁₂</text>
<text x="440" y="60" font-size="8" fill="#0D47A1">F₂₁</text>
<text x="412" y="120" font-size="11" fill="#E65100" text-anchor="middle" font-style="italic">F₁₂ = −F₂₁</text>
<rect x="30" y="150" width="440" height="160" rx="8" fill="none" stroke="#BDBDBD" stroke-width="1" stroke-dasharray="5,3"/>
<text x="250" y="175" font-size="12" fill="#333" text-anchor="middle" font-weight="bold">Примеры законов Ньютона</text>
<circle cx="80" cy="230" r="20" fill="#81C784" stroke="#388E3C" stroke-width="1.5"/>
<text x="80" y="234" font-size="8" fill="#FFF" text-anchor="middle">мяч</text>
<line x1="80" y1="250" x2="80" y2="250" stroke="#388E3C" stroke-width="2"/>
<text x="80" y="268" font-size="7" fill="#388E3C" text-anchor="middle">лежит</text>
<rect x="170" y="215" width="30" height="25" rx="2" fill="#64B5F6" stroke="#1976D2" stroke-width="1"/>
<line x1="200" y1="227" x2="245" y2="227" stroke="#D32F2F" stroke-width="2.5"/>
<polygon points="245,224 255,227 245,230" fill="#D32F2F"/>
<text x="185" y="268" font-size="7" fill="#0D47A1" text-anchor="middle">a = F/m</text>
<rect x="320" y="210" width="25" height="25" rx="2" fill="#FFB74D" stroke="#E65100" stroke-width="1"/>
<rect x="370" y="210" width="25" height="25" rx="2" fill="#FF8A65" stroke="#D84315" stroke-width="1"/>
<line x1="345" y1="222" x2="370" y2="222" stroke="#C62828" stroke-width="1.5"/>
<line x1="370" y1="226" x2="345" y2="226" stroke="#0D47A1" stroke-width="1.5"/>
<text x="355" y="268" font-size="7" fill="#E65100" text-anchor="middle">действие = противодействие</text>
<text x="250" y="345" font-size="9" fill="#666" text-anchor="middle" opacity="0.5">Законы Ньютона</text>
</svg>