<svg xmlns="http://www.w3.org/2000/svg" viewBox="0 0 500 350"><defs><linearGradient id="bg" x1="0" y1="0" x2="1" y2="1"><stop offset="0%" stop-color="#FFF8E1"/><stop offset="100%" stop-color="#FFFDE7"/></linearGradient></defs><rect width="500" height="350" fill="url(#bg)" rx="10"/><rect x="3" y="3" width="494" height="344" rx="8" fill="none" stroke="#C62828" stroke-width="3"/><rect x="8" y="8" width="484" height="334" rx="6" fill="none" stroke="#C62828" stroke-width="1" opacity="0.3"/><polygon points="10,10 30,10 10,30" fill="#C62828" opacity="0.08"/><polygon points="490,10 470,10 490,30" fill="#1565C0" opacity="0.08"/><polygon points="10,340 30,340 10,320" fill="#F9A825" opacity="0.08"/><polygon points="490,340 470,340 490,320" fill="#2E7D32" opacity="0.08"/><circle cx="70" cy="15" r="4" fill="#C62828" opacity="0.1"/><circle cx="82" cy="15" r="4" fill="#1565C0" opacity="0.1"/><circle cx="94" cy="15" r="4" fill="#F9A825" opacity="0.1"/><circle cx="406" cy="15" r="4" fill="#C62828" opacity="0.1"/><circle cx="418" cy="15" r="4" fill="#1565C0" opacity="0.1"/><circle cx="430" cy="15" r="4" fill="#F9A825" opacity="0.1"/><text x="250" y="50" font-family="Arial,sans-serif" font-size="24" font-weight="bold" fill="#C62828" text-anchor="middle">Современная роспись</text><text x="250" y="68" font-family="Arial,sans-serif" font-size="12" fill="#777" text-anchor="middle">Художественные ремёсла - Урок 8</text><line x1="30" y1="78" x2="470" y2="78" stroke="#C62828" stroke-width="2" opacity="0.25"/><rect x="30" y="75" width="60" height="6" fill="#C62828" opacity="0.15" rx="1"/><rect x="410" y="75" width="60" height="6" fill="#1565C0" opacity="0.12" rx="1"/><!-- Card 1: Acrylic paints --><rect x="30" y="90" width="140" height="100" rx="8" fill="#E8EAF6" stroke="#3949AB" stroke-width="1.5"/><rect x="50" y="115" width="16" height="22" rx="3" fill="#C62828"/><rect x="50" y="110" width="16" height="8" rx="2" fill="#E53935"/><rect x="72" y="115" width="16" height="22" rx="3" fill="#1565C0"/><rect x="72" y="110" width="16" height="8" rx="2" fill="#42A5F5"/><rect x="94" y="115" width="16" height="22" rx="3" fill="#F9A825"/><rect x="94" y="110" width="16" height="8" rx="2" fill="#FDD835"/><rect x="116" y="115" width="16" height="22" rx="3" fill="#2E7D32"/><rect x="116" y="110" width="16" height="8" rx="2" fill="#66BB6A"/><rect x="138" y="115" width="16" height="22" rx="3" fill="#7B1FA2"/><rect x="138" y="110" width="16" height="8" rx="2" fill="#AB47BC"/><text x="100" y="155" font-family="Arial,sans-serif" font-size="9" fill="#283593" text-anchor="middle">Акриловые краски</text><text x="100" y="168" font-family="Arial,sans-serif" font-size="9" fill="#3949AB" text-anchor="middle">быстросохнущие</text><text x="100" y="105" font-family="Arial,sans-serif" font-size="11" fill="#3949AB" text-anchor="middle" font-weight="bold">Материалы</text><!-- Card 2: Modern abstract bowl --><rect x="180" y="90" width="140" height="100" rx="8" fill="#FCE4EC" stroke="#C2185B" stroke-width="1.5"/><path d="M205 130 Q205 170 250 170 Q295 170 295 130" fill="#FAFAFA" stroke="#E0E0E0" stroke-width="1"/><ellipse cx="250" cy="130" rx="45" ry="14" fill="white" stroke="#E0E0E0" stroke-width="1"/><path d="M220 130 Q235 120 250 130 Q265 140 280 130" fill="none" stroke="#E91E63" stroke-width="3" opacity="0.7"/><path d="M225 125 Q240 115 255 125" fill="none" stroke="#7C4DFF" stroke-width="2" opacity="0.7"/><circle cx="235" cy="128" r="4" fill="#00BCD4" opacity="0.6"/><circle cx="265" cy="128" r="4" fill="#FF9800" opacity="0.6"/><circle cx="250" cy="122" r="3" fill="#E91E63" opacity="0.5"/><text x="250" y="180" font-family="Arial,sans-serif" font-size="9" fill="#C2185B" text-anchor="middle">Абстрактный стиль</text><!-- Card 3: Stenciling --><rect x="330" y="90" width="140" height="100" rx="8" fill="#E0F7FA" stroke="#00838F" stroke-width="1.5"/><rect x="355" y="112" width="90" height="60" rx="2" fill="#B2EBF2" opacity="0.5" stroke="#00838F" stroke-width="1" stroke-dasharray="4,2"/><path d="M380 130 L390 120 L400 130 L390 140 Z" fill="none" stroke="#00838F" stroke-width="2"/><circle cx="425" cy="130" r="12" fill="none" stroke="#00838F" stroke-width="2"/><circle cx="425" cy="130" r="6" fill="none" stroke="#00838F" stroke-width="1.5"/><path d="M385 155 Q400 148 415 155 Q430 162 440 155" fill="none" stroke="#00838F" stroke-width="1.5"/><text x="400" y="108" font-family="Arial,sans-serif" font-size="11" fill="#00838F" text-anchor="middle" font-weight="bold">Трафареты</text><text x="400" y="182" font-family="Arial,sans-serif" font-size="9" fill="#006064" text-anchor="middle">Повторяющиеся узоры</text><!-- Card 4: Dot painting --><rect x="30" y="200" width="215" height="98" rx="8" fill="#FFF3E0" stroke="#E65100" stroke-width="1.5"/><circle cx="55" cy="235" r="6" fill="#C62828"/><circle cx="72" cy="228" r="5" fill="#1565C0"/><circle cx="88" cy="235" r="6" fill="#F9A825"/><circle cx="105" cy="228" r="5" fill="#2E7D32"/><circle cx="122" cy="235" r="6" fill="#C62828"/><circle cx="139" cy="228" r="5" fill="#E91E63"/><circle cx="156" cy="235" r="6" fill="#1565C0"/><circle cx="173" cy="228" r="5" fill="#F9A825"/><circle cx="190" cy="235" r="6" fill="#2E7D32"/><circle cx="207" cy="228" r="5" fill="#C62828"/><circle cx="63" cy="250" r="5" fill="#E91E63"/><circle cx="80" cy="257" r="6" fill="#2E7D32"/><circle cx="97" cy="250" r="5" fill="#C62828"/><circle cx="114" cy="257" r="6" fill="#1565C0"/><circle cx="131" cy="250" r="5" fill="#F9A825"/><circle cx="148" cy="257" r="6" fill="#C62828"/><circle cx="165" cy="250" r="5" fill="#2E7D32"/><circle cx="182" cy="257" r="6" fill="#E91E63"/><circle cx="199" cy="250" r="5" fill="#1565C0"/><text x="137" y="280" font-family="Arial,sans-serif" font-size="9" fill="#BF360C" text-anchor="middle">Точечная роспись</text><text x="137" y="218" font-family="Arial,sans-serif" font-size="11" fill="#E65100" text-anchor="middle" font-weight="bold">Пойнтилизм</text><!-- Card 5: Styles comparison --><rect x="255" y="200" width="215" height="98" rx="8" fill="#F3E5F5" stroke="#7B1FA2" stroke-width="1.5"/><rect x="275" y="225" width="45" height="30" rx="4" fill="#FAFAFA" stroke="#E0E0E0" stroke-width="1"/><path d="M282 240 Q297 232 312 240" fill="none" stroke="#7C4DFF" stroke-width="2"/><text x="297" y="268" font-family="Arial,sans-serif" font-size="9" fill="#4A148C" text-anchor="middle">Минимализм</text><rect x="330" y="225" width="45" height="30" rx="4" fill="#FAFAFA" stroke="#E0E0E0" stroke-width="1"/><circle cx="345" cy="237" r="5" fill="#FF9800"/><circle cx="358" cy="242" r="4" fill="#4CAF50"/><circle cx="350" cy="248" r="3" fill="#E91E63"/><text x="352" y="268" font-family="Arial,sans-serif" font-size="9" fill="#4A148C" text-anchor="middle">Поп-арт</text><rect x="385" y="225" width="45" height="30" rx="4" fill="#FAFAFA" stroke="#E0E0E0" stroke-width="1"/><path d="M392 250 L398 238 L404 245 L410 232 L416 240 L422 235" fill="none" stroke="#7B1FA2" stroke-width="2"/><text x="407" y="268" font-family="Arial,sans-serif" font-size="9" fill="#4A148C" text-anchor="middle">Геометрия</text><text x="362" y="218" font-family="Arial,sans-serif" font-size="11" fill="#7B1FA2" text-anchor="middle" font-weight="bold">Современные стили</text><rect x="15" y="308" width="470" height="30" rx="4" fill="#C62828" opacity="0.85"/><text x="250" y="329" font-family="Arial,sans-serif" font-size="15" text-anchor="middle" fill="white" font-weight="bold">Современная роспись</text></svg>