<svg xmlns="http://www.w3.org/2000/svg" viewBox="0 0 500 350"><defs><linearGradient id="bg" x1="0" y1="0" x2="1" y2="1"><stop offset="0%" stop-color="#FFF8E1"/><stop offset="100%" stop-color="#FFFDE7"/></linearGradient></defs><rect width="500" height="350" fill="url(#bg)" rx="10"/><rect x="3" y="3" width="494" height="344" rx="8" fill="none" stroke="#C62828" stroke-width="3"/><rect x="8" y="8" width="484" height="334" rx="6" fill="none" stroke="#C62828" stroke-width="1" opacity="0.3"/><polygon points="10,10 30,10 10,30" fill="#C62828" opacity="0.08"/><polygon points="490,10 470,10 490,30" fill="#1565C0" opacity="0.08"/><polygon points="10,340 30,340 10,320" fill="#F9A825" opacity="0.08"/><polygon points="490,340 470,340 490,320" fill="#2E7D32" opacity="0.08"/><circle cx="70" cy="15" r="4" fill="#C62828" opacity="0.1"/><circle cx="82" cy="15" r="4" fill="#1565C0" opacity="0.1"/><circle cx="94" cy="15" r="4" fill="#F9A825" opacity="0.1"/><circle cx="406" cy="15" r="4" fill="#C62828" opacity="0.1"/><circle cx="418" cy="15" r="4" fill="#1565C0" opacity="0.1"/><circle cx="430" cy="15" r="4" fill="#F9A825" opacity="0.1"/><text x="250" y="50" font-family="Arial,sans-serif" font-size="24" font-weight="bold" fill="#C62828" text-anchor="middle">Лепка посуды</text><text x="250" y="68" font-family="Arial,sans-serif" font-size="12" fill="#777" text-anchor="middle">Художественные ремёсла - Урок 3</text><line x1="30" y1="78" x2="470" y2="78" stroke="#C62828" stroke-width="2" opacity="0.25"/><rect x="30" y="75" width="60" height="6" fill="#C62828" opacity="0.15" rx="1"/><rect x="410" y="75" width="60" height="6" fill="#1565C0" opacity="0.12" rx="1"/><!-- Card 1: Pottery wheel --><rect x="30" y="90" width="140" height="100" rx="8" fill="#EFEBE9" stroke="#5D4037" stroke-width="1.5"/><ellipse cx="100" cy="165" rx="45" ry="12" fill="#9E9E9E"/><ellipse cx="100" cy="162" rx="40" ry="10" fill="#BDBDBD"/><rect x="85" y="120" width="30" height="45" fill="#757575"/><ellipse cx="100" cy="125" rx="20" ry="6" fill="#D2691E"/><path d="M80 125 Q75 140 85 160" fill="none" stroke="#CD853F" stroke-width="2" opacity="0.7"/><path d="M120 125 Q125 140 115 160" fill="none" stroke="#CD853F" stroke-width="2" opacity="0.7"/><ellipse cx="100" cy="120" rx="18" ry="5" fill="#A0522D"/><text x="100" y="112" font-family="Arial,sans-serif" font-size="11" fill="#5D4037" text-anchor="middle" font-weight="bold">Гончарный круг</text><!-- Card 2: Bowl form --><rect x="180" y="90" width="140" height="100" rx="8" fill="#FFF3E0" stroke="#E65100" stroke-width="1.5"/><path d="M210 130 Q210 170 250 170 Q290 170 290 130" fill="#D2691E" stroke="#8B4513" stroke-width="1.5"/><ellipse cx="250" cy="130" rx="40" ry="12" fill="#CD853F" stroke="#8B4513" stroke-width="1.5"/><ellipse cx="250" cy="130" rx="34" ry="9" fill="#DEB887" opacity="0.5"/><text x="250" y="118" font-family="Arial,sans-serif" font-size="11" fill="#E65100" text-anchor="middle" font-weight="bold">Миска</text><text x="250" y="188" font-family="Arial,sans-serif" font-size="9" fill="#BF360C" text-anchor="middle">Лепка из цельного куска</text><!-- Card 3: Cup --><rect x="330" y="90" width="140" height="100" rx="8" fill="#F3E5F5" stroke="#7B1FA2" stroke-width="1.5"/><path d="M360 125 Q360 175 385 175 Q410 175 410 125" fill="#A0522D" stroke="#5D4037" stroke-width="1.5"/><ellipse cx="385" cy="125" rx="25" ry="8" fill="#CD853F" stroke="#5D4037" stroke-width="1.5"/><ellipse cx="385" cy="125" rx="20" ry="6" fill="#DEB887" opacity="0.4"/><path d="M410 140 Q425 140 425 152 Q425 162 410 160" fill="none" stroke="#A0522D" stroke-width="5" stroke-linecap="round"/><text x="400" y="118" font-family="Arial,sans-serif" font-size="11" fill="#7B1FA2" text-anchor="middle" font-weight="bold">Кружка с ручкой</text><!-- Card 4: Plate --><rect x="30" y="200" width="215" height="98" rx="8" fill="#E8F5E9" stroke="#2E7D32" stroke-width="1.5"/><ellipse cx="137" cy="255" rx="70" ry="22" fill="#D2B48C" stroke="#8B4513" stroke-width="1.5"/><ellipse cx="137" cy="253" rx="60" ry="18" fill="#DEB887" opacity="0.6"/><ellipse cx="137" cy="252" rx="25" ry="8" fill="#CD853F" opacity="0.5"/><text x="137" y="218" font-family="Arial,sans-serif" font-size="11" fill="#2E7D32" text-anchor="middle" font-weight="bold">Тарелка</text><text x="137" y="288" font-family="Arial,sans-serif" font-size="9" fill="#1B5E20" text-anchor="middle">Раскатывание пласта</text><!-- Card 5: Vase --><rect x="255" y="200" width="215" height="98" rx="8" fill="#E1F5FE" stroke="#0277BD" stroke-width="1.5"/><path d="M345 200 Q330 220 325 240 Q320 265 340 280 Q360 295 385 295 Q410 295 430 280 Q450 265 445 240 Q440 220 425 200" fill="#C9874E" stroke="#8B4513" stroke-width="1.5"/><ellipse cx="385" cy="200" rx="40" ry="10" fill="#D2B48C" stroke="#8B4513" stroke-width="1.5"/><ellipse cx="385" cy="200" rx="33" ry="7" fill="#DEB887" opacity="0.5"/><path d="M345 230 Q365 225 385 230 Q405 225 425 230" fill="none" stroke="#A0522D" stroke-width="1" opacity="0.6"/><path d="M340 250 Q365 245 385 250 Q405 245 430 250" fill="none" stroke="#A0522D" stroke-width="1" opacity="0.6"/><text x="362" y="218" font-family="Arial,sans-serif" font-size="11" fill="#0277BD" text-anchor="middle" font-weight="bold">Ваза</text><rect x="15" y="308" width="470" height="30" rx="4" fill="#C62828" opacity="0.85"/><text x="250" y="329" font-family="Arial,sans-serif" font-size="15" text-anchor="middle" fill="white" font-weight="bold">Лепка посуды</text></svg>