<svg xmlns="http://www.w3.org/2000/svg" viewBox="0 0 500 350">
  <defs>
    <linearGradient id="bg8" x1="0" y1="0" x2="0" y2="1">
      <stop offset="0%" stop-color="#E0F2F1"/>
      <stop offset="100%" stop-color="#FFFFFF"/>
    </linearGradient>
    <linearGradient id="hdr8" x1="0" y1="0" x2="1" y2="0">
      <stop offset="0%" stop-color="#00695C"/>
      <stop offset="100%" stop-color="#004D40"/>
    </linearGradient>
  </defs>
  <rect width="500" height="350" fill="url(#bg8)" rx="10"/>
  <rect x="3" y="3" width="494" height="344" rx="8" fill="none" stroke="#00695C" stroke-width="2.5"/>
  <rect x="8" y="8" width="484" height="334" rx="6" fill="none" stroke="#00695C" stroke-width="1" opacity="0.3"/>
  <polygon points="10,10 30,10 10,30" fill="#00695C" opacity="0.12"/>
  <polygon points="490,10 470,10 490,30" fill="#004D40" opacity="0.12"/>
  <polygon points="10,340 30,340 10,320" fill="#00695C" opacity="0.12"/>
  <polygon points="490,340 470,340 490,320" fill="#004D40" opacity="0.12"/>
  <rect x="12" y="12" width="476" height="55" rx="6" fill="#00695C" opacity="0.06"/>
  <text x="250" y="42" font-family="Arial,sans-serif" font-size="22" font-weight="bold" fill="#00695C" text-anchor="middle">Тренировка собеседования</text>
  <text x="250" y="60" font-family="Arial,sans-serif" font-size="12" fill="#00695C" text-anchor="middle" opacity="0.7">Профориентация — Урок 8</text>
  <line x1="30" y1="72" x2="470" y2="72" stroke="#00695C" stroke-width="2" opacity="0.2"/>
  <rect x="30" y="70" width="60" height="4" fill="#00695C" opacity="0.15" rx="1"/>
  <rect x="410" y="70" width="60" height="4" fill="#004D40" opacity="0.1" rx="1"/>
  <circle cx="470" cy="30" r="14" fill="#00695C" opacity="0.15"/>
  <circle cx="470" cy="30" r="10" fill="#00695C" opacity="0.2"/>
  <text x="470" y="34" font-family="Arial,sans-serif" font-size="11" font-weight="bold" fill="#00695C" text-anchor="middle">8</text>
  <rect x="15" y="78" width="470" height="220" rx="6" fill="#E0F2F1" opacity="0.4"/>
<rect x="18" y="88" width="170" height="96" rx="6" fill="#FFFFFF" stroke="#26A69A" stroke-width="1.2" opacity="0.95"/>
    <rect x="18" y="88" width="170" height="22" rx="6" fill="#00695C" opacity="0.12"/>
    <rect x="18" y="104" width="170" height="6" fill="#00695C" opacity="0.12"/>
    <text x="103" y="103" font-family="Arial,sans-serif" font-size="11" font-weight="bold" fill="#00695C" text-anchor="middle">Практика</text>
    <line x1="26" y1="112" x2="180" y2="112" stroke="#80CBC4" stroke-width="0.8"/>
    <circle cx="32" cy="122" r="2.5" fill="#26A69A" opacity="0.7"/>
    <text x="40" y="125" font-family="Arial,sans-serif" font-size="10" fill="#555555">Mock-интервью с другом</text>
    <circle cx="32" cy="137" r="2.5" fill="#26A69A" opacity="0.7"/>
    <text x="40" y="140" font-family="Arial,sans-serif" font-size="10" fill="#555555">Запись на видео</text>
    <circle cx="32" cy="152" r="2.5" fill="#26A69A" opacity="0.7"/>
    <text x="40" y="155" font-family="Arial,sans-serif" font-size="10" fill="#555555">Таймер: 2 мин на ответ</text>
    <circle cx="32" cy="167" r="2.5" fill="#26A69A" opacity="0.7"/>
    <text x="40" y="170" font-family="Arial,sans-serif" font-size="10" fill="#555555">Обратная связь</text>
<rect x="310" y="88" width="170" height="96" rx="6" fill="#FFFFFF" stroke="#26A69A" stroke-width="1.2" opacity="0.95"/>
    <rect x="310" y="88" width="170" height="22" rx="6" fill="#00695C" opacity="0.12"/>
    <rect x="310" y="104" width="170" height="6" fill="#00695C" opacity="0.12"/>
    <text x="395" y="103" font-family="Arial,sans-serif" font-size="11" font-weight="bold" fill="#00695C" text-anchor="middle">Невербалика</text>
    <line x1="318" y1="112" x2="472" y2="112" stroke="#80CBC4" stroke-width="0.8"/>
    <circle cx="324" cy="122" r="2.5" fill="#26A69A" opacity="0.7"/>
    <text x="332" y="125" font-family="Arial,sans-serif" font-size="10" fill="#555555">Зрительный контакт</text>
    <circle cx="324" cy="137" r="2.5" fill="#26A69A" opacity="0.7"/>
    <text x="332" y="140" font-family="Arial,sans-serif" font-size="10" fill="#555555">Открытая поза</text>
    <circle cx="324" cy="152" r="2.5" fill="#26A69A" opacity="0.7"/>
    <text x="332" y="155" font-family="Arial,sans-serif" font-size="10" fill="#555555">Уверенный голос</text>
    <circle cx="324" cy="167" r="2.5" fill="#26A69A" opacity="0.7"/>
    <text x="332" y="170" font-family="Arial,sans-serif" font-size="10" fill="#555555">Улыбка</text>
<rect x="310" y="192" width="170" height="96" rx="6" fill="#FFFFFF" stroke="#26A69A" stroke-width="1.2" opacity="0.95"/>
    <rect x="310" y="192" width="170" height="22" rx="6" fill="#00695C" opacity="0.12"/>
    <rect x="310" y="208" width="170" height="6" fill="#00695C" opacity="0.12"/>
    <text x="395" y="207" font-family="Arial,sans-serif" font-size="11" font-weight="bold" fill="#00695C" text-anchor="middle">Трудные вопросы</text>
    <line x1="318" y1="216" x2="472" y2="216" stroke="#80CBC4" stroke-width="0.8"/>
    <circle cx="324" cy="226" r="2.5" fill="#26A69A" opacity="0.7"/>
    <text x="332" y="229" font-family="Arial,sans-serif" font-size="10" fill="#555555">Ваши слабости?</text>
    <circle cx="324" cy="241" r="2.5" fill="#26A69A" opacity="0.7"/>
    <text x="332" y="244" font-family="Arial,sans-serif" font-size="10" fill="#555555">Конфликт с коллегой?</text>
    <circle cx="324" cy="256" r="2.5" fill="#26A69A" opacity="0.7"/>
    <text x="332" y="259" font-family="Arial,sans-serif" font-size="10" fill="#555555">Неудача и уроки?</text>
    <circle cx="324" cy="271" r="2.5" fill="#26A69A" opacity="0.7"/>
    <text x="332" y="274" font-family="Arial,sans-serif" font-size="10" fill="#555555">Почему уходите?</text>
<rect x="228" y="173" width="24" height="18" rx="4" fill="#00695C" opacity="0.15" stroke="#00695C" stroke-width="1.5"/>
    <polygon points="236,191 240,191 236,196" fill="#00695C" opacity="0.15"/>
    <rect x="248" y="178" width="24" height="18" rx="4" fill="#26A69A" opacity="0.15" stroke="#26A69A" stroke-width="1.5"/>
    <polygon points="260,196 264,196 264,201" fill="#26A69A" opacity="0.15"/>
  <line x1="193" y1="188" x2="222" y2="188" stroke="#80CBC4" stroke-width="1" stroke-dasharray="3,3" opacity="0.5"/>
  <line x1="278" y1="188" x2="305" y2="188" stroke="#80CBC4" stroke-width="1" stroke-dasharray="3,3" opacity="0.5"/>
  <line x1="30" y1="320" x2="470" y2="320" stroke="#00695C" stroke-width="1" opacity="0.15"/>
  <text x="250" y="328" font-family="Arial,sans-serif" font-size="10" fill="#00695C" text-anchor="middle" opacity="0.5">Профориентация · 10 класс</text>
  <circle cx="160" cy="325" r="2" fill="#26A69A" opacity="0.3"/>
  <circle cx="340" cy="325" r="2" fill="#26A69A" opacity="0.3"/>
</svg>