<?xml version="1.0" encoding="UTF-8"?>
<svg xmlns="http://www.w3.org/2000/svg" width="800" height="600" viewBox="0 0 800 600">
  <rect width="800" height="600" fill="#F5F3FF" rx="0" />
  <rect x="0" y="0" width="800" height="80" fill="#7C3AED" />
  <rect x="0" y="80" width="800" height="4" fill="#5B21B6" />
  <rect x="20" y="15" width="50" height="50" rx="12" fill="#5B21B6" />
  <text x="45" y="50" text-anchor="middle" font-size="28" fill="#FFFFFF">♫</text>
  <text x="85" y="42" font-size="24" font-weight="bold" fill="#FFFFFF">Джаз</text>
  <text x="85" y="64" font-size="13" fill="#EDE9FE">Происхождение, импровизация, блюз и великие джазмены</text>
  <rect x="0" y="570" width="800" height="30" fill="#5B21B6" />
  <text x="40" y="592" text-anchor="middle" font-size="14" fill="#A78BFA">♪</text>
  <text x="120" y="592" text-anchor="middle" font-size="14" fill="#A78BFA">♫</text>
  <text x="200" y="592" text-anchor="middle" font-size="14" fill="#A78BFA">♬</text>
  <text x="280" y="592" text-anchor="middle" font-size="14" fill="#A78BFA">♩</text>
  <text x="360" y="592" text-anchor="middle" font-size="14" fill="#A78BFA">♪</text>
  <text x="440" y="592" text-anchor="middle" font-size="14" fill="#A78BFA">♫</text>
  <text x="520" y="592" text-anchor="middle" font-size="14" fill="#A78BFA">♬</text>
  <text x="600" y="592" text-anchor="middle" font-size="14" fill="#A78BFA">♩</text>
  <text x="680" y="592" text-anchor="middle" font-size="14" fill="#A78BFA">♪</text>
  <text x="760" y="592" text-anchor="middle" font-size="14" fill="#A78BFA">♫</text>
  <text x="720" y="120" font-size="20" fill="#C4B5FD" opacity="0.5">♬</text>
  <text x="750" y="180" font-size="16" fill="#C4B5FD" opacity="0.5">♪</text>
  <text x="690" y="160" font-size="14" fill="#C4B5FD" opacity="0.5">♬</text>
  <text x="30" y="530" font-size="18" fill="#C4B5FD" opacity="0.5">♪</text>
  <text x="60" y="560" font-size="14" fill="#C4B5FD" opacity="0.5">♩</text>
  <rect x="20" y="98" width="760" height="110" rx="10" fill="#FFFFFF" stroke="#7C3AED" stroke-width="2" />
  <rect x="20" y="98" width="760" height="28" rx="10" fill="#7C3AED" />
  <rect x="20" y="116" width="760" height="10" fill="#7C3AED" />
  <text x="400" y="118" text-anchor="middle" font-size="13" font-weight="bold" fill="#FFFFFF">Происхождение джаза</text>
  <text x="35" y="144" font-size="11" fill="#3B0764">♪ Родина — Новый Орлеан (США), конец XIX века</text>
  <text x="35" y="162" font-size="11" fill="#3B0764">♪ Слияние африканских ритмов и европейской гармонии</text>
  <text x="35" y="180" font-size="11" fill="#3B0764">♪ Афроамериканские духовные гимны (спиричуэлс) и рабочие песни</text>
  <text x="35" y="198" font-size="11" fill="#3B0764">♪ Ритмы рэгтайма и блюза — основа джазовой музыки</text>
  <text x="400" y="225" text-anchor="middle" font-size="15" font-weight="bold" fill="#7C3AED">Основные элементы джаза</text>
  <rect x="12" y="237" width="185" height="115" rx="10" fill="#FFFFFF" stroke="#F59E0B" stroke-width="2" />
  <circle cx="104" cy="265" r="18" fill="#F59E0B" opacity="0.15" />
  <text x="104" y="272" text-anchor="middle" font-size="20" fill="#F59E0B">♫</text>
  <text x="104" y="295" text-anchor="middle" font-size="12" font-weight="bold" fill="#3B0764">Импровизация</text>
  <text x="104" y="311" text-anchor="middle" font-size="10" fill="#3B0764">Создание музыки</text>
  <text x="104" y="325" text-anchor="middle" font-size="10" fill="#3B0764">в момент исполнения,</text>
  <text x="104" y="339" text-anchor="middle" font-size="10" fill="#3B0764">свобода самовыражения</text>
  <rect x="205" y="237" width="185" height="115" rx="10" fill="#FFFFFF" stroke="#F43F5E" stroke-width="2" />
  <circle cx="297" cy="265" r="18" fill="#F43F5E" opacity="0.15" />
  <text x="297" y="272" text-anchor="middle" font-size="20" fill="#F43F5E">♪</text>
  <text x="297" y="295" text-anchor="middle" font-size="12" font-weight="bold" fill="#3B0764">Синкопа</text>
  <text x="297" y="311" text-anchor="middle" font-size="10" fill="#3B0764">Смещение акцента</text>
  <text x="297" y="325" text-anchor="middle" font-size="10" fill="#3B0764">со слабой доли</text>
  <text x="297" y="339" text-anchor="middle" font-size="10" fill="#3B0764">на сильную</text>
  <rect x="398" y="237" width="185" height="115" rx="10" fill="#FFFFFF" stroke="#7C3AED" stroke-width="2" />
  <circle cx="490" cy="265" r="18" fill="#7C3AED" opacity="0.15" />
  <text x="490" y="272" text-anchor="middle" font-size="20" fill="#7C3AED">♩</text>
  <text x="490" y="295" text-anchor="middle" font-size="12" font-weight="bold" fill="#3B0764">Блюз</text>
  <text x="490" y="311" text-anchor="middle" font-size="10" fill="#3B0764">12-тактовая форма,</text>
  <text x="490" y="325" text-anchor="middle" font-size="10" fill="#3B0764">минорное звучание,</text>
  <text x="490" y="339" text-anchor="middle" font-size="10" fill="#3B0764">выразительность</text>
  <rect x="591" y="237" width="185" height="115" rx="10" fill="#FFFFFF" stroke="#10B981" stroke-width="2" />
  <circle cx="683" cy="265" r="18" fill="#10B981" opacity="0.15" />
  <text x="683" y="272" text-anchor="middle" font-size="20" fill="#10B981">♬</text>
  <text x="683" y="295" text-anchor="middle" font-size="12" font-weight="bold" fill="#3B0764">Свинг</text>
  <text x="683" y="311" text-anchor="middle" font-size="10" fill="#3B0764">Особый ритмический</text>
  <text x="683" y="325" text-anchor="middle" font-size="10" fill="#3B0764">рисунок, чувство</text>
  <text x="683" y="339" text-anchor="middle" font-size="10" fill="#3B0764">пульса музыки</text>
  <text x="400" y="372" text-anchor="middle" font-size="15" font-weight="bold" fill="#7C3AED">Стили джаза</text>
  <line x1="40" y1="407" x2="760" y2="407" stroke="#7C3AED" stroke-width="3" />
  <circle cx="60" cy="407" r="8" fill="#7C3AED" />
  <text x="60" y="430" text-anchor="middle" font-size="10" font-weight="bold" fill="#7C3AED">Нью-Орлеан</text>
  <text x="60" y="444" text-anchor="middle" font-size="9" fill="#3B0764">1900-е</text>
  <circle cx="180" cy="407" r="8" fill="#F59E0B" />
  <text x="180" y="430" text-anchor="middle" font-size="10" font-weight="bold" fill="#F59E0B">Свинг</text>
  <text x="180" y="444" text-anchor="middle" font-size="9" fill="#3B0764">1930-е</text>
  <circle cx="300" cy="407" r="8" fill="#F43F5E" />
  <text x="300" y="430" text-anchor="middle" font-size="10" font-weight="bold" fill="#F43F5E">Бибоп</text>
  <text x="300" y="444" text-anchor="middle" font-size="9" fill="#3B0764">1940-е</text>
  <circle cx="420" cy="407" r="8" fill="#0EA5E9" />
  <text x="420" y="430" text-anchor="middle" font-size="10" font-weight="bold" fill="#0EA5E9">Кул-джаз</text>
  <text x="420" y="444" text-anchor="middle" font-size="9" fill="#3B0764">1950-е</text>
  <circle cx="540" cy="407" r="8" fill="#10B981" />
  <text x="540" y="430" text-anchor="middle" font-size="10" font-weight="bold" fill="#10B981">Фри-джаз</text>
  <text x="540" y="444" text-anchor="middle" font-size="9" fill="#3B0764">1960-е</text>
  <circle cx="660" cy="407" r="8" fill="#F97316" />
  <text x="660" y="430" text-anchor="middle" font-size="10" font-weight="bold" fill="#F97316">Фьюжн</text>
  <text x="660" y="444" text-anchor="middle" font-size="9" fill="#3B0764">1970-е</text>
  <text x="400" y="465" text-anchor="middle" font-size="15" font-weight="bold" fill="#7C3AED">Великие джазовые музыканты</text>
  <rect x="18" y="475" width="145" height="45" rx="8" fill="#7C3AED" opacity="0.9" />
  <text x="90" y="495" text-anchor="middle" font-size="11" font-weight="bold" fill="#FFFFFF">Л. Армстронг</text>
  <text x="90" y="511" text-anchor="middle" font-size="10" fill="#FFFFFF" opacity="0.85">♪ Труба</text>
  <rect x="171" y="475" width="145" height="45" rx="8" fill="#F59E0B" opacity="0.9" />
  <text x="243" y="495" text-anchor="middle" font-size="11" font-weight="bold" fill="#FFFFFF">Д. Эллингтон</text>
  <text x="243" y="511" text-anchor="middle" font-size="10" fill="#FFFFFF" opacity="0.85">♪ Фортепиано</text>
  <rect x="324" y="475" width="145" height="45" rx="8" fill="#F43F5E" opacity="0.9" />
  <text x="396" y="495" text-anchor="middle" font-size="11" font-weight="bold" fill="#FFFFFF">Ч. Паркер</text>
  <text x="396" y="511" text-anchor="middle" font-size="10" fill="#FFFFFF" opacity="0.85">♪ Саксофон</text>
  <rect x="477" y="475" width="145" height="45" rx="8" fill="#0EA5E9" opacity="0.9" />
  <text x="549" y="495" text-anchor="middle" font-size="11" font-weight="bold" fill="#FFFFFF">М. Дэвис</text>
  <text x="549" y="511" text-anchor="middle" font-size="10" fill="#FFFFFF" opacity="0.85">♪ Труба</text>
  <rect x="630" y="475" width="145" height="45" rx="8" fill="#10B981" opacity="0.9" />
  <text x="702" y="495" text-anchor="middle" font-size="11" font-weight="bold" fill="#FFFFFF">Э. Фицджеральд</text>
  <text x="702" y="511" text-anchor="middle" font-size="10" fill="#FFFFFF" opacity="0.85">♪ Вокал</text>
  <g opacity="0.15">
    <line x1="20" y1="510" x2="150" y2="510" stroke="#7C3AED" stroke-width="1.5" />
    <line x1="20" y1="517" x2="150" y2="517" stroke="#7C3AED" stroke-width="1.5" />
    <line x1="20" y1="524" x2="150" y2="524" stroke="#7C3AED" stroke-width="1.5" />
    <line x1="20" y1="531" x2="150" y2="531" stroke="#7C3AED" stroke-width="1.5" />
    <line x1="20" y1="538" x2="150" y2="538" stroke="#7C3AED" stroke-width="1.5" />
  </g>
</svg>