<svg xmlns="http://www.w3.org/2000/svg" viewBox="0 0 500 350">
<defs><linearGradient id="bg" x1="0" y1="0" x2="1" y2="1"><stop offset="0%" stop-color="#FFF8E1"/><stop offset="100%" stop-color="#FFFDE7"/></linearGradient></defs>
<rect width="500" height="350" fill="url(#bg)" rx="10"/>
<rect x="3" y="3" width="494" height="344" rx="8" fill="none" stroke="#C62828" stroke-width="3"/>
<rect x="8" y="8" width="484" height="334" rx="6" fill="none" stroke="#C62828" stroke-width="1" opacity="0.3"/>
<polygon points="10,10 30,10 10,30" fill="#C62828" opacity="0.08"/>
<polygon points="490,10 470,10 490,30" fill="#1565C0" opacity="0.08"/>
<polygon points="10,340 30,340 10,320" fill="#F9A825" opacity="0.08"/>
<polygon points="490,340 470,340 490,320" fill="#2E7D32" opacity="0.08"/>
<circle cx="70" cy="15" r="4" fill="#C62828" opacity="0.1"/>
<circle cx="82" cy="15" r="4" fill="#1565C0" opacity="0.1"/>
<circle cx="94" cy="15" r="4" fill="#F9A825" opacity="0.1"/>
<circle cx="406" cy="15" r="4" fill="#C62828" opacity="0.1"/>
<circle cx="418" cy="15" r="4" fill="#1565C0" opacity="0.1"/>
<circle cx="430" cy="15" r="4" fill="#F9A825" opacity="0.1"/>
<text x="250" y="50" font-family="Arial,sans-serif" font-size="24" font-weight="bold" fill="#C62828" text-anchor="middle">Сказки народов мира</text>
<text x="250" y="68" font-family="Arial,sans-serif" font-size="12" fill="#777" text-anchor="middle">Литература - Урок 2</text>
<line x1="30" y1="78" x2="470" y2="78" stroke="#C62828" stroke-width="2" opacity="0.25"/>
<rect x="30" y="75" width="60" height="6" fill="#C62828" opacity="0.15" rx="1"/>
<rect x="410" y="75" width="60" height="6" fill="#1565C0" opacity="0.12" rx="1"/>

  <rect x="25" y="90" width="220" height="200" rx="6" fill="white" stroke="#7B1FA2" stroke-width="1.5"/>
  <text x="135" y="110" font-family="Arial,sans-serif" font-size="11" fill="#7B1FA2" text-anchor="middle" font-weight="bold">Сказки народов мира</text>
  <!-- Book illustration -->
  <rect x="60" y="125" width="100" height="70" rx="5" fill="#FFF8E1" stroke="#8D6E63" stroke-width="1.5"/>
  <line x1="110" y1="125" x2="110" y2="195" stroke="#8D6E63" stroke-width="1"/>
  <!-- Pages -->
  <line x1="65" y1="140" x2="108" y2="140" stroke="#D7CCC8" stroke-width="0.5"/>
  <line x1="65" y1="150" x2="108" y2="150" stroke="#D7CCC8" stroke-width="0.5"/>
  <line x1="65" y1="160" x2="108" y2="160" stroke="#D7CCC8" stroke-width="0.5"/>
  <line x1="65" y1="170" x2="108" y2="170" stroke="#D7CCC8" stroke-width="0.5"/>
  <line x1="112" y1="140" x2="155" y2="140" stroke="#D7CCC8" stroke-width="0.5"/>
  <line x1="112" y1="150" x2="155" y2="150" stroke="#D7CCC8" stroke-width="0.5"/>
  <line x1="112" y1="160" x2="155" y2="160" stroke="#D7CCC8" stroke-width="0.5"/>
  <!-- Quill -->
  <line x1="165" y1="130" x2="190" y2="185" stroke="#5D4037" stroke-width="2"/>
  <path d="M190,185 Q195,192 188,195" stroke="#5D4037" stroke-width="1" fill="none"/>
  <text x="110" y="215" font-family="Arial,sans-serif" font-size="9" fill="#7B1FA2" text-anchor="middle">художеств. текст</text>
  <!-- Genre -->
  <rect x="50" y="230" width="170" height="40" rx="4" fill="#F3E5F5" stroke="#7B1FA2" stroke-width="1"/>
  <text x="135" y="248" font-family="Arial,sans-serif" font-size="8" fill="#7B1FA2" text-anchor="middle">Жанры: былина, сказка,</text>
  <text x="135" y="262" font-family="Arial,sans-serif" font-size="8" fill="#7B1FA2" text-anchor="middle">повесть, стихотворение</text>

  <rect x="260" y="90" width="215" height="200" rx="6" fill="white" stroke="#F9A825" stroke-width="1.5"/>
  <text x="367" y="115" font-family="Arial,sans-serif" font-size="12" fill="#F9A825" text-anchor="middle" font-weight="bold">Авторы</text>
  <!-- Author portraits -->
  <circle cx="310" cy="155" r="18" fill="#E8EAF6" stroke="#3F51B5" stroke-width="1.5"/>
  <circle cx="310" cy="148" r="8" fill="#B0BEC5"/>
  <rect x="304" y="156" width="12" height="12" rx="2" fill="#78909C"/>
  <text x="310" y="183" font-family="Arial,sans-serif" font-size="7" fill="#3F51B5" text-anchor="middle">Пушкин</text>
  <circle cx="370" cy="155" r="18" fill="#E8EAF6" stroke="#3F51B5" stroke-width="1.5"/>
  <circle cx="370" cy="148" r="8" fill="#B0BEC5"/>
  <rect x="364" y="156" width="12" height="12" rx="2" fill="#78909C"/>
  <text x="370" y="183" font-family="Arial,sans-serif" font-size="7" fill="#3F51B5" text-anchor="middle">Лермонтов</text>
  <circle cx="430" cy="155" r="18" fill="#E8EAF6" stroke="#3F51B5" stroke-width="1.5"/>
  <circle cx="430" cy="148" r="8" fill="#B0BEC5"/>
  <rect x="424" y="156" width="12" height="12" rx="2" fill="#78909C"/>
  <text x="430" y="183" font-family="Arial,sans-serif" font-size="7" fill="#3F51B5" text-anchor="middle">Гоголь</text>
  <!-- Analysis -->
  <rect x="285" y="200" width="165" height="75" rx="4" fill="#FFF3E0"/>
  <text x="367" y="220" font-family="Arial,sans-serif" font-size="8" fill="#E65100" text-anchor="middle">Анализ произведения:</text>
  <text x="367" y="236" font-family="Arial,sans-serif" font-size="7" fill="#555" text-anchor="middle">тема, идея, герои</text>
  <text x="367" y="252" font-family="Arial,sans-serif" font-size="7" fill="#555" text-anchor="middle">композиция, стиль</text>
  <text x="367" y="268" font-family="Arial,sans-serif" font-size="7" fill="#555" text-anchor="middle">художественные средства</text>
<rect x="15" y="310" width="470" height="30" rx="4" fill="#C62828" opacity="0.85"/>
<text x="250" y="330" font-family="Arial,sans-serif" font-size="15" text-anchor="middle" fill="white" font-weight="bold">Литература</text>
</svg>