<svg xmlns="http://www.w3.org/2000/svg" viewBox="0 0 500 350">
  <defs>
    <linearGradient id="bg" x1="0" y1="0" x2="0" y2="1">
      <stop offset="0%" stop-color="#EDE7F6"/>
      <stop offset="100%" stop-color="#FFFFFF"/>
    </linearGradient>
    <linearGradient id="panel" x1="0" y1="0" x2="1" y2="0">
      <stop offset="0%" stop-color="#7C4DFF"/>
      <stop offset="100%" stop-color="#651FFF"/>
    </linearGradient>
  </defs>
  <rect width="500" height="350" fill="url(#bg)" rx="10"/>
  <rect x="3" y="3" width="494" height="344" rx="8" fill="none" stroke="#7C4DFF" stroke-width="3"/>
  <rect x="8" y="8" width="484" height="334" rx="6" fill="none" stroke="#7C4DFF" stroke-width="1" opacity="0.3"/>
  <polygon points="10,10 30,10 10,30" fill="#7C4DFF" opacity="0.12"/>
  <polygon points="490,10 470,10 490,30" fill="#651FFF" opacity="0.12"/>
  <polygon points="10,340 30,340 10,320" fill="#7C4DFF" opacity="0.12"/>
  <polygon points="490,340 470,340 490,320" fill="#651FFF" opacity="0.12"/>
  <text x="250" y="48" font-family="Arial,sans-serif" font-size="22" font-weight="bold" fill="#7C4DFF" text-anchor="middle">Урок 9: Право</text>
  <text x="250" y="68" font-family="Arial,sans-serif" font-size="12" fill="#777" text-anchor="middle">Обществознание - Урок 9</text>
  <line x1="30" y1="78" x2="470" y2="78" stroke="#7C4DFF" stroke-width="2" opacity="0.25"/>
  <rect x="30" y="75" width="60" height="5" fill="#7C4DFF" opacity="0.18" rx="1"/>
  <rect x="410" y="75" width="60" height="5" fill="#651FFF" opacity="0.12" rx="1"/>
  <clipPath id="ill"><rect x="15" y="85" width="470" height="215" rx="6"/></clipPath>
  <g clip-path="url(#ill)">
  <rect x="15" y="85" width="470" height="215" fill="#EDE7F6" opacity="0.5"/>
  <circle cx="220" cy="160" r="15" fill="#7C4DFF" opacity="0.2"/><circle cx="280" cy="160" r="15" fill="#651FFF" opacity="0.15"/><circle cx="250" cy="200" r="15" fill="#7C4DFF" opacity="0.12"/><line x1="220" y1="175" x2="250" y2="185" stroke="#7C4DFF" stroke-width="1.5"/><line x1="280" y1="175" x2="250" y2="185" stroke="#651FFF" stroke-width="1.5"/><line x1="220" y1="160" x2="280" y2="160" stroke="#7C4DFF" stroke-width="1" opacity="0.3"/>
  </g>
  <rect x="10" y="305" width="480" height="35" fill="url(#panel)" opacity="0.08" rx="5"/>
  <text x="250" y="327" font-family="Arial,sans-serif" font-size="11" fill="#7C4DFF" text-anchor="middle" opacity="0.6">11 класс • Обществознание</text>
</svg>