<svg xmlns="http://www.w3.org/2000/svg" viewBox="0 0 500 350">
  <defs>
    <linearGradient id="bg" x1="0" y1="0" x2="0" y2="1">
      <stop offset="0%" stop-color="#E0F2F1"/>
      <stop offset="100%" stop-color="#F5FDFC"/>
    </linearGradient>
    <linearGradient id="panel" x1="0" y1="0" x2="1" y2="0">
      <stop offset="0%" stop-color="#00695C"/>
      <stop offset="100%" stop-color="#00897B"/>
    </linearGradient>
  </defs>
  <rect width="500" height="350" fill="url(#bg)" rx="10"/>
  <rect x="3" y="3" width="494" height="344" rx="8" fill="none" stroke="#00695C" stroke-width="2.5"/>
  <rect x="8" y="8" width="484" height="334" rx="6" fill="none" stroke="#00695C" stroke-width="1" opacity="0.3"/>
  <polygon points="10,10 30,10 10,30" fill="#00695C" opacity="0.12"/>
  <polygon points="490,10 470,10 490,30" fill="#00897B" opacity="0.12"/>
  <polygon points="10,340 30,340 10,320" fill="#26A69A" opacity="0.12"/>
  <polygon points="490,340 470,340 490,320" fill="#004D40" opacity="0.12"/>
  <text x="250" y="46" font-family="Arial,sans-serif" font-size="22" font-weight="bold" fill="#00695C" text-anchor="middle">Социальные институты</text>
  <text x="250" y="66" font-family="Arial,sans-serif" font-size="12" fill="#777" text-anchor="middle">Обществознание — Урок 7</text>
  <line x1="30" y1="76" x2="470" y2="76" stroke="#00695C" stroke-width="2" opacity="0.25"/>
  <rect x="30" y="73" width="60" height="5" fill="#00695C" opacity="0.18" rx="1"/>
  <rect x="410" y="73" width="60" height="5" fill="#00897B" opacity="0.12" rx="1"/>
  <clipPath id="ill"><rect x="15" y="83" width="470" height="217" rx="6"/></clipPath>
  <g clip-path="url(#ill)">
  <rect x="15" y="83" width="470" height="217" fill="#E0F2F1"/>
  
    <!-- Definition -->
    <rect x="25" y="90" width="450" height="35" rx="5" fill="#00695C" opacity="0.1" stroke="#00695C" stroke-width="1"/>
    <text x="250" y="107" font-family="Arial,sans-serif" font-size="10" fill="#004D40" text-anchor="middle" font-weight="bold">Социальный институт — устойчивая форма организации совместной деятельности людей</text>

    <!-- 5 main institutions -->
    <rect x="25" y="132" width="90" height="75" rx="5" fill="white" stroke="#00695C" stroke-width="1.5"/>
    <rect x="25" y="132" width="90" height="18" rx="5" fill="#00695C"/>
    <text x="70" y="145" font-family="Arial,sans-serif" font-size="8" fill="white" text-anchor="middle" font-weight="bold">Семья</text>
    <text x="70" y="163" font-family="Arial,sans-serif" font-size="7" fill="#666" text-anchor="middle">Воспроизводство</text>
    <text x="70" y="173" font-family="Arial,sans-serif" font-size="7" fill="#666" text-anchor="middle">рода, воспитание</text>
    <text x="70" y="195" font-family="Arial,sans-serif" font-size="7" fill="#00695C" text-anchor="middle">Брак, родство</text>

    <rect x="125" y="132" width="90" height="75" rx="5" fill="white" stroke="#00897B" stroke-width="1.5"/>
    <rect x="125" y="132" width="90" height="18" rx="5" fill="#00897B"/>
    <text x="170" y="145" font-family="Arial,sans-serif" font-size="8" fill="white" text-anchor="middle" font-weight="bold">Государство</text>
    <text x="170" y="163" font-family="Arial,sans-serif" font-size="7" fill="#666" text-anchor="middle">Управление,</text>
    <text x="170" y="173" font-family="Arial,sans-serif" font-size="7" fill="#666" text-anchor="middle">безопасность</text>
    <text x="170" y="195" font-family="Arial,sans-serif" font-size="7" fill="#00897B" text-anchor="middle">Власть, закон</text>

    <rect x="225" y="132" width="90" height="75" rx="5" fill="white" stroke="#26A69A" stroke-width="1.5"/>
    <rect x="225" y="132" width="90" height="18" rx="5" fill="#26A69A"/>
    <text x="270" y="145" font-family="Arial,sans-serif" font-size="8" fill="white" text-anchor="middle" font-weight="bold">Производство</text>
    <text x="270" y="163" font-family="Arial,sans-serif" font-size="7" fill="#666" text-anchor="middle">Создание благ,</text>
    <text x="270" y="173" font-family="Arial,sans-serif" font-size="7" fill="#666" text-anchor="middle">распределение</text>
    <text x="270" y="195" font-family="Arial,sans-serif" font-size="7" fill="#26A69A" text-anchor="middle">Рынок, труд</text>

    <rect x="325" y="132" width="80" height="75" rx="5" fill="white" stroke="#004D40" stroke-width="1.5"/>
    <rect x="325" y="132" width="80" height="18" rx="5" fill="#004D40"/>
    <text x="365" y="145" font-family="Arial,sans-serif" font-size="8" fill="white" text-anchor="middle" font-weight="bold">Образование</text>
    <text x="365" y="163" font-family="Arial,sans-serif" font-size="7" fill="#666" text-anchor="middle">Передача знаний,</text>
    <text x="365" y="173" font-family="Arial,sans-serif" font-size="7" fill="#666" text-anchor="middle">социализация</text>
    <text x="365" y="195" font-family="Arial,sans-serif" font-size="7" fill="#004D40" text-anchor="middle">Школа, ВУЗ</text>

    <rect x="415" y="132" width="60" height="75" rx="5" fill="white" stroke="#80CBC4" stroke-width="1.5"/>
    <rect x="415" y="132" width="60" height="18" rx="5" fill="#80CBC4"/>
    <text x="445" y="145" font-family="Arial,sans-serif" font-size="8" fill="white" text-anchor="middle" font-weight="bold">Религия</text>
    <text x="445" y="163" font-family="Arial,sans-serif" font-size="7" fill="#666" text-anchor="middle">Духовные</text>
    <text x="445" y="173" font-family="Arial,sans-serif" font-size="7" fill="#666" text-anchor="middle">потребности</text>
    <text x="445" y="195" font-family="Arial,sans-serif" font-size="7" fill="#80CBC4" text-anchor="middle">Церковь</text>

    <!-- Elements of social institution -->
    <rect x="25" y="218" width="450" height="80" rx="6" fill="white" stroke="#00695C" stroke-width="1"/>
    <text x="250" y="234" font-family="Arial,sans-serif" font-size="10" fill="#00695C" text-anchor="middle" font-weight="bold">Элементы социального института</text>
    <line x1="35" y1="240" x2="465" y2="240" stroke="#00695C" stroke-width="0.5" opacity="0.3"/>
    <circle cx="45" cy="256" r="3" fill="#00897B"/>
    <text x="53" y="260" font-family="Arial,sans-serif" font-size="9" fill="#004D40">Цель (функция института)</text>
    <circle cx="45" cy="272" r="3" fill="#00897B"/>
    <text x="53" y="276" font-family="Arial,sans-serif" font-size="9" fill="#004D40">Нормы и правила поведения</text>
    <circle cx="250" cy="256" r="3" fill="#00695C"/>
    <text x="258" y="260" font-family="Arial,sans-serif" font-size="9" fill="#004D40">Учреждения (организации)</text>
    <circle cx="250" cy="272" r="3" fill="#00695C"/>
    <text x="258" y="276" font-family="Arial,sans-serif" font-size="9" fill="#004D40">Символы и культурные образцы</text>
  </g>
  <rect x="12" y="305" width="476" height="32" rx="5" fill="url(#panel)"/>
  <line x1="20" y1="308" x2="20" y2="334" stroke="#26A69A" stroke-width="1.5" opacity="0.6"/>
  <line x1="480" y1="308" x2="480" y2="334" stroke="#26A69A" stroke-width="1.5" opacity="0.6"/>
  <text x="250" y="326" font-family="Arial,sans-serif" font-size="14" text-anchor="middle" fill="white" font-weight="bold">Обществознание · 11 класс</text>
</svg>