<svg xmlns="http://www.w3.org/2000/svg" viewBox="0 0 500 350">
  <defs>
    <linearGradient id="bg" x1="0" y1="0" x2="0" y2="1">
      <stop offset="0%" stop-color="#E0F2F1"/>
      <stop offset="100%" stop-color="#F5FDFC"/>
    </linearGradient>
    <linearGradient id="panel" x1="0" y1="0" x2="1" y2="0">
      <stop offset="0%" stop-color="#00695C"/>
      <stop offset="100%" stop-color="#00897B"/>
    </linearGradient>
  </defs>
  <rect width="500" height="350" fill="url(#bg)" rx="10"/>
  <rect x="3" y="3" width="494" height="344" rx="8" fill="none" stroke="#00695C" stroke-width="2.5"/>
  <rect x="8" y="8" width="484" height="334" rx="6" fill="none" stroke="#00695C" stroke-width="1" opacity="0.3"/>
  <polygon points="10,10 30,10 10,30" fill="#00695C" opacity="0.12"/>
  <polygon points="490,10 470,10 490,30" fill="#00897B" opacity="0.12"/>
  <polygon points="10,340 30,340 10,320" fill="#26A69A" opacity="0.12"/>
  <polygon points="490,340 470,340 490,320" fill="#004D40" opacity="0.12"/>
  <text x="250" y="46" font-family="Arial,sans-serif" font-size="22" font-weight="bold" fill="#00695C" text-anchor="middle">Избирательное право</text>
  <text x="250" y="66" font-family="Arial,sans-serif" font-size="12" fill="#777" text-anchor="middle">Обществознание — Урок 12</text>
  <line x1="30" y1="76" x2="470" y2="76" stroke="#00695C" stroke-width="2" opacity="0.25"/>
  <rect x="30" y="73" width="60" height="5" fill="#00695C" opacity="0.18" rx="1"/>
  <rect x="410" y="73" width="60" height="5" fill="#00897B" opacity="0.12" rx="1"/>
  <clipPath id="ill"><rect x="15" y="83" width="470" height="217" rx="6"/></clipPath>
  <g clip-path="url(#ill)">
  <rect x="15" y="83" width="470" height="217" fill="#E0F2F1"/>
  
    <!-- Definition -->
    <rect x="25" y="90" width="450" height="35" rx="5" fill="#00695C" opacity="0.1" stroke="#00695C" stroke-width="1"/>
    <text x="250" y="107" font-family="Arial,sans-serif" font-size="10" fill="#004D40" text-anchor="middle" font-weight="bold">Избирательное право — совокупность правовых норм, регулирующих порядок выборов</text>

    <!-- Principles -->
    <rect x="25" y="132" width="220" height="85" rx="6" fill="white" stroke="#00695C" stroke-width="1.5"/>
    <rect x="25" y="132" width="220" height="20" rx="6" fill="#00695C"/>
    <text x="135" y="147" font-family="Arial,sans-serif" font-size="10" fill="white" text-anchor="middle" font-weight="bold">Принципы избирательного права</text>
    <circle cx="40" cy="168" r="3" fill="#00695C"/>
    <text x="48" y="172" font-family="Arial,sans-serif" font-size="9" fill="#004D40">Всеобщее (с 18 лет)</text>
    <circle cx="40" cy="184" r="3" fill="#00695C"/>
    <text x="48" y="188" font-family="Arial,sans-serif" font-size="9" fill="#004D40">Равное (1 человек = 1 голос)</text>
    <circle cx="40" cy="200" r="3" fill="#00695C"/>
    <text x="48" y="204" font-family="Arial,sans-serif" font-size="9" fill="#004D40">Прямое (непосредственное)</text>
    <circle cx="40" cy="208" r="3" fill="#26A69A"/>
    <text x="48" y="212" font-family="Arial,sans-serif" font-size="0" fill="#004D40">spacer</text>

    <rect x="255" y="132" width="220" height="85" rx="6" fill="white" stroke="#00897B" stroke-width="1.5"/>
    <rect x="255" y="132" width="220" height="20" rx="6" fill="#00897B"/>
    <text x="365" y="147" font-family="Arial,sans-serif" font-size="10" fill="white" text-anchor="middle" font-weight="bold">Тайное голосование</text>
    <text x="265" y="167" font-family="Arial,sans-serif" font-size="9" fill="#004D40">Никто не может контролировать</text>
    <text x="265" y="180" font-family="Arial,sans-serif" font-size="9" fill="#004D40">волеизъявление гражданина</text>
    <line x1="265" y1="188" x2="465" y2="188" stroke="#00897B" stroke-width="0.5" opacity="0.3"/>
    <text x="365" y="203" font-family="Arial,sans-serif" font-size="8" fill="#666">Бюллетень не содержит идентификации</text>
    <text x="365" y="214" font-family="Arial,sans-serif" font-size="8" fill="#666">Кабина для тайного голосования</text>

    <!-- Types of electoral systems -->
    <rect x="25" y="225" width="215" height="73" rx="6" fill="white" stroke="#00695C" stroke-width="1.5"/>
    <rect x="25" y="225" width="215" height="20" rx="6" fill="#00695C"/>
    <text x="132" y="240" font-family="Arial,sans-serif" font-size="9" fill="white" text-anchor="middle" font-weight="bold">Мажоритарная система</text>
    <text x="35" y="258" font-family="Arial,sans-serif" font-size="8" fill="#004D40">Побеждает набравший большинство</text>
    <text x="35" y="270" font-family="Arial,sans-serif" font-size="8" fill="#666">Пример: выборы Президента РФ</text>
    <text x="35" y="286" font-family="Arial,sans-serif" font-size="8" fill="#00695C">+ связь депутат-избиратель</text>
    <text x="35" y="296" font-family="Arial,sans-serif" font-size="8" fill="#C62828">- неучтённые голоса меньшинства</text>

    <rect x="250" y="225" width="225" height="73" rx="6" fill="white" stroke="#00897B" stroke-width="1.5"/>
    <rect x="250" y="225" width="225" height="20" rx="6" fill="#00897B"/>
    <text x="362" y="240" font-family="Arial,sans-serif" font-size="9" fill="white" text-anchor="middle" font-weight="bold">Пропорциональная система</text>
    <text x="260" y="258" font-family="Arial,sans-serif" font-size="8" fill="#004D40">Места по % голосов за партию</text>
    <text x="260" y="270" font-family="Arial,sans-serif" font-size="8" fill="#666">Пример: выборы в Гос. Думу</text>
    <text x="260" y="286" font-family="Arial,sans-serif" font-size="8" fill="#00897B">+ представительство партий</text>
    <text x="260" y="296" font-family="Arial,sans-serif" font-size="8" fill="#C62828">- слабая связь депутат-избиратель</text>
  </g>
  <rect x="12" y="305" width="476" height="32" rx="5" fill="url(#panel)"/>
  <line x1="20" y1="308" x2="20" y2="334" stroke="#26A69A" stroke-width="1.5" opacity="0.6"/>
  <line x1="480" y1="308" x2="480" y2="334" stroke="#26A69A" stroke-width="1.5" opacity="0.6"/>
  <text x="250" y="326" font-family="Arial,sans-serif" font-size="14" text-anchor="middle" fill="white" font-weight="bold">Обществознание · 11 класс</text>
</svg>