<svg xmlns="http://www.w3.org/2000/svg" viewBox="0 0 500 350">
<defs>
<linearGradient id="bg" x1="0" y1="0" x2="1" y2="1"><stop offset="0%" stop-color="#E3F2FD"/><stop offset="100%" stop-color="#BBDEFB"/></linearGradient>
<linearGradient id="lensGrad" x1="0" y1="0" x2="1" y2="1"><stop offset="0%" stop-color="#E1F5FE"/><stop offset="100%" stop-color="#B3E5FC"/></linearGradient>
</defs>
<rect width="500" height="350" fill="url(#bg)" rx="10"/>
<rect x="3" y="3" width="494" height="344" rx="8" fill="none" stroke="#1565C0" stroke-width="2.5"/>
<text x="250" y="28" font-family="Arial,sans-serif" font-size="14" font-weight="bold" fill="#0D47A1" text-anchor="middle">Методы исследования в биологии</text>
<text x="250" y="43" font-family="Arial,sans-serif" font-size="9" fill="#666" text-anchor="middle">Биология 5 класс — Урок 2</text>
<line x1="30" y1="50" x2="470" y2="50" stroke="#1565C0" stroke-width="1" opacity="0.3"/>

<!-- Microscope illustration -->
<g transform="translate(100,140)">
  <rect x="-40" y="-55" width="80" height="110" rx="6" fill="white" opacity="0.9" stroke="#1565C0" stroke-width="1.5"/>
  <text x="0" y="-40" font-family="Arial,sans-serif" font-size="8" fill="#0D47A1" text-anchor="middle" font-weight="bold">МИКРОСКОП</text>
  <line x1="-30" y1="-33" x2="30" y2="-33" stroke="#1565C0" stroke-width="0.5"/>
  <!-- Eyepiece -->
  <rect x="-8" y="-30" width="16" height="8" rx="2" fill="#90CAF9" stroke="#1565C0" stroke-width="1"/>
  <rect x="-6" y="-28" width="12" height="4" rx="1" fill="url(#lensGrad)"/>
  <!-- Tube -->
  <rect x="-4" y="-22" width="8" height="20" fill="#64B5F6" stroke="#1565C0" stroke-width="1"/>
  <!-- Objective -->
  <rect x="-6" y="-2" width="12" height="6" rx="1" fill="#42A5F5" stroke="#1565C0" stroke-width="1"/>
  <!-- Stage -->
  <rect x="-25" y="8" width="50" height="4" rx="1" fill="#BBDEFB" stroke="#1565C0" stroke-width="1"/>
  <rect x="-10" y="6" width="20" height="2" fill="#E3F2FD" stroke="#1565C0" stroke-width="0.5"/>
  <!-- Arm -->
  <rect x="5" y="-22" width="6" height="35" rx="1" fill="#90CAF9" stroke="#1565C0" stroke-width="1"/>
  <!-- Base -->
  <rect x="-25" y="14" width="50" height="6" rx="2" fill="#64B5F6" stroke="#1565C0" stroke-width="1"/>
  <!-- Focus knob -->
  <circle cx="8" cy="5" r="5" fill="#42A5F5" stroke="#1565C0" stroke-width="1"/>
  <text x="0" y="38" font-family="Arial,sans-serif" font-size="6" fill="#1565C0" text-anchor="middle">Наблюдение</text>
</g>

<!-- Experiment illustration -->
<g transform="translate(250,140)">
  <rect x="-50" y="-55" width="100" height="110" rx="6" fill="white" opacity="0.9" stroke="#2E7D32" stroke-width="1.5"/>
  <text x="0" y="-40" font-family="Arial,sans-serif" font-size="8" fill="#1B5E20" text-anchor="middle" font-weight="bold">ЭКСПЕРИМЕНТ</text>
  <line x1="-40" y1="-33" x2="40" y2="-33" stroke="#2E7D32" stroke-width="0.5"/>
  <!-- Test tube 1 -->
  <rect x="-30" y="-25" width="10" height="35" rx="3" fill="#E8F5E9" stroke="#2E7D32" stroke-width="1"/>
  <rect x="-30" y="-5" width="10" height="15" rx="3" fill="#81C784" opacity="0.7"/>
  <circle cx="-25" cy="-5" r="2" fill="#4CAF50"/>
  <!-- Test tube 2 -->
  <rect x="-12" y="-25" width="10" height="35" rx="3" fill="#E8F5E9" stroke="#2E7D32" stroke-width="1"/>
  <rect x="-12" y="-10" width="10" height="20" rx="3" fill="#FFAB91" opacity="0.7"/>
  <!-- Beaker -->
  <path d="M10,-25 L10,5 Q10,10 15,10 L25,10 Q30,10 30,5 L30,-25" fill="none" stroke="#2E7D32" stroke-width="1.5"/>
  <rect x="11" y="-5" width="18" height="14" rx="2" fill="#C8E6C9" opacity="0.6"/>
  <!-- Arrow showing comparison -->
  <line x1="-35" y1="20" x2="35" y2="20" stroke="#FF9800" stroke-width="1.5" marker-end="url(#arrow)"/>
  <text x="0" y="35" font-family="Arial,sans-serif" font-size="6" fill="#2E7D32" text-anchor="middle">Опыт + Контроль</text>
  <text x="0" y="45" font-family="Arial,sans-serif" font-size="5" fill="#666" text-anchor="middle">Сравнение результатов</text>
</g>

<!-- Measurement & comparison -->
<g transform="translate(400,140)">
  <rect x="-40" y="-55" width="80" height="110" rx="6" fill="white" opacity="0.9" stroke="#E65100" stroke-width="1.5"/>
  <text x="0" y="-40" font-family="Arial,sans-serif" font-size="7" fill="#BF360C" text-anchor="middle" font-weight="bold">ИЗМЕРЕНИЕ</text>
  <line x1="-30" y1="-33" x2="30" y2="-33" stroke="#E65100" stroke-width="0.5"/>
  <!-- Ruler -->
  <rect x="-20" y="-25" width="40" height="8" fill="#FFE0B2" stroke="#E65100" stroke-width="1"/>
  <line x1="-18" y1="-25" x2="-18" y2="-20" stroke="#E65100" stroke-width="0.5"/>
  <line x1="-10" y1="-25" x2="-10" y2="-21" stroke="#E65100" stroke-width="0.5"/>
  <line x1="-2" y1="-25" x2="-2" y2="-20" stroke="#E65100" stroke-width="0.5"/>
  <line x1="6" y1="-25" x2="6" y2="-21" stroke="#E65100" stroke-width="0.5"/>
  <line x1="14" y1="-25" x2="14" y2="-20" stroke="#E65100" stroke-width="0.5"/>
  <!-- Leaf being measured -->
  <path d="M-5,-5 Q5,-18 15,-5 Q10,5 5,10 Q0,5 -5,-5" fill="#81C784" stroke="#2E7D32" stroke-width="1"/>
  <line x1="-5" y1="10" x2="15" y2="10" stroke="#E65100" stroke-width="1" stroke-dasharray="2,1"/>
  <text x="5" y="20" font-family="Arial,sans-serif" font-size="5" fill="#E65100" text-anchor="middle">5 см</text>
  <!-- Thermometer -->
  <rect x="-5" y="25" width="6" height="25" rx="3" fill="#FFCDD2" stroke="#C62828" stroke-width="0.8"/>
  <rect x="-3" y="35" width="2" height="14" rx="1" fill="#F44336"/>
  <circle cx="-2" cy="48" r="4" fill="#F44336" stroke="#C62828" stroke-width="0.8"/>
  <text x="12" y="38" font-family="Arial,sans-serif" font-size="5" fill="#C62828">t°</text>
</g>

<!-- Bottom method flow -->
<rect x="30" y="260" width="440" height="70" rx="6" fill="white" opacity="0.9" stroke="#1565C0" stroke-width="1"/>
<text x="250" y="278" font-family="Arial,sans-serif" font-size="8" fill="#0D47A1" text-anchor="middle" font-weight="bold">Последовательность научного исследования</text>
<rect x="50" y="286" width="70" height="18" rx="4" fill="#E3F2FD" stroke="#1565C0" stroke-width="0.8"/>
<text x="85" y="298" font-family="Arial,sans-serif" font-size="6" fill="#1565C0" text-anchor="middle">Наблюдение</text>
<text x="128" y="298" font-family="Arial,sans-serif" font-size="8" fill="#1565C0">→</text>
<rect x="137" y="286" width="70" height="18" rx="4" fill="#E8F5E9" stroke="#2E7D32" stroke-width="0.8"/>
<text x="172" y="298" font-family="Arial,sans-serif" font-size="6" fill="#2E7D32" text-anchor="middle">Гипотеза</text>
<text x="215" y="298" font-family="Arial,sans-serif" font-size="8" fill="#2E7D32">→</text>
<rect x="224" y="286" width="70" height="18" rx="4" fill="#FFF3E0" stroke="#E65100" stroke-width="0.8"/>
<text x="259" y="298" font-family="Arial,sans-serif" font-size="6" fill="#E65100" text-anchor="middle">Эксперимент</text>
<text x="302" y="298" font-family="Arial,sans-serif" font-size="8" fill="#E65100">→</text>
<rect x="311" y="286" width="60" height="18" rx="4" fill="#F3E5F5" stroke="#7B1FA2" stroke-width="0.8"/>
<text x="341" y="298" font-family="Arial,sans-serif" font-size="6" fill="#7B1FA2" text-anchor="middle">Анализ</text>
<text x="380" y="298" font-family="Arial,sans-serif" font-size="8" fill="#7B1FA2">→</text>
<rect x="389" y="286" width="60" height="18" rx="4" fill="#FFEBEE" stroke="#C62828" stroke-width="0.8"/>
<text x="419" y="298" font-family="Arial,sans-serif" font-size="6" fill="#C62828" text-anchor="middle">Вывод</text>
<text x="250" y="322" font-family="Arial,sans-serif" font-size="6" fill="#666" text-anchor="middle">Моделирование · Сравнение · Описание · Классификация</text>
</svg>