<svg xmlns="http://www.w3.org/2000/svg" viewBox="0 0 500 350">
<defs>
<linearGradient id="bg" x1="0" y1="0" x2="1" y2="1"><stop offset="0%" stop-color="#E0F7FA"/><stop offset="100%" stop-color="#B2EBF2"/></linearGradient>
<linearGradient id="waterGrad" x1="0" y1="0" x2="0" y2="1"><stop offset="0%" stop-color="#4FC3F7"/><stop offset="100%" stop-color="#0277BD"/></linearGradient>
</defs>
<rect width="500" height="350" fill="url(#bg)" rx="10"/>
<rect x="3" y="3" width="494" height="344" rx="8" fill="none" stroke="#00838F" stroke-width="2.5"/>
<text x="250" y="28" font-family="Arial,sans-serif" font-size="14" font-weight="bold" fill="#006064" text-anchor="middle">Среды обитания организмов</text>
<text x="250" y="43" font-family="Arial,sans-serif" font-size="9" fill="#666" text-anchor="middle">Биология 5 класс — Урок 4</text>
<line x1="30" y1="50" x2="470" y2="50" stroke="#00838F" stroke-width="1" opacity="0.3"/>

<!-- Водная среда -->
<g transform="translate(85,170)">
  <rect x="-60" y="-95" width="120" height="175" rx="8" fill="white" opacity="0.9" stroke="#0277BD" stroke-width="1.5"/>
  <text x="0" y="-78" font-family="Arial,sans-serif" font-size="9" fill="#01579B" text-anchor="middle" font-weight="bold">ВОДНАЯ</text>
  <line x1="-50" y1="-72" x2="50" y2="-72" stroke="#0277BD" stroke-width="0.5"/>
  <!-- Water surface -->
  <path d="M-50,-60 Q-40,-65 -30,-60 Q-20,-55 -10,-60 Q0,-65 10,-60 Q20,-55 30,-60 Q40,-65 50,-60" fill="none" stroke="#4FC3F7" stroke-width="1.5"/>
  <rect x="-50" y="-58" width="100" height="120" rx="2" fill="url(#waterGrad)" opacity="0.3"/>
  <!-- Fish -->
  <ellipse cx="-10" cy="-20" rx="15" ry="8" fill="#FFB74D" stroke="#E65100" stroke-width="1"/>
  <polygon points="-25,-20 -35,-28 -35,-12" fill="#FF9800" stroke="#E65100" stroke-width="0.8"/>
  <circle cx="-17" cy="-22" r="2" fill="#1B5E20"/>
  <path d="M-5,-20 Q0,-23 5,-20" fill="none" stroke="#E65100" stroke-width="0.8"/>
  <!-- Jellyfish -->
  <path d="M20,-30 Q30,-45 40,-30" fill="#E1BEE7" stroke="#9C27B0" stroke-width="0.8" opacity="0.7"/>
  <path d="M22,-30 Q22,-15 25,-5" fill="none" stroke="#9C27B0" stroke-width="0.5" opacity="0.5"/>
  <path d="M30,-30 Q30,-10 33,0" fill="none" stroke="#9C27B0" stroke-width="0.5" opacity="0.5"/>
  <path d="M38,-30 Q38,-15 41,-5" fill="none" stroke="#9C27B0" stroke-width="0.5" opacity="0.5"/>
  <!-- Seaweed -->
  <path d="M-30,50 Q-25,30 -30,10" fill="none" stroke="#4CAF50" stroke-width="2"/>
  <path d="M-30,40 Q-22,35 -25,30" fill="none" stroke="#4CAF50" stroke-width="1"/>
  <path d="M-30,25 Q-22,20 -25,15" fill="none" stroke="#4CAF50" stroke-width="1"/>
  <!-- Bottom -->
  <path d="M-50,55 Q-30,50 0,55 Q30,60 50,55" fill="#FFE0B2" stroke="#E65100" stroke-width="0.5"/>
  <text x="0" y="72" font-family="Arial,sans-serif" font-size="5.5" fill="#01579B" text-anchor="middle">Рыбы, водоросли,</text>
  <text x="0" y="80" font-family="Arial,sans-serif" font-size="5.5" fill="#01579B" text-anchor="middle">моллюски, раки</text>
</g>

<!-- Наземно-воздушная среда -->
<g transform="translate(250,170)">
  <rect x="-60" y="-95" width="120" height="175" rx="8" fill="white" opacity="0.9" stroke="#2E7D32" stroke-width="1.5"/>
  <text x="0" y="-78" font-family="Arial,sans-serif" font-size="8" fill="#1B5E20" text-anchor="middle" font-weight="bold">НАЗЕМНО-ВОЗДУШНАЯ</text>
  <line x1="-50" y1="-72" x2="50" y2="-72" stroke="#2E7D32" stroke-width="0.5"/>
  <!-- Sky -->
  <rect x="-50" y="-65" width="100" height="40" fill="#B3E5FC" opacity="0.5"/>
  <!-- Sun -->
  <circle cx="35" cy="-55" r="8" fill="#FFD54F" stroke="#F9A825" stroke-width="1"/>
  <line x1="35" y1="-67" x2="35" y2="-70" stroke="#F9A825" stroke-width="1"/>
  <line x1="47" y1="-55" x2="50" y2="-55" stroke="#F9A825" stroke-width="1"/>
  <line x1="43" y1="-63" x2="46" y2="-66" stroke="#F9A825" stroke-width="1"/>
  <!-- Cloud -->
  <ellipse cx="-15" cy="-55" rx="12" ry="6" fill="white" opacity="0.8"/>
  <ellipse cx="-5" cy="-55" rx="10" ry="5" fill="white" opacity="0.8"/>
  <!-- Tree -->
  <rect x="-5" y="-25" width="6" height="30" fill="#795548" stroke="#5D4037" stroke-width="0.5"/>
  <path d="M-20,-25 Q-10,-55 0,-45 Q10,-55 20,-25" fill="#66BB6A" stroke="#2E7D32" stroke-width="1"/>
  <path d="M-15,-20 Q-8,-35 0,-30 Q8,-35 15,-20" fill="#4CAF50"/>
  <!-- Bird -->
  <path d="M25,-40 Q30,-45 35,-40" fill="none" stroke="#333" stroke-width="1"/>
  <path d="M25,-40 Q30,-35 35,-40" fill="none" stroke="#333" stroke-width="1"/>
  <!-- Grass -->
  <path d="M-40,5 Q-38,-5 -35,5" fill="none" stroke="#4CAF50" stroke-width="1"/>
  <path d="M-35,5 Q-33,-3 -30,5" fill="none" stroke="#4CAF50" stroke-width="1"/>
  <path d="M30,5 Q32,-3 35,5" fill="none" stroke="#4CAF50" stroke-width="1"/>
  <!-- Ground -->
  <rect x="-50" y="5" width="100" height="55" fill="#C8E6C9" opacity="0.5"/>
  <path d="M-50,5 Q-25,0 0,5 Q25,10 50,5" fill="#8D6E63" opacity="0.3"/>
  <!-- Flower -->
  <line x1="30" y1="5" x2="30" y2="-5" stroke="#4CAF50" stroke-width="1"/>
  <circle cx="30" cy="-8" r="4" fill="#F44336" stroke="#C62828" stroke-width="0.5"/>
  <circle cx="30" cy="-8" r="1.5" fill="#FFD54F"/>
  <text x="0" y="40" font-family="Arial,sans-serif" font-size="5.5" fill="#1B5E20" text-anchor="middle">Млекопитающие, птицы,</text>
  <text x="0" y="48" font-family="Arial,sans-serif" font-size="5.5" fill="#1B5E20" text-anchor="middle">насекомые, растения</text>
  <text x="0" y="58" font-family="Arial,sans-serif" font-size="5" fill="#666" text-anchor="middle">Самая разнообразная</text>
  <text x="0" y="66" font-family="Arial,sans-serif" font-size="5" fill="#666" text-anchor="middle">среда обитания</text>
</g>

<!-- Почвенная среда -->
<g transform="translate(415,170)">
  <rect x="-60" y="-95" width="120" height="175" rx="8" fill="white" opacity="0.9" stroke="#795548" stroke-width="1.5"/>
  <text x="0" y="-78" font-family="Arial,sans-serif" font-size="9" fill="#4E342E" text-anchor="middle" font-weight="bold">ПОЧВЕННАЯ</text>
  <line x1="-50" y1="-72" x2="50" y2="-72" stroke="#795548" stroke-width="0.5"/>
  <!-- Surface line -->
  <path d="M-50,-55 Q-25,-50 0,-55 Q25,-60 50,-55" fill="none" stroke="#4CAF50" stroke-width="1"/>
  <path d="M-50,-55 Q-25,-50 0,-55 Q25,-60 50,-55 L50,55 L-50,55 Z" fill="#8D6E63" opacity="0.4"/>
  <!-- Roots -->
  <path d="M-10,-55 Q-12,-40 -15,-30" fill="none" stroke="#795548" stroke-width="1.5"/>
  <path d="M-15,-30 Q-20,-25 -25,-28" fill="none" stroke="#795548" stroke-width="0.8"/>
  <path d="M-15,-30 Q-10,-20 -5,-25" fill="none" stroke="#795548" stroke-width="0.8"/>
  <path d="M-15,-40 Q-8,-35 -3,-40" fill="none" stroke="#795548" stroke-width="0.8"/>
  <!-- Worm -->
  <path d="M-30,-10 Q-20,-15 -10,-10 Q0,-5 10,-10 Q20,-15 25,-10" fill="none" stroke="#FF8A65" stroke-width="3" stroke-linecap="round"/>
  <!-- Mole -->
  <ellipse cx="20" cy="15" rx="10" ry="7" fill="#8D6E63" stroke="#5D4037" stroke-width="1"/>
  <circle cx="16" cy="12" r="1.5" fill="#1B5E20"/>
  <path d="M10,15 Q8,13 12,15" fill="none" stroke="#5D4037" stroke-width="0.8"/>
  <path d="M24,10 L28,6" stroke="#5D4037" stroke-width="0.8"/>
  <path d="M28,10 L32,6" stroke="#5D4037" stroke-width="0.8"/>
  <!-- Tunnel -->
  <path d="M-40,25 Q-20,20 0,25 Q20,30 40,25" fill="none" stroke="#5D4037" stroke-width="2" stroke-dasharray="3,2" opacity="0.5"/>
  <!-- Small organisms -->
  <circle cx="-25" cy="35" r="2" fill="#FFCC80" stroke="#E65100" stroke-width="0.5"/>
  <circle cx="-15" cy="40" r="1.5" fill="#FFCC80" stroke="#E65100" stroke-width="0.5"/>
  <circle cx="5" cy="38" r="1.5" fill="#FFCC80" stroke="#E65100" stroke-width="0.5"/>
  <text x="0" y="53" font-family="Arial,sans-serif" font-size="5" fill="#4E342E" text-anchor="middle">Черви, кроты, насекомые</text>
  <text x="0" y="61" font-family="Arial,sans-serif" font-size="5" fill="#4E342E" text-anchor="middle">бактерии, грибы</text>
  <text x="0" y="72" font-family="Arial,sans-serif" font-size="5" fill="#999" text-anchor="middle">мало света и воздуха</text>
</g>

<!-- Organismal environment note -->
<rect x="30" y="310" width="440" height="25" rx="6" fill="white" opacity="0.9" stroke="#00838F" stroke-width="1"/>
<text x="250" y="327" font-family="Arial,sans-serif" font-size="7" fill="#006064" text-anchor="middle" font-weight="bold">4-я среда: Организм как среда обитания — вирусы, бактерии, паразиты живут внутри других организмов</text>
</svg>