<?xml version='1.0' encoding='utf-8'?>
<svg xmlns="http://www.w3.org/2000/svg" width="800" height="600" viewBox="0 0 800 600">
  <rect width="800" height="600" fill="#0F172A" />
  <defs>
    <pattern id="grid" width="40" height="40" patternUnits="userSpaceOnUse">
      <path d="M 40 0 L 0 0 0 40" fill="none" stroke="#1E293B" stroke-width="0.5" />
    </pattern>
    <linearGradient id="topGrad" x1="0" y1="0" x2="0" y2="1">
      <stop offset="0%" stop-color="#0284C7" stop-opacity="0.15" />
      <stop offset="100%" stop-color="#0284C7" stop-opacity="0" />
    </linearGradient>
  </defs>
  <rect width="800" height="600" fill="url(#grid)" opacity="0.5" />
  <rect width="800" height="200" fill="url(#topGrad)" />
  <defs>
    <marker id="arrowhead" markerWidth="10" markerHeight="7" refX="10" refY="3.5" orient="auto">
      <polygon points="0 0, 10 3.5, 0 7" fill="#38BDF8" />
    </marker>
  </defs>
  <rect x="0" y="10" width="800" height="55" fill="#0369A1" opacity="0.9" />
  <rect x="0" y="65" width="800" height="3" fill="#38BDF8" />
  <text x="400" y="45" text-anchor="middle" font-family="Arial, sans-serif" font-size="22" font-weight="bold" fill="#F8FAFC">Датчики для роботов</text>
  <text x="400" y="82" text-anchor="middle" font-family="Arial, sans-serif" font-size="12" fill="#94A3B8">Урок 5 — Сенсорные системы робототехники</text>
  <rect x="20" y="90" width="245" height="185" rx="8" ry="8" fill="#1E293B" stroke="#334155" stroke-width="1" />
  <rect x="20" y="90" width="245" height="28" rx="8" ry="8" fill="#0369A1" />
  <rect x="20" y="110" width="245" height="8" fill="#0369A1" />
  <text x="142" y="109" text-anchor="middle" font-family="Arial, sans-serif" font-size="11" font-weight="bold" fill="#F8FAFC">Ультразвуковой</text>
  <rect x="25" y="120" width="30" height="20" rx="4" fill="#38BDF8" opacity="0.3" />
  <text x="40" y="135" text-anchor="middle" font-size="14">📡</text>
  <text x="60" y="134" font-family="Arial, sans-serif" font-size="9" fill="#CBD5E1">Измеряет расстояние</text>
  <text x="60" y="146" font-family="Arial, sans-serif" font-size="9" fill="#CBD5E1">с помощью звука</text>
  <text x="30" y="168" font-family="Arial, sans-serif" font-size="8" fill="#94A3B8">Диапазон: 2 см — 400 см</text>
  <text x="30" y="182" font-family="Consolas, monospace" font-size="8" fill="#38BDF8">Пин: Trig / Echo</text>
  <rect x="25" y="190" width="235" height="75" rx="4" ry="4" fill="#0D1117" stroke="#334155" stroke-width="1" />
  <rect x="25" y="190" width="235" height="20" rx="4" ry="4" fill="#161B22" />
  <rect x="25" y="206" width="235" height="4" fill="#161B22" />
  <circle cx="39" cy="200" r="4" fill="#EF4444" />
  <circle cx="55" cy="200" r="4" fill="#F59E0B" />
  <circle cx="71" cy="200" r="4" fill="#22C55E" />
  <text x="37" y="224" font-family="Consolas, monospace" font-size="10" fill="#06B6D4">duration = pulseIn(echo, HIGH);</text>
  <text x="37" y="239" font-family="Consolas, monospace" font-size="10" fill="#06B6D4">distance = duration * 0.034/2;</text>
  <rect x="280" y="90" width="245" height="185" rx="8" ry="8" fill="#1E293B" stroke="#334155" stroke-width="1" />
  <rect x="280" y="90" width="245" height="28" rx="8" ry="8" fill="#0369A1" />
  <rect x="280" y="110" width="245" height="8" fill="#0369A1" />
  <text x="402" y="109" text-anchor="middle" font-family="Arial, sans-serif" font-size="11" font-weight="bold" fill="#F8FAFC">Инфракрасный</text>
  <rect x="285" y="120" width="30" height="20" rx="4" fill="#EF4444" opacity="0.3" />
  <text x="300" y="135" text-anchor="middle" font-size="14">🔴</text>
  <text x="320" y="134" font-family="Arial, sans-serif" font-size="9" fill="#CBD5E1">Детектирует препятствия</text>
  <text x="320" y="146" font-family="Arial, sans-serif" font-size="9" fill="#CBD5E1">по отражению ИК-луча</text>
  <text x="290" y="168" font-family="Arial, sans-serif" font-size="8" fill="#94A3B8">Диапазон: 0 — 30 см</text>
  <text x="290" y="182" font-family="Consolas, monospace" font-size="8" fill="#EF4444">Пин: OUT (цифровой)</text>
  <rect x="285" y="190" width="235" height="75" rx="4" ry="4" fill="#0D1117" stroke="#334155" stroke-width="1" />
  <rect x="285" y="190" width="235" height="20" rx="4" ry="4" fill="#161B22" />
  <rect x="285" y="206" width="235" height="4" fill="#161B22" />
  <circle cx="299" cy="200" r="4" fill="#EF4444" />
  <circle cx="315" cy="200" r="4" fill="#F59E0B" />
  <circle cx="331" cy="200" r="4" fill="#22C55E" />
  <text x="297" y="224" font-family="Consolas, monospace" font-size="10" fill="#06B6D4">int obstacle = digitalRead(irPin);</text>
  <text x="297" y="239" font-family="Consolas, monospace" font-size="10" fill="#06B6D4">// 0 = препятствие</text>
  <rect x="540" y="90" width="245" height="185" rx="8" ry="8" fill="#1E293B" stroke="#334155" stroke-width="1" />
  <rect x="540" y="90" width="245" height="28" rx="8" ry="8" fill="#0369A1" />
  <rect x="540" y="110" width="245" height="8" fill="#0369A1" />
  <text x="662" y="109" text-anchor="middle" font-family="Arial, sans-serif" font-size="11" font-weight="bold" fill="#F8FAFC">Световой</text>
  <rect x="545" y="120" width="30" height="20" rx="4" fill="#F59E0B" opacity="0.3" />
  <text x="560" y="135" text-anchor="middle" font-size="14">☀</text>
  <text x="580" y="134" font-family="Arial, sans-serif" font-size="9" fill="#CBD5E1">Измеряет освещённость</text>
  <text x="580" y="146" font-family="Arial, sans-serif" font-size="9" fill="#CBD5E1">(фоторезистор)</text>
  <text x="550" y="168" font-family="Arial, sans-serif" font-size="8" fill="#94A3B8">Диапазон: 0 — 1023 (АЦП)</text>
  <text x="550" y="182" font-family="Consolas, monospace" font-size="8" fill="#F59E0B">Пин: A0 (аналоговый)</text>
  <rect x="545" y="190" width="235" height="75" rx="4" ry="4" fill="#0D1117" stroke="#334155" stroke-width="1" />
  <rect x="545" y="190" width="235" height="20" rx="4" ry="4" fill="#161B22" />
  <rect x="545" y="206" width="235" height="4" fill="#161B22" />
  <circle cx="559" cy="200" r="4" fill="#EF4444" />
  <circle cx="575" cy="200" r="4" fill="#F59E0B" />
  <circle cx="591" cy="200" r="4" fill="#22C55E" />
  <text x="557" y="224" font-family="Consolas, monospace" font-size="10" fill="#06B6D4">int light = analogRead(A0);</text>
  <text x="557" y="239" font-family="Consolas, monospace" font-size="10" fill="#06B6D4">if (light &amp;lt; 300) {</text>
  <rect x="20" y="290" width="370" height="160" rx="8" ry="8" fill="#1E293B" stroke="#334155" stroke-width="1" />
  <rect x="20" y="290" width="370" height="28" rx="8" ry="8" fill="#0369A1" />
  <rect x="20" y="310" width="370" height="8" fill="#0369A1" />
  <text x="205" y="309" text-anchor="middle" font-family="Arial, sans-serif" font-size="11" font-weight="bold" fill="#F8FAFC">Температурный</text>
  <rect x="25" y="320" width="30" height="20" rx="4" fill="#14B8A6" opacity="0.3" />
  <text x="40" y="335" text-anchor="middle" font-size="14">🌡</text>
  <text x="60" y="334" font-family="Arial, sans-serif" font-size="9" fill="#CBD5E1">Измеряет температуру</text>
  <text x="60" y="346" font-family="Arial, sans-serif" font-size="9" fill="#CBD5E1">(DHT11 / DHT22)</text>
  <text x="30" y="368" font-family="Arial, sans-serif" font-size="8" fill="#94A3B8">Диапазон: -40°C — +80°C</text>
  <text x="30" y="382" font-family="Consolas, monospace" font-size="8" fill="#14B8A6">Пин: Data (цифровой)</text>
  <rect x="25" y="390" width="360" height="50" rx="4" ry="4" fill="#0D1117" stroke="#334155" stroke-width="1" />
  <rect x="25" y="390" width="360" height="20" rx="4" ry="4" fill="#161B22" />
  <rect x="25" y="406" width="360" height="4" fill="#161B22" />
  <circle cx="39" cy="400" r="4" fill="#EF4444" />
  <circle cx="55" cy="400" r="4" fill="#F59E0B" />
  <circle cx="71" cy="400" r="4" fill="#22C55E" />
  <text x="37" y="424" font-family="Consolas, monospace" font-size="10" fill="#06B6D4">float t = dht.readTemperature();</text>
  <text x="37" y="439" font-family="Consolas, monospace" font-size="10" fill="#06B6D4">float h = dht.readHumidity();</text>
  <rect x="400" y="290" width="370" height="160" rx="8" ry="8" fill="#1E293B" stroke="#334155" stroke-width="1" />
  <rect x="400" y="290" width="370" height="28" rx="8" ry="8" fill="#0369A1" />
  <rect x="400" y="310" width="370" height="8" fill="#0369A1" />
  <text x="585" y="309" text-anchor="middle" font-family="Arial, sans-serif" font-size="11" font-weight="bold" fill="#F8FAFC">Гироскоп</text>
  <rect x="405" y="320" width="30" height="20" rx="4" fill="#A78BFA" opacity="0.3" />
  <text x="420" y="335" text-anchor="middle" font-size="14">🔄</text>
  <text x="440" y="334" font-family="Arial, sans-serif" font-size="9" fill="#CBD5E1">Измеряет угловую скорость</text>
  <text x="440" y="346" font-family="Arial, sans-serif" font-size="9" fill="#CBD5E1">и ориентацию (MPU6050)</text>
  <text x="410" y="368" font-family="Arial, sans-serif" font-size="8" fill="#94A3B8">Диапазон: ±250°/сек</text>
  <text x="410" y="382" font-family="Consolas, monospace" font-size="8" fill="#A78BFA">Пин: SDA / SCL (I2C)</text>
  <rect x="405" y="390" width="360" height="50" rx="4" ry="4" fill="#0D1117" stroke="#334155" stroke-width="1" />
  <rect x="405" y="390" width="360" height="20" rx="4" ry="4" fill="#161B22" />
  <rect x="405" y="406" width="360" height="4" fill="#161B22" />
  <circle cx="419" cy="400" r="4" fill="#EF4444" />
  <circle cx="435" cy="400" r="4" fill="#F59E0B" />
  <circle cx="451" cy="400" r="4" fill="#22C55E" />
  <text x="417" y="424" font-family="Consolas, monospace" font-size="10" fill="#06B6D4">Wire.beginTransmission(0x68);</text>
  <text x="417" y="439" font-family="Consolas, monospace" font-size="10" fill="#06B6D4">Wire.write(0x3B);</text>
  <rect x="400" y="290" width="380" height="160" rx="8" ry="8" fill="#1E293B" stroke="#334155" stroke-width="1" />
  <rect x="400" y="290" width="380" height="28" rx="8" ry="8" fill="#0369A1" />
  <rect x="400" y="310" width="380" height="8" fill="#0369A1" />
  <text x="590" y="309" text-anchor="middle" font-family="Arial, sans-serif" font-size="11" font-weight="bold" fill="#F8FAFC">Как выбрать датчик?</text>
  <rect x="410" y="330" width="360" height="24" rx="4" fill="#0D1117" />
  <rect x="410" y="330" width="3" height="24" fill="#38BDF8" />
  <text x="420" y="346" font-family="Arial, sans-serif" font-size="9" font-weight="bold" fill="#38BDF8">1. Определите задачу</text>
  <text x="600" y="346" font-family="Arial, sans-serif" font-size="8" fill="#94A3B8">Что нужно измерить?</text>
  <rect x="410" y="358" width="360" height="24" rx="4" fill="#0D1117" />
  <rect x="410" y="358" width="3" height="24" fill="#06B6D4" />
  <text x="420" y="374" font-family="Arial, sans-serif" font-size="9" font-weight="bold" fill="#06B6D4">2. Выберите тип датчика</text>
  <text x="600" y="374" font-family="Arial, sans-serif" font-size="8" fill="#94A3B8">Ультразвук, ИК, свет...</text>
  <rect x="410" y="386" width="360" height="24" rx="4" fill="#0D1117" />
  <rect x="410" y="386" width="3" height="24" fill="#F59E0B" />
  <text x="420" y="402" font-family="Arial, sans-serif" font-size="9" font-weight="bold" fill="#F59E0B">3. Проверьте совместимость</text>
  <text x="600" y="402" font-family="Arial, sans-serif" font-size="8" fill="#94A3B8">Напряжение, интерфейс</text>
  <rect x="410" y="414" width="360" height="24" rx="4" fill="#0D1117" />
  <rect x="410" y="414" width="3" height="24" fill="#22C55E" />
  <text x="420" y="430" font-family="Arial, sans-serif" font-size="9" font-weight="bold" fill="#22C55E">4. Подключите и протестируйте</text>
  <text x="600" y="430" font-family="Arial, sans-serif" font-size="8" fill="#94A3B8">Пины, библиотеки, код</text>
</svg>
