<svg xmlns="http://www.w3.org/2000/svg" viewBox="0 0 500 350">
<defs><linearGradient id="bg" x1="0" y1="0" x2="1" y2="1"><stop offset="0%" stop-color="#E8F5E9"/><stop offset="100%" stop-color="#C8E6C9"/></linearGradient></defs>
<rect width="500" height="350" fill="url(#bg)" rx="10"/>
<rect x="3" y="3" width="494" height="344" rx="8" fill="none" stroke="#2E7D32" stroke-width="2.5"/>
<text x="250" y="30" font-family="Arial,sans-serif" font-size="14" font-weight="bold" fill="#2E7D32" text-anchor="middle">Общая характеристика животного мира</text>
<text x="250" y="46" font-family="Arial,sans-serif" font-size="10" fill="#888" text-anchor="middle">Биология 7 класс — Урок 1</text>
<line x1="30" y1="52" x2="470" y2="52" stroke="#2E7D32" stroke-width="1.5" opacity="0.25"/>

<circle cx="250" cy="170" r="45" fill="#4CAF50" opacity="0.15" stroke="#2E7D32" stroke-width="2"/>
<text x="250" y="165" font-family="Arial,sans-serif" font-size="10" fill="#2E7D32" text-anchor="middle" font-weight="bold">Царство</text>
<text x="250" y="178" font-family="Arial,sans-serif" font-size="10" fill="#2E7D32" text-anchor="middle" font-weight="bold">Животные</text>
<g transform="translate(90,90)"><ellipse rx="38" ry="18" fill="#FF9800" opacity="0.2" stroke="#E65100" stroke-width="1.5"/><text x="0" y="4" font-family="Arial,sans-serif" font-size="7" fill="#E65100" text-anchor="middle" font-weight="bold">Простейшие</text></g>
<g transform="translate(410,90)"><ellipse rx="38" ry="18" fill="#9C27B0" opacity="0.2" stroke="#7B1FA2" stroke-width="1.5"/><text x="0" y="4" font-family="Arial,sans-serif" font-size="7" fill="#7B1FA2" text-anchor="middle" font-weight="bold">Черви</text></g>
<g transform="translate(90,250)"><ellipse rx="38" ry="18" fill="#00BCD4" opacity="0.2" stroke="#00838F" stroke-width="1.5"/><text x="0" y="4" font-family="Arial,sans-serif" font-size="7" fill="#00838F" text-anchor="middle" font-weight="bold">Моллюски</text></g>
<g transform="translate(410,250)"><ellipse rx="38" ry="18" fill="#F44336" opacity="0.2" stroke="#C62828" stroke-width="1.5"/><text x="0" y="4" font-family="Arial,sans-serif" font-size="7" fill="#C62828" text-anchor="middle" font-weight="bold">Членистоногие</text></g>
<g transform="translate(250,85)"><ellipse rx="45" ry="18" fill="#2196F3" opacity="0.2" stroke="#1565C0" stroke-width="1.5"/><text x="0" y="4" font-family="Arial,sans-serif" font-size="7" fill="#1565C0" text-anchor="middle" font-weight="bold">Кишечнополостные</text></g>
<g transform="translate(250,265)"><ellipse rx="35" ry="18" fill="#795548" opacity="0.2" stroke="#4E342E" stroke-width="1.5"/><text x="0" y="4" font-family="Arial,sans-serif" font-size="7" fill="#4E342E" text-anchor="middle" font-weight="bold">Хордовые</text></g>
<line x1="125" y1="100" x2="210" y2="150" stroke="#999" stroke-width="0.8" stroke-dasharray="3,2"/>
<line x1="375" y1="100" x2="290" y2="150" stroke="#999" stroke-width="0.8" stroke-dasharray="3,2"/>
<line x1="125" y1="245" x2="210" y2="195" stroke="#999" stroke-width="0.8" stroke-dasharray="3,2"/>
<line x1="375" y1="245" x2="290" y2="195" stroke="#999" stroke-width="0.8" stroke-dasharray="3,2"/>
<rect x="50" y="290" width="400" height="28" rx="5" fill="white" stroke="#2E7D32" stroke-width="1" opacity="0.9"/>
<text x="250" y="304" font-family="Arial,sans-serif" font-size="7" fill="#555" text-anchor="middle">Гетеротрофы | Нет клеточной стенки | Ограниченный рост | Активное движение | Более 2 млн видов</text>

<rect x="10" y="325" width="480" height="20" rx="4" fill="#2E7D32" opacity="0.85"/>
<text x="250" y="339" font-family="Arial,sans-serif" font-size="11" text-anchor="middle" fill="white" font-weight="bold">Биология 7 класс</text>
</svg>