<svg xmlns="http://www.w3.org/2000/svg" viewBox="0 0 500 350">
  <defs><linearGradient id="bg" x1="0%" y1="0%" x2="100%" y2="100%">
    <stop offset="0%" style="stop-color:#E8F5E9;stop-opacity:0.6"/><stop offset="100%" style="stop-color:#C8E6C9;stop-opacity:0.3"/>
  </linearGradient></defs>
  <rect width="500" height="350" fill="url(#bg)" rx="14"/>
  <rect x="4" y="4" width="492" height="342" rx="12" fill="none" stroke="#33691E" stroke-width="2.5" opacity="0.35"/>
  <text x="250" y="48" font-family="Arial,sans-serif" font-size="24" font-weight="bold" fill="#33691E" text-anchor="middle">Паразиты и лишайники</text>
  <line x1="40" y1="62" x2="460" y2="62" stroke="#33691E" stroke-width="2" opacity="0.3"/>
  <rect x="40" y="74" width="100" height="5" rx="2.5" fill="#33691E" opacity="0.2"/>
  
    <ellipse cx="420" cy="55" rx="25" ry="15" fill="#33691E" opacity="0.15"/>
    <rect x="416" y="60" width="8" height="25" rx="3" fill="#33691E" opacity="0.12"/>
  
    <rect x="30" y="100" width="210" height="90" rx="12" fill="white" stroke="#33691E" stroke-width="2.5" opacity="0.95"/>
    <text x="135" y="142" font-family="Arial,sans-serif" font-size="26" text-anchor="middle" fill="#33691E" font-weight="bold">🌾</text>
    <text x="135" y="172" font-family="Arial,sans-serif" font-size="17" text-anchor="middle" fill="#333" font-weight="bold">Головня</text>
    <text x="135" y="186" font-family="Arial,sans-serif" font-size="12" text-anchor="middle" fill="#666">злаки</text>
    <rect x="260" y="100" width="210" height="90" rx="12" fill="white" stroke="#33691E" stroke-width="2.5" opacity="0.95"/>
    <text x="365" y="142" font-family="Arial,sans-serif" font-size="26" text-anchor="middle" fill="#33691E" font-weight="bold">🌳</text>
    <text x="365" y="172" font-family="Arial,sans-serif" font-size="17" text-anchor="middle" fill="#333" font-weight="bold">Трутовик</text>
    <text x="365" y="186" font-family="Arial,sans-serif" font-size="12" text-anchor="middle" fill="#666">деревья</text>
    <rect x="30" y="210" width="210" height="90" rx="12" fill="white" stroke="#33691E" stroke-width="2.5" opacity="0.95"/>
    <text x="135" y="252" font-family="Arial,sans-serif" font-size="26" text-anchor="middle" fill="#33691E" font-weight="bold">🪨</text>
    <text x="135" y="282" font-family="Arial,sans-serif" font-size="17" text-anchor="middle" fill="#333" font-weight="bold">Лишайник</text>
    <text x="135" y="296" font-family="Arial,sans-serif" font-size="12" text-anchor="middle" fill="#666">симбиоз</text>
    <rect x="260" y="210" width="210" height="90" rx="12" fill="white" stroke="#33691E" stroke-width="2.5" opacity="0.95"/>
    <text x="365" y="252" font-family="Arial,sans-serif" font-size="26" text-anchor="middle" fill="#33691E" font-weight="bold">🦌</text>
    <text x="365" y="282" font-family="Arial,sans-serif" font-size="17" text-anchor="middle" fill="#333" font-weight="bold">Ягель</text>
    <text x="365" y="296" font-family="Arial,sans-serif" font-size="12" text-anchor="middle" fill="#666">корм оленей</text>
  <rect x="30" y="315" width="440" height="26" rx="8" fill="#33691E" opacity="0.08"/>
  <text x="250" y="333" font-family="Arial,sans-serif" font-size="15" fill="#33691E" text-anchor="middle" font-weight="bold">Лишайники — индикаторы чистого воздуха</text>
</svg>