<?xml version="1.0" encoding="UTF-8"?>
<svg xmlns="http://www.w3.org/2000/svg" viewBox="0 0 500 350" width="500" height="350">
  <defs>
    <filter id="shadow" x="-2%" y="-2%" width="104%" height="104%">
      <feDropShadow dx="0" dy="1" stdDeviation="2" flood-color="#3E2723" flood-opacity="0.1"/>
    </filter>
  </defs>
  
  <!-- Background -->
  <rect x="0" y="0" width="500" height="350" rx="12" fill="#EFEBE9"/>
  
  <!-- Border -->
  <rect x="5" y="5" width="490" height="340" rx="10" fill="none" stroke="#5D4037" stroke-width="2.5" opacity="0.7"/>
  
  <!-- Inner border accent -->
  <rect x="8" y="8" width="484" height="334" rx="9" fill="none" stroke="#A1887F" stroke-width="0.5" opacity="0.3"/>
  
  
    <!-- Header background -->
    <rect x="10" y="10" width="480" height="52" rx="8" fill="#5D4037" opacity="0.95"/>
    
    <!-- Lesson number badge -->
    <rect x="18" y="16" width="40" height="40" rx="8" fill="#FFFFFF" opacity="0.2"/>
    <text x="38" y="43" text-anchor="middle" font-family="Arial, sans-serif" font-size="18" font-weight="bold" fill="#FFFFFF">9</text>
    
    <!-- Title -->
    <text x="68" y="33" font-family="Arial, sans-serif" font-size="14" font-weight="bold" fill="#FFFFFF">Международные отношения</text>
    <text x="68" y="50" font-family="Arial, sans-serif" font-size="10" fill="#FFFFFF" opacity="0.85">История — Урок 9</text>
    
  
  
    <!-- Key Figures Section -->
    <rect x="15" y="70" width="228" height="90" rx="6" fill="#FFFFFF" stroke="#A1887F" stroke-width="1"/>
    <rect x="15" y="70" width="228" height="20" rx="6" fill="#8D6E63" opacity="0.3"/>
    <rect x="15" y="84" width="228" height="6" fill="#FFFFFF"/>
    <text x="22" y="85" font-family="Arial, sans-serif" font-size="10" font-weight="bold" fill="#5D4037">Ключевые фигуры</text>
    
        <circle cx="26" cy="100" r="3" fill="#8D6E63"/>
        <text x="34" y="103" font-family="Arial, sans-serif" font-size="9.5" fill="#3E2723">С.В. Лавров</text>
        
        <circle cx="26" cy="116" r="3" fill="#8D6E63"/>
        <text x="34" y="119" font-family="Arial, sans-serif" font-size="9.5" fill="#3E2723">К. Анфантино</text>
        
        <circle cx="26" cy="132" r="3" fill="#8D6E63"/>
        <text x="34" y="135" font-family="Arial, sans-serif" font-size="9.5" fill="#3E2723">А. Меркель</text>
        
        <circle cx="26" cy="148" r="3" fill="#8D6E63"/>
        <text x="34" y="151" font-family="Arial, sans-serif" font-size="9.5" fill="#3E2723">Б. Обама</text>
        
  
  
    <!-- Events Timeline Section -->
    <rect x="257" y="70" width="228" height="90" rx="6" fill="#FFFFFF" stroke="#A1887F" stroke-width="1"/>
    <rect x="257" y="70" width="228" height="20" rx="6" fill="#8D6E63" opacity="0.3"/>
    <rect x="257" y="84" width="228" height="6" fill="#FFFFFF"/>
    <text x="264" y="85" font-family="Arial, sans-serif" font-size="10" font-weight="bold" fill="#5D4037">Хронология событий</text>
    
        <rect x="264" y="95" width="50" height="12" rx="3" fill="#D7CCC8" opacity="0.6"/>
        <text x="270" y="103" font-family="Arial, sans-serif" font-size="8" font-weight="bold" fill="#5D4037">1991</text>
        <text x="320" y="103" font-family="Arial, sans-serif" font-size="8.5" fill="#3E2723">Конец биполярного мира</text>
        
        <rect x="264" y="107" width="50" height="12" rx="3" fill="#D7CCC8" opacity="0.6"/>
        <text x="270" y="115" font-family="Arial, sans-serif" font-size="8" font-weight="bold" fill="#5D4037">1999</text>
        <text x="320" y="115" font-family="Arial, sans-serif" font-size="8.5" fill="#3E2723">Расширение НАТО</text>
        
        <rect x="264" y="119" width="50" height="12" rx="3" fill="#D7CCC8" opacity="0.6"/>
        <text x="270" y="127" font-family="Arial, sans-serif" font-size="8" font-weight="bold" fill="#5D4037">2014</text>
        <text x="320" y="127" font-family="Arial, sans-serif" font-size="8.5" fill="#3E2723">Крымский кризис</text>
        
        <rect x="264" y="131" width="50" height="12" rx="3" fill="#D7CCC8" opacity="0.6"/>
        <text x="270" y="139" font-family="Arial, sans-serif" font-size="8" font-weight="bold" fill="#5D4037">2015</text>
        <text x="320" y="139" font-family="Arial, sans-serif" font-size="8.5" fill="#3E2723">Сирийский конфликт</text>
        
        <rect x="264" y="143" width="50" height="12" rx="3" fill="#D7CCC8" opacity="0.6"/>
        <text x="270" y="151" font-family="Arial, sans-serif" font-size="8" font-weight="bold" fill="#5D4037">2022</text>
        <text x="320" y="151" font-family="Arial, sans-serif" font-size="8.5" fill="#3E2723">Спецоперация на Украине</text>
        
  
  
    <!-- Concepts Section -->
    <rect x="15" y="168" width="228" height="82" rx="6" fill="#FFFFFF" stroke="#A1887F" stroke-width="1"/>
    <rect x="15" y="168" width="228" height="20" rx="6" fill="#8D6E63" opacity="0.3"/>
    <rect x="15" y="182" width="228" height="6" fill="#FFFFFF"/>
    <text x="22" y="183" font-family="Arial, sans-serif" font-size="10" font-weight="bold" fill="#5D4037">Ключевые понятия</text>
    
        <rect x="22" y="191" width="31.5" height="16" rx="4" fill="#D7CCC8" stroke="#8D6E63" stroke-width="0.5"/>
        <text x="28" y="202" font-family="Arial, sans-serif" font-size="8" fill="#5D4037">ООН</text>
        
        <rect x="57.5" y="191" width="38.0" height="16" rx="4" fill="#D7CCC8" stroke="#8D6E63" stroke-width="0.5"/>
        <text x="63.5" y="202" font-family="Arial, sans-serif" font-size="8" fill="#5D4037">НАТО</text>
        
        <rect x="99.5" y="191" width="44.5" height="16" rx="4" fill="#D7CCC8" stroke="#8D6E63" stroke-width="0.5"/>
        <text x="105.5" y="202" font-family="Arial, sans-serif" font-size="8" fill="#5D4037">БРИКС</text>
        
        <rect x="148.0" y="191" width="31.5" height="16" rx="4" fill="#D7CCC8" stroke="#8D6E63" stroke-width="0.5"/>
        <text x="154.0" y="202" font-family="Arial, sans-serif" font-size="8" fill="#5D4037">ШОС</text>
        
        <rect x="22" y="211" width="122.5" height="16" rx="4" fill="#D7CCC8" stroke="#8D6E63" stroke-width="0.5"/>
        <text x="28" y="222" font-family="Arial, sans-serif" font-size="8" fill="#5D4037">Многополярный мир</text>
        
  
  
    <!-- Diagram Section -->
    <rect x="257" y="168" width="228" height="82" rx="6" fill="#FFFFFF" stroke="#A1887F" stroke-width="1"/>
    <rect x="257" y="168" width="228" height="20" rx="6" fill="#8D6E63" opacity="0.3"/>
    <rect x="257" y="182" width="228" height="6" fill="#FFFFFF"/>
    <text x="264" y="183" font-family="Arial, sans-serif" font-size="10" font-weight="bold" fill="#5D4037">Модели мироустройства</text>
    
        <rect x="264" y="193" width="214" height="14" rx="3" fill="#D7CCC8" opacity="0.5"/>
        <polygon points="264,200 269,197 269,203" fill="#5D4037"/>
        <text x="275" y="202" font-family="Arial, sans-serif" font-size="9" fill="#3E2723">Однополярный мир</text>
        
        <rect x="264" y="211" width="214" height="14" rx="3" fill="#D7CCC8" opacity="0.5"/>
        <polygon points="264,218 269,215 269,221" fill="#5D4037"/>
        <text x="275" y="220" font-family="Arial, sans-serif" font-size="9" fill="#3E2723">Биполярный мир</text>
        
        <rect x="264" y="229" width="214" height="14" rx="3" fill="#D7CCC8" opacity="0.5"/>
        <polygon points="264,236 269,233 269,239" fill="#5D4037"/>
        <text x="275" y="238" font-family="Arial, sans-serif" font-size="9" fill="#3E2723">Многополярный мир</text>
        
  
  
    <!-- Summary bar -->
    <rect x="15" y="258" width="470" height="24" rx="5" fill="#5D4037" opacity="0.08"/>
    <rect x="15" y="258" width="4" height="24" rx="2" fill="#5D4037"/>
    <text x="28" y="274" font-family="Arial, sans-serif" font-size="9" fill="#5D4037" font-style="italic">💡 Изучение истории помогает понять настоящее и предвидеть будущее</text>
    
  
  <!-- Decorative timeline line -->
  <line x1="30" y1="295" x2="470" y2="295" stroke="#A1887F" stroke-width="1" stroke-dasharray="4,3" opacity="0.4"/>
  
  <!-- Decorative corner elements -->
  <circle cx="15" cy="310" r="2" fill="#8D6E63" opacity="0.3"/>
  <circle cx="485" cy="310" r="2" fill="#8D6E63" opacity="0.3"/>
  <circle cx="250" cy="295" r="2" fill="#5D4037" opacity="0.3"/>
  
  <!-- Lesson-specific icon area -->
  <rect x="200" y="290" width="100" height="30" rx="5" fill="#FFFFFF" stroke="#A1887F" stroke-width="0.8" filter="url(#shadow)"/>
  <text x="250" y="309" text-anchor="middle" font-family="Arial, sans-serif" font-size="8" fill="#5D4037" font-weight="bold">УРОК 9 из 12</text>
  
  
    <!-- Footer -->
    <rect x="10" y="326" width="480" height="16" rx="4" fill="#D7CCC8" opacity="0.7"/>
    <text x="250" y="338" text-anchor="middle" font-family="Arial, sans-serif" font-size="9" fill="#8D6E63">История · 11 класс</text>
    
</svg>