<svg xmlns="http://www.w3.org/2000/svg" viewBox="0 0 500 350">
  <defs>
    <linearGradient id="bg" x1="0" y1="0" x2="0" y2="1">
      <stop offset="0%" stop-color="#FBE9E7"/>
      <stop offset="100%" stop-color="#FFFFFF"/>
    </linearGradient>
    <linearGradient id="hdr" x1="0" y1="0" x2="1" y2="0">
      <stop offset="0%" stop-color="#FF7043"/>
      <stop offset="100%" stop-color="#BF360C"/>
    </linearGradient>
  </defs>
  <rect width="500" height="350" fill="url(#bg)" rx="10"/>
  <rect x="3" y="3" width="494" height="344" rx="8" fill="none" stroke="#FF7043" stroke-width="3"/>
  <rect x="8" y="8" width="484" height="334" rx="6" fill="none" stroke="#FF7043" stroke-width="1" opacity="0.3"/>
  <polygon points="10,10 30,10 10,30" fill="#FF7043" opacity="0.12"/>
  <polygon points="490,10 470,10 490,30" fill="#BF360C" opacity="0.12"/>
  <polygon points="10,340 30,340 10,320" fill="#FF7043" opacity="0.12"/>
  <polygon points="490,340 470,340 490,320" fill="#BF360C" opacity="0.12"/>
  <text x="250" y="42" font-family="Arial,sans-serif" font-size="18" font-weight="bold" fill="#FF7043" text-anchor="middle">Победа и итоги войны</text>
  <text x="250" y="58" font-family="Arial,sans-serif" font-size="11" fill="#888" text-anchor="middle">История — Урок 12</text>
  <line x1="30" y1="66" x2="470" y2="66" stroke="#FF7043" stroke-width="2" opacity="0.25"/>
  <rect x="20" y="72" width="460" height="25" rx="4" fill="#FF7043" opacity="0.07"/>
  <text x="250" y="89" font-family="Arial,sans-serif" font-size="12" fill="#BF360C" text-anchor="middle" font-weight="bold">1944-1945</text>
  <rect x="20" y="102" width="225" height="170" rx="4" fill="#FF7043" opacity="0.05"/>
  <text x="28" y="118" font-family="Arial,sans-serif" font-size="10" fill="#333" text-anchor="start">Курская дуга — лето 1943</text>
  <text x="28" y="140" font-family="Arial,sans-serif" font-size="10" fill="#333" text-anchor="start">Освобождение территории СССР 1944</text>
  <text x="28" y="162" font-family="Arial,sans-serif" font-size="10" fill="#333" text-anchor="start">Ялтинская конференция (февраль 1945)</text>
  <rect x="255" y="102" width="225" height="170" rx="4" fill="#FF7043" opacity="0.05"/>
  <text x="263" y="118" font-family="Arial,sans-serif" font-size="10" fill="#333" text-anchor="start">Взятие Берлина: апрель-май 1945</text>
  <text x="263" y="140" font-family="Arial,sans-serif" font-size="10" fill="#333" text-anchor="start">9 мая — День Победы</text>
  <text x="263" y="162" font-family="Arial,sans-serif" font-size="10" fill="#333" text-anchor="start">Потсдамская конференция (июль 1945)</text>
  <rect x="20" y="278" width="225" height="22" rx="4" fill="#FF7043" opacity="0.06"/>
  <text x="132" y="293" font-family="Arial,sans-serif" font-size="10" fill="#BF360C" text-anchor="middle" font-weight="bold">27 млн погибших</text>
  <rect x="255" y="278" width="225" height="22" rx="4" fill="#FF7043" opacity="0.06"/>
  <text x="367" y="293" font-family="Arial,sans-serif" font-size="10" fill="#BF360C" text-anchor="middle" font-weight="bold">СССР — победитель, супердержава</text>
  <rect x="12" y="305" width="476" height="32" rx="5" fill="url(#hdr)"/>
  <text x="250" y="326" font-family="Arial,sans-serif" font-size="13" text-anchor="middle" fill="white" font-weight="bold">История · Победа и итоги войны</text>
</svg>