<svg xmlns="http://www.w3.org/2000/svg" viewBox="0 0 400 400" width="400" height="400">
  <style>
    @keyframes sway {
      0%, 100% { transform: rotate(-2deg); }
      50% { transform: rotate(2deg); }
    }
    @keyframes bounce {
      0%, 100% { transform: translateY(0); }
      50% { transform: translateY(-5px); }
    }
    @keyframes blink {
      0%, 90%, 100% { transform: scaleY(1); }
      95% { transform: scaleY(0.1); }
    }
    .house { animation: sway 4s ease-in-out infinite; transform-origin: bottom center; }
    .animal { animation: bounce 2s ease-in-out infinite; }
    .eye { animation: blink 3s ease-in-out infinite; transform-origin: center; }
  </style>
  <!-- Background -->
  <rect width="400" height="400" fill="#f0fdf4" rx="20"/>
  <!-- Sun -->
  <circle cx="350" cy="50" r="30" fill="#fbbf24"/>
  <g stroke="#fbbf24" stroke-width="3">
    <line x1="350" y1="10" x2="350" y2="0"/>
    <line x1="380" y1="20" x2="390" y2="10"/>
    <line x1="390" y1="50" x2="400" y2="50"/>
    <line x1="380" y1="80" x2="390" y2="90"/>
    <line x1="320" y1="20" x2="310" y2="10"/>
    <line x1="310" y1="50" x2="300" y2="50"/>
    <line x1="320" y1="80" x2="310" y2="90"/>
  </g>
  <!-- Ground -->
  <ellipse cx="200" cy="380" rx="180" ry="20" fill="#86efac"/>
  <!-- Teremok (house) -->
  <g class="house" transform="translate(120, 150)">
    <!-- House body -->
    <rect x="0" y="80" width="160" height="120" fill="#fef3c7" stroke="#b45309" stroke-width="3"/>
    <!-- Roof -->
    <polygon points="0,80 80,20 160,80" fill="#dc2626" stroke="#991b1b" stroke-width="2"/>
    <!-- Window -->
    <rect x="50" y="110" width="60" height="50" fill="#bfdbfe" stroke="#1e40af" stroke-width="2"/>
    <line x1="80" y1="110" x2="80" y2="160" stroke="#1e40af" stroke-width="2"/>
    <line x1="50" y1="135" x2="110" y2="135" stroke="#1e40af" stroke-width="2"/>
    <!-- Door -->
    <rect x="60" y="165" width="40" height="35" fill="#78350f" stroke="#451a03" stroke-width="2"/>
    <circle cx="90" cy="185" r="4" fill="#fbbf24"/>
  </g>
  <!-- Animals queue -->
  <!-- Mouse -->
  <g class="animal" transform="translate(30, 290)">
    <ellipse cx="20" cy="25" rx="15" ry="12" fill="#a8a29e"/>
    <circle cx="25" cy="15" r="10" fill="#a8a29e"/>
    <circle cx="30" cy="8" r="8" fill="#a8a29e"/>
    <ellipse cx="20" cy="18" rx="2" ry="6" fill="#fecaca"/>
    <circle class="eye" cx="28" cy="12" r="2" fill="#1e293b"/>
    <ellipse cx="42" cy="30" rx="8" ry="4" fill="#fecaca"/>
    <text x="20" y="55" font-size="10" fill="#64748b" text-anchor="middle" font-family="Arial, sans-serif">Мышка</text>
  </g>
  <!-- Frog -->
  <g class="animal" style="animation-delay: 0.2s" transform="translate(60, 290)">
    <ellipse cx="20" cy="30" rx="18" ry="14" fill="#22c55e"/>
    <circle cx="20" cy="18" r="12" fill="#22c55e"/>
    <circle cx="15" cy="14" r="4" fill="#fef3c7"/>
    <circle cx="25" cy="14" r="4" fill="#fef3c7"/>
    <circle class="eye" cx="15" cy="14" r="2" fill="#1e293b"/>
    <circle class="eye" cx="25" cy="14" r="2" fill="#1e293b"/>
    <text x="20" y="55" font-size="10" fill="#64748b" text-anchor="middle" font-family="Arial, sans-serif">Лягушка</text>
  </g>
  <!-- Rabbit -->
  <g class="animal" style="animation-delay: 0.4s" transform="translate(100, 285)">
    <ellipse cx="15" cy="35" rx="12" ry="15" fill="#faf5ff"/>
    <circle cx="15" cy="20" r="10" fill="#faf5ff"/>
    <ellipse cx="10" cy="5" rx="4" ry="12" fill="#faf5ff"/>
    <ellipse cx="20" cy="5" rx="4" ry="12" fill="#faf5ff"/>
    <circle class="eye" cx="12" cy="18" r="2" fill="#1e293b"/>
    <circle class="eye" cx="18" cy="18" r="2" fill="#1e293b"/>
    <text x="15" y="60" font-size="10" fill="#64748b" text-anchor="middle" font-family="Arial, sans-serif">Зайчик</text>
  </g>
  <!-- Fox -->
  <g class="animal" style="animation-delay: 0.6s" transform="translate(140, 280)">
    <ellipse cx="20" cy="35" rx="15" ry="12" fill="#f97316"/>
    <polygon points="5,20 20,5 35,20" fill="#f97316"/>
    <polygon points="10,10 5,0 15,15" fill="#f97316"/>
    <polygon points="30,10 35,0 25,15" fill="#f97316"/>
    <circle class="eye" cx="15" cy="18" r="2" fill="#1e293b"/>
    <circle class="eye" cx="25" cy="18" r="2" fill="#1e293b"/>
    <ellipse cx="20" cy="25" rx="3" ry="2" fill="#1e293b"/>
    <text x="20" y="60" font-size="10" fill="#64748b" text-anchor="middle" font-family="Arial, sans-serif">Лисичка</text>
  </g>
  <!-- Wolf -->
  <g class="animal" style="animation-delay: 0.8s" transform="translate(180, 275)">
    <ellipse cx="20" cy="40" rx="18" ry="15" fill="#6b7280"/>
    <ellipse cx="20" cy="25" rx="12" ry="10" fill="#6b7280"/>
    <polygon points="10,15 5,0 18,12" fill="#6b7280"/>
    <polygon points="30,15 35,0 22,12" fill="#6b7280"/>
    <circle class="eye" cx="15" cy="22" r="2" fill="#fbbf24"/>
    <circle class="eye" cx="25" cy="22" r="2" fill="#fbbf24"/>
    <ellipse cx="20" cy="28" rx="4" ry="3" fill="#1e293b"/>
    <text x="20" y="65" font-size="10" fill="#64748b" text-anchor="middle" font-family="Arial, sans-serif">Волчок</text>
  </g>
  <!-- Bear (big, on roof) -->
  <g class="animal" style="animation-delay: 1s" transform="translate(300, 140)">
    <ellipse cx="30" cy="50" rx="25" ry="20" fill="#78350f"/>
    <circle cx="30" cy="30" r="20" fill="#78350f"/>
    <circle cx="20" cy="25" r="5" fill="#a8a29e"/>
    <circle cx="40" cy="25" r="5" fill="#a8a29e"/>
    <circle class="eye" cx="20" cy="25" r="2" fill="#1e293b"/>
    <circle class="eye" cx="40" cy="25" r="2" fill="#1e293b"/>
    <ellipse cx="30" cy="35" rx="5" ry="3" fill="#1e293b"/>
    <circle cx="15" cy="15" r="8" fill="#78350f"/>
    <circle cx="45" cy="15" r="8" fill="#78350f"/>
    <text x="30" y="85" font-size="10" fill="#dc2626" text-anchor="middle" font-family="Arial, sans-serif" font-weight="bold">Медведь</text>
  </g>
  <!-- Title -->
  <text x="200" y="35" font-size="22" fill="#166534" text-anchor="middle" font-family="Arial, sans-serif" font-weight="bold">ТЕРЕМОК</text>
  <!-- Decorative grass -->
  <path d="M 0 370 Q 10 360 20 370 Q 30 360 40 370 Q 50 360 60 370" stroke="#22c55e" stroke-width="2" fill="none"/>
  <path d="M 340 370 Q 350 360 360 370 Q 370 360 380 370 Q 390 360 400 370" stroke="#22c55e" stroke-width="2" fill="none"/>
</svg>