<svg xmlns="http://www.w3.org/2000/svg" viewBox="0 0 400 400" width="400" height="400">
  
  <!-- Background -->
  <rect width="400" height="400" fill="#fffbeb" rx="20"/>
  <!-- Title -->
  <text x="200" y="35" font-size="20" fill="#b45309" text-anchor="middle" font-family="Arial, sans-serif" font-weight="bold">КУРОЧКА РЯБА</text>
  <!-- Hen (Ryaba) -->
  <g transform="translate(180, 60)">
    <!-- Body -->
    <ellipse cx="50" cy="80" rx="45" ry="35" fill="#fef3c7"/>
    <!-- Wing -->
    <ellipse cx="30" cy="85" rx="20" ry="25" fill="#fde68a"/>
    <!-- Head -->
    <circle cx="90" cy="55" r="25" fill="#fef3c7">
    <animate attributeName="r" values="25;27;25" dur="3s" repeatCount="indefinite"/>
  </circle>
    <!-- Comb -->
    <path d="M 85 30 Q 90 20 95 30 Q 100 20 105 30" stroke="#dc2626" stroke-width="4" fill="none" stroke-linecap="round"/>
    <!-- Beak -->
    <polygon points="115,55 130,60 115,65" fill="#f97316"/>
    <!-- Eye -->
    <circle cx="95" cy="50" r="5" fill="#1e293b">
    <animate attributeName="r" values="5;7;5" dur="3s" repeatCount="indefinite"/>
  </circle>
    <circle cx="97" cy="48" r="2" fill="white"/>
    <!-- Wattle -->
    <ellipse cx="100" cy="70" rx="5" ry="8" fill="#dc2626"/>
    <!-- Tail feathers -->
    <path d="M 5 70 Q -10 50 5 40" stroke="#f59e0b" stroke-width="4" fill="none"/>
    <path d="M 10 65 Q -5 45 15 35" stroke="#f59e0b" stroke-width="4" fill="none"/>
    <path d="M 15 60 Q 0 40 25 30" stroke="#f59e0b" stroke-width="4" fill="none"/>
    <!-- Legs -->
    <path d="M 35 115 L 30 145 M 25 145 L 35 145" stroke="#f97316" stroke-width="3"/>
    <path d="M 65 115 L 70 145 M 65 145 L 75 145" stroke="#f97316" stroke-width="3"/>
    <!-- Label -->
    <text x="50" y="165" font-size="12" fill="#92400e" text-anchor="middle" font-family="Arial, sans-serif" font-weight="bold">Курочка Ряба</text>
  </g>
  <!-- Golden egg -->
  <g transform="translate(280, 220)">
    <ellipse cx="30" cy="40" rx="25" ry="32" fill="#fbbf24"/>
    <ellipse cx="30" cy="40" rx="25" ry="32" fill="none" stroke="#f59e0b" stroke-width="2"/>
    <!-- Sparkles -->
    <polygon points="10,20 12,25 17,25 13,28 15,33 10,30 5,33 7,28 3,25 8,25" fill="#fef3c7"/>
    <polygon points="50,30 52,35 57,35 53,38 55,43 50,40 45,43 47,38 43,35 48,35" fill="#fef3c7"/>
    <polygon points="30,5 32,10 37,10 33,13 35,18 30,15 25,18 27,13 23,10 28,10" fill="#fef3c7"/>
    <!-- Shine -->
    <ellipse cx="20" cy="30" rx="8" ry="12" fill="#fef3c7" opacity="0.6"/>
    <text x="30" y="90" font-size="10" fill="#92400e" text-anchor="middle" font-family="Arial, sans-serif">ЗОЛОТОЕ ЯИЧКО</text>
  </g>
  <!-- Grandfather (Ded) -->
  <g transform="translate(40, 200)">
    <!-- Body -->
    <rect x="10" y="40" width="50" height="60" fill="#1e40af" rx="5"/>
    <!-- Head -->
    <circle cx="35" cy="25" r="22" fill="#fef3c7"/>
    <!-- Beard -->
    <path d="M 15 35 Q 35 70 55 35" fill="#e5e7eb"/>
    <!-- Mustache -->
    <path d="M 25 35 Q 35 42 45 35" stroke="#9ca3af" stroke-width="3" fill="none"/>
    <!-- Eyes (sad) -->
    <ellipse cx="28" cy="22" rx="3" ry="2" fill="#1e293b"/>
    <ellipse cx="42" cy="22" rx="3" ry="2" fill="#1e293b"/>
    <!-- Eyebrows (sad) -->
    <path d="M 23 17 L 33 19" stroke="#6b7280" stroke-width="2"/>
    <path d="M 47 19 L 37 17" stroke="#6b7280" stroke-width="2"/>
    <!-- Hat -->
    <ellipse cx="35" cy="8" rx="20" ry="6" fill="#422006"/>
    <rect x="20" y="0" width="30" height="10" fill="#422006"/>
    <!-- Text -->
    <text x="35" y="120" font-size="10" fill="#64748b" text-anchor="middle" font-family="Arial, sans-serif">Дед</text>
  </g>
  <!-- Grandmother (Baba) -->
  <g style="animation-delay: 0.5s" transform="translate(120, 200)">
    <!-- Body -->
    <rect x="10" y="40" width="50" height="60" fill="#dc2626" rx="5"/>
    <!-- Head -->
    <circle cx="35" cy="25" r="22" fill="#fef3c7"/>
    <!-- Scarf -->
    <path d="M 13 25 Q 35 55 57 25" fill="#f472b6"/>
    <ellipse cx="35" cy="10" rx="25" ry="12" fill="#f472b6"/>
    <!-- Eyes (sad) -->
    <ellipse cx="28" cy="22" rx="3" ry="2" fill="#1e293b"/>
    <ellipse cx="42" cy="22" rx="3" ry="2" fill="#1e293b"/>
    <!-- Eyebrows (sad) -->
    <path d="M 23 17 L 33 19" stroke="#6b7280" stroke-width="2"/>
    <path d="M 47 19 L 37 17" stroke="#6b7280" stroke-width="2"/>
    <!-- Glasses -->
    <circle cx="28" cy="22" r="6" fill="none" stroke="#6b7280" stroke-width="1"/>
    <circle cx="42" cy="22" r="6" fill="none" stroke="#6b7280" stroke-width="1"/>
    <line x1="34" y1="22" x2="36" y2="22" stroke="#6b7280" stroke-width="1"/>
    <!-- Text -->
    <text x="35" y="120" font-size="10" fill="#64748b" text-anchor="middle" font-family="Arial, sans-serif">Баба</text>
  </g>
  <!-- Mouse -->
  <g transform="translate(340, 300)">
    <ellipse cx="20" cy="25" rx="15" ry="12" fill="#a8a29e"/>
    <circle cx="25" cy="15" r="10" fill="#a8a29e"/>
    <circle cx="28" cy="10" r="8" fill="#a8a29e"/>
    <ellipse cx="20" cy="18" rx="2" ry="5" fill="#fecaca"/>
    <circle cx="30" cy="12" r="2" fill="#1e293b"/>
    <ellipse cx="42" cy="30" rx="8" ry="3" fill="#fecaca"/>
    <text x="20" y="50" font-size="9" fill="#64748b" text-anchor="middle" font-family="Arial, sans-serif">Мышка</text>
  </g>
  <!-- Broken egg pieces -->
  <g transform="translate(200, 330)">
    <path d="M 0 20 Q 10 0 20 10 Q 15 25 0 20" fill="#fef3c7" stroke="#f59e0b" stroke-width="1"/>
    <path d="M 25 15 Q 35 0 40 15 Q 35 25 25 15" fill="#fef3c7" stroke="#f59e0b" stroke-width="1"/>
    <path d="M 10 35 Q 20 25 30 35 Q 25 45 10 35" fill="#fef3c7" stroke="#f59e0b" stroke-width="1"/>
  </g>
  <!-- Quote -->
  <g transform="translate(200, 390)">
    <text x="0" y="0" font-size="11" fill="#78350f" text-anchor="middle" font-family="Arial, sans-serif" font-style="italic">«Не плачь, дед! Не плачь, баба!»</text>
  </g>
</svg>