<svg xmlns="http://www.w3.org/2000/svg" viewBox="0 0 500 350">
  <defs>
    <linearGradient id="bg" x1="0" y1="0" x2="1" y2="1">
      <stop offset="0%" stop-color="#E8F5E9"/>
      <stop offset="100%" stop-color="#C8E6C9"/>
    </linearGradient>
  </defs>
  <rect width="500" height="350" fill="url(#bg)" rx="10"/>
  <rect x="3" y="3" width="494" height="344" rx="8" fill="none" stroke="#2E7D32" stroke-width="2.5"/>
  <text x="250" y="30" font-family="Arial,sans-serif" font-size="16" font-weight="bold" fill="#2E7D32" text-anchor="middle">Жизнедеятельность клетки: деление и рост</text>
  <text x="250" y="46" font-family="Arial,sans-serif" font-size="10" fill="#888" text-anchor="middle">Биология 6 класс - Урок 5</text>
  <line x1="30" y1="52" x2="470" y2="52" stroke="#2E7D32" stroke-width="1.5" opacity="0.25"/>
  
  <!-- Cell division stages (mitosis simplified) -->
  <!-- Stage 1: Interphase -->
  <g transform="translate(80,130)">
    <circle cx="0" cy="0" r="28" fill="#E8F5E9" stroke="#4CAF50" stroke-width="2"/>
    <ellipse cx="0" cy="0" rx="10" ry="8" fill="#C8E6C9" stroke="#388E3C" stroke-width="1.5"/>
    <circle cx="0" cy="0" r="3" fill="#81C784"/>
    <text x="0" y="40" font-family="Arial,sans-serif" font-size="7" fill="#333" text-anchor="middle" font-weight="bold">Интерфаза</text>
  </g>
  <!-- Arrow -->
  <path d="M115 130 L140 130" stroke="#2E7D32" stroke-width="1.5"/>
  <path d="M140 130 L136 126 M140 130 L136 134" stroke="#2E7D32" stroke-width="1.5" fill="none"/>
  <!-- Stage 2: Prophase -->
  <g transform="translate(180,130)">
    <circle cx="0" cy="0" r="28" fill="#E8F5E9" stroke="#4CAF50" stroke-width="2"/>
    <!-- Condensed chromosomes -->
    <line x1="-8" y1="-6" x2="8" y2="6" stroke="#E53935" stroke-width="2.5"/>
    <line x1="-8" y1="6" x2="8" y2="-6" stroke="#E53935" stroke-width="2.5"/>
    <!-- Nuclear membrane dissolving -->
    <ellipse cx="0" cy="0" rx="12" ry="9" fill="none" stroke="#388E3C" stroke-width="1" stroke-dasharray="3,2"/>
    <text x="0" y="40" font-family="Arial,sans-serif" font-size="7" fill="#333" text-anchor="middle" font-weight="bold">Профаза</text>
  </g>
  <!-- Arrow -->
  <path d="M215 130 L240 130" stroke="#2E7D32" stroke-width="1.5"/>
  <path d="M240 130 L236 126 M240 130 L236 134" stroke="#2E7D32" stroke-width="1.5" fill="none"/>
  <!-- Stage 3: Metaphase -->
  <g transform="translate(280,130)">
    <circle cx="0" cy="0" r="28" fill="#E8F5E9" stroke="#4CAF50" stroke-width="2"/>
    <!-- Spindle fibers -->
    <line x1="-20" y1="-20" x2="0" y2="0" stroke="#999" stroke-width="0.5"/>
    <line x1="20" y1="-20" x2="0" y2="0" stroke="#999" stroke-width="0.5"/>
    <line x1="-20" y1="20" x2="0" y2="0" stroke="#999" stroke-width="0.5"/>
    <line x1="20" y1="20" x2="0" y2="0" stroke="#999" stroke-width="0.5"/>
    <!-- Chromosomes at equator -->
    <line x1="-6" y1="-4" x2="6" y2="4" stroke="#E53935" stroke-width="2.5"/>
    <line x1="-6" y1="4" x2="6" y2="-4" stroke="#E53935" stroke-width="2.5"/>
    <text x="0" y="40" font-family="Arial,sans-serif" font-size="7" fill="#333" text-anchor="middle" font-weight="bold">Метафаза</text>
  </g>
  <!-- Arrow -->
  <path d="M315 130 L340 130" stroke="#2E7D32" stroke-width="1.5"/>
  <path d="M340 130 L336 126 M340 130 L336 134" stroke="#2E7D32" stroke-width="1.5" fill="none"/>
  <!-- Stage 4: Anaphase -->
  <g transform="translate(380,130)">
    <circle cx="0" cy="0" r="28" fill="#E8F5E9" stroke="#4CAF50" stroke-width="2"/>
    <!-- Chromosomes separating -->
    <line x1="-10" y1="-4" x2="-4" y2="4" stroke="#E53935" stroke-width="2"/>
    <line x1="-10" y1="4" x2="-4" y2="-4" stroke="#E53935" stroke-width="2"/>
    <line x1="4" y1="-4" x2="10" y2="4" stroke="#E53935" stroke-width="2"/>
    <line x1="4" y1="4" x2="10" y2="-4" stroke="#E53935" stroke-width="2"/>
    <!-- Spindle -->
    <line x1="-18" y1="-15" x2="-7" y2="0" stroke="#999" stroke-width="0.5"/>
    <line x1="-18" y1="15" x2="-7" y2="0" stroke="#999" stroke-width="0.5"/>
    <line x1="18" y1="-15" x2="7" y2="0" stroke="#999" stroke-width="0.5"/>
    <line x1="18" y1="15" x2="7" y2="0" stroke="#999" stroke-width="0.5"/>
    <text x="0" y="40" font-family="Arial,sans-serif" font-size="7" fill="#333" text-anchor="middle" font-weight="bold">Анафаза</text>
  </g>
  <!-- Arrow -->
  <path d="M415 130 L440 130" stroke="#2E7D32" stroke-width="1.5"/>
  <path d="M440 130 L436 126 M440 130 L436 134" stroke="#2E7D32" stroke-width="1.5" fill="none"/>
  <!-- Stage 5: Telophase / Two cells -->
  <g transform="translate(470,130)">
    <ellipse cx="-12" cy="0" rx="20" ry="22" fill="#E8F5E9" stroke="#4CAF50" stroke-width="2"/>
    <ellipse cx="12" cy="0" rx="20" ry="22" fill="#E8F5E9" stroke="#4CAF50" stroke-width="2"/>
    <ellipse cx="-12" cy="0" rx="7" ry="5" fill="#C8E6C9" stroke="#388E3C" stroke-width="1"/>
    <ellipse cx="12" cy="0" rx="7" ry="5" fill="#C8E6C9" stroke="#388E3C" stroke-width="1"/>
    <text x="0" y="36" font-family="Arial,sans-serif" font-size="7" fill="#333" text-anchor="middle" font-weight="bold">Телофаза</text>
  </g>
  <!-- Growth phases below -->
  <g transform="translate(100,220)">
    <!-- Small cell -->
    <circle cx="0" cy="0" r="12" fill="#C8E6C9" stroke="#4CAF50" stroke-width="1.5"/>
    <circle cx="0" cy="0" r="4" fill="#81C784"/>
    <path d="M15 0 L40 0" stroke="#2E7D32" stroke-width="1.5"/>
    <path d="M40 0 L36 -4 M40 0 L36 4" stroke="#2E7D32" stroke-width="1.5" fill="none"/>
    <!-- Medium cell -->
    <circle cx="70" cy="0" r="20" fill="#C8E6C9" stroke="#4CAF50" stroke-width="1.5"/>
    <ellipse cx="70" cy="0" rx="8" ry="6" fill="#A5D6A7" stroke="#388E3C" stroke-width="1"/>
    <path d="M95 0 L120 0" stroke="#2E7D32" stroke-width="1.5"/>
    <path d="M120 0 L116 -4 M120 0 L116 4" stroke="#2E7D32" stroke-width="1.5" fill="none"/>
    <!-- Large cell -->
    <circle cx="155" cy="0" r="28" fill="#C8E6C9" stroke="#4CAF50" stroke-width="1.5"/>
    <ellipse cx="155" cy="0" rx="10" ry="8" fill="#A5D6A7" stroke="#388E3C" stroke-width="1"/>
    <!-- Vacuole -->
    <circle cx="160" cy="5" r="8" fill="#E1F5FE" stroke="#42A5F5" stroke-width="0.8" opacity="0.6"/>
  </g>
  <text x="250" y="260" font-family="Arial,sans-serif" font-size="9" fill="#2E7D32" text-anchor="middle" font-weight="bold">Рост клетки: деление -> увеличение объёма</text>
  <!-- Summary -->
  <rect x="50" y="275" width="400" height="35" rx="5" fill="white" stroke="#2E7D32" stroke-width="1" opacity="0.9"/>
  <text x="250" y="292" font-family="Arial,sans-serif" font-size="8" fill="#555" text-anchor="middle">Жизненный цикл клетки: интерфаза (подготовка) -> митоз (деление)</text>
  <text x="250" y="304" font-family="Arial,sans-serif" font-size="8" fill="#555" text-anchor="middle">В результате из 1 материнской клетки образуются 2 дочерние</text>

  <rect x="10" y="325" width="480" height="20" rx="4" fill="#2E7D32" opacity="0.85"/>
  <text x="250" y="339" font-family="Arial,sans-serif" font-size="11" text-anchor="middle" fill="white" font-weight="bold">Биология 6 класс</text>
</svg>