<svg xmlns="http://www.w3.org/2000/svg" viewBox="0 0 500 350"><defs><linearGradient id="bg" x1="0" y1="0" x2="1" y2="1"><stop offset="0%" stop-color="#E8F5E9"/><stop offset="100%" stop-color="#C8E6C9"/></linearGradient></defs><rect width="500" height="350" fill="url(#bg)" rx="10"/><rect x="3" y="3" width="494" height="344" rx="8" fill="none" stroke="#2E7D32" stroke-width="2.5"/><text x="250" y="30" font-family="Arial,sans-serif" font-size="16" font-weight="bold" fill="#2E7D32" text-anchor="middle">Рост и развитие растений</text><text x="250" y="46" font-family="Arial,sans-serif" font-size="10" fill="#888" text-anchor="middle">Биология 6 класс - Урок 29</text><line x1="30" y1="52" x2="470" y2="52" stroke="#2E7D32" stroke-width="1.5" opacity="0.25"/>
  <!-- Seed germination stages -->
  <g transform="translate(60,150)">
    <!-- Stage 1: Dry seed -->
    <ellipse cx="0" cy="0" rx="15" ry="10" fill="#FFF9C4" stroke="#F9A825" stroke-width="1.5"/>
    <text x="0" y="25" font-family="Arial,sans-serif" font-size="7" fill="#333" text-anchor="middle">Семя</text>
  </g>
  <path d="M80 150 L110 150" stroke="#2E7D32" stroke-width="1.5"/>
  <path d="M110 150 L106 146 M110 150 L106 154" stroke="#2E7D32" stroke-width="1.5" fill="none"/>
  <g transform="translate(140,150)">
    <!-- Stage 2: Root emerges -->
    <ellipse cx="0" cy="-5" rx="15" ry="10" fill="#FFF9C4" stroke="#F9A825" stroke-width="1.5"/>
    <path d="M0 5 L0 25" stroke="#795548" stroke-width="2.5" stroke-linecap="round"/>
    <text x="0" y="42" font-family="Arial,sans-serif" font-size="7" fill="#333" text-anchor="middle">Корешок</text>
  </g>
  <path d="M165 150 L195 150" stroke="#2E7D32" stroke-width="1.5"/>
  <path d="M195 150 L191 146 M195 150 L191 154" stroke="#2E7D32" stroke-width="1.5" fill="none"/>
  <g transform="translate(225,150)">
    <!-- Stage 3: Sprout -->
    <path d="M0 15 L0 30" stroke="#795548" stroke-width="2.5" stroke-linecap="round"/>
    <ellipse cx="0" cy="5" rx="12" ry="8" fill="#FFE082" stroke="#F9A825" stroke-width="1"/>
    <path d="M0 -5 L0 -20" stroke="#66BB6A" stroke-width="2"/>
    <ellipse cx="-5" cy="-22" rx="6" ry="4" fill="#81C784" stroke="#4CAF50" stroke-width="0.8"/>
    <text x="0" y="48" font-family="Arial,sans-serif" font-size="7" fill="#333" text-anchor="middle">Росток</text>
  </g>
  <path d="M250 150 L280 150" stroke="#2E7D32" stroke-width="1.5"/>
  <path d="M280 150 L276 146 M280 150 L276 154" stroke="#2E7D32" stroke-width="1.5" fill="none"/>
  <g transform="translate(315,145)">
    <!-- Stage 4: Seedling -->
    <path d="M0 20 L0 50" stroke="#795548" stroke-width="2"/>
    <ellipse cx="-10" cy="10" rx="10" ry="5" fill="#81C784" stroke="#4CAF50" stroke-width="1" transform="rotate(25,-10,10)"/>
    <ellipse cx="10" cy="10" rx="10" ry="5" fill="#81C784" stroke="#4CAF50" stroke-width="1" transform="rotate(-25,10,10)"/>
    <path d="M0 5 L0 -15" stroke="#66BB6A" stroke-width="2.5"/>
    <ellipse cx="-5" cy="-18" rx="7" ry="4" fill="#81C784" stroke="#4CAF50" stroke-width="0.8"/>
    <ellipse cx="5" cy="-18" rx="7" ry="4" fill="#81C784" stroke="#4CAF50" stroke-width="0.8"/>
    <!-- Cotyledons fading -->
    <ellipse cx="0" cy="15" rx="8" ry="4" fill="#FFE082" opacity="0.4"/>
    <text x="0" y="65" font-family="Arial,sans-serif" font-size="7" fill="#333" text-anchor="middle">Проросток</text>
  </g>
  <path d="M340 145 L370 145" stroke="#2E7D32" stroke-width="1.5"/>
  <path d="M370 145 L366 141 M370 145 L366 149" stroke="#2E7D32" stroke-width="1.5" fill="none"/>
  <g transform="translate(420,130)">
    <!-- Stage 5: Young plant -->
    <rect x="-3" y="0" width="6" height="40" fill="#795548" rx="2"/>
    <circle cx="0" cy="-10" r="15" fill="#4CAF50" opacity="0.7"/>
    <circle cx="-8" cy="-5" r="10" fill="#66BB6A" opacity="0.6"/>
    <circle cx="8" cy="-5" r="10" fill="#81C784" opacity="0.5"/>
    <path d="M0 40 Q-10 50 -12 58" stroke="#795548" stroke-width="1.5" fill="none"/>
    <path d="M0 40 Q10 50 12 58" stroke="#795548" stroke-width="1.5" fill="none"/>
    <text x="0" y="72" font-family="Arial,sans-serif" font-size="7" fill="#333" text-anchor="middle">Растение</text>
  </g>
  <!-- Conditions -->
  <rect x="30" y="240" width="440" height="65" rx="5" fill="white" stroke="#2E7D32" stroke-width="1" opacity="0.9"/>
  <text x="250" y="258" font-family="Arial,sans-serif" font-size="9" fill="#2E7D32" text-anchor="middle" font-weight="bold">Условия прорастания семян</text>
  <text x="250" y="274" font-family="Arial,sans-serif" font-size="8" fill="#555" text-anchor="middle">1. Вода (набухание семени) | 2. Кислород (дыхание) | 3. Температура (тепло)</text>
  <text x="250" y="290" font-family="Arial,sans-serif" font-size="8" fill="#555" text-anchor="middle">Рост: деление + растяжение клеток | Развитие: качественные изменения</text>
  <text x="250" y="303" font-family="Arial,sans-serif" font-size="7" fill="#999" text-anchor="middle">Витамины и гормоны (ауксины, гиббереллины) регулируют рост</text>
<rect x="10" y="325" width="480" height="20" rx="4" fill="#2E7D32" opacity="0.85"/><text x="250" y="339" font-family="Arial,sans-serif" font-size="11" text-anchor="middle" fill="white" font-weight="bold">Биология 6 класс</text></svg>