<svg xmlns="http://www.w3.org/2000/svg" viewBox="0 0 500 350">
  <defs>
    <linearGradient id="bg" x1="0" y1="0" x2="0" y2="1">
      <stop offset="0%" stop-color="#E0F2F1"/>
      <stop offset="100%" stop-color="#F5FDFC"/>
    </linearGradient>
    <linearGradient id="panel" x1="0" y1="0" x2="1" y2="0">
      <stop offset="0%" stop-color="#00695C"/>
      <stop offset="100%" stop-color="#00897B"/>
    </linearGradient>
  </defs>
  <rect width="500" height="350" fill="url(#bg)" rx="10"/>
  <rect x="3" y="3" width="494" height="344" rx="8" fill="none" stroke="#00695C" stroke-width="2.5"/>
  <rect x="8" y="8" width="484" height="334" rx="6" fill="none" stroke="#00695C" stroke-width="1" opacity="0.3"/>
  <polygon points="10,10 30,10 10,30" fill="#00695C" opacity="0.12"/>
  <polygon points="490,10 470,10 490,30" fill="#00897B" opacity="0.12"/>
  <polygon points="10,340 30,340 10,320" fill="#26A69A" opacity="0.12"/>
  <polygon points="490,340 470,340 490,320" fill="#004D40" opacity="0.12"/>
  <text x="250" y="46" font-family="Arial,sans-serif" font-size="22" font-weight="bold" fill="#00695C" text-anchor="middle">Право</text>
  <text x="250" y="66" font-family="Arial,sans-serif" font-size="12" fill="#777" text-anchor="middle">Обществознание — Урок 9</text>
  <line x1="30" y1="76" x2="470" y2="76" stroke="#00695C" stroke-width="2" opacity="0.25"/>
  <rect x="30" y="73" width="60" height="5" fill="#00695C" opacity="0.18" rx="1"/>
  <rect x="410" y="73" width="60" height="5" fill="#00897B" opacity="0.12" rx="1"/>
  <clipPath id="ill"><rect x="15" y="83" width="470" height="217" rx="6"/></clipPath>
  <g clip-path="url(#ill)">
  <rect x="15" y="83" width="470" height="217" fill="#E0F2F1"/>
  
    <!-- Definition -->
    <rect x="25" y="90" width="450" height="35" rx="5" fill="#00695C" opacity="0.1" stroke="#00695C" stroke-width="1"/>
    <text x="250" y="107" font-family="Arial,sans-serif" font-size="10" fill="#004D40" text-anchor="middle" font-weight="bold">Право — система общеобязательных норм, охраняемых государством</text>

    <!-- Signs of law -->
    <rect x="25" y="132" width="225" height="90" rx="6" fill="white" stroke="#00695C" stroke-width="1.5"/>
    <rect x="25" y="132" width="225" height="20" rx="6" fill="#00695C"/>
    <text x="137" y="147" font-family="Arial,sans-serif" font-size="10" fill="white" text-anchor="middle" font-weight="bold">Признаки права</text>
    <circle cx="40" cy="168" r="3" fill="#00695C"/>
    <text x="48" y="172" font-family="Arial,sans-serif" font-size="9" fill="#004D40">Нормативность</text>
    <circle cx="40" cy="184" r="3" fill="#00695C"/>
    <text x="48" y="188" font-family="Arial,sans-serif" font-size="9" fill="#004D40">Общеобязательность</text>
    <circle cx="40" cy="200" r="3" fill="#00695C"/>
    <text x="48" y="204" font-family="Arial,sans-serif" font-size="9" fill="#004D40">Обеспеченность государством</text>

    <rect x="260" y="132" width="215" height="90" rx="6" fill="white" stroke="#00897B" stroke-width="1.5"/>
    <rect x="260" y="132" width="215" height="20" rx="6" fill="#00897B"/>
    <text x="367" y="147" font-family="Arial,sans-serif" font-size="10" fill="white" text-anchor="middle" font-weight="bold">Функции права</text>
    <circle cx="275" cy="168" r="3" fill="#00897B"/>
    <text x="283" y="172" font-family="Arial,sans-serif" font-size="9" fill="#004D40">Регулятивная</text>
    <circle cx="275" cy="184" r="3" fill="#00897B"/>
    <text x="283" y="188" font-family="Arial,sans-serif" font-size="9" fill="#004D40">Охранительная</text>
    <circle cx="275" cy="200" r="3" fill="#00897B"/>
    <text x="283" y="204" font-family="Arial,sans-serif" font-size="9" fill="#004D40">Воспитательная</text>

    <!-- Branches of law -->
    <text x="250" y="240" font-family="Arial,sans-serif" font-size="10" fill="#004D40" text-anchor="middle" font-weight="bold">Отрасли права</text>
    <rect x="25" y="248" width="90" height="50" rx="4" fill="white" stroke="#00695C" stroke-width="1"/>
    <text x="70" y="268" font-family="Arial,sans-serif" font-size="8" fill="#00695C" text-anchor="middle" font-weight="bold">Гражданское</text>
    <text x="70" y="280" font-family="Arial,sans-serif" font-size="7" fill="#666" text-anchor="middle">имущество, сделки</text>
    <rect x="125" y="248" width="90" height="50" rx="4" fill="white" stroke="#00897B" stroke-width="1"/>
    <text x="170" y="268" font-family="Arial,sans-serif" font-size="8" fill="#00897B" text-anchor="middle" font-weight="bold">Уголовное</text>
    <text x="170" y="280" font-family="Arial,sans-serif" font-size="7" fill="#666" text-anchor="middle">преступления</text>
    <rect x="225" y="248" width="90" height="50" rx="4" fill="white" stroke="#26A69A" stroke-width="1"/>
    <text x="270" y="268" font-family="Arial,sans-serif" font-size="8" fill="#26A69A" text-anchor="middle" font-weight="bold">Администра-</text>
    <text x="270" y="280" font-family="Arial,sans-serif" font-size="8" fill="#26A69A" text-anchor="middle" font-weight="bold">тивное</text>
    <rect x="325" y="248" width="80" height="50" rx="4" fill="white" stroke="#004D40" stroke-width="1"/>
    <text x="365" y="268" font-family="Arial,sans-serif" font-size="8" fill="#004D40" text-anchor="middle" font-weight="bold">Семейное</text>
    <text x="365" y="280" font-family="Arial,sans-serif" font-size="7" fill="#666" text-anchor="middle">брак, дети</text>
    <rect x="415" y="248" width="60" height="50" rx="4" fill="white" stroke="#80CBC4" stroke-width="1"/>
    <text x="445" y="268" font-family="Arial,sans-serif" font-size="8" fill="#80CBC4" text-anchor="middle" font-weight="bold">Трудо-</text>
    <text x="445" y="280" font-family="Arial,sans-serif" font-size="8" fill="#80CBC4" text-anchor="middle" font-weight="bold">вое</text>
  </g>
  <rect x="12" y="305" width="476" height="32" rx="5" fill="url(#panel)"/>
  <line x1="20" y1="308" x2="20" y2="334" stroke="#26A69A" stroke-width="1.5" opacity="0.6"/>
  <line x1="480" y1="308" x2="480" y2="334" stroke="#26A69A" stroke-width="1.5" opacity="0.6"/>
  <text x="250" y="326" font-family="Arial,sans-serif" font-size="14" text-anchor="middle" fill="white" font-weight="bold">Обществознание · 11 класс</text>
</svg>