<svg xmlns="http://www.w3.org/2000/svg" viewBox="0 0 500 350">
<defs>
  <linearGradient id="bg" x1="0%" y1="0%" x2="100%" y2="100%">
    <stop offset="0%" style="stop-color:#455A64"/>
    <stop offset="100%" style="stop-color:#90A4AE"/>
  </linearGradient>
  <linearGradient id="card" x1="0%" y1="0%" x2="0%" y2="100%">
    <stop offset="0%" style="stop-color:rgba(255,255,255,0.95)"/>
    <stop offset="100%" style="stop-color:rgba(255,255,255,0.85)"/>
  </linearGradient>
</defs>
<rect width="500" height="350" fill="url(#bg)"/>
<rect x="50" y="40" width="30" height="6" rx="3" fill="white" opacity="0.08" transform="rotate(-45 65 43)"/>
<rect x="230" y="40" width="30" height="6" rx="3" fill="white" opacity="0.08" transform="rotate(-45 245 43)"/>
<rect x="410" y="40" width="30" height="6" rx="3" fill="white" opacity="0.08" transform="rotate(-45 425 43)"/>
<rect x="50" y="220" width="30" height="6" rx="3" fill="white" opacity="0.08" transform="rotate(-45 65 223)"/>
<rect x="230" y="220" width="30" height="6" rx="3" fill="white" opacity="0.08" transform="rotate(-45 245 223)"/>
<rect x="410" y="220" width="30" height="6" rx="3" fill="white" opacity="0.08" transform="rotate(-45 425 223)"/>
<rect x="20" y="50" width="460" height="270" rx="16" fill="url(#card)" opacity="0.92"/>
<rect x="30" y="60" width="auto" height="24" rx="12" fill="#455A64" opacity="0.9"/>
<rect x="30" y="60" width="100" height="24" rx="12" fill="#455A64" opacity="0.9"/>
<text x="80" y="77" text-anchor="middle" font-family="Arial,sans-serif" font-size="11" fill="white" font-weight="bold">Технология</text>
<text x="470" y="77" text-anchor="end" font-family="Arial,sans-serif" font-size="11" fill="#455A64" font-weight="bold">Урок 16</text>
<text x="40" y="105" font-family="Arial,sans-serif" font-size="18" fill="#1a1a1a" font-weight="bold">Проект «Подарок маме»</text>
<line x1="40" y1="115" x2="460" y2="115" stroke="#CFD8DC" stroke-width="2"/>
<text x="40" y="135" font-family="Arial,sans-serif" font-size="13" fill="#444">Изготовляем подарок своими руками.</text>
<circle cx="50" cy="160" r="4" fill="#455A64"/>
<text x="62" y="165" font-family="Arial,sans-serif" font-size="12" fill="#333">Выбрать изделие для подарка</text>
<circle cx="50" cy="185" r="4" fill="#455A64"/>
<text x="62" y="190" font-family="Arial,sans-serif" font-size="12" fill="#333">Составить план работы</text>
<circle cx="50" cy="210" r="4" fill="#455A64"/>
<text x="62" y="215" font-family="Arial,sans-serif" font-size="12" fill="#333">Изготовить подарок</text>
<circle cx="50" cy="235" r="4" fill="#455A64"/>
<text x="62" y="240" font-family="Arial,sans-serif" font-size="12" fill="#333">Упаковать подарок</text>
<rect x="40" y="260" width="70" height="18" rx="9" fill="#455A64" opacity="0.15"/>
<text x="75" y="273" text-anchor="middle" font-family="Arial,sans-serif" font-size="10" fill="#455A64" font-weight="bold">4 заданий</text>
<circle cx="460" cy="310" r="25" fill="#455A64" opacity="0.15"/>
<circle cx="460" cy="310" r="15" fill="#455A64" opacity="0.1"/>
</svg>