<svg xmlns="http://www.w3.org/2000/svg" viewBox="0 0 500 350">
  <defs>
    <linearGradient id="bg" x1="0" y1="0" x2="0" y2="1">
      <stop offset="0%" stop-color="#FFF8E1"/>
      <stop offset="100%" stop-color="#FFFDE7"/>
    </linearGradient>
    <linearGradient id="panel" x1="0" y1="0" x2="1" y2="0">
      <stop offset="0%" stop-color="#B71C1C"/>
      <stop offset="100%" stop-color="#C62828"/>
    </linearGradient>
  </defs>
  <rect width="500" height="350" fill="url(#bg)" rx="10"/>
  <rect x="3" y="3" width="494" height="344" rx="8" fill="none" stroke="#C62828" stroke-width="3"/>
  <rect x="8" y="8" width="484" height="334" rx="6" fill="none" stroke="#C62828" stroke-width="1" opacity="0.3"/>
  <!-- Bauhaus corner accents -->
  <polygon points="10,10 30,10 10,30" fill="#C62828" opacity="0.12"/>
  <polygon points="490,10 470,10 490,30" fill="#1565C0" opacity="0.12"/>
  <polygon points="10,340 30,340 10,320" fill="#F9A825" opacity="0.12"/>
  <polygon points="490,340 470,340 490,320" fill="#2E7D32" opacity="0.12"/>
  <!-- Title -->
  <text x="250" y="48" font-family="Arial,sans-serif" font-size="24" font-weight="bold" fill="#455A64" text-anchor="middle">Трудовое право</text>
  <text x="250" y="68" font-family="Arial,sans-serif" font-size="12" fill="#777" text-anchor="middle">Основы права - Урок 6</text>
  <line x1="30" y1="78" x2="470" y2="78" stroke="#455A64" stroke-width="2" opacity="0.25"/>
  <rect x="30" y="75" width="60" height="5" fill="#455A64" opacity="0.18" rx="1"/>
  <rect x="410" y="75" width="60" height="5" fill="#1565C0" opacity="0.12" rx="1"/>
  <!-- ILLUSTRATION AREA: x=15..485, y=85..300 -->
  <clipPath id="ill"><rect x="15" y="85" width="470" height="215" rx="6"/></clipPath>
  <g clip-path="url(#ill)">
  <rect x="15" y="85" width="470" height="215" fill="#FFF8E1"/><g transform="translate(150,210) scale(1.2)" fill="#333">
      <circle cx="0" cy="-40" r="10"/>
      <path d="M-8,-28 L-12,10 L-5,10 L0,-5 L5,10 L12,10 L8,-28Z"/>
      <line x1="-4" y1="10" x2="-6" y2="38" stroke="#333" stroke-width="4" stroke-linecap="round"/>
      <line x1="4" y1="10" x2="6" y2="38" stroke="#333" stroke-width="4" stroke-linecap="round"/>
    </g><rect x="200" y="150" width="200" height="80" rx="5" fill="white" stroke="#F57F17" stroke-width="1.5"/><text x="300" y="175" font-family="Arial" font-size="12" fill="#333" text-anchor="middle" font-weight="bold">Трудовой договор</text><text x="300" y="195" font-family="Arial" font-size="10" fill="#555" text-anchor="middle">Зарплата, отпуск, охрана труда</text><g transform="translate(200,200) scale(0.5)"><ellipse cx="0" cy="-15" rx="18" ry="5" fill="#F9A825" stroke="#F57F17" stroke-width="1"/><ellipse cx="0" cy="-9" rx="18" ry="5" fill="#FFB300" stroke="#F57F17" stroke-width="1"/><ellipse cx="0" cy="-3" rx="18" ry="5" fill="#FFC107" stroke="#F57F17" stroke-width="1"/><ellipse cx="0" cy="3" rx="18" ry="5" fill="#FFD54F" stroke="#F57F17" stroke-width="1"/><text x="0" y="-10" font-family="Arial" font-size="14" fill="#F57F17" text-anchor="middle" font-weight="bold">$</text></g>
  </g>
  <!-- Bottom panel -->
  <rect x="12" y="305" width="476" height="32" rx="5" fill="url(#panel)"/>
  <line x1="20" y1="308" x2="20" y2="334" stroke="#F9A825" stroke-width="1.5" opacity="0.6"/>
  <line x1="480" y1="308" x2="480" y2="334" stroke="#F9A825" stroke-width="1.5" opacity="0.6"/>
  <text x="250" y="326" font-family="Arial,sans-serif" font-size="15" text-anchor="middle" fill="white" font-weight="bold">Основы права</text>
</svg>