<svg xmlns="http://www.w3.org/2000/svg" viewBox="0 0 500 350"><defs><linearGradient id="bg" x1="0" y1="0" x2="1" y2="1"><stop offset="0%" stop-color="#FFF8E1"/><stop offset="100%" stop-color="#FFFDE7"/></linearGradient></defs><rect width="500" height="350" fill="url(#bg)" rx="10"/><rect x="3" y="3" width="494" height="344" rx="8" fill="none" stroke="#C62828" stroke-width="3"/><rect x="8" y="8" width="484" height="334" rx="6" fill="none" stroke="#C62828" stroke-width="1" opacity="0.3"/><polygon points="10,10 30,10 10,30" fill="#C62828" opacity="0.08"/><polygon points="490,10 470,10 490,30" fill="#1565C0" opacity="0.08"/><polygon points="10,340 30,340 10,320" fill="#F9A825" opacity="0.08"/><polygon points="490,340 470,340 490,320" fill="#2E7D32" opacity="0.08"/><circle cx="70" cy="15" r="4" fill="#C62828" opacity="0.1"/><circle cx="82" cy="15" r="4" fill="#1565C0" opacity="0.1"/><circle cx="94" cy="15" r="4" fill="#F9A825" opacity="0.1"/><circle cx="406" cy="15" r="4" fill="#C62828" opacity="0.1"/><circle cx="418" cy="15" r="4" fill="#1565C0" opacity="0.1"/><circle cx="430" cy="15" r="4" fill="#F9A825" opacity="0.1"/><text x="250" y="50" font-family="Arial,sans-serif" font-size="24" font-weight="bold" fill="#C62828" text-anchor="middle">Что такое социальный институт</text><text x="250" y="68" font-family="Arial,sans-serif" font-size="12" fill="#777" text-anchor="middle">Обществознание - Урок 1</text><line x1="30" y1="78" x2="470" y2="78" stroke="#C62828" stroke-width="2" opacity="0.25"/><rect x="30" y="75" width="60" height="6" fill="#C62828" opacity="0.15" rx="1"/><rect x="410" y="75" width="60" height="6" fill="#1565C0" opacity="0.12" rx="1"/>
<!-- Card: Суть института -->
<rect x="25" y="88" width="220" height="100" rx="6" fill="white" stroke="#C62828" stroke-width="2"/>
<rect x="25" y="88" width="220" height="24" rx="6" fill="#C62828" opacity="0.12"/>
<rect x="25" y="100" width="220" height="12" fill="#C62828" opacity="0.12"/>
<text x="135" y="106" font-family="Arial,sans-serif" font-size="13" font-weight="bold" fill="#C62828" text-anchor="middle">Социальный институт</text>
<text x="40" y="128" font-family="Arial,sans-serif" font-size="11" fill="#333">Устойчивая форма организации</text>
<text x="40" y="144" font-family="Arial,sans-serif" font-size="11" fill="#333">совместной деятельности людей,</text>
<text x="40" y="160" font-family="Arial,sans-serif" font-size="11" fill="#333">направленная на удовлетворение</text>
<text x="40" y="176" font-family="Arial,sans-serif" font-size="11" fill="#333">основных потребностей общества</text>
<!-- Pillar icon -->
<rect x="195" y="125" width="40" height="55" rx="3" fill="#C62828" opacity="0.1" stroke="#C62828" stroke-width="1.5"/>
<rect x="200" y="132" width="30" height="6" rx="1" fill="#C62828" opacity="0.3"/>
<rect x="200" y="143" width="30" height="6" rx="1" fill="#C62828" opacity="0.3"/>
<rect x="200" y="154" width="30" height="6" rx="1" fill="#C62828" opacity="0.3"/>
<rect x="200" y="165" width="30" height="6" rx="1" fill="#C62828" opacity="0.3"/>
<!-- Card: Виды институтов -->
<rect x="255" y="88" width="220" height="100" rx="6" fill="white" stroke="#1565C0" stroke-width="2"/>
<rect x="255" y="88" width="220" height="24" rx="6" fill="#1565C0" opacity="0.12"/>
<rect x="255" y="100" width="220" height="12" fill="#1565C0" opacity="0.12"/>
<text x="365" y="106" font-family="Arial,sans-serif" font-size="13" font-weight="bold" fill="#1565C0" text-anchor="middle">Основные институты</text>
<text x="270" y="128" font-family="Arial,sans-serif" font-size="11" fill="#333">Семья - рождение и воспитание</text>
<text x="270" y="144" font-family="Arial,sans-serif" font-size="11" fill="#333">Образование - знания и навыки</text>
<text x="270" y="160" font-family="Arial,sans-serif" font-size="11" fill="#333">Государство - порядок и закон</text>
<text x="270" y="176" font-family="Arial,sans-serif" font-size="11" fill="#333">Религия - духовные ценности</text>
<!-- 4 small icons -->
<circle cx="450" cy="130" r="10" fill="#C62828" opacity="0.08"/><text x="450" y="134" font-family="Arial,sans-serif" font-size="10" fill="#C62828" text-anchor="middle">S</text>
<circle cx="450" cy="152" r="10" fill="#1565C0" opacity="0.08"/><text x="450" y="156" font-family="Arial,sans-serif" font-size="10" fill="#1565C0" text-anchor="middle">E</text>
<circle cx="450" cy="174" r="10" fill="#2E7D32" opacity="0.08"/><text x="450" y="178" font-family="Arial,sans-serif" font-size="10" fill="#2E7D32" text-anchor="middle">G</text>
<!-- Card: Признаки -->
<rect x="25" y="196" width="150" height="100" rx="6" fill="white" stroke="#2E7D32" stroke-width="2"/>
<rect x="25" y="196" width="150" height="24" rx="6" fill="#2E7D32" opacity="0.12"/>
<rect x="25" y="208" width="150" height="12" fill="#2E7D32" opacity="0.12"/>
<text x="100" y="214" font-family="Arial,sans-serif" font-size="13" font-weight="bold" fill="#2E7D32" text-anchor="middle">Признаки</text>
<text x="38" y="236" font-family="Arial,sans-serif" font-size="10" fill="#333">Цели и задачи</text>
<text x="38" y="252" font-family="Arial,sans-serif" font-size="10" fill="#333">Функции и роли</text>
<text x="38" y="268" font-family="Arial,sans-serif" font-size="10" fill="#333">Правила и нормы</text>
<text x="38" y="284" font-family="Arial,sans-serif" font-size="10" fill="#333">Ресурсы и средства</text>
<!-- Card: Функции -->
<rect x="185" y="196" width="150" height="100" rx="6" fill="white" stroke="#F9A825" stroke-width="2"/>
<rect x="185" y="196" width="150" height="24" rx="6" fill="#F9A825" opacity="0.12"/>
<rect x="185" y="208" width="150" height="12" fill="#F9A825" opacity="0.12"/>
<text x="260" y="214" font-family="Arial,sans-serif" font-size="13" font-weight="bold" fill="#E65100" text-anchor="middle">Функции</text>
<text x="198" y="236" font-family="Arial,sans-serif" font-size="10" fill="#333">Удовлетворение потребностей</text>
<text x="198" y="252" font-family="Arial,sans-serif" font-size="10" fill="#333">Социальный контроль</text>
<text x="198" y="268" font-family="Arial,sans-serif" font-size="10" fill="#333">Передача опыта</text>
<text x="198" y="284" font-family="Arial,sans-serif" font-size="10" fill="#333">Интеграция общества</text>
<!-- Card: Примеры -->
<rect x="345" y="196" width="130" height="100" rx="6" fill="white" stroke="#6A1B9A" stroke-width="2"/>
<rect x="345" y="196" width="130" height="24" rx="6" fill="#6A1B9A" opacity="0.12"/>
<rect x="345" y="208" width="130" height="12" fill="#6A1B9A" opacity="0.12"/>
<text x="410" y="214" font-family="Arial,sans-serif" font-size="13" font-weight="bold" fill="#6A1B9A" text-anchor="middle">Примеры</text>
<text x="358" y="236" font-family="Arial,sans-serif" font-size="10" fill="#333">Школа</text>
<text x="358" y="252" font-family="Arial,sans-serif" font-size="10" fill="#333">Семья</text>
<text x="358" y="268" font-family="Arial,sans-serif" font-size="10" fill="#333">Церковь</text>
<text x="358" y="284" font-family="Arial,sans-serif" font-size="10" fill="#333">Армия</text>
<rect x="15" y="308" width="470" height="30" rx="4" fill="#C62828" opacity="0.85"/><text x="250" y="329" font-family="Arial,sans-serif" font-size="15" text-anchor="middle" fill="white" font-weight="bold">Что такое социальный институт</text></svg>