<svg xmlns="http://www.w3.org/2000/svg" viewBox="0 0 500 350">
<defs><linearGradient id="bg" x1="0" y1="0" x2="1" y2="1"><stop offset="0%" stop-color="#E8F5E9"/><stop offset="100%" stop-color="#C8E6C9"/></linearGradient></defs>
<rect width="500" height="350" fill="url(#bg)" rx="10"/>
<rect x="3" y="3" width="494" height="344" rx="8" fill="none" stroke="#2E7D32" stroke-width="2.5"/>
<text x="250" y="30" font-family="Arial,sans-serif" font-size="14" font-weight="bold" fill="#2E7D32" text-anchor="middle">Экологические факторы и закономерности</text>
<text x="250" y="46" font-family="Arial,sans-serif" font-size="10" fill="#888" text-anchor="middle">Биология 11 класс — Урок 15</text>
<line x1="30" y1="52" x2="470" y2="52" stroke="#2E7D32" stroke-width="1.5" opacity="0.25"/>

<g transform="translate(120,125)">
<rect x="-70" y="-35" width="140" height="70" rx="5" fill="#FF9800" opacity="0.12" stroke="#E65100" stroke-width="1.5"/>
<text x="0" y="-20" font-family="Arial,sans-serif" font-size="8" fill="#E65100" text-anchor="middle" font-weight="bold">Абиотические</text>
<line x1="-55" y1="-12" x2="55" y2="-12" stroke="#E65100" stroke-width="0.5"/>
<text x="0" y="2" font-family="Arial,sans-serif" font-size="6" fill="#555" text-anchor="middle">Свет, t, влажность</text>
<text x="0" y="14" font-family="Arial,sans-serif" font-size="6" fill="#555" text-anchor="middle">Давление, солёность</text>
<text x="0" y="26" font-family="Arial,sans-serif" font-size="6" fill="#555" text-anchor="middle">pH, течения, ветер</text>
</g>
<g transform="translate(380,125)">
<rect x="-70" y="-35" width="140" height="70" rx="5" fill="#4CAF50" opacity="0.12" stroke="#2E7D32" stroke-width="1.5"/>
<text x="0" y="-20" font-family="Arial,sans-serif" font-size="8" fill="#2E7D32" text-anchor="middle" font-weight="bold">Биотические</text>
<line x1="-55" y1="-12" x2="55" y2="-12" stroke="#2E7D32" stroke-width="0.5"/>
<text x="0" y="2" font-family="Arial,sans-serif" font-size="6" fill="#555" text-anchor="middle">Хищничество, конкуренция</text>
<text x="0" y="14" font-family="Arial,sans-serif" font-size="6" fill="#555" text-anchor="middle">Симбиоз, паразитизм</text>
<text x="0" y="26" font-family="Arial,sans-serif" font-size="6" fill="#555" text-anchor="middle">Мутуализм, комменсализм</text>
</g>
<g transform="translate(250,240)">
<rect x="-70" y="-30" width="140" height="60" rx="5" fill="#9C27B0" opacity="0.12" stroke="#7B1FA2" stroke-width="1.5"/>
<text x="0" y="-15" font-family="Arial,sans-serif" font-size="8" fill="#7B1FA2" text-anchor="middle" font-weight="bold">Антропогенные</text>
<line x1="-55" y1="-7" x2="55" y2="-7" stroke="#7B1FA2" stroke-width="0.5"/>
<text x="0" y="7" font-family="Arial,sans-serif" font-size="6" fill="#555" text-anchor="middle">Загрязнение, вырубка</text>
<text x="0" y="20" font-family="Arial,sans-serif" font-size="6" fill="#555" text-anchor="middle">Урбанизация, интродукция</text>
</g>
<rect x="30" y="295" width="440" height="18" rx="5" fill="white" stroke="#2E7D32" stroke-width="1" opacity="0.9"/>
<text x="250" y="309" font-family="Arial,sans-serif" font-size="7" fill="#555" text-anchor="middle">Закон оптимума | Закон минимума Либиха | Ограничивающий фактор</text>
<text x="250" y="320" font-family="Arial,sans-serif" font-size="7" fill="#555" text-anchor="middle">Фотопериодизм: реакция на длину дня | Экологическая валентность</text>

<rect x="10" y="325" width="480" height="20" rx="4" fill="#2E7D32" opacity="0.85"/>
<text x="250" y="339" font-family="Arial,sans-serif" font-size="11" text-anchor="middle" fill="white" font-weight="bold">Биология 11 класс</text>
</svg>