<svg xmlns="http://www.w3.org/2000/svg" viewBox="0 0 500 350">
  <rect width="500" height="350" fill="#F5E6C8"/>
  <rect width="500" height="8" fill="#C41E3A"/>
  <rect y="8" width="500" height="2" fill="#D4A843"/>
  <text x="250" y="45" text-anchor="middle" font-family="Arial,sans-serif" font-size="24" font-weight="bold" fill="#1a1a1a">Строевые упражнения</text>
  <text x="250" y="70" text-anchor="middle" font-family="Arial,sans-serif" font-size="12" fill="#D4A843">Осваиваем построения и перестроения</text>
  <line x1="50" y1="82" x2="450" y2="82" stroke="#D4A843" stroke-width="0.5"/>
  
  <!-- figure 0 -->
  <circle cx="140" cy="135" r="10" fill="#1a1a1a"/>
  <line x1="140" y1="145" x2="140" y2="185" stroke="#1a1a1a" stroke-width="3.5" stroke-linecap="round"/>
  <line x1="140" y1="155" x2="128" y2="170" stroke="#1a1a1a" stroke-width="3" stroke-linecap="round"/>
  <line x1="140" y1="155" x2="160" y2="170" stroke="#1a1a1a" stroke-width="3" stroke-linecap="round"/>
  <line x1="140" y1="185" x2="132" y2="210" stroke="#1a1a1a" stroke-width="3" stroke-linecap="round"/>
  <line x1="140" y1="185" x2="148" y2="210" stroke="#1a1a1a" stroke-width="3" stroke-linecap="round"/>
  <!-- figure 1 -->
  <circle cx="190" cy="135" r="10" fill="#1a1a1a"/>
  <line x1="190" y1="145" x2="190" y2="185" stroke="#1a1a1a" stroke-width="3.5" stroke-linecap="round"/>
  <line x1="190" y1="155" x2="170" y2="170" stroke="#1a1a1a" stroke-width="3" stroke-linecap="round"/>
  <line x1="190" y1="155" x2="202" y2="170" stroke="#1a1a1a" stroke-width="3" stroke-linecap="round"/>
  <line x1="190" y1="185" x2="182" y2="210" stroke="#1a1a1a" stroke-width="3" stroke-linecap="round"/>
  <line x1="190" y1="185" x2="198" y2="210" stroke="#1a1a1a" stroke-width="3" stroke-linecap="round"/>
  <!-- figure 2 -->
  <circle cx="250" cy="135" r="10" fill="#1a1a1a"/>
  <line x1="250" y1="145" x2="250" y2="185" stroke="#1a1a1a" stroke-width="3.5" stroke-linecap="round"/>
  <line x1="250" y1="155" x2="238" y2="170" stroke="#1a1a1a" stroke-width="3" stroke-linecap="round"/>
  <line x1="250" y1="155" x2="270" y2="170" stroke="#1a1a1a" stroke-width="3" stroke-linecap="round"/>
  <line x1="250" y1="185" x2="242" y2="210" stroke="#1a1a1a" stroke-width="3" stroke-linecap="round"/>
  <line x1="250" y1="185" x2="258" y2="210" stroke="#1a1a1a" stroke-width="3" stroke-linecap="round"/>
  <!-- figure 3 -->
  <circle cx="310" cy="135" r="10" fill="#1a1a1a"/>
  <line x1="310" y1="145" x2="310" y2="185" stroke="#1a1a1a" stroke-width="3.5" stroke-linecap="round"/>
  <line x1="310" y1="155" x2="290" y2="170" stroke="#1a1a1a" stroke-width="3" stroke-linecap="round"/>
  <line x1="310" y1="155" x2="322" y2="170" stroke="#1a1a1a" stroke-width="3" stroke-linecap="round"/>
  <line x1="310" y1="185" x2="302" y2="210" stroke="#1a1a1a" stroke-width="3" stroke-linecap="round"/>
  <line x1="310" y1="185" x2="318" y2="210" stroke="#1a1a1a" stroke-width="3" stroke-linecap="round"/>
  <!-- figure 4 -->
  <circle cx="370" cy="135" r="10" fill="#1a1a1a"/>
  <line x1="370" y1="145" x2="370" y2="185" stroke="#1a1a1a" stroke-width="3.5" stroke-linecap="round"/>
  <line x1="370" y1="155" x2="358" y2="170" stroke="#1a1a1a" stroke-width="3" stroke-linecap="round"/>
  <line x1="370" y1="155" x2="390" y2="170" stroke="#1a1a1a" stroke-width="3" stroke-linecap="round"/>
  <line x1="370" y1="185" x2="362" y2="210" stroke="#1a1a1a" stroke-width="3" stroke-linecap="round"/>
  <line x1="370" y1="185" x2="378" y2="210" stroke="#1a1a1a" stroke-width="3" stroke-linecap="round"/>
  <line x1="100" y1="210" x2="410" y2="210" stroke="#D4A843" stroke-width="1.5"/>
  <!-- arrows -->
  <polygon points="110,250 125,245 125,255" fill="#C41E3A"/>
  <line x1="90" y1="250" x2="120" y2="250" stroke="#C41E3A" stroke-width="2"/>
  <polygon points="390,270 375,265 375,275" fill="#C41E3A"/>
  <line x1="410" y1="270" x2="380" y2="270" stroke="#C41E3A" stroke-width="2"/>
  <!-- whistle -->
  <rect x="240" y="275" width="22" height="8" rx="2" fill="#D4A843"/>
  <circle cx="260" cy="279" r="4" fill="#D4A843"/>
  <rect y="310" width="500" height="40" fill="#1a1a1a"/>
  <rect y="308" width="500" height="2" fill="#C41E3A"/>
  <text x="250" y="335" text-anchor="middle" font-family="Arial,sans-serif" font-size="15" font-weight="bold" fill="#D4A843">Физическая культура</text>
</svg>