<svg xmlns="http://www.w3.org/2000/svg" viewBox="0 0 500 350">
  <defs>
    <linearGradient id="bg" x1="0" y1="0" x2="0" y2="1">
      <stop offset="0%" stop-color="#F3E5F5"/>
      <stop offset="100%" stop-color="#FFFFFF"/>
    </linearGradient>
    <linearGradient id="panel" x1="0" y1="0" x2="1" y2="0">
      <stop offset="0%" stop-color="#6A1B9A"/>
      <stop offset="100%" stop-color="#4A148C"/>
    </linearGradient>
    <marker id="arrowBlue" markerWidth="6" markerHeight="4" refX="6" refY="2" orient="auto">
      <polygon points="0,0 6,2 0,4" fill="#6A1B9A"/>
    </marker>
    <marker id="arrowRed" markerWidth="6" markerHeight="4" refX="6" refY="2" orient="auto">
      <polygon points="0,0 6,2 0,4" fill="#E53935"/>
    </marker>
    <marker id="arrowGreen" markerWidth="6" markerHeight="4" refX="6" refY="2" orient="auto">
      <polygon points="0,0 6,2 0,4" fill="#4CAF50"/>
    </marker>
    <marker id="arrowDark" markerWidth="6" markerHeight="4" refX="6" refY="2" orient="auto">
      <polygon points="0,0 6,2 0,4" fill="#333"/>
    </marker>
  </defs>
  <rect width="500" height="350" fill="url(#bg)" rx="10"/>
  <rect x="3" y="3" width="494" height="344" rx="8" fill="none" stroke="#6A1B9A" stroke-width="2.5"/>
  <text x="250" y="48" font-family="Arial,sans-serif" font-size="20" font-weight="bold" fill="#6A1B9A" text-anchor="middle">Определённый интеграл</text>
  <text x="250" y="68" font-family="Arial,sans-serif" font-size="12" fill="#777" text-anchor="middle">Алгебра — Урок 4</text>
  <line x1="30" y1="78" x2="470" y2="78" stroke="#6A1B9A" stroke-width="2" opacity="0.25"/>
  <clipPath id="ill"><rect x="15" y="85" width="470" height="215" rx="6"/></clipPath>
  <g clip-path="url(#ill)">
    <rect x="15" y="85" width="470" height="215" fill="#F3E5F5" opacity="0.5"/>
    <!-- Area under curve -->
    <rect x="25" y="95" width="220" height="135" rx="5" fill="white" opacity="0.7" stroke="#6A1B9A" stroke-width="1"/>
    <text x="135" y="110" font-family="Arial,sans-serif" font-size="10" fill="#4A148C" text-anchor="middle" font-weight="bold">Площадь криволинейной трапеции</text>
    <line x1="35" y1="205" x2="235" y2="205" stroke="#888" stroke-width="0.5"/>
    <line x1="35" y1="205" x2="35" y2="115" stroke="#888" stroke-width="0.5"/>
    <!-- f(x) curve -->
    <path d="M40,185 Q70,140 100,130 Q130,120 160,135 Q190,155 225,145" fill="none" stroke="#6A1B9A" stroke-width="2"/>
    <!-- Shaded area -->
    <path d="M70,205 L70,160 Q90,140 100,130 Q130,120 160,135 Q180,145 190,150 L190,205 Z" fill="#6A1B9A" opacity="0.2"/>
    <!-- a and b markers -->
    <line x1="70" y1="205" x2="70" y2="210" stroke="#E53935" stroke-width="1.5"/>
    <line x1="190" y1="205" x2="190" y2="210" stroke="#E53935" stroke-width="1.5"/>
    <text x="70" y="222" font-family="Arial,sans-serif" font-size="10" fill="#E53935" text-anchor="middle">a</text>
    <text x="190" y="222" font-family="Arial,sans-serif" font-size="10" fill="#E53935" text-anchor="middle">b</text>
    <text x="130" y="175" font-family="Arial,sans-serif" font-size="12" fill="#6A1B9A" text-anchor="middle">S</text>
    <!-- Newton-Leibniz -->
    <rect x="260" y="95" width="215" height="135" rx="3" fill="white" opacity="0.9" stroke="#6A1B9A" stroke-width="1"/>
    <text x="367" y="110" font-family="Arial,sans-serif" font-size="10" fill="#4A148C" text-anchor="middle" font-weight="bold">Формула Ньютона-Лейбница</text>
    <text x="367" y="140" font-family="Arial,sans-serif" font-size="16" fill="#6A1B9A" text-anchor="middle" font-weight="bold">∫ₐᵇ f(x)dx</text>
    <text x="367" y="160" font-family="Arial,sans-serif" font-size="14" fill="#E53935" text-anchor="middle">= F(b) − F(a)</text>
    <line x1="280" y1="170" x2="455" y2="170" stroke="#6A1B9A" stroke-width="0.5"/>
    <text x="367" y="188" font-family="Arial,sans-serif" font-size="9" fill="#4A148C" text-anchor="middle">Свойства:</text>
    <text x="270" y="203" font-family="Arial,sans-serif" font-size="9" fill="#444">∫ₐᵇ f(x)dx = −∫ᵇₐ f(x)dx</text>
    <text x="270" y="218" font-family="Arial,sans-serif" font-size="9" fill="#444">∫ₐᵇ f(x)dx + ∫ᵇᶜ f(x)dx = ∫ₐᶜ f(x)dx</text>
    <!-- Applications -->
    <rect x="20" y="232" width="460" height="64" rx="5" fill="white" opacity="0.9" stroke="#6A1B9A" stroke-width="1"/>
    <text x="30" y="250" font-family="Arial,sans-serif" font-size="11" fill="#4A148C" font-weight="bold">Применения:</text>
    <text x="30" y="267" font-family="Arial,sans-serif" font-size="10" fill="#444">Площадь: S = ∫ₐᵇ f(x)dx</text>
    <text x="220" y="267" font-family="Arial,sans-serif" font-size="10" fill="#444">Объём вращения: V = π∫ₐᵇ f²(x)dx</text>
    <text x="30" y="285" font-family="Arial,sans-serif" font-size="10" fill="#444">Путь: S = ∫₀ᵗ v(t)dt</text>
    <text x="220" y="285" font-family="Arial,sans-serif" font-size="10" fill="#6A1B9A">Работа: A = ∫ₐᵇ F(x)dx</text>
    
  </g>
  <rect x="12" y="305" width="476" height="32" rx="5" fill="url(#panel)"/>
  <text x="250" y="326" font-family="Arial,sans-serif" font-size="15" text-anchor="middle" fill="white" font-weight="bold">Алгебра · 11 класс</text>
</svg>