<svg xmlns="http://www.w3.org/2000/svg" viewBox="0 0 500 350">
  <defs>
    <linearGradient id="bg" x1="0" y1="0" x2="0" y2="1">
      <stop offset="0%" stop-color="#F3E5F5"/>
      <stop offset="100%" stop-color="#FFFFFF"/>
    </linearGradient>
    <linearGradient id="panel" x1="0" y1="0" x2="1" y2="0">
      <stop offset="0%" stop-color="#6A1B9A"/>
      <stop offset="100%" stop-color="#4A148C"/>
    </linearGradient>
    <marker id="arrowBlue" markerWidth="6" markerHeight="4" refX="6" refY="2" orient="auto">
      <polygon points="0,0 6,2 0,4" fill="#6A1B9A"/>
    </marker>
    <marker id="arrowRed" markerWidth="6" markerHeight="4" refX="6" refY="2" orient="auto">
      <polygon points="0,0 6,2 0,4" fill="#E53935"/>
    </marker>
    <marker id="arrowGreen" markerWidth="6" markerHeight="4" refX="6" refY="2" orient="auto">
      <polygon points="0,0 6,2 0,4" fill="#4CAF50"/>
    </marker>
    <marker id="arrowDark" markerWidth="6" markerHeight="4" refX="6" refY="2" orient="auto">
      <polygon points="0,0 6,2 0,4" fill="#333"/>
    </marker>
  </defs>
  <rect width="500" height="350" fill="url(#bg)" rx="10"/>
  <rect x="3" y="3" width="494" height="344" rx="8" fill="none" stroke="#6A1B9A" stroke-width="2.5"/>
  <text x="250" y="48" font-family="Arial,sans-serif" font-size="20" font-weight="bold" fill="#6A1B9A" text-anchor="middle">Обратные тригонометрические функции</text>
  <text x="250" y="68" font-family="Arial,sans-serif" font-size="12" fill="#777" text-anchor="middle">Алгебра — Урок 2</text>
  <line x1="30" y1="78" x2="470" y2="78" stroke="#6A1B9A" stroke-width="2" opacity="0.25"/>
  <clipPath id="ill"><rect x="15" y="85" width="470" height="215" rx="6"/></clipPath>
  <g clip-path="url(#ill)">
    <rect x="15" y="85" width="470" height="215" fill="#F3E5F5" opacity="0.5"/>
    <!-- arcsin graph -->
    <rect x="25" y="95" width="220" height="125" rx="5" fill="white" opacity="0.7" stroke="#6A1B9A" stroke-width="1"/>
    <text x="135" y="110" font-family="Arial,sans-serif" font-size="10" fill="#4A148C" text-anchor="middle" font-weight="bold">y = arcsin(x)</text>
    <line x1="50" y1="160" x2="220" y2="160" stroke="#888" stroke-width="0.5"/>
    <line x1="135" y1="210" x2="135" y2="115" stroke="#888" stroke-width="0.5"/>
    <!-- arcsin curve -->
    <path d="M55,195 Q80,180 100,170 Q120,160 135,150 Q150,140 170,128 Q190,118 215,118" fill="none" stroke="#6A1B9A" stroke-width="2"/>
    <!-- Domain/range markers -->
    <text x="55" y="208" font-family="Arial,sans-serif" font-size="8" fill="#E53935">−1</text>
    <text x="210" y="208" font-family="Arial,sans-serif" font-size="8" fill="#E53935">1</text>
    <text x="140" y="118" font-family="Arial,sans-serif" font-size="8" fill="#E53935">π/2</text>
    <text x="140" y="208" font-family="Arial,sans-serif" font-size="8" fill="#E53935">−π/2</text>
    <!-- arccos graph -->
    <rect x="260" y="95" width="215" height="125" rx="3" fill="white" opacity="0.7" stroke="#6A1B9A" stroke-width="1"/>
    <text x="367" y="110" font-family="Arial,sans-serif" font-size="10" fill="#4A148C" text-anchor="middle" font-weight="bold">y = arccos(x)</text>
    <line x1="280" y1="160" x2="455" y2="160" stroke="#888" stroke-width="0.5"/>
    <line x1="367" y1="210" x2="367" y2="115" stroke="#888" stroke-width="0.5"/>
    <!-- arccos curve -->
    <path d="M285,125 Q310,130 330,140 Q350,150 367,160 Q385,170 405,180 Q425,190 450,200" fill="none" stroke="#E53935" stroke-width="2"/>
    <text x="280" y="208" font-family="Arial,sans-serif" font-size="8" fill="#4A148C">−1</text>
    <text x="445" y="208" font-family="Arial,sans-serif" font-size="8" fill="#4A148C">1</text>
    <!-- Formulas -->
    <rect x="20" y="226" width="225" height="70" rx="5" fill="white" opacity="0.9" stroke="#6A1B9A" stroke-width="1"/>
    <text x="30" y="244" font-family="Arial,sans-serif" font-size="11" fill="#4A148C" font-weight="bold">arcsin:</text>
    <text x="30" y="261" font-family="Arial,sans-serif" font-size="10" fill="#444">D(arcsin) = [−1; 1]</text>
    <text x="30" y="276" font-family="Arial,sans-serif" font-size="10" fill="#444">E(arcsin) = [−π/2; π/2]</text>
    <text x="30" y="291" font-family="Arial,sans-serif" font-size="10" fill="#6A1B9A">arcsin(−x) = −arcsin(x)</text>
    <!-- Right box -->
    <rect x="255" y="226" width="225" height="70" rx="5" fill="white" opacity="0.9" stroke="#6A1B9A" stroke-width="1"/>
    <text x="265" y="244" font-family="Arial,sans-serif" font-size="11" fill="#4A148C" font-weight="bold">arccos / arctg / arcctg:</text>
    <text x="265" y="261" font-family="Arial,sans-serif" font-size="10" fill="#444">E(arccos) = [0; π]</text>
    <text x="265" y="276" font-family="Arial,sans-serif" font-size="10" fill="#444">E(arctg) = (−π/2; π/2)</text>
    <text x="265" y="291" font-family="Arial,sans-serif" font-size="10" fill="#6A1B9A">arccos(−x) = π − arccos(x)</text>
    
  </g>
  <rect x="12" y="305" width="476" height="32" rx="5" fill="url(#panel)"/>
  <text x="250" y="326" font-family="Arial,sans-serif" font-size="15" text-anchor="middle" fill="white" font-weight="bold">Алгебра · 11 класс</text>
</svg>