<svg xmlns="http://www.w3.org/2000/svg" viewBox="0 0 500 350">
<defs>
  <linearGradient id="bg" x1="0%" y1="0%" x2="100%" y2="100%">
    <stop offset="0%" style="stop-color:#1A237E"/>
    <stop offset="100%" style="stop-color:#42A5F5"/>
  </linearGradient>
  <linearGradient id="card" x1="0%" y1="0%" x2="0%" y2="100%">
    <stop offset="0%" style="stop-color:rgba(255,255,255,0.95)"/>
    <stop offset="100%" style="stop-color:rgba(255,255,255,0.85)"/>
  </linearGradient>
</defs>
<rect width="500" height="350" fill="url(#bg)"/>
<line x1="0" y1="0" x2="0" y2="350" stroke="white" stroke-width="0.5" opacity="0.08"/>
<line x1="80" y1="0" x2="80" y2="350" stroke="white" stroke-width="0.5" opacity="0.08"/>
<line x1="160" y1="0" x2="160" y2="350" stroke="white" stroke-width="0.5" opacity="0.08"/>
<line x1="240" y1="0" x2="240" y2="350" stroke="white" stroke-width="0.5" opacity="0.08"/>
<line x1="320" y1="0" x2="320" y2="350" stroke="white" stroke-width="0.5" opacity="0.08"/>
<line x1="400" y1="0" x2="400" y2="350" stroke="white" stroke-width="0.5" opacity="0.08"/>
<line x1="480" y1="0" x2="480" y2="350" stroke="white" stroke-width="0.5" opacity="0.08"/>
<line x1="0" y1="0" x2="500" y2="0" stroke="white" stroke-width="0.5" opacity="0.08"/>
<line x1="0" y1="80" x2="500" y2="80" stroke="white" stroke-width="0.5" opacity="0.08"/>
<line x1="0" y1="160" x2="500" y2="160" stroke="white" stroke-width="0.5" opacity="0.08"/>
<line x1="0" y1="240" x2="500" y2="240" stroke="white" stroke-width="0.5" opacity="0.08"/>
<line x1="0" y1="320" x2="500" y2="320" stroke="white" stroke-width="0.5" opacity="0.08"/>
<rect x="20" y="50" width="460" height="270" rx="16" fill="url(#card)" opacity="0.92"/>
<rect x="30" y="60" width="auto" height="24" rx="12" fill="#1A237E" opacity="0.9"/>
<rect x="30" y="60" width="108" height="24" rx="12" fill="#1A237E" opacity="0.9"/>
<text x="84" y="77" text-anchor="middle" font-family="Arial,sans-serif" font-size="11" fill="white" font-weight="bold">Информатика</text>
<text x="470" y="77" text-anchor="end" font-family="Arial,sans-serif" font-size="11" fill="#1A237E" font-weight="bold">Урок 3</text>
<text x="40" y="105" font-family="Arial,sans-serif" font-size="18" fill="#1a1a1a" font-weight="bold">Специальные клавиши</text>
<line x1="40" y1="115" x2="460" y2="115" stroke="#BBDEFB" stroke-width="2"/>
<text x="40" y="135" font-family="Arial,sans-serif" font-size="13" fill="#444">Изучаем дополнительные функции клавиш.</text>
<text x="40" y="155" font-family="Arial,sans-serif" font-size="11" fill="#1A237E" font-weight="bold">Ключевые темы:</text>
<circle cx="48" cy="175" r="9" fill="#1A237E" opacity="0.15"/>
<text x="48" y="179" text-anchor="middle" font-family="Arial,sans-serif" font-size="10" fill="#1A237E" font-weight="bold">1</text>
<text x="64" y="179" font-family="Arial,sans-serif" font-size="11" fill="#444">Использовать Shift для заглавных букв</text>
<circle cx="48" cy="199" r="9" fill="#1A237E" opacity="0.15"/>
<text x="48" y="203" text-anchor="middle" font-family="Arial,sans-serif" font-size="10" fill="#1A237E" font-weight="bold">2</text>
<text x="64" y="203" font-family="Arial,sans-serif" font-size="11" fill="#444">Применять Backspace и Delete</text>
<circle cx="48" cy="223" r="9" fill="#1A237E" opacity="0.15"/>
<text x="48" y="227" text-anchor="middle" font-family="Arial,sans-serif" font-size="10" fill="#1A237E" font-weight="bold">3</text>
<text x="64" y="227" font-family="Arial,sans-serif" font-size="11" fill="#444">Освоить комбинации с Ctrl</text>
<circle cx="460" cy="310" r="25" fill="#1A237E" opacity="0.15"/>
<circle cx="460" cy="310" r="15" fill="#1A237E" opacity="0.1"/>
</svg>