<svg xmlns="http://www.w3.org/2000/svg" viewBox="0 0 500 350">
  <defs>
    <linearGradient id="bg" x1="0" y1="0" x2="0" y2="1">
      <stop offset="0%" stop-color="#FFF8E1"/>
      <stop offset="100%" stop-color="#FFFDE7"/>
    </linearGradient>
    <linearGradient id="panel" x1="0" y1="0" x2="1" y2="0">
      <stop offset="0%" stop-color="#B71C1C"/>
      <stop offset="100%" stop-color="#C62828"/>
    </linearGradient>
  </defs>
  <rect width="500" height="350" fill="url(#bg)" rx="10"/>
  <rect x="3" y="3" width="494" height="344" rx="8" fill="none" stroke="#C62828" stroke-width="3"/>
  <rect x="8" y="8" width="484" height="334" rx="6" fill="none" stroke="#C62828" stroke-width="1" opacity="0.3"/>
  <!-- Bauhaus corner accents -->
  <polygon points="10,10 30,10 10,30" fill="#C62828" opacity="0.12"/>
  <polygon points="490,10 470,10 490,30" fill="#1565C0" opacity="0.12"/>
  <polygon points="10,340 30,340 10,320" fill="#F9A825" opacity="0.12"/>
  <polygon points="490,340 470,340 490,320" fill="#2E7D32" opacity="0.12"/>
  <!-- Title -->
  <text x="250" y="48" font-family="Arial,sans-serif" font-size="24" font-weight="bold" fill="#1565C0" text-anchor="middle">Writing</text>
  <text x="250" y="68" font-family="Arial,sans-serif" font-size="12" fill="#777" text-anchor="middle">Иностранный язык - Урок 14</text>
  <line x1="30" y1="78" x2="470" y2="78" stroke="#1565C0" stroke-width="2" opacity="0.25"/>
  <rect x="30" y="75" width="60" height="5" fill="#1565C0" opacity="0.18" rx="1"/>
  <rect x="410" y="75" width="60" height="5" fill="#1565C0" opacity="0.12" rx="1"/>
  <!-- ILLUSTRATION AREA: x=15..485, y=85..300 -->
  <clipPath id="ill"><rect x="15" y="85" width="470" height="215" rx="6"/></clipPath>
  <g clip-path="url(#ill)">
  <rect x="15" y="85" width="470" height="215" fill="#E3F2FD"/><rect x="150" y="110" width="200" height="140" rx="5" fill="white" stroke="#1565C0" stroke-width="1.5"/><line x1="170" y1="130" x2="330" y2="130" stroke="#ddd" stroke-width="1"/><line x1="170" y1="145" x2="330" y2="145" stroke="#ddd" stroke-width="1"/><line x1="170" y1="160" x2="330" y2="160" stroke="#ddd" stroke-width="1"/><line x1="170" y1="175" x2="330" y2="175" stroke="#ddd" stroke-width="1"/><line x1="170" y1="190" x2="330" y2="190" stroke="#ddd" stroke-width="1"/><line x1="170" y1="205" x2="280" y2="205" stroke="#ddd" stroke-width="1"/><text x="250" y="145" font-family="Arial" font-size="11" fill="#333">Dear friend,</text><text x="250" y="175" font-family="Arial" font-size="11" fill="#333">How are you? I am writing...</text><text x="250" y="195" font-family="Arial" font-size="11" fill="#333">Best wishes, Alex</text><text x="250" y="280" font-family="Arial,sans-serif" font-size="12" fill="#1565C0" text-anchor="middle" font-weight="bold">Essay / Letter Writing</text>
  </g>
  <!-- Bottom panel -->
  <rect x="12" y="305" width="476" height="32" rx="5" fill="url(#panel)"/>
  <line x1="20" y1="308" x2="20" y2="334" stroke="#F9A825" stroke-width="1.5" opacity="0.6"/>
  <line x1="480" y1="308" x2="480" y2="334" stroke="#F9A825" stroke-width="1.5" opacity="0.6"/>
  <text x="250" y="326" font-family="Arial,sans-serif" font-size="15" text-anchor="middle" fill="white" font-weight="bold">Иностранный язык</text>
</svg>