<svg xmlns="http://www.w3.org/2000/svg" viewBox="0 0 500 350">
  <defs>
    <linearGradient id="bg" x1="0" y1="0" x2="0" y2="1">
      <stop offset="0%" stop-color="#FFF8E1"/>
      <stop offset="100%" stop-color="#FFFDE7"/>
    </linearGradient>
    <linearGradient id="panel" x1="0" y1="0" x2="1" y2="0">
      <stop offset="0%" stop-color="#B71C1C"/>
      <stop offset="100%" stop-color="#C62828"/>
    </linearGradient>
  </defs>
  <rect width="500" height="350" fill="url(#bg)" rx="10"/>
  <rect x="3" y="3" width="494" height="344" rx="8" fill="none" stroke="#C62828" stroke-width="3"/>
  <rect x="8" y="8" width="484" height="334" rx="6" fill="none" stroke="#C62828" stroke-width="1" opacity="0.3"/>
  <!-- Bauhaus corner accents -->
  <polygon points="10,10 30,10 10,30" fill="#C62828" opacity="0.12"/>
  <polygon points="490,10 470,10 490,30" fill="#1565C0" opacity="0.12"/>
  <polygon points="10,340 30,340 10,320" fill="#F9A825" opacity="0.12"/>
  <polygon points="490,340 470,340 490,320" fill="#2E7D32" opacity="0.12"/>
  <!-- Title -->
  <text x="250" y="48" font-family="Arial,sans-serif" font-size="24" font-weight="bold" fill="#1565C0" text-anchor="middle">Экономика общества</text>
  <text x="250" y="68" font-family="Arial,sans-serif" font-size="12" fill="#777" text-anchor="middle">Обществознание - Урок 5</text>
  <line x1="30" y1="78" x2="470" y2="78" stroke="#1565C0" stroke-width="2" opacity="0.25"/>
  <rect x="30" y="75" width="60" height="5" fill="#1565C0" opacity="0.18" rx="1"/>
  <rect x="410" y="75" width="60" height="5" fill="#1565C0" opacity="0.12" rx="1"/>
  <!-- ILLUSTRATION AREA: x=15..485, y=85..300 -->
  <clipPath id="ill"><rect x="15" y="85" width="470" height="215" rx="6"/></clipPath>
  <g clip-path="url(#ill)">
  <rect x="15" y="85" width="470" height="215" fill="#E8F5E9"/><g transform="translate(200,180) scale(1.0)"><line x1="-30" y1="25" x2="35" y2="25" stroke="#333" stroke-width="1.5"/><line x1="-30" y1="25" x2="-30" y2="-25" stroke="#333" stroke-width="1.5"/><rect x="-28.0" y="-7.142857142857146" width="10.5" height="32.142857142857146" fill="#C62828" rx="1"/><rect x="-15.5" y="-20.0" width="10.5" height="45.0" fill="#1565C0" rx="1"/><rect x="-3.0" y="-0.7142857142857117" width="10.5" height="25.71428571428571" fill="#2E7D32" rx="1"/><rect x="9.5" y="-13.57142857142857" width="10.5" height="38.57142857142857" fill="#F9A825" rx="1"/></g><g transform="translate(380,170) scale(0.8)"><ellipse cx="0" cy="-15" rx="18" ry="5" fill="#F9A825" stroke="#F57F17" stroke-width="1"/><ellipse cx="0" cy="-9" rx="18" ry="5" fill="#FFB300" stroke="#F57F17" stroke-width="1"/><ellipse cx="0" cy="-3" rx="18" ry="5" fill="#FFC107" stroke="#F57F17" stroke-width="1"/><ellipse cx="0" cy="3" rx="18" ry="5" fill="#FFD54F" stroke="#F57F17" stroke-width="1"/><text x="0" y="-10" font-family="Arial" font-size="14" fill="#F57F17" text-anchor="middle" font-weight="bold">$</text></g><g transform="translate(100,160) scale(0.7)"><circle cx="0" cy="0" r="15" fill="#F57F17" opacity="0.8"/><circle cx="0" cy="0" r="6" fill="white"/><rect x="8.0" y="-4.0" width="8" height="8" fill="#F57F17" transform="rotate(0,12.0,0.0)"/><rect x="6.392304845413264" y="1.9999999999999991" width="8" height="8" fill="#F57F17" transform="rotate(30,10.392304845413264,5.999999999999999)"/><rect x="2.0000000000000018" y="6.392304845413264" width="8" height="8" fill="#F57F17" transform="rotate(60,6.000000000000002,10.392304845413264)"/><rect x="-3.999999999999999" y="8.0" width="8" height="8" fill="#F57F17" transform="rotate(90,7.347880794884119e-16,12.0)"/><rect x="-9.999999999999996" y="6.392304845413264" width="8" height="8" fill="#F57F17" transform="rotate(120,-5.999999999999997,10.392304845413264)"/><rect x="-14.392304845413264" y="1.9999999999999991" width="8" height="8" fill="#F57F17" transform="rotate(150,-10.392304845413264,5.999999999999999)"/><rect x="-16.0" y="-3.9999999999999987" width="8" height="8" fill="#F57F17" transform="rotate(180,-12.0,1.4695761589768238e-15)"/><rect x="-14.392304845413264" y="-10.000000000000002" width="8" height="8" fill="#F57F17" transform="rotate(210,-10.392304845413264,-6.000000000000002)"/><rect x="-10.000000000000005" y="-14.39230484541326" width="8" height="8" fill="#F57F17" transform="rotate(240,-6.000000000000005,-10.39230484541326)"/><rect x="-4.000000000000002" y="-16.0" width="8" height="8" fill="#F57F17" transform="rotate(270,-2.204364238465236e-15,-12.0)"/><rect x="2.0000000000000018" y="-14.392304845413264" width="8" height="8" fill="#F57F17" transform="rotate(300,6.000000000000002,-10.392304845413264)"/><rect x="6.3923048454132605" y="-10.000000000000005" width="8" height="8" fill="#F57F17" transform="rotate(330,10.39230484541326,-6.000000000000005)"/></g>
  </g>
  <!-- Bottom panel -->
  <rect x="12" y="305" width="476" height="32" rx="5" fill="url(#panel)"/>
  <line x1="20" y1="308" x2="20" y2="334" stroke="#F9A825" stroke-width="1.5" opacity="0.6"/>
  <line x1="480" y1="308" x2="480" y2="334" stroke="#F9A825" stroke-width="1.5" opacity="0.6"/>
  <text x="250" y="326" font-family="Arial,sans-serif" font-size="15" text-anchor="middle" fill="white" font-weight="bold">Обществознание</text>
</svg>