<svg xmlns="http://www.w3.org/2000/svg" viewBox="0 0 500 350">
  <defs>
    <linearGradient id="bge5cf1152" x1="0%" y1="0%" x2="100%" y2="100%">
      <stop offset="0%" style="stop-color:#E8F5E9;stop-opacity:0.6"/>
      <stop offset="100%" style="stop-color:#C8E6C9;stop-opacity:0.3"/>
    </linearGradient>
  </defs>
  <rect width="500" height="350" fill="url(#bge5cf1152)"/>
  <rect width="500" height="350" fill="#E8F5E9" opacity="0.2"/>
  
  <!-- Title -->
  <text x="250" y="38" font-family="Arial, sans-serif" font-size="22" font-weight="bold" fill="#2E7D32" text-anchor="middle">Упражнения с предметами</text>
  <rect x="80" y="46" width="340" height="2.5" rx="1" fill="#2E7D32" opacity="0.4"/>
  
  <!-- Scene -->
  <circle cx="200" cy="162.5" r="12.0" fill="#FFCCBC"/>
<path d="M188.0,158.0 Q200,147.5 212.0,158.0" fill="#5D4037"/>
<rect x="188.0" y="182.0" width="24.0" height="45.0" rx="3" fill="#2E7D32"/>
<line x1="188.0" y1="192.5" x2="173.0" y2="227.0" stroke="#FFCCBC" stroke-width="4" stroke-linecap="round"/>
<line x1="212.0" y1="192.5" x2="227.0" y2="227.0" stroke="#FFCCBC" stroke-width="4" stroke-linecap="round"/>
<line x1="194.0" y1="227.0" x2="191.0" y2="282.5" stroke="#333" stroke-width="6" stroke-linecap="round"/>
<line x1="206.0" y1="227.0" x2="209.0" y2="282.5" stroke="#333" stroke-width="6" stroke-linecap="round"/>
<ellipse cx="191.0" cy="285.5" rx="6" ry="3" fill="#333"/>
<ellipse cx="209.0" cy="285.5" rx="6" ry="3" fill="#333"/>
<rect x="342.0" y="237.0" width="36.0" height="6" rx="3" fill="#78909C"/>
<rect x="330" y="228.0" width="12.0" height="24.0" rx="3" fill="#455A64"/>
<rect x="378.0" y="228.0" width="12.0" height="24.0" rx="3" fill="#455A64"/>
  
  <!-- Caption -->
  <text x="250" y="335" font-family="Arial, sans-serif" font-size="14" fill="#1B5E20" text-anchor="middle" font-style="italic">Физическая культура</text>
  
  <ellipse cx="250" cy="310" rx="220" ry="15" fill="#2E7D32" opacity="0.06"/>
</svg>