<svg xmlns="http://www.w3.org/2000/svg" viewBox="0 0 500 350">
  <defs>
    <linearGradient id="bg" x1="0" y1="0" x2="0" y2="1">
      <stop offset="0%" stop-color="#E3F2FD"/>
      <stop offset="100%" stop-color="#FFFFFF"/>
    </linearGradient>
  </defs>
  <rect width="500" height="350" fill="url(#bg)" rx="10"/>
  <rect x="3" y="3" width="494" height="344" rx="8" fill="none" stroke="#1565C0" stroke-width="2.5"/>
  <text x="250" y="38" font-family="Arial,sans-serif" font-size="19" font-weight="bold" fill="#1565C0" text-anchor="middle">Угрозы информационной безопасности</text>
  <text x="250" y="56" font-family="Arial,sans-serif" font-size="11" fill="#888888" text-anchor="middle">Информатика — Урок 11</text>
  <line x1="30" y1="64" x2="470" y2="64" stroke="#1565C0" stroke-width="2" opacity="0.25"/>
  <rect x="20" y="72" width="460" height="32" rx="5" fill="white" stroke="#C62828" stroke-width="1"/>
  <rect x="20" y="72" width="8" height="32" rx="3" fill="#C62828" opacity="0.6"/>
  <text x="35" y="86" font-family="Arial,sans-serif" font-size="10" fill="#C62828" text-anchor="start" font-weight="bold">Вирусы</text>
  <text x="180" y="86" font-family="Arial,sans-serif" font-size="9" fill="#333333" text-anchor="start" font-weight="normal">Программы, заражающие другие файлы</text>
  <rect x="20" y="108" width="460" height="32" rx="5" fill="white" stroke="#E65100" stroke-width="1"/>
  <rect x="20" y="108" width="8" height="32" rx="3" fill="#E65100" opacity="0.6"/>
  <text x="35" y="122" font-family="Arial,sans-serif" font-size="10" fill="#E65100" text-anchor="start" font-weight="bold">Трояны</text>
  <text x="180" y="122" font-family="Arial,sans-serif" font-size="9" fill="#333333" text-anchor="start" font-weight="normal">Скрытые программы для кражи данных</text>
  <rect x="20" y="144" width="460" height="32" rx="5" fill="white" stroke="#6A1B9A" stroke-width="1"/>
  <rect x="20" y="144" width="8" height="32" rx="3" fill="#6A1B9A" opacity="0.6"/>
  <text x="35" y="158" font-family="Arial,sans-serif" font-size="10" fill="#6A1B9A" text-anchor="start" font-weight="bold">Фишинг</text>
  <text x="180" y="158" font-family="Arial,sans-serif" font-size="9" fill="#333333" text-anchor="start" font-weight="normal">Мошеннические сайты и письма</text>
  <rect x="20" y="180" width="460" height="32" rx="5" fill="white" stroke="#1565C0" stroke-width="1"/>
  <rect x="20" y="180" width="8" height="32" rx="3" fill="#1565C0" opacity="0.6"/>
  <text x="35" y="194" font-family="Arial,sans-serif" font-size="10" fill="#1565C0" text-anchor="start" font-weight="bold">DDoS-атаки</text>
  <text x="180" y="194" font-family="Arial,sans-serif" font-size="9" fill="#333333" text-anchor="start" font-weight="normal">Перегрузка сервера запросами</text>
  <rect x="20" y="216" width="460" height="32" rx="5" fill="white" stroke="#00695C" stroke-width="1"/>
  <rect x="20" y="216" width="8" height="32" rx="3" fill="#00695C" opacity="0.6"/>
  <text x="35" y="230" font-family="Arial,sans-serif" font-size="10" fill="#00695C" text-anchor="start" font-weight="bold">Социальная инженерия</text>
  <text x="180" y="230" font-family="Arial,sans-serif" font-size="9" fill="#333333" text-anchor="start" font-weight="normal">Манипуляция людьми</text>
  <rect x="20" y="256" width="460" height="50" rx="5" fill="#C62828" opacity="0.06"/>
  <text x="250" y="274" font-family="Arial,sans-serif" font-size="11" fill="#C62828" text-anchor="middle" font-weight="bold">Правила безопасности:</text>
  <text x="250" y="292" font-family="Arial,sans-serif" font-size="8" fill="#555555" text-anchor="middle" font-weight="normal">Антивирус · Обновления · Сложные пароли · Резервное копирование · Не открывать подозрительные ссылки</text>
  <ellipse cx="250" cy="330" rx="200" ry="10" fill="#1565C0" opacity="0.06"/>
  <text x="250" y="340" font-family="Arial,sans-serif" font-size="11" fill="#1565C0" text-anchor="middle" font-style="italic">Информатика · 10 класс</text>
</svg>