<svg xmlns="http://www.w3.org/2000/svg" viewBox="0 0 500 350">
<defs><linearGradient id="bg" x1="0" y1="0" x2="1" y2="1"><stop offset="0%" stop-color="#E8F5E9"/><stop offset="100%" stop-color="#C8E6C9"/></linearGradient></defs>
<rect width="500" height="350" fill="url(#bg)" rx="10"/>
<rect x="3" y="3" width="494" height="344" rx="8" fill="none" stroke="#2E7D32" stroke-width="2.5"/>
<text x="250" y="30" font-family="Arial,sans-serif" font-size="14" font-weight="bold" fill="#2E7D32" text-anchor="middle">Общая характеристика рыб</text>
<text x="250" y="46" font-family="Arial,sans-serif" font-size="10" fill="#888" text-anchor="middle">Биология 7 класс — Урок 16</text>
<line x1="30" y1="52" x2="470" y2="52" stroke="#2E7D32" stroke-width="1.5" opacity="0.25"/>

<g transform="translate(250,170)">
<ellipse cx="0" cy="0" rx="70" ry="28" fill="#64B5F6" stroke="#1565C0" stroke-width="2"/>
<path d="M70,0 L95,-18 L95,18Z" fill="#64B5F6" stroke="#1565C0" stroke-width="1.5"/>
<path d="M0,-28 L-10,-50 L10,-50Z" fill="#42A5F5" stroke="#1565C0" stroke-width="1"/>
<path d="M-30,-25 L-35,-40 L-22,-35Z" fill="#42A5F5" stroke="#1565C0" stroke-width="1"/>
<path d="M-40,-15 L-48,-25 L-48,-5Z" fill="#42A5F5" stroke="#1565C0" stroke-width="1"/>
<circle cx="-52" cy="-5" r="5" fill="white" stroke="#1565C0" stroke-width="1"/>
<circle cx="-52" cy="-5" r="2.5" fill="#333"/>
<path d="M-38,0 Q-30,5 -20,2" stroke="#1565C0" stroke-width="1" fill="none"/>
<line x1="-60" y1="0" x2="-60" y2="8" stroke="#1565C0" stroke-width="0.5"/>
<path d="M-30,20 L-28,25 L-20,22" stroke="#90CAF9" stroke-width="0.8" fill="none"/>
<path d="M-10,22 L-8,27 L0,24" stroke="#90CAF9" stroke-width="0.8" fill="none"/>
<path d="M10,22 L12,27 L20,24" stroke="#90CAF9" stroke-width="0.8" fill="none"/>
<path d="M30,20 L32,25 L38,22" stroke="#90CAF9" stroke-width="0.8" fill="none"/>
<path d="M-20,-2 Q-15,-5 -5,-2" stroke="#BBDEFB" stroke-width="0.5" fill="none"/>
<path d="M5,-2 Q15,-5 25,-2" stroke="#BBDEFB" stroke-width="0.5" fill="none"/>
<text x="0" y="45" font-family="Arial,sans-serif" font-size="8" fill="#1565C0" text-anchor="middle" font-weight="bold">Рыба</text>
</g>
<g transform="translate(85,260)">
<rect x="-40" y="-15" width="80" height="30" rx="5" fill="#BBDEFB" stroke="#1565C0" stroke-width="1"/>
<text x="0" y="-2" font-family="Arial,sans-serif" font-size="6" fill="#1565C0" text-anchor="middle" font-weight="bold">Жабры</text>
<path d="M-20,5 Q-10,0 0,5 Q10,0 20,5" stroke="#1565C0" stroke-width="1" fill="none"/>
</g>
<g transform="translate(250,260)">
<rect x="-45" y="-15" width="90" height="30" rx="5" fill="#BBDEFB" stroke="#1565C0" stroke-width="1"/>
<text x="0" y="-2" font-family="Arial,sans-serif" font-size="6" fill="#1565C0" text-anchor="middle" font-weight="bold">Боковая линия</text>
<line x1="-35" y1="6" x2="35" y2="6" stroke="#1565C0" stroke-width="1.5" stroke-dasharray="4,2"/>
</g>
<g transform="translate(415,260)">
<rect x="-35" y="-15" width="70" height="30" rx="5" fill="#BBDEFB" stroke="#1565C0" stroke-width="1"/>
<text x="0" y="-2" font-family="Arial,sans-serif" font-size="6" fill="#1565C0" text-anchor="middle" font-weight="bold">Чешуя</text>
<path d="M-15,5 L-5,-2 L5,5 L15,-2" stroke="#1565C0" stroke-width="1" fill="none"/>
</g>
<rect x="30" y="295" width="440" height="18" rx="5" fill="white" stroke="#2E7D32" stroke-width="1" opacity="0.9"/>
<text x="250" y="309" font-family="Arial,sans-serif" font-size="7" fill="#555" text-anchor="middle">Водный образ жизни | Жабры | Двухкамерное сердце | Один круг кровообращения | Холоднокровные</text>

<rect x="10" y="325" width="480" height="20" rx="4" fill="#2E7D32" opacity="0.85"/>
<text x="250" y="339" font-family="Arial,sans-serif" font-size="11" text-anchor="middle" fill="white" font-weight="bold">Биология 7 класс</text>
</svg>