<svg xmlns="http://www.w3.org/2000/svg" viewBox="0 0 500 350">
<defs><linearGradient id="bg" x1="0" y1="0" x2="1" y2="1"><stop offset="0%" stop-color="#E8F5E9"/><stop offset="100%" stop-color="#C8E6C9"/></linearGradient></defs>
<rect width="500" height="350" fill="url(#bg)" rx="10"/>
<rect x="3" y="3" width="494" height="344" rx="8" fill="none" stroke="#2E7D32" stroke-width="2.5"/>
<text x="250" y="30" font-family="Arial,sans-serif" font-size="14" font-weight="bold" fill="#2E7D32" text-anchor="middle">Ракообразные</text>
<text x="250" y="46" font-family="Arial,sans-serif" font-size="10" fill="#888" text-anchor="middle">Биология 7 класс — Урок 12</text>
<line x1="30" y1="52" x2="470" y2="52" stroke="#2E7D32" stroke-width="1.5" opacity="0.25"/>

<g transform="translate(200,170)">
<ellipse cx="0" cy="-12" rx="32" ry="22" fill="#E53935" opacity="0.7" stroke="#B71C1C" stroke-width="2"/>
<path d="M0,-35 L-4,-30 L4,-30Z" fill="#C62828" stroke="#B71C1C" stroke-width="1"/>
<circle cx="-12" cy="-26" r="3.5" fill="#333" stroke="#000" stroke-width="0.5"/>
<circle cx="12" cy="-26" r="3.5" fill="#333" stroke="#000" stroke-width="0.5"/>
<g transform="translate(-36,-8)"><path d="M0,0 L-13,-8 L-22,-4 L-17,4 L-8,2Z" fill="#EF5350" stroke="#B71C1C" stroke-width="1.5"/><path d="M0,0 L-13,8 L-22,4 L-17,-4 L-8,-2Z" fill="#EF5350" stroke="#B71C1C" stroke-width="1.5"/></g>
<g transform="translate(36,-8)"><path d="M0,0 L13,-8 L22,-4 L17,4 L8,2Z" fill="#EF5350" stroke="#B71C1C" stroke-width="1.5"/><path d="M0,0 L13,8 L22,4 L17,-4 L8,-2Z" fill="#EF5350" stroke="#B71C1C" stroke-width="1.5"/></g>
<path d="M-18,8 L-20,16 L-16,22 L-12,26 L-6,28 L0,30 L6,28 L12,26 L16,22 L20,16 L18,8" fill="#C62828" stroke="#B71C1C" stroke-width="1.5"/>
<line x1="-12" y1="12" x2="12" y2="12" stroke="#B71C1C" stroke-width="0.5"/>
<line x1="-14" y1="18" x2="14" y2="18" stroke="#B71C1C" stroke-width="0.5"/>
<line x1="-12" y1="24" x2="12" y2="24" stroke="#B71C1C" stroke-width="0.5"/>
<path d="M-26,4 L-36,16" stroke="#C62828" stroke-width="1.5"/>
<path d="M-24,8 L-34,22" stroke="#C62828" stroke-width="1.5"/>
<path d="M26,4 L36,16" stroke="#C62828" stroke-width="1.5"/>
<path d="M24,8 L34,22" stroke="#C62828" stroke-width="1.5"/>
<path d="M-8,-34 Q-20,-48 -16,-55" stroke="#C62828" stroke-width="1.5" fill="none"/>
<path d="M8,-34 Q20,-48 16,-55" stroke="#C62828" stroke-width="1.5" fill="none"/>
</g>
<g transform="translate(420,220)">
<text x="0" y="-20" font-family="Arial,sans-serif" font-size="7" fill="#1565C0" text-anchor="middle" font-weight="bold">Жабры</text>
<path d="M-12,-12 Q-16,-4 -12,4 Q-8,8 -12,12" stroke="#1565C0" stroke-width="1.5" fill="none"/>
<path d="M-2,-12 Q-6,-4 -2,4 Q2,8 -2,12" stroke="#1565C0" stroke-width="1.5" fill="none"/>
<path d="M8,-12 Q4,-4 8,4 Q12,8 8,12" stroke="#1565C0" stroke-width="1.5" fill="none"/>
<text x="0" y="28" font-family="Arial,sans-serif" font-size="6" fill="#666" text-anchor="middle">Под карапаксом</text>
</g>
<rect x="30" y="290" width="440" height="22" rx="5" fill="white" stroke="#2E7D32" stroke-width="1" opacity="0.9"/>
<text x="250" y="304" font-family="Arial,sans-serif" font-size="7" fill="#555" text-anchor="middle">5 пар ходильных ног | Клешни | Жабры | Зелёные железы | Антенны и антеннулы</text>

<rect x="10" y="325" width="480" height="20" rx="4" fill="#2E7D32" opacity="0.85"/>
<text x="250" y="339" font-family="Arial,sans-serif" font-size="11" text-anchor="middle" fill="white" font-weight="bold">Биология 7 класс</text>
</svg>