<svg xmlns="http://www.w3.org/2000/svg" viewBox="0 0 500 350">
  <defs>
    <linearGradient id="bg" x1="0" y1="0" x2="1" y2="1">
      <stop offset="0%" stop-color="#E8F5E9"/>
      <stop offset="100%" stop-color="#C8E6C9"/>
    </linearGradient>
  </defs>
  <rect width="500" height="350" fill="url(#bg)" rx="10"/>
  <rect x="3" y="3" width="494" height="344" rx="8" fill="none" stroke="#2E7D32" stroke-width="3"/>
  <rect x="8" y="8" width="484" height="334" rx="6" fill="none" stroke="#2E7D32" stroke-width="1" opacity="0.3"/>
  <text x="250" y="50" font-family="Arial,sans-serif" font-size="18" font-weight="bold" fill="#2E7D32" text-anchor="middle">Медузы и кораллы</text>
  <text x="250" y="68" font-family="Arial,sans-serif" font-size="12" fill="#777" text-anchor="middle">Биология 7 класс - Урок 5</text>
  <line x1="30" y1="78" x2="470" y2="78" stroke="#2E7D32" stroke-width="2" opacity="0.25"/>
  
  <rect x="30" y="90" width="210" height="200" rx="6" fill="white" stroke="#1565C0" stroke-width="1.5"/>
  <text x="135" y="108" font-family="Arial,sans-serif" font-size="10" fill="#1565C0" font-weight="bold" text-anchor="middle">Медуза</text>
  <ellipse cx="135" cy="155" rx="60" ry="30" fill="#BBDEFB" stroke="#1565C0" stroke-width="2"/>
  <line x1="100" y1="180" x2="95" y2="230" stroke="#1565C0" stroke-width="1"/>
  <line x1="115" y1="182" x2="110" y2="235" stroke="#1565C0" stroke-width="1"/>
  <line x1="130" y1="183" x2="130" y2="240" stroke="#1565C0" stroke-width="1"/>
  <line x1="145" y1="182" x2="145" y2="235" stroke="#1565C0" stroke-width="1"/>
  <line x1="160" y1="180" x2="165" y2="230" stroke="#1565C0" stroke-width="1"/>
  <text x="135" y="255" font-family="Arial,sans-serif" font-size="7" fill="#333" text-anchor="middle">щупальца</text>
  <text x="135" y="150" font-family="Arial,sans-serif" font-size="7" fill="#1565C0" text-anchor="middle">купол</text>
  <rect x="260" y="90" width="210" height="200" rx="6" fill="white" stroke="#E53935" stroke-width="1.5"/>
  <text x="365" y="108" font-family="Arial,sans-serif" font-size="10" fill="#E53935" font-weight="bold" text-anchor="middle">Коралловый полип</text>
  <rect x="330" y="130" width="20" height="80" fill="#FFCDD2" stroke="#E53935" stroke-width="1.5"/>
  <ellipse cx="340" cy="125" rx="30" ry="15" fill="#FFEBEE" stroke="#E53935" stroke-width="1.5"/>
  <line x1="310" y1="125" x2="290" y2="115" stroke="#E53935" stroke-width="1"/>
  <line x1="320" y1="120" x2="305" y2="105" stroke="#E53935" stroke-width="1"/>
  <line x1="360" y1="120" x2="375" y2="105" stroke="#E53935" stroke-width="1"/>
  <line x1="370" y1="125" x2="390" y2="115" stroke="#E53935" stroke-width="1"/>
  <rect x="320" y="210" width="90" height="60" rx="4" fill="#FFE0B2" stroke="#E65100" stroke-width="1"/>
  <text x="365" y="240" font-family="Arial,sans-serif" font-size="7" fill="#E65100" text-anchor="middle">известковый</text>
  <text x="365" y="252" font-family="Arial,sans-serif" font-size="7" fill="#E65100" text-anchor="middle">скелет</text>
  
  <rect x="15" y="310" width="470" height="30" rx="4" fill="#2E7D32" opacity="0.85"/>
  <text x="250" y="330" font-family="Arial,sans-serif" font-size="15" text-anchor="middle" fill="white" font-weight="bold">Биология 7 класс</text>
</svg>