<svg xmlns="http://www.w3.org/2000/svg" viewBox="0 0 500 350"><defs><linearGradient id="bg" x1="0" y1="0" x2="1" y2="1"><stop offset="0%" stop-color="#FFF8E1"/><stop offset="100%" stop-color="#FFFDE7"/></linearGradient></defs><rect width="500" height="350" fill="url(#bg)" rx="10"/><rect x="3" y="3" width="494" height="344" rx="8" fill="none" stroke="#C62828" stroke-width="3"/><rect x="8" y="8" width="484" height="334" rx="6" fill="none" stroke="#C62828" stroke-width="1" opacity="0.3"/><polygon points="10,10 30,10 10,30" fill="#C62828" opacity="0.08"/><polygon points="490,10 470,10 490,30" fill="#1565C0" opacity="0.08"/><polygon points="10,340 30,340 10,320" fill="#F9A825" opacity="0.08"/><polygon points="490,340 470,340 490,320" fill="#2E7D32" opacity="0.08"/><circle cx="70" cy="15" r="4" fill="#C62828" opacity="0.1"/><circle cx="82" cy="15" r="4" fill="#1565C0" opacity="0.1"/><circle cx="94" cy="15" r="4" fill="#F9A825" opacity="0.1"/><circle cx="406" cy="15" r="4" fill="#C62828" opacity="0.1"/><circle cx="418" cy="15" r="4" fill="#1565C0" opacity="0.1"/><circle cx="430" cy="15" r="4" fill="#F9A825" opacity="0.1"/><text x="250" y="50" font-family="Arial,sans-serif" font-size="24" font-weight="bold" fill="#C62828" text-anchor="middle">Виды компьютерной графики</text><text x="250" y="68" font-family="Arial,sans-serif" font-size="12" fill="#777" text-anchor="middle">Информатика - Урок 9</text><line x1="30" y1="78" x2="470" y2="78" stroke="#C62828" stroke-width="2" opacity="0.25"/><rect x="30" y="75" width="60" height="6" fill="#C62828" opacity="0.15" rx="1"/><rect x="410" y="75" width="60" height="6" fill="#1565C0" opacity="0.12" rx="1"/>
<!-- Left side: Raster (Pixel art) -->
<rect x="30" y="90" width="210" height="205" rx="10" fill="white" stroke="#C62828" stroke-width="2"/>
<rect x="30" y="90" width="210" height="30" rx="10" fill="#C62828"/>
<rect x="30" y="110" width="210" height="10" fill="#C62828"/>
<text x="135" y="111" font-family="Arial,sans-serif" font-size="14" fill="white" text-anchor="middle" font-weight="bold">Растровая</text>
<!-- Pixel art smiley face -->
<rect x="95" y="135" width="10" height="10" fill="#FFEB3B" stroke="#F9A825" stroke-width="0.5"/>
<rect x="105" y="135" width="10" height="10" fill="#FFEB3B" stroke="#F9A825" stroke-width="0.5"/>
<rect x="115" y="135" width="10" height="10" fill="#FFEB3B" stroke="#F9A825" stroke-width="0.5"/>
<rect x="125" y="135" width="10" height="10" fill="#FFEB3B" stroke="#F9A825" stroke-width="0.5"/>
<rect x="135" y="135" width="10" height="10" fill="#FFEB3B" stroke="#F9A825" stroke-width="0.5"/>
<rect x="145" y="135" width="10" height="10" fill="#FFEB3B" stroke="#F9A825" stroke-width="0.5"/>
<rect x="155" y="135" width="10" height="10" fill="#FFEB3B" stroke="#F9A825" stroke-width="0.5"/>
<rect x="165" y="135" width="10" height="10" fill="#FFEB3B" stroke="#F9A825" stroke-width="0.5"/>
<rect x="85" y="145" width="10" height="10" fill="#FFEB3B" stroke="#F9A825" stroke-width="0.5"/>
<rect x="175" y="145" width="10" height="10" fill="#FFEB3B" stroke="#F9A825" stroke-width="0.5"/>
<rect x="85" y="155" width="10" height="10" fill="#FFEB3B" stroke="#F9A825" stroke-width="0.5"/>
<rect x="105" y="155" width="10" height="10" fill="#333"/>
<rect x="135" y="155" width="10" height="10" fill="#333"/>
<rect x="175" y="155" width="10" height="10" fill="#FFEB3B" stroke="#F9A825" stroke-width="0.5"/>
<rect x="85" y="165" width="10" height="10" fill="#FFEB3B" stroke="#F9A825" stroke-width="0.5"/>
<rect x="95" y="165" width="10" height="10" fill="#FFEB3B" stroke="#F9A825" stroke-width="0.5"/>
<rect x="105" y="165" width="10" height="10" fill="#FFEB3B" stroke="#F9A825" stroke-width="0.5"/>
<rect x="115" y="165" width="10" height="10" fill="#FFEB3B" stroke="#F9A825" stroke-width="0.5"/>
<rect x="125" y="165" width="10" height="10" fill="#FFEB3B" stroke="#F9A825" stroke-width="0.5"/>
<rect x="135" y="165" width="10" height="10" fill="#FFEB3B" stroke="#F9A825" stroke-width="0.5"/>
<rect x="145" y="165" width="10" height="10" fill="#FFEB3B" stroke="#F9A825" stroke-width="0.5"/>
<rect x="155" y="165" width="10" height="10" fill="#FFEB3B" stroke="#F9A825" stroke-width="0.5"/>
<rect x="165" y="165" width="10" height="10" fill="#FFEB3B" stroke="#F9A825" stroke-width="0.5"/>
<rect x="175" y="165" width="10" height="10" fill="#FFEB3B" stroke="#F9A825" stroke-width="0.5"/>
<rect x="85" y="175" width="10" height="10" fill="#FFEB3B" stroke="#F9A825" stroke-width="0.5"/>
<rect x="105" y="175" width="10" height="10" fill="#FFEB3B" stroke="#F9A825" stroke-width="0.5"/>
<rect x="115" y="175" width="10" height="10" fill="#333"/>
<rect x="125" y="175" width="10" height="10" fill="#333"/>
<rect x="135" y="175" width="10" height="10" fill="#333"/>
<rect x="145" y="175" width="10" height="10" fill="#333"/>
<rect x="155" y="175" width="10" height="10" fill="#FFEB3B" stroke="#F9A825" stroke-width="0.5"/>
<rect x="175" y="175" width="10" height="10" fill="#FFEB3B" stroke="#F9A825" stroke-width="0.5"/>
<rect x="95" y="185" width="10" height="10" fill="#FFEB3B" stroke="#F9A825" stroke-width="0.5"/>
<rect x="105" y="185" width="10" height="10" fill="#FFEB3B" stroke="#F9A825" stroke-width="0.5"/>
<rect x="145" y="185" width="10" height="10" fill="#FFEB3B" stroke="#F9A825" stroke-width="0.5"/>
<rect x="155" y="185" width="10" height="10" fill="#FFEB3B" stroke="#F9A825" stroke-width="0.5"/>
<rect x="105" y="195" width="10" height="10" fill="#FFEB3B" stroke="#F9A825" stroke-width="0.5"/>
<rect x="145" y="195" width="10" height="10" fill="#FFEB3B" stroke="#F9A825" stroke-width="0.5"/>
<!-- Zoom box showing pixels -->
<rect x="55" y="215" width="50" height="40" rx="3" fill="white" stroke="#C62828" stroke-width="1" stroke-dasharray="3,2"/>
<rect x="58" y="218" width="8" height="8" fill="#FFEB3B" stroke="#999" stroke-width="0.5"/>
<rect x="66" y="218" width="8" height="8" fill="#333" stroke="#999" stroke-width="0.5"/>
<rect x="74" y="218" width="8" height="8" fill="#FFEB3B" stroke="#999" stroke-width="0.5"/>
<rect x="82" y="218" width="8" height="8" fill="#FFEB3B" stroke="#999" stroke-width="0.5"/>
<rect x="90" y="218" width="8" height="8" fill="#FFEB3B" stroke="#999" stroke-width="0.5"/>
<rect x="58" y="226" width="8" height="8" fill="#FFEB3B" stroke="#999" stroke-width="0.5"/>
<rect x="66" y="226" width="8" height="8" fill="#FFEB3B" stroke="#999" stroke-width="0.5"/>
<rect x="74" y="226" width="8" height="8" fill="#333" stroke="#999" stroke-width="0.5"/>
<rect x="82" y="226" width="8" height="8" fill="#333" stroke="#999" stroke-width="0.5"/>
<rect x="90" y="226" width="8" height="8" fill="#FFEB3B" stroke="#999" stroke-width="0.5"/>
<rect x="58" y="234" width="8" height="8" fill="#FFEB3B" stroke="#999" stroke-width="0.5"/>
<rect x="66" y="234" width="8" height="8" fill="#FFEB3B" stroke="#999" stroke-width="0.5"/>
<rect x="74" y="234" width="8" height="8" fill="#FFEB3B" stroke="#999" stroke-width="0.5"/>
<rect x="82" y="234" width="8" height="8" fill="#333" stroke="#999" stroke-width="0.5"/>
<rect x="90" y="234" width="8" height="8" fill="#FFEB3B" stroke="#999" stroke-width="0.5"/>
<rect x="58" y="242" width="8" height="8" fill="#FFEB3B" stroke="#999" stroke-width="0.5"/>
<rect x="66" y="242" width="8" height="8" fill="#FFEB3B" stroke="#999" stroke-width="0.5"/>
<rect x="74" y="242" width="8" height="8" fill="#FFEB3B" stroke="#999" stroke-width="0.5"/>
<rect x="82" y="242" width="8" height="8" fill="#FFEB3B" stroke="#999" stroke-width="0.5"/>
<rect x="90" y="242" width="8" height="8" fill="#333" stroke="#999" stroke-width="0.5"/>
<!-- Raster properties -->
<text x="170" y="230" font-family="Arial,sans-serif" font-size="9" fill="#C62828" font-weight="bold">Пиксели</text>
<text x="170" y="243" font-family="Arial,sans-serif" font-size="8" fill="#888">JPG, PNG, GIF</text>
<text x="170" y="255" font-family="Arial,sans-serif" font-size="8" fill="#888">Фотографии</text>
<text x="170" y="267" font-family="Arial,sans-serif" font-size="8" fill="#888">Пиксели при</text>
<text x="170" y="279" font-family="Arial,sans-serif" font-size="8" fill="#888">увеличении</text>
<!-- Zoom icon -->
<text x="110" y="275" font-family="Arial,sans-serif" font-size="16" fill="#C62828" opacity="0.5">&#128269;</text>
<!-- Right side: Vector -->
<rect x="260" y="90" width="210" height="205" rx="10" fill="white" stroke="#1565C0" stroke-width="2"/>
<rect x="260" y="90" width="210" height="30" rx="10" fill="#1565C0"/>
<rect x="260" y="110" width="210" height="10" fill="#1565C0"/>
<text x="365" y="111" font-family="Arial,sans-serif" font-size="14" fill="white" text-anchor="middle" font-weight="bold">Векторная</text>
<!-- Vector smiley face -->
<circle cx="365" cy="165" r="40" fill="#FFEB3B" stroke="#F9A825" stroke-width="2.5"/>
<circle cx="350" cy="155" r="6" fill="#333"/>
<circle cx="380" cy="155" r="6" fill="#333"/>
<path d="M345,180 Q365,200 385,180" fill="none" stroke="#333" stroke-width="3" stroke-linecap="round"/>
<!-- Anchor points visible -->
<circle cx="365" cy="125" r="3.5" fill="#1565C0" stroke="white" stroke-width="1.5"/>
<circle cx="405" cy="165" r="3.5" fill="#1565C0" stroke="white" stroke-width="1.5"/>
<circle cx="365" cy="205" r="3.5" fill="#1565C0" stroke="white" stroke-width="1.5"/>
<circle cx="325" cy="165" r="3.5" fill="#1565C0" stroke="white" stroke-width="1.5"/>
<!-- Control point lines -->
<line x1="365" y1="125" x2="385" y2="125" stroke="#1565C0" stroke-width="0.8" stroke-dasharray="3,2"/>
<circle cx="385" cy="125" r="2" fill="#1565C0"/>
<line x1="325" y1="165" x2="325" y2="145" stroke="#1565C0" stroke-width="0.8" stroke-dasharray="3,2"/>
<circle cx="325" cy="145" r="2" fill="#1565C0"/>
<!-- Vector properties -->
<rect x="280" y="220" width="170" height="60" rx="6" fill="#F5F5F5" stroke="#ddd" stroke-width="1"/>
<text x="365" y="238" font-family="Arial,sans-serif" font-size="9" fill="#1565C0" font-weight="bold">Математические формулы</text>
<text x="365" y="253" font-family="Arial,sans-serif" font-size="8" fill="#888">SVG, AI, EPS</text>
<text x="365" y="265" font-family="Arial,sans-serif" font-size="8" fill="#888">Логотипы, схемы</text>
<text x="365" y="277" font-family="Arial,sans-serif" font-size="8" fill="#888">Не теряет качество</text>
<!-- VS badge -->
<circle cx="250" cy="190" r="18" fill="#C62828"/>
<text x="250" y="195" font-family="Arial,sans-serif" font-size="12" fill="white" text-anchor="middle" font-weight="bold">VS</text>
<rect x="15" y="308" width="470" height="30" rx="4" fill="#C62828" opacity="0.85"/><text x="250" y="329" font-family="Arial,sans-serif" font-size="15" text-anchor="middle" fill="white" font-weight="bold">Виды компьютерной графики</text></svg>