<svg xmlns="http://www.w3.org/2000/svg" viewBox="0 0 500 350">
  <defs><linearGradient id="bg" x1="0" y1="0" x2="1" y2="1"><stop offset="0%" stop-color="#E8F5E9"/><stop offset="100%" stop-color="#C8E6C9"/></linearGradient></defs>
  <rect width="500" height="350" fill="url(#bg)" rx="10"/>
  <rect x="3" y="3" width="494" height="344" rx="8" fill="none" stroke="#2E7D32" stroke-width="2.5"/>
  <text x="250" y="30" font-family="Arial,sans-serif" font-size="16" font-weight="bold" fill="#2E7D32" text-anchor="middle">Лишайники - симбиоз гриба и водоросли</text>
  <text x="250" y="46" font-family="Arial,sans-serif" font-size="10" fill="#888" text-anchor="middle">Биология 6 класс - Урок 10</text>
  <line x1="30" y1="52" x2="470" y2="52" stroke="#2E7D32" stroke-width="1.5" opacity="0.25"/>
  
  <!-- Three lichen types + symbiosis diagram -->
  <g transform="translate(80,110)">
    <ellipse cx="0" cy="15" rx="35" ry="15" fill="#9E9E9E" stroke="#757575" stroke-width="1"/>
    <ellipse cx="-5" cy="5" rx="20" ry="8" fill="#8BC34A" opacity="0.7" stroke="#689F38" stroke-width="1"/>
    <ellipse cx="8" cy="0" rx="12" ry="6" fill="#9CCC65" opacity="0.5"/>
    <text x="0" y="42" font-family="Arial,sans-serif" font-size="8" fill="#333" text-anchor="middle" font-weight="bold">Накипные</text>
  </g>
  <g transform="translate(210,110)">
    <rect x="-25" y="10" width="50" height="25" fill="#795548" stroke="#5D4037" stroke-width="1" rx="3"/>
    <path d="M-18 8 Q-12 -5 0 -8 Q12 -5 18 8 Q8 5 0 6 Q-8 5 -18 8 Z" fill="#81C784" stroke="#4CAF50" stroke-width="1.5"/>
    <text x="0" y="52" font-family="Arial,sans-serif" font-size="8" fill="#333" text-anchor="middle" font-weight="bold">Листоватые</text>
  </g>
  <g transform="translate(350,100)">
    <path d="M0 40 L0 15 L-12 -5 L-18 -15" stroke="#7CB342" stroke-width="3" fill="none" stroke-linecap="round"/>
    <path d="M0 15 L12 -5 L18 -15" stroke="#7CB342" stroke-width="3" fill="none" stroke-linecap="round"/>
    <path d="M0 25 L-15 10 L-20 0" stroke="#8BC34A" stroke-width="2.5" fill="none" stroke-linecap="round"/>
    <path d="M0 25 L15 10 L20 0" stroke="#8BC34A" stroke-width="2.5" fill="none" stroke-linecap="round"/>
    <path d="M-12 -5 L-20 -10" stroke="#9CCC65" stroke-width="1.5" fill="none" stroke-linecap="round"/>
    <path d="M12 -5 L20 -10" stroke="#9CCC65" stroke-width="1.5" fill="none" stroke-linecap="round"/>
    <text x="0" y="58" font-family="Arial,sans-serif" font-size="8" fill="#333" text-anchor="middle" font-weight="bold">Кустистые</text>
    <text x="0" y="70" font-family="Arial,sans-serif" font-size="7" fill="#666" text-anchor="middle">(ягель - олений мох)</text>
  </g>
  <!-- Symbiosis Venn diagram -->
  <g transform="translate(150,230)">
    <circle cx="-40" cy="0" r="35" fill="#FFCC80" stroke="#E65100" stroke-width="2" opacity="0.5"/>
    <circle cx="40" cy="0" r="35" fill="#A5D6A7" stroke="#2E7D32" stroke-width="2" opacity="0.5"/>
    <text x="-40" y="-8" font-family="Arial,sans-serif" font-size="9" fill="#BF360C" text-anchor="middle" font-weight="bold">Гриб</text>
    <text x="-40" y="6" font-family="Arial,sans-serif" font-size="7" fill="#BF360C" text-anchor="middle">вода, минер.</text>
    <text x="40" y="-8" font-family="Arial,sans-serif" font-size="9" fill="#1B5E20" text-anchor="middle" font-weight="bold">Водоросль</text>
    <text x="40" y="6" font-family="Arial,sans-serif" font-size="7" fill="#1B5E20" text-anchor="middle">орг. вещества</text>
    <text x="0" y="3" font-family="Arial,sans-serif" font-size="8" fill="#33691E" text-anchor="middle" font-weight="bold">Лишайник</text>
  </g>
  <!-- Info -->
  <rect x="280" y="210" width="190" height="90" rx="5" fill="white" stroke="#2E7D32" stroke-width="1" opacity="0.9"/>
  <text x="375" y="227" font-family="Arial,sans-serif" font-size="9" fill="#2E7D32" text-anchor="middle" font-weight="bold">Особенности лишайников</text>
  <text x="290" y="243" font-family="Arial,sans-serif" font-size="7" fill="#555">- Симбиоз гриба и водоросли</text>
  <text x="290" y="255" font-family="Arial,sans-serif" font-size="7" fill="#555">- Растут очень медленно</text>
  <text x="290" y="267" font-family="Arial,sans-serif" font-size="7" fill="#555">- Впервые поселяются на скалах</text>
  <text x="290" y="279" font-family="Arial,sans-serif" font-size="7" fill="#555">- Индикаторы чистого воздуха</text>
  <text x="290" y="293" font-family="Arial,sans-serif" font-size="7" fill="#C62828">- Погибают от загрязнения!</text>

  <rect x="10" y="325" width="480" height="20" rx="4" fill="#2E7D32" opacity="0.85"/>
  <text x="250" y="339" font-family="Arial,sans-serif" font-size="11" text-anchor="middle" fill="white" font-weight="bold">Биология 6 класс</text>
</svg>