<svg xmlns="http://www.w3.org/2000/svg" viewBox="0 0 500 350">
  <defs>
    <linearGradient id="bg" x1="0" y1="0" x2="1" y2="1">
      <stop offset="0%" stop-color="#E8F5E9"/>
      <stop offset="100%" stop-color="#C8E6C9"/>
    </linearGradient>
  </defs>
  <rect width="500" height="350" fill="url(#bg)" rx="10"/>
  <rect x="3" y="3" width="494" height="344" rx="8" fill="none" stroke="#2E7D32" stroke-width="2.5"/>
  <text x="250" y="30" font-family="Arial,sans-serif" font-size="16" font-weight="bold" fill="#2E7D32" text-anchor="middle">Биология - наука о живой природе</text>
  <text x="250" y="46" font-family="Arial,sans-serif" font-size="10" fill="#888" text-anchor="middle">Биология 6 класс - Урок 1</text>
  <line x1="30" y1="52" x2="470" y2="52" stroke="#2E7D32" stroke-width="1.5" opacity="0.25"/>
  
  <!-- Open book with nature symbols -->
  <g transform="translate(250,180)">
    <!-- Book -->
    <path d="M-100 50 L-100 -40 Q-50 -55 0 -40 Q50 -55 100 -40 L100 50 Q50 35 0 50 Q-50 35 -100 50 Z" fill="#FFF9C4" stroke="#F9A825" stroke-width="2"/>
    <!-- Left page lines -->
    <line x1="-80" y1="-20" x2="-20" y2="-25" stroke="#E0E0E0" stroke-width="0.8"/>
    <line x1="-80" y1="-8" x2="-20" y2="-13" stroke="#E0E0E0" stroke-width="0.8"/>
    <line x1="-80" y1="4" x2="-20" y2="-1" stroke="#E0E0E0" stroke-width="0.8"/>
    <line x1="-80" y1="16" x2="-20" y2="11" stroke="#E0E0E0" stroke-width="0.8"/>
    <!-- Right page lines -->
    <line x1="20" y1="-25" x2="80" y2="-20" stroke="#E0E0E0" stroke-width="0.8"/>
    <line x1="20" y1="-13" x2="80" y2="-8" stroke="#E0E0E0" stroke-width="0.8"/>
    <line x1="20" y1="-1" x2="80" y2="4" stroke="#E0E0E0" stroke-width="0.8"/>
    <line x1="20" y1="11" x2="80" y2="16" stroke="#E0E0E0" stroke-width="0.8"/>
    <!-- Spine -->
    <line x1="0" y1="-40" x2="0" y2="50" stroke="#F9A825" stroke-width="1.5"/>
    <!-- Plant symbol on left -->
    <g transform="translate(-50,-10)">
      <line x1="0" y1="15" x2="0" y2="-5" stroke="#4CAF50" stroke-width="2"/>
      <ellipse cx="-8" cy="-3" rx="8" ry="5" fill="#81C784" transform="rotate(30,-8,-3)"/>
      <ellipse cx="8" cy="-3" rx="8" ry="5" fill="#81C784" transform="rotate(-30,8,-3)"/>
    </g>
    <!-- Animal symbol on right -->
    <g transform="translate(50,-10)">
      <ellipse cx="0" cy="0" rx="10" ry="7" fill="#FFAB91" stroke="#E64A19" stroke-width="1"/>
      <circle cx="-7" cy="-3" r="3" fill="#FFAB91" stroke="#E64A19" stroke-width="1"/>
      <circle cx="-8" cy="-4" r="1" fill="#333"/>
    </g>
  </g>
  <!-- Branches of biology around the book -->
  <g transform="translate(80,85)">
    <rect x="-35" y="-12" width="70" height="24" rx="12" fill="#4CAF50" opacity="0.7"/>
    <text x="0" y="4" font-family="Arial,sans-serif" font-size="9" fill="white" text-anchor="middle" font-weight="bold">Ботаника</text>
  </g>
  <g transform="translate(250,72)">
    <rect x="-45" y="-12" width="90" height="24" rx="12" fill="#2E7D32" opacity="0.8"/>
    <text x="0" y="4" font-family="Arial,sans-serif" font-size="10" fill="white" text-anchor="middle" font-weight="bold">БИОЛОГИЯ</text>
  </g>
  <g transform="translate(420,85)">
    <rect x="-35" y="-12" width="70" height="24" rx="12" fill="#FF9800" opacity="0.7"/>
    <text x="0" y="4" font-family="Arial,sans-serif" font-size="9" fill="white" text-anchor="middle" font-weight="bold">Зоология</text>
  </g>
  <g transform="translate(100,280)">
    <rect x="-45" y="-12" width="90" height="24" rx="12" fill="#9C27B0" opacity="0.5"/>
    <text x="0" y="4" font-family="Arial,sans-serif" font-size="8" fill="white" text-anchor="middle">Микробиология</text>
  </g>
  <g transform="translate(400,280)">
    <rect x="-35" y="-12" width="70" height="24" rx="12" fill="#009688" opacity="0.5"/>
    <text x="0" y="4" font-family="Arial,sans-serif" font-size="9" fill="white" text-anchor="middle">Экология</text>
  </g>

  <rect x="10" y="325" width="480" height="20" rx="4" fill="#2E7D32" opacity="0.85"/>
  <text x="250" y="339" font-family="Arial,sans-serif" font-size="11" text-anchor="middle" fill="white" font-weight="bold">Биология 6 класс</text>
</svg>