<svg xmlns="http://www.w3.org/2000/svg" viewBox="0 0 500 350">
  <defs>
    <linearGradient id="bg" x1="0" y1="0" x2="1" y2="1">
      <stop offset="0%" stop-color="#FFF8E1"/>
      <stop offset="100%" stop-color="#FFFDE7"/>
    </linearGradient>
  </defs>
  <!-- Background -->
  <rect width="500" height="350" fill="url(#bg)" rx="10"/>
  <rect x="3" y="3" width="494" height="344" rx="8" fill="none" stroke="#C62828" stroke-width="3"/>
  <rect x="8" y="8" width="484" height="334" rx="6" fill="none" stroke="#C62828" stroke-width="1" opacity="0.3"/>
  <!-- Bauhaus corners -->
  <polygon points="10,10 30,10 10,30" fill="#C62828" opacity="0.08"/>
  <polygon points="490,10 470,10 490,30" fill="#1565C0" opacity="0.08"/>
  <polygon points="10,340 30,340 10,320" fill="#F9A825" opacity="0.08"/>
  <polygon points="490,340 470,340 490,320" fill="#2E7D32" opacity="0.08"/>
  <!-- Bauhaus circles -->
  <circle cx="70" cy="15" r="4" fill="#C62828" opacity="0.1"/>
  <circle cx="82" cy="15" r="4" fill="#1565C0" opacity="0.1"/>
  <circle cx="94" cy="15" r="4" fill="#F9A825" opacity="0.1"/>
  <circle cx="406" cy="15" r="4" fill="#C62828" opacity="0.1"/>
  <circle cx="418" cy="15" r="4" fill="#1565C0" opacity="0.1"/>
  <circle cx="430" cy="15" r="4" fill="#F9A825" opacity="0.1"/>
  <!-- Title -->
  <text x="250" y="50" font-family="Arial,sans-serif" font-size="24" font-weight="bold" fill="#C62828" text-anchor="middle">Размножение растений</text>
  <text x="250" y="68" font-family="Arial,sans-serif" font-size="12" fill="#777" text-anchor="middle">Биология - Урок 6</text>
  <line x1="30" y1="78" x2="470" y2="78" stroke="#C62828" stroke-width="2" opacity="0.25"/>
  <rect x="30" y="75" width="60" height="6" fill="#C62828" opacity="0.15" rx="1"/>
  <rect x="410" y="75" width="60" height="6" fill="#1565C0" opacity="0.12" rx="1"/>

  <!-- Flower with labeled parts card -->
  <rect x="20" y="88" width="210" height="140" rx="6" fill="white" stroke="#E53935" stroke-width="1.5" opacity="0.9"/>
  <text x="125" y="102" font-family="Arial,sans-serif" font-size="8" fill="#E53935" font-weight="bold" text-anchor="middle">СТРОЕНИЕ ЦВЕТКА</text>

  <!-- Stem -->
  <rect x="118" y="175" width="6" height="48" fill="#81C784" stroke="#2E7D32" stroke-width="0.8"/>

  <!-- Sepals -->
  <path d="M121,178 Q112,172 108,168" stroke="#43A047" stroke-width="1.5" fill="none"/>
  <ellipse cx="106" cy="168" rx="5" ry="8" fill="#66BB6A" stroke="#2E7D32" stroke-width="0.8" transform="rotate(-20,106,168)"/>
  <path d="M121,178 Q130,172 134,168" stroke="#43A047" stroke-width="1.5" fill="none"/>
  <ellipse cx="136" cy="168" rx="5" ry="8" fill="#66BB6A" stroke="#2E7D32" stroke-width="0.8" transform="rotate(20,136,168)"/>

  <!-- Petals -->
  <ellipse cx="100" cy="155" rx="14" ry="8" fill="#FF8A80" stroke="#E53935" stroke-width="0.8" transform="rotate(-50,100,155)"/>
  <ellipse cx="150" cy="155" rx="14" ry="8" fill="#FF8A80" stroke="#E53935" stroke-width="0.8" transform="rotate(50,150,155)"/>
  <ellipse cx="92" cy="145" rx="14" ry="8" fill="#FFAB91" stroke="#E53935" stroke-width="0.8" transform="rotate(-25,92,145)"/>
  <ellipse cx="158" cy="145" rx="14" ry="8" fill="#FFAB91" stroke="#E53935" stroke-width="0.8" transform="rotate(25,158,145)"/>
  <ellipse cx="97" cy="132" rx="14" ry="8" fill="#FF8A80" stroke="#E53935" stroke-width="0.8" transform="rotate(5,97,132)"/>
  <ellipse cx="153" cy="132" rx="14" ry="8" fill="#FF8A80" stroke="#E53935" stroke-width="0.8" transform="rotate(-5,153,132)"/>

  <!-- Stamen (pollen) -->
  <!-- Filaments -->
  <line x1="115" y1="155" x2="105" y2="138" stroke="#FDD835" stroke-width="1.2"/>
  <line x1="127" y1="155" x2="137" y2="138" stroke="#FDD835" stroke-width="1.2"/>
  <!-- Anthers -->
  <ellipse cx="103" cy="136" rx="4" ry="3" fill="#F9A825" stroke="#F57F17" stroke-width="0.8"/>
  <ellipse cx="139" cy="136" rx="4" ry="3" fill="#F9A825" stroke="#F57F17" stroke-width="0.8"/>
  <!-- Pollen grains -->
  <circle cx="100" cy="130" r="1.5" fill="#FDD835"/>
  <circle cx="106" cy="131" r="1.5" fill="#FDD835"/>
  <circle cx="136" cy="130" r="1.5" fill="#FDD835"/>
  <circle cx="142" cy="131" r="1.5" fill="#FDD835"/>

  <!-- Pistil -->
  <line x1="121" y1="165" x2="121" y2="128" stroke="#2E7D32" stroke-width="1.5"/>
  <!-- Stigma -->
  <ellipse cx="121" cy="125" rx="5" ry="3" fill="#A5D6A7" stroke="#2E7D32" stroke-width="0.8"/>
  <!-- Ovary -->
  <ellipse cx="121" cy="168" rx="7" ry="5" fill="#C8E6C9" stroke="#2E7D32" stroke-width="1"/>

  <!-- Labels -->
  <line x1="103" y1="136" x2="48" y2="120" stroke="#F57F17" stroke-width="0.7" stroke-dasharray="2,1"/>
  <text x="46" y="118" font-family="Arial,sans-serif" font-size="6" fill="#F57F17" text-anchor="end">Тычинка</text>
  <line x1="121" y1="125" x2="46" y2="108" stroke="#2E7D32" stroke-width="0.7" stroke-dasharray="2,1"/>
  <text x="44" y="106" font-family="Arial,sans-serif" font-size="6" fill="#2E7D32" text-anchor="end">Пестик</text>
  <line x1="92" y1="145" x2="40" y2="138" stroke="#E53935" stroke-width="0.7" stroke-dasharray="2,1"/>
  <text x="38" y="136" font-family="Arial,sans-serif" font-size="6" fill="#E53935" text-anchor="end">Лепесток</text>
  <line x1="121" y1="170" x2="165" y2="185" stroke="#2E7D32" stroke-width="0.7" stroke-dasharray="2,1"/>
  <text x="167" y="187" font-family="Arial,sans-serif" font-size="6" fill="#2E7D32">Завязь</text>
  <line x1="106" y1="168" x2="165" y2="175" stroke="#43A047" stroke-width="0.7" stroke-dasharray="2,1"/>
  <text x="167" y="173" font-family="Arial,sans-serif" font-size="6" fill="#43A047">Чашелистик</text>

  <!-- Pollination card -->
  <rect x="242" y="88" width="238" height="140" rx="6" fill="white" stroke="#F9A825" stroke-width="1.5" opacity="0.9"/>
  <text x="361" y="102" font-family="Arial,sans-serif" font-size="8" fill="#F57F17" font-weight="bold" text-anchor="middle">ОПЫЛЕНИЕ</text>

  <!-- Bee -->
  <!-- Body -->
  <ellipse cx="295" cy="148" rx="10" ry="7" fill="#FDD835" stroke="#F57F17" stroke-width="1"/>
  <!-- Stripes -->
  <line x1="290" y1="148" x2="290" y2="141" stroke="#333" stroke-width="1.5"/>
  <line x1="295" y1="148" x2="295" y2="141" stroke="#333" stroke-width="1.5"/>
  <line x1="300" y1="148" x2="300" y2="141" stroke="#333" stroke-width="1.5"/>
  <!-- Head -->
  <circle cx="285" cy="147" r="4" fill="#333"/>
  <!-- Eyes -->
  <circle cx="283" cy="146" r="1.5" fill="white"/>
  <circle cx="283" cy="146" r="0.8" fill="#333"/>
  <!-- Wings -->
  <ellipse cx="292" cy="137" rx="12" ry="5" fill="#E3F2FD" stroke="#90CAF9" stroke-width="0.5" opacity="0.6"/>
  <ellipse cx="300" cy="137" rx="10" ry="4" fill="#E3F2FD" stroke="#90CAF9" stroke-width="0.5" opacity="0.6"/>
  <!-- Antennae -->
  <path d="M283,143 Q278,138 275,135" stroke="#333" stroke-width="0.6" fill="none"/>
  <path d="M285,143 Q283,137 280,134" stroke="#333" stroke-width="0.6" fill="none"/>
  <!-- Legs -->
  <line x1="290" y1="155" x2="286" y2="160" stroke="#333" stroke-width="0.6"/>
  <line x1="295" y1="155" x2="293" y2="161" stroke="#333" stroke-width="0.6"/>
  <line x1="300" y1="155" x2="303" y2="160" stroke="#333" stroke-width="0.6"/>
  <!-- Flight path -->
  <path d="M260,155 Q268,152 275,155" stroke="#F9A825" stroke-width="1" fill="none" stroke-dasharray="3,2"/>
  <path d="M255,158 Q262,155 270,158" stroke="#F9A825" stroke-width="0.7" fill="none" stroke-dasharray="2,2"/>

  <!-- Pollen grains on bee -->
  <circle cx="293" cy="157" r="2" fill="#FDD835"/>
  <circle cx="297" cy="158" r="2" fill="#FDD835"/>
  <circle cx="290" cy="159" r="1.5" fill="#FDD835"/>

  <!-- Small flower for pollination -->
  <line x1="340" y1="175" x2="340" y2="140" stroke="#81C784" stroke-width="1.5"/>
  <ellipse cx="332" cy="138" rx="8" ry="5" fill="#FF8A80" stroke="#E53935" stroke-width="0.7"/>
  <ellipse cx="348" cy="138" rx="8" ry="5" fill="#FF8A80" stroke="#E53935" stroke-width="0.7"/>
  <ellipse cx="328" cy="145" rx="8" ry="5" fill="#FFAB91" stroke="#E53935" stroke-width="0.7"/>
  <ellipse cx="352" cy="145" rx="8" ry="5" fill="#FFAB91" stroke="#E53935" stroke-width="0.7"/>
  <circle cx="340" cy="142" r="4" fill="#FDD835"/>
  <!-- Stigma -->
  <ellipse cx="340" cy="135" rx="3" ry="2" fill="#A5D6A7" stroke="#2E7D32" stroke-width="0.5"/>
  <!-- Arrow from bee to flower stigma -->
  <path d="M305,148 Q320,140 335,136" stroke="#F9A825" stroke-width="1.5" fill="none" stroke-dasharray="4,2"/>
  <polygon points="334,133 338,137 333,137" fill="#F9A825"/>
  <text x="318" y="130" font-family="Arial,sans-serif" font-size="6" fill="#F57F17">пыльца</text>

  <!-- Seed and sprouting card -->
  <rect x="20" y="236" width="220" height="65" rx="6" fill="white" stroke="#2E7D32" stroke-width="1.5" opacity="0.9"/>
  <text x="130" y="250" font-family="Arial,sans-serif" font-size="8" fill="#2E7D32" font-weight="bold" text-anchor="middle">СЕМЯ И ПРОРОСТОК</text>

  <!-- Seed -->
  <ellipse cx="55" cy="278" rx="10" ry="7" fill="#A1887F" stroke="#5D4037" stroke-width="1"/>
  <!-- Seed coat crack -->
  <path d="M50,275 L55,278 L50,282" stroke="#5D4037" stroke-width="0.7" fill="none"/>
  <!-- Embryo inside -->
  <circle cx="55" cy="278" r="3" fill="#C8E6C9" stroke="#2E7D32" stroke-width="0.5"/>
  <text x="55" y="295" font-family="Arial,sans-serif" font-size="6" fill="#5D4037" text-anchor="middle">семя</text>

  <!-- Arrow -->
  <line x1="70" y1="278" x2="85" y2="278" stroke="#C62828" stroke-width="1.5"/>
  <polygon points="85,275 90,278 85,281" fill="#C62828"/>

  <!-- Sprouting seedling -->
  <ellipse cx="105" cy="285" rx="8" ry="5" fill="#A1887F" stroke="#5D4037" stroke-width="0.8"/>
  <line x1="105" y1="280" x2="105" y2="260" stroke="#81C784" stroke-width="1.5"/>
  <ellipse cx="99" cy="258" rx="5" ry="3" fill="#A5D6A7" stroke="#2E7D32" stroke-width="0.5"/>
  <ellipse cx="111" cy="256" rx="5" ry="3" fill="#C8E6C9" stroke="#2E7D32" stroke-width="0.5"/>
  <text x="105" y="295" font-family="Arial,sans-serif" font-size="6" fill="#2E7D32" text-anchor="middle">проросток</text>

  <!-- Arrow -->
  <line x1="118" y1="278" x2="133" y2="278" stroke="#C62828" stroke-width="1.5"/>
  <polygon points="133,275 138,278 133,281" fill="#C62828"/>

  <!-- Small plant -->
  <line x1="155" y1="290" x2="155" y2="258" stroke="#81C784" stroke-width="2"/>
  <ellipse cx="148" cy="258" rx="8" ry="4" fill="#66BB6A" stroke="#2E7D32" stroke-width="0.7"/>
  <ellipse cx="162" cy="255" rx="8" ry="4" fill="#81C784" stroke="#2E7D32" stroke-width="0.7"/>
  <ellipse cx="155" cy="250" rx="6" ry="3" fill="#A5D6A7" stroke="#2E7D32" stroke-width="0.7"/>
  <circle cx="155" cy="243" r="4" fill="#F9A825"/>
  <ellipse cx="150" cy="240" rx="3" ry="3.5" fill="#FF8A80"/>
  <ellipse cx="160" cy="240" rx="3" ry="3.5" fill="#FF8A80"/>
  <text x="155" y="295" font-family="Arial,sans-serif" font-size="6" fill="#2E7D32" text-anchor="middle">растение</text>

  <!-- Cycle label -->
  <rect x="175" y="252" width="55" height="30" rx="3" fill="#E8F5E9" stroke="#2E7D32" stroke-width="0.8"/>
  <text x="202" y="264" font-family="Arial,sans-serif" font-size="6" fill="#2E7D32" text-anchor="middle" font-weight="bold">Цикл:</text>
  <text x="202" y="274" font-family="Arial,sans-serif" font-size="6" fill="#2E7D32" text-anchor="middle">цветок</text>
  <text x="202" y="282" font-family="Arial,sans-serif" font-size="5" fill="#999" text-anchor="middle">семя - росток</text>

  <!-- Life cycle card -->
  <rect x="252" y="236" width="228" height="65" rx="6" fill="white" stroke="#1565C0" stroke-width="1.5" opacity="0.9"/>
  <text x="366" y="250" font-family="Arial,sans-serif" font-size="8" fill="#1565C0" font-weight="bold" text-anchor="middle">ЖИЗНЕННЫЙ ЦИКЛ</text>

  <!-- Circular arrows showing cycle -->
  <!-- Pollination -->
  <circle cx="300" cy="278" r="10" fill="#FFCDD2" stroke="#E53935" stroke-width="0.8"/>
  <text x="300" y="281" font-family="Arial,sans-serif" font-size="6" fill="#E53935" text-anchor="middle">1</text>
  <!-- Arrow 1->2 -->
  <path d="M310,278 L325,278" stroke="#999" stroke-width="1"/>
  <polygon points="325,276 329,278 325,280" fill="#999"/>
  <!-- Fertilization -->
  <circle cx="340" cy="278" r="10" fill="#F3E5F5" stroke="#7B1FA2" stroke-width="0.8"/>
  <text x="340" y="281" font-family="Arial,sans-serif" font-size="6" fill="#7B1FA2" text-anchor="middle">2</text>
  <!-- Arrow 2->3 -->
  <path d="M350,278 L365,278" stroke="#999" stroke-width="1"/>
  <polygon points="365,276 369,278 365,280" fill="#999"/>
  <!-- Seed -->
  <circle cx="380" cy="278" r="10" fill="#EFEBE9" stroke="#795548" stroke-width="0.8"/>
  <text x="380" y="281" font-family="Arial,sans-serif" font-size="6" fill="#795548" text-anchor="middle">3</text>
  <!-- Arrow 3->4 -->
  <path d="M390,278 L405,278" stroke="#999" stroke-width="1"/>
  <polygon points="405,276 409,278 405,280" fill="#999"/>
  <!-- Sprout -->
  <circle cx="420" cy="278" r="10" fill="#E8F5E9" stroke="#2E7D32" stroke-width="0.8"/>
  <text x="420" y="281" font-family="Arial,sans-serif" font-size="6" fill="#2E7D32" text-anchor="middle">4</text>
  <!-- Return arrow 4->1 -->
  <path d="M420,268 Q360,255 300,268" stroke="#999" stroke-width="1" fill="none" stroke-dasharray="3,2"/>
  <polygon points="300,268 302,263 305,269" fill="#999"/>

  <!-- Labels under numbers -->
  <text x="300" y="296" font-family="Arial,sans-serif" font-size="5" fill="#E53935" text-anchor="middle">опыление</text>
  <text x="340" y="296" font-family="Arial,sans-serif" font-size="5" fill="#7B1FA2" text-anchor="middle">оплодот.</text>
  <text x="380" y="296" font-family="Arial,sans-serif" font-size="5" fill="#795548" text-anchor="middle">семя</text>
  <text x="420" y="296" font-family="Arial,sans-serif" font-size="5" fill="#2E7D32" text-anchor="middle">росток</text>

  <!-- Bottom bar -->
  <rect x="15" y="310" width="470" height="30" rx="4" fill="#C62828" opacity="0.85"/>
  <text x="250" y="330" font-family="Arial,sans-serif" font-size="15" text-anchor="middle" fill="white" font-weight="bold">Размножение растений</text>
</svg>