<?xml version='1.0' encoding='utf-8'?>
<svg xmlns="http://www.w3.org/2000/svg" width="800" height="600" viewBox="0 0 800 600">
  <defs>
    <linearGradient id="bg" x1="0" y1="0" x2="0" y2="1">
      <stop offset="0%" stop-color="#0C1B2A" />
      <stop offset="100%" stop-color="#0F2744" />
    </linearGradient>
  </defs>
  <rect width="800" height="600" fill="url(#bg)" />
  <line x1="0" y1="0" x2="0" y2="600" stroke="#164E7A" stroke-width="0.3" opacity="0.5" />
  <line x1="40" y1="0" x2="40" y2="600" stroke="#164E7A" stroke-width="0.3" opacity="0.5" />
  <line x1="80" y1="0" x2="80" y2="600" stroke="#164E7A" stroke-width="0.3" opacity="0.5" />
  <line x1="120" y1="0" x2="120" y2="600" stroke="#164E7A" stroke-width="0.3" opacity="0.5" />
  <line x1="160" y1="0" x2="160" y2="600" stroke="#164E7A" stroke-width="0.3" opacity="0.5" />
  <line x1="200" y1="0" x2="200" y2="600" stroke="#164E7A" stroke-width="0.3" opacity="0.5" />
  <line x1="240" y1="0" x2="240" y2="600" stroke="#164E7A" stroke-width="0.3" opacity="0.5" />
  <line x1="280" y1="0" x2="280" y2="600" stroke="#164E7A" stroke-width="0.3" opacity="0.5" />
  <line x1="320" y1="0" x2="320" y2="600" stroke="#164E7A" stroke-width="0.3" opacity="0.5" />
  <line x1="360" y1="0" x2="360" y2="600" stroke="#164E7A" stroke-width="0.3" opacity="0.5" />
  <line x1="400" y1="0" x2="400" y2="600" stroke="#164E7A" stroke-width="0.3" opacity="0.5" />
  <line x1="440" y1="0" x2="440" y2="600" stroke="#164E7A" stroke-width="0.3" opacity="0.5" />
  <line x1="480" y1="0" x2="480" y2="600" stroke="#164E7A" stroke-width="0.3" opacity="0.5" />
  <line x1="520" y1="0" x2="520" y2="600" stroke="#164E7A" stroke-width="0.3" opacity="0.5" />
  <line x1="560" y1="0" x2="560" y2="600" stroke="#164E7A" stroke-width="0.3" opacity="0.5" />
  <line x1="600" y1="0" x2="600" y2="600" stroke="#164E7A" stroke-width="0.3" opacity="0.5" />
  <line x1="640" y1="0" x2="640" y2="600" stroke="#164E7A" stroke-width="0.3" opacity="0.5" />
  <line x1="680" y1="0" x2="680" y2="600" stroke="#164E7A" stroke-width="0.3" opacity="0.5" />
  <line x1="720" y1="0" x2="720" y2="600" stroke="#164E7A" stroke-width="0.3" opacity="0.5" />
  <line x1="760" y1="0" x2="760" y2="600" stroke="#164E7A" stroke-width="0.3" opacity="0.5" />
  <line x1="800" y1="0" x2="800" y2="600" stroke="#164E7A" stroke-width="0.3" opacity="0.5" />
  <line x1="0" y1="0" x2="800" y2="0" stroke="#164E7A" stroke-width="0.3" opacity="0.5" />
  <line x1="0" y1="40" x2="800" y2="40" stroke="#164E7A" stroke-width="0.3" opacity="0.5" />
  <line x1="0" y1="80" x2="800" y2="80" stroke="#164E7A" stroke-width="0.3" opacity="0.5" />
  <line x1="0" y1="120" x2="800" y2="120" stroke="#164E7A" stroke-width="0.3" opacity="0.5" />
  <line x1="0" y1="160" x2="800" y2="160" stroke="#164E7A" stroke-width="0.3" opacity="0.5" />
  <line x1="0" y1="200" x2="800" y2="200" stroke="#164E7A" stroke-width="0.3" opacity="0.5" />
  <line x1="0" y1="240" x2="800" y2="240" stroke="#164E7A" stroke-width="0.3" opacity="0.5" />
  <line x1="0" y1="280" x2="800" y2="280" stroke="#164E7A" stroke-width="0.3" opacity="0.5" />
  <line x1="0" y1="320" x2="800" y2="320" stroke="#164E7A" stroke-width="0.3" opacity="0.5" />
  <line x1="0" y1="360" x2="800" y2="360" stroke="#164E7A" stroke-width="0.3" opacity="0.5" />
  <line x1="0" y1="400" x2="800" y2="400" stroke="#164E7A" stroke-width="0.3" opacity="0.5" />
  <line x1="0" y1="440" x2="800" y2="440" stroke="#164E7A" stroke-width="0.3" opacity="0.5" />
  <line x1="0" y1="480" x2="800" y2="480" stroke="#164E7A" stroke-width="0.3" opacity="0.5" />
  <line x1="0" y1="520" x2="800" y2="520" stroke="#164E7A" stroke-width="0.3" opacity="0.5" />
  <line x1="0" y1="560" x2="800" y2="560" stroke="#164E7A" stroke-width="0.3" opacity="0.5" />
  <line x1="0" y1="600" x2="800" y2="600" stroke="#164E7A" stroke-width="0.3" opacity="0.5" />
  <rect x="0" y="0" width="800" height="70" fill="#0284C7" opacity="0.92" />
  <rect x="16" y="12" width="46" height="46" rx="8" fill="#0C1B2A" />
  <text x="39" y="44" text-anchor="middle" fill="#06B6D4" font-size="22" font-weight="bold" font-family="monospace">6</text>
  <text x="76" y="38" fill="#E0F2FE" font-size="22" font-weight="bold" font-family="sans-serif">Управление моторами</text>
  <text x="76" y="58" fill="#7DD3FC" font-size="13" font-family="sans-serif">DC мотор, серводвигатель, H-мост, ШИМ</text>
  <line x1="0" y1="70" x2="800" y2="70" stroke="#06B6D4" stroke-width="2" opacity="0.6" />
  <rect x="16" y="82" width="250" height="200" rx="8" fill="#0D2137" stroke="#1E5A8A" stroke-width="1" />
  <text x="28" y="104" fill="#38BDF8" font-size="14" font-weight="bold" font-family="sans-serif">DC Мотор (постоянного тока)</text>
  <circle cx="141" cy="160" r="30" fill="none" stroke="#06B6D4" stroke-width="2" />
  <text x="141" y="166" fill="#06B6D4" font-size="20" font-family="sans-serif" text-anchor="middle" font-weight="bold">M</text>
  <line x1="171" y1="160" x2="195" y2="160" stroke="#06B6D4" stroke-width="3" />
  <line x1="111" y1="155" x2="80" y2="140" stroke="#EF4444" stroke-width="2" />
  <line x1="111" y1="165" x2="80" y2="180" stroke="#E0F2FE" stroke-width="2" />
  <text x="50" y="140" fill="#EF4444" font-size="14" font-family="sans-serif" text-anchor="start" font-weight="bold">+</text>
  <text x="50" y="180" fill="#E0F2FE" font-size="14" font-family="sans-serif" text-anchor="start" font-weight="bold">–</text>
  <text x="30" y="218" fill="#7DD3FC" font-size="10" font-family="sans-serif" text-anchor="start">Управление скоростью через ШИМ</text>
  <text x="30" y="234" fill="#7DD3FC" font-size="10" font-family="sans-serif" text-anchor="start">Направление через H-мост</text>
  <text x="30" y="250" fill="#7DD3FC" font-size="10" font-family="sans-serif" text-anchor="start">6-9 В, 200 мА - 2 А</text>
  <rect x="280" y="82" width="250" height="200" rx="8" fill="#0D2137" stroke="#1E5A8A" stroke-width="1" />
  <text x="292" y="104" fill="#38BDF8" font-size="14" font-weight="bold" font-family="sans-serif">Серводвигатель (Servo)</text>
  <rect x="355" y="135" width="60" height="40" rx="4" fill="none" stroke="#F59E0B" stroke-width="2" />
  <line x1="385" y1="135" x2="385" y2="110" stroke="#F59E0B" stroke-width="3" />
  <circle cx="385" cy="135" r="6" fill="#F59E0B" opacity="0.5" stroke="#F59E0B" stroke-width="1.5" />
  <path d="M 405 135 A 25 25 0 0 0 365 110" fill="none" stroke="#7DD3FC" stroke-width="1" stroke-dasharray="3,2" />
  <text x="410" y="120" fill="#7DD3FC" font-size="10" font-family="sans-serif" text-anchor="start">0-180°</text>
  <text x="294" y="210" fill="#E0F2FE" font-size="11" font-family="sans-serif" text-anchor="start">Угол: 0° - 180°</text>
  <text x="294" y="226" fill="#E0F2FE" font-size="11" font-family="sans-serif" text-anchor="start">3 провода: VCC, GND, Signal</text>
  <text x="294" y="242" fill="#E0F2FE" font-size="11" font-family="sans-serif" text-anchor="start">Управление: servo.write(angle)</text>
  <text x="294" y="258" fill="#7DD3FC" font-size="10" font-family="sans-serif" text-anchor="start">Обычно SG90 (микро)</text>
  <rect x="544" y="82" width="240" height="200" rx="8" fill="#0D2137" stroke="#1E5A8A" stroke-width="1" />
  <text x="556" y="104" fill="#38BDF8" font-size="14" font-weight="bold" font-family="sans-serif">H-мост (L298N)</text>
  <rect x="600" y="120" width="80" height="60" rx="4" fill="#0284C7" opacity="0.3" stroke="#0284C7" stroke-width="1.5" />
  <text x="640" y="148" fill="#38BDF8" font-size="12" font-family="sans-serif" text-anchor="middle" font-weight="bold">L298N</text>
  <text x="640" y="162" fill="#7DD3FC" font-size="9" font-family="sans-serif" text-anchor="middle">H-Bridge</text>
  <line x1="570" y1="130" x2="600" y2="130" stroke="#22C55E" stroke-width="1.5" />
  <line x1="570" y1="150" x2="600" y2="150" stroke="#22C55E" stroke-width="1.5" />
  <text x="558" y="134" fill="#22C55E" font-size="8" font-family="monospace" text-anchor="start">IN1</text>
  <text x="558" y="154" fill="#22C55E" font-size="8" font-family="monospace" text-anchor="start">IN2</text>
  <line x1="680" y1="130" x2="720" y2="130" stroke="#EF4444" stroke-width="1.5" />
  <line x1="680" y1="150" x2="720" y2="150" stroke="#EF4444" stroke-width="1.5" />
  <text x="724" y="134" fill="#EF4444" font-size="8" font-family="monospace" text-anchor="start">M+</text>
  <text x="724" y="154" fill="#EF4444" font-size="8" font-family="monospace" text-anchor="start">M–</text>
  <circle cx="755" cy="140" r="12" fill="none" stroke="#F59E0B" stroke-width="1.5" />
  <text x="755" y="144" fill="#F59E0B" font-size="10" font-family="sans-serif" text-anchor="middle">M</text>
  <text x="558" y="210" fill="#E0F2FE" font-size="11" font-family="sans-serif" text-anchor="start">Управляет направлением</text>
  <text x="558" y="226" fill="#E0F2FE" font-size="11" font-family="sans-serif" text-anchor="start">и скоростью мотора.</text>
  <text x="558" y="248" fill="#22C55E" font-size="10" font-family="monospace" text-anchor="start">IN1=1, IN2=0 → вперёд</text>
  <text x="558" y="262" fill="#EF4444" font-size="10" font-family="monospace" text-anchor="start">IN1=0, IN2=1 → назад</text>
  <rect x="16" y="296" width="390" height="130" rx="8" fill="#0D2137" stroke="#1E5A8A" stroke-width="1" />
  <text x="28" y="318" fill="#38BDF8" font-size="14" font-weight="bold" font-family="sans-serif">ШИМ (PWM)</text>
  <text x="28" y="326" fill="#E0F2FE" font-size="12" font-family="sans-serif" text-anchor="start">Широтно-импульсная модуляция</text>
  <text x="28" y="344" fill="#E0F2FE" font-size="12" font-family="sans-serif" text-anchor="start">управляет мощностью мотора.</text>
  <line x1="30" y1="380" x2="30" y2="365" stroke="#06B6D4" stroke-width="2" />
  <line x1="30" y1="365" x2="50" y2="365" stroke="#06B6D4" stroke-width="2" />
  <line x1="50" y1="365" x2="50" y2="380" stroke="#06B6D4" stroke-width="2" />
  <line x1="50" y1="380" x2="75" y2="380" stroke="#06B6D4" stroke-width="1" />
  <line x1="75" y1="380" x2="75" y2="365" stroke="#06B6D4" stroke-width="2" />
  <line x1="75" y1="365" x2="95" y2="365" stroke="#06B6D4" stroke-width="2" />
  <line x1="95" y1="365" x2="95" y2="380" stroke="#06B6D4" stroke-width="2" />
  <line x1="95" y1="380" x2="120" y2="380" stroke="#06B6D4" stroke-width="1" />
  <line x1="120" y1="380" x2="120" y2="365" stroke="#06B6D4" stroke-width="2" />
  <line x1="120" y1="365" x2="140" y2="365" stroke="#06B6D4" stroke-width="2" />
  <line x1="140" y1="365" x2="140" y2="380" stroke="#06B6D4" stroke-width="2" />
  <line x1="140" y1="380" x2="165" y2="380" stroke="#06B6D4" stroke-width="1" />
  <line x1="165" y1="380" x2="165" y2="365" stroke="#06B6D4" stroke-width="2" />
  <line x1="165" y1="365" x2="185" y2="365" stroke="#06B6D4" stroke-width="2" />
  <line x1="185" y1="365" x2="185" y2="380" stroke="#06B6D4" stroke-width="2" />
  <line x1="185" y1="380" x2="210" y2="380" stroke="#06B6D4" stroke-width="1" />
  <line x1="210" y1="380" x2="210" y2="365" stroke="#06B6D4" stroke-width="2" />
  <line x1="210" y1="365" x2="230" y2="365" stroke="#06B6D4" stroke-width="2" />
  <line x1="230" y1="365" x2="230" y2="380" stroke="#06B6D4" stroke-width="2" />
  <line x1="230" y1="380" x2="255" y2="380" stroke="#06B6D4" stroke-width="1" />
  <line x1="255" y1="380" x2="255" y2="365" stroke="#06B6D4" stroke-width="2" />
  <line x1="255" y1="365" x2="275" y2="365" stroke="#06B6D4" stroke-width="2" />
  <line x1="275" y1="365" x2="275" y2="380" stroke="#06B6D4" stroke-width="2" />
  <line x1="275" y1="380" x2="300" y2="380" stroke="#06B6D4" stroke-width="1" />
  <line x1="300" y1="380" x2="300" y2="365" stroke="#06B6D4" stroke-width="2" />
  <line x1="300" y1="365" x2="320" y2="365" stroke="#06B6D4" stroke-width="2" />
  <line x1="320" y1="365" x2="320" y2="380" stroke="#06B6D4" stroke-width="2" />
  <line x1="320" y1="380" x2="345" y2="380" stroke="#06B6D4" stroke-width="1" />
  <line x1="345" y1="380" x2="345" y2="365" stroke="#06B6D4" stroke-width="2" />
  <line x1="345" y1="365" x2="365" y2="365" stroke="#06B6D4" stroke-width="2" />
  <line x1="365" y1="365" x2="365" y2="380" stroke="#06B6D4" stroke-width="2" />
  <line x1="365" y1="380" x2="390" y2="380" stroke="#06B6D4" stroke-width="1" />
  <text x="28" y="405" fill="#38BDF8" font-size="12" font-family="monospace" text-anchor="start">analogWrite(pin, 0-255)</text>
  <text x="28" y="420" fill="#7DD3FC" font-size="11" font-family="monospace" text-anchor="start">0 = 0%, 127 = 50%, 255 = 100%</text>
  <rect x="416" y="296" width="368" height="130" rx="8" fill="#0D2137" stroke="#06B6D4" stroke-width="1" />
  <text x="428" y="318" fill="#38BDF8" font-size="14" font-weight="bold" font-family="sans-serif">Пример: DC мотор</text>
  <text x="426" y="332" fill="#7DD3FC" font-size="11" font-family="monospace" text-anchor="start">// DC мотор через L298N</text>
  <text x="426" y="348" fill="#E0F2FE" font-size="11" font-family="monospace" text-anchor="start">void setup() {</text>
  <text x="426" y="364" fill="#E0F2FE" font-size="11" font-family="monospace" text-anchor="start">  pinMode(5, OUTPUT); // IN1</text>
  <text x="426" y="380" fill="#E0F2FE" font-size="11" font-family="monospace" text-anchor="start">  pinMode(6, OUTPUT); // IN2</text>
  <text x="426" y="396" fill="#E0F2FE" font-size="11" font-family="monospace" text-anchor="start">  pinMode(9, OUTPUT); // ENA(PWM)</text>
  <text x="426" y="412" fill="#E0F2FE" font-size="11" font-family="monospace" text-anchor="start">}</text>
  <text x="426" y="428" fill="#E0F2FE" font-size="11" font-family="monospace" text-anchor="start">void forward() {</text>
  <text x="426" y="444" fill="#E0F2FE" font-size="11" font-family="monospace" text-anchor="start">  digitalWrite(5, HIGH);</text>
  <text x="426" y="460" fill="#E0F2FE" font-size="11" font-family="monospace" text-anchor="start">  digitalWrite(6, LOW);</text>
  <text x="426" y="476" fill="#E0F2FE" font-size="11" font-family="monospace" text-anchor="start">  analogWrite(9, 200);</text>
  <text x="426" y="492" fill="#E0F2FE" font-size="11" font-family="monospace" text-anchor="start">}</text>
  <rect x="16" y="440" width="370" height="100" rx="8" fill="#0D2137" stroke="#06B6D4" stroke-width="1" />
  <text x="28" y="462" fill="#38BDF8" font-size="14" font-weight="bold" font-family="sans-serif">Пример: Серводвигатель</text>
  <text x="26" y="476" fill="#7DD3FC" font-size="11" font-family="monospace" text-anchor="start">#include &amp;lt;Servo.h&amp;gt;</text>
  <text x="26" y="492" fill="#E0F2FE" font-size="11" font-family="monospace" text-anchor="start">Servo myServo;</text>
  <text x="26" y="508" fill="#E0F2FE" font-size="11" font-family="monospace" text-anchor="start">void setup() {</text>
  <text x="26" y="524" fill="#E0F2FE" font-size="11" font-family="monospace" text-anchor="start">  myServo.attach(9);</text>
  <text x="26" y="540" fill="#E0F2FE" font-size="11" font-family="monospace" text-anchor="start">}</text>
  <text x="26" y="556" fill="#E0F2FE" font-size="11" font-family="monospace" text-anchor="start">void loop() {</text>
  <text x="26" y="572" fill="#E0F2FE" font-size="11" font-family="monospace" text-anchor="start">  myServo.write(90);  // 90°</text>
  <text x="26" y="588" fill="#E0F2FE" font-size="11" font-family="monospace" text-anchor="start">}</text>
  <rect x="400" y="440" width="384" height="100" rx="8" fill="#0D2137" stroke="#F59E0B" stroke-width="1" />
  <text x="412" y="462" fill="#38BDF8" font-size="14" font-weight="bold" font-family="sans-serif">Важно помнить</text>
  <text x="412" y="466" fill="#F59E0B" font-size="12" font-family="sans-serif" text-anchor="start" font-weight="bold">⚠ Arduino не может напрямую питать мотор!</text>
  <text x="412" y="486" fill="#E0F2FE" font-size="11" font-family="sans-serif" text-anchor="start">• Мотор потребляет больше 40 мА (предел пина)</text>
  <text x="412" y="502" fill="#E0F2FE" font-size="11" font-family="sans-serif" text-anchor="start">• Используйте драйвер (L298N, L293D)</text>
  <text x="412" y="518" fill="#E0F2FE" font-size="11" font-family="sans-serif" text-anchor="start">• Отдельное питание для мотора</text>
  <text x="400" y="555" fill="#7DD3FC" font-size="11" font-family="sans-serif" text-anchor="middle">7 класс | Робототехника | Урок 6</text>
</svg>