<svg xmlns="http://www.w3.org/2000/svg" viewBox="0 0 500 350">
<rect width="500" height="350" fill="#0D1B2A"/>
<rect x="20" y="40" width="145" height="230" fill="#1a1a3a" rx="8" stroke="#6a4a9a" stroke-width="1"/>
<ellipse cx="92" cy="100" rx="40" ry="25" fill="#2a2a4a" stroke="#9a7aba" stroke-width="1.5"/>
<path d="M72,80 Q82,60 92,80 Q102,60 112,80" fill="#FFD700" stroke="#DAA520" stroke-width="1"/>
<circle cx="92" cy="85" r="8" fill="#FFD700"/>
<text x="92" y="70" font-family="Arial" font-size="7" fill="#B088DD" text-anchor="middle">Монархия</text>
<circle cx="60" cy="160" r="4" fill="#9a7aba" opacity="0.6"/>
<circle cx="80" cy="155" r="4" fill="#9a7aba" opacity="0.6"/>
<circle cx="100" cy="160" r="4" fill="#9a7aba" opacity="0.6"/>
<circle cx="120" cy="155" r="4" fill="#9a7aba" opacity="0.6"/>
<line x1="60" y1="160" x2="120" y2="155" stroke="#6a4a9a" stroke-width="0.5"/>
<text x="92" y="190" font-family="Arial" font-size="7" fill="#B088DD" text-anchor="middle">Власть передаётся</text>
<text x="92" y="202" font-family="Arial" font-size="7" fill="#B088DD" text-anchor="middle">по наследству</text>
<path d="M70,230 Q92,220 115,230" stroke="#9a7aba" stroke-width="1" fill="none" opacity="0.5"/>
<rect x="175" y="40" width="145" height="230" fill="#1a2a1a" rx="8" stroke="#4a8a4a" stroke-width="1"/>
<rect x="220" y="70" width="20" height="25" fill="#3a5a3a" rx="2"/>
<rect x="248" y="70" width="20" height="25" fill="#3a5a3a" rx="2"/>
<line x1="215" y1="98" x2="275" y2="98" stroke="#5a8a5a" stroke-width="1"/>
<circle cx="230" cy="92" r="5" fill="#4CAF50" opacity="0.8"/>
<circle cx="258" cy="92" r="5" fill="#F44336" opacity="0.8"/>
<text x="247" y="65" font-family="Arial" font-size="7" fill="#88CC88" text-anchor="middle">Республика</text>
<text x="247" y="130" font-family="Arial" font-size="7" fill="#88CC88" text-anchor="middle">Власть избранная</text>
<text x="247" y="142" font-family="Arial" font-size="7" fill="#88CC88" text-anchor="middle">народом</text>
<rect x="210" y="160" width="25" height="18" fill="#4CAF50" opacity="0.3" rx="2"/>
<text x="222" y="173" font-family="Arial" font-size="6" fill="#88CC88" text-anchor="middle">✓</text>
<rect x="260" y="160" width="25" height="18" fill="#F44336" opacity="0.3" rx="2"/>
<text x="272" y="173" font-family="Arial" font-size="6" fill="#CC8888" text-anchor="middle">✗</text>
<text x="247" y="195" font-family="Arial" font-size="6" fill="#88CC88" text-anchor="middle">парламентская</text>
<text x="247" y="207" font-family="Arial" font-size="6" fill="#88CC88" text-anchor="middle">президентская</text>
<rect x="330" y="40" width="150" height="230" fill="#2a1a1a" rx="8" stroke="#8a5a4a" stroke-width="1"/>
<rect x="365" y="70" width="80" height="55" fill="#3a2a1a" rx="3" stroke="#8a6a4a" stroke-width="0.8"/>
<line x1="370" y1="80" x2="440" y2="80" stroke="#8a6a4a" stroke-width="0.5"/>
<line x1="370" y1="90" x2="440" y2="90" stroke="#8a6a4a" stroke-width="0.5"/>
<line x1="370" y1="100" x2="430" y2="100" stroke="#8a6a4a" stroke-width="0.5"/>
<line x1="370" y1="110" x2="435" y2="110" stroke="#8a6a4a" stroke-width="0.5"/>
<text x="405" y="65" font-family="Arial" font-size="7" fill="#CC9966" text-anchor="middle">Конституция</text>
<path d="M380,140 Q405,155 430,140" stroke="#8a6a4a" stroke-width="1.5" fill="none"/>
<text x="405" y="180" font-family="Arial" font-size="7" fill="#CC9966" text-anchor="middle">Основной закон</text>
<text x="405" y="192" font-family="Arial" font-size="7" fill="#CC9966" text-anchor="middle">государства</text>
<text x="250" y="300" font-family="Arial" font-size="9" fill="#88AACC" text-anchor="middle">Формы правления определяют</text>
<text x="250" y="315" font-family="Arial" font-size="9" fill="#88AACC" text-anchor="middle">кто и как осуществляет власть</text>
<text x="250" y="342" font-family="Arial" font-size="9" fill="#88AACC" text-anchor="middle" opacity="0.5">Формы правления</text>
</svg>