<svg xmlns="http://www.w3.org/2000/svg" viewBox="0 0 500 350">
<defs><linearGradient id="bg" x1="0" y1="0" x2="1" y2="1"><stop offset="0%" stop-color="#FFF8E1"/><stop offset="100%" stop-color="#FFFDE7"/></linearGradient></defs>
<rect width="500" height="350" fill="url(#bg)" rx="10"/>
<rect x="3" y="3" width="494" height="344" rx="8" fill="none" stroke="#C62828" stroke-width="3"/>
<rect x="8" y="8" width="484" height="334" rx="6" fill="none" stroke="#C62828" stroke-width="1" opacity="0.3"/>
<polygon points="10,10 30,10 10,30" fill="#C62828" opacity="0.08"/>
<polygon points="490,10 470,10 490,30" fill="#1565C0" opacity="0.08"/>
<polygon points="10,340 30,340 10,320" fill="#F9A825" opacity="0.08"/>
<polygon points="490,340 470,340 490,320" fill="#2E7D32" opacity="0.08"/>
<circle cx="70" cy="15" r="4" fill="#C62828" opacity="0.1"/>
<circle cx="82" cy="15" r="4" fill="#1565C0" opacity="0.1"/>
<circle cx="94" cy="15" r="4" fill="#F9A825" opacity="0.1"/>
<circle cx="406" cy="15" r="4" fill="#C62828" opacity="0.1"/>
<circle cx="418" cy="15" r="4" fill="#1565C0" opacity="0.1"/>
<circle cx="430" cy="15" r="4" fill="#F9A825" opacity="0.1"/>
<text x="250" y="50" font-family="Arial,sans-serif" font-size="24" font-weight="bold" fill="#C62828" text-anchor="middle">Жанры и художники 📚</text>
<text x="250" y="68" font-family="Arial,sans-serif" font-size="12" fill="#777" text-anchor="middle">Изобразительное искусство - Урок 7</text>
<line x1="30" y1="78" x2="470" y2="78" stroke="#C62828" stroke-width="2" opacity="0.25"/>
<rect x="30" y="75" width="60" height="6" fill="#C62828" opacity="0.15" rx="1"/>
<rect x="410" y="75" width="60" height="6" fill="#1565C0" opacity="0.12" rx="1"/>

  <rect x="25" y="90" width="220" height="200" rx="6" fill="white" stroke="#7B1FA2" stroke-width="1.5"/>
  <text x="135" y="110" font-family="Arial,sans-serif" font-size="11" fill="#7B1FA2" text-anchor="middle" font-weight="bold">Жанры и художники 📚</text>
  <!-- Palette -->
  <ellipse cx="120" cy="175" rx="55" ry="35" fill="#FFF8E1" stroke="#8D6E63" stroke-width="1.5"/>
  <ellipse cx="120" cy="175" rx="10" ry="8" fill="none" stroke="#8D6E63" stroke-width="1"/>
  <circle cx="95" cy="160" r="7" fill="#C62828"/>
  <circle cx="112" cy="153" r="7" fill="#1565C0"/>
  <circle cx="130" cy="153" r="7" fill="#F9A825"/>
  <circle cx="145" cy="160" r="7" fill="#2E7D32"/>
  <circle cx="90" cy="180" r="6" fill="#FF9800"/>
  <circle cx="105" cy="188" r="6" fill="#7B1FA2"/>
  <circle cx="145" cy="185" r="6" fill="#00BCD4"/>
  <!-- Brush -->
  <line x1="170" y1="145" x2="205" y2="220" stroke="#8D6E63" stroke-width="3"/>
  <path d="M205,220 Q210,228 202,230" stroke="#8D6E63" stroke-width="1" fill="none"/>
  <text x="135" y="240" font-family="Arial,sans-serif" font-size="8" fill="#7B1FA2" text-anchor="middle">живопись</text>
  <text x="135" y="258" font-family="Arial,sans-serif" font-size="7" fill="#888" text-anchor="middle">цвет, композиция</text>

  <rect x="260" y="90" width="215" height="200" rx="6" fill="white" stroke="#F9A825" stroke-width="1.5"/>
  <text x="367" y="115" font-family="Arial,sans-serif" font-size="12" fill="#F9A825" text-anchor="middle" font-weight="bold">Жанры искусства</text>
  <!-- Landscape mini -->
  <rect x="280" y="128" width="85" height="50" rx="3" fill="#E3F2FD"/>
  <rect x="280" y="158" width="85" height="20" fill="#A5D6A7"/>
  <circle cx="340" cy="140" r="8" fill="#FFF9C4"/>
  <polygon points="300,158 315,140 330,158" fill="#8D6E63"/>
  <text x="322" y="185" font-family="Arial,sans-serif" font-size="7" fill="#555" text-anchor="middle">пейзаж</text>
  <!-- Portrait mini -->
  <rect x="375" y="128" width="85" height="50" rx="3" fill="#FFF3E0"/>
  <circle cx="417" cy="150" r="12" fill="#FFCC80"/>
  <rect x="408" y="162" width="18" height="12" rx="3" fill="#78909C"/>
  <text x="417" y="185" font-family="Arial,sans-serif" font-size="7" fill="#555" text-anchor="middle">портрет</text>
  <!-- Still life -->
  <rect x="280" y="195" width="85" height="50" rx="3" fill="#FFF8E1"/>
  <ellipse cx="310" cy="235" rx="15" ry="8" fill="#FFCDD2" stroke="#C62828" stroke-width="1"/>
  <rect x="330" y="215" width="20" height="25" rx="3" fill="#BBDEFB" stroke="#1565C0" stroke-width="1"/>
  <text x="322" y="253" font-family="Arial,sans-serif" font-size="7" fill="#555" text-anchor="middle">натюрморт</text>
  <!-- History -->
  <rect x="375" y="195" width="85" height="50" rx="3" fill="#FFEBEE"/>
  <circle cx="417" cy="215" r="10" fill="#FFCC80"/>
  <rect x="408" y="225" width="18" height="12" rx="2" fill="#C62828"/>
  <line x1="410" y1="231" x2="424" y2="231" stroke="#F9A825" stroke-width="1"/>
  <text x="417" y="253" font-family="Arial,sans-serif" font-size="7" fill="#555" text-anchor="middle">историч.</text>
<rect x="15" y="310" width="470" height="30" rx="4" fill="#C62828" opacity="0.85"/>
<text x="250" y="330" font-family="Arial,sans-serif" font-size="15" text-anchor="middle" fill="white" font-weight="bold">ИЗО</text>
</svg>