<svg xmlns="http://www.w3.org/2000/svg" viewBox="0 0 500 350">
<defs>
<linearGradient id="bg" x1="0" y1="0" x2="1" y2="1"><stop offset="0%" stop-color="#E3F2FD"/><stop offset="100%" stop-color="#BBDEFB"/></linearGradient>
</defs>
<rect width="500" height="350" fill="url(#bg)" rx="10"/>
<rect x="3" y="3" width="494" height="344" rx="8" fill="none" stroke="#1565C0" stroke-width="2.5"/>
<text x="250" y="28" font-family="Arial,sans-serif" font-size="14" font-weight="bold" fill="#0D47A1" text-anchor="middle">Голосеменные</text>
<text x="250" y="43" font-family="Arial,sans-serif" font-size="9" fill="#666" text-anchor="middle">Биология 5 класс — Урок 22</text>
<line x1="30" y1="50" x2="470" y2="50" stroke="#1565C0" stroke-width="1" opacity="0.3"/>

<!-- Сосна (Pine) -->
<g transform="translate(100,175)">
  <rect x="-70" y="-90" width="140" height="175" rx="8" fill="white" opacity="0.9" stroke="#1565C0" stroke-width="1.5"/>
  <text x="0" y="-73" font-family="Arial,sans-serif" font-size="9" fill="#0D47A1" text-anchor="middle" font-weight="bold">СОСНА</text>
  <line x1="-60" y1="-67" x2="60" y2="-67" stroke="#1565C0" stroke-width="0.5"/>
  
  <!-- Tree trunk -->
  <rect x="-5" y="-55" width="10" height="70" fill="#8D6E63" stroke="#5D4037" stroke-width="1"/>
  <!-- Crown layers -->
  <path d="M-40,-55 Q0,-85 40,-55" fill="#2E7D32" stroke="#1B5E20" stroke-width="1"/>
  <path d="M-45,-45 Q0,-70 45,-45" fill="#388E3C" stroke="#1B5E20" stroke-width="1"/>
  <path d="M-50,-35 Q0,-55 50,-35" fill="#43A047" stroke="#1B5E20" stroke-width="1"/>
  
  <!-- Needles -->
  <path d="M-30,-50 L-35,-55" stroke="#2E7D32" stroke-width="1"/>
  <path d="M-25,-45 L-30,-50" stroke="#2E7D32" stroke-width="1"/>
  <path d="M25,-45 L30,-50" stroke="#2E7D32" stroke-width="1"/>
  <path d="M30,-50 L35,-55" stroke="#2E7D32" stroke-width="1"/>
  
  <!-- Cone (шишка) -->
  <g transform="translate(35,-25)">
    <ellipse cx="0" cy="0" rx="7" ry="14" fill="#8D6E63" stroke="#5D4037" stroke-width="1"/>
    <!-- Scales -->
    <path d="M-6,-10 Q0,-8 6,-10" fill="none" stroke="#5D4037" stroke-width="0.8"/>
    <path d="M-7,-5 Q0,-3 7,-5" fill="none" stroke="#5D4037" stroke-width="0.8"/>
    <path d="M-7,0 Q0,2 7,0" fill="none" stroke="#5D4037" stroke-width="0.8"/>
    <path d="M-6,5 Q0,7 6,5" fill="none" stroke="#5D4037" stroke-width="0.8"/>
    <text x="0" y="22" font-family="Arial,sans-serif" font-size="5" fill="#5D4037" text-anchor="middle">Шишка</text>
  </g>
  
  <!-- Root system -->
  <path d="M-5,15 Q-20,30 -25,40" fill="none" stroke="#795548" stroke-width="1.5"/>
  <path d="M5,15 Q20,30 25,38" fill="none" stroke="#795548" stroke-width="1.5"/>
  <path d="M0,15 Q0,30 0,38" fill="none" stroke="#795548" stroke-width="1.5"/>
  
  <!-- Needle detail -->
  <g transform="translate(-35,30)">
    <path d="M0,0 L15,-3" stroke="#2E7D32" stroke-width="1.5" stroke-linecap="round"/>
    <path d="M0,5 L15,2" stroke="#2E7D32" stroke-width="1.5" stroke-linecap="round"/>
    <text x="20" y="-1" font-family="Arial,sans-serif" font-size="4" fill="#2E7D32">Хвоинки</text>
    <text x="20" y="5" font-family="Arial,sans-serif" font-size="4" fill="#2E7D32">по 2 в пучке</text>
  </g>
  
  <text x="0" y="60" font-family="Arial,sans-serif" font-size="5" fill="#0D47A1" text-anchor="middle">Стержневая корневая</text>
  <text x="0" y="68" font-family="Arial,sans-serif" font-size="5" fill="#0D47A1" text-anchor="middle">система, глубоко</text>
  <text x="0" y="76" font-family="Arial,sans-serif" font-size="5" fill="#0D47A1" text-anchor="middle">идущие корни</text>
</g>

<!-- Ель (Spruce) -->
<g transform="translate(250,175)">
  <rect x="-55" y="-90" width="110" height="175" rx="8" fill="white" opacity="0.9" stroke="#1565C0" stroke-width="1.5"/>
  <text x="0" y="-73" font-family="Arial,sans-serif" font-size="9" fill="#0D47A1" text-anchor="middle" font-weight="bold">ЕЛЬ</text>
  <line x1="-45" y1="-67" x2="45" y2="-67" stroke="#1565C0" stroke-width="0.5"/>
  
  <!-- Tree - triangular shape -->
  <rect x="-4" y="-25" width="8" height="40" fill="#8D6E63" stroke="#5D4037" stroke-width="1"/>
  <path d="M-40,-25 L0,-65 L40,-25" fill="#1B5E20" stroke="#0D47A1" stroke-width="1"/>
  <path d="M-35,-15 L0,-50 L35,-15" fill="#2E7D32" stroke="#1B5E20" stroke-width="1"/>
  <path d="M-30,-5 L0,-35 L30,-5" fill="#388E3C" stroke="#1B5E20" stroke-width="1"/>
  
  <!-- Hanging cone -->
  <g transform="translate(15,-10)">
    <ellipse cx="0" cy="0" rx="5" ry="12" fill="#A1887F" stroke="#5D4037" stroke-width="1"/>
    <line x1="-4" y1="-5" x2="4" y2="-5" stroke="#5D4037" stroke-width="0.5"/>
    <line x1="-4" y1="0" x2="4" y2="0" stroke="#5D4037" stroke-width="0.5"/>
    <line x1="-4" y1="5" x2="4" y2="5" stroke="#5D4037" stroke-width="0.5"/>
    <line x1="0" y1="-12" x2="0" y2="-15" stroke="#5D4037" stroke-width="0.8"/>
  </g>
  
  <!-- Needle detail -->
  <path d="M-25,25 L-10,22" stroke="#2E7D32" stroke-width="1" stroke-linecap="round"/>
  <path d="M-25,28 L-10,25" stroke="#2E7D32" stroke-width="1" stroke-linecap="round"/>
  <text x="-5" y="25" font-family="Arial,sans-serif" font-size="4" fill="#2E7D32">Хвоинки</text>
  <text x="-5" y="31" font-family="Arial,sans-serif" font-size="4" fill="#2E7D32">по 1</text>
  
  <text x="0" y="50" font-family="Arial,sans-serif" font-size="5" fill="#0D47A1" text-anchor="middle">Поверхностная</text>
  <text x="0" y="58" font-family="Arial,sans-serif" font-size="5" fill="#0D47A1" text-anchor="middle">корневая система</text>
  <text x="0" y="68" font-family="Arial,sans-serif" font-size="5" fill="#0D47A1" text-anchor="middle">Шишки висят вниз</text>
  <text x="0" y="76" font-family="Arial,sans-serif" font-size="5" fill="#0D47A1" text-anchor="middle">Ветви до земли</text>
</g>

<!-- Cone structure (seed detail) -->
<g transform="translate(400,145)">
  <rect x="-60" y="-60" width="120" height="115" rx="6" fill="white" opacity="0.9" stroke="#FF9800" stroke-width="1"/>
  <text x="0" y="-43" font-family="Arial,sans-serif" font-size="7" fill="#E65100" text-anchor="middle" font-weight="bold">СЕМЯ ГОЛОСЕМЕННЫХ</text>
  <line x1="-50" y1="-37" x2="50" y2="-37" stroke="#FF9800" stroke-width="0.5"/>
  
  <!-- Cone scale with seed -->
  <path d="M-30,-25 Q-20,-30 0,-25 Q20,-30 30,-25 Q25,-15 0,-10 Q-25,-15 -30,-25" fill="#8D6E63" stroke="#5D4037" stroke-width="1"/>
  <!-- Seed on scale -->
  <ellipse cx="0" cy="-20" rx="5" ry="3" fill="#FFCC80" stroke="#E65100" stroke-width="0.8"/>
  <text x="0" y="-18" font-family="Arial,sans-serif" font-size="3" fill="#E65100" text-anchor="middle">семя</text>
  <!-- Wing -->
  <path d="M5,-20 Q15,-25 20,-20 Q15,-15 5,-20" fill="#FFE0B2" stroke="#E65100" stroke-width="0.5" opacity="0.7"/>
  <text x="25" y="-18" font-family="Arial,sans-serif" font-size="4" fill="#E65100">крыло</text>
  
  <!-- Seed detail -->
  <ellipse cx="-15" cy="10" rx="10" ry="6" fill="#FFCC80" stroke="#E65100" stroke-width="1"/>
  <text x="-15" y="13" font-family="Arial,sans-serif" font-size="4" fill="#E65100" text-anchor="middle">Семя</text>
  <text x="20" y="5" font-family="Arial,sans-serif" font-size="5" fill="#E65100">Семя открыто</text>
  <text x="20" y="13" font-family="Arial,sans-serif" font-size="5" fill="#E65100">(не в плоде!)</text>
  <text x="20" y="21" font-family="Arial,sans-serif" font-size="5" fill="#E65100">голосеменное</text>
  
  <!-- Pollen -->
  <circle cx="-25" cy="30" r="4" fill="#FFD54F" stroke="#F9A825" stroke-width="0.8"/>
  <path d="M-25,26 L-25,24" stroke="#F9A825" stroke-width="0.5"/>
  <path d="M-21,30 L-19,30" stroke="#F9A825" stroke-width="0.5"/>
  <path d="M-29,30 L-31,30" stroke="#F9A825" stroke-width="0.5"/>
  <text x="10" y="33" font-family="Arial,sans-serif" font-size="5" fill="#F9A825">Пыльца</text>
  <text x="10" y="40" font-family="Arial,sans-serif" font-size="5" fill="#F9A825">(ветром)</text>
  
  <text x="0" y="50" font-family="Arial,sans-serif" font-size="4.5" fill="#E65100" text-anchor="middle">Опыление ветром</text>
</g>

<!-- Bottom -->
<rect x="30" y="310" width="440" height="25" rx="6" fill="white" opacity="0.9" stroke="#1565C0" stroke-width="1"/>
<text x="250" y="322" font-family="Arial,sans-serif" font-size="6.5" fill="#0D47A1" text-anchor="middle" font-weight="bold">Голосеменные: семена не в плодах (голые) · хвоя · смола · вечнозелёные и листопадные</text>
<text x="250" y="332" font-family="Arial,sans-serif" font-size="5.5" fill="#666" text-anchor="middle">Сосна, ель, лиственница, пихта, кедр, можжевельник · Лесообразователи</text>
</svg>