<svg xmlns="http://www.w3.org/2000/svg" viewBox="0 0 500 350">
<defs>
<linearGradient id="bg" x1="0" y1="0" x2="1" y2="1"><stop offset="0%" stop-color="#FFF3E0"/><stop offset="100%" stop-color="#FFE0B2"/></linearGradient>
</defs>
<rect width="500" height="350" fill="url(#bg)" rx="10"/>
<rect x="3" y="3" width="494" height="344" rx="8" fill="none" stroke="#E65100" stroke-width="2.5"/>
<text x="250" y="28" font-family="Arial,sans-serif" font-size="14" font-weight="bold" fill="#BF360C" text-anchor="middle">Химический состав клетки</text>
<text x="250" y="43" font-family="Arial,sans-serif" font-size="9" fill="#666" text-anchor="middle">Биология 5 класс — Урок 8</text>
<line x1="30" y1="50" x2="470" y2="50" stroke="#E65100" stroke-width="1" opacity="0.3"/>

<!-- Pie chart: Cell composition -->
<g transform="translate(120,180)">
  <text x="0" y="-90" font-family="Arial,sans-serif" font-size="9" fill="#BF360C" text-anchor="middle" font-weight="bold">Состав клетки</text>
  
  <!-- Water 70-80% -->
  <path d="M0,0 L0,-70 A70,70 0 0,1 66.6,23 Z" fill="#42A5F5" opacity="0.7" stroke="#1565C0" stroke-width="1"/>
  <text x="35" y="-30" font-family="Arial,sans-serif" font-size="7" fill="#0D47A1" font-weight="bold">Вода</text>
  <text x="35" y="-20" font-family="Arial,sans-serif" font-size="6" fill="#0D47A1">70-80%</text>
  
  <!-- Organic 20-30% -->
  <path d="M0,0 L66.6,23 A70,70 0 0,1 -30,63 Z" fill="#66BB6A" opacity="0.7" stroke="#2E7D32" stroke-width="1"/>
  <text x="15" y="40" font-family="Arial,sans-serif" font-size="7" fill="#1B5E20" font-weight="bold">Орган.</text>
  <text x="15" y="50" font-family="Arial,sans-serif" font-size="6" fill="#1B5E20">20-30%</text>
  
  <!-- Minerals 1-1.5% -->
  <path d="M0,0 L-30,63 A70,70 0 0,1 -60,-35 Z" fill="#FFB74D" opacity="0.7" stroke="#E65100" stroke-width="1"/>
  <text x="-40" y="15" font-family="Arial,sans-serif" font-size="6" fill="#BF360C" font-weight="bold">Минер.</text>
  <text x="-40" y="24" font-family="Arial,sans-serif" font-size="5" fill="#BF360C">1-1.5%</text>
  
  <!-- Water molecule -->
  <g transform="translate(0,85)">
    <circle cx="-8" cy="0" r="6" fill="#F44336" opacity="0.6" stroke="#C62828" stroke-width="0.8"/>
    <text x="-8" y="3" font-family="Arial,sans-serif" font-size="5" fill="white" text-anchor="middle">O</text>
    <line x1="-3" y1="-2" x2="5" y2="-6" stroke="#999" stroke-width="1"/>
    <circle cx="8" cy="-8" r="4" fill="#E0E0E0" stroke="#999" stroke-width="0.8"/>
    <text x="8" y="-6" font-family="Arial,sans-serif" font-size="4" fill="#666" text-anchor="middle">H</text>
    <line x1="-3" y1="2" x2="5" y2="6" stroke="#999" stroke-width="1"/>
    <circle cx="8" cy="8" r="4" fill="#E0E0E0" stroke="#999" stroke-width="0.8"/>
    <text x="8" y="10" font-family="Arial,sans-serif" font-size="4" fill="#666" text-anchor="middle">H</text>
  </g>
</g>

<!-- Organic substances detail -->
<g transform="translate(350,180)">
  <rect x="-110" y="-95" width="220" height="185" rx="8" fill="white" opacity="0.9" stroke="#E65100" stroke-width="1.5"/>
  <text x="0" y="-78" font-family="Arial,sans-serif" font-size="9" fill="#BF360C" text-anchor="middle" font-weight="bold">Органические вещества</text>
  <line x1="-100" y1="-72" x2="100" y2="-72" stroke="#E65100" stroke-width="0.5"/>
  
  <!-- Белки (Proteins) -->
  <rect x="-95" y="-65" width="100" height="35" rx="4" fill="#FFEBEE" stroke="#C62828" stroke-width="1"/>
  <path d="M-80,-50 Q-75,-58 -70,-50 Q-65,-42 -60,-50" fill="none" stroke="#C62828" stroke-width="1.5"/>
  <path d="M-80,-45 Q-75,-38 -70,-45" fill="none" stroke="#C62828" stroke-width="1"/>
  <text x="20" y="-50" font-family="Arial,sans-serif" font-size="7" fill="#C62828" font-weight="bold">Белки</text>
  <text x="20" y="-40" font-family="Arial,sans-serif" font-size="5" fill="#C62828">аминокислоты</text>
  
  <!-- Жиры (Lipids) -->
  <rect x="5" y="-65" width="100" height="35" rx="4" fill="#FFF3E0" stroke="#E65100" stroke-width="1"/>
  <path d="M25,-50 L20,-45 L25,-40" fill="none" stroke="#E65100" stroke-width="1.2"/>
  <path d="M28,-50 L23,-45 L28,-40" fill="none" stroke="#E65100" stroke-width="1.2"/>
  <path d="M31,-50 L26,-45 L31,-40" fill="none" stroke="#E65100" stroke-width="1.2"/>
  <text x="70" y="-50" font-family="Arial,sans-serif" font-size="7" fill="#E65100" font-weight="bold">Жиры</text>
  <text x="70" y="-40" font-family="Arial,sans-serif" font-size="5" fill="#E65100">глицерин + к-ты</text>
  
  <!-- Углеводы (Carbohydrates) -->
  <rect x="-95" y="-25" width="100" height="35" rx="4" fill="#E8F5E9" stroke="#2E7D32" stroke-width="1"/>
  <path d="M-80,-10 L-75,-15 L-70,-10 L-65,-15 L-60,-10" fill="none" stroke="#2E7D32" stroke-width="1.5"/>
  <circle cx="-58" cy="-10" r="4" fill="#81C784" stroke="#2E7D32" stroke-width="0.5"/>
  <text x="20" y="-10" font-family="Arial,sans-serif" font-size="7" fill="#2E7D32" font-weight="bold">Углеводы</text>
  <text x="20" y="0" font-family="Arial,sans-serif" font-size="5" fill="#2E7D32">C, H, O</text>
  
  <!-- Нуклеиновые кислоты (Nucleic acids) -->
  <rect x="5" y="-25" width="100" height="35" rx="4" fill="#E3F2FD" stroke="#1565C0" stroke-width="1"/>
  <path d="M25,-15 C28,-10 22,-5 25,0" fill="none" stroke="#1565C0" stroke-width="1.5"/>
  <path d="M30,-15 C27,-10 33,-5 30,0" fill="none" stroke="#C62828" stroke-width="1.5"/>
  <line x1="26" y1="-12" x2="29" y2="-12" stroke="#666" stroke-width="0.8"/>
  <line x1="24" y1="-7" x2="31" y2="-7" stroke="#666" stroke-width="0.8"/>
  <line x1="26" y1="-2" x2="29" y2="-2" stroke="#666" stroke-width="0.8"/>
  <text x="70" y="-10" font-family="Arial,sans-serif" font-size="6" fill="#1565C0" font-weight="bold">ДНК</text>
  <text x="70" y="0" font-family="Arial,sans-serif" font-size="5" fill="#1565C0">нуклеотиды</text>
  
  <!-- Functions summary -->
  <rect x="-95" y="18" width="200" height="60" rx="4" fill="#FFF8E1" stroke="#F9A825" stroke-width="0.5"/>
  <text x="5" y="33" font-family="Arial,sans-serif" font-size="6" fill="#BF360C" text-anchor="middle" font-weight="bold">Функции органических веществ:</text>
  <text x="5" y="44" font-family="Arial,sans-serif" font-size="5.5" fill="#666" text-anchor="middle">Белки — строительная, ферменты</text>
  <text x="5" y="53" font-family="Arial,sans-serif" font-size="5.5" fill="#666" text-anchor="middle">Жиры — запас энергии, защита</text>
  <text x="5" y="62" font-family="Arial,sans-serif" font-size="5.5" fill="#666" text-anchor="middle">Углеводы — энергия, ДНК — наследств.</text>
</g>

<!-- Bottom -->
<rect x="30" y="310" width="440" height="25" rx="6" fill="white" opacity="0.9" stroke="#E65100" stroke-width="1"/>
<text x="250" y="327" font-family="Arial,sans-serif" font-size="7" fill="#BF360C" text-anchor="middle" font-weight="bold">Неорганические: вода (80%) + минеральные соли (1%) | Органические: белки, жиры, углеводы, нуклеиновые кислоты</text>
</svg>