<svg xmlns="http://www.w3.org/2000/svg" viewBox="0 0 500 350">
<defs><linearGradient id="bg" x1="0" y1="0" x2="1" y2="1"><stop offset="0%" stop-color="#FFF8E1"/><stop offset="100%" stop-color="#FFFDE7"/></linearGradient></defs>
<rect width="500" height="350" fill="url(#bg)" rx="10"/>
<rect x="3" y="3" width="494" height="344" rx="8" fill="none" stroke="#C62828" stroke-width="3"/>
<rect x="8" y="8" width="484" height="334" rx="6" fill="none" stroke="#C62828" stroke-width="1" opacity="0.3"/>
<polygon points="10,10 30,10 10,30" fill="#C62828" opacity="0.08"/>
<polygon points="490,10 470,10 490,30" fill="#1565C0" opacity="0.08"/>
<polygon points="10,340 30,340 10,320" fill="#F9A825" opacity="0.08"/>
<polygon points="490,340 470,340 490,320" fill="#2E7D32" opacity="0.08"/>
<circle cx="70" cy="15" r="4" fill="#C62828" opacity="0.1"/>
<circle cx="82" cy="15" r="4" fill="#1565C0" opacity="0.1"/>
<circle cx="94" cy="15" r="4" fill="#F9A825" opacity="0.1"/>
<circle cx="406" cy="15" r="4" fill="#C62828" opacity="0.1"/>
<circle cx="418" cy="15" r="4" fill="#1565C0" opacity="0.1"/>
<circle cx="430" cy="15" r="4" fill="#F9A825" opacity="0.1"/>
<text x="250" y="50" font-family="Arial,sans-serif" font-size="24" font-weight="bold" fill="#C62828" text-anchor="middle">Иван IV Грозный</text>
<text x="250" y="68" font-family="Arial,sans-serif" font-size="12" fill="#777" text-anchor="middle">История - Урок 3</text>
<line x1="30" y1="78" x2="470" y2="78" stroke="#C62828" stroke-width="2" opacity="0.25"/>
<rect x="30" y="75" width="60" height="6" fill="#C62828" opacity="0.15" rx="1"/>
<rect x="410" y="75" width="60" height="6" fill="#1565C0" opacity="0.12" rx="1"/>

  <rect x="25" y="90" width="220" height="200" rx="6" fill="white" stroke="#C62828" stroke-width="1.5"/>
  <text x="135" y="106" font-family="Arial,sans-serif" font-size="10" fill="#C62828" font-weight="bold" text-anchor="middle">Иван IV Грозный</text>
  <!-- Figure -->
  <circle cx="100" cy="140" r="16" fill="#FFCC80" stroke="#E65100" stroke-width="1.5"/>
  <path d="M87,128 L89,120 L93,127 L97,118 L101,127 L105,120 L107,128" fill="#F9A825" stroke="#C62828" stroke-width="1"/>
  <rect x="84" y="156" width="32" height="55" rx="4" fill="#1B5E20"/>
  <line x1="94" y1="211" x2="90" y2="248" stroke="#5D4037" stroke-width="4"/>
  <line x1="106" y1="211" x2="110" y2="248" stroke="#5D4037" stroke-width="4"/>
  <!-- Sword -->
  <line x1="120" y1="160" x2="145" y2="130" stroke="#888" stroke-width="2"/>
  <rect x="140" y="124" width="12" height="3" rx="1" fill="#F9A825"/>
  <text x="100" y="270" font-family="Arial,sans-serif" font-size="7" fill="#1B5E20" text-anchor="middle">первый царь (1547)</text>
  
  <!-- Oprichnina -->
  <rect x="165" y="130" width="70" height="80" rx="5" fill="#1B5E20" opacity="0.1" stroke="#1B5E20" stroke-width="1.5"/>
  <text x="200" y="148" font-family="Arial,sans-serif" font-size="8" fill="#1B5E20" text-anchor="middle" font-weight="bold">Опричнина</text>
  <line x1="175" y1="160" x2="225" y2="160" stroke="#E0E0E0" stroke-width="1"/>
  <text x="200" y="175" font-family="Arial,sans-serif" font-size="7" fill="#555" text-anchor="middle">1565-1572</text>
  <text x="200" y="190" font-family="Arial,sans-serif" font-size="7" fill="#555" text-anchor="middle">специальное</text>
  <text x="200" y="203" font-family="Arial,sans-serif" font-size="7" fill="#555" text-anchor="middle">войско царя</text>

  <rect x="260" y="90" width="215" height="200" rx="6" fill="white" stroke="#1565C0" stroke-width="1.5"/>
  <text x="367" y="106" font-family="Arial,sans-serif" font-size="10" fill="#1565C0" font-weight="bold" text-anchor="middle">Достижения</text>
  <text x="367" y="130" font-family="Arial,sans-serif" font-size="8" fill="#555" text-anchor="middle">Казанское ханство (1552)</text>
  <text x="367" y="148" font-family="Arial,sans-serif" font-size="8" fill="#555" text-anchor="middle">Астраханское ханство (1556)</text>
  <text x="367" y="166" font-family="Arial,sans-serif" font-size="8" fill="#555" text-anchor="middle">Стоглавый собор (1551)</text>
  <!-- St Basil Cathedral -->
  <rect x="310" y="185" width="110" height="60" rx="3" fill="#FFF3E0"/>
  <rect x="320" y="200" width="12" height="35" fill="#C62828"/>
  <path d="M317,200 Q326,180 335,200 Z" fill="#C62828"/>
  <rect x="338" y="195" width="12" height="40" fill="#1565C0"/>
  <path d="M335,195 Q344,175 353,195 Z" fill="#1565C0"/>
  <rect x="356" y="200" width="12" height="35" fill="#2E7D32"/>
  <path d="M353,200 Q362,182 371,200 Z" fill="#2E7D32"/>
  <rect x="374" y="195" width="12" height="40" fill="#F9A825"/>
  <path d="M371,195 Q380,178 389,195 Z" fill="#F9A825"/>
  <rect x="392" y="200" width="12" height="35" fill="#C62828"/>
  <path d="M389,200 Q398,185 407,200 Z" fill="#C62828"/>
  <text x="365" y="275" font-family="Arial,sans-serif" font-size="7" fill="#888" text-anchor="middle">Покровский собор</text>
<rect x="15" y="310" width="470" height="30" rx="4" fill="#C62828" opacity="0.85"/>
<text x="250" y="330" font-family="Arial,sans-serif" font-size="15" text-anchor="middle" fill="white" font-weight="bold">История</text>
</svg>