<svg xmlns="http://www.w3.org/2000/svg" viewBox="0 0 500 350">
<defs>
  <linearGradient id="bg" x1="0%" y1="0%" x2="100%" y2="100%">
    <stop offset="0%" style="stop-color:#8E24AA"/>
    <stop offset="100%" style="stop-color:#CE93D8"/>
  </linearGradient>
  <linearGradient id="card" x1="0%" y1="0%" x2="0%" y2="100%">
    <stop offset="0%" style="stop-color:rgba(255,255,255,0.95)"/>
    <stop offset="100%" style="stop-color:rgba(255,255,255,0.85)"/>
  </linearGradient>
</defs>
<rect width="500" height="350" fill="url(#bg)"/>
<circle cx="50" cy="30" r="40" fill="white" opacity="0.08"/>
<circle cx="160" cy="150" r="40" fill="white" opacity="0.08"/>
<circle cx="270" cy="270" r="40" fill="white" opacity="0.08"/>
<circle cx="380" cy="30" r="40" fill="white" opacity="0.08"/>
<circle cx="490" cy="150" r="40" fill="white" opacity="0.08"/>
<rect x="20" y="50" width="460" height="270" rx="16" fill="url(#card)" opacity="0.92"/>
<rect x="30" y="60" width="auto" height="24" rx="12" fill="#8E24AA" opacity="0.9"/>
<rect x="30" y="60" width="220" height="24" rx="12" fill="#8E24AA" opacity="0.9"/>
<text x="140" y="77" text-anchor="middle" font-family="Arial,sans-serif" font-size="11" fill="white" font-weight="bold">Изобразительное искусство</text>
<text x="470" y="77" text-anchor="end" font-family="Arial,sans-serif" font-size="11" fill="#8E24AA" font-weight="bold">Урок 5</text>
<text x="40" y="105" font-family="Arial,sans-serif" font-size="18" fill="#1a1a1a" font-weight="bold">Русские художники</text>
<line x1="40" y1="115" x2="460" y2="115" stroke="#E1BEE7" stroke-width="2"/>
<text x="40" y="135" font-family="Arial,sans-serif" font-size="13" fill="#444">Известные русские живописцы.</text>
<rect x="40" y="155" width="420" height="30" rx="6" fill="#8E24AA" opacity="0.08"/>
<text x="50" y="175" font-family="Arial,sans-serif" font-size="11" fill="#444">«Девочка с персиками» — в Третьяковке</text>
<rect x="40" y="191" width="420" height="30" rx="6" fill="#8E24AA" opacity="0.08"/>
<text x="50" y="211" font-family="Arial,sans-serif" font-size="11" fill="#444">Репин учился в Академии художеств</text>
<rect x="40" y="227" width="420" height="30" rx="6" fill="#8E24AA" opacity="0.08"/>
<text x="50" y="247" font-family="Arial,sans-serif" font-size="11" fill="#444">Левитан родился в бедной семье</text>
<circle cx="460" cy="310" r="25" fill="#8E24AA" opacity="0.15"/>
<circle cx="460" cy="310" r="15" fill="#8E24AA" opacity="0.1"/>
</svg>