<?xml version='1.0' encoding='utf-8'?>
<svg xmlns="http://www.w3.org/2000/svg" width="800" height="600" viewBox="0 0 800 600">
  <defs>
    <linearGradient id="bgGrad" x1="0%" y1="0%" x2="0%" y2="100%">
      <stop offset="0%" style="stop-color:#FFFBEB;stop-opacity:1" />
      <stop offset="100%" style="stop-color:#FED7AA;stop-opacity:1" />
    </linearGradient>
    <linearGradient id="titleGrad" x1="0%" y1="0%" x2="100%" y2="0%">
      <stop offset="0%" style="stop-color:#9A3412;stop-opacity:1" />
      <stop offset="100%" style="stop-color:#EA580C;stop-opacity:1" />
    </linearGradient>
    <linearGradient id="accentGrad" x1="0%" y1="0%" x2="100%" y2="100%">
      <stop offset="0%" style="stop-color:#EA580C;stop-opacity:1" />
      <stop offset="100%" style="stop-color:#D97706;stop-opacity:1" />
    </linearGradient>
    <linearGradient id="goldGrad" x1="0%" y1="0%" x2="100%" y2="0%">
      <stop offset="0%" style="stop-color:#D97706;stop-opacity:1" />
      <stop offset="100%" style="stop-color:#F59E0B;stop-opacity:1" />
    </linearGradient>
    <filter id="shadow" x="-5%" y="-5%" width="110%" height="110%">
      <feDropShadow dx="2" dy="2" stdDeviation="3" floodColor="#9A3412" floodOpacity="0.2" />
    </filter>
    <filter id="softShadow" x="-5%" y="-5%" width="110%" height="110%">
      <feDropShadow dx="1" dy="1" stdDeviation="2" floodColor="#000" floodOpacity="0.15" />
    </filter>
  </defs>
  <rect width="800" height="600" fill="url(#bgGrad)" />
  <rect x="8" y="8" width="784" height="584" fill="none" stroke="#EA580C" strokeWidth="2" rx="8" />
  <rect x="14" y="14" width="772" height="572" fill="none" stroke="#D97706" strokeWidth="1" rx="6" strokeDasharray="8,4" />
  <rect x="20" y="16" width="760" height="60" fill="url(#titleGrad)" rx="6" filter="url(#shadow)" />
  <text x="400" y="48" fill="white" fontSize="22" fontWeight="bold" textAnchor="middle" fontFamily="serif">Искусство Возрождения</text>
  <text x="400" y="68" fill="#FED7AA" fontSize="12" textAnchor="middle" fontFamily="sans-serif">Леонардо, Микеланджело, Рафаэль — титаны Ренессанса</text>
  <circle cx="35" cy="46" r="6" fill="#D97706" opacity="0.6" />
  <circle cx="765" cy="46" r="6" fill="#D97706" opacity="0.6" />
  <circle cx="52" cy="100" r="18" fill="#EA580C" filter="url(#softShadow)" />
  <text x="52" y="106" fill="white" fontSize="16" fontWeight="bold" textAnchor="middle" fontFamily="sans-serif">9</text>
  <circle cx="160" cy="310" r="45" fill="#FEF3C7" stroke="#D97706" strokeWidth="2" />
  <text x="160" y="305" fill="#9A3412" fontSize="9" fontWeight="bold" textAnchor="middle" fontFamily="sans-serif">Леонардо</text>
  <text x="160" y="318" fill="#78350F" fontSize="8" textAnchor="middle" fontFamily="sans-serif">да Винчи</text>
  <circle cx="400" cy="280" r="45" fill="#FEF3C7" stroke="#EA580C" strokeWidth="2" />
  <text x="400" y="275" fill="#9A3412" fontSize="9" fontWeight="bold" textAnchor="middle" fontFamily="sans-serif">Микеланджело</text>
  <text x="400" y="288" fill="#78350F" fontSize="8" textAnchor="middle" fontFamily="sans-serif">Буонарроти</text>
  <circle cx="640" cy="310" r="45" fill="#FEF3C7" stroke="#1E40AF" strokeWidth="2" />
  <text x="640" y="305" fill="#9A3412" fontSize="9" fontWeight="bold" textAnchor="middle" fontFamily="sans-serif">Рафаэль</text>
  <text x="640" y="318" fill="#78350F" fontSize="8" textAnchor="middle" fontFamily="sans-serif">Санти</text>
  <line x1="205" y1="300" x2="355" y2="285" stroke="#D97706" strokeWidth="1" opacity="0.4" />
  <line x1="445" y1="285" x2="595" y2="300" stroke="#D97706" strokeWidth="1" opacity="0.4" />
  <line x1="205" y1="315" x2="595" y2="315" stroke="#D97706" strokeWidth="1" opacity="0.3" />
  <text x="400" y="370" fill="#D97706" fontSize="12" fontWeight="bold" textAnchor="middle" fontFamily="serif">Титаны Возрождения</text>
  <rect x="30" y="90" width="210" height="140" fill="white" stroke="#D97706" strokeWidth="1.5" rx="6" filter="url(#softShadow)" />
  <rect x="30" y="90" width="210" height="26" fill="#D97706" rx="6" />
  <rect x="30" y="108" width="210" height="8" fill="#D97706" />
  <text x="135" y="108" fill="white" fontSize="12" fontWeight="bold" textAnchor="middle" fontFamily="sans-serif">Леонардо да Винчи</text>
  <circle cx="44" cy="124" r="3" fill="#D97706" opacity="0.6" />
  <text x="52" y="128" fill="#78350F" fontSize="11" fontFamily="sans-serif">«Мона Лиза» (Джоконда)</text>
  <circle cx="44" cy="141" r="3" fill="#D97706" opacity="0.6" />
  <text x="52" y="145" fill="#78350F" fontSize="11" fontFamily="sans-serif">«Тайная вечеря» (фреска)</text>
  <circle cx="44" cy="158" r="3" fill="#D97706" opacity="0.6" />
  <text x="52" y="162" fill="#78350F" fontSize="11" fontFamily="sans-serif">«Дама с горностаем»</text>
  <circle cx="44" cy="175" r="3" fill="#D97706" opacity="0.6" />
  <text x="52" y="179" fill="#78350F" fontSize="11" fontFamily="sans-serif">Сфумато — мягкие тени</text>
  <circle cx="44" cy="192" r="3" fill="#D97706" opacity="0.6" />
  <text x="52" y="196" fill="#78350F" fontSize="11" fontFamily="sans-serif">Учёный + художник</text>
  <circle cx="44" cy="209" r="3" fill="#D97706" opacity="0.6" />
  <text x="52" y="213" fill="#78350F" fontSize="11" fontFamily="sans-serif">Зеркальный почерк</text>
  <rect x="260" y="90" width="210" height="140" fill="white" stroke="#EA580C" strokeWidth="1.5" rx="6" filter="url(#softShadow)" />
  <rect x="260" y="90" width="210" height="26" fill="#EA580C" rx="6" />
  <rect x="260" y="108" width="210" height="8" fill="#EA580C" />
  <text x="365" y="108" fill="white" fontSize="12" fontWeight="bold" textAnchor="middle" fontFamily="sans-serif">Микеланджело</text>
  <circle cx="274" cy="124" r="3" fill="#EA580C" opacity="0.6" />
  <text x="282" y="128" fill="#78350F" fontSize="11" fontFamily="sans-serif">«Давид» (мрамор, 5 м)</text>
  <circle cx="274" cy="141" r="3" fill="#EA580C" opacity="0.6" />
  <text x="282" y="145" fill="#78350F" fontSize="11" fontFamily="sans-serif">Сикстинская капелла (фреска)</text>
  <circle cx="274" cy="158" r="3" fill="#EA580C" opacity="0.6" />
  <text x="282" y="162" fill="#78350F" fontSize="11" fontFamily="sans-serif">«Сотворение Адама»</text>
  <circle cx="274" cy="175" r="3" fill="#EA580C" opacity="0.6" />
  <text x="282" y="179" fill="#78350F" fontSize="11" fontFamily="sans-serif">«Пьета» (Ватикан)</text>
  <circle cx="274" cy="192" r="3" fill="#EA580C" opacity="0.6" />
  <text x="282" y="196" fill="#78350F" fontSize="11" fontFamily="sans-serif">Скульптор + живописец</text>
  <circle cx="274" cy="209" r="3" fill="#EA580C" opacity="0.6" />
  <text x="282" y="213" fill="#78350F" fontSize="11" fontFamily="sans-serif">Терракотовые эскизы</text>
  <rect x="490" y="90" width="210" height="140" fill="white" stroke="#1E40AF" strokeWidth="1.5" rx="6" filter="url(#softShadow)" />
  <rect x="490" y="90" width="210" height="26" fill="#1E40AF" rx="6" />
  <rect x="490" y="108" width="210" height="8" fill="#1E40AF" />
  <text x="595" y="108" fill="white" fontSize="12" fontWeight="bold" textAnchor="middle" fontFamily="sans-serif">Рафаэль Санти</text>
  <circle cx="504" cy="124" r="3" fill="#1E40AF" opacity="0.6" />
  <text x="512" y="128" fill="#78350F" fontSize="11" fontFamily="sans-serif">«Сикстинская Мадонна»</text>
  <circle cx="504" cy="141" r="3" fill="#1E40AF" opacity="0.6" />
  <text x="512" y="145" fill="#78350F" fontSize="11" fontFamily="sans-serif">«Афинская школа» (фреска)</text>
  <circle cx="504" cy="158" r="3" fill="#1E40AF" opacity="0.6" />
  <text x="512" y="162" fill="#78350F" fontSize="11" fontFamily="sans-serif">«Мадонна Конестабиле»</text>
  <circle cx="504" cy="175" r="3" fill="#1E40AF" opacity="0.6" />
  <text x="512" y="179" fill="#78350F" fontSize="11" fontFamily="sans-serif">Идеал красоты и гармонии</text>
  <circle cx="504" cy="192" r="3" fill="#1E40AF" opacity="0.6" />
  <text x="512" y="196" fill="#78350F" fontSize="11" fontFamily="sans-serif">Мастер композиции</text>
  <circle cx="504" cy="209" r="3" fill="#1E40AF" opacity="0.6" />
  <text x="512" y="213" fill="#78350F" fontSize="11" fontFamily="sans-serif">Станцы Ватикана</text>
  <rect x="30" y="395" width="740" height="80" fill="white" stroke="#D97706" strokeWidth="1.5" rx="6" />
  <rect x="30" y="395" width="740" height="24" fill="#D97706" rx="6" />
  <rect x="30" y="413" width="740" height="6" fill="#D97706" />
  <text x="400" y="413" fill="white" fontSize="12" fontWeight="bold" textAnchor="middle" fontFamily="sans-serif">Главные черты Возрождения (Ренессанса)</text>
  <text x="50" y="437" fill="#78350F" fontSize="11" fontFamily="sans-serif">• Антропоцентризм — человек мера всех вещей</text>
  <text x="50" y="452" fill="#78350F" fontSize="11" fontFamily="sans-serif">• Возрождение античных идеалов красоты и гармонии</text>
  <text x="50" y="467" fill="#78350F" fontSize="11" fontFamily="sans-serif">• Перспектива, анатомия, законы композиции</text>
  <rect x="50" y="490" width="700" height="3" fill="#D97706" opacity="0.4" />
  <circle cx="100" cy="491" r="4" fill="#D97706" />
  <text x="100" y="480" fill="#9A3412" fontSize="9" fontWeight="bold" textAnchor="middle" fontFamily="sans-serif">1401</text>
  <text x="100" y="510" fill="#78350F" fontSize="8" textAnchor="middle" fontFamily="sans-serif">Конкурс дверей</text>
  <circle cx="230" cy="491" r="4" fill="#D97706" />
  <text x="230" y="480" fill="#9A3412" fontSize="9" fontWeight="bold" textAnchor="middle" fontFamily="sans-serif">1452</text>
  <text x="230" y="510" fill="#78350F" fontSize="8" textAnchor="middle" fontFamily="sans-serif">Рождение Л.</text>
  <circle cx="360" cy="491" r="4" fill="#D97706" />
  <text x="360" y="480" fill="#9A3412" fontSize="9" fontWeight="bold" textAnchor="middle" fontFamily="sans-serif">1504</text>
  <text x="360" y="510" fill="#78350F" fontSize="8" textAnchor="middle" fontFamily="sans-serif">Давид М.</text>
  <circle cx="490" cy="491" r="4" fill="#D97706" />
  <text x="490" y="480" fill="#9A3412" fontSize="9" fontWeight="bold" textAnchor="middle" fontFamily="sans-serif">1512</text>
  <text x="490" y="510" fill="#78350F" fontSize="8" textAnchor="middle" fontFamily="sans-serif">Сикстинская</text>
  <circle cx="620" cy="491" r="4" fill="#D97706" />
  <text x="620" y="480" fill="#9A3412" fontSize="9" fontWeight="bold" textAnchor="middle" fontFamily="sans-serif">1520</text>
  <text x="620" y="510" fill="#78350F" fontSize="8" textAnchor="middle" fontFamily="sans-serif">Смерть Рафаэля</text>
  <rect x="100" y="525" width="600" height="35" fill="#FEF3C7" stroke="#D97706" strokeWidth="1" rx="4" />
  <text x="400" y="547" fill="#9A3412" fontSize="11" fontWeight="bold" textAnchor="middle" fontFamily="sans-serif">Сфумато (леонардовский дым) — плавный переход света в тень без резких границ</text>
  <rect x="20" y="570" width="760" height="22" fill="#9A3412" rx="4" opacity="0.8" />
  <text x="400" y="585" fill="#FED7AA" fontSize="11" textAnchor="middle" fontFamily="sans-serif">ИЗО · 8 класс</text>
  <ellipse cx="48" cy="581" rx="8" ry="5.6" fill="#B45309" opacity="0.8" />
  <circle cx="40" cy="578" r="3" fill="#EF4444" />
  <circle cx="48" cy="574" r="3" fill="#3B82F6" />
  <circle cx="56" cy="578" r="3" fill="#EAB308" />
  <circle cx="43" cy="586" r="3" fill="#22C55E" />
  <circle cx="53" cy="586" r="3" fill="#8B5CF6" />
</svg>