<?xml version="1.0" encoding="UTF-8"?>
<svg xmlns="http://www.w3.org/2000/svg" width="800" height="600" viewBox="0 0 800 600">
  <defs>
    <linearGradient id="bgGrad" x1="0%" y1="0%" x2="0%" y2="100%">
      <stop offset="0%" style="stop-color:#EEF2FF;stop-opacity:1"/>
      <stop offset="100%" style="stop-color:#E0E7FF;stop-opacity:1"/>
    </linearGradient>
    <linearGradient id="headerGrad" x1="0%" y1="0%" x2="100%" y2="0%">
      <stop offset="0%" style="stop-color:#3730A3;stop-opacity:1"/>
      <stop offset="100%" style="stop-color:#4F46E5;stop-opacity:1"/>
    </linearGradient>
    <linearGradient id="accentGrad" x1="0%" y1="0%" x2="100%" y2="0%">
      <stop offset="0%" style="stop-color:#6366F1;stop-opacity:1"/>
      <stop offset="100%" style="stop-color:#3B82F6;stop-opacity:1"/>
    </linearGradient>
    <linearGradient id="cardGrad" x1="0%" y1="0%" x2="0%" y2="100%">
      <stop offset="0%" style="stop-color:#FFFFFF;stop-opacity:0.95"/>
      <stop offset="100%" style="stop-color:#F5F3FF;stop-opacity:0.9"/>
    </linearGradient>
    <filter id="shadow" x="-5%" y="-5%" width="110%" height="115%">
      <feDropShadow dx="0" dy="2" stdDeviation="4" flood-color="#3730A3" flood-opacity="0.15"/>
    </filter>
    <filter id="softShadow" x="-5%" y="-5%" width="110%" height="115%">
      <feDropShadow dx="0" dy="1" stdDeviation="2" flood-color="#000" flood-opacity="0.1"/>
    </filter>
  </defs>
  <rect width="800" height="600" fill="url(#bgGrad)" rx="0"/>
  <rect x="0" y="0" width="800" height="80" fill="url(#headerGrad)" rx="0"/>
  <line x1="0" y1="80" x2="800" y2="80" stroke="#818CF8" stroke-width="2" opacity="0.5"/>
  <text x="400" y="38" text-anchor="middle" font-family="Arial, Helvetica, sans-serif" font-size="24" font-weight="bold" fill="#FFFFFF">Арифметический квадратный корень</text>
  <text x="400" y="62" text-anchor="middle" font-family="Arial, Helvetica, sans-serif" font-size="14" fill="#C7D2FE" opacity="0.9">Определение и основные свойства</text>
  <circle cx="45" cy="40" r="22" fill="#FFFFFF" opacity="0.2"/>
  <circle cx="45" cy="40" r="20" fill="none" stroke="#FFFFFF" stroke-width="1.5" opacity="0.5"/>
  <text x="45" y="41" text-anchor="middle" dominant-baseline="middle" font-family="Arial, Helvetica, sans-serif" font-size="18" font-weight="bold" fill="#FFFFFF">4</text>
  <circle cx="0" cy="90" r="0.7" fill="#C7D2FE" opacity="0.15"/>
  <circle cx="0" cy="130" r="0.7" fill="#C7D2FE" opacity="0.15"/>
  <circle cx="0" cy="170" r="0.7" fill="#C7D2FE" opacity="0.15"/>
  <circle cx="0" cy="210" r="0.7" fill="#C7D2FE" opacity="0.15"/>
  <circle cx="0" cy="250" r="0.7" fill="#C7D2FE" opacity="0.15"/>
  <circle cx="0" cy="290" r="0.7" fill="#C7D2FE" opacity="0.15"/>
  <circle cx="0" cy="330" r="0.7" fill="#C7D2FE" opacity="0.15"/>
  <circle cx="0" cy="370" r="0.7" fill="#C7D2FE" opacity="0.15"/>
  <circle cx="0" cy="410" r="0.7" fill="#C7D2FE" opacity="0.15"/>
  <circle cx="0" cy="450" r="0.7" fill="#C7D2FE" opacity="0.15"/>
  <circle cx="0" cy="490" r="0.7" fill="#C7D2FE" opacity="0.15"/>
  <circle cx="0" cy="530" r="0.7" fill="#C7D2FE" opacity="0.15"/>
  <circle cx="0" cy="570" r="0.7" fill="#C7D2FE" opacity="0.15"/>
  <circle cx="40" cy="90" r="0.7" fill="#C7D2FE" opacity="0.15"/>
  <circle cx="40" cy="130" r="0.7" fill="#C7D2FE" opacity="0.15"/>
  <circle cx="40" cy="170" r="0.7" fill="#C7D2FE" opacity="0.15"/>
  <circle cx="40" cy="210" r="0.7" fill="#C7D2FE" opacity="0.15"/>
  <circle cx="40" cy="250" r="0.7" fill="#C7D2FE" opacity="0.15"/>
  <circle cx="40" cy="290" r="0.7" fill="#C7D2FE" opacity="0.15"/>
  <circle cx="40" cy="330" r="0.7" fill="#C7D2FE" opacity="0.15"/>
  <circle cx="40" cy="370" r="0.7" fill="#C7D2FE" opacity="0.15"/>
  <circle cx="40" cy="410" r="0.7" fill="#C7D2FE" opacity="0.15"/>
  <circle cx="40" cy="450" r="0.7" fill="#C7D2FE" opacity="0.15"/>
  <circle cx="40" cy="490" r="0.7" fill="#C7D2FE" opacity="0.15"/>
  <circle cx="40" cy="530" r="0.7" fill="#C7D2FE" opacity="0.15"/>
  <circle cx="40" cy="570" r="0.7" fill="#C7D2FE" opacity="0.15"/>
  <circle cx="80" cy="90" r="0.7" fill="#C7D2FE" opacity="0.15"/>
  <circle cx="80" cy="130" r="0.7" fill="#C7D2FE" opacity="0.15"/>
  <circle cx="80" cy="170" r="0.7" fill="#C7D2FE" opacity="0.15"/>
  <circle cx="80" cy="210" r="0.7" fill="#C7D2FE" opacity="0.15"/>
  <circle cx="80" cy="250" r="0.7" fill="#C7D2FE" opacity="0.15"/>
  <circle cx="80" cy="290" r="0.7" fill="#C7D2FE" opacity="0.15"/>
  <circle cx="80" cy="330" r="0.7" fill="#C7D2FE" opacity="0.15"/>
  <circle cx="80" cy="370" r="0.7" fill="#C7D2FE" opacity="0.15"/>
  <circle cx="80" cy="410" r="0.7" fill="#C7D2FE" opacity="0.15"/>
  <circle cx="80" cy="450" r="0.7" fill="#C7D2FE" opacity="0.15"/>
  <circle cx="80" cy="490" r="0.7" fill="#C7D2FE" opacity="0.15"/>
  <circle cx="80" cy="530" r="0.7" fill="#C7D2FE" opacity="0.15"/>
  <circle cx="80" cy="570" r="0.7" fill="#C7D2FE" opacity="0.15"/>
  <circle cx="120" cy="90" r="0.7" fill="#C7D2FE" opacity="0.15"/>
  <circle cx="120" cy="130" r="0.7" fill="#C7D2FE" opacity="0.15"/>
  <circle cx="120" cy="170" r="0.7" fill="#C7D2FE" opacity="0.15"/>
  <circle cx="120" cy="210" r="0.7" fill="#C7D2FE" opacity="0.15"/>
  <circle cx="120" cy="250" r="0.7" fill="#C7D2FE" opacity="0.15"/>
  <circle cx="120" cy="290" r="0.7" fill="#C7D2FE" opacity="0.15"/>
  <circle cx="120" cy="330" r="0.7" fill="#C7D2FE" opacity="0.15"/>
  <circle cx="120" cy="370" r="0.7" fill="#C7D2FE" opacity="0.15"/>
  <circle cx="120" cy="410" r="0.7" fill="#C7D2FE" opacity="0.15"/>
  <circle cx="120" cy="450" r="0.7" fill="#C7D2FE" opacity="0.15"/>
  <circle cx="120" cy="490" r="0.7" fill="#C7D2FE" opacity="0.15"/>
  <circle cx="120" cy="530" r="0.7" fill="#C7D2FE" opacity="0.15"/>
  <circle cx="120" cy="570" r="0.7" fill="#C7D2FE" opacity="0.15"/>
  <circle cx="160" cy="90" r="0.7" fill="#C7D2FE" opacity="0.15"/>
  <circle cx="160" cy="130" r="0.7" fill="#C7D2FE" opacity="0.15"/>
  <circle cx="160" cy="170" r="0.7" fill="#C7D2FE" opacity="0.15"/>
  <circle cx="160" cy="210" r="0.7" fill="#C7D2FE" opacity="0.15"/>
  <circle cx="160" cy="250" r="0.7" fill="#C7D2FE" opacity="0.15"/>
  <circle cx="160" cy="290" r="0.7" fill="#C7D2FE" opacity="0.15"/>
  <circle cx="160" cy="330" r="0.7" fill="#C7D2FE" opacity="0.15"/>
  <circle cx="160" cy="370" r="0.7" fill="#C7D2FE" opacity="0.15"/>
  <circle cx="160" cy="410" r="0.7" fill="#C7D2FE" opacity="0.15"/>
  <circle cx="160" cy="450" r="0.7" fill="#C7D2FE" opacity="0.15"/>
  <circle cx="160" cy="490" r="0.7" fill="#C7D2FE" opacity="0.15"/>
  <circle cx="160" cy="530" r="0.7" fill="#C7D2FE" opacity="0.15"/>
  <circle cx="160" cy="570" r="0.7" fill="#C7D2FE" opacity="0.15"/>
  <circle cx="200" cy="90" r="0.7" fill="#C7D2FE" opacity="0.15"/>
  <circle cx="200" cy="130" r="0.7" fill="#C7D2FE" opacity="0.15"/>
  <circle cx="200" cy="170" r="0.7" fill="#C7D2FE" opacity="0.15"/>
  <circle cx="200" cy="210" r="0.7" fill="#C7D2FE" opacity="0.15"/>
  <circle cx="200" cy="250" r="0.7" fill="#C7D2FE" opacity="0.15"/>
  <circle cx="200" cy="290" r="0.7" fill="#C7D2FE" opacity="0.15"/>
  <circle cx="200" cy="330" r="0.7" fill="#C7D2FE" opacity="0.15"/>
  <circle cx="200" cy="370" r="0.7" fill="#C7D2FE" opacity="0.15"/>
  <circle cx="200" cy="410" r="0.7" fill="#C7D2FE" opacity="0.15"/>
  <circle cx="200" cy="450" r="0.7" fill="#C7D2FE" opacity="0.15"/>
  <circle cx="200" cy="490" r="0.7" fill="#C7D2FE" opacity="0.15"/>
  <circle cx="200" cy="530" r="0.7" fill="#C7D2FE" opacity="0.15"/>
  <circle cx="200" cy="570" r="0.7" fill="#C7D2FE" opacity="0.15"/>
  <circle cx="240" cy="90" r="0.7" fill="#C7D2FE" opacity="0.15"/>
  <circle cx="240" cy="130" r="0.7" fill="#C7D2FE" opacity="0.15"/>
  <circle cx="240" cy="170" r="0.7" fill="#C7D2FE" opacity="0.15"/>
  <circle cx="240" cy="210" r="0.7" fill="#C7D2FE" opacity="0.15"/>
  <circle cx="240" cy="250" r="0.7" fill="#C7D2FE" opacity="0.15"/>
  <circle cx="240" cy="290" r="0.7" fill="#C7D2FE" opacity="0.15"/>
  <circle cx="240" cy="330" r="0.7" fill="#C7D2FE" opacity="0.15"/>
  <circle cx="240" cy="370" r="0.7" fill="#C7D2FE" opacity="0.15"/>
  <circle cx="240" cy="410" r="0.7" fill="#C7D2FE" opacity="0.15"/>
  <circle cx="240" cy="450" r="0.7" fill="#C7D2FE" opacity="0.15"/>
  <circle cx="240" cy="490" r="0.7" fill="#C7D2FE" opacity="0.15"/>
  <circle cx="240" cy="530" r="0.7" fill="#C7D2FE" opacity="0.15"/>
  <circle cx="240" cy="570" r="0.7" fill="#C7D2FE" opacity="0.15"/>
  <circle cx="280" cy="90" r="0.7" fill="#C7D2FE" opacity="0.15"/>
  <circle cx="280" cy="130" r="0.7" fill="#C7D2FE" opacity="0.15"/>
  <circle cx="280" cy="170" r="0.7" fill="#C7D2FE" opacity="0.15"/>
  <circle cx="280" cy="210" r="0.7" fill="#C7D2FE" opacity="0.15"/>
  <circle cx="280" cy="250" r="0.7" fill="#C7D2FE" opacity="0.15"/>
  <circle cx="280" cy="290" r="0.7" fill="#C7D2FE" opacity="0.15"/>
  <circle cx="280" cy="330" r="0.7" fill="#C7D2FE" opacity="0.15"/>
  <circle cx="280" cy="370" r="0.7" fill="#C7D2FE" opacity="0.15"/>
  <circle cx="280" cy="410" r="0.7" fill="#C7D2FE" opacity="0.15"/>
  <circle cx="280" cy="450" r="0.7" fill="#C7D2FE" opacity="0.15"/>
  <circle cx="280" cy="490" r="0.7" fill="#C7D2FE" opacity="0.15"/>
  <circle cx="280" cy="530" r="0.7" fill="#C7D2FE" opacity="0.15"/>
  <circle cx="280" cy="570" r="0.7" fill="#C7D2FE" opacity="0.15"/>
  <circle cx="320" cy="90" r="0.7" fill="#C7D2FE" opacity="0.15"/>
  <circle cx="320" cy="130" r="0.7" fill="#C7D2FE" opacity="0.15"/>
  <circle cx="320" cy="170" r="0.7" fill="#C7D2FE" opacity="0.15"/>
  <circle cx="320" cy="210" r="0.7" fill="#C7D2FE" opacity="0.15"/>
  <circle cx="320" cy="250" r="0.7" fill="#C7D2FE" opacity="0.15"/>
  <circle cx="320" cy="290" r="0.7" fill="#C7D2FE" opacity="0.15"/>
  <circle cx="320" cy="330" r="0.7" fill="#C7D2FE" opacity="0.15"/>
  <circle cx="320" cy="370" r="0.7" fill="#C7D2FE" opacity="0.15"/>
  <circle cx="320" cy="410" r="0.7" fill="#C7D2FE" opacity="0.15"/>
  <circle cx="320" cy="450" r="0.7" fill="#C7D2FE" opacity="0.15"/>
  <circle cx="320" cy="490" r="0.7" fill="#C7D2FE" opacity="0.15"/>
  <circle cx="320" cy="530" r="0.7" fill="#C7D2FE" opacity="0.15"/>
  <circle cx="320" cy="570" r="0.7" fill="#C7D2FE" opacity="0.15"/>
  <circle cx="360" cy="90" r="0.7" fill="#C7D2FE" opacity="0.15"/>
  <circle cx="360" cy="130" r="0.7" fill="#C7D2FE" opacity="0.15"/>
  <circle cx="360" cy="170" r="0.7" fill="#C7D2FE" opacity="0.15"/>
  <circle cx="360" cy="210" r="0.7" fill="#C7D2FE" opacity="0.15"/>
  <circle cx="360" cy="250" r="0.7" fill="#C7D2FE" opacity="0.15"/>
  <circle cx="360" cy="290" r="0.7" fill="#C7D2FE" opacity="0.15"/>
  <circle cx="360" cy="330" r="0.7" fill="#C7D2FE" opacity="0.15"/>
  <circle cx="360" cy="370" r="0.7" fill="#C7D2FE" opacity="0.15"/>
  <circle cx="360" cy="410" r="0.7" fill="#C7D2FE" opacity="0.15"/>
  <circle cx="360" cy="450" r="0.7" fill="#C7D2FE" opacity="0.15"/>
  <circle cx="360" cy="490" r="0.7" fill="#C7D2FE" opacity="0.15"/>
  <circle cx="360" cy="530" r="0.7" fill="#C7D2FE" opacity="0.15"/>
  <circle cx="360" cy="570" r="0.7" fill="#C7D2FE" opacity="0.15"/>
  <circle cx="400" cy="90" r="0.7" fill="#C7D2FE" opacity="0.15"/>
  <circle cx="400" cy="130" r="0.7" fill="#C7D2FE" opacity="0.15"/>
  <circle cx="400" cy="170" r="0.7" fill="#C7D2FE" opacity="0.15"/>
  <circle cx="400" cy="210" r="0.7" fill="#C7D2FE" opacity="0.15"/>
  <circle cx="400" cy="250" r="0.7" fill="#C7D2FE" opacity="0.15"/>
  <circle cx="400" cy="290" r="0.7" fill="#C7D2FE" opacity="0.15"/>
  <circle cx="400" cy="330" r="0.7" fill="#C7D2FE" opacity="0.15"/>
  <circle cx="400" cy="370" r="0.7" fill="#C7D2FE" opacity="0.15"/>
  <circle cx="400" cy="410" r="0.7" fill="#C7D2FE" opacity="0.15"/>
  <circle cx="400" cy="450" r="0.7" fill="#C7D2FE" opacity="0.15"/>
  <circle cx="400" cy="490" r="0.7" fill="#C7D2FE" opacity="0.15"/>
  <circle cx="400" cy="530" r="0.7" fill="#C7D2FE" opacity="0.15"/>
  <circle cx="400" cy="570" r="0.7" fill="#C7D2FE" opacity="0.15"/>
  <circle cx="440" cy="90" r="0.7" fill="#C7D2FE" opacity="0.15"/>
  <circle cx="440" cy="130" r="0.7" fill="#C7D2FE" opacity="0.15"/>
  <circle cx="440" cy="170" r="0.7" fill="#C7D2FE" opacity="0.15"/>
  <circle cx="440" cy="210" r="0.7" fill="#C7D2FE" opacity="0.15"/>
  <circle cx="440" cy="250" r="0.7" fill="#C7D2FE" opacity="0.15"/>
  <circle cx="440" cy="290" r="0.7" fill="#C7D2FE" opacity="0.15"/>
  <circle cx="440" cy="330" r="0.7" fill="#C7D2FE" opacity="0.15"/>
  <circle cx="440" cy="370" r="0.7" fill="#C7D2FE" opacity="0.15"/>
  <circle cx="440" cy="410" r="0.7" fill="#C7D2FE" opacity="0.15"/>
  <circle cx="440" cy="450" r="0.7" fill="#C7D2FE" opacity="0.15"/>
  <circle cx="440" cy="490" r="0.7" fill="#C7D2FE" opacity="0.15"/>
  <circle cx="440" cy="530" r="0.7" fill="#C7D2FE" opacity="0.15"/>
  <circle cx="440" cy="570" r="0.7" fill="#C7D2FE" opacity="0.15"/>
  <circle cx="480" cy="90" r="0.7" fill="#C7D2FE" opacity="0.15"/>
  <circle cx="480" cy="130" r="0.7" fill="#C7D2FE" opacity="0.15"/>
  <circle cx="480" cy="170" r="0.7" fill="#C7D2FE" opacity="0.15"/>
  <circle cx="480" cy="210" r="0.7" fill="#C7D2FE" opacity="0.15"/>
  <circle cx="480" cy="250" r="0.7" fill="#C7D2FE" opacity="0.15"/>
  <circle cx="480" cy="290" r="0.7" fill="#C7D2FE" opacity="0.15"/>
  <circle cx="480" cy="330" r="0.7" fill="#C7D2FE" opacity="0.15"/>
  <circle cx="480" cy="370" r="0.7" fill="#C7D2FE" opacity="0.15"/>
  <circle cx="480" cy="410" r="0.7" fill="#C7D2FE" opacity="0.15"/>
  <circle cx="480" cy="450" r="0.7" fill="#C7D2FE" opacity="0.15"/>
  <circle cx="480" cy="490" r="0.7" fill="#C7D2FE" opacity="0.15"/>
  <circle cx="480" cy="530" r="0.7" fill="#C7D2FE" opacity="0.15"/>
  <circle cx="480" cy="570" r="0.7" fill="#C7D2FE" opacity="0.15"/>
  <circle cx="520" cy="90" r="0.7" fill="#C7D2FE" opacity="0.15"/>
  <circle cx="520" cy="130" r="0.7" fill="#C7D2FE" opacity="0.15"/>
  <circle cx="520" cy="170" r="0.7" fill="#C7D2FE" opacity="0.15"/>
  <circle cx="520" cy="210" r="0.7" fill="#C7D2FE" opacity="0.15"/>
  <circle cx="520" cy="250" r="0.7" fill="#C7D2FE" opacity="0.15"/>
  <circle cx="520" cy="290" r="0.7" fill="#C7D2FE" opacity="0.15"/>
  <circle cx="520" cy="330" r="0.7" fill="#C7D2FE" opacity="0.15"/>
  <circle cx="520" cy="370" r="0.7" fill="#C7D2FE" opacity="0.15"/>
  <circle cx="520" cy="410" r="0.7" fill="#C7D2FE" opacity="0.15"/>
  <circle cx="520" cy="450" r="0.7" fill="#C7D2FE" opacity="0.15"/>
  <circle cx="520" cy="490" r="0.7" fill="#C7D2FE" opacity="0.15"/>
  <circle cx="520" cy="530" r="0.7" fill="#C7D2FE" opacity="0.15"/>
  <circle cx="520" cy="570" r="0.7" fill="#C7D2FE" opacity="0.15"/>
  <circle cx="560" cy="90" r="0.7" fill="#C7D2FE" opacity="0.15"/>
  <circle cx="560" cy="130" r="0.7" fill="#C7D2FE" opacity="0.15"/>
  <circle cx="560" cy="170" r="0.7" fill="#C7D2FE" opacity="0.15"/>
  <circle cx="560" cy="210" r="0.7" fill="#C7D2FE" opacity="0.15"/>
  <circle cx="560" cy="250" r="0.7" fill="#C7D2FE" opacity="0.15"/>
  <circle cx="560" cy="290" r="0.7" fill="#C7D2FE" opacity="0.15"/>
  <circle cx="560" cy="330" r="0.7" fill="#C7D2FE" opacity="0.15"/>
  <circle cx="560" cy="370" r="0.7" fill="#C7D2FE" opacity="0.15"/>
  <circle cx="560" cy="410" r="0.7" fill="#C7D2FE" opacity="0.15"/>
  <circle cx="560" cy="450" r="0.7" fill="#C7D2FE" opacity="0.15"/>
  <circle cx="560" cy="490" r="0.7" fill="#C7D2FE" opacity="0.15"/>
  <circle cx="560" cy="530" r="0.7" fill="#C7D2FE" opacity="0.15"/>
  <circle cx="560" cy="570" r="0.7" fill="#C7D2FE" opacity="0.15"/>
  <circle cx="600" cy="90" r="0.7" fill="#C7D2FE" opacity="0.15"/>
  <circle cx="600" cy="130" r="0.7" fill="#C7D2FE" opacity="0.15"/>
  <circle cx="600" cy="170" r="0.7" fill="#C7D2FE" opacity="0.15"/>
  <circle cx="600" cy="210" r="0.7" fill="#C7D2FE" opacity="0.15"/>
  <circle cx="600" cy="250" r="0.7" fill="#C7D2FE" opacity="0.15"/>
  <circle cx="600" cy="290" r="0.7" fill="#C7D2FE" opacity="0.15"/>
  <circle cx="600" cy="330" r="0.7" fill="#C7D2FE" opacity="0.15"/>
  <circle cx="600" cy="370" r="0.7" fill="#C7D2FE" opacity="0.15"/>
  <circle cx="600" cy="410" r="0.7" fill="#C7D2FE" opacity="0.15"/>
  <circle cx="600" cy="450" r="0.7" fill="#C7D2FE" opacity="0.15"/>
  <circle cx="600" cy="490" r="0.7" fill="#C7D2FE" opacity="0.15"/>
  <circle cx="600" cy="530" r="0.7" fill="#C7D2FE" opacity="0.15"/>
  <circle cx="600" cy="570" r="0.7" fill="#C7D2FE" opacity="0.15"/>
  <circle cx="640" cy="90" r="0.7" fill="#C7D2FE" opacity="0.15"/>
  <circle cx="640" cy="130" r="0.7" fill="#C7D2FE" opacity="0.15"/>
  <circle cx="640" cy="170" r="0.7" fill="#C7D2FE" opacity="0.15"/>
  <circle cx="640" cy="210" r="0.7" fill="#C7D2FE" opacity="0.15"/>
  <circle cx="640" cy="250" r="0.7" fill="#C7D2FE" opacity="0.15"/>
  <circle cx="640" cy="290" r="0.7" fill="#C7D2FE" opacity="0.15"/>
  <circle cx="640" cy="330" r="0.7" fill="#C7D2FE" opacity="0.15"/>
  <circle cx="640" cy="370" r="0.7" fill="#C7D2FE" opacity="0.15"/>
  <circle cx="640" cy="410" r="0.7" fill="#C7D2FE" opacity="0.15"/>
  <circle cx="640" cy="450" r="0.7" fill="#C7D2FE" opacity="0.15"/>
  <circle cx="640" cy="490" r="0.7" fill="#C7D2FE" opacity="0.15"/>
  <circle cx="640" cy="530" r="0.7" fill="#C7D2FE" opacity="0.15"/>
  <circle cx="640" cy="570" r="0.7" fill="#C7D2FE" opacity="0.15"/>
  <circle cx="680" cy="90" r="0.7" fill="#C7D2FE" opacity="0.15"/>
  <circle cx="680" cy="130" r="0.7" fill="#C7D2FE" opacity="0.15"/>
  <circle cx="680" cy="170" r="0.7" fill="#C7D2FE" opacity="0.15"/>
  <circle cx="680" cy="210" r="0.7" fill="#C7D2FE" opacity="0.15"/>
  <circle cx="680" cy="250" r="0.7" fill="#C7D2FE" opacity="0.15"/>
  <circle cx="680" cy="290" r="0.7" fill="#C7D2FE" opacity="0.15"/>
  <circle cx="680" cy="330" r="0.7" fill="#C7D2FE" opacity="0.15"/>
  <circle cx="680" cy="370" r="0.7" fill="#C7D2FE" opacity="0.15"/>
  <circle cx="680" cy="410" r="0.7" fill="#C7D2FE" opacity="0.15"/>
  <circle cx="680" cy="450" r="0.7" fill="#C7D2FE" opacity="0.15"/>
  <circle cx="680" cy="490" r="0.7" fill="#C7D2FE" opacity="0.15"/>
  <circle cx="680" cy="530" r="0.7" fill="#C7D2FE" opacity="0.15"/>
  <circle cx="680" cy="570" r="0.7" fill="#C7D2FE" opacity="0.15"/>
  <circle cx="720" cy="90" r="0.7" fill="#C7D2FE" opacity="0.15"/>
  <circle cx="720" cy="130" r="0.7" fill="#C7D2FE" opacity="0.15"/>
  <circle cx="720" cy="170" r="0.7" fill="#C7D2FE" opacity="0.15"/>
  <circle cx="720" cy="210" r="0.7" fill="#C7D2FE" opacity="0.15"/>
  <circle cx="720" cy="250" r="0.7" fill="#C7D2FE" opacity="0.15"/>
  <circle cx="720" cy="290" r="0.7" fill="#C7D2FE" opacity="0.15"/>
  <circle cx="720" cy="330" r="0.7" fill="#C7D2FE" opacity="0.15"/>
  <circle cx="720" cy="370" r="0.7" fill="#C7D2FE" opacity="0.15"/>
  <circle cx="720" cy="410" r="0.7" fill="#C7D2FE" opacity="0.15"/>
  <circle cx="720" cy="450" r="0.7" fill="#C7D2FE" opacity="0.15"/>
  <circle cx="720" cy="490" r="0.7" fill="#C7D2FE" opacity="0.15"/>
  <circle cx="720" cy="530" r="0.7" fill="#C7D2FE" opacity="0.15"/>
  <circle cx="720" cy="570" r="0.7" fill="#C7D2FE" opacity="0.15"/>
  <circle cx="760" cy="90" r="0.7" fill="#C7D2FE" opacity="0.15"/>
  <circle cx="760" cy="130" r="0.7" fill="#C7D2FE" opacity="0.15"/>
  <circle cx="760" cy="170" r="0.7" fill="#C7D2FE" opacity="0.15"/>
  <circle cx="760" cy="210" r="0.7" fill="#C7D2FE" opacity="0.15"/>
  <circle cx="760" cy="250" r="0.7" fill="#C7D2FE" opacity="0.15"/>
  <circle cx="760" cy="290" r="0.7" fill="#C7D2FE" opacity="0.15"/>
  <circle cx="760" cy="330" r="0.7" fill="#C7D2FE" opacity="0.15"/>
  <circle cx="760" cy="370" r="0.7" fill="#C7D2FE" opacity="0.15"/>
  <circle cx="760" cy="410" r="0.7" fill="#C7D2FE" opacity="0.15"/>
  <circle cx="760" cy="450" r="0.7" fill="#C7D2FE" opacity="0.15"/>
  <circle cx="760" cy="490" r="0.7" fill="#C7D2FE" opacity="0.15"/>
  <circle cx="760" cy="530" r="0.7" fill="#C7D2FE" opacity="0.15"/>
  <circle cx="760" cy="570" r="0.7" fill="#C7D2FE" opacity="0.15"/>
  <text x="720" y="130" text-anchor="middle" font-family="Arial, Helvetica, sans-serif" font-size="24" fill="#C7D2FE" opacity="0.3">∑</text>
  <text x="50" y="550" text-anchor="middle" font-family="Arial, Helvetica, sans-serif" font-size="24" fill="#C7D2FE" opacity="0.3">∫</text>
  <text x="750" y="480" text-anchor="middle" font-family="Arial, Helvetica, sans-serif" font-size="24" fill="#C7D2FE" opacity="0.3">√</text>
  <text x="680" y="560" text-anchor="middle" font-family="Arial, Helvetica, sans-serif" font-size="24" fill="#C7D2FE" opacity="0.3">π</text>
  <text x="30" y="130" text-anchor="middle" font-family="Arial, Helvetica, sans-serif" font-size="24" fill="#C7D2FE" opacity="0.3">∞</text>
  <text x="760" y="300" text-anchor="middle" font-family="Arial, Helvetica, sans-serif" font-size="24" fill="#C7D2FE" opacity="0.3">Δ</text>
  <text x="20" y="300" text-anchor="middle" font-family="Arial, Helvetica, sans-serif" font-size="24" fill="#C7D2FE" opacity="0.3">±</text>
  <text x="60" y="480" text-anchor="middle" font-family="Arial, Helvetica, sans-serif" font-size="24" fill="#C7D2FE" opacity="0.3">≈</text>
  <rect x="30" y="95" width="740" height="130" fill="url(#cardGrad)" rx="10" filter="url(#shadow)" stroke="#A5B4FC" stroke-width="0.5"/>
  <rect x="50" y="115" width="4" height="18" fill="#4F46E5" rx="2"/>
  <text x="62" y="129" font-family="Arial, Helvetica, sans-serif" font-size="16" font-weight="bold" fill="#4F46E5">Определение</text>
  <text x="50" y="140" text-anchor="start" font-family="Arial, Helvetica, sans-serif" font-size="13" font-weight="normal" fill="#1E1B4B">Арифметическим квадратным корнем из неотрицательного числа a</text>
  <text x="50" y="158" text-anchor="start" font-family="Arial, Helvetica, sans-serif" font-size="13" font-weight="normal" fill="#1E1B4B">называется неотрицательное число, квадрат которого равен a.</text>
  <rect x="200" y="175" width="400" height="40" fill="#F5F3FF" rx="8" stroke="#818CF8" stroke-width="1.5" filter="url(#softShadow)"/>
  <text x="400" y="196" text-anchor="middle" dominant-baseline="middle" font-family="Arial, Helvetica, sans-serif" font-size="18" font-weight="bold" fill="#3730A3">√a = b,  если b² = a  и b ≥ 0</text>
  <rect x="30" y="240" width="740" height="120" fill="url(#cardGrad)" rx="10" filter="url(#shadow)" stroke="#A5B4FC" stroke-width="0.5"/>
  <rect x="50" y="260" width="4" height="18" fill="#4F46E5" rx="2"/>
  <text x="62" y="274" font-family="Arial, Helvetica, sans-serif" font-size="16" font-weight="bold" fill="#4F46E5">Основные свойства</text>
  <rect x="50" y="280" width="350" height="32" fill="#F5F3FF" rx="6" stroke="#818CF8" stroke-width="1.5" filter="url(#softShadow)"/>
  <text x="225" y="297" text-anchor="middle" dominant-baseline="middle" font-family="Arial, Helvetica, sans-serif" font-size="17" font-weight="bold" fill="#3730A3">√a ≥ 0  при a ≥ 0</text>
  <rect x="410" y="280" width="350" height="32" fill="#F5F3FF" rx="6" stroke="#818CF8" stroke-width="1.5" filter="url(#softShadow)"/>
  <text x="585" y="297" text-anchor="middle" dominant-baseline="middle" font-family="Arial, Helvetica, sans-serif" font-size="17" font-weight="bold" fill="#3730A3">(√a)² = a  при a ≥ 0</text>
  <rect x="50" y="320" width="350" height="32" fill="#F5F3FF" rx="6" stroke="#818CF8" stroke-width="1.5" filter="url(#softShadow)"/>
  <text x="225" y="337" text-anchor="middle" dominant-baseline="middle" font-family="Arial, Helvetica, sans-serif" font-size="17" font-weight="bold" fill="#3730A3">√0 = 0</text>
  <rect x="410" y="320" width="350" height="32" fill="#F5F3FF" rx="6" stroke="#818CF8" stroke-width="1.5" filter="url(#softShadow)"/>
  <text x="585" y="337" text-anchor="middle" dominant-baseline="middle" font-family="Arial, Helvetica, sans-serif" font-size="17" font-weight="bold" fill="#3730A3">√1 = 1</text>
  <rect x="30" y="375" width="740" height="60" fill="url(#cardGrad)" rx="10" filter="url(#shadow)" stroke="#A5B4FC" stroke-width="0.5"/>
  <rect x="30" y="375" width="740" height="60" rx="10" fill="#FEF3C7" stroke="#F59E0B" stroke-width="1"/>
  <text x="50" y="398" text-anchor="start" font-family="Arial, Helvetica, sans-serif" font-size="14" font-weight="bold" fill="#92400E">Квадратный корень из отрицательного числа не существует на множестве R!</text>
  <rect x="50" y="410" width="700" height="20" fill="#F5F3FF" rx="6" stroke="#818CF8" stroke-width="1.5" filter="url(#softShadow)"/>
  <text x="400" y="421" text-anchor="middle" dominant-baseline="middle" font-family="Arial, Helvetica, sans-serif" font-size="13" font-weight="bold" fill="#3730A3">a ≥ 0  —  обязательное условие!</text>
  <rect x="30" y="450" width="740" height="110" fill="url(#cardGrad)" rx="10" filter="url(#shadow)" stroke="#A5B4FC" stroke-width="0.5"/>
  <rect x="50" y="470" width="4" height="18" fill="#4F46E5" rx="2"/>
  <text x="62" y="484" font-family="Arial, Helvetica, sans-serif" font-size="16" font-weight="bold" fill="#4F46E5">Примеры</text>
  <line x1="60" y1="510" x2="740" y2="510" stroke="#818CF8" stroke-width="2"/>
  <line x1="60" y1="505" x2="60" y2="515" stroke="#4F46E5" stroke-width="2"/>
  <text x="60" y="530" text-anchor="middle" font-family="Arial, Helvetica, sans-serif" font-size="12" fill="#1E1B4B">0</text>
  <line x1="140" y1="505" x2="140" y2="515" stroke="#4F46E5" stroke-width="2"/>
  <text x="140" y="530" text-anchor="middle" font-family="Arial, Helvetica, sans-serif" font-size="12" fill="#1E1B4B">1</text>
  <line x1="300" y1="505" x2="300" y2="515" stroke="#4F46E5" stroke-width="2"/>
  <text x="300" y="530" text-anchor="middle" font-family="Arial, Helvetica, sans-serif" font-size="12" fill="#1E1B4B">4</text>
  <line x1="500" y1="505" x2="500" y2="515" stroke="#4F46E5" stroke-width="2"/>
  <text x="500" y="530" text-anchor="middle" font-family="Arial, Helvetica, sans-serif" font-size="12" fill="#1E1B4B">9</text>
  <line x1="700" y1="505" x2="700" y2="515" stroke="#4F46E5" stroke-width="2"/>
  <text x="700" y="530" text-anchor="middle" font-family="Arial, Helvetica, sans-serif" font-size="12" fill="#1E1B4B">16</text>
  <circle cx="60" cy="510" r="4" fill="#6366F1"/>
  <text x="60" y="498" text-anchor="middle" font-family="Arial, Helvetica, sans-serif" font-size="11" font-weight="bold" fill="#4F46E5">√0=0</text>
  <circle cx="140" cy="510" r="4" fill="#6366F1"/>
  <text x="140" y="498" text-anchor="middle" font-family="Arial, Helvetica, sans-serif" font-size="11" font-weight="bold" fill="#4F46E5">√1=1</text>
  <circle cx="220" cy="510" r="4" fill="#6366F1"/>
  <text x="220" y="498" text-anchor="middle" font-family="Arial, Helvetica, sans-serif" font-size="11" font-weight="bold" fill="#4F46E5">√4=2</text>
  <circle cx="400" cy="510" r="4" fill="#6366F1"/>
  <text x="400" y="498" text-anchor="middle" font-family="Arial, Helvetica, sans-serif" font-size="11" font-weight="bold" fill="#4F46E5">√9=3</text>
  <circle cx="600" cy="510" r="4" fill="#6366F1"/>
  <text x="600" y="498" text-anchor="middle" font-family="Arial, Helvetica, sans-serif" font-size="11" font-weight="bold" fill="#4F46E5">√16=4</text>
  <rect x="0" y="575" width="800" height="25" fill="#3730A3" opacity="0.05"/>
  <text x="400" y="592" text-anchor="middle" font-family="Arial, Helvetica, sans-serif" font-size="11" fill="#818CF8" opacity="0.7">Алгебра · 8 класс</text>
</svg>
