<svg xmlns="http://www.w3.org/2000/svg" viewBox="0 0 800 500">
  <defs><linearGradient id="gСлов" x1="0%" y1="0%" x2="100%" y2="100%">
    <stop offset="0%" style="stop-color:#F3E5F5;stop-opacity:0.5"/><stop offset="100%" style="stop-color:#E1BEE7;stop-opacity:0.25"/>
  </linearGradient></defs>
  <rect width="800" height="500" fill="url(#gСлов)" rx="12"/>
  <rect x="4" y="4" width="792" height="492" rx="10" fill="none" stroke="#7B1FA2" stroke-width="2.5" opacity="0.3"/>
  <text x="400" y="50" font-family="Georgia,serif" font-size="32" font-weight="bold" fill="#7B1FA2" text-anchor="middle">Слово о полку Игореве</text>
  <line x1="80" y1="64" x2="720" y2="64" stroke="#7B1FA2" stroke-width="2" opacity="0.35"/>
  
  <!-- Big shield -->
  <ellipse cx="400" cy="150" rx="120" ry="100" fill="#F3E5F5" stroke="#7B1FA2" stroke-width="3" opacity="0.35"/>
  <line x1="400" y1="60" x2="400" y2="240" stroke="#7B1FA2" stroke-width="3"/>
  <line x1="320" y1="120" x2="480" y2="120" stroke="#7B1FA2" stroke-width="3"/>
  <!-- Nature - big -->
  <circle cx="120" cy="260" r="45" fill="#FFF3E0" stroke="#FF8F00" stroke-width="2.5"/>
  <text x="120" y="250" font-family="Georgia,serif" font-size="28" text-anchor="middle">&#x2600;</text>
  <circle cx="120" cy="262" r="25" fill="#5D4037" opacity="0.5"/>
  <text x="120" y="295" font-family="Georgia,serif" font-size="16" font-weight="bold" fill="#E65100" text-anchor="middle">Затмение</text>
  <circle cx="400" cy="310" r="45" fill="#FCE4EC" stroke="#C2185B" stroke-width="2.5"/>
  <text x="400" y="300" font-family="Georgia,serif" font-size="16" font-weight="bold" fill="#C2185B" text-anchor="middle">Плач</text>
  <text x="400" y="325" font-family="Georgia,serif" font-size="15" fill="#C2185B" text-anchor="middle">Ярославны</text>
  <circle cx="680" cy="260" r="45" fill="#E3F2FD" stroke="#42A5F5" stroke-width="2.5"/>
  <path d="M660,250 Q690,240 720,255 Q750,270 775,260" fill="none" stroke="#42A5F5" stroke-width="3" opacity="0.7"/>
  <path d="M665,265 Q695,255 725,270 Q750,280 770,270" fill="none" stroke="#42A5F5" stroke-width="2" opacity="0.5"/>
  <text x="680" y="300" font-family="Georgia,serif" font-size="16" font-weight="bold" fill="#1565C0" text-anchor="middle">Ветры</text>
  <!-- Bottom -->
  <rect x="150" y="380" width="500" height="55" rx="10" fill="#F3E5F5" stroke="#7B1FA2" stroke-width="2"/>
  <text x="400" y="405" font-family="Georgia,serif" font-size="22" font-weight="bold" fill="#6A1B9A" text-anchor="middle">1185 год</text>
  <text x="400" y="428" font-family="Georgia,serif" font-size="16" fill="#6A1B9A" text-anchor="middle">Призыв к единству русских князей</text>

</svg>