<svg xmlns="http://www.w3.org/2000/svg" viewBox="0 0 500 350"><defs><linearGradient id="bg" x1="0" y1="0" x2="1" y2="1"><stop offset="0%" stop-color="#FFF8E1"/><stop offset="100%" stop-color="#FFFDE7"/></linearGradient></defs><rect width="500" height="350" fill="url(#bg)" rx="10"/><rect x="3" y="3" width="494" height="344" rx="8" fill="none" stroke="#C62828" stroke-width="3"/><rect x="8" y="8" width="484" height="334" rx="6" fill="none" stroke="#C62828" stroke-width="1" opacity="0.3"/><polygon points="10,10 30,10 10,30" fill="#C62828" opacity="0.08"/><polygon points="490,10 470,10 490,30" fill="#1565C0" opacity="0.08"/><polygon points="10,340 30,340 10,320" fill="#F9A825" opacity="0.08"/><polygon points="490,340 470,340 490,320" fill="#2E7D32" opacity="0.08"/><circle cx="70" cy="15" r="4" fill="#C62828" opacity="0.1"/><circle cx="82" cy="15" r="4" fill="#1565C0" opacity="0.1"/><circle cx="94" cy="15" r="4" fill="#F9A825" opacity="0.1"/><circle cx="406" cy="15" r="4" fill="#C62828" opacity="0.1"/><circle cx="418" cy="15" r="4" fill="#1565C0" opacity="0.1"/><circle cx="430" cy="15" r="4" fill="#F9A825" opacity="0.1"/><text x="250" y="50" font-family="Arial,sans-serif" font-size="24" font-weight="bold" fill="#C62828" text-anchor="middle">Строевые упражнения</text><text x="250" y="68" font-family="Arial,sans-serif" font-size="12" fill="#777" text-anchor="middle">Физическая культура - Урок 2</text><line x1="30" y1="78" x2="470" y2="78" stroke="#C62828" stroke-width="2" opacity="0.25"/><rect x="30" y="75" width="60" height="6" fill="#C62828" opacity="0.15" rx="1"/><rect x="410" y="75" width="60" height="6" fill="#1565C0" opacity="0.12" rx="1"/><!-- Main illustration: Formation lines Soviet style --><rect x="60" y="92" width="380" height="130" rx="8" fill="#E8EAF6" opacity="0.4"/><!-- Ground line --><line x1="70" y1="205" x2="430" y2="205" stroke="#78909C" stroke-width="2" opacity="0.4"/><!-- Row markers on ground --><line x1="100" y1="205" x2="100" y2="210" stroke="#78909C" stroke-width="1" opacity="0.3"/><line x1="150" y1="205" x2="150" y2="210" stroke="#78909C" stroke-width="1" opacity="0.3"/><line x1="200" y1="205" x2="200" y2="210" stroke="#78909C" stroke-width="1" opacity="0.3"/><line x1="250" y1="205" x2="250" y2="210" stroke="#78909C" stroke-width="1" opacity="0.3"/><line x1="300" y1="205" x2="300" y2="210" stroke="#78909C" stroke-width="1" opacity="0.3"/><line x1="350" y1="205" x2="350" y2="210" stroke="#78909C" stroke-width="1" opacity="0.3"/><line x1="400" y1="205" x2="400" y2="210" stroke="#78909C" stroke-width="1" opacity="0.3"/><!-- Back row soldiers --><g fill="#C62828" opacity="0.6"><circle cx="100" cy="120" r="8"/><rect x="93" y="128" width="14" height="24" rx="3"/><rect x="87" y="130" width="6" height="18" rx="2"/><rect x="107" y="130" width="6" height="18" rx="2"/><rect x="95" y="152" width="5" height="12" rx="1"/><rect x="100" y="152" width="5" height="12" rx="1"/></g><g fill="#C62828" opacity="0.6"><circle cx="150" cy="120" r="8"/><rect x="143" y="128" width="14" height="24" rx="3"/><rect x="137" y="130" width="6" height="18" rx="2"/><rect x="157" y="130" width="6" height="18" rx="2"/><rect x="145" y="152" width="5" height="12" rx="1"/><rect x="150" y="152" width="5" height="12" rx="1"/></g><g fill="#C62828" opacity="0.6"><circle cx="200" cy="120" r="8"/><rect x="193" y="128" width="14" height="24" rx="3"/><rect x="187" y="130" width="6" height="18" rx="2"/><rect x="207" y="130" width="6" height="18" rx="2"/><rect x="195" y="152" width="5" height="12" rx="1"/><rect x="200" y="152" width="5" height="12" rx="1"/></g><g fill="#C62828" opacity="0.6"><circle cx="250" cy="120" r="8"/><rect x="243" y="128" width="14" height="24" rx="3"/><rect x="237" y="130" width="6" height="18" rx="2"/><rect x="257" y="130" width="6" height="18" rx="2"/><rect x="245" y="152" width="5" height="12" rx="1"/><rect x="250" y="152" width="5" height="12" rx="1"/></g><g fill="#C62828" opacity="0.6"><circle cx="300" cy="120" r="8"/><rect x="293" y="128" width="14" height="24" rx="3"/><rect x="287" y="130" width="6" height="18" rx="2"/><rect x="307" y="130" width="6" height="18" rx="2"/><rect x="295" y="152" width="5" height="12" rx="1"/><rect x="300" y="152" width="5" height="12" rx="1"/></g><g fill="#C62828" opacity="0.6"><circle cx="350" cy="120" r="8"/><rect x="343" y="128" width="14" height="24" rx="3"/><rect x="337" y="130" width="6" height="18" rx="2"/><rect x="357" y="130" width="6" height="18" rx="2"/><rect x="345" y="152" width="5" height="12" rx="1"/><rect x="350" y="152" width="5" height="12" rx="1"/></g><g fill="#C62828" opacity="0.6"><circle cx="400" cy="120" r="8"/><rect x="393" y="128" width="14" height="24" rx="3"/><rect x="387" y="130" width="6" height="18" rx="2"/><rect x="407" y="130" width="6" height="18" rx="2"/><rect x="395" y="152" width="5" height="12" rx="1"/><rect x="400" y="152" width="5" height="12" rx="1"/></g><!-- Front row soldiers (bigger) --><g fill="#1565C0" opacity="0.7"><circle cx="125" cy="155" r="10"/><rect x="116" y="165" width="18" height="28" rx="3"/><rect x="109" y="167" width="7" height="22" rx="2"/><rect x="134" y="167" width="7" height="22" rx="2"/><rect x="118" y="193" width="6" height="14" rx="1"/><rect x="126" y="193" width="6" height="14" rx="1"/></g><g fill="#1565C0" opacity="0.7"><circle cx="200" cy="155" r="10"/><rect x="191" y="165" width="18" height="28" rx="3"/><rect x="184" y="167" width="7" height="22" rx="2"/><rect x="209" y="167" width="7" height="22" rx="2"/><rect x="193" y="193" width="6" height="14" rx="1"/><rect x="201" y="193" width="6" height="14" rx="1"/></g><g fill="#1565C0" opacity="0.7"><circle cx="275" cy="155" r="10"/><rect x="266" y="165" width="18" height="28" rx="3"/><rect x="259" y="167" width="7" height="22" rx="2"/><rect x="284" y="167" width="7" height="22" rx="2"/><rect x="268" y="193" width="6" height="14" rx="1"/><rect x="276" y="193" width="6" height="14" rx="1"/></g><g fill="#1565C0" opacity="0.7"><circle cx="350" cy="155" r="10"/><rect x="341" y="165" width="18" height="28" rx="3"/><rect x="334" y="167" width="7" height="22" rx="2"/><rect x="359" y="167" width="7" height="22" rx="2"/><rect x="343" y="193" width="6" height="14" rx="1"/><rect x="351" y="193" width="6" height="14" rx="1"/></g><!-- Commander with whistle --><g fill="#F9A825" opacity="0.85"><circle cx="440" cy="145" r="12"/><rect x="430" y="157" width="20" height="32" rx="3"/><rect x="423" y="160" width="8" height="24" rx="2"/><rect x="449" y="160" width="8" height="24" rx="2"/><rect x="434" y="189" width="6" height="16" rx="1"/><rect x="442" y="189" width="6" height="16" rx="1"/></g><!-- Whistle --><rect x="445" y="150" width="15" height="6" rx="3" fill="#90A4AE"/><circle cx="462" cy="153" r="4" fill="#B0BEC5"/><!-- Formation guide lines --><line x1="80" y1="165" x2="420" y2="165" stroke="#F9A825" stroke-width="0.8" stroke-dasharray="4,4" opacity="0.3"/><text x="250" y="98" font-family="Arial,sans-serif" font-size="10" fill="#C62828" text-anchor="middle" opacity="0.6">РАВНЯЙСЬ! СМИРНО!</text><!-- Info cards --><rect x="30" y="228" width="105" height="68" rx="5" fill="#FFEBEE" stroke="#C62828" stroke-width="1" opacity="0.8"/><text x="82" y="250" font-family="Arial,sans-serif" font-size="9" font-weight="bold" fill="#C62828">Строй</text><text x="82" y="264" font-family="Arial,sans-serif" font-size="8" fill="#666">Шеренга, колонна,</text><text x="82" y="275" font-family="Arial,sans-serif" font-size="8" fill="#666">разомкнутый строй</text><rect x="148" y="228" width="105" height="68" rx="5" fill="#E3F2FD" stroke="#1565C0" stroke-width="1" opacity="0.8"/><text x="200" y="250" font-family="Arial,sans-serif" font-size="9" font-weight="bold" fill="#1565C0">Повороты</text><text x="200" y="264" font-family="Arial,sans-serif" font-size="8" fill="#666">Направо, налево,</text><text x="200" y="275" font-family="Arial,sans-serif" font-size="8" fill="#666">кругом</text><rect x="266" y="228" width="105" height="68" rx="5" fill="#FFF8E1" stroke="#F9A825" stroke-width="1" opacity="0.8"/><text x="318" y="250" font-family="Arial,sans-serif" font-size="9" font-weight="bold" fill="#F57F17">Перестроения</text><text x="318" y="264" font-family="Arial,sans-serif" font-size="8" fill="#666">Из одной шеренги</text><text x="318" y="275" font-family="Arial,sans-serif" font-size="8" fill="#666">в две и три</text><rect x="384" y="228" width="105" height="68" rx="5" fill="#E8F5E9" stroke="#2E7D32" stroke-width="1" opacity="0.8"/><text x="436" y="250" font-family="Arial,sans-serif" font-size="9" font-weight="bold" fill="#2E7D32">Выполнение</text><text x="436" y="264" font-family="Arial,sans-serif" font-size="8" fill="#666">Чёткость, синхрон-</text><text x="436" y="275" font-family="Arial,sans-serif" font-size="8" fill="#666">ность, дисциплина</text><rect x="15" y="308" width="470" height="30" rx="4" fill="#C62828" opacity="0.85"/><text x="250" y="329" font-family="Arial,sans-serif" font-size="15" text-anchor="middle" fill="white" font-weight="bold">Строевые упражнения</text></svg>