<svg xmlns="http://www.w3.org/2000/svg" viewBox="0 0 500 350">
  <defs>
    <linearGradient id="bg" x1="0" y1="0" x2="1" y2="1">
      <stop offset="0%" stop-color="#E0F7FA"/>
      <stop offset="100%" stop-color="#B2EBF2"/>
    </linearGradient>
  </defs>
  <!-- Background -->
  <rect width="500" height="350" fill="url(#bg)" rx="10"/>
  <rect x="3" y="3" width="494" height="344" rx="8" fill="none" stroke="#00838F" stroke-width="3"/>
  <rect x="8" y="8" width="484" height="334" rx="6" fill="none" stroke="#00838F" stroke-width="1" opacity="0.3"/>
  <!-- Bauhaus corners -->
  <polygon points="10,10 30,10 10,30" fill="#006064" opacity="0.08"/>
  <polygon points="490,10 470,10 490,30" fill="#006064" opacity="0.08"/>
  <polygon points="10,340 30,340 10,320" fill="#00ACC1" opacity="0.08"/>
  <polygon points="490,340 470,340 490,320" fill="#26C6DA" opacity="0.08"/>
  <!-- Bauhaus circles -->
  <circle cx="70" cy="15" r="4" fill="#006064" opacity="0.1"/>
  <circle cx="82" cy="15" r="4" fill="#0097A7" opacity="0.1"/>
  <circle cx="94" cy="15" r="4" fill="#00ACC1" opacity="0.1"/>
  <circle cx="406" cy="15" r="4" fill="#006064" opacity="0.1"/>
  <circle cx="418" cy="15" r="4" fill="#0097A7" opacity="0.1"/>
  <circle cx="430" cy="15" r="4" fill="#26C6DA" opacity="0.1"/>
  <!-- Title -->
  <text x="250" y="50" font-family="Arial,sans-serif" font-size="20" font-weight="bold" fill="#00838F" text-anchor="middle">Атмосферное давление и ветер</text>
  <text x="250" y="68" font-family="Arial,sans-serif" font-size="12" fill="#777" text-anchor="middle">География - Урок 19</text>
  <line x1="30" y1="78" x2="470" y2="78" stroke="#00838F" stroke-width="2" opacity="0.25"/>
  <rect x="30" y="75" width="60" height="6" fill="#00838F" opacity="0.15" rx="1"/>
  <rect x="410" y="75" width="60" height="6" fill="#00ACC1" opacity="0.12" rx="1"/>

  <rect x="20" y="88" width="200" height="210" rx="6" fill="white" stroke="#00838F" stroke-width="1.5" opacity="0.95"/>
  <text x="120" y="105" font-family="Arial,sans-serif" font-size="10" fill="#00838F" text-anchor="middle" font-weight="bold">Схема / Карта</text>
  <line x1="28" y1="110" x2="212" y2="110" stroke="#E0E0E0" stroke-width="1"/>
  <circle cx="120" cy="185" r="55" fill="#E0F7FA" opacity="0.4" stroke="#00838F" stroke-width="1.5"/>
  <ellipse cx="120" cy="185" rx="55" ry="20" fill="none" stroke="#00ACC1" stroke-width="0.8" opacity="0.4"/>
  <line x1="120" y1="130" x2="120" y2="240" stroke="#00ACC1" stroke-width="0.8" opacity="0.4"/>
  <ellipse cx="120" cy="185" rx="30" ry="55" fill="none" stroke="#26C6DA" stroke-width="0.8" opacity="0.3"/>
  <rect x="240" y="88" width="240" height="105" rx="6" fill="white" stroke="#0097A7" stroke-width="1.5" opacity="0.95"/>
  <text x="360" y="105" font-family="Arial,sans-serif" font-size="10" fill="#0097A7" text-anchor="middle" font-weight="bold">Ключевые понятия</text>
  <line x1="248" y1="110" x2="472" y2="110" stroke="#E0E0E0" stroke-width="1"/>
  <rect x="252" y="118" width="6" height="6" rx="1" fill="#006064" opacity="0.4"/>
  <text x="264" y="124" font-family="Arial,sans-serif" font-size="9" fill="#555">Основные термины урока</text>
  <rect x="252" y="135" width="6" height="6" rx="1" fill="#0097A7" opacity="0.4"/>
  <text x="264" y="141" font-family="Arial,sans-serif" font-size="9" fill="#555">Количественные данные</text>
  <rect x="252" y="152" width="6" height="6" rx="1" fill="#00ACC1" opacity="0.4"/>
  <text x="264" y="158" font-family="Arial,sans-serif" font-size="9" fill="#555">Географические объекты</text>
  <rect x="252" y="169" width="6" height="6" rx="1" fill="#26C6DA" opacity="0.4"/>
  <text x="264" y="175" font-family="Arial,sans-serif" font-size="9" fill="#555">Связи и закономерности</text>
  <rect x="240" y="200" width="240" height="98" rx="6" fill="white" stroke="#00ACC1" stroke-width="1.5" opacity="0.95"/>
  <text x="360" y="217" font-family="Arial,sans-serif" font-size="10" fill="#00ACC1" text-anchor="middle" font-weight="bold">Запомните</text>
  <line x1="248" y1="222" x2="472" y2="222" stroke="#E0E0E0" stroke-width="1"/>
  <rect x="255" y="230" width="210" height="24" rx="4" fill="#00838F" opacity="0.08"/>
  <text x="360" y="246" font-family="Arial,sans-serif" font-size="9" fill="#00838F" text-anchor="middle">Главный факт урока</text>
  <rect x="255" y="260" width="210" height="24" rx="4" fill="#00ACC1" opacity="0.08"/>
  <text x="360" y="276" font-family="Arial,sans-serif" font-size="9" fill="#00ACC1" text-anchor="middle">Дополнительная информация</text>
  <!-- Bottom panel -->
  <rect x="15" y="308" width="470" height="30" rx="4" fill="#00838F" opacity="0.85"/>
  <text x="250" y="329" font-family="Arial,sans-serif" font-size="14" text-anchor="middle" fill="white" font-weight="bold">Атмосферное давление и ветер</text>
  <circle cx="455" cy="122" r="22" fill="none" stroke="#00838F" stroke-width="1" opacity="0.1"/>
  <ellipse cx="455" cy="122" rx="22" ry="9" fill="none" stroke="#00ACC1" stroke-width="1" opacity="0.1"/>
  <line x1="455" y1="100" x2="455" y2="144" stroke="#26C6DA" stroke-width="1" opacity="0.1"/>
</svg>